<?xml version="1.0" encoding="utf-8"?>
<!-- Generated by IcoMoon.io -->
<!DOCTYPE svg PUBLIC "-//W3C//DTD SVG 1.1//EN" "http://www.w3.org/Graphics/SVG/1.1/DTD/svg11.dtd">
<svg version="1.1" xmlns="http://www.w3.org/2000/svg" xmlns:xlink="http://www.w3.org/1999/xlink" width="20" height="20" viewBox="0 0 20 20">
<path d="M17.2 2.8c1.7 1.7 1.7 4.4 0 6.1l-1.5 1.5c-1.1 1.1-2.7 1.5-4.1 1.1l4.2-4.2c0.8-0.8 0.8-2.2 0-3-0.8-0.9-2.2-0.9-3 0l-0.8 0.8-3.5 3.3c-0.4-1.4 0-3 1.1-4.1l1.5-1.5c1.7-1.7 4.5-1.7 6.1 0zM8.1 13.4l5.3-5.3c0.4-0.4 0.4-1.1 0-1.5s-1.1-0.4-1.5 0l-5.3 5.3c-0.4 0.4-0.4 1.1 0 1.5 0.4 0.5 1.1 0.4 1.5 0zM7.3 15.7l4.1-4.2c0.4 1.4 0 3-1.1 4.1l-1.5 1.5c-1.7 1.7-4.4 1.7-6.1 0s-1.7-4.4 0-6.1l1.5-1.5c1.2-1 2.8-1.4 4.2-1l-4.1 4.1c-0.8 0.8-0.8 2.2 0 3.1s2.2 0.9 3 0z"></path>
</svg>
