<?xml version="1.0" encoding="utf-8"?>
<!-- Generated by IcoMoon.io -->
<!DOCTYPE svg PUBLIC "-//W3C//DTD SVG 1.1//EN" "http://www.w3.org/Graphics/SVG/1.1/DTD/svg11.dtd">
<svg version="1.1" xmlns="http://www.w3.org/2000/svg" xmlns:xlink="http://www.w3.org/1999/xlink" width="20" height="20" viewBox="0 0 20 20">
<g>
</g>
	<path d="M16.95 2.58q0.96 0.96 1.305 2.25t0 2.575-1.305 2.245q-1.12 1.12-2.675 1.385t-2.915-0.375l-1.87 3.31-2.99 0.31-1.5 3.72h-3l-1-2 7.95-7.69q-0.71-1.39-0.465-2.985t1.395-2.745q0.96-0.96 2.25-1.305t2.575 0 2.245 1.305zM14.44 6.37q0.55 0 0.94-0.39t0.39-0.95q0-0.55-0.39-0.94t-0.94-0.39-0.94 0.39-0.39 0.94 0.39 0.945 0.94 0.395z" fill="#000000"></path>
</svg>
