<?xml version="1.0" encoding="utf-8"?>
<!-- Generated by IcoMoon.io -->
<!DOCTYPE svg PUBLIC "-//W3C//DTD SVG 1.1//EN" "http://www.w3.org/Graphics/SVG/1.1/DTD/svg11.dtd">
<svg version="1.1" xmlns="http://www.w3.org/2000/svg" xmlns:xlink="http://www.w3.org/1999/xlink" width="20" height="20" viewBox="0 0 20 20">
<g>
</g>
	<path d="M13 11v-7q0-0.41-0.295-0.705t-0.705-0.295h-1.67l-1.33-2h-4l-1.33 2h-1.67q-0.41 0-0.705 0.295t-0.295 0.705v7q0 0.41 0.295 0.705t0.705 0.295h10q0.41 0 0.705-0.295t0.295-0.705zM7 4.5q1.040 0 1.77 0.73t0.73 1.77-0.73 1.77-1.77 0.73-1.77-0.73-0.73-1.77 0.73-1.77 1.77-0.73zM14 6h5v10.5q0 1.040-0.73 1.77t-1.77 0.73-1.77-0.73-0.73-1.77 0.73-1.77 1.77-0.73q0.23 0 0.5 0.050v-5.050h-3v-3zM10 14.050v-1.050h2v3.5q0 1.040-0.73 1.77t-1.77 0.73-1.77-0.73-0.73-1.77 0.73-1.77 1.77-0.73q0.23 0 0.5 0.050z" fill="#000000"></path>
</svg>
