<?xml version="1.0" encoding="utf-8"?>
<!-- Generated by IcoMoon.io -->
<!DOCTYPE svg PUBLIC "-//W3C//DTD SVG 1.1//EN" "http://www.w3.org/Graphics/SVG/1.1/DTD/svg11.dtd">
<svg version="1.1" xmlns="http://www.w3.org/2000/svg" xmlns:xlink="http://www.w3.org/1999/xlink" width="20" height="20" viewBox="0 0 20 20">
<path d="M18.5 11.5h-2.2c-0.2 0.7-0.4 1.4-0.8 1.9l1.5 1.6-2.1 2.1-1.5-1.5c-0.6 0.4-1.2 0.6-1.9 0.8v2.2h-3v-2.2c-0.7-0.2-1.3-0.4-1.9-0.8l-1.6 1.5-2.1-2.1 1.5-1.5c-0.4-0.6-0.6-1.2-0.8-1.9h-2.1v-3h2.2c0.2-0.7 0.4-1.3 0.8-1.9l-1.6-1.7 2.1-2.1 1.5 1.5c0.6-0.4 1.2-0.6 1.9-0.8v-2.1h3v2.2c0.7 0.2 1.3 0.4 1.9 0.8l1.5-1.5 2.3 2-1.5 1.5c0.4 0.6 0.6 1.2 0.8 1.9h2.2v3.1zM10 13c1.7 0 3-1.3 3-3s-1.3-3-3-3-3 1.3-3 3 1.3 3 3 3z"></path>
</svg>
