<?xml version="1.0" encoding="utf-8"?>
<!-- Generated by IcoMoon.io -->
<!DOCTYPE svg PUBLIC "-//W3C//DTD SVG 1.1//EN" "http://www.w3.org/Graphics/SVG/1.1/DTD/svg11.dtd">
<svg version="1.1" xmlns="http://www.w3.org/2000/svg" xmlns:xlink="http://www.w3.org/1999/xlink" width="20" height="20" viewBox="0 0 20 20">
<g>
</g>
	<path d="M13.11 4.36l-3.24 3.24-1.87-1.87 3.24-3.24q0.26-0.26 0.72-0.165t0.84 0.485q0.39 0.38 0.48 0.835t-0.17 0.715zM5.11 6.13l0.91-1.12 9.010 9.010-1.19 0.84q-0.5 0.5-1.675 0.83t-2.145 0.33h-3.88l-1.24 1.24q-0.44 0.44-1.060 0.44t-1.060-0.44q-0.44-0.43-0.44-1.055t0.44-1.065l1.24-1.24v-3.88q0-0.96 0.305-2.18t0.785-1.71zM12.37 10.1l3.24-3.24q0.25-0.26 0.71-0.17t0.84 0.48q0.39 0.38 0.48 0.835t-0.17 0.715l-3.24 3.25z" fill="#000000"></path>
</svg>
