<?xml version="1.0" encoding="utf-8"?>
<!-- Generated by IcoMoon.io -->
<!DOCTYPE svg PUBLIC "-//W3C//DTD SVG 1.1//EN" "http://www.w3.org/Graphics/SVG/1.1/DTD/svg11.dtd">
<svg version="1.1" xmlns="http://www.w3.org/2000/svg" xmlns:xlink="http://www.w3.org/1999/xlink" width="20" height="20" viewBox="0 0 20 20">
<g>
</g>
	<path d="M18 16v-12q0-0.41-0.295-0.705t-0.705-0.295h-13q-0.41 0-0.705 0.295t-0.295 0.705v12q0 0.41 0.295 0.705t0.705 0.295h13q0.41 0 0.705-0.295t0.295-0.705zM8 11h1q0.41 0 0.705 0.295t0.295 0.705-0.295 0.705-0.705 0.295h-1v1.5q0 0.21-0.145 0.355t-0.355 0.145-0.355-0.145-0.145-0.355v-1.5h-1q-0.41 0-0.705-0.295t-0.295-0.705 0.295-0.705 0.705-0.295h1v-5.5q0-0.21 0.145-0.355t0.355-0.145 0.355 0.145 0.145 0.355v5.5zM13 9h-1q-0.41 0-0.705-0.295t-0.295-0.705 0.295-0.705 0.705-0.295h1v-1.5q0-0.21 0.145-0.355t0.355-0.145 0.355 0.145 0.145 0.355v1.5h1q0.41 0 0.705 0.295t0.295 0.705-0.295 0.705-0.705 0.295h-1v5.5q0 0.21-0.145 0.355t-0.355 0.145-0.355-0.145-0.145-0.355v-5.5z" fill="#000000"></path>
</svg>
