<?xml version="1.0" encoding="utf-8"?>
<!-- Generated by IcoMoon.io -->
<!DOCTYPE svg PUBLIC "-//W3C//DTD SVG 1.1//EN" "http://www.w3.org/Graphics/SVG/1.1/DTD/svg11.dtd">
<svg version="1.1" xmlns="http://www.w3.org/2000/svg" xmlns:xlink="http://www.w3.org/1999/xlink" width="20" height="20" viewBox="0 0 20 20">
<path d="M18.33 3.57q0.030-0.090 0.060-0.24t-0.040-0.51-0.33-0.61q-0.24-0.23-0.545-0.29t-0.495 0l-0.18 0.050q-0.91 0.45-3.675 2.335t-3.995 3.235q-0.46 0.52-0.88 1.45t-0.55 1.875 0.34 1.495q0.52 0.46 1.465 0.36t1.92-0.515 1.405-0.845q1.34-1.34 3.23-4.16t2.27-3.63zM1.4 17.65q0.66-0.43 1.070-0.955t0.595-1.010 0.34-0.95 0.45-0.925 0.775-0.8q0.68-0.5 1.565-0.44t1.515 0.73q0.51 0.55 0.515 1.65t-0.675 1.81q-0.76 0.7-1.815 1.015t-2.14 0.265-2.195-0.39z"></path>
</svg>
