<?xml version="1.0" encoding="utf-8"?>
<!-- Generated by IcoMoon.io -->
<!DOCTYPE svg PUBLIC "-//W3C//DTD SVG 1.1//EN" "http://www.w3.org/Graphics/SVG/1.1/DTD/svg11.dtd">
<svg version="1.1" xmlns="http://www.w3.org/2000/svg" xmlns:xlink="http://www.w3.org/1999/xlink" width="20" height="20" viewBox="0 0 20 20">
<path d="M13.8 7.3l-3.8-3.4-3.8 3.4-0.7-0.7 4.5-3.9 4.5 3.9-0.7 0.7zM13.6 8.7l-3.6 3.1-3.6-3.1v-0.7l3.6-3.2 3.6 3.2v0.7zM10.9 9.8v-1.5h-1.8v1.5h1.8zM9.3 13.5l-3.8-3.4-3.8 3.4-0.7-0.7 4.5-3.9 4.5 3.9-0.7 0.7zM18.3 13.5l-3.8-3.4-3.8 3.4-0.7-0.7 4.5-3.9 4.5 3.9-0.7 0.7zM5.5 11l3.6 3.1v3.2h-7.2v-3.2l3.6-3.1zM14.5 11l3.6 3.1v3.2h-7.2v-3.2l3.6-3.1zM6.4 16.4v-1.8h-1.8v1.8h1.8zM15.4 16.4v-1.8h-1.8v1.8h1.8z"></path>
</svg>
