<?xml version="1.0" encoding="utf-8"?>
<!-- Generated by IcoMoon.io -->
<!DOCTYPE svg PUBLIC "-//W3C//DTD SVG 1.1//EN" "http://www.w3.org/Graphics/SVG/1.1/DTD/svg11.dtd">
<svg version="1.1" xmlns="http://www.w3.org/2000/svg" xmlns:xlink="http://www.w3.org/1999/xlink" width="20" height="20" viewBox="0 0 20 20">
<path d="M14.1 11.3l-7.1-7.1 1.5-1.5c0.5-0.6 2.3-0.5 3.5 0.3s1.4 1.3 2.9 2.1c1.2 0.6 2.4 1.3 4.4 0.8l-5.2 5.4zM13.4 12l-7.1-7.1-1.8 1.8c-0.4 0.4-0.4 1 0 1.4l1.1 1.1c0.4 0.4 0.4 1 0 1.4-0.6 0.6-1.4 1.1-2.2 1.7-0.3 0.3-0.7 0.5-1 0.8-1.4 1.3-2.4 3.2-1.4 4.2s2.8 0 4.2-1.4c0.3-0.3 0.6-0.7 0.8-1 0.6-0.8 1.1-1.6 1.7-2.2 0.4-0.4 1-0.4 1.4 0l1.1 1.1c0.4 0.4 1 0.4 1.4 0l1.8-1.8z"></path>
</svg>
