<?xml version="1.0" encoding="utf-8"?>
<!-- Generator: Adobe Illustrator 18.0.0, SVG Export Plug-In . SVG Version: 6.00 Build 0)  -->
<!DOCTYPE svg PUBLIC "-//W3C//DTD SVG 1.1//EN" "http://www.w3.org/Graphics/SVG/1.1/DTD/svg11.dtd">
<svg version="1.1" id="Layer_1" xmlns="http://www.w3.org/2000/svg" xmlns:xlink="http://www.w3.org/1999/xlink" x="0px" y="0px"
	 viewBox="0 0 20 20" enable-background="new 0 0 20 20" xml:space="preserve">
<path d="M6,14V3c0-0.6,0.4-1,1-1h8c0.6,0,1,0.4,1,1v11c0,0.6-0.4,1-1,1H7C6.4,15,6,14.6,6,14z M6.3,16H13v1c0,0.6-0.4,1-1,1H4
	c-0.6,0-1-0.5-1-1V6c0-0.6,0.5-1,1-1h1v9.7C5,15.4,5.6,16,6.3,16z"/>
</svg>
