<?xml version="1.0" encoding="utf-8"?>
<!-- Generator: Adobe Illustrator 19.2.0, SVG Export Plug-In . SVG Version: 6.00 Build 0)  -->
<svg version="1.1" id="Layer_1" xmlns="http://www.w3.org/2000/svg" xmlns:xlink="http://www.w3.org/1999/xlink" x="0px" y="0px"
	 viewBox="0 0 20 20" style="enable-background:new 0 0 20 20;" xml:space="preserve">
<path d="M16.5,5.8c-1.1,0.9-2,2-1.7,3.1c0.4,1.2,1.8,1.7,2.5,3.5C17.5,11.9,18.6,9.1,16.5,5.8z M8,10.1c-1.4,0.7-1.6,1.6-1.8,2.5
	c0.6,1.2,3.3,0.9,3.2,5c3.3-1.4,4-3.2,4.1-4.7c0-1.5-0.3-2.5-3.6-3.1C6.6,9.3,5.2,7.7,6.6,6.6C7.5,5.9,8.2,8,9.7,7.8
	c-1.5-1.4-0.8-4.2,0-5.6C6.3,2.3,3.5,4.7,2.5,7.8C3.5,8.9,5.2,9.8,8,10.1z M19,10c0,5-4,9-9,9s-9-4-9-9s4-9,9-9S19,5,19,10z"/>
</svg>
