<?xml version="1.0" encoding="utf-8"?>
<!-- Generator: Adobe Illustrator 19.2.0, SVG Export Plug-In . SVG Version: 6.00 Build 0)  -->
<svg version="1.1" id="Layer_1" xmlns="http://www.w3.org/2000/svg" xmlns:xlink="http://www.w3.org/1999/xlink" x="0px" y="0px"
	 viewBox="0 0 20 20" style="enable-background:new 0 0 20 20;" xml:space="preserve">
<path d="M18,16V4c0-0.3-0.1-0.5-0.3-0.7S17.3,3,17,3H4C3.7,3,3.5,3.1,3.3,3.3S3,3.7,3,4v12c0,0.3,0.1,0.5,0.3,0.7S3.7,17,4,17h13
	c0.3,0,0.5-0.1,0.7-0.3S18,16.3,18,16z M8,11h1c0.3,0,0.5,0.1,0.7,0.3C9.9,11.5,10,11.7,10,12s-0.1,0.5-0.3,0.7
	C9.5,12.9,9.3,13,9,13H8v1.5c0,0.1,0,0.3-0.1,0.4C7.8,15,7.6,15,7.5,15s-0.3,0-0.4-0.1C7,14.8,7,14.6,7,14.5V13H6
	c-0.3,0-0.5-0.1-0.7-0.3C5.1,12.5,5,12.3,5,12s0.1-0.5,0.3-0.7C5.5,11.1,5.7,11,6,11h1V5.5c0-0.1,0-0.3,0.1-0.4C7.2,5,7.4,5,7.5,5
	s0.3,0,0.4,0.1C8,5.2,8,5.4,8,5.5V11z M13,9h-1c-0.3,0-0.5-0.1-0.7-0.3C11.1,8.5,11,8.3,11,8c0-0.3,0.1-0.5,0.3-0.7
	C11.5,7.1,11.7,7,12,7h1V5.5c0-0.1,0-0.3,0.1-0.4C13.2,5,13.4,5,13.5,5s0.3,0,0.4,0.1C14,5.2,14,5.4,14,5.5V7h1
	c0.3,0,0.5,0.1,0.7,0.3C15.9,7.5,16,7.7,16,8c0,0.3-0.1,0.5-0.3,0.7C15.5,8.9,15.3,9,15,9h-1v5.5c0,0.1,0,0.3-0.1,0.4
	S13.6,15,13.5,15s-0.3,0-0.4-0.1S13,14.6,13,14.5V9z"/>
</svg>
