<?xml version="1.0" encoding="utf-8"?>
<!-- Generator: Adobe Illustrator 19.2.0, SVG Export Plug-In . SVG Version: 6.00 Build 0)  -->
<svg version="1.1" id="Layer_1" xmlns="http://www.w3.org/2000/svg" xmlns:xlink="http://www.w3.org/1999/xlink" x="0px" y="0px"
	 viewBox="0 0 20 20" style="enable-background:new 0 0 20 20;" xml:space="preserve">
<path d="M1,2v16c0,0.6,0.4,1,1,1h11l6-6V2c0-0.6-0.4-1-1-1H2C1.4,1,1,1.4,1,2z M12.7,9.7l-0.6,0.6c-0.4,0.4-0.6,0.8-0.6,1.3
	c-0.1,0.5,0.1,1,0.3,1.4l-1.5,1.5l-2-2l-2.3,2.3c-0.3,0.3-0.8,0.7-1.7,1.3c-0.8,0.5-1.3,0.7-1.4,0.6s0.1-0.6,0.6-1.4s1-1.4,1.3-1.7
	l2.3-2.3l-2-2L6.7,8c0.4,0.3,0.9,0.4,1.4,0.3s1-0.3,1.3-0.6l0.6-0.6c0.4-0.4,0.6-0.8,0.6-1.3c0.1-0.5-0.1-1-0.3-1.4l1.5-1.5L17,8
	l-1.5,1.5c-0.4-0.3-0.9-0.4-1.4-0.3C13.6,9.2,13.1,9.4,12.7,9.7z M13,17.5V13h4.5L13,17.5z"/>
</svg>
