<?xml version="1.0" encoding="utf-8"?>
<!-- Generated by IcoMoon.io -->
<!DOCTYPE svg PUBLIC "-//W3C//DTD SVG 1.1//EN" "http://www.w3.org/Graphics/SVG/1.1/DTD/svg11.dtd">
<svg version="1.1" xmlns="http://www.w3.org/2000/svg" xmlns:xlink="http://www.w3.org/1999/xlink" width="20" height="20" viewBox="0 0 20 20">
<g>
</g>
	<path d="M16.68 9.77q-0.99 0.99-2.36 1.25t-2.59-0.26l-5.41 6.52q-0.74 0.74-1.79 0.74t-1.79-0.74-0.74-1.79 0.74-1.78l6.52-5.42q-0.52-1.22-0.26-2.59t1.25-2.36q0.94-0.94 2.24-1.22t2.48 0.16l-2.89 2.89 2.82 2.82 2.86-2.87q0.41 1.17 0.13 2.445t-1.21 2.205zM3.81 16.21q0.3 0.29 0.72 0.29t0.71-0.29q0.3-0.3 0.3-0.72t-0.3-0.71q-0.29-0.3-0.71-0.3t-0.72 0.3q-0.29 0.29-0.29 0.71t0.29 0.72z" fill="#000000"></path>
</svg>
