<?xml version="1.0" encoding="utf-8"?>
<!-- Generator: Adobe Illustrator 19.2.0, SVG Export Plug-In . SVG Version: 6.00 Build 0)  -->
<svg version="1.1" id="Layer_1" xmlns="http://www.w3.org/2000/svg" xmlns:xlink="http://www.w3.org/1999/xlink" x="0px" y="0px"
	 viewBox="0 0 20 20" style="enable-background:new 0 0 20 20;" xml:space="preserve">
<path d="M12.6,9.9L10,11.7L7.3,9.9C4.9,9.9,3,12.1,3,14.4v2.5c0,0,3.5,1.1,7,1.1c3.5,0,7-1.1,7-1.1v-2.5C17,12.2,14.9,9.9,12.6,9.9z
	 M10,9.2c2.3,0,2.7-3.4,2.7-3.4C12.9,4,12.1,2,10,2C7.8,2,7,4,7.3,5.8C7.3,5.8,7.7,9.2,10,9.2z"/>
</svg>
