<?xml version="1.0" encoding="utf-8"?>
<!-- Generated by IcoMoon.io -->
<!DOCTYPE svg PUBLIC "-//W3C//DTD SVG 1.1//EN" "http://www.w3.org/Graphics/SVG/1.1/DTD/svg11.dtd">
<svg version="1.1" xmlns="http://www.w3.org/2000/svg" xmlns:xlink="http://www.w3.org/1999/xlink" width="20" height="20" viewBox="0 0 20 20">
<g>
</g>
	<path d="M18 12h-2.18q-0.26 1.070-0.81 1.93l1.54 1.54-2.1 2.1-1.54-1.54q-0.88 0.55-1.91 0.79v2.18h-3v-2.18q-1.030-0.24-1.91-0.79l-1.54 1.54-2.12-2.12 1.54-1.54q-0.55-0.88-0.79-1.91h-2.18v-2.97h2.17q0.23-1.010 0.8-1.94l-1.54-1.54 2.1-2.1 1.54 1.54q0.85-0.54 1.93-0.81v-2.18h3v2.18q1.030 0.24 1.91 0.79l1.54-1.54 2.12 2.12-1.54 1.54q0.57 0.93 0.8 1.94h2.17v2.97zM9.5 13.5q1.24 0 2.12-0.88t0.88-2.12-0.88-2.12-2.12-0.88-2.12 0.88-0.88 2.12 0.88 2.12 2.12 0.88z" fill="#000000"></path>
</svg>
