<?xml version="1.0" encoding="utf-8"?>
<!-- Generator: Adobe Illustrator 18.0.0, SVG Export Plug-In . SVG Version: 6.00 Build 0)  -->
<!DOCTYPE svg PUBLIC "-//W3C//DTD SVG 1.1//EN" "http://www.w3.org/Graphics/SVG/1.1/DTD/svg11.dtd">
<svg version="1.1" id="Layer_1" xmlns="http://www.w3.org/2000/svg" xmlns:xlink="http://www.w3.org/1999/xlink" x="0px" y="0px"
	 viewBox="0 0 20 20" enable-background="new 0 0 20 20" xml:space="preserve">
<path d="M13.8,11.8L12,13.5c-0.4,0.4-1,0.4-1.4,0l-1.1-1.1c-0.4-0.4-1-0.4-1.4,0c-0.6,0.6-1.1,1.4-1.7,2.2c-0.3,0.4-0.5,0.7-0.8,1
	c-1.3,1.3-3.2,2.4-4.2,1.4c-1-1,0-2.8,1.4-4.2c0.3-0.3,0.7-0.6,1-0.8C4.6,11.5,5.4,11,6,10.4c0.4-0.4,0.4-1,0-1.4L4.9,7.9
	c-0.4-0.4-0.4-1,0-1.4l1.8-1.8L13.8,11.8z M14.5,11.1l5.3-5.3c-2,0.4-3.3-0.2-4.4-0.8c-1.5-0.8-1.7-1.3-2.9-2.1
	c-1.2-0.8-3-0.9-3.5-0.3L7.4,4L14.5,11.1z"/>
</svg>
