<?xml version="1.0" encoding="utf-8"?>
<!-- Generator: Adobe Illustrator 19.2.0, SVG Export Plug-In . SVG Version: 6.00 Build 0)  -->
<svg version="1.1" id="Layer_1" xmlns="http://www.w3.org/2000/svg" xmlns:xlink="http://www.w3.org/1999/xlink" x="0px" y="0px"
	 viewBox="0 0 20 20" style="enable-background:new 0 0 20 20;" xml:space="preserve">
<path d="M0,18h10v-0.3c1.6,0.4,3.2,0.3,4.8-0.2c0.8-0.3,1.6-0.7,2.2-1.2s1.2-1.1,1.7-1.8c0.4-0.7,0.8-1.4,1-2.2
	c0.2-0.8,0.3-1.6,0.3-2.5c0-0.9-0.2-1.7-0.5-2.5c-0.3-0.8-0.7-1.5-1.2-2.1c-0.5-0.6-1.1-1.2-1.7-1.6s-1.3-0.8-2-1.1S13.1,2,12.4,2
	c-0.8,0-1.6,0.1-2.4,0.2V2H0C0,2,0,18,0,18z M9,3v14H1V3H9z M14.4,11.2c-0.3,0.7-0.9,1.1-1.6,1.4s-1.4,0.2-2.1-0.1
	c-0.3-0.1-0.6-0.3-0.8-0.6V8.1c0.4-0.4,0.9-0.7,1.5-0.8c0.6-0.1,1.2,0,1.7,0.2c0.7,0.3,1.1,0.9,1.4,1.6S14.8,10.5,14.4,11.2z
	 M11.7,10.4c0.1,0.1,0.2,0.1,0.4,0.1c0.1,0,0.2-0.1,0.3-0.2c0.1-0.1,0.1-0.2,0.1-0.4c0-0.1-0.1-0.2-0.2-0.3
	c-0.1-0.1-0.2-0.1-0.4-0.1s-0.2,0.1-0.3,0.2c-0.1,0.1-0.1,0.2-0.1,0.4C11.5,10.2,11.6,10.3,11.7,10.4z M14.7,14.1
	c-0.6,0.4-1.2,0.6-1.9,0.8c-0.7,0.1-1.3,0.1-2-0.1c-0.1,0-0.2-0.1-0.3-0.2c-0.1-0.1-0.1-0.2-0.1-0.4c0-0.1,0.1-0.2,0.2-0.3
	c0.1-0.1,0.2-0.1,0.4-0.1l0.2,0c1,0.2,2,0,2.9-0.6c0.5-0.3,0.9-0.7,1.1-1.2c0.1-0.1,0.2-0.2,0.3-0.2c0.1,0,0.3,0,0.4,0.1
	c0.1,0.1,0.2,0.2,0.2,0.3c0,0.1,0,0.3-0.1,0.4C15.8,13.2,15.3,13.7,14.7,14.1z M15.8,15.6c-0.7,0.5-1.5,0.8-2.3,1
	c-0.8,0.2-1.7,0.2-2.5,0.1c-0.1,0-0.2-0.1-0.3-0.2c-0.1-0.1-0.1-0.2-0.1-0.4c0-0.1,0.1-0.2,0.2-0.3c0.1-0.1,0.2-0.1,0.4-0.1l0.2,0
	c1.4,0.2,2.7-0.2,3.9-0.9c0.7-0.4,1.2-1,1.7-1.7c0.1-0.1,0.2-0.2,0.3-0.2c0.1,0,0.3,0,0.4,0.1c0.1,0.1,0.2,0.2,0.2,0.3
	c0,0.1,0,0.3-0.1,0.4C17.2,14.4,16.6,15.1,15.8,15.6z"/>
</svg>
