<?xml version="1.0" encoding="utf-8"?>
<!-- Generated by IcoMoon.io -->
<!DOCTYPE svg PUBLIC "-//W3C//DTD SVG 1.1//EN" "http://www.w3.org/Graphics/SVG/1.1/DTD/svg11.dtd">
<svg version="1.1" xmlns="http://www.w3.org/2000/svg" xmlns:xlink="http://www.w3.org/1999/xlink" width="20" height="20" viewBox="0 0 20 20">
<path d="M0 18h10v-0.26q2.41 0.63 4.76-0.24 1.22-0.45 2.225-1.25t1.675-1.83 1.025-2.21 0.315-2.465-0.49-2.505q-0.42-1.15-1.16-2.11t-1.675-1.615-2.045-1.060-2.27-0.44-2.36 0.245v-0.26h-10v16zM9 3v14h-8v-14h8zM14.45 11.22q-0.51 1.010-1.585 1.37t-2.085-0.14q-0.46-0.22-0.78-0.59v-3.73q0.61-0.65 1.495-0.82t1.725 0.24q1.010 0.51 1.37 1.585t-0.14 2.085zM11.7 10.4q0.16 0.12 0.365 0.090t0.335-0.19q0.12-0.16 0.090-0.365t-0.19-0.335q-0.17-0.13-0.37-0.1t-0.33 0.2q-0.12 0.16-0.090 0.365t0.19 0.335zM14.71 14.070q-0.86 0.57-1.875 0.75t-1.955-0.060q-0.2-0.050-0.31-0.23t-0.060-0.38 0.23-0.305 0.39-0.055l0.17 0.040q1.55 0.27 2.86-0.59 0.72-0.49 1.14-1.18 0.11-0.17 0.31-0.215t0.38 0.055q0.17 0.11 0.22 0.315t-0.060 0.375q-0.57 0.9-1.44 1.48zM15.76 15.64q-1.090 0.73-2.34 0.995t-2.5 0.065q-0.21-0.040-0.33-0.215t-0.080-0.385q0.040-0.2 0.215-0.315t0.395-0.075l0.22 0.040q2.11 0.24 3.87-0.94 1.010-0.67 1.7-1.74 0.1-0.18 0.305-0.225t0.375 0.065q0.18 0.1 0.225 0.305t-0.065 0.385q-0.76 1.22-1.99 2.040z" fill="#444444"></path>
</svg>
