<?xml version="1.0" encoding="utf-8"?>
<!-- Generator: Adobe Illustrator 19.0.0, SVG Export Plug-In . SVG Version: 6.00 Build 0)  -->
<svg version="1.1" id="Layer_1" xmlns="http://www.w3.org/2000/svg" xmlns:xlink="http://www.w3.org/1999/xlink" x="0px" y="0px"
	 viewBox="-295 387 20 20" style="enable-background:new -295 387 20 20;" xml:space="preserve">
<path d="M-294,390h18c0.6,0,1,0.4,1,1v12c0,0.6-0.4,1-1,1h-18c-0.6,0-1-0.4-1-1v-12C-295,390.4-294.6,390-294,390z M-276,394v-2h-18
	v2H-276z M-280,399v-4h-10v4H-280z M-291,398v-2h-3v2H-291z M-276,398v-2h-3v2H-276z M-276,402v-2h-18v2H-276z"/>
</svg>
