<?xml version="1.0" encoding="utf-8"?>
<!-- Generated by IcoMoon.io -->
<!DOCTYPE svg PUBLIC "-//W3C//DTD SVG 1.1//EN" "http://www.w3.org/Graphics/SVG/1.1/DTD/svg11.dtd">
<svg version="1.1" xmlns="http://www.w3.org/2000/svg" xmlns:xlink="http://www.w3.org/1999/xlink" width="20" height="20" viewBox="0 0 20 20">
<g>
</g>
	<path d="M18 18v-16h-16v16h16zM16 5h-12v-1h12v1zM7 7v3h3q0 1.24-0.88 2.12t-2.12 0.88-2.12-0.88-0.88-2.12 0.88-2.12 2.12-0.88zM8 9v-2q0.82 0 1.41 0.59t0.59 1.41h-2zM16 8h-4v-1h4v1zM16 11h-4v-2h4v2zM16 13h-4v-1h4v1zM16 16h-12v-1h12v1z" fill="#000000"></path>
</svg>
