<?xml version="1.0" encoding="utf-8"?>
<!-- Generated by IcoMoon.io -->
<!DOCTYPE svg PUBLIC "-//W3C//DTD SVG 1.1//EN" "http://www.w3.org/Graphics/SVG/1.1/DTD/svg11.dtd">
<svg version="1.1" xmlns="http://www.w3.org/2000/svg" xmlns:xlink="http://www.w3.org/1999/xlink" width="20" height="20" viewBox="0 0 20 20">
<path d="M4.5 4.6l0.5 2.3-0.5 2.3 2 1.2 1.2 2 2.3-0.5 2.3 0.5 1.2-2 2-1.2-0.5-2.3 0.5-2.3-2-1.2-1.2-2-2.3 0.5-2.3-0.5-1.2 2-2 1.2zM10 10.9c-2.2 0-4-1.8-4-4s1.8-4 4-4c2.2 0 4 1.8 4 4 0 2.3-1.8 4-4 4zM10 9.9c-1.7 0-3-1.3-3-3s1.3-3 3-3 3 1.3 3 3c0 1.7-1.4 3-3 3zM13.8 11l-1.3 2.2-2.1-0.5 2.5 5.8 1.4-2.2h2.5l-3-5.3zM6.1 11.1l1.2 2.2 2.1-0.5-2.4 5.8-1.4-2.2h-2.5l3-5.3z"></path>
</svg>
