<?xml version="1.0" encoding="utf-8"?>
<!-- Generated by IcoMoon.io -->
<!DOCTYPE svg PUBLIC "-//W3C//DTD SVG 1.1//EN" "http://www.w3.org/Graphics/SVG/1.1/DTD/svg11.dtd">
<svg version="1.1" xmlns="http://www.w3.org/2000/svg" xmlns:xlink="http://www.w3.org/1999/xlink" width="20" height="20" viewBox="0 0 20 20">
<path d="M14.1 2.9c3.9 2 5.5 6.8 3.5 10.8s-6.8 5.5-10.8 3.5c-1.9-1-3.2-2.6-3.9-4.4l1.6-1c0.4 1.6 1.5 2.9 3.1 3.8 3 1.5 6.7 0.4 8.2-2.7 1.5-3 0.4-6.7-2.6-8.2-3-1.7-6.6-0.5-8.2 2.5l1.9 1-4.9 3.1-0.4-5.9 1.8 0.9c2-3.9 6.8-5.4 10.7-3.4zM9.7 10.7c-0.2-0.2-0.3-0.4-0.3-0.7 0-0.1 0-0.1 0-0.2v0l1-4.8 1 4.8 3 3.2-4.4-2.1c-0.1-0.1-0.2-0.1-0.3-0.2z"></path>
</svg>
