<?xml version="1.0" encoding="utf-8"?>
<!-- Generated by IcoMoon.io -->
<!DOCTYPE svg PUBLIC "-//W3C//DTD SVG 1.1//EN" "http://www.w3.org/Graphics/SVG/1.1/DTD/svg11.dtd">
<svg version="1.1" xmlns="http://www.w3.org/2000/svg" xmlns:xlink="http://www.w3.org/1999/xlink" width="20" height="20" viewBox="0 0 20 20">
<g>
</g>
	<path d="M9 3q0-0.92-1-2-0.4 0.4-0.7 0.98t-0.3 1.020q0 0.37 0.3 0.685t0.7 0.315q0.41 0 0.705-0.3t0.295-0.7zM13 3q0-0.92-1-2-0.4 0.4-0.7 0.98t-0.3 1.020q0 0.37 0.3 0.685t0.7 0.315q0.41 0 0.705-0.3t0.295-0.7zM9 9v-3.5q0-0.41-0.295-0.705t-0.705-0.295q-0.42 0-0.71 0.305t-0.29 0.695v3.5q0 0.41 0.295 0.705t0.705 0.295q0.42 0 0.71-0.305t0.29-0.695zM13 9v-3.5q0-0.41-0.295-0.705t-0.705-0.295q-0.42 0-0.71 0.305t-0.29 0.695v3.5q0 0.41 0.295 0.705t0.705 0.295q0.42 0 0.71-0.305t0.29-0.695zM17 10q0-1.090-0.95-2.010t-2.55-1.45v2.46q0 0.62-0.44 1.060t-1.060 0.44-1.060-0.44-0.44-1.060v-2.99q-0.080 0-0.25-0.005t-0.25-0.005-0.25 0.005-0.25 0.005v2.99q0 0.62-0.44 1.060t-1.060 0.44-1.060-0.44-0.44-1.060v-2.46q-1.6 0.53-2.55 1.45t-0.95 2.010q0 1.1 0.785 1.975t2.425 1.395q0.32 0.1 1.085 0.42t1.425 0.51 1.28 0.19 1.28-0.19 1.425-0.515 1.085-0.425q1.63-0.51 2.42-1.385t0.79-1.975zM10 15.43q0.63 0 1.315-0.195t1.44-0.505 1.125-0.41q0.68-0.19 1.185-0.435t0.865-0.575 0.57-0.595 0.5-0.715v3q0 1.090-0.935 2.010t-2.55 1.455-3.515 0.535-3.515-0.535-2.55-1.455-0.935-2.010v-3q0.37 0.58 0.7 0.945t0.955 0.75 1.495 0.635q0.35 0.1 1.115 0.41t1.435 0.5 1.3 0.19z" fill="#000000"></path>
</svg>
