<?xml version="1.0" encoding="utf-8"?>
<!-- Generated by IcoMoon.io -->
<!DOCTYPE svg PUBLIC "-//W3C//DTD SVG 1.1//EN" "http://www.w3.org/Graphics/SVG/1.1/DTD/svg11.dtd">
<svg version="1.1" xmlns="http://www.w3.org/2000/svg" xmlns:xlink="http://www.w3.org/1999/xlink" width="20" height="20" viewBox="0 0 20 20">
<g>
</g>
	<path d="M10 0q1.63 0 3.155 0.505t2.755 1.43 2.155 2.155 1.43 2.755 0.505 3.155-0.505 3.155-1.43 2.755-2.155 2.155-2.755 1.43-3.155 0.505-3.155-0.505-2.755-1.43-2.155-2.155-1.43-2.755-0.505-3.155 0.505-3.155 1.43-2.755 2.155-2.155 2.755-1.43 3.155-0.505zM10 0.5q-1.93 0-3.69 0.75t-3.035 2.025-2.025 3.035-0.75 3.69 0.75 3.69 2.025 3.035 3.035 2.025 3.69 0.75 3.69-0.75 3.035-2.025 2.025-3.035 0.75-3.69-0.75-3.69-2.025-3.035-3.035-2.025-3.69-0.75zM10 1.5q1.73 0 3.305 0.67t2.715 1.81 1.81 2.715 0.67 3.305-0.67 3.305-1.81 2.715-2.715 1.81-3.305 0.67-3.305-0.67-2.715-1.81-1.81-2.715-0.67-3.305 0.67-3.305 1.81-2.715 2.715-1.81 3.305-0.67zM11.8 3.21q-0.83 0-1.55 0.45 1.18 0.28 1.955 1.24t0.775 2.21q0 1-0.55 1.87 0.99-0.22 1.64-1.015t0.65-1.835q0-1.21-0.855-2.065t-2.065-0.855zM9.42 4.21q-1.21 0-2.065 0.86t-0.855 2.070 0.855 2.065 2.065 0.855 2.070-0.855 0.86-2.065q0-1.22-0.855-2.075t-2.075-0.855zM13.67 9.22l-0.51 0.59q0.66 0.19 1.15 0.635t0.725 0.94 0.38 0.96 0.165 0.775l0.030 0.3h1.28q0-0.76-0.11-1.385t-0.295-1.045-0.43-0.75-0.51-0.51-0.53-0.305-0.51-0.165-0.43-0.055-0.295-0.005zM11.57 10.020l-2.12 2.090-2.12-2.090q-0.68 0.040-1.23 0.23t-0.905 0.485-0.625 0.67-0.41 0.78-0.22 0.81-0.095 0.765-0.005 0.635 0.030 0.445l0.020 0.16h11.080q0.1-1.020-0.040-1.84t-0.43-1.325-0.67-0.88-0.775-0.545-0.73-0.27-0.545-0.11z" fill="#000000"></path>
</svg>
