<?xml version="1.0" encoding="utf-8"?>
<!-- Generated by IcoMoon.io -->
<!DOCTYPE svg PUBLIC "-//W3C//DTD SVG 1.1//EN" "http://www.w3.org/Graphics/SVG/1.1/DTD/svg11.dtd">
<svg version="1.1" xmlns="http://www.w3.org/2000/svg" xmlns:xlink="http://www.w3.org/1999/xlink" width="20" height="20" viewBox="0 0 20 20">
<g>
</g>
	<path d="M8 1v7h2v-2q0-1.15 0.92-2.075t2.080-0.925v0.86q0.91-0.86 2-0.86v3h1q0.82 0 1.41 0.59t0.59 1.41-0.59 1.41-1.41 0.59h-1v6q0 0.41-0.295 0.705t-0.705 0.295-0.705-0.295-0.295-0.705v-2.18q-0.51 0.18-1 0.18v2q0 0.41-0.295 0.705t-0.705 0.295-0.705-0.295-0.295-0.705v-2h-2v2q0 0.41-0.295 0.705t-0.705 0.295-0.705-0.295-0.295-0.705v-2q-0.49 0-1-0.18v2.18q0 0.41-0.295 0.705t-0.705 0.295-0.705-0.295-0.295-0.705v-4h-1v-1q0-1.24 0.88-2.12t2.12-0.88h2v-7h1zM13 8q0.41 0 0.705-0.295t0.295-0.705-0.295-0.705-0.705-0.295-0.705 0.295-0.295 0.705 0.295 0.705 0.705 0.295z" fill="#000000"></path>
</svg>
