<?xml version="1.0" encoding="utf-8"?>
<!-- Generated by IcoMoon.io -->
<!DOCTYPE svg PUBLIC "-//W3C//DTD SVG 1.1//EN" "http://www.w3.org/Graphics/SVG/1.1/DTD/svg11.dtd">
<svg version="1.1" xmlns="http://www.w3.org/2000/svg" xmlns:xlink="http://www.w3.org/1999/xlink" width="20" height="20" viewBox="0 0 20 20">
<g>
</g>
	<path d="M10 2q0.84 0 1.975 0.515t2.15 1.25 1.91 1.47 1.425 1.245l0.54 0.52v11h-16v-11q0.2-0.2 0.555-0.54t1.38-1.2 1.965-1.52 2.1-1.2 2-0.54zM17 16.72l-3.73-2.92 3.73-2.8-0.43-0.37-2.26 1.3 0.24-4.31-8.77-0.52-0.46 4.54-1.99-0.95-0.33 0.31 3.73 2.8-3.44 2.85 0.4 0.43 6.31-4.080 6.53 4.15z" fill="#000000"></path>
</svg>
