<?xml version="1.0" encoding="utf-8"?>
<!-- Generated by IcoMoon.io -->
<!DOCTYPE svg PUBLIC "-//W3C//DTD SVG 1.1//EN" "http://www.w3.org/Graphics/SVG/1.1/DTD/svg11.dtd">
<svg version="1.1" xmlns="http://www.w3.org/2000/svg" xmlns:xlink="http://www.w3.org/1999/xlink" width="20" height="20" viewBox="0 0 20 20">
<g>
</g>
	<path d="M10 2q1.62 0 3.105 0.635t2.555 1.705 1.705 2.555 0.635 3.105-0.635 3.105-1.705 2.555-2.555 1.705-3.105 0.635-3.105-0.635-2.555-1.705-1.705-2.555-0.635-3.105 0.635-3.105 1.705-2.555 2.555-1.705 3.105-0.635zM10 17.5q1.53 0 2.915-0.595t2.39-1.6 1.6-2.39 0.595-2.915-0.595-2.915-1.6-2.39-2.39-1.6-2.915-0.595-2.915 0.595-2.39 1.6-1.6 2.39-0.595 2.915q0 2.23 1.22 4.1 0.41 0.61 0.95 1.17 1.040 1.050 2.42 1.64t2.91 0.59zM10 3.26q1.37 0 2.62 0.535t2.15 1.435 1.435 2.15 0.535 2.62-0.535 2.62-1.435 2.15-2.15 1.435-2.62 0.535q-2.060 0-3.74-1.13 0.78-0.040 1.51-0.42t1.26-0.99q0.2 0.58 0.8 1t1.51 0.42q1.3 0 2.405-0.88t1.365-2.12q0.29-1.27-0.28-2.13t-1.82-0.86q-0.45 0-0.96 0.21t-0.9 0.52l1.040-4.79q0.020-0.14-0.035-0.215t-0.185-0.035q-0.56 0.15-2.27 0.32-0.18 0.020-0.245 0.17t0.020 0.29 0.265 0.13q0.22-0.010 0.345 0.010t0.205 0.105 0.1 0.2-0.010 0.345-0.085 0.5-0.145 0.7q-0.010 0.030-0.010 0.040l-0.54 2.43q-0.57-0.93-1.86-0.93-0.46 0-0.965 0.21t-0.895 0.52q1-4.61 1.030-4.79 0.030-0.13-0.025-0.21t-0.185-0.040q-0.42 0.11-1.79 0.26 0.94-1.090 2.265-1.705t2.825-0.615zM4.41 6.23h0.060q0.26-0.010 0.395 0.030t0.205 0.155 0.055 0.325-0.080 0.545-0.175 0.815q-0.010 0.020-0.010 0.030l-1.010 4.63q-0.59-1.3-0.59-2.76 0-2.070 1.15-3.77zM8.53 12.62q-0.23 1.040-0.825 1.72t-1.435 0.68q-0.55 0-0.89-0.41t-0.17-1.16l0.34-1.67q0.15-0.64 0.695-1.070t1.145-0.43q0.82 0 1.095 0.65t0.045 1.69zM13.8 12.62q-0.22 1.040-0.82 1.72t-1.44 0.68q-0.55 0-0.89-0.41t-0.17-1.16l0.35-1.67q0.15-0.64 0.69-1.070t1.14-0.43q0.82 0 1.095 0.65t0.045 1.69z" fill="#000000"></path>
</svg>
