<?xml version="1.0" encoding="utf-8"?>
<!-- Generated by IcoMoon.io -->
<!DOCTYPE svg PUBLIC "-//W3C//DTD SVG 1.1//EN" "http://www.w3.org/Graphics/SVG/1.1/DTD/svg11.dtd">
<svg version="1.1" xmlns="http://www.w3.org/2000/svg" xmlns:xlink="http://www.w3.org/1999/xlink" width="20" height="20" viewBox="0 0 20 20">
<g>
</g>
	<path d="M10.44 1.66q-0.44-0.44-1.060-0.44t-1.060 0.44l-5.66 5.66q-0.44 0.44-0.44 1.060t0.44 1.060q0.46 0.44 1.075 0.435t1.045-0.435l5.66-5.66q0.44-0.44 0.44-1.060t-0.44-1.060zM13.27 4.49q-0.44-0.44-1.065-0.44t-1.055 0.44l-5.66 5.66q-0.44 0.43-0.44 1.055t0.44 1.065q0.46 0.44 1.075 0.43t1.045-0.43l5.66-5.66q0.43-0.43 0.43-1.055t-0.43-1.065zM14.33 11.21l4.18 4.18q0.44 0.44 0.44 1.060t-0.44 1.060-1.065 0.44-1.055-0.44l-4.18-4.18-1.77 1.77q-0.44 0.44-1.060 0.44t-1.060-0.44-0.44-1.065 0.44-1.065l5.66-5.65q0.44-0.44 1.060-0.44t1.060 0.44 0.44 1.060-0.44 1.060zM5 15q0-0.45-0.17-1.025t-0.415-1.075-0.49-0.94-0.415-0.7l-0.17-0.26q-0.15 0.31-0.37 0.805t-0.595 1.575-0.375 1.62q0 0.9 0.385 1.45t0.955 0.55h0.32q0.62 0 0.98-0.445t0.36-1.555z" fill="#000000"></path>
</svg>
