<?xml version="1.0" encoding="utf-8"?>
<!-- Generator: Adobe Illustrator 19.0.0, SVG Export Plug-In . SVG Version: 6.00 Build 0)  -->
<svg version="1.1" id="Layer_1" xmlns="http://www.w3.org/2000/svg" xmlns:xlink="http://www.w3.org/1999/xlink" x="0px" y="0px"
	 viewBox="-295 387 20 20" style="enable-background:new -295 387 20 20;" xml:space="preserve">
<path d="M-292,407h14v-19c0-0.6-0.4-1-1-1h-12c-0.6,0-1,0.4-1,1V407z M-288,390h-2v-2h2V390z M-284,390h-2v-2h2V390z M-280,390h-2
	v-2h2V390z M-288,393h-2v-2h2V393z M-284,393h-2v-2h2V393z M-280,393h-2v-2h2V393z M-288,396h-2v-2h2V396z M-284,396h-2v-2h2V396z
	 M-280,396h-2v-2h2V396z M-288,399h-2v-2h2V399z M-284,399h-2v-2h2V399z M-280,399h-2v-2h2V399z M-284,406h-6v-6h6V406z M-280,402
	h-2v-2h2V402z M-280,405h-2v-2h2V405z"/>
</svg>
