<?xml version="1.0" encoding="utf-8"?>
<!-- Generated by IcoMoon.io -->
<!DOCTYPE svg PUBLIC "-//W3C//DTD SVG 1.1//EN" "http://www.w3.org/Graphics/SVG/1.1/DTD/svg11.dtd">
<svg version="1.1" xmlns="http://www.w3.org/2000/svg" xmlns:xlink="http://www.w3.org/1999/xlink" width="20" height="20" viewBox="0 0 20 20">
<path d="M7.3 6l-0.030-0.19c-0.040-0.37-0.050-0.73-0.030-1.080 0.020-0.36 0.1-0.71 0.25-1.040 0.14-0.32 0.31-0.61 0.52-0.86s0.49-0.46 0.83-0.6c0.34-0.15 0.72-0.23 1.13-0.23 0.69 0 1.26 0.2 1.71 0.59s0.76 0.87 0.91 1.44 0.18 1.16 0.090 1.78l-0.030 0.19c-0.010 0.090-0.050 0.25-0.11 0.48-0.050 0.24-0.12 0.47-0.2 0.69-0.080 0.21-0.19 0.45-0.34 0.72-0.14 0.27-0.3 0.49-0.47 0.69-0.18 0.19-0.4 0.34-0.67 0.48-0.27 0.13-0.55 0.19-0.86 0.19s-0.59-0.060-0.87-0.19c-0.26-0.13-0.49-0.29-0.67-0.5-0.18-0.2-0.34-0.42-0.49-0.66-0.15-0.25-0.26-0.49-0.34-0.73-0.090-0.25-0.16-0.47-0.21-0.67-0.060-0.21-0.1-0.37-0.12-0.5zM16.5 12.24c0.41 0.7 0.5 1.41 0.5 2.14v2.49c0 0.030-0.12 0.080-0.29 0.13-0.18 0.040-0.42 0.13-0.97 0.27-0.55 0.12-1.1 0.24-1.65 0.34s-1.19 0.19-1.95 0.27c-0.75 0.080-1.46 0.12-2.13 0.12-0.68 0-1.39-0.040-2.14-0.12-0.75-0.070-1.4-0.17-1.98-0.27-0.58-0.11-1.080-0.23-1.56-0.34-0.49-0.11-0.8-0.21-1.060-0.29l-0.27-0.11v-2.49c0-0.75 0.070-1.46 0.46-2.15s0.81-1.25 1.5-1.68c0.7-0.43 2.23-0.55 3.040-0.55l1.67 1.67-0.67 1.33v3l1.020 1.080 0.98-1.080v-3l-0.68-1.33 1.65-1.67c0.77 0 2.2 0.070 2.9 0.52 0.71 0.45 1.21 1.020 1.63 1.72z"></path>
</svg>
