<?xml version="1.0" encoding="utf-8"?>
<!-- Generated by IcoMoon.io -->
<!DOCTYPE svg PUBLIC "-//W3C//DTD SVG 1.1//EN" "http://www.w3.org/Graphics/SVG/1.1/DTD/svg11.dtd">
<svg version="1.1" xmlns="http://www.w3.org/2000/svg" xmlns:xlink="http://www.w3.org/1999/xlink" width="20" height="20" viewBox="0 0 20 20">
<g>
</g>
	<path d="M15 4h3v15h-16v-15h3v-1q0-0.6 0.44-1.060 0.44-0.44 1.060-0.44t1.060 0.44q0.44 0.46 0.44 1.060v1h4v-1q0-0.6 0.44-1.060 0.44-0.44 1.060-0.44t1.060 0.44q0.44 0.46 0.44 1.060v1zM6 3v2.5q0 0.21 0.15 0.36 0.14 0.14 0.35 0.14t0.35-0.14q0.15-0.15 0.15-0.36v-2.5q0-0.22-0.15-0.35-0.13-0.15-0.35-0.15t-0.35 0.15q-0.15 0.13-0.15 0.35zM13 3v2.5q0 0.2 0.14 0.36 0.16 0.14 0.36 0.14t0.36-0.14q0.14-0.16 0.14-0.36v-2.5q0-0.21-0.14-0.35-0.15-0.15-0.36-0.15t-0.36 0.15q-0.14 0.14-0.14 0.35zM17 18v-10h-14v10h14zM7 9v2h-2v-2h2zM9 9h2v2h-2v-2zM13 11v-2h2v2h-2zM7 12v2h-2v-2h2zM9 12h2v2h-2v-2zM13 14v-2h2v2h-2zM7 15v2h-2v-2h2zM11 17h-2v-2h2v2zM15 17h-2v-2h2v2z" fill="#000000"></path>
</svg>
