<?xml version="1.0" encoding="utf-8"?>
<!-- Generated by IcoMoon.io -->
<!DOCTYPE svg PUBLIC "-//W3C//DTD SVG 1.1//EN" "http://www.w3.org/Graphics/SVG/1.1/DTD/svg11.dtd">
<svg version="1.1" xmlns="http://www.w3.org/2000/svg" xmlns:xlink="http://www.w3.org/1999/xlink" width="20" height="20" viewBox="0 0 20 20">
<g>
</g>
	<path d="M15 4h3v14h-16v-14h3v-1q0-0.62 0.44-1.060t1.060-0.44 1.060 0.44 0.44 1.060v1h4v-1q0-0.62 0.44-1.060t1.060-0.44 1.060 0.44 0.44 1.060v1zM6 3v2.5q0 0.21 0.145 0.355t0.355 0.145 0.355-0.145 0.145-0.355v-2.5q0-0.21-0.145-0.355t-0.355-0.145-0.355 0.145-0.145 0.355zM13 3v2.5q0 0.21 0.145 0.355t0.355 0.145 0.355-0.145 0.145-0.355v-2.5q0-0.21-0.145-0.355t-0.355-0.145-0.355 0.145-0.145 0.355zM17 17v-9h-14v9h14zM7 16v-7h-2v7h2zM11 16v-7h-2v7h2zM15 16v-7h-2v7h2z" fill="#000000"></path>
</svg>
