<?xml version="1.0" encoding="utf-8"?>
<!-- Generator: Adobe Illustrator 19.0.0, SVG Export Plug-In . SVG Version: 6.00 Build 0)  -->
<svg version="1.1" id="Layer_1" xmlns="http://www.w3.org/2000/svg" xmlns:xlink="http://www.w3.org/1999/xlink" x="0px" y="0px"
	 viewBox="-295 387 20 20" style="enable-background:new -295 387 20 20;" xml:space="preserve">
<path d="M-280,391h2c0.6,0,1,0.4,1,1v12c0,0.6-0.4,1-1,1h-14c-0.6,0-1-0.4-1-1v-12c0-0.6,0.4-1,1-1h2v-1c0-0.4,0.1-0.8,0.4-1.1
	s0.6-0.4,1.1-0.4s0.8,0.1,1.1,0.4s0.4,0.6,0.4,1.1v1h4v-1c0-0.4,0.1-0.8,0.4-1.1s0.6-0.4,1.1-0.4s0.8,0.1,1.1,0.4s0.4,0.6,0.4,1.1
	C-280,390-280,391-280,391z M-289,390v2.5c0,0.1,0,0.3,0.1,0.4c0.1,0.1,0.2,0.1,0.4,0.1s0.3,0,0.4-0.1c0.1-0.1,0.1-0.2,0.1-0.4V390
	c0-0.1,0-0.3-0.1-0.4c-0.1-0.1-0.2-0.1-0.4-0.1s-0.3,0-0.4,0.1C-289,389.7-289,389.9-289,390z M-282,390v2.5c0,0.1,0,0.3,0.1,0.4
	c0.1,0.1,0.2,0.1,0.4,0.1s0.3,0,0.4-0.1c0.1-0.1,0.1-0.2,0.1-0.4V390c0-0.1,0-0.3-0.1-0.4c-0.1-0.1-0.2-0.1-0.4-0.1s-0.3,0-0.4,0.1
	C-282,389.7-282,389.9-282,390z M-278,403.5V395h-14v8.5c0,0.3,0.2,0.5,0.5,0.5h13C-278.2,404-278,403.8-278,403.5z M-288,403v-7h-2
	v7H-288z M-284,403v-7h-2v7H-284z M-280,403v-7h-2v7H-280z"/>
</svg>
