<?xml version="1.0" encoding="utf-8"?>
<!-- Generator: Adobe Illustrator 19.0.0, SVG Export Plug-In . SVG Version: 6.00 Build 0)  -->
<svg version="1.1" id="Layer_1" xmlns="http://www.w3.org/2000/svg" xmlns:xlink="http://www.w3.org/1999/xlink" x="0px" y="0px"
	 viewBox="-295 387 20 20" style="enable-background:new -295 387 20 20;" xml:space="preserve">
<path d="M-280,391h2c0.6,0,1,0.4,1,1v13c0,0.6-0.4,1-1,1h-14c-0.6,0-1-0.4-1-1v-13c0-0.6,0.4-1,1-1h2v-1c0-0.4,0.1-0.8,0.4-1.1
	c0.3-0.3,0.6-0.4,1.1-0.4s0.8,0.1,1.1,0.4c0.3,0.3,0.4,0.7,0.4,1.1v1h4v-1c0-0.4,0.1-0.8,0.4-1.1c0.3-0.3,0.6-0.4,1.1-0.4
	s0.8,0.1,1.1,0.4c0.3,0.3,0.4,0.7,0.4,1.1C-280,390-280,391-280,391z M-289,390v2.5c0,0.1,0,0.3,0.1,0.4c0.1,0.1,0.2,0.1,0.4,0.1
	s0.3,0,0.4-0.1c0.1-0.1,0.1-0.2,0.1-0.4V390c0-0.1,0-0.3-0.1-0.4c-0.1-0.1-0.2-0.1-0.4-0.1s-0.3,0-0.4,0.1
	C-289,389.7-289,389.9-289,390z M-282,390v2.5c0,0.1,0,0.3,0.1,0.4c0.1,0.1,0.2,0.1,0.4,0.1s0.3,0,0.4-0.1c0.1-0.1,0.1-0.2,0.1-0.4
	V390c0-0.1,0-0.3-0.1-0.4c-0.1-0.1-0.2-0.1-0.4-0.1s-0.3,0-0.4,0.1C-282,389.7-282,389.9-282,390z M-278,404.5V395h-14v9.5
	c0,0.3,0.2,0.5,0.5,0.5h13C-278.2,405-278,404.8-278,404.5z M-288,396v2h-2v-2H-288z M-286,396h2v2h-2V396z M-282,398v-2h2v2H-282z
	 M-288,399v2h-2v-2H-288z M-286,399h2v2h-2V399z M-282,401v-2h2v2H-282z M-288,402v2h-2v-2H-288z M-284,404h-2v-2h2V404z M-280,404
	h-2v-2h2V404z"/>
</svg>
