<?xml version="1.0" encoding="utf-8"?>
<!-- Generator: Adobe Illustrator 19.0.0, SVG Export Plug-In . SVG Version: 6.00 Build 0)  -->
<svg version="1.1" id="Layer_1" xmlns="http://www.w3.org/2000/svg" xmlns:xlink="http://www.w3.org/1999/xlink" x="0px" y="0px"
	 viewBox="-295 387 20 20" style="enable-background:new -295 387 20 20;" xml:space="preserve">
<path d="M-289,392v-2h-3v2H-289z M-277,401v-9c0-0.6-0.4-1-1-1h-8l-2,2h-4c-0.6,0-1,0.4-1,1v7c0,0.6,0.4,1,1,1h14
	C-277.4,402-277,401.6-277,401z M-284,394c0.8,0,1.5,0.3,2.1,0.9s0.9,1.3,0.9,2.1s-0.3,1.5-0.9,2.1s-1.3,0.9-2.1,0.9
	s-1.5-0.3-2.1-0.9s-0.9-1.3-0.9-2.1s0.3-1.5,0.9-2.1S-284.8,394-284,394z"/>
</svg>
