<?xml version="1.0" encoding="utf-8"?>
<!-- Generated by IcoMoon.io -->
<!DOCTYPE svg PUBLIC "-//W3C//DTD SVG 1.1//EN" "http://www.w3.org/Graphics/SVG/1.1/DTD/svg11.dtd">
<svg version="1.1" xmlns="http://www.w3.org/2000/svg" xmlns:xlink="http://www.w3.org/1999/xlink" width="20" height="20" viewBox="0 0 20 20">
<path d="M11.4 0.8l1.4 1.4c1.6 0.2 3.5-0.7 4.6 0.4s0.2 3 0.4 4.6l1.4 1.4c0.4 0.4 0.4 1 0 1.4l-9.2 9.2c-0.4 0.4-1 0.4-1.4 0l-7.8-7.8c-0.4-0.4-0.4-1 0-1.4l9.2-9.2c0.4-0.4 1-0.4 1.4 0zM12 3.1l-0.6 0.6 4.9 5 0.6-0.7c-0.2-0.6-0.2-1.2-0.1-1.8 0-0.3 0-0.6 0.1-0.9 0.1-1 0.2-1.6-0.2-2s-1-0.3-2-0.2c-0.3 0-0.6 0.1-0.9 0.1-0.6 0.1-1.2 0-1.8-0.1zM16 4c0.4 0.4 0.4 1 0 1.4s-1 0.4-1.4 0-0.4-1 0-1.4 1-0.4 1.4 0zM9.3 4.3l-0.7 0.7 6.4 6.4 0.7-0.7-6.4-6.4zM7.9 5.8l-0.7 0.7 6.4 6.4 0.7-0.7-6.4-6.4zM6.5 7.2l-0.7 0.7 6.4 6.4 0.7-0.7-6.4-6.4zM5.1 8.6l-0.8 0.7 6.4 6.4 0.7-0.7-6.3-6.4zM3.6 10l-0.7 0.7 6.4 6.4 0.7-0.7-6.4-6.4z"></path>
</svg>
