<?xml version="1.0" encoding="utf-8"?>
<!-- Generated by IcoMoon.io -->
<!DOCTYPE svg PUBLIC "-//W3C//DTD SVG 1.1//EN" "http://www.w3.org/Graphics/SVG/1.1/DTD/svg11.dtd">
<svg version="1.1" xmlns="http://www.w3.org/2000/svg" xmlns:xlink="http://www.w3.org/1999/xlink" width="20" height="20" viewBox="0 0 20 20">
<g>
</g>
	<path d="M11.9 0.39l1.4 1.4q0.5 0.060 1.235-0.015t1.27-0.15 1.13 0.040 0.975 0.495 0.495 0.975 0.040 1.13-0.15 1.27-0.015 1.235l1.4 1.4q0.29 0.29 0.29 0.705t-0.29 0.705l-9.19 9.2q-0.3 0.29-0.715 0.29t-0.705-0.29l-7.78-7.78q-0.29-0.29-0.29-0.705t0.29-0.715l9.2-9.19q0.29-0.29 0.705-0.29t0.705 0.29zM12.48 2.64l-0.58 0.58 4.95 4.95 0.58-0.58q-0.24-0.75-0.15-1.82 0.030-0.47 0.090-0.92 0.11-0.73 0.090-1.235t-0.26-0.745-0.745-0.26-1.235 0.090q-0.45 0.060-0.92 0.090-1.070 0.090-1.82-0.15zM16.5 3.57q0.29 0.29 0.29 0.71t-0.29 0.71-0.71 0.29-0.71-0.29-0.29-0.71 0.29-0.71 0.71-0.29 0.71 0.29zM9.78 3.93l-0.71 0.7 6.37 6.37 0.7-0.71zM8.36 5.34l-0.7 0.71 6.36 6.36 0.71-0.7zM6.95 6.76l-0.71 0.7 6.37 6.37 0.7-0.71zM5.54 8.17l-0.71 0.71 6.36 6.36 0.71-0.71zM4.12 9.58l-0.71 0.71 6.37 6.37 0.71-0.71z" fill="#000000"></path>
</svg>
