<?xml version="1.0" encoding="utf-8"?>
<!-- Generated by IcoMoon.io -->
<!DOCTYPE svg PUBLIC "-//W3C//DTD SVG 1.1//EN" "http://www.w3.org/Graphics/SVG/1.1/DTD/svg11.dtd">
<svg version="1.1" xmlns="http://www.w3.org/2000/svg" xmlns:xlink="http://www.w3.org/1999/xlink" width="20" height="20" viewBox="0 0 20 20">
<g>
</g>
	<path d="M10 2q1.63 0 3.11 0.635t2.55 1.705 1.705 2.55 0.635 3.11-0.635 3.11-1.705 2.55-2.55 1.705-3.11 0.635-3.11-0.635-2.55-1.705-1.705-2.55-0.635-3.11 0.635-3.11 1.705-2.55 2.55-1.705 3.11-0.635zM10 16q1.63 0 3.010-0.805t2.185-2.185 0.805-3.010-0.805-3.010-2.185-2.185-3.010-0.805-3.010 0.805-2.185 2.185-0.805 3.010 0.805 3.010 2.185 2.185 3.010 0.805zM9.29 10.71q0.14 0.1 0.23 0.15l-0.020 0.020 4.5 2.12-3.030-3.19-0.97-4.81-0.97 4.81h0.010q0 0.010-0.020 0.090t-0.020 0.1q0 0.42 0.29 0.71z" fill="#000000"></path>
</svg>
