<?xml version="1.0" encoding="utf-8"?>
<!-- Generated by IcoMoon.io -->
<!DOCTYPE svg PUBLIC "-//W3C//DTD SVG 1.1//EN" "http://www.w3.org/Graphics/SVG/1.1/DTD/svg11.dtd">
<svg version="1.1" xmlns="http://www.w3.org/2000/svg" xmlns:xlink="http://www.w3.org/1999/xlink" width="20" height="20" viewBox="0 0 20 20">
<path d="M14.85 10.030c1.76 0.18 3.15 1.66 3.15 3.47 0 1.93-1.57 3.5-3.5 3.5h-10c-1.93 0-3.5-1.57-3.5-3.5 0-1.79 1.34-3.24 3.060-3.46-0.040-0.17-0.060-0.35-0.060-0.54 0-1.38 1.12-2.5 2.5-2.5 0.34 0 0.66 0.070 0.95 0.19 0.66-1.3 2-2.19 3.55-2.19 2.21 0 4 1.79 4 4 0 0.36-0.060 0.7-0.15 1.030z"></path>
</svg>
