<?xml version="1.0" encoding="utf-8"?>
<!-- Generated by IcoMoon.io -->
<!DOCTYPE svg PUBLIC "-//W3C//DTD SVG 1.1//EN" "http://www.w3.org/Graphics/SVG/1.1/DTD/svg11.dtd">
<svg version="1.1" xmlns="http://www.w3.org/2000/svg" xmlns:xlink="http://www.w3.org/1999/xlink" width="20" height="20" viewBox="0 0 20 20">
<path d="M15.4 9c1.8 0.2 3.1 1.7 3.1 3.5 0 1.9-1.6 3.5-3.5 3.5h-10c-1.9 0-3.5-1.6-3.5-3.5 0-1.8 1.3-3.2 3.1-3.5 0-0.2-0.1-0.4-0.1-0.5 0-1.4 1.1-2.5 2.5-2.5 0.3 0 0.7 0.1 0.9 0.2 0.7-1.3 2-2.2 3.6-2.2 2.2 0 4 1.8 4 4 0 0.4-0.1 0.7-0.1 1z"></path>
</svg>
