<?xml version="1.0" encoding="utf-8"?>
<!-- Generator: Adobe Illustrator 19.0.0, SVG Export Plug-In . SVG Version: 6.00 Build 0)  -->
<svg version="1.1" id="Layer_1" xmlns="http://www.w3.org/2000/svg" xmlns:xlink="http://www.w3.org/1999/xlink" x="0px" y="0px"
	 viewBox="-295 387 20 20" style="enable-background:new -295 387 20 20;" xml:space="preserve">
<path d="M-292,394h3l5-4v14l-5-4h-3c-0.6,0-1-0.4-1-1v-4C-293,394.4-292.6,394-292,394z M-280.3,391.5c0.1,0,0.1,0.1,0.2,0.1
	c0.1,0,0.3,0.1,0.5,0.3c0.2,0.1,0.4,0.3,0.7,0.5c0.2,0.2,0.4,0.4,0.7,0.7c0.2,0.3,0.5,0.6,0.6,1s0.3,0.8,0.5,1.3s0.2,1,0.2,1.6
	s-0.1,1.1-0.2,1.6s-0.3,0.9-0.5,1.3s-0.4,0.7-0.6,1c-0.2,0.3-0.5,0.5-0.7,0.7c-0.2,0.2-0.4,0.3-0.7,0.5c-0.2,0.1-0.4,0.2-0.5,0.3
	c-0.1,0-0.2,0.1-0.2,0.1c-0.1,0-0.1,0-0.2,0c-0.2,0-0.4-0.1-0.5-0.3c-0.1-0.1-0.1-0.3,0-0.4c0.1-0.1,0.1-0.2,0.3-0.3
	c0.1,0,0.1-0.1,0.2-0.1c0.1,0,0.2-0.1,0.4-0.2c0.2-0.1,0.4-0.3,0.5-0.4c0.2-0.1,0.3-0.3,0.5-0.6c0.2-0.3,0.4-0.5,0.5-0.8
	c0.1-0.3,0.3-0.6,0.4-1.1s0.1-0.9,0.1-1.3c0-0.6-0.1-1.2-0.3-1.8s-0.4-1-0.6-1.3c-0.2-0.3-0.5-0.6-0.8-0.8c-0.3-0.2-0.5-0.4-0.7-0.5
	c-0.1-0.1-0.2-0.1-0.3-0.1c-0.1-0.1-0.2-0.1-0.3-0.3c-0.1-0.1-0.1-0.3,0-0.4c0.1-0.1,0.1-0.2,0.3-0.3
	C-280.6,391.5-280.4,391.5-280.3,391.5z M-279,397c0,0.5-0.1,0.9-0.2,1.3c-0.2,0.4-0.3,0.7-0.5,1c-0.2,0.2-0.4,0.4-0.7,0.7
	s-0.5,0.3-0.5,0.4s-0.2,0.1-0.3,0.2l0,0c-0.1,0-0.1,0-0.2,0c-0.2,0-0.4-0.1-0.5-0.3c0-0.1,0-0.3,0-0.4c0.1-0.1,0.1-0.2,0.3-0.3
	c0,0,0.1,0,0.2-0.1c0.1,0,0.2-0.1,0.4-0.3c0.2-0.1,0.3-0.3,0.5-0.5s0.3-0.4,0.4-0.7c0.1-0.3,0.2-0.6,0.2-1s-0.1-0.7-0.2-1
	c-0.1-0.3-0.2-0.5-0.4-0.7s-0.3-0.3-0.5-0.5c-0.2-0.1-0.3-0.2-0.4-0.3c-0.1,0-0.2-0.1-0.2-0.1c-0.1-0.1-0.2-0.1-0.3-0.3
	c-0.1-0.1-0.1-0.3,0-0.4c0.1-0.1,0.1-0.2,0.3-0.3c0.1-0.1,0.3-0.1,0.4,0c1,0.4,1.6,1.1,2,2C-279.1,395.9-279,396.5-279,397z"/>
</svg>
