<?xml version="1.0" encoding="utf-8"?>
<!-- Generated by IcoMoon.io -->
<!DOCTYPE svg PUBLIC "-//W3C//DTD SVG 1.1//EN" "http://www.w3.org/Graphics/SVG/1.1/DTD/svg11.dtd">
<svg version="1.1" xmlns="http://www.w3.org/2000/svg" xmlns:xlink="http://www.w3.org/1999/xlink" width="20" height="20" viewBox="0 0 20 20">
<path d="M2 7h4l5-4v14l-5-4h-4v-6zM14.69 4.54q0.080 0.030 0.225 0.1t0.48 0.29 0.655 0.495 0.685 0.73 0.635 0.985 0.45 1.28 0.18 1.58-0.18 1.58-0.45 1.28-0.635 0.985-0.685 0.73-0.655 0.495-0.48 0.29-0.225 0.1q-0.080 0.040-0.19 0.040-0.35 0-0.46-0.31-0.080-0.19 0-0.38t0.27-0.27q0.1-0.050 0.19-0.090t0.385-0.235 0.535-0.415 0.55-0.605 0.52-0.82 0.36-1.060 0.15-1.315q0-0.96-0.285-1.78t-0.65-1.295-0.8-0.84-0.655-0.48-0.3-0.145q-0.19-0.080-0.27-0.27t0-0.38 0.27-0.27 0.38 0zM16 10q0 0.7-0.235 1.315t-0.5 0.96-0.685 0.655-0.55 0.375-0.34 0.155l-0.010 0.010q-0.090 0.030-0.18 0.030-0.34 0-0.47-0.32-0.070-0.19 0.015-0.38t0.275-0.27q0.060-0.020 0.205-0.090t0.415-0.275 0.495-0.475 0.395-0.72 0.17-0.97-0.17-0.97-0.395-0.72-0.495-0.475-0.415-0.275-0.205-0.090q-0.19-0.080-0.275-0.27t-0.015-0.38q0.080-0.19 0.27-0.275t0.38-0.015q1.45 0.64 2.020 1.95 0.3 0.7 0.3 1.52z"></path>
</svg>
