<?xml version="1.0" encoding="utf-8"?>
<!-- Generated by IcoMoon.io -->
<!DOCTYPE svg PUBLIC "-//W3C//DTD SVG 1.1//EN" "http://www.w3.org/Graphics/SVG/1.1/DTD/svg11.dtd">
<svg version="1.1" xmlns="http://www.w3.org/2000/svg" xmlns:xlink="http://www.w3.org/1999/xlink" width="20" height="20" viewBox="0 0 20 20">
<path d="M5.5 6.9v-4h-0.7l-1.3 1 0.4 0.5 0.5-0.4c0 0 0.1-0.1 0.3-0.2v3.1c0 0 0.8 0 0.8 0zM7.5 4.9h9v1h-9v-1zM6.3 11.9v-0.7h-1.7l0.5-0.5c0.3-0.3 0.6-0.5 0.7-0.7s0.2-0.4 0.3-0.6c0.1-0.2 0.1-0.3 0.1-0.5s-0.1-0.4-0.2-0.6c-0.1-0.1-0.2-0.2-0.4-0.3s-0.4-0.1-0.7-0.1c-0.2 0-0.4 0-0.5 0.1-0.2 0-0.3 0-0.4 0.1-0.1 0-0.3 0.2-0.5 0.3l0.5 0.6c0.2-0.1 0.3-0.2 0.4-0.3 0.2-0.1 0.3-0.1 0.4-0.1s0.3 0 0.4 0.1 0.1 0.2 0.1 0.3c0 0.1 0 0.2-0.1 0.3s0 0.2-0.1 0.4c-0.1 0.1-0.3 0.3-0.6 0.6l-1 1v0.6c0 0 2.8 0 2.8 0zM7.5 9.9h9v1h-9v-1zM6.2 13.9c0-0.3-0.1-0.5-0.4-0.7-0.2-0.2-0.6-0.3-1-0.3-0.5 0-1 0.1-1.3 0.4l0.4 0.6c0.2-0.1 0.3-0.2 0.5-0.2 0.1-0.1 0.3-0.1 0.4-0.1 0.4 0 0.6 0.1 0.6 0.5 0 0.2-0.1 0.4-0.2 0.4s-0.4 0.1-0.7 0.1h-0.4v0.7h0.3c0.3 0 0.6 0 0.8 0.1 0.1 0.1 0.2 0.2 0.2 0.4s-0.1 0.4-0.2 0.5c-0.1 0.1-0.3 0.1-0.6 0.1-0.2 0-0.4 0-0.6-0.1-0.2 0-0.4-0.1-0.5-0.2v0.7c0.3 0.2 0.7 0.2 1.2 0.2s0.9-0.1 1.2-0.3c0.3-0.2 0.4-0.5 0.4-0.9 0-0.3-0.1-0.5-0.3-0.6-0.2-0.2-0.4-0.3-0.7-0.3v0c0.3-0.1 0.5-0.2 0.6-0.4 0.2-0.2 0.3-0.4 0.3-0.6zM7.5 14.9h9v1h-9v-1z"></path>
</svg>
