<?xml version="1.0" encoding="utf-8"?>
<!-- Generated by IcoMoon.io -->
<!DOCTYPE svg PUBLIC "-//W3C//DTD SVG 1.1//EN" "http://www.w3.org/Graphics/SVG/1.1/DTD/svg11.dtd">
<svg version="1.1" xmlns="http://www.w3.org/2000/svg" xmlns:xlink="http://www.w3.org/1999/xlink" width="20" height="20" viewBox="0 0 20 20">
<path d="M14.8 4.2l1.1 1.1c0.4 0.4 0.6 0.9 0.6 1.5v2.1c0 0.5-0.2 1.1-0.6 1.5l-6.6 6.6c-0.4 0.4-0.9 0.6-1.5 0.6-0.5 0-1.1-0.2-1.5-0.6l-2.2-2.2c-0.4-0.4-0.6-0.9-0.6-1.5v-2.1c0-0.5 0.2-1.1 0.6-1.5l6.6-6.7c0.4-0.4 0.9-0.6 1.5-0.6s1.1 0.2 1.5 0.6l1.1 1.2zM8.6 13.9l6.4-6.5c0.4-0.4 0.4-1 0-1.4l-2.1-2.1c-0.2-0.2-0.4-0.3-0.7-0.3s-0.5 0.1-0.7 0.3l-6.5 6.4c-0.4 0.4-0.4 1 0 1.4l2.1 2.1c0.4 0.4 1.1 0.4 1.5 0.1z"></path>
</svg>
