<?xml version="1.0" encoding="utf-8"?>
<!-- Generated by IcoMoon.io -->
<!DOCTYPE svg PUBLIC "-//W3C//DTD SVG 1.1//EN" "http://www.w3.org/Graphics/SVG/1.1/DTD/svg11.dtd">
<svg version="1.1" xmlns="http://www.w3.org/2000/svg" xmlns:xlink="http://www.w3.org/1999/xlink" width="20" height="20" viewBox="0 0 20 20">
<g>
</g>
	<path d="M15 2h-7.46q-1.24 0-2.28 0.6-1.050 0.62-1.65 1.65-0.61 1.030-0.61 2.27t0.61 2.27q0.6 1.040 1.65 1.64 1.030 0.61 2.28 0.61h0.43v5.96q0 0.4 0.29 0.71 0.31 0.29 0.71 0.29t0.71-0.29q0.3-0.3 0.3-0.71v-12q0-0.42 0.29-0.71 0.31-0.29 0.71-0.29t0.71 0.29q0.29 0.31 0.29 0.71v12q0 0.41 0.3 0.71 0.31 0.29 0.71 0.29t0.71-0.29q0.29-0.31 0.29-0.71v-13h1.010q0.4 0 0.7-0.3 0.3-0.28 0.3-0.7 0-0.41-0.3-0.71-0.31-0.29-0.7-0.29z" fill="#000000"></path>
</svg>
