<?xml version="1.0" encoding="utf-8"?>
<!-- Generated by IcoMoon.io -->
<!DOCTYPE svg PUBLIC "-//W3C//DTD SVG 1.1//EN" "http://www.w3.org/Graphics/SVG/1.1/DTD/svg11.dtd">
<svg version="1.1" xmlns="http://www.w3.org/2000/svg" xmlns:xlink="http://www.w3.org/1999/xlink" width="20" height="20" viewBox="0 0 20 20">
<path d="M5 6.5c-0.8 0-1.5-0.7-1.5-1.5s0.7-1.5 1.5-1.5c0.8 0 1.5 0.7 1.5 1.5s-0.7 1.5-1.5 1.5zM7.5 4.5h9v1h-9v-1zM5 11.5c-0.8 0-1.5-0.7-1.5-1.5s0.7-1.5 1.5-1.5c0.8 0 1.5 0.7 1.5 1.5s-0.7 1.5-1.5 1.5zM7.5 9.5h9v1h-9v-1zM5 16.5c-0.8 0-1.5-0.7-1.5-1.5s0.7-1.5 1.5-1.5c0.8 0 1.5 0.7 1.5 1.5s-0.7 1.5-1.5 1.5zM7.5 14.5h9v1h-9v-1z"></path>
</svg>
