<?xml version="1.0" encoding="utf-8"?>
<!-- Generated by IcoMoon.io -->
<!DOCTYPE svg PUBLIC "-//W3C//DTD SVG 1.1//EN" "http://www.w3.org/Graphics/SVG/1.1/DTD/svg11.dtd">
<svg version="1.1" xmlns="http://www.w3.org/2000/svg" xmlns:xlink="http://www.w3.org/1999/xlink" width="20" height="20" viewBox="0 0 20 20">
<g>
</g>
	<path d="M14.29 4.59l1.1 1.11q0.61 0.6 0.61 1.47v2.12q0 0.87-0.61 1.47l-6.63 6.63q-0.6 0.61-1.47 0.61t-1.47-0.61l-1.11-1.1-1.1-1.11q-0.61-0.6-0.61-1.47v-2.12q0-0.87 0.61-1.48l6.63-6.62q0.6-0.61 1.47-0.61 0.86 0 1.47 0.61zM8.080 14.29l6.42-6.42q0.29-0.29 0.29-0.71t-0.29-0.72l-2.14-2.14q-0.29-0.29-0.72-0.29-0.42 0-0.71 0.29l-6.42 6.42q-0.29 0.3-0.29 0.72t0.29 0.71l2.14 2.14q0.29 0.29 0.715 0.29t0.715-0.29z" fill="#000000"></path>
</svg>
