<?xml version="1.0" encoding="utf-8"?>
<!-- Generated by IcoMoon.io -->
<!DOCTYPE svg PUBLIC "-//W3C//DTD SVG 1.1//EN" "http://www.w3.org/Graphics/SVG/1.1/DTD/svg11.dtd">
<svg version="1.1" xmlns="http://www.w3.org/2000/svg" xmlns:xlink="http://www.w3.org/1999/xlink" width="20" height="20" viewBox="0 0 20 20">
<g>
</g>
	<path d="M5.52 2h7.43q0.41 0 0.705 0.295t0.295 0.705-0.295 0.705-0.705 0.295h-1v13q0 0.41-0.295 0.705t-0.705 0.295-0.705-0.295-0.295-0.705v-12q0-0.41-0.295-0.705t-0.705-0.295-0.705 0.295-0.295 0.705v12q0 0.41-0.295 0.705t-0.705 0.295-0.705-0.295-0.295-0.705v-5.96h-0.43q-1.23 0-2.27-0.605t-1.645-1.645-0.605-2.27 0.605-2.27 1.645-1.645 2.27-0.605zM14 14l5-4-5-4v8z" fill="#000000"></path>
</svg>
