<?xml version="1.0" encoding="utf-8"?>
<!-- Generated by IcoMoon.io -->
<!DOCTYPE svg PUBLIC "-//W3C//DTD SVG 1.1//EN" "http://www.w3.org/Graphics/SVG/1.1/DTD/svg11.dtd">
<svg version="1.1" xmlns="http://www.w3.org/2000/svg" xmlns:xlink="http://www.w3.org/1999/xlink" width="20" height="20" viewBox="0 0 20 20">
<path d="M17.2 2.8c1.7 1.7 1.7 4.4 0 6.1l-1.5 1.5c-0.3 0.3-0.7 0.6-1.1 0.8l-2.1-0.6 1.7-1.6 1.6-1.6c0.8-0.8 0.8-2.2 0-3-0.8-0.9-2.2-0.9-3 0l-1.6 1.6-1.7 1.5-0.7-2.1c0.2-0.4 0.5-0.8 0.8-1.1l1.5-1.5c1.7-1.7 4.5-1.7 6.1 0zM1.5 4.5l8 6-6-8-2 2zM5.5 2.5l4 8-2-8h-2zM1.5 6.5l8 4-8-2v-2zM8.9 14.2l0.6-0.7 0.7 2.4-1.4 1.4c-1.7 1.7-4.4 1.7-6.1 0s-1.7-4.4 0-6.1l1.4-1.4 2.3 0.7-0.7 0.6-1.5 1.5c-0.8 0.8-0.8 2.2 0 3 0.8 0.9 2.2 0.9 3 0l1.7-1.4zM17.5 16.5l-8-6 6 8 2-2zM13.5 18.5l-4-8 2 8h2zM17.5 14.5l-8-4 8 2v2z"></path>
</svg>
