<?xml version="1.0" encoding="utf-8"?>
<!-- Generated by IcoMoon.io -->
<!DOCTYPE svg PUBLIC "-//W3C//DTD SVG 1.1//EN" "http://www.w3.org/Graphics/SVG/1.1/DTD/svg11.dtd">
<svg version="1.1" xmlns="http://www.w3.org/2000/svg" xmlns:xlink="http://www.w3.org/1999/xlink" width="20" height="20" viewBox="0 0 20 20">
<path d="M5.52 2h7.43c0.55 0 1 0.45 1 1s-0.45 1-1 1h-1v13c0 0.55-0.45 1-1 1s-1-0.45-1-1v-12c0-0.55-0.45-1-1-1s-1 0.45-1 1v12c0 0.55-0.45 1-1 1s-1-0.45-1-1v-5.96h-0.43c-2.5 0-4.52-2.020-4.52-4.52s2.020-4.52 4.52-4.52zM14 14l5-4-5-4v8z"></path>
</svg>
