<?xml version="1.0" encoding="utf-8"?>
<!-- Generated by IcoMoon.io -->
<!DOCTYPE svg PUBLIC "-//W3C//DTD SVG 1.1//EN" "http://www.w3.org/Graphics/SVG/1.1/DTD/svg11.dtd">
<svg version="1.1" xmlns="http://www.w3.org/2000/svg" xmlns:xlink="http://www.w3.org/1999/xlink" width="20" height="20" viewBox="0 0 20 20">
<g>
</g>
	<path d="M5.5 7q-0.62 0-1.060-0.44t-0.44-1.060 0.44-1.060 1.060-0.44 1.060 0.44 0.44 1.060-0.44 1.060-1.060 0.44zM8 5h9v1h-9v-1zM5.5 12q-0.62 0-1.060-0.44t-0.44-1.060 0.44-1.060 1.060-0.44 1.060 0.44 0.44 1.060-0.44 1.060-1.060 0.44zM8 10h9v1h-9v-1zM5.5 17q-0.62 0-1.060-0.44t-0.44-1.060 0.44-1.060 1.060-0.44 1.060 0.44 0.44 1.060-0.44 1.060-1.060 0.44zM8 15h9v1h-9v-1z" fill="#000000"></path>
</svg>
