<?xml version="1.0" encoding="utf-8"?>
<!-- Generated by IcoMoon.io -->
<!DOCTYPE svg PUBLIC "-//W3C//DTD SVG 1.1//EN" "http://www.w3.org/Graphics/SVG/1.1/DTD/svg11.dtd">
<svg version="1.1" xmlns="http://www.w3.org/2000/svg" xmlns:xlink="http://www.w3.org/1999/xlink" width="20" height="20" viewBox="0 0 20 20">
<g>
</g>
	<path d="M9.49 13.22q0-1.13-0.61-1.9-0.43-0.53-1.17-0.695t-1.36-0.025q-0.21-1.22 0.665-2.59t2.255-2.060l-1.39-1.95q-1.060 0.51-1.995 1.29t-1.675 1.795-1.1 2.31-0.19 2.655q0.22 1.8 1.195 2.875t2.425 1.075q1.28 0 2.12-0.75 0.83-0.74 0.83-2.030zM17.54 13.22q0-1.13-0.61-1.9-0.43-0.54-1.17-0.7t-1.36-0.020q-0.21-1.22 0.665-2.59t2.255-2.060l-1.39-1.95q-1.060 0.51-1.995 1.29t-1.67 1.795-1.095 2.31-0.19 2.655q0.22 1.8 1.19 2.875t2.42 1.075q1.28 0 2.12-0.75 0.83-0.74 0.83-2.030z" fill="#000000"></path>
</svg>
