<?xml version="1.0" encoding="utf-8"?>
<!-- Generated by IcoMoon.io -->
<!DOCTYPE svg PUBLIC "-//W3C//DTD SVG 1.1//EN" "http://www.w3.org/Graphics/SVG/1.1/DTD/svg11.dtd">
<svg version="1.1" xmlns="http://www.w3.org/2000/svg" xmlns:xlink="http://www.w3.org/1999/xlink" width="20" height="20" viewBox="0 0 20 20">
<path d="M10 5.1c1.3 0 2.2 0.4 2.9 1.1s1 1.8 1 3.1c0 1.3-0.2 2.4-0.7 3.3s-1.3 1.5-2.2 2.1v2h6v-2h-3.7c0.9-0.6 1.6-1.3 2.1-2.3s0.7-2.1 0.7-3.4c0-1.8-0.6-3.2-1.6-4.2s-2.6-1.5-4.5-1.5-3.4 0.5-4.5 1.5c-1.1 1.1-1.7 2.5-1.7 4.2 0 1.2 0.2 2.3 0.7 3.3s1.2 1.7 2.1 2.4h-3.6v2h6v-2c-1-0.6-1.8-1.3-2.2-2.2s-0.7-2-0.7-3.2c0-1.4 0.3-2.4 1-3.1s1.6-1.1 2.9-1.1z"></path>
</svg>
