<?xml version="1.0" encoding="utf-8"?>
<!-- Generated by IcoMoon.io -->
<!DOCTYPE svg PUBLIC "-//W3C//DTD SVG 1.1//EN" "http://www.w3.org/Graphics/SVG/1.1/DTD/svg11.dtd">
<svg version="1.1" xmlns="http://www.w3.org/2000/svg" xmlns:xlink="http://www.w3.org/1999/xlink" width="20" height="20" viewBox="0 0 20 20">
<g>
</g>
	<path d="M17 10q0-1.9-0.94-3.515t-2.55-2.55-3.51-0.935q-1.43 0-2.725 0.555t-2.23 1.49-1.49 2.23-0.555 2.725 0.555 2.725 1.49 2.23 2.23 1.49 2.725 0.555q1.9 0 3.51-0.935t2.55-2.55 0.94-3.515zM10.7 11.48h-1.56v-0.43q0-0.56 0.24-0.98 0.22-0.39 0.88-0.89 0.61-0.43 0.81-0.71 0.2-0.26 0.2-0.62 0-0.37-0.28-0.58-0.28-0.19-0.79-0.19-0.88 0-2 0.57l-0.64-1.28q1.31-0.74 2.77-0.74 1.2 0 1.92 0.58 0.71 0.58 0.71 1.55 0 0.66-0.29 1.11-0.27 0.45-1.11 1.060-0.55 0.4-0.71 0.63-0.15 0.22-0.15 0.57v0.35zM9.23 14.22q-0.27-0.26-0.27-0.73 0-0.5 0.26-0.75t0.77-0.25q0.47 0 0.75 0.26 0.27 0.26 0.27 0.74 0 0.47-0.27 0.72-0.27 0.27-0.75 0.27t-0.76-0.26z" fill="#000000"></path>
</svg>
