<?xml version="1.0" encoding="utf-8"?>
<!-- Generated by IcoMoon.io -->
<!DOCTYPE svg PUBLIC "-//W3C//DTD SVG 1.1//EN" "http://www.w3.org/Graphics/SVG/1.1/DTD/svg11.dtd">
<svg version="1.1" xmlns="http://www.w3.org/2000/svg" xmlns:xlink="http://www.w3.org/1999/xlink" width="20" height="20" viewBox="0 0 20 20">
<g>
</g>
	<path d="M12.38 2l2.62 3v1h-10v-1l2.64-3h4.74zM10 5q0.41 0 0.705-0.29t0.295-0.71q0-0.41-0.295-0.705t-0.705-0.295-0.705 0.295-0.295 0.705q0 0.42 0.295 0.71t0.705 0.29zM15.45 4h1.55q0.41 0 0.705 0.295t0.295 0.705v12q0 0.42-0.295 0.71t-0.705 0.29h-14q-0.41 0-0.705-0.29t-0.295-0.71v-12q0-0.41 0.295-0.705t0.705-0.295h1.55l-0.55 0.63v2.37h12v-2.37zM14 11v-2h-8v2h3v5h2v-5h3z" fill="#000000"></path>
</svg>
