<?xml version="1.0" encoding="utf-8"?>
<!-- Generated by IcoMoon.io -->
<!DOCTYPE svg PUBLIC "-//W3C//DTD SVG 1.1//EN" "http://www.w3.org/Graphics/SVG/1.1/DTD/svg11.dtd">
<svg version="1.1" xmlns="http://www.w3.org/2000/svg" xmlns:xlink="http://www.w3.org/1999/xlink" width="20" height="20" viewBox="0 0 20 20">
<path d="M18.5 14.5v-9c0-0.8-0.7-1.5-1.5-1.5h-14c-0.8 0-1.5 0.7-1.5 1.5v9c0 0.8 0.7 1.5 1.5 1.5h14c0.8 0 1.5-0.7 1.5-1.5zM17.2 5.4c0.3 0.3 0.2 0.7 0 0.8l-4.1 3.7 3.9 4.1c0.1 0.1 0.2 0.4 0.1 0.5-0.1 0.2-0.4 0.1-0.6 0.1l-4.4-3.7-2.1 1.9-2.1-1.9-4.4 3.7c-0.1 0.1-0.4 0.1-0.6-0.1-0.1-0.1 0-0.4 0.1-0.5l3.9-4.1-4.1-3.7c-0.2-0.2-0.4-0.5 0-0.8s0.7-0.2 1 0.1l6.2 5 6.2-5c0.3-0.3 0.7-0.4 1-0.1z"></path>
</svg>
