<?xml version="1.0" encoding="utf-8"?>
<!-- Generated by IcoMoon.io -->
<!DOCTYPE svg PUBLIC "-//W3C//DTD SVG 1.1//EN" "http://www.w3.org/Graphics/SVG/1.1/DTD/svg11.dtd">
<svg version="1.1" xmlns="http://www.w3.org/2000/svg" xmlns:xlink="http://www.w3.org/1999/xlink" width="20" height="20" viewBox="0 0 20 20">
<path d="M3.4 4h13.2c1.2 0 1.9 0.6 1.9 1.8v8.4c0 1.2-0.6 1.8-1.9 1.8h-13.2c-1.2 0-1.9-0.6-1.9-1.8v-8.4c0-1.2 0.6-1.8 1.9-1.8zM10 12.6l6.7-5.5c0.3-0.2 0.5-0.7 0.2-1.1s-0.8-0.4-1.2-0.2l-5.7 3.9-5.7-3.9c-0.3-0.2-0.9-0.2-1.2 0.2s-0.1 0.9 0.2 1.1l6.7 5.5z"></path>
</svg>
