<?xml version="1.0" encoding="utf-8"?>
<!-- Generated by IcoMoon.io -->
<!DOCTYPE svg PUBLIC "-//W3C//DTD SVG 1.1//EN" "http://www.w3.org/Graphics/SVG/1.1/DTD/svg11.dtd">
<svg version="1.1" xmlns="http://www.w3.org/2000/svg" xmlns:xlink="http://www.w3.org/1999/xlink" width="20" height="20" viewBox="0 0 20 20">
<g>
</g>
	<path d="M2.89 2h14.23q0.37 0 0.625 0.255t0.255 0.625v14.24q0 0.36-0.255 0.62t-0.625 0.26h-4.080v-6.2h2.080l0.31-2.41h-2.39v-1.54q0-0.59 0.25-0.885t0.95-0.295h1.28v-2.16q-0.66-0.090-1.86-0.090-1.42 0-2.265 0.835t-0.845 2.355v1.78h-2.090v2.41h2.090v6.2h-7.66q-0.37 0-0.63-0.26t-0.26-0.62v-14.24q0-0.37 0.26-0.625t0.63-0.255z" fill="#000000"></path>
</svg>
