<?xml version="1.0" encoding="utf-8"?>
<!-- Generated by IcoMoon.io -->
<!DOCTYPE svg PUBLIC "-//W3C//DTD SVG 1.1//EN" "http://www.w3.org/Graphics/SVG/1.1/DTD/svg11.dtd">
<svg version="1.1" xmlns="http://www.w3.org/2000/svg" xmlns:xlink="http://www.w3.org/1999/xlink" width="20" height="20" viewBox="0 0 20 20">
<g>
</g>
	<path d="M2 2h16q0.41 0 0.705 0.295t0.295 0.705v14q0 0.41-0.295 0.705t-0.705 0.295h-16q-0.41 0-0.705-0.295t-0.295-0.705v-14q0-0.41 0.295-0.705t0.705-0.295zM17 16v-9h-14v9h14zM4 8v1h3v-1h-3zM8 8v3h8v-3h-8zM4 12v1h3v-1h-3zM8 12v3h8v-3h-8z" fill="#000000"></path>
</svg>
