<?xml version="1.0" encoding="utf-8"?>
<!-- Generated by IcoMoon.io -->
<!DOCTYPE svg PUBLIC "-//W3C//DTD SVG 1.1//EN" "http://www.w3.org/Graphics/SVG/1.1/DTD/svg11.dtd">
<svg version="1.1" xmlns="http://www.w3.org/2000/svg" xmlns:xlink="http://www.w3.org/1999/xlink" width="20" height="20" viewBox="0 0 20 20">
<g>
</g>
	<path d="M2.25 1h15.5q0.52 0 0.885 0.365t0.365 0.885v15.5q0 0.52-0.365 0.885t-0.885 0.365h-15.5q-0.52 0-0.885-0.365t-0.365-0.885v-15.5q0-0.52 0.365-0.885t0.885-0.365zM17 17v-14h-14v14h14zM10 6q0-0.82-0.59-1.41t-1.41-0.59-1.41 0.59-0.59 1.41 0.59 1.41 1.41 0.59 1.41-0.59 0.59-1.41zM13 11q0-0.080 0.005-0.21t0.030-0.54 0.075-0.81 0.155-0.94 0.25-1.005 0.375-0.935 0.52-0.805 0.7-0.545 0.89-0.21v10q0 0.41-0.295 0.705t-0.705 0.295h-10q-0.41 0-0.705-0.295t-0.295-0.705v-7q0.41 0 0.795 0.22t0.675 0.575 0.55 0.78 0.435 0.85 0.3 0.78 0.185 0.575l0.060 0.22q0.040-0.12 0.12-0.325t0.36-0.72 0.6-0.91 0.84-0.72 1.080-0.325 1.075 0.205 0.85 0.5 0.59 0.59 0.365 0.505z" fill="#000000"></path>
</svg>
