<?xml version="1.0" encoding="utf-8"?>
<!-- Generated by IcoMoon.io -->
<!DOCTYPE svg PUBLIC "-//W3C//DTD SVG 1.1//EN" "http://www.w3.org/Graphics/SVG/1.1/DTD/svg11.dtd">
<svg version="1.1" xmlns="http://www.w3.org/2000/svg" xmlns:xlink="http://www.w3.org/1999/xlink" width="20" height="20" viewBox="0 0 20 20">
<g>
</g>
	<path d="M6.99 3.080l11.020-2q0.4-0.060 0.695 0.255t0.295 0.745v12.42q0 1.45-1.025 2.475t-2.475 1.025-2.475-1.025-1.025-2.475 1.025-2.475 2.475-1.025q0.73 0 1.5 0.35v-6.27l-9 2v8.92q-0.18 1.28-1.18 2.14t-2.32 0.86q-1.45 0-2.475-1.025t-1.025-2.475 1.025-2.475 2.475-1.025q0.73 0 1.5 0.35v-8.27q0-0.4 0.28-0.665t0.71-0.335z" fill="#000000"></path>
</svg>
