<?xml version="1.0" encoding="utf-8"?>
<!-- Generated by IcoMoon.io -->
<!DOCTYPE svg PUBLIC "-//W3C//DTD SVG 1.1//EN" "http://www.w3.org/Graphics/SVG/1.1/DTD/svg11.dtd">
<svg version="1.1" xmlns="http://www.w3.org/2000/svg" xmlns:xlink="http://www.w3.org/1999/xlink" width="20" height="20" viewBox="0 0 20 20">
<path d="M9.2 13.8c0-0.9-0.2-1.6-0.7-2.2-0.7-0.9-2.1-1-3-0.9-0.4-1.9 1.3-4.4 3.4-5.5l-1.6-2.2c-3.2 1.5-6.3 5-5.8 9.4 0.3 2.8 2 4.6 4.2 4.6 1 0 1.8-0.3 2.5-0.9 0.6-0.5 1-1.3 1-2.3zM18.6 13.8c0-0.9-0.2-1.6-0.7-2.2-0.7-0.9-2.1-1-3-0.9-0.3-1.9 1.3-4.4 3.4-5.5l-1.6-2.2c-3.2 1.5-6.3 5-5.8 9.4 0.3 2.8 1.9 4.6 4.2 4.6 1 0 1.8-0.3 2.5-0.9 0.7-0.5 1-1.3 1-2.3z"></path>
</svg>
