<?xml version="1.0" encoding="utf-8"?>
<!-- Generated by IcoMoon.io -->
<!DOCTYPE svg PUBLIC "-//W3C//DTD SVG 1.1//EN" "http://www.w3.org/Graphics/SVG/1.1/DTD/svg11.dtd">
<svg version="1.1" xmlns="http://www.w3.org/2000/svg" xmlns:xlink="http://www.w3.org/1999/xlink" width="20" height="20" viewBox="0 0 20 20">
<path d="M2 1.5h16c0.5 0 1 0.5 1 1v16h-18v-16c0-0.5 0.5-1 1-1zM6 2.5l-2 3h1l2-3h-1zM10 2.5h-1l-2 3h1l2-3zM13 2.5h-1l-2 3h1l2-3zM16 2.5h-1l-2 3h1l2-3zM17 16.5v-10h-14v10h14zM8 7.5l6 4-6 4v-8z"></path>
</svg>
