<?xml version="1.0" encoding="utf-8"?>
<!-- Generated by IcoMoon.io -->
<!DOCTYPE svg PUBLIC "-//W3C//DTD SVG 1.1//EN" "http://www.w3.org/Graphics/SVG/1.1/DTD/svg11.dtd">
<svg version="1.1" xmlns="http://www.w3.org/2000/svg" xmlns:xlink="http://www.w3.org/1999/xlink" width="20" height="20" viewBox="0 0 20 20">
<g>
</g>
	<path d="M11 6h-0.82q-0.81 0-1.495 0.71t-0.685 1.45v1.84l-3 3v-3h-2q-0.82 0-1.41-0.59t-0.59-1.41v-5q0-0.82 0.59-1.41t1.41-0.59h6q0.82 0 1.41 0.59t0.59 1.41v3zM11 7h6q0.82 0 1.41 0.59t0.59 1.41v5q0 0.82-0.59 1.41t-1.41 0.59h-2v3l-3-3h-1q-0.82 0-1.41-0.59t-0.59-1.41v-5q0-0.82 0.59-1.41t1.41-0.59z" fill="#000000"></path>
</svg>
