<?xml version="1.0" encoding="utf-8"?>
<!-- Generated by IcoMoon.io -->
<!DOCTYPE svg PUBLIC "-//W3C//DTD SVG 1.1//EN" "http://www.w3.org/Graphics/SVG/1.1/DTD/svg11.dtd">
<svg version="1.1" xmlns="http://www.w3.org/2000/svg" xmlns:xlink="http://www.w3.org/1999/xlink" width="20" height="20" viewBox="0 0 20 20">
<g>
</g>
	<path d="M9.25 11.64q0.88 0.62 1.23 1.28t0.35 1.65q0 0.62-0.3 1.195t-0.845 1.040-1.4 0.74-1.895 0.275q-1.26 0-2.31-0.315t-1.685-0.93-0.635-1.405q0-1.28 1.3-2.265t3.14-0.985q0.14 0 0.4-0.005t0.38-0.005q-0.61-0.61-0.61-1.26 0-0.43 0.23-0.86-0.080 0.010-0.22-0.005t-0.2-0.015q-1.51 0-2.475-0.97t-0.965-2.37q0-0.87 0.555-1.665t1.47-1.28 1.905-0.485h4.52l-1.010 1h-1.44q0.83 0.87 1.030 1.16 0.43 0.63 0.43 1.44 0 1.35-1.28 2.34-0.53 0.42-0.695 0.67t-0.165 0.62q0 0.28 0.395 0.705t0.795 0.705zM6.83 9.37q0.88 0.030 1.39-0.76t0.36-1.94q-0.15-1.14-0.87-1.95t-1.6-0.84q-0.88-0.020-1.39 0.75t-0.36 1.91q0.15 1.15 0.875 1.98t1.595 0.85zM17 10v1h-2v2h-1v-2h-2v-1h2v-2h1v2h2zM6.38 17.1q1.72 0 2.5-0.635t0.78-1.705q0-0.22-0.050-0.47-0.040-0.16-0.105-0.295t-0.18-0.275-0.205-0.235-0.28-0.24-0.295-0.215-0.365-0.25-0.38-0.26q-0.56-0.18-1.12-0.18-1.31-0.020-2.3 0.685t-0.99 1.665q0 1 0.855 1.705t2.135 0.705z" fill="#000000"></path>
</svg>
