<?xml version="1.0" encoding="utf-8"?>
<!-- Generated by IcoMoon.io -->
<!DOCTYPE svg PUBLIC "-//W3C//DTD SVG 1.1//EN" "http://www.w3.org/Graphics/SVG/1.1/DTD/svg11.dtd">
<svg version="1.1" xmlns="http://www.w3.org/2000/svg" xmlns:xlink="http://www.w3.org/1999/xlink" width="20" height="20" viewBox="0 0 20 20">
<path d="M6.7 9.2h5.4c0.1 0.3 0.1 0.6 0.1 0.9 0 3.3-2.2 5.6-5.5 5.6-3.1 0-5.7-2.5-5.7-5.7s2.6-5.7 5.7-5.7c1.5 0 2.8 0.6 3.8 1.5l-1.5 1.5c-0.4-0.4-1.2-0.9-2.3-0.9-2 0-3.6 1.6-3.6 3.6s1.6 3.6 3.6 3.6c2.3 0 3.1-1.6 3.2-2.5h-3.2c0 0 0-1.9 0-1.9zM19 9.2v1.6h-1.6v1.6h-1.6v-1.6h-1.6v-1.6h1.6v-1.7h1.6v1.6h1.6z"></path>
</svg>
