<?xml version="1.0" encoding="utf-8"?>
<!-- Generated by IcoMoon.io -->
<!DOCTYPE svg PUBLIC "-//W3C//DTD SVG 1.1//EN" "http://www.w3.org/Graphics/SVG/1.1/DTD/svg11.dtd">
<svg version="1.1" xmlns="http://www.w3.org/2000/svg" xmlns:xlink="http://www.w3.org/1999/xlink" width="20" height="20" viewBox="0 0 20 20">
<path d="M8 4c-0.3 1.3 0.6 3.5 2 3.5s2.2-2.2 2-3.5c-0.2-1-1.1-1.6-2-1.6s-1.7 0.7-2 1.6zM3.9 4.9c-0.2 1.1 0.5 3 1.7 3s1.9-1.9 1.6-3c-0.1-0.8-0.9-1.3-1.6-1.3s-1.5 0.5-1.7 1.3zM12.8 4.9c-0.2 1.1 0.5 2.9 1.7 2.9s1.9-1.8 1.7-2.9c-0.2-0.8-0.9-1.4-1.7-1.4-0.8 0.1-1.6 0.6-1.7 1.4zM12.2 16.4l1.2-4.3c0.8-2.5-0.7-4-3.4-4s-4.2 1.5-3.4 4l1.3 4.3c0.1 0.7 1.1 1.2 2.1 1.2s1.9-0.5 2.2-1.2zM6.1 8.7c-0.5 0.7-1 1.8-0.4 3.6l1.1 3.8c-0.3 0.2-0.8 0.3-1.2 0.3-0.8 0-1.7-0.4-1.8-1l-1.1-3.7c-0.7-2.1 0.6-3.3 2.9-3.3 0.3 0 0.5 0 0.8 0.1-0.1 0-0.2 0.1-0.3 0.2zM14.4 8.4c2.3 0 3.6 1.3 2.9 3.4l-1.1 3.6c-0.2 0.6-1 1-1.9 1-0.4 0-0.9-0.1-1.2-0.3l1.1-3.8c0.6-1.8 0.1-2.9-0.4-3.6-0.1-0.1-0.2-0.2-0.3-0.3 0.4 0 0.6 0 0.9 0z"></path>
</svg>
