<?xml version="1.0" encoding="utf-8"?>
<!-- Generated by IcoMoon.io -->
<!DOCTYPE svg PUBLIC "-//W3C//DTD SVG 1.1//EN" "http://www.w3.org/Graphics/SVG/1.1/DTD/svg11.dtd">
<svg version="1.1" xmlns="http://www.w3.org/2000/svg" xmlns:xlink="http://www.w3.org/1999/xlink" width="20" height="20" viewBox="0 0 20 20">
<g>
</g>
	<path d="M8.030 4.46q-0.070 0.4-0.045 0.855t0.205 0.92 0.42 0.84 0.61 0.61 0.78 0.235q0.5 0 0.94-0.36t0.68-0.89 0.355-1.13-0.015-1.080q-0.16-0.72-0.725-1.175t-1.235-0.455q-0.68 0-1.24 0.455t-0.73 1.175zM3.9 5.36q-0.13 0.55 0.040 1.23t0.615 1.19 1.015 0.51 1.015-0.51 0.615-1.19 0.040-1.23q-0.14-0.61-0.62-1t-1.050-0.39-1.050 0.39-0.62 1zM12.76 5.36q-0.13 0.55 0.040 1.23t0.615 1.19 1.005 0.51q0.57 0 1.015-0.51t0.615-1.19 0.040-1.23q-0.14-0.61-0.62-1t-1.050-0.39-1.045 0.39-0.615 1zM12.17 16.79l1.25-4.3q0.37-1.26 0.060-2.15t-1.22-1.38-2.26-0.49q-2.070 0-3.040 1.090t-0.4 2.93l1.26 4.3q0.17 0.53 0.795 0.87t1.385 0.34q0.75 0 1.375-0.34t0.795-0.87zM6.070 9.16q-1.070 1.47-0.42 3.59l1.12 3.79q-0.53 0.31-1.2 0.31-0.65 0-1.175-0.285t-0.675-0.745l-1.070-3.65q-0.48-1.56 0.34-2.48t2.58-0.92q0.41 0 0.79 0.060-0.11 0.11-0.29 0.33zM14.42 8.77q1.76 0 2.585 0.92t0.335 2.48l-1.070 3.65q-0.15 0.46-0.675 0.745t-1.175 0.285q-0.67 0-1.2-0.31l1.11-3.77q0.67-2.15-0.42-3.61-0.13-0.18-0.28-0.33 0.38-0.060 0.79-0.060z" fill="#000000"></path>
</svg>
