<?xml version="1.0" encoding="utf-8"?>
<!-- Generated by IcoMoon.io -->
<!DOCTYPE svg PUBLIC "-//W3C//DTD SVG 1.1//EN" "http://www.w3.org/Graphics/SVG/1.1/DTD/svg11.dtd">
<svg version="1.1" xmlns="http://www.w3.org/2000/svg" xmlns:xlink="http://www.w3.org/1999/xlink" width="20" height="20" viewBox="0 0 20 20">
<g>
</g>
	<path d="M17.7 6.32l1.41 1.42-3.47 3.41-1.42-1.42 0.84-0.82q-0.54-1.29-1.51-2.31l-4.61 6.59-5.26 4.7q-0.29 0.29-0.705 0.29t-0.715-0.29l-1.2-1.21q-0.29-0.29-0.29-0.705t0.29-0.705l10.97-9.92q-2.31-1.45-5.67-1.48 4.12-1.25 6.58-0.3 0.25 0.1 0.5 0.235t0.445 0.25 0.45 0.33 0.395 0.325 0.4 0.39 0.355 0.375 0.37 0.43 0.33 0.4 0.345 0.44 0.32 0.405z" fill="#000000"></path>
</svg>
