<?xml version="1.0" encoding="utf-8"?>
<!-- Generated by IcoMoon.io -->
<!DOCTYPE svg PUBLIC "-//W3C//DTD SVG 1.1//EN" "http://www.w3.org/Graphics/SVG/1.1/DTD/svg11.dtd">
<svg version="1.1" xmlns="http://www.w3.org/2000/svg" xmlns:xlink="http://www.w3.org/1999/xlink" width="20" height="20" viewBox="0 0 20 20">
<path d="M17.2 2.8l0.2 0.2c0.4 0.4 0.4 1 0 1.4l-12.8 12.8c-0.4 0.4-1 0.4-1.4 0l-0.2-0.2c-0.4-0.4-0.4-1 0-1.4l1.6-1.6c-1.6-1-2.8-2.3-3.6-3.9 0.8-1.6 2-3 3.6-4s3.4-1.5 5.4-1.5c1.2 0 2.3 0.2 3.4 0.6l2.4-2.4c0.4-0.4 1-0.4 1.4 0zM10.1 6.8c-0.2 0.3-0.3 0.5-0.3 0.9 0 0.3 0.1 0.6 0.3 0.8l1.8-1.8c-0.1-0.1-0.3-0.2-0.4-0.3-0.1 0-0.3 0-0.5 0-0.4 0-0.7 0.2-0.9 0.4zM2.4 10.1c0.7 1.2 1.7 2.2 3 3.1l1.3-1.3c-0.5-0.7-0.7-1.5-0.7-2.4 0-1.1 0.4-2 1.1-2.8-1.1 0.3-2 0.7-2.8 1.3s-1.4 1.3-1.9 2.1zM15.6 8l1-1c1 0.9 1.8 1.9 2.4 3.1-0.8 1.6-2 3-3.6 4s-3.4 1.5-5.4 1.5c-0.6 0-1.2-0.1-1.8-0.2l1.1-1.1c0.2 0 0.5 0.1 0.8 0.1 1.6 0 3.1-0.4 4.5-1.2s2.4-1.8 3.1-3.1c-0.6-0.8-1.2-1.5-2.1-2.1 0.1 0 0 0 0 0zM10 13.5l4-4c0 1.1-0.4 2-1.2 2.8-0.7 0.8-1.7 1.2-2.8 1.2z"></path>
</svg>
