<?xml version="1.0" encoding="utf-8"?>
<!-- Generator: Adobe Illustrator 19.0.0, SVG Export Plug-In . SVG Version: 6.00 Build 0)  -->
<svg version="1.1" id="Layer_1" xmlns="http://www.w3.org/2000/svg" xmlns:xlink="http://www.w3.org/1999/xlink" x="0px" y="0px"
	 viewBox="-295 387 20 20" style="enable-background:new -295 387 20 20;" xml:space="preserve">
<path d="M-278,405h-14c-0.6,0-1-0.4-1-1v-14c0-0.6,0.4-1,1-1h14c0.6,0,1,0.4,1,1v14C-277,404.6-277.4,405-278,405z M-287,394.5
	c0.1-0.1,0.2-0.2,0.3-0.2c0.1-0.1,0.2-0.2,0.2-0.3c0.1-0.2,0.1-0.3,0.2-0.4c0-0.1,0.1-0.2,0.1-0.3l0.1-0.2c0,0,0,0,0,0c0,0,0,0,0,0
	c0-0.3,0-0.6,0-0.9c-0.1-0.3-0.2-0.5-0.5-0.7c-0.2-0.2-0.5-0.3-0.9-0.3c-0.2,0-0.4,0-0.6,0.1c-0.2,0.1-0.3,0.2-0.4,0.3
	c-0.1,0.1-0.2,0.3-0.3,0.4c-0.1,0.2-0.1,0.3-0.1,0.5c0,0.1,0,0.3,0,0.6l0,0.1c0,0.1,0,0.2,0.1,0.3c0.1,0.2,0.1,0.3,0.1,0.3
	c0,0.1,0.1,0.2,0.2,0.4c0.1,0.1,0.2,0.2,0.3,0.3c0.1,0.1,0.2,0.2,0.3,0.3c0.1,0.1,0.3,0.1,0.4,0.1S-287.1,394.6-287,394.5z
	 M-279,392v-1h-5v1H-279z M-279,394v-1h-5v1H-279z M-286.8,395.5c-0.3,0.2-0.8,0.2-1.1,0l-0.8-0.5c-0.4,0-0.8,0.1-1.1,0.3
	c-0.4,0.2-0.6,0.5-0.8,0.9c-0.2,0.3-0.3,0.7-0.3,1.1v1.3l0.2,0c0.2,0.1,0.4,0.1,0.5,0.1c0.3,0.1,0.5,0.1,0.8,0.2
	c0.2,0,0.6,0.1,1,0.1c0.4,0,0.7,0.1,1.1,0.1c0.3,0,0.7,0,1.1-0.1c0.3,0,0.6-0.1,1-0.1c0.4-0.1,0.6-0.1,0.8-0.2c0.1,0,0.2,0,0.3-0.1
	c0.1,0,0.2,0,0.2,0c0.1,0,0.2,0,0.2-0.1v-1.3c0-0.4-0.1-0.7-0.3-1.1c-0.2-0.4-0.5-0.6-0.8-0.9c-0.4-0.2-0.7-0.3-1.1-0.3
	L-286.8,395.5z M-279,396v-1h-3v1H-279z M-279,398v-1h-3v1H-279z M-279,401v-1h-12v1H-279z M-279,403v-1h-12v1H-279z"/>
</svg>
