<?xml version="1.0" encoding="utf-8"?>
<!-- Generated by IcoMoon.io -->
<!DOCTYPE svg PUBLIC "-//W3C//DTD SVG 1.1//EN" "http://www.w3.org/Graphics/SVG/1.1/DTD/svg11.dtd">
<svg version="1.1" xmlns="http://www.w3.org/2000/svg" xmlns:xlink="http://www.w3.org/1999/xlink" width="20" height="20" viewBox="0 0 20 20">
<g>
</g>
	<path d="M18 18h-16v-16h16v16zM8.050 7.53q0.19-0.11 0.33-0.24 0.14-0.16 0.24-0.34 0.13-0.26 0.17-0.37 0.050-0.13 0.1-0.34l0.060-0.24q0-0.020 0.005-0.050t0.005-0.040q0.070-0.45-0.040-0.9-0.12-0.43-0.46-0.72-0.35-0.29-0.86-0.29-0.29 0-0.56 0.11-0.26 0.12-0.41 0.3-0.17 0.2-0.27 0.44t-0.12 0.51q-0.010 0.18 0.010 0.55l0.020 0.090q0.020 0.11 0.060 0.25 0.090 0.3 0.1 0.33 0.060 0.18 0.17 0.37 0.13 0.2 0.25 0.33 0.15 0.17 0.34 0.25 0.19 0.090 0.43 0.090t0.43-0.090zM16 5v-1h-5v1h5zM16 7v-1h-5v1h5zM7.62 8.83l-1.38-0.88q-0.61 0-1.14 0.32-0.53 0.33-0.81 0.85-0.29 0.52-0.29 1.070v1.25l0.2 0.050q0.26 0.080 0.55 0.14 0.41 0.1 0.8 0.17 0.34 0.070 1 0.14 0.56 0.060 1.070 0.060 0.5 0 1.070-0.060 0.48-0.050 0.98-0.14 0.54-0.1 0.82-0.17 0.16-0.030 0.34-0.080t0.2-0.050q0.13-0.040 0.21-0.060v-1.25q0-0.55-0.31-1.070-0.32-0.53-0.84-0.86-0.53-0.33-1.11-0.33zM16 9v-1h-3v1h3zM16 11v-1h-3v1h3zM16 14v-1h-12v1h12zM16 16v-1h-12v1h12z" fill="#000000"></path>
</svg>
