<?xml version="1.0" encoding="utf-8"?>
<!-- Generator: Adobe Illustrator 19.0.0, SVG Export Plug-In . SVG Version: 6.00 Build 0)  -->
<svg version="1.1" id="Layer_1" xmlns="http://www.w3.org/2000/svg" xmlns:xlink="http://www.w3.org/1999/xlink" x="0px" y="0px"
	 viewBox="-295 387 20 20" style="enable-background:new -295 387 20 20;" xml:space="preserve">
<path d="M-278,403h-14c-0.6,0-1-0.4-1-1v-10c0-0.6,0.4-1,1-1h14c0.6,0,1,0.4,1,1v10C-277,402.6-277.4,403-278,403z M-288,395.5
	c0.1-0.1,0.2-0.2,0.3-0.2c0.1-0.1,0.2-0.2,0.2-0.3c0.1-0.2,0.1-0.3,0.2-0.4c0-0.1,0.1-0.2,0.1-0.3l0.1-0.2c0,0,0,0,0,0c0,0,0,0,0,0
	c0-0.3,0-0.6,0-0.9c-0.1-0.3-0.2-0.5-0.5-0.7c-0.2-0.2-0.5-0.3-0.9-0.3c-0.2,0-0.4,0-0.6,0.1c-0.2,0.1-0.3,0.2-0.4,0.3
	c-0.1,0.1-0.2,0.3-0.3,0.4c-0.1,0.2-0.1,0.3-0.1,0.5c0,0.1,0,0.3,0,0.6l0,0.1c0,0.1,0,0.2,0.1,0.3c0.1,0.2,0.1,0.3,0.1,0.3
	c0,0.1,0.1,0.2,0.2,0.4c0.1,0.1,0.2,0.2,0.3,0.3c0.1,0.1,0.2,0.2,0.3,0.3c0.1,0.1,0.3,0.1,0.4,0.1S-288.1,395.6-288,395.5z
	 M-278,395v-2c0-0.6-0.4-1-1-1h-3c-0.6,0-1,0.4-1,1v2c0,0.6,0.4,1,1,1h3C-278.4,396-278,395.6-278,395z M-287.8,396.5
	c-0.3,0.2-0.8,0.2-1.1,0l-0.8-0.5c-0.4,0-0.8,0.1-1.1,0.3c-0.4,0.2-0.6,0.5-0.8,0.9c-0.2,0.3-0.3,0.7-0.3,1.1v1.3l0.2,0
	c0.2,0.1,0.4,0.1,0.5,0.1c0.3,0.1,0.5,0.1,0.8,0.2c0.2,0,0.6,0.1,1,0.1c0.4,0,0.7,0.1,1.1,0.1c0.3,0,0.7,0,1.1-0.1
	c0.3,0,0.6-0.1,1-0.1c0.4-0.1,0.6-0.1,0.8-0.2c0.1,0,0.2,0,0.3-0.1c0.1,0,0.2,0,0.2,0c0.1,0,0.2,0,0.2-0.1v-1.3
	c0-0.4-0.1-0.7-0.3-1.1c-0.2-0.4-0.5-0.6-0.8-0.9c-0.4-0.2-0.7-0.3-1.1-0.3L-287.8,396.5z M-278,398v-1h-5v1H-278z M-278,400v-1h-5
	v1H-278z M-278,402v-1h-14v1H-278z"/>
</svg>
