<?xml version="1.0" encoding="utf-8"?>
<!-- Generator: Adobe Illustrator 19.0.0, SVG Export Plug-In . SVG Version: 6.00 Build 0)  -->
<svg version="1.1" id="Layer_1" xmlns="http://www.w3.org/2000/svg" xmlns:xlink="http://www.w3.org/1999/xlink" x="0px" y="0px"
	 viewBox="-295 387 20 20" style="enable-background:new -295 387 20 20;" xml:space="preserve">
<path d="M-289,390h12c0.6,0,1,0.4,1,1v9c0,0.6-0.4,1-1,1h-1v1c0,0.6-0.4,1-1,1h-1v1c0,0.6-0.4,1-1,1h-12c-0.6,0-1-0.4-1-1v-9
	c0-0.6,0.4-1,1-1h1v-1c0-0.6,0.4-1,1-1h1v-1C-290,390.4-289.6,390-289,390z M-277,400v-9h-12v9H-277z M-280,396
	c-0.5,0-1-0.2-1.4-0.6s-0.6-0.9-0.6-1.4s0.2-1,0.6-1.4s0.9-0.6,1.4-0.6s1,0.2,1.4,0.6s0.6,0.9,0.6,1.4s-0.2,1-0.6,1.4
	S-279.5,396-280,396z M-279,402v-1h-10c-0.6,0-1-0.4-1-1v-7h-1v9H-279z M-288,393l10,6h-10V393z M-281,404v-1h-10c-0.6,0-1-0.4-1-1
	v-7h-1v9H-281z"/>
</svg>
