<?xml version="1.0" encoding="utf-8"?>
<!-- Generator: Adobe Illustrator 19.0.0, SVG Export Plug-In . SVG Version: 6.00 Build 0)  -->
<svg version="1.1" id="Layer_1" xmlns="http://www.w3.org/2000/svg" xmlns:xlink="http://www.w3.org/1999/xlink" x="0px" y="0px"
	 viewBox="-295 387 20 20" style="enable-background:new -295 387 20 20;" xml:space="preserve">
<path d="M-276,400v1c0,0.6-0.4,1-1,1h-3v3c0,0.6-0.4,1-1,1h-1c-0.6,0-1-0.4-1-1v-3h-8v-8h-3c-0.6,0-1-0.4-1-1v-1c0-0.6,0.4-1,1-1h3
	v-3c0-0.6,0.4-1,1-1h1c0.6,0,1,0.4,1,1v3h7l3-3l1,1l-3,3v7h3C-276.4,399-276,399.4-276,400z M-284,394h-4v4L-284,394z M-287,399h4
	v-4L-287,399z"/>
</svg>
