<?xml version="1.0" encoding="utf-8"?>
<!-- Generator: Adobe Illustrator 19.0.0, SVG Export Plug-In . SVG Version: 6.00 Build 0)  -->
<svg version="1.1" id="Layer_1" xmlns="http://www.w3.org/2000/svg" xmlns:xlink="http://www.w3.org/1999/xlink" x="0px" y="0px"
	 viewBox="-295 387 20 20" style="enable-background:new -295 387 20 20;" xml:space="preserve">
<path d="M-279,392h-2l3.2,3.4l2.6-3.4h-1.8c0-1.5-0.5-2.7-1.4-3.6c-0.9-0.9-2.1-1.4-3.7-1.4v2.1c1,0,1.8,0.3,2.2,0.8
	C-279.3,390.4-279,391.1-279,392z M-293,388h8c0.6,0,1,0.4,1,1v8h8c0.6,0,1,0.4,1,1v8c0,0.6-0.4,1-1,1h-12c-0.6,0-1-0.4-1-1v-4h-4
	c-0.6,0-1-0.4-1-1v-12C-294,388.4-293.6,388-293,388z M-292,390v10h3v-2c0-0.6,0.4-1,1-1h2v-7H-292z M-287,399v6h10v-6H-287z"/>
</svg>
