<?xml version="1.0" encoding="utf-8"?>
<!-- Generator: Adobe Illustrator 19.0.0, SVG Export Plug-In . SVG Version: 6.00 Build 0)  -->
<svg version="1.1" id="Layer_1" xmlns="http://www.w3.org/2000/svg" xmlns:xlink="http://www.w3.org/1999/xlink" x="0px" y="0px"
	 viewBox="-295 387 20 20" style="enable-background:new -295 387 20 20;" xml:space="preserve">
<path d="M-275,396v2h-3v7c0,0.6-0.4,1-1,1h-12c-0.6,0-1-0.4-1-1v-7h-3v-2h3v-7c0-0.6,0.4-1,1-1h12c0.6,0,1,0.4,1,1v7H-275z
	 M-288.5,394h7l-3.5-4L-288.5,394z M-278,396.5h-14v1h14V396.5z M-281.5,400h-7l3.5,4L-281.5,400z"/>
</svg>
