<?xml version="1.0" encoding="utf-8"?>
<!-- Generator: Adobe Illustrator 19.0.0, SVG Export Plug-In . SVG Version: 6.00 Build 0)  -->
<svg version="1.1" id="Layer_1" xmlns="http://www.w3.org/2000/svg" xmlns:xlink="http://www.w3.org/1999/xlink" x="0px" y="0px"
	 viewBox="-295 387 20 20" style="enable-background:new -295 387 20 20;" xml:space="preserve">
<path d="M-288,392h-2c0-0.9,0.2-1.6,0.7-2.1c0.5-0.5,1.2-0.8,2.2-0.8V387c-1.5,0-2.8,0.5-3.7,1.4c-0.9,0.9-1.4,2.1-1.4,3.6h-1.8
	l2.6,3.4L-288,392z M-275,389v12c0,0.6-0.4,1-1,1h-4v4c0,0.6-0.4,1-1,1h-12c-0.6,0-1-0.4-1-1v-8c0-0.6,0.4-1,1-1h8v-8
	c0-0.6,0.4-1,1-1h8C-275.4,388-275,388.4-275,389z M-277,390h-6v7h2c0.6,0,1,0.4,1,1v2h3V390z M-282,399h-10v6h10V399z"/>
</svg>
