<?xml version="1.0" encoding="utf-8"?>
<!-- Generator: Adobe Illustrator 19.0.0, SVG Export Plug-In . SVG Version: 6.00 Build 0)  -->
<svg version="1.1" id="Layer_1" xmlns="http://www.w3.org/2000/svg" xmlns:xlink="http://www.w3.org/1999/xlink" x="0px" y="0px"
	 viewBox="-295 387 20 20" style="enable-background:new -295 387 20 20;" xml:space="preserve">
<path d="M-291,401v-2h-1c-0.6,0-1-0.4-1-1v-8c0-0.6,0.4-1,1-1h10c0.6,0,1,0.4,1,1v2h1c0.6,0,1,0.4,1,1v2h1c0.6,0,1,0.4,1,1v8
	c0,0.6-0.4,1-1,1h-10c-0.6,0-1-0.4-1-1v-2h-1C-290.6,402-291,401.6-291,401z M-284,390c-0.5,0-1,0.2-1.4,0.6s-0.6,0.9-0.6,1.4h4
	c0-0.6-0.2-1-0.6-1.4C-283,390.2-283.4,390-284,390z M-291,398v-5h-1v5H-291z M-284,395h4c0-0.6-0.2-1-0.6-1.4
	c-0.4-0.4-0.9-0.6-1.4-0.6c-0.5,0-1,0.2-1.4,0.6S-284,394.5-284,395z M-289,401v-5h-1v5H-289z M-280,400c0.6,0,1-0.2,1.4-0.6
	c0.4-0.4,0.6-0.9,0.6-1.4c0-0.5-0.2-1-0.6-1.4s-0.9-0.6-1.4-0.6s-1,0.2-1.4,0.6s-0.6,0.9-0.6,1.4c0,0.6,0.2,1,0.6,1.4
	C-281,399.8-280.6,400-280,400z M-278,404v-2c-0.7,0-1.3-0.1-1.9-0.2c-0.6-0.1-1-0.3-1.4-0.4c-0.4-0.2-0.8-0.4-1.2-0.6l-1.1-0.6
	c0,0-0.4-0.2-1.2-0.6c-0.8-0.4-1.2-0.5-1.4-0.4c-0.2,0.1-0.8,0-1.9-0.2v5C-288,404-278,404-278,404z"/>
</svg>
