<?xml version="1.0" encoding="utf-8"?>
<!-- Generated by IcoMoon.io -->
<!DOCTYPE svg PUBLIC "-//W3C//DTD SVG 1.1//EN" "http://www.w3.org/Graphics/SVG/1.1/DTD/svg11.dtd">
<svg version="1.1" xmlns="http://www.w3.org/2000/svg" xmlns:xlink="http://www.w3.org/1999/xlink" width="20" height="20" viewBox="0 0 20 20">
<path d="M14 5.87q0-1.65-1.17-2.825t-2.83-1.175-2.83 1.175-1.17 2.825q0 1.66 1.17 2.83t2.83 1.17 2.83-1.17 1.17-2.83zM3.24 10.66q-0.71 0.4-1.195 1.045t-0.68 1.38-0.1 1.535 0.505 1.5q0.55 0.94 1.485 1.475t1.96 0.53 2.025-0.535q1.43-0.83 1.86-2.43t-0.4-3.040q-0.41-0.7-1.050-1.185t-1.375-0.68-1.535-0.1-1.5 0.505zM12.76 17.59q1.44 0.83 3.040 0.4t2.43-1.86q0.53-1 0.535-2.025t-0.53-1.96-1.475-1.485q-0.7-0.41-1.5-0.505t-1.535 0.1-1.375 0.68-1.050 1.185q-0.83 1.44-0.4 3.040t1.86 2.43z"></path>
</svg>
