<?xml version="1.0" encoding="utf-8"?>
<!-- Generator: Adobe Illustrator 19.0.0, SVG Export Plug-In . SVG Version: 6.00 Build 0)  -->
<svg version="1.1" id="Layer_1" xmlns="http://www.w3.org/2000/svg" xmlns:xlink="http://www.w3.org/1999/xlink" x="0px" y="0px"
	 viewBox="-295 387 20 20" style="enable-background:new -295 387 20 20;" xml:space="preserve">
<path d="M-276,391v12c0,0.6-0.4,1-1,1h-7v3h-2v-3h-7c-0.6,0-1-0.4-1-1v-12c0-0.6,0.4-1,1-1h7v-3h2v3h7C-276.4,390-276,390.4-276,391
	z M-284.5,404v-14h-1v14H-284.5z M-288,393.5l-4,3.5l4,3.5V393.5z M-278,397l-4-3.5v7L-278,397z"/>
</svg>
