<?xml version="1.0" encoding="utf-8"?>
<!-- Generator: Adobe Illustrator 19.0.0, SVG Export Plug-In . SVG Version: 6.00 Build 0)  -->
<svg version="1.1" id="Layer_1" xmlns="http://www.w3.org/2000/svg" xmlns:xlink="http://www.w3.org/1999/xlink" x="0px" y="0px"
	 viewBox="-295 387 20 20" style="enable-background:new -295 387 20 20;" xml:space="preserve">
<path d="M-294,390.2V404c0,0.6,0.5,1,1,1h16c0.6,0,1-0.5,1-1v-12c0-0.6-0.5-1-1-1h-10v-0.8c0-0.3-0.1-0.6-0.4-0.8
	c-0.2-0.2-0.5-0.3-0.8-0.3h-4.6c-0.3,0-0.6,0.1-0.8,0.3C-293.9,389.6-294,389.8-294,390.2z M-285,393v2h-7v-2H-285z M-278,393v10h-5
	v-10H-278z M-285,397v2h-7v-2H-285z M-285,401v2h-7v-2H-285z"/>
</svg>
