<?xml version="1.0" encoding="utf-8"?>
<!-- Generator: Adobe Illustrator 19.2.0, SVG Export Plug-In . SVG Version: 6.00 Build 0)  -->
<svg version="1.1" id="Layer_1" xmlns="http://www.w3.org/2000/svg" xmlns:xlink="http://www.w3.org/1999/xlink" x="0px" y="0px"
	 viewBox="0 0 20 20" style="enable-background:new 0 0 20 20;" xml:space="preserve">
<path d="M19,16c0,0.6-0.5,1-1.1,1H2.1C1.5,17,1,16.6,1,16l0,0c0-0.6,0-1,0-1h18C19,15,19,15.4,19,16L19,16z"/>
<path d="M16,4v8H4V4H16z M17,2H3C2.4,2,2,2.4,2,3v10c0,0.6,0.4,1,1,1h14c0.6,0,1-0.4,1-1V3C18,2.4,17.6,2,17,2L17,2z"/>
<path d="M13,5L5,9l0-4H13z"/>
</svg>
