<?xml version="1.0" encoding="utf-8"?>
<!-- Generated by IcoMoon.io -->
<!DOCTYPE svg PUBLIC "-//W3C//DTD SVG 1.1//EN" "http://www.w3.org/Graphics/SVG/1.1/DTD/svg11.dtd">
<svg version="1.1" xmlns="http://www.w3.org/2000/svg" xmlns:xlink="http://www.w3.org/1999/xlink" width="20" height="20" viewBox="0 0 20 20">
<path d="M13 12.9l1.2-5.9c0.8-0.4 1.3-1.2 1.3-2.2 0-1.4-1.1-2.5-2.5-2.5s-2.5 1.1-2.5 2.5c0 0.9 0.5 1.8 1.3 2.2l1.2 5.9zM13 3.2c0.8 0 1.5 0.7 1.5 1.5s-0.7 1.5-1.5 1.5-1.5-0.7-1.5-1.5 0.7-1.5 1.5-1.5zM14.7 8.1l3.3-1.4v9l-4.9 2-6.1-2-5 2v-9l5-2 4.3 1.4 1.7 7.3 1.7-7.3z"></path>
</svg>
