<?xml version="1.0" encoding="utf-8"?>
<!-- Generated by IcoMoon.io -->
<!DOCTYPE svg PUBLIC "-//W3C//DTD SVG 1.1//EN" "http://www.w3.org/Graphics/SVG/1.1/DTD/svg11.dtd">
<svg version="1.1" xmlns="http://www.w3.org/2000/svg" xmlns:xlink="http://www.w3.org/1999/xlink" width="20" height="20" viewBox="0 0 20 20">
<g>
</g>
	<path d="M10 2q-1.63 0-3.010 0.805t-2.185 2.185-0.805 3.010q0 1.42 0.7 2.665t1.83 2.225q0.040 0.030 0.235 0.195t0.295 0.255 0.3 0.275 0.345 0.33 0.33 0.355 0.345 0.42q1.33 1.74 1.62 2.71 0.29-0.97 1.62-2.71 0.16-0.21 0.345-0.42t0.33-0.355 0.345-0.33 0.3-0.275 0.295-0.255 0.235-0.195q1.13-0.98 1.83-2.225t0.7-2.665q0-1.63-0.805-3.010t-2.185-2.185-3.010-0.805zM10 4.56q1.42 0 2.43 1.010t1.010 2.43-1.010 2.43-2.43 1.010-2.43-1.010-1.010-2.43 1.010-2.43 2.43-1.010z" fill="#000000"></path>
</svg>
