<?xml version="1.0" encoding="utf-8"?>
<!-- Generated by IcoMoon.io -->
<!DOCTYPE svg PUBLIC "-//W3C//DTD SVG 1.1//EN" "http://www.w3.org/Graphics/SVG/1.1/DTD/svg11.dtd">
<svg version="1.1" xmlns="http://www.w3.org/2000/svg" xmlns:xlink="http://www.w3.org/1999/xlink" width="20" height="20" viewBox="0 0 20 20">
<g>
</g>
	<path d="M15 6v2q0.82 0 1.41 0.59t0.59 1.41v7q0 0.82-0.59 1.41t-1.41 0.59h-10q-0.82 0-1.41-0.59t-0.59-1.41v-7q0-0.82 0.59-1.41t1.41-0.59v-2q0-1.36 0.67-2.51t1.82-1.82 2.51-0.67 2.51 0.67 1.82 1.82 0.67 2.51zM8 6v2h4v-2q0-0.82-0.59-1.41t-1.41-0.59-1.41 0.59-0.59 1.41zM10.8 16.25v-2.17q0.54-0.24 0.87-0.735t0.33-1.095q0-0.83-0.59-1.415t-1.41-0.585-1.41 0.585-0.59 1.415q0 0.6 0.33 1.095t0.87 0.735v2.17h1.6z" fill="#000000"></path>
</svg>
