<?xml version="1.0" encoding="utf-8"?>
<!-- Generated by IcoMoon.io -->
<!DOCTYPE svg PUBLIC "-//W3C//DTD SVG 1.1//EN" "http://www.w3.org/Graphics/SVG/1.1/DTD/svg11.dtd">
<svg version="1.1" xmlns="http://www.w3.org/2000/svg" xmlns:xlink="http://www.w3.org/1999/xlink" width="20" height="20" viewBox="0 0 20 20">
<g>
</g>
	<path d="M10 2q1.63 0 3.11 0.635t2.55 1.705 1.705 2.55 0.635 3.11-0.635 3.11-1.705 2.55-2.55 1.705-3.11 0.635-3.11-0.635-2.55-1.705-1.705-2.55-0.635-3.11 0.635-3.11 1.705-2.55 2.55-1.705 3.11-0.635zM10 15q1.36 0 2.51-0.67t1.82-1.82 0.67-2.51-0.67-2.51-1.82-1.82-2.51-0.67-2.51 0.67-1.82 1.82-0.67 2.51 0.67 2.51 1.82 1.82 2.51 0.67z" fill="#000000"></path>
</svg>
