<?xml version="1.0" encoding="utf-8"?>
<!-- Generator: Adobe Illustrator 19.0.0, SVG Export Plug-In . SVG Version: 6.00 Build 0)  -->
<svg version="1.1" id="Layer_1" xmlns="http://www.w3.org/2000/svg" xmlns:xlink="http://www.w3.org/1999/xlink" x="0px" y="0px"
	 viewBox="-295 387 20 20" style="enable-background:new -295 387 20 20;" xml:space="preserve">
<path d="M-283,389l4,4v11c0,0.6-0.4,1-1,1h-10c-0.6,0-1-0.4-1-1v-14c0-0.6,0.4-1,1-1H-283z M-283,393h3l-3-3V393z M-284,401v-3
	c0-0.3-0.1-0.5-0.3-0.7c-0.2-0.2-0.4-0.3-0.7-0.3h-3c-0.3,0-0.5,0.1-0.7,0.3c-0.2,0.2-0.3,0.4-0.3,0.7v3c0,0.3,0.1,0.5,0.3,0.7
	c0.2,0.2,0.4,0.3,0.7,0.3h3c0.3,0,0.5-0.1,0.7-0.3C-284.1,401.5-284,401.3-284,401z M-281,402v-5l-2,2v1L-281,402z"/>
</svg>
