<?xml version="1.0" encoding="utf-8"?>
<!-- Generator: Adobe Illustrator 19.0.0, SVG Export Plug-In . SVG Version: 6.00 Build 0)  -->
<svg version="1.1" id="Layer_1" xmlns="http://www.w3.org/2000/svg" xmlns:xlink="http://www.w3.org/1999/xlink" x="0px" y="0px"
	 viewBox="-295 387 20 20" style="enable-background:new -295 387 20 20;" xml:space="preserve">
<path d="M-283,389l4,4v11c0,0.6-0.4,1-1,1h-10c-0.6,0-1-0.4-1-1v-14c0-0.6,0.4-1,1-1H-283z M-284,393v-3h-6v3H-284z M-287,395v-1h-3
	v1H-287z M-284,395v-1h-2v1H-284z M-280,395v-1h-3v1H-280z M-287,397v-1h-3v1H-287z M-284,397v-1h-2v1H-284z M-280,397v-1h-3v1H-280
	z M-287,399v-1h-3v1H-287z M-284,399v-1h-2v1H-284z M-280,399v-1h-3v1H-280z M-287,401v-1h-3v1H-287z M-284,401v-1h-2v1H-284z
	 M-280,401v-1h-3v1H-280z M-287,403v-1h-3v1H-287z M-284,403v-1h-2v1H-284z"/>
</svg>
