<?xml version="1.0" encoding="utf-8"?>
<!-- Generator: Adobe Illustrator 19.0.0, SVG Export Plug-In . SVG Version: 6.00 Build 0)  -->
<svg version="1.1" id="Layer_1" xmlns="http://www.w3.org/2000/svg" xmlns:xlink="http://www.w3.org/1999/xlink" x="0px" y="0px"
	 viewBox="-295 387 20 20" style="enable-background:new -295 387 20 20;" xml:space="preserve">
<path d="M-283,389l4,4v11c0,0.6-0.4,1-1,1h-10c-0.6,0-1-0.4-1-1v-14c0-0.6,0.4-1,1-1H-283z M-283,393h3l-3-3V393z M-282,400.3v-5.2
	c0-0.1,0-0.2-0.1-0.3c-0.1-0.1-0.2-0.1-0.3-0.1c-2.6,0.5-4.1,0.7-4.3,0.8c-0.2,0-0.4,0.2-0.4,0.5v3.4c-0.1,0-0.3-0.1-0.6-0.1
	c-0.4,0-0.7,0.1-1,0.4c-0.3,0.3-0.4,0.6-0.4,1c0,0.4,0.1,0.7,0.4,1c0.3,0.3,0.6,0.4,1,0.4c0.4,0,0.8-0.1,1-0.3
	c0.4-0.4,0.6-0.8,0.6-1.1v-3.3l3-0.6v2.3c-0.6-0.2-1.1-0.1-1.4,0.3c-0.3,0.3-0.4,0.6-0.4,1c0,0.4,0.1,0.7,0.4,1
	c0.3,0.3,0.6,0.4,1.1,0.4c0.4,0,0.7-0.1,1-0.4C-282.1,400.9-282,400.6-282,400.3z"/>
</svg>
