<?xml version="1.0" encoding="utf-8"?>
<!-- Generator: Adobe Illustrator 19.0.0, SVG Export Plug-In . SVG Version: 6.00 Build 0)  -->
<svg version="1.1" id="Layer_1" xmlns="http://www.w3.org/2000/svg" xmlns:xlink="http://www.w3.org/1999/xlink" x="0px" y="0px"
	 viewBox="-295 387 20 20" style="enable-background:new -295 387 20 20;" xml:space="preserve">
<path d="M-283,389l4,4v11c0,0.6-0.4,1-1,1h-10c-0.6,0-1-0.4-1-1v-14c0-0.6,0.4-1,1-1H-283z M-283,393h3l-3-3V393z M-281,401v-6h-8v6
	h3l-1,2h1l1-2l1,2h1l-1-2H-281z M-287,398c-0.3,0-0.5-0.1-0.7-0.3c-0.2-0.2-0.3-0.4-0.3-0.7s0.1-0.5,0.3-0.7
	c0.2-0.2,0.4-0.3,0.7-0.3s0.5,0.1,0.7,0.3c0.2,0.2,0.3,0.4,0.3,0.7s-0.1,0.5-0.3,0.7C-286.5,397.9-286.7,398-287,398z M-282,396v2
	h-3v-2H-282z M-282,399v1h-6v-1H-282z"/>
</svg>
