<?xml version="1.0" encoding="utf-8"?>
<!-- Generated by IcoMoon.io -->
<!DOCTYPE svg PUBLIC "-//W3C//DTD SVG 1.1//EN" "http://www.w3.org/Graphics/SVG/1.1/DTD/svg11.dtd">
<svg version="1.1" xmlns="http://www.w3.org/2000/svg" xmlns:xlink="http://www.w3.org/1999/xlink" width="20" height="20" viewBox="0 0 20 20">
<g>
</g>
	<path d="M12 2l4 4v12h-12v-16h8zM12 6h3l-3-3v3zM13 13.26v-5.17q0-0.17-0.12-0.29-0.1-0.12-0.27-0.1-3.97 0.71-4.25 0.78-0.36 0.070-0.36 0.52v3.37q-0.16-0.070-0.6-0.070-0.57 0-0.96 0.39-0.4 0.42-0.4 0.96 0 0.55 0.4 0.95 0.39 0.4 0.96 0.4 0.65 0 0.96-0.26 0.64-0.57 0.64-1.12v-3.32l3-0.6v2.3q-0.87-0.26-1.44 0.31-0.39 0.39-0.39 0.95t0.39 0.96q0.4 0.39 1.080 0.39 0.57 0 0.96-0.39 0.4-0.42 0.4-0.96z" fill="#000000"></path>
</svg>
