<?xml version="1.0" encoding="utf-8"?>
<!-- Generator: Adobe Illustrator 19.0.0, SVG Export Plug-In . SVG Version: 6.00 Build 0)  -->
<svg version="1.1" id="Layer_1" xmlns="http://www.w3.org/2000/svg" xmlns:xlink="http://www.w3.org/1999/xlink" x="0px" y="0px"
	 viewBox="-295 387 20 20" style="enable-background:new -295 387 20 20;" xml:space="preserve">
<path d="M-283,389l4,4v11c0,0.6-0.4,1-1,1h-10c-0.6,0-1-0.4-1-1v-14c0-0.6,0.4-1,1-1H-283z M-290,390v1h6v-1H-290z M-283,393h3l-3-3
	V393z M-290,392v1h6v-1H-290z M-280,395v-1h-10v1H-280z M-290,396v1h4v-1H-290z M-280,399v-3h-5v3H-280z M-290,398v1h4v-1H-290z
	 M-280,401v-1h-10v1H-280z M-283,403v-1h-7v1H-283z"/>
</svg>
