<?xml version="1.0" encoding="utf-8"?>
<!-- Generated by IcoMoon.io -->
<!DOCTYPE svg PUBLIC "-//W3C//DTD SVG 1.1//EN" "http://www.w3.org/Graphics/SVG/1.1/DTD/svg11.dtd">
<svg version="1.1" xmlns="http://www.w3.org/2000/svg" xmlns:xlink="http://www.w3.org/1999/xlink" width="20" height="20" viewBox="0 0 20 20">
<g>
</g>
	<path d="M12 2l4 4v12h-12v-16h8zM12 6h3l-3-3v3zM11 14v-3q0-0.4-0.29-0.71-0.31-0.29-0.71-0.29h-3q-0.4 0-0.71 0.29-0.29 0.31-0.29 0.71v3q0 0.4 0.29 0.71 0.31 0.29 0.71 0.29h3q0.4 0 0.71-0.29 0.29-0.31 0.29-0.71zM14 15v-5l-2 2v1z" fill="#000000"></path>
</svg>
