<?xml version="1.0" encoding="utf-8"?>
<!-- Generator: Adobe Illustrator 19.0.0, SVG Export Plug-In . SVG Version: 6.00 Build 0)  -->
<svg version="1.1" id="Layer_1" xmlns="http://www.w3.org/2000/svg" xmlns:xlink="http://www.w3.org/1999/xlink" x="0px" y="0px"
	 viewBox="-295 387 20 20" style="enable-background:new -295 387 20 20;" xml:space="preserve">
<path d="M-283,389l4,4v11c0,0.6-0.4,1-1,1h-10c-0.6,0-1-0.4-1-1v-14c0-0.6,0.4-1,1-1H-283z M-283,393h3l-3-3V393z M-287,390.5v2
	l1.8-1L-287,390.5z M-284,392l-1.8,1l1.8,1V392z M-287,393.5v2l1.8-1L-287,393.5z M-284,395l-1.8,1l1.8,1V395z M-287,396.5v2l1.8-1
	L-287,396.5z M-284,398l-1.8,1l1.8,1V398z M-285.5,404c0.4,0,0.8-0.2,1.1-0.5c0.3-0.3,0.4-0.7,0.4-1.1c0-0.1-0.1-0.3-0.1-0.6
	c-0.1-0.3-0.2-0.5-0.2-0.7l-0.1-0.3l-2-1.1c-0.3,1.3-0.5,2.2-0.5,2.7c0,0.4,0.1,0.8,0.4,1.1C-286.3,403.8-285.9,404-285.5,404z
	 M-285.5,401.6c0.2,0,0.4,0.1,0.5,0.2s0.2,0.3,0.2,0.5c0,0.2-0.1,0.4-0.2,0.5s-0.3,0.2-0.5,0.2s-0.4-0.1-0.5-0.2s-0.2-0.3-0.2-0.5
	c0-0.2,0.1-0.4,0.2-0.5S-285.7,401.6-285.5,401.6z"/>
</svg>
