<?xml version="1.0" encoding="utf-8"?>
<!-- Generator: Adobe Illustrator 19.0.0, SVG Export Plug-In . SVG Version: 6.00 Build 0)  -->
<svg version="1.1" id="Layer_1" xmlns="http://www.w3.org/2000/svg" xmlns:xlink="http://www.w3.org/1999/xlink" x="0px" y="0px"
	 viewBox="-295 387 20 20" style="enable-background:new -295 387 20 20;" xml:space="preserve">
<path d="M-278,393L-278,393c0-0.6-0.4-1-1-1h-12c-0.6,0-1,0.4-1,1l0,0c0,0.6,0.4,1,1,1h12C-278.4,394-278,393.6-278,393z M-278,397
	L-278,397c0-0.6-0.4-1-1-1h-12c-0.6,0-1,0.4-1,1l0,0c0,0.6,0.4,1,1,1h12C-278.4,398-278,397.6-278,397z M-278,401L-278,401
	c0-0.6-0.4-1-1-1h-12c-0.6,0-1,0.4-1,1l0,0c0,0.6,0.4,1,1,1h12C-278.4,402-278,401.6-278,401z"/>
</svg>
