<?xml version="1.0" encoding="utf-8"?>
<!-- Generator: Adobe Illustrator 19.0.0, SVG Export Plug-In . SVG Version: 6.00 Build 0)  -->
<svg version="1.1" id="Layer_1" xmlns="http://www.w3.org/2000/svg" xmlns:xlink="http://www.w3.org/1999/xlink" x="0px" y="0px"
	 viewBox="-295 387 20 20" style="enable-background:new -295 387 20 20;" xml:space="preserve">
<path d="M-294,390h18c0.6,0,1,0.4,1,1v11h-0.8c0-0.8-0.3-1.6-0.8-2.2c-0.6-0.7-1.5-1.1-2.4-1.1c-0.6,0-1.2,0.2-1.7,0.5
	c-0.5,0.4-0.9,0.8-1.2,1.4c-0.3-0.1-0.5-0.2-0.8-0.2c-0.5,0-0.9,0.1-1.3,0.4s-0.7,0.6-0.8,1.1h-9.1c-0.6,0-1-0.4-1-1v-10
	C-295,390.4-294.6,390-294,390z M-286.6,393.1c-0.1,0.2-0.1,0.3-0.1,0.5c0,0.2,0,0.3,0,0.5l0,0.1c0,0.1,0,0.2,0,0.2
	c0,0.1,0,0.2,0.1,0.3c0,0.1,0.1,0.2,0.1,0.3c0.1,0.1,0.1,0.2,0.2,0.3c0.1,0.1,0.2,0.2,0.3,0.2c0.1,0.1,0.3,0.1,0.4,0.1
	c0.1,0,0.3,0,0.4-0.1c0.1-0.1,0.2-0.1,0.3-0.2c0.1-0.1,0.2-0.2,0.2-0.3c0.1-0.1,0.1-0.2,0.2-0.3c0-0.1,0.1-0.2,0.1-0.3
	c0,0,0-0.1,0-0.2l0-0.1c0,0,0-0.1,0-0.1c0-0.3,0-0.5,0-0.8c-0.1-0.3-0.2-0.5-0.4-0.7c-0.2-0.2-0.5-0.3-0.8-0.3c-0.2,0-0.4,0-0.5,0.1
	c-0.2,0.1-0.3,0.2-0.4,0.3C-286.5,392.8-286.5,392.9-286.6,393.1z M-282.1,399.1V398c0-0.3-0.1-0.7-0.3-1s-0.5-0.6-0.8-0.8
	c-0.3-0.2-0.7-0.3-1-0.3l-1.2,0.8l-1.3-0.8c-0.4,0-0.7,0.1-1,0.3c-0.3,0.2-0.6,0.5-0.7,0.8c-0.2,0.3-0.3,0.6-0.3,1v1.1l0.2,0.1
	c0,0,0.2,0,0.5,0.1c0.3,0.1,0.5,0.1,0.7,0.1c0.2,0,0.5,0.1,0.9,0.1c0.4,0,0.7,0.1,1,0.1c0.3,0,0.6,0,1-0.1c0.4,0,0.7-0.1,0.9-0.1
	c0.1,0,0.4-0.1,0.8-0.2l0.5-0.1C-282.3,399.2-282.2,399.2-282.1,399.1z M-279,399.3c0.8,0,1.4,0.3,1.9,0.8c0.5,0.5,0.8,1.2,0.8,1.9
	s-0.3,1.4-0.8,1.9c-0.5,0.5-1.2,0.8-1.9,0.8c-0.7,0-1.3-0.3-1.9-0.8c0.2-0.4,0.4-0.8,0.4-1.2c0-0.4-0.1-0.7-0.3-1.1
	c-0.2-0.3-0.4-0.6-0.7-0.8c0.2-0.5,0.6-0.9,1-1.2C-280,399.4-279.5,399.3-279,399.3z M-284.5,402.8c0-0.5,0.2-0.9,0.5-1.2
	c0.3-0.3,0.8-0.5,1.2-0.5s0.9,0.2,1.2,0.5c0.3,0.3,0.5,0.8,0.5,1.2s-0.2,0.9-0.5,1.2c-0.3,0.3-0.8,0.5-1.2,0.5s-0.9-0.2-1.2-0.5
	C-284.3,403.6-284.5,403.2-284.5,402.8z"/>
</svg>
