<?xml version="1.0" encoding="utf-8"?>
<!-- Generated by IcoMoon.io -->
<!DOCTYPE svg PUBLIC "-//W3C//DTD SVG 1.1//EN" "http://www.w3.org/Graphics/SVG/1.1/DTD/svg11.dtd">
<svg version="1.1" xmlns="http://www.w3.org/2000/svg" xmlns:xlink="http://www.w3.org/1999/xlink" width="20" height="20" viewBox="0 0 20 20">
<path d="M0 3h20v12h-0.75q0-1.34-0.955-2.295t-2.295-0.955q-0.96 0-1.75 0.525t-1.19 1.385q-0.4-0.16-0.81-0.16-0.72 0-1.295 0.42t-0.815 1.080h-10.14v-12zM8.37 6.11q-0.1 0.24-0.11 0.47-0.020 0.27 0.010 0.5l0.020 0.080q0.030 0.16 0.050 0.23 0.020 0.080 0.1 0.31 0.030 0.11 0.15 0.33 0.090 0.15 0.23 0.31 0.13 0.15 0.31 0.23 0.18 0.090 0.4 0.090 0.21 0 0.39-0.090 0.16-0.080 0.3-0.22 0.12-0.12 0.22-0.32 0.090-0.15 0.16-0.33 0.060-0.15 0.090-0.31 0.020-0.070 0.030-0.15l0.020-0.070q0.010-0.040 0.010-0.090 0.070-0.41-0.040-0.82-0.1-0.38-0.41-0.66-0.32-0.27-0.79-0.27-0.29 0-0.52 0.1-0.24 0.11-0.38 0.28-0.12 0.15-0.24 0.4zM12.85 12.15v-1.14q0-0.49-0.29-0.98t-0.77-0.79q-0.47-0.31-1.020-0.31l-1.24 0.84-1.28-0.82q-0.56 0-1.040 0.3-0.47 0.3-0.74 0.77-0.27 0.48-0.27 0.99v1.14l0.18 0.050q0.010 0 0.51 0.14 0.4 0.090 0.74 0.15 0.31 0.060 0.91 0.13 0.57 0.050 0.99 0.050 0.4 0 0.98-0.050 0.58-0.070 0.89-0.13 0.22-0.030 0.76-0.16l0.5-0.12q0.11-0.030 0.19-0.060zM16 12.25q1.14 0 1.945 0.805t0.805 1.945-0.805 1.945-1.945 0.805q-1.070 0-1.87-0.77 0.37-0.56 0.37-1.23 0-0.57-0.265-1.065t-0.725-0.795q0.33-0.74 1-1.19t1.49-0.45zM10.5 15.75q0-0.72 0.515-1.235t1.235-0.515 1.235 0.515 0.515 1.235-0.515 1.235-1.235 0.515-1.235-0.515-0.515-1.235z" fill="#444444"></path>
</svg>
