<?xml version="1.0" encoding="utf-8"?>
<!-- Generated by IcoMoon.io -->
<!DOCTYPE svg PUBLIC "-//W3C//DTD SVG 1.1//EN" "http://www.w3.org/Graphics/SVG/1.1/DTD/svg11.dtd">
<svg version="1.1" xmlns="http://www.w3.org/2000/svg" xmlns:xlink="http://www.w3.org/1999/xlink" width="20" height="20" viewBox="0 0 20 20">
<g>
</g>
	<path d="M12 5v-3q0-0.41-0.295-0.705t-0.705-0.295h-2q-0.41 0-0.705 0.295t-0.295 0.705v3q0 0.41 0.295 0.705t0.705 0.295h2q0.41 0 0.705-0.295t0.295-0.705zM10 2q0.41 0 0.705 0.295t0.295 0.705-0.295 0.705-0.705 0.295-0.705-0.295-0.295-0.705 0.295-0.705 0.705-0.295zM18 15v-8q0-0.82-0.59-1.41t-1.41-0.59h-3v0.33q0 0.69-0.49 1.18t-1.18 0.49h-2.66q-0.69 0-1.18-0.49t-0.49-1.18v-0.33h-3q-0.82 0-1.41 0.59t-0.59 1.41v8q0 0.82 0.59 1.41t1.41 0.59h12q0.82 0 1.41-0.59t0.59-1.41zM17 9v6h-14v-6h14zM9 11q0-0.41-0.145-0.705t-0.355-0.295-0.355 0.295-0.145 0.705 0.145 0.705 0.355 0.295 0.355-0.295 0.145-0.705zM12 11q0-0.41-0.145-0.705t-0.355-0.295-0.355 0.295-0.145 0.705 0.145 0.705 0.355 0.295 0.355-0.295 0.145-0.705zM6.040 12.21q1.51 0.79 3.96 0.79t3.96-0.79q-0.16 0.76-1.29 1.275t-2.67 0.515-2.67-0.515-1.29-1.275z" fill="#000000"></path>
</svg>
