<?xml version="1.0" encoding="utf-8"?>
<!-- Generated by IcoMoon.io -->
<!DOCTYPE svg PUBLIC "-//W3C//DTD SVG 1.1//EN" "http://www.w3.org/Graphics/SVG/1.1/DTD/svg11.dtd">
<svg version="1.1" xmlns="http://www.w3.org/2000/svg" xmlns:xlink="http://www.w3.org/1999/xlink" width="20" height="20" viewBox="0 0 20 20">
<path d="M8.58 2.39q0.47 0 0.81 0.14 0.88 0.39 1.285 1.465t0.415 2.505q0.56-0.77 1.56-1.53t1.85-0.76q0.41 0 0.8 0.095t0.815 0.345 0.78 0.64 0.66 1.025 0.475 1.445q-1.63-0.94-3.65-0.94-1.98 0-3.29 0.89 0.58-0.16 1.33-0.16 1.11 0 2.075 0.345t1.325 0.965q0.34 0.58 0.385 1.405t-0.255 1.6-0.89 1.135q-0.070-1.040-0.555-1.99t-1.27-1.54-1.645-0.59q-0.67 0-1.33 0.38-1.090 0.66-1.84 2.145t-1.085 3.395-0.335 4.2h-5q0-1.6 0.465-3.13t1.24-2.735 1.775-2.22 2.070-1.685 2.13-1.020q-0.93-0.15-1.82-0.15-3.21 0-5.86 1.94 0.28-1.070 0.78-1.88t1.14-1.285 1.335-0.705 1.435-0.23q0.93 0 1.78 0.345t1.42 0.945q-0.24-0.8-0.685-1.385t-1.015-0.89-1.155-0.445-1.225-0.14q-1.13 0-2.050 0.35 0.66-0.93 2.15-1.61t2.67-0.68zM13 11.5q0-0.62-0.44-1.060t-1.060-0.44-1.060 0.44-0.44 1.060 0.44 1.060 1.060 0.44 1.060-0.44 0.44-1.060z"></path>
</svg>
