<?xml version="1.0" encoding="utf-8"?>
<!-- Generator: Adobe Illustrator 19.0.0, SVG Export Plug-In . SVG Version: 6.00 Build 0)  -->
<svg version="1.1" id="Layer_1" xmlns="http://www.w3.org/2000/svg" xmlns:xlink="http://www.w3.org/1999/xlink" x="0px" y="0px"
	 viewBox="-295 387 20 20" style="enable-background:new -295 387 20 20;" xml:space="preserve">
<path d="M-290,402v-10c0-0.6,0.4-1,1-1h1c0.6,0,1,0.4,1,1v10c0,0.6-0.4,1-1,1h-1C-289.6,403-290,402.6-290,402z M-282,391h1
	c0.6,0,1,0.4,1,1v10c0,0.6-0.4,1-1,1h-1c-0.6,0-1-0.4-1-1v-10C-283,391.4-282.6,391-282,391z"/>
</svg>
