<?xml version="1.0" encoding="utf-8"?>
<!-- Generated by IcoMoon.io -->
<!DOCTYPE svg PUBLIC "-//W3C//DTD SVG 1.1//EN" "http://www.w3.org/Graphics/SVG/1.1/DTD/svg11.dtd">
<svg version="1.1" xmlns="http://www.w3.org/2000/svg" xmlns:xlink="http://www.w3.org/1999/xlink" width="20" height="20" viewBox="0 0 20 20">
<path d="M3.8 16.5h12.5c1.1-1.4 1.8-3.1 1.8-5 0-4.4-3.6-8-8-8s-8 3.6-8 8c-0.1 1.9 0.6 3.6 1.7 5zM9 5.5c0-0.6 0.4-1 1-1s1 0.4 1 1c0 0.6-0.4 1-1 1s-1-0.4-1-1zM4 7.5c0-0.6 0.4-1 1-1s1 0.4 1 1c0 0.6-0.4 1-1 1s-1-0.4-1-1zM8.5 10.9c0.9-0.8 6.5-3.5 6.5-3.5s-2.7 5.7-3.5 6.5c-0.8 0.8-2.2 0.8-3 0s-0.8-2.2 0-3zM3 12.5c0-0.6 0.5-1 1-1s1 0.4 1 1c0 0.6-0.4 1-1 1s-1-0.4-1-1zM9 12.5c0-0.6 0.4-1 1-1s1 0.4 1 1c0 0.6-0.4 1-1 1s-1-0.4-1-1zM15 12.5c0-0.6 0.4-1 1-1 0.5 0 1 0.4 1 1s-0.5 1-1 1-1-0.4-1-1z"></path>
</svg>
