<?xml version="1.0" encoding="utf-8"?>
<!-- Generated by IcoMoon.io -->
<!DOCTYPE svg PUBLIC "-//W3C//DTD SVG 1.1//EN" "http://www.w3.org/Graphics/SVG/1.1/DTD/svg11.dtd">
<svg version="1.1" xmlns="http://www.w3.org/2000/svg" xmlns:xlink="http://www.w3.org/1999/xlink" width="20" height="20" viewBox="0 0 20 20">
<g>
</g>
	<path d="M3.76 17.010h12.48q1.76-2.21 1.76-5.010 0-1.62-0.635-3.105t-1.705-2.555-2.55-1.705-3.11-0.635-3.11 0.635-2.55 1.705-1.705 2.555-0.635 3.105q0 2.8 1.76 5.010zM9 6q0-0.41 0.295-0.705t0.705-0.295 0.705 0.295 0.295 0.705q0 0.42-0.295 0.71t-0.705 0.29-0.705-0.29-0.295-0.71zM4 8q0-0.41 0.295-0.705t0.705-0.295 0.705 0.295 0.295 0.705q0 0.42-0.295 0.71t-0.705 0.29-0.705-0.29-0.295-0.71zM8.52 11.4q0.37-0.37 2-1.245t3.070-1.565l1.44-0.69q-0.3 0.64-0.765 1.605t-1.41 2.75-1.315 2.155q-0.63 0.63-1.51 0.63t-1.51-0.63q-0.62-0.62-0.62-1.505t0.62-1.505zM3 13q0-0.41 0.295-0.705t0.705-0.295 0.705 0.295 0.295 0.705q0 0.42-0.295 0.71t-0.705 0.29-0.705-0.29-0.295-0.71zM9 13q0-0.41 0.295-0.705t0.705-0.295 0.705 0.295 0.295 0.705q0 0.42-0.295 0.71t-0.705 0.29-0.705-0.29-0.295-0.71zM15 13q0-0.41 0.295-0.705t0.705-0.295 0.705 0.295 0.295 0.705q0 0.42-0.295 0.71t-0.705 0.29-0.705-0.29-0.295-0.71z" fill="#000000"></path>
</svg>
