<?xml version="1.0" encoding="utf-8"?>
<!-- Generator: Adobe Illustrator 19.0.0, SVG Export Plug-In . SVG Version: 6.00 Build 0)  -->
<svg version="1.1" id="Layer_1" xmlns="http://www.w3.org/2000/svg" xmlns:xlink="http://www.w3.org/1999/xlink" x="0px" y="0px"
	 viewBox="-295 387 20 20" style="enable-background:new -295 387 20 20;" xml:space="preserve">
<path d="M-282.9,393l-0.2-0.2c-0.2-0.2-0.3-0.3-0.3-0.5c0-0.1,0-0.3,0-0.4c0.1-0.1,0.2-0.3,0.4-0.5l2.7-2.8c0.1-0.1,0.2-0.2,0.3-0.3
	c0.1-0.1,0.2-0.2,0.2-0.2s0.1-0.1,0.2-0.2c0.1-0.1,0.1-0.1,0.2-0.1c0,0,0.1,0,0.2,0c0.1,0,0.1,0,0.2,0c0.1,0,0.1,0.1,0.2,0.1
	c0.1,0.1,0.2,0.1,0.3,0.2l0.2,0.2L-282.9,393z M-282.4,393.5l4.4-4.4c0.1,0.2,0.3,0.4,0.4,0.6c0.1,0.2,0.3,0.5,0.5,0.8
	s0.3,0.6,0.5,1c0.1,0.3,0.2,0.7,0.3,1c0.1,0.3,0.1,0.7,0.1,1c0,0.4-0.1,0.7-0.2,1c-0.2,0.5-0.4,0.9-0.6,1.2s-0.4,0.6-0.7,0.9
	c-0.3,0.3-0.5,0.6-0.7,0.9c-1.5,1.7-3.5,3.7-6,6.1c-0.3,0.2-0.6,0.4-0.9,0.7s-0.6,0.5-0.9,0.7c-0.3,0.2-0.7,0.4-1.2,0.6
	c-0.3,0.1-0.6,0.2-0.9,0.2c-0.3,0-0.7,0-1-0.1c-0.3-0.1-0.7-0.2-1-0.3c-0.3-0.1-0.6-0.3-1-0.4s-0.6-0.3-0.8-0.5
	c-0.2-0.1-0.4-0.3-0.6-0.4l4.4-4.4l1.2,1.6c0.1,0.2,0.3,0.2,0.5,0.2c0.2,0,0.4-0.1,0.7-0.3c0.2-0.1,0.4-0.3,0.7-0.5
	c0.2-0.2,0.5-0.5,0.9-0.9c0.5-0.5,0.9-0.9,1.2-1.2s0.7-0.7,1-1.1c0.4-0.4,0.7-0.7,0.8-0.9c0.2-0.2,0.4-0.4,0.5-0.6
	c0.1-0.2,0.2-0.4,0.3-0.7c0-0.2,0-0.4-0.2-0.5L-282.4,393.5z M-293.4,403.5l-0.2-0.2c-0.1-0.1-0.2-0.2-0.2-0.3
	c-0.1-0.1-0.1-0.2-0.1-0.2c0-0.1,0-0.1,0-0.2s0-0.1,0.1-0.2c0.1-0.1,0.1-0.2,0.2-0.2c0,0,0.1-0.1,0.3-0.3c0.1-0.1,0.2-0.2,0.3-0.3
	l2.7-2.7c0.3-0.3,0.5-0.4,0.6-0.4c0.1,0,0.4,0.1,0.6,0.3l0.2,0.2L-293.4,403.5z"/>
</svg>
