<?xml version="1.0" encoding="utf-8"?>
<!-- Generated by IcoMoon.io -->
<!DOCTYPE svg PUBLIC "-//W3C//DTD SVG 1.1//EN" "http://www.w3.org/Graphics/SVG/1.1/DTD/svg11.dtd">
<svg version="1.1" xmlns="http://www.w3.org/2000/svg" xmlns:xlink="http://www.w3.org/1999/xlink" width="20" height="20" viewBox="0 0 20 20">
<path d="M12.060 6l-0.21-0.2q-0.26-0.27-0.32-0.47t0.035-0.38 0.365-0.45l2.72-2.75q0.11-0.11 0.275-0.285t0.235-0.245 0.19-0.175 0.185-0.12 0.17-0.035 0.195 0.030 0.21 0.13 0.27 0.22l0.21 0.2zM12.59 6.45l4.4-4.4q0.21 0.28 0.415 0.595t0.47 0.78 0.45 0.95 0.31 1 0.1 1.040-0.215 0.975q-0.33 0.76-0.59 1.175t-0.695 0.93-0.715 0.895q-2.26 2.57-6 6.070-0.41 0.29-0.9 0.725t-0.915 0.705-1.185 0.57q-0.43 0.17-0.95 0.18t-1.035-0.125-1.005-0.315-0.97-0.445-0.8-0.455-0.62-0.4l4.4-4.4 1.18 1.62q0.16 0.23 0.485 0.165t0.66-0.285 0.655-0.54q0.23-0.23 0.925-0.93t1.18-1.185 1.045-1.065 0.85-0.89q0.32-0.32 0.535-0.65t0.29-0.655-0.165-0.495zM1.57 16.5l-0.21-0.21q-0.15-0.16-0.235-0.28t-0.095-0.245-0.010-0.195 0.11-0.21 0.17-0.205 0.27-0.265 0.31-0.3l2.74-2.72q0.41-0.39 0.635-0.425t0.635 0.315l0.2 0.21z" fill="#444444"></path>
</svg>
