<?xml version="1.0" encoding="utf-8"?>
<!-- Generated by IcoMoon.io -->
<!DOCTYPE svg PUBLIC "-//W3C//DTD SVG 1.1//EN" "http://www.w3.org/Graphics/SVG/1.1/DTD/svg11.dtd">
<svg version="1.1" xmlns="http://www.w3.org/2000/svg" xmlns:xlink="http://www.w3.org/1999/xlink" width="20" height="20" viewBox="0 0 20 20">
<g>
</g>
	<path d="M17 3v-2h-15v2h15zM17 7v-2h-15v2h15zM10 11v-2h-8v2h8zM17.45 9.040l-6 1.12q-0.18 0.020-0.29 0.13-0.16 0.13-0.16 0.37v4.59q-0.31-0.14-0.93-0.14-0.81 0-1.38 0.57-0.56 0.56-0.56 1.38 0 0.81 0.56 1.37 0.57 0.57 1.38 0.57 0.73 0 1.29-0.48 0.56-0.49 0.65-1.19v-4.95l4.99-1.11v3.48q-0.42-0.19-0.83-0.19-0.92 0-1.49 0.57-0.57 0.56-0.57 1.37 0 0.8 0.57 1.37t1.38 0.57q0.8 0 1.37-0.57t0.57-1.37v-6.9q0-0.25-0.16-0.41-0.16-0.18-0.39-0.15zM8 15v-2h-6v2h6zM6 19v-2h-4v2h4z" fill="#000000"></path>
</svg>
