<?xml version="1.0" encoding="utf-8"?>
<!-- Generator: Adobe Illustrator 19.0.0, SVG Export Plug-In . SVG Version: 6.00 Build 0)  -->
<svg version="1.1" id="Layer_1" xmlns="http://www.w3.org/2000/svg" xmlns:xlink="http://www.w3.org/1999/xlink" x="0px" y="0px"
	 viewBox="-295 387 20 20" style="enable-background:new -295 387 20 20;" xml:space="preserve">
<path d="M-278,389L-278,389c0-0.6-0.4-1-1-1h-13c-0.6,0-1,0.4-1,1l0,0c0,0.6,0.4,1,1,1h13C-278.4,390-278,389.6-278,389z M-278,393
	L-278,393c0-0.6-0.4-1-1-1h-13c-0.6,0-1,0.4-1,1l0,0c0,0.6,0.4,1,1,1h13C-278.4,394-278,393.6-278,393z M-289,397L-289,397
	c0-0.6-0.4-1-1-1h-2c-0.6,0-1,0.4-1,1l0,0c0,0.6,0.4,1,1,1h2C-289.4,398-289,397.6-289,397z M-287,396h9c0.3,0,0.5,0.1,0.7,0.3
	c0.2,0.2,0.3,0.4,0.3,0.7v8c0,0.3-0.1,0.5-0.3,0.7c-0.2,0.2-0.4,0.3-0.7,0.3h-9c-0.3,0-0.5-0.1-0.7-0.3c-0.2-0.2-0.3-0.4-0.3-0.7v-8
	c0-0.3,0.1-0.5,0.3-0.7C-287.5,396.1-287.3,396-287,396z M-284,403l3.3-2l-3.3-2V403z M-289,401L-289,401c0-0.6-0.4-1-1-1h-2
	c-0.6,0-1,0.4-1,1l0,0c0,0.6,0.4,1,1,1h2C-289.4,402-289,401.6-289,401z M-289,405L-289,405c0-0.6-0.4-1-1-1h-2c-0.6,0-1,0.4-1,1
	l0,0c0,0.6,0.4,1,1,1h2C-289.4,406-289,405.6-289,405z"/>
</svg>
