<?xml version="1.0" encoding="utf-8"?>
<!-- Generator: Adobe Illustrator 19.0.0, SVG Export Plug-In . SVG Version: 6.00 Build 0)  -->
<svg version="1.1" id="Layer_1" xmlns="http://www.w3.org/2000/svg" xmlns:xlink="http://www.w3.org/1999/xlink" x="0px" y="0px"
	 viewBox="-295 387 20 20" style="enable-background:new -295 387 20 20;" xml:space="preserve">
<path d="M-278,389L-278,389c0-0.6-0.4-1-1-1h-13c-0.6,0-1,0.4-1,1l0,0c0,0.6,0.4,1,1,1h13C-278.4,390-278,389.6-278,389z M-278,393
	L-278,393c0-0.6-0.4-1-1-1h-13c-0.6,0-1,0.4-1,1l0,0c0,0.6,0.4,1,1,1h13C-278.4,394-278,393.6-278,393z M-285,397L-285,397
	c0-0.6-0.4-1-1-1h-6c-0.6,0-1,0.4-1,1l0,0c0,0.6,0.4,1,1,1h6C-285.4,398-285,397.6-285,397z M-277.5,396l-6,1.1
	c-0.1,0-0.2,0.1-0.3,0.1c-0.1,0.1-0.2,0.2-0.2,0.4v4.6c-0.2-0.1-0.5-0.1-0.9-0.1c-0.5,0-1,0.2-1.4,0.6c-0.4,0.4-0.6,0.8-0.6,1.4
	c0,0.5,0.2,1,0.6,1.4c0.4,0.4,0.8,0.6,1.4,0.6c0.5,0,0.9-0.2,1.3-0.5c0.4-0.3,0.6-0.7,0.7-1.2v-4.9l5-1.1v3.5
	c-0.3-0.1-0.6-0.2-0.8-0.2c-0.6,0-1.1,0.2-1.5,0.6c-0.4,0.4-0.6,0.8-0.6,1.4c0,0.5,0.2,1,0.6,1.4s0.8,0.6,1.4,0.6
	c0.5,0,1-0.2,1.4-0.6s0.6-0.8,0.6-1.4v-6.9c0-0.2-0.1-0.3-0.2-0.4C-277.3,396.1-277.4,396-277.5,396z M-287,401L-287,401
	c0-0.6-0.4-1-1-1h-4c-0.6,0-1,0.4-1,1l0,0c0,0.6,0.4,1,1,1h4C-287.4,402-287,401.6-287,401z M-289,405L-289,405c0-0.6-0.4-1-1-1h-2
	c-0.6,0-1,0.4-1,1l0,0c0,0.6,0.4,1,1,1h2C-289.4,406-289,405.6-289,405z"/>
</svg>
