<?xml version="1.0" encoding="utf-8"?>
<!-- Generated by IcoMoon.io -->
<!DOCTYPE svg PUBLIC "-//W3C//DTD SVG 1.1//EN" "http://www.w3.org/Graphics/SVG/1.1/DTD/svg11.dtd">
<svg version="1.1" xmlns="http://www.w3.org/2000/svg" xmlns:xlink="http://www.w3.org/1999/xlink" width="20" height="20" viewBox="0 0 20 20">
<g>
</g>
	<path d="M4 5h-3.22q-0.3 0-0.515 0.235t-0.175 0.605l1.56 9.99q1.85-7.36 2.21-9.13 0.080-0.36 0.365-0.53t0.615-0.17h5.16q-0.7-2.080-0.77-2.31-0.19-0.69-0.78-0.69h-3.31q-0.28 0-0.505 0.17t-0.295 0.47zM8.88 5h-4q0.020-0.040 0.050-0.11t0.125-0.24 0.195-0.3 0.235-0.24 0.265-0.11h2.13q0.21 0 0.46 0.25t0.4 0.5zM2.67 16.25q-0.49 0.75-1.26 0.75h15.73q0.4 0 0.675-0.22t0.355-0.61l1.68-8.44q0.050-0.35-0.15-0.54t-0.47-0.19h-3.23v-1.47q0-0.15-0.195-0.34t-0.465-0.19h-3.76q-0.23 0-0.45 0.145t-0.32 0.295l-0.1 0.14-0.71 1.42h-4.41q-0.25 0-0.45 0.135t-0.24 0.365q-1.59 6.7-1.72 7.33-0.17 0.92-0.51 1.42zM15.38 7h-4.38q0.020-0.040 0.065-0.11t0.175-0.24 0.255-0.3 0.305-0.24 0.33-0.11h2.29q0.2 0 0.37 0.105t0.275 0.25 0.18 0.29 0.105 0.255z" fill="#000000"></path>
</svg>
