<?xml version="1.0" encoding="utf-8"?>
<!-- Generator: Adobe Illustrator 17.0.0, SVG Export Plug-In . SVG Version: 6.00 Build 0)  -->
<!DOCTYPE svg PUBLIC "-//W3C//DTD SVG 1.1//EN" "http://www.w3.org/Graphics/SVG/1.1/DTD/svg11.dtd">
<svg version="1.1" id="Layer_1" xmlns="http://www.w3.org/2000/svg" xmlns:xlink="http://www.w3.org/1999/xlink" x="0px" y="0px"
	 width="20px" height="20px" viewBox="0.5 820.5 20 20" enable-background="new 0.5 820.5 20 20" xml:space="preserve">
<path d="M1.5,821.5v18h12l6-6v-12H1.5z M13.246,830.247l-0.609,0.609c-0.368,0.374-0.578,0.822-0.63,1.344
	c-0.051,0.523,0.064,0.998,0.345,1.426l-1.487,1.479l-1.958-1.958l-2.275,2.267c-0.292,0.292-0.844,0.712-1.653,1.259
	c-0.81,0.547-1.288,0.747-1.434,0.601c-0.146-0.146,0.054-0.627,0.601-1.442c0.547-0.815,0.964-1.366,1.251-1.653l2.267-2.267
	l-1.958-1.966l1.487-1.479c0.422,0.282,0.896,0.397,1.422,0.345s0.972-0.264,1.34-0.638l0.609-0.609
	c0.374-0.368,0.586-0.815,0.638-1.34c0.051-0.525-0.064-1.002-0.345-1.43l1.479-1.479l5.167,5.159l-1.487,1.479
	c-0.422-0.282-0.896-0.397-1.422-0.345C14.069,829.66,13.62,829.873,13.246,830.247z M13.5,838v-4.5H18L13.5,838z"/>
</svg>
