<?xml version="1.0" encoding="utf-8"?>
<!-- Generator: Adobe Illustrator 19.0.0, SVG Export Plug-In . SVG Version: 6.00 Build 0)  -->
<svg version="1.1" id="Layer_1" xmlns="http://www.w3.org/2000/svg" xmlns:xlink="http://www.w3.org/1999/xlink" x="0px" y="0px"
	 viewBox="-295 387 20 20" style="enable-background:new -295 387 20 20;" xml:space="preserve">
<path d="M-280.2,388c0.9,0,1.7,0.3,2.3,1c0.6,0.6,1,1.4,1,2.3c0,0.9-0.3,1.7-1,2.3c-0.6,0.6-1.4,0.9-2.3,0.9c-0.2,0-0.5,0-0.7-0.1
	l-1.1,1.1v9.5c0,0.6-0.4,1-1,1h-9c-0.6,0-1-0.4-1-1v-13c0-0.6,0.4-1,1-1h8.5c0.1-1,0.4-1.7,1-2.2S-281.1,388-280.2,388z
	 M-280.2,393.5c0.6,0,1.1-0.2,1.6-0.7c0.4-0.4,0.7-1,0.7-1.6c0-0.6-0.2-1.1-0.7-1.6s-1-0.7-1.6-0.7s-1.1,0.2-1.6,0.7
	c-0.4,0.4-0.7,1-0.7,1.6c0,0.4,0.1,0.7,0.3,1l-3.2,3.2c-0.2,0.2-0.6,0.7-1,1.3c-0.4,0.7-0.6,1-0.5,1.2c0,0,0.1,0,0.1,0
	c0.2,0,0.6-0.2,1.2-0.6s1-0.7,1.2-0.9l3.2-3.2C-280.9,393.4-280.6,393.5-280.2,393.5z"/>
</svg>
