<?xml version="1.0" encoding="utf-8"?>
<!-- Generated by IcoMoon.io -->
<!DOCTYPE svg PUBLIC "-//W3C//DTD SVG 1.1//EN" "http://www.w3.org/Graphics/SVG/1.1/DTD/svg11.dtd">
<svg version="1.1" xmlns="http://www.w3.org/2000/svg" xmlns:xlink="http://www.w3.org/1999/xlink" width="20" height="20" viewBox="0 0 20 20">
<g>
</g>
	<path d="M14.76 1q1.34 0 2.29 0.955t0.95 2.295-0.95 2.29-2.29 0.95q-0.33 0-0.7-0.080l-1.060 1.060v10.53h-11v-15h9.54q0.090-1.45 0.99-2.225t2.23-0.775zM14.76 6.49q0.93 0 1.585-0.66t0.655-1.58q0-0.93-0.655-1.59t-1.585-0.66-1.585 0.66-0.655 1.59q0 0.54 0.27 1.030l-3.22 3.22q-0.35 0.35-1.015 1.33t-0.485 1.16q0.030 0.040 0.1 0.040 0.32 0 1.205-0.615t1.185-0.915l3.24-3.24q0.48 0.23 0.96 0.23z" fill="#000000"></path>
</svg>
