<?xml version="1.0" encoding="utf-8"?>
<!-- Generator: Adobe Illustrator 19.0.0, SVG Export Plug-In . SVG Version: 6.00 Build 0)  -->
<svg version="1.1" id="Layer_1" xmlns="http://www.w3.org/2000/svg" xmlns:xlink="http://www.w3.org/1999/xlink" x="0px" y="0px"
	 viewBox="-295 387 20 20" style="enable-background:new -295 387 20 20;" xml:space="preserve">
<path d="M-278,395h1v10c0,0.6-0.4,1-1,1h-14c-0.6,0-1-0.4-1-1v-10h1v-2c0-0.9,0.2-1.7,0.7-2.5c0.4-0.8,1.1-1.4,1.8-1.8
	c0.8-0.4,1.6-0.7,2.5-0.7c0.7,0,1.4,0.1,2,0.4c0.6-0.3,1.3-0.4,2-0.4c0.9,0,1.7,0.2,2.5,0.7c0.8,0.4,1.4,1.1,1.8,1.8
	c0.4,0.8,0.7,1.6,0.7,2.5V395z M-290,393v2h2v-2c0-1.1,0.3-2.1,1-3h0c-0.8,0-1.5,0.3-2.1,0.9S-290,392.2-290,393z M-280,395v-2
	c0-0.8-0.3-1.5-0.9-2.1s-1.3-0.9-2.1-0.9h0c0.7,0.9,1,1.9,1,3v2H-280z M-285,390.8c-0.7,0.6-1,1.3-1,2.2v2h2v-2
	C-284,392.1-284.3,391.4-285,390.8z"/>
</svg>
