<?xml version="1.0" encoding="utf-8"?>
<!-- Generated by IcoMoon.io -->
<!DOCTYPE svg PUBLIC "-//W3C//DTD SVG 1.1//EN" "http://www.w3.org/Graphics/SVG/1.1/DTD/svg11.dtd">
<svg version="1.1" xmlns="http://www.w3.org/2000/svg" xmlns:xlink="http://www.w3.org/1999/xlink" width="20" height="20" viewBox="0 0 20 20">
<g>
</g>
	<path d="M17 8h1v11h-16v-11h1v-2q0-1.36 0.67-2.51t1.82-1.82 2.51-0.67q1.050 0 2 0.42 0.95-0.42 2-0.42 1.36 0 2.51 0.67t1.82 1.82 0.67 2.51v2zM5 6v2h2v-2q0-1.64 1.020-3h-0.020q-1.24 0-2.12 0.88t-0.88 2.12zM15 8v-2q0-1.24-0.88-2.12t-2.12-0.88h-0.020q1.020 1.36 1.020 3v2h2zM10 3.78q-1 0.9-1 2.22v2h2v-2q0-1.32-1-2.22z" fill="#000000"></path>
</svg>
