<?xml version="1.0" encoding="utf-8"?>
<!-- Generated by IcoMoon.io -->
<!DOCTYPE svg PUBLIC "-//W3C//DTD SVG 1.1//EN" "http://www.w3.org/Graphics/SVG/1.1/DTD/svg11.dtd">
<svg version="1.1" xmlns="http://www.w3.org/2000/svg" xmlns:xlink="http://www.w3.org/1999/xlink" width="20" height="20" viewBox="0 0 20 20">
<path d="M2.8 10.6c0.5-1.2 1.2-2.2 2.1-3.1s2-1.6 3.2-2.2 2.5-0.8 3.9-0.8v-3l6 4.5-6 4.5v-3c-1 0-1.9 0.2-2.7 0.6-0.8 0.3-1.6 0.9-2.2 1.5s-1.2 1.4-1.5 2.2c-0.4 0.9-0.6 1.8-0.6 2.8s0.2 1.9 0.6 2.7l-2.8 1.2c-0.5-1.3-0.8-2.6-0.8-3.9s0.3-2.7 0.8-4z"></path>
</svg>
