<?xml version="1.0" encoding="utf-8"?>
<!-- Generated by IcoMoon.io -->
<!DOCTYPE svg PUBLIC "-//W3C//DTD SVG 1.1//EN" "http://www.w3.org/Graphics/SVG/1.1/DTD/svg11.dtd">
<svg version="1.1" xmlns="http://www.w3.org/2000/svg" xmlns:xlink="http://www.w3.org/1999/xlink" width="20" height="20" viewBox="0 0 20 20">
<g>
</g>
	<path d="M14.92 18h3.080q0-2.14-0.575-4.18t-1.61-3.765-2.51-3.18-3.23-2.475-3.83-1.585-4.245-0.565v3.020q2.1 0 4.070 0.645t3.56 1.82 2.785 2.74 1.85 3.51 0.655 4.015zM9.48 18h3.080q0-2.11-0.84-4.035t-2.255-3.32-3.37-2.22-4.095-0.825v3.020q1.5 0 2.86 0.56t2.43 1.6q1.060 1.040 1.625 2.39t0.565 2.83zM4.13 17.98q0.88 0 1.505-0.61t0.625-1.48q0-0.86-0.625-1.475t-1.505-0.615-1.505 0.615-0.625 1.475q0 0.87 0.62 1.48t1.51 0.61z" fill="#000000"></path>
</svg>
