<?xml version="1.0" encoding="utf-8"?>
<!-- Generated by IcoMoon.io -->
<!DOCTYPE svg PUBLIC "-//W3C//DTD SVG 1.1//EN" "http://www.w3.org/Graphics/SVG/1.1/DTD/svg11.dtd">
<svg version="1.1" xmlns="http://www.w3.org/2000/svg" xmlns:xlink="http://www.w3.org/1999/xlink" width="20" height="20" viewBox="0 0 20 20">
<g>
</g>
	<path d="M14.5 12q1.24 0 2.12 0.88t0.88 2.12-0.88 2.12-2.12 0.88-2.12-0.88-0.88-2.12q0-0.34 0.090-0.69l-4.38-2.3q-0.89 0.99-2.21 0.99-1.24 0-2.12-0.88t-0.88-2.12 0.88-2.12 2.12-0.88q1.3 0 2.21 0.99l4.38-2.3q-0.090-0.35-0.090-0.69 0-1.24 0.88-2.12t2.12-0.88 2.12 0.88 0.88 2.12-0.88 2.12-2.12 0.88q-1.3 0-2.21-0.99l-4.38 2.3q0.090 0.35 0.090 0.69t-0.090 0.69l4.38 2.3q0.89-0.99 2.21-0.99z" fill="#000000"></path>
</svg>
