<?xml version="1.0" encoding="utf-8"?>
<!-- Generator: Adobe Illustrator 19.0.0, SVG Export Plug-In . SVG Version: 6.00 Build 0)  -->
<svg version="1.1" id="Layer_1" xmlns="http://www.w3.org/2000/svg" xmlns:xlink="http://www.w3.org/1999/xlink" x="0px" y="0px"
	 viewBox="-295 387 20 20" style="enable-background:new -295 387 20 20;" xml:space="preserve">
<path d="M-277,395l-5,4v-3c-0.6,0-1.1,0-1.5,0.1s-0.9,0.1-1.4,0.3c-0.5,0.1-1,0.3-1.4,0.5c-0.4,0.2-0.9,0.5-1.3,0.9
	s-0.9,0.8-1.3,1.3c0.1-1.8,0.8-3.2,2-4.2c1.2-1,2.9-1.6,5-1.7V390L-277,395z M-291,401h11v-2l2-1.6v4.6c0,0.6-0.4,1-1,1h-13
	c-0.6,0-1-0.4-1-1v-9c0-0.6,0.4-1,1-1h8.4c-1.8,0.3-3.3,1-4.4,2h-3V401z"/>
</svg>
