<?xml version="1.0" encoding="utf-8"?>
<!-- Generated by IcoMoon.io -->
<!DOCTYPE svg PUBLIC "-//W3C//DTD SVG 1.1//EN" "http://www.w3.org/Graphics/SVG/1.1/DTD/svg11.dtd">
<svg version="1.1" xmlns="http://www.w3.org/2000/svg" xmlns:xlink="http://www.w3.org/1999/xlink" width="20" height="20" viewBox="0 0 20 20">
<g>
</g>
	<path d="M16.22 5.8q0.35 0.52 0.235 1.125t-0.635 0.955-1.125 0.235-0.955-0.635q-0.21-0.31-0.55-0.67-0.36-0.34-0.67-0.55-0.37-0.25-0.77-0.41-0.42-0.19-0.84-0.26-0.9-0.2-1.82-0.010-0.43 0.090-0.84 0.27-0.4 0.16-0.77 0.41-0.33 0.22-0.66 0.55-0.34 0.34-0.56 0.67-0.24 0.36-0.41 0.76-0.010 0.020-0.010 0.040-0.12 0.3-0.23 0.72h-4.61v-3h2.66q0.090-0.16 0.12-0.2 0.42-0.62 0.91-1.11 0.51-0.51 1.11-0.91 0.63-0.43 1.28-0.7 0.71-0.3 1.41-0.43 1.51-0.32 3.020 0 0.7 0.13 1.41 0.43 0.65 0.27 1.28 0.7 0.6 0.4 1.11 0.91 0.49 0.49 0.91 1.11zM12.5 10q0-1.040-0.73-1.77t-1.77-0.73-1.77 0.73-0.73 1.77 0.73 1.77 1.77 0.73 1.77-0.73 0.73-1.77zM3.78 14.2q-0.35-0.52-0.235-1.13t0.635-0.96 1.13-0.23 0.95 0.64q0.21 0.31 0.55 0.67 0.36 0.34 0.67 0.55 0.37 0.25 0.77 0.41 0.36 0.16 0.84 0.26 0.87 0.19 1.82 0 0.48-0.1 0.84-0.26 0.4-0.16 0.77-0.41 0.33-0.22 0.66-0.55 0.31-0.31 0.56-0.67 0.26-0.41 0.41-0.76 0.010-0.020 0.010-0.040 0.12-0.3 0.23-0.72h4.61v3h-2.66q-0.020 0.020-0.055 0.090t-0.065 0.11q-0.42 0.62-0.91 1.11-0.51 0.51-1.11 0.91-0.63 0.43-1.28 0.7-0.64 0.27-1.41 0.43-1.51 0.32-3.020 0-0.77-0.16-1.41-0.43-0.65-0.27-1.28-0.7-0.6-0.4-1.11-0.91-0.49-0.49-0.91-1.11z" fill="#000000"></path>
</svg>
