<?xml version="1.0" encoding="utf-8"?>
<!-- Generator: Adobe Illustrator 19.2.0, SVG Export Plug-In . SVG Version: 6.00 Build 0)  -->
<svg version="1.1" id="Layer_1" xmlns="http://www.w3.org/2000/svg" xmlns:xlink="http://www.w3.org/1999/xlink" x="0px" y="0px"
	 viewBox="0 0 20 20" style="enable-background:new 0 0 20 20;" xml:space="preserve">
<path d="M18.9,10.7c-0.3-0.8-1.2-1.3-2-1l-1.6,0.5l0,0l0,0c-0.4-1.1-0.7-2.3-1.1-3.4c1-0.3,1.6-0.5,1.6-0.5c0.8-0.3,1.3-1.2,1-2
	s-1.2-1.3-2-1l-1.6,0.5l0,0c-0.3-1-0.5-1.6-0.5-1.6c-0.3-0.8-1.2-1.3-2-1s-1.3,1.2-1,2l0.5,1.6l0,0l0,0l-3.4,1
	c-0.3-1-0.5-1.6-0.5-1.6c-0.3-0.8-1.2-1.3-2-1s-1.3,1.2-1,2l0.5,1.6l0,0L2,7.3c-0.8,0.3-1.2,1.1-1,2s1.1,1.4,2,1.1
	c0,0,0.7-0.2,1.7-0.5l1.1,3.4l-1.7,0.5c-0.8,0.3-1.2,1.1-1,2s1.2,1.4,2,1.1c0,0,0.7-0.2,1.7-0.5L7.3,18c0.3,0.8,1.1,1.2,2,1
	s1.4-1.1,1.1-2c0,0-0.2-0.7-0.5-1.7c1.1-0.4,2.3-0.7,3.4-1.1l0.5,1.7c0.3,0.8,1.1,1.2,2,1s1.4-1.2,1.1-2c0,0-0.2-0.7-0.5-1.7
	c1-0.3,1.6-0.5,1.6-0.5C18.7,12.4,19.2,11.5,18.9,10.7z M8.9,12.2C8.5,11.1,8.1,10,7.8,8.9c1.1-0.4,2.3-0.7,3.4-1.1l0,0l1.1,3.4
	L8.9,12.2z"/>
</svg>
