<?xml version="1.0" encoding="utf-8"?>
<!-- Generated by IcoMoon.io -->
<!DOCTYPE svg PUBLIC "-//W3C//DTD SVG 1.1//EN" "http://www.w3.org/Graphics/SVG/1.1/DTD/svg11.dtd">
<svg version="1.1" xmlns="http://www.w3.org/2000/svg" xmlns:xlink="http://www.w3.org/1999/xlink" width="20" height="20" viewBox="0 0 20 20">
<path d="M7 3.2c1.1 0 2 0.9 2 2 0 0.4-0.1 0.7-0.3 1 0 0-0.7-0.2-1.7-0.2s-1.7 0.2-1.7 0.2c-0.2-0.3-0.3-0.7-0.3-1 0-1.2 0.9-2 2-2zM13 3.2c1.1 0 2 0.9 2 2 0 0.4-0.1 0.7-0.3 1 0 0-0.7-0.2-1.7-0.2s-1.7 0.2-1.7 0.2c-0.2-0.3-0.3-0.6-0.3-1 0-1.2 0.9-2 2-2zM10 16.9c3.7 0 7-2.4 8.2-5.9l-1.3-0.5c-1 3-3.8 4.9-6.9 4.9s-5.9-2-6.9-4.9l-1.3 0.5c1.2 3.5 4.5 5.9 8.2 5.9z"></path>
</svg>
