<?xml version="1.0" encoding="utf-8"?>
<!-- Generated by IcoMoon.io -->
<!DOCTYPE svg PUBLIC "-//W3C//DTD SVG 1.1//EN" "http://www.w3.org/Graphics/SVG/1.1/DTD/svg11.dtd">
<svg version="1.1" xmlns="http://www.w3.org/2000/svg" xmlns:xlink="http://www.w3.org/1999/xlink" width="20" height="20" viewBox="0 0 20 20">
<g>
</g>
	<path d="M7 5.2q0.83 0 1.415 0.585t0.585 1.415q0 0.52-0.28 1-0.72-0.2-1.72-0.2-0.44 0-0.87 0.050t-0.64 0.1l-0.21 0.050q-0.28-0.48-0.28-1 0-0.83 0.585-1.415t1.415-0.585zM13 5.2q0.83 0 1.415 0.585t0.585 1.415q0 0.52-0.28 1-0.72-0.2-1.72-0.2-0.44 0-0.87 0.050t-0.64 0.1l-0.21 0.050q-0.28-0.48-0.28-1 0-0.83 0.585-1.415t1.415-0.585zM10 18.9q2.79 0 5.060-1.62t3.17-4.26l-1.32-0.46q-0.76 2.22-2.665 3.58t-4.245 1.36-4.245-1.36-2.665-3.58l-1.32 0.46q0.9 2.64 3.17 4.26t5.060 1.62z" fill="#000000"></path>
</svg>
