<?xml version="1.0" encoding="utf-8"?>
<!-- Generated by IcoMoon.io -->
<!DOCTYPE svg PUBLIC "-//W3C//DTD SVG 1.1//EN" "http://www.w3.org/Graphics/SVG/1.1/DTD/svg11.dtd">
<svg version="1.1" xmlns="http://www.w3.org/2000/svg" xmlns:xlink="http://www.w3.org/1999/xlink" width="20" height="20" viewBox="0 0 20 20">
<path d="M1.5 10.5c0.4 0.3 0.9 0.4 1.4 0.4s1-0.1 1.4-0.4c0.6-0.5 1-1.1 1-1.9 0 0.8 0.3 1.5 0.9 1.9 0.4 0.3 0.9 0.4 1.4 0.4s1-0.1 1.4-0.4c0.6-0.5 1-1.1 1-1.9 0 0.8 0.3 1.5 0.9 1.9 0.4 0.3 0.9 0.4 1.4 0.4s1-0.1 1.4-0.4c0.6-0.4 0.9-1.1 0.9-1.9 0 0.8 0.3 1.5 0.9 1.9 0.4 0.3 0.9 0.4 1.4 0.4s1-0.1 1.4-0.4c0.6-0.4 0.9-1.1 0.9-1.9v-1l-2.6-6.6h-12.3l-3.7 6.6v0.9c0 0.9 0.3 1.5 0.9 2zM3.4 19h4.7v-4.7h3.8v4.7h4.7v-6.6c-0.3 0-0.7-0.2-0.9-0.4-0.6-0.4-0.9-0.7-0.9-1.5 0 0.8-0.4 1-0.9 1.5-0.4 0.3-0.9 0.4-1.4 0.4s-1-0.1-1.4-0.4c-0.6-0.4-0.9-0.7-0.9-1.5 0 0.8-0.4 1-0.9 1.5-0.4 0.3-0.9 0.4-1.4 0.4s-1-0.1-1.4-0.4c-0.6-0.4-0.9-0.7-0.9-1.5 0 0.8-0.4 1.1-0.9 1.5-0.3 0.2-0.6 0.4-0.9 0.4-0.4 0-0.4 6.6-0.4 6.6z"></path>
</svg>
