<?xml version="1.0" encoding="utf-8"?>
<!-- Generated by IcoMoon.io -->
<!DOCTYPE svg PUBLIC "-//W3C//DTD SVG 1.1//EN" "http://www.w3.org/Graphics/SVG/1.1/DTD/svg11.dtd">
<svg version="1.1" xmlns="http://www.w3.org/2000/svg" xmlns:xlink="http://www.w3.org/1999/xlink" width="20" height="20" viewBox="0 0 20 20">
<path d="M1 10q0.61 0.43 1.5 0.43t1.5-0.43q1-0.74 1-2 0 1.27 1 2 0.61 0.43 1.5 0.43t1.5-0.43q1-0.74 1-2 0 1.27 1 2 0.61 0.43 1.51 0.43 0.88 0 1.49-0.43 1-0.74 1-2 0 1.27 1 2 0.61 0.43 1.5 0.43t1.5-0.43q1-0.73 1-2v-1l-3-7h-13l-4 7v1q0 1.27 1 2zM3 18.99h5v-5h4v5h5v-7q-0.52-0.070-1-0.43-0.38-0.27-0.555-0.43t-0.31-0.445-0.135-0.685q0 0.3-0.060 0.52t-0.22 0.41-0.295 0.305-0.425 0.325q-0.58 0.42-1.49 0.44-0.91 0-1.51-0.44-0.38-0.27-0.555-0.43t-0.31-0.445-0.135-0.685q0 0.3-0.060 0.52t-0.22 0.41-0.295 0.305-0.425 0.325q-0.58 0.42-1.5 0.44-0.9 0-1.5-0.44-0.38-0.27-0.555-0.43t-0.31-0.45-0.135-0.69q0 0.31-0.060 0.53t-0.22 0.41-0.295 0.305-0.425 0.325q-0.49 0.36-1 0.44v6.99z" fill="#444444"></path>
</svg>
