<?xml version="1.0" encoding="utf-8"?>
<!-- Generator: Adobe Illustrator 19.0.0, SVG Export Plug-In . SVG Version: 6.00 Build 0)  -->
<svg version="1.1" id="Layer_1" xmlns="http://www.w3.org/2000/svg" xmlns:xlink="http://www.w3.org/1999/xlink" x="0px" y="0px"
	 viewBox="-295 387 20 20" style="enable-background:new -295 387 20 20;" xml:space="preserve">
<path d="M-294,397c0.4,0.3,0.9,0.4,1.5,0.4s1.1-0.1,1.5-0.4c0.7-0.5,1-1.2,1-2c0,0.8,0.3,1.5,1,2c0.4,0.3,0.9,0.4,1.5,0.4
	s1.1-0.1,1.5-0.4c0.7-0.5,1-1.2,1-2c0,0.8,0.3,1.5,1,2c0.4,0.3,0.9,0.4,1.5,0.4c0.6,0,1.1-0.1,1.5-0.4c0.7-0.5,1-1.2,1-2
	c0,0.8,0.3,1.5,1,2c0.4,0.3,0.9,0.4,1.5,0.4s1.1-0.1,1.5-0.4c0.7-0.5,1-1.2,1-2v-1l-3-7h-13l-4,7v1C-295,395.8-294.7,396.5-294,397z
	 M-292,406h5v-5h4v5h5v-7c-0.3,0-0.7-0.2-1-0.4c-0.3-0.2-0.4-0.3-0.6-0.4s-0.2-0.3-0.3-0.4s-0.1-0.4-0.1-0.7c0,0.2,0,0.4-0.1,0.5
	s-0.1,0.3-0.2,0.4c-0.1,0.1-0.2,0.2-0.3,0.3c-0.1,0.1-0.2,0.2-0.4,0.3c-0.4,0.3-0.9,0.4-1.5,0.4c-0.6,0-1.1-0.1-1.5-0.4
	c-0.3-0.2-0.4-0.3-0.6-0.4s-0.2-0.3-0.3-0.4c-0.1-0.2-0.1-0.4-0.1-0.7c0,0.2,0,0.4-0.1,0.5s-0.1,0.3-0.2,0.4
	c-0.1,0.1-0.2,0.2-0.3,0.3c-0.1,0.1-0.2,0.2-0.4,0.3c-0.4,0.3-0.9,0.4-1.5,0.4c-0.6,0-1.1-0.1-1.5-0.4c-0.3-0.2-0.4-0.3-0.6-0.4
	s-0.2-0.3-0.3-0.5c-0.1-0.2-0.1-0.4-0.1-0.7c0,0.2,0,0.4-0.1,0.5s-0.1,0.3-0.2,0.4c-0.1,0.1-0.2,0.2-0.3,0.3
	c-0.1,0.1-0.2,0.2-0.4,0.3c-0.3,0.2-0.7,0.4-1,0.4C-292,399-292,406-292,406z"/>
</svg>
