<?xml version="1.0" encoding="utf-8"?>
<!-- Generator: Adobe Illustrator 19.0.0, SVG Export Plug-In . SVG Version: 6.00 Build 0)  -->
<svg version="1.1" id="Layer_1" xmlns="http://www.w3.org/2000/svg" xmlns:xlink="http://www.w3.org/1999/xlink" x="0px" y="0px"
	 viewBox="-295 387 20 20" style="enable-background:new -295 387 20 20;" xml:space="preserve">
<path d="M-284,389h6c0.6,0,1,0.4,1,1v6l-9.3,9.3c-0.4,0.4-1,0.4-1.4,0l-5.6-5.6c-0.4-0.4-0.4-1,0-1.4L-284,389z M-281,395
	c0.5,0,1-0.2,1.4-0.6s0.6-0.9,0.6-1.4s-0.2-1-0.6-1.4s-0.9-0.6-1.4-0.6s-1,0.2-1.4,0.6s-0.6,0.9-0.6,1.4s0.2,1,0.6,1.4
	S-281.5,395-281,395z"/>
</svg>
