<?xml version="1.0" encoding="utf-8"?>
<!-- Generated by IcoMoon.io -->
<!DOCTYPE svg PUBLIC "-//W3C//DTD SVG 1.1//EN" "http://www.w3.org/Graphics/SVG/1.1/DTD/svg11.dtd">
<svg version="1.1" xmlns="http://www.w3.org/2000/svg" xmlns:xlink="http://www.w3.org/1999/xlink" width="20" height="20" viewBox="0 0 20 20">
<path d="M4 2h12c0.5 0 1 0.2 1.4 0.6s0.6 0.8 0.6 1.4v7c0 0.6-0.2 1-0.6 1.4s-0.9 0.6-1.4 0.6h-1l-5 5v-5h-6c-0.5 0-1-0.2-1.4-0.6s-0.6-0.8-0.6-1.4v-7c0-0.6 0.2-1 0.6-1.4s0.9-0.6 1.4-0.6zM15 4h-11v1h11v-1zM16 7h-12v1h12v-1zM13 10h-9v1h9v-1z"></path>
</svg>
