<?xml version="1.0" encoding="utf-8"?>
<!-- Generated by IcoMoon.io -->
<!DOCTYPE svg PUBLIC "-//W3C//DTD SVG 1.1//EN" "http://www.w3.org/Graphics/SVG/1.1/DTD/svg11.dtd">
<svg version="1.1" xmlns="http://www.w3.org/2000/svg" xmlns:xlink="http://www.w3.org/1999/xlink" width="20" height="20" viewBox="0 0 20 20">
<path d="M12.7 2.5c0.1 0 0.3 0 0.4 0.1 0.6 0.2 0.8 0.8 0.7 1.4-0.2 0.6-1 3-1 3.6 0 0.5 0.8 1 1.4 1h3c0.6 0 1 0.4 1 1s-2 7-2 7c-0.2 0.4-0.6 1-1 1h-9.3v-9h2.1c0.4-0.4 3.3-4.7 3.6-5.3 0.3-0.5 0.6-0.7 1.1-0.8zM1.9 8.5h2v9h-2v-9z"></path>
</svg>
