<?xml version="1.0" encoding="utf-8"?>
<!-- Generated by IcoMoon.io -->
<!DOCTYPE svg PUBLIC "-//W3C//DTD SVG 1.1//EN" "http://www.w3.org/Graphics/SVG/1.1/DTD/svg11.dtd">
<svg version="1.1" xmlns="http://www.w3.org/2000/svg" xmlns:xlink="http://www.w3.org/1999/xlink" width="20" height="20" viewBox="0 0 20 20">
<path d="M7.28 18q-0.14 0.020-0.41-0.070-0.42-0.14-0.605-0.53t-0.055-0.82q0.020-0.070 0.165-0.515t0.265-0.84 0.26-0.875 0.225-0.84 0.085-0.51q0-0.38-0.44-0.69t-0.91-0.31h-3q-0.45 0-0.725-0.275t-0.275-0.725q0-0.27 0.5-2.020t1-3.36l0.5-1.62q0.16-0.38 0.43-0.69t0.57-0.31h9.14v9h-2.14q-0.29 0.29-1.825 2.56t-1.755 2.71q-0.16 0.3-0.43 0.495t-0.57 0.235zM18 12h-2v-9h2v9z"></path>
</svg>
