<?xml version="1.0" encoding="utf-8"?>
<!-- Generated by IcoMoon.io -->
<!DOCTYPE svg PUBLIC "-//W3C//DTD SVG 1.1//EN" "http://www.w3.org/Graphics/SVG/1.1/DTD/svg11.dtd">
<svg version="1.1" xmlns="http://www.w3.org/2000/svg" xmlns:xlink="http://www.w3.org/1999/xlink" width="20" height="20" viewBox="0 0 20 20">
<path d="M7.3 17.5c-0.2 0-0.3 0-0.4-0.1-0.6-0.2-0.8-0.8-0.7-1.4 0.2-0.5 1-3 1-3.6 0-0.5-0.8-1-1.3-1h-3c-0.6 0-1-0.4-1-1s2-7 2-7c0.2-0.4 0.6-1 1-1h9.1v9h-2.1c-0.4 0.4-3.3 4.7-3.6 5.3-0.2 0.5-0.5 0.7-1 0.8zM18.1 11.5h-2v-9h2v9z"></path>
</svg>
