<?xml version="1.0" encoding="utf-8"?>
<!-- Generator: Adobe Illustrator 19.0.0, SVG Export Plug-In . SVG Version: 6.00 Build 0)  -->
<svg version="1.1" id="Layer_1" xmlns="http://www.w3.org/2000/svg" xmlns:xlink="http://www.w3.org/1999/xlink" x="0px" y="0px"
	 viewBox="-295 387 20 20" style="enable-background:new -295 387 20 20;" xml:space="preserve">
<path d="M-275,393.4l-1,2.8v0c-0.5-0.2-1-0.2-1.5,0.1c-0.5,0.2-0.9,0.6-1,1.1c-0.2,0.5-0.2,1,0.1,1.5c0.2,0.5,0.6,0.8,1.1,1v0
	l-1,2.8l-15.1-5.4l1-2.8c0.5,0.2,1,0.2,1.5-0.1c0.5-0.2,0.8-0.6,1-1.1c0.2-0.5,0.2-1-0.1-1.5c-0.2-0.5-0.6-0.8-1.1-1l1-2.9
	L-275,393.4z M-280,399.1l1.4-3.8c0.1-0.3,0.1-0.6,0-1c-0.1-0.3-0.4-0.5-0.7-0.6l-7.5-2.7c-0.3-0.1-0.6-0.1-1,0
	c-0.3,0.1-0.5,0.4-0.6,0.7l-1.4,3.8c-0.1,0.3-0.1,0.6,0,1s0.4,0.5,0.7,0.6l7.5,2.7c0.1,0.1,0.3,0.1,0.4,0.1c0.3,0,0.5-0.1,0.7-0.2
	C-280.2,399.5-280.1,399.3-280,399.1z M-287,391.5l7.5,2.7c0.2,0.1,0.3,0.2,0.4,0.4c0.1,0.2,0.1,0.4,0,0.6l-1.4,3.8
	c-0.1,0.2-0.2,0.3-0.4,0.4c-0.2,0.1-0.4,0.1-0.6,0l-7.5-2.7c-0.2-0.1-0.3-0.2-0.4-0.4s-0.1-0.4,0-0.6l1.4-3.8c0-0.1,0.1-0.3,0.3-0.4
	s0.3-0.1,0.4-0.1C-287.2,391.4-287.1,391.4-287,391.5z M-280.2,403.6c0.4,0.3,0.8,0.4,1.2,0.4h0v3h-16v-3c0.6,0,1-0.2,1.4-0.6
	c0.4-0.4,0.6-0.9,0.6-1.4c0-0.5-0.2-1-0.6-1.4s-0.9-0.6-1.4-0.6v-3h1l-0.3,0.8l2.9,1c-0.3,0.1-0.5,0.2-0.6,0.4
	c-0.2,0.2-0.3,0.5-0.3,0.7v4c0,0.3,0.1,0.6,0.4,0.9c0.2,0.2,0.5,0.4,0.9,0.4h8c0.3,0,0.6-0.1,0.9-0.4c0.2-0.2,0.4-0.5,0.4-0.9v-1.8
	l0.8,0.3C-280.8,403-280.6,403.3-280.2,403.6z M-291.8,404v-4c0-0.2,0.1-0.4,0.2-0.5s0.3-0.2,0.5-0.2h0.8l7.9,2.8v1.9
	c0,0.2-0.1,0.4-0.2,0.5s-0.3,0.2-0.5,0.2h-8c-0.2,0-0.4-0.1-0.5-0.2S-291.8,404.2-291.8,404z"/>
</svg>
