<?xml version="1.0" encoding="utf-8"?>
<!-- Generated by IcoMoon.io -->
<!DOCTYPE svg PUBLIC "-//W3C//DTD SVG 1.1//EN" "http://www.w3.org/Graphics/SVG/1.1/DTD/svg11.dtd">
<svg version="1.1" xmlns="http://www.w3.org/2000/svg" xmlns:xlink="http://www.w3.org/1999/xlink" width="20" height="20" viewBox="0 0 20 20">
<path d="M20 5.9l-1 2.8c-1-0.4-2.2 0.2-2.6 1.2s0.2 2.2 1.2 2.6v0l-1 2.8-15-5.4 1-2.8c1 0.4 2.2-0.2 2.6-1.2s-0.3-2.2-1.3-2.5l1-2.9 15.1 5.4zM14.6 9.2c0.7-2.1-0.3-4.4-2.4-5.1s-4.4 0.4-5.2 2.5c-0.7 2.1 0.3 4.4 2.4 5.1s4.4-0.4 5.2-2.5zM12 4.5c0.9 0.3 1.6 0.9 2 1.7 0 0 0 0 0 0-0.3-0.1-0.7 0.1-0.8 0.4s0 0.6 0.1 0.9c0 0.3 0.1 0.6-0.1 1-0.1 0.3-0.3 0.6-0.6 1l-0.7 1 0.1-4.1 0.4 0.1c0.2 0 0.3-0.2 0.1-0.3 0 0-0.6-0.2-0.9-0.3s-0.9-0.4-0.9-0.4c-0.2-0.1-0.3 0.2-0.1 0.3 0 0 0.2 0.1 0.3 0.2v1.6l-1.5 2 0.1-4.1c0.2 0.1 0.4 0.1 0.4 0.1 0.2 0 0.3-0.2 0.1-0.3 0 0-0.6-0.2-0.9-0.3-0.3 0.1-0.4 0.1-0.5 0 1-0.7 2.2-0.9 3.4-0.5zM7.4 6.7c0.2-0.5 0.4-0.9 0.8-1.3v5c-0.9-0.9-1.3-2.4-0.8-3.7zM11.4 11.4l2.1-2.6c0.4-0.4 0.6-0.8 0.7-1.1 0.1-0.1 0.1-0.2 0.1-0.3 0.1 0.6 0 1.2-0.2 1.8-0.4 1.2-1.4 2-2.7 2.2zM10.7 8.2v3.2c0 0 0 0 0 0.1-0.4 0-0.8-0.1-1.2-0.2-0.3-0.1-0.6-0.3-0.9-0.5l2.1-2.6zM12 14.3l2.1 0.8c0.2 0.8 1 1.4 1.9 1.4v0 3h-16v-3c1.1 0 2-0.9 2-2s-0.9-2-2-2v-3h1l-0.3 0.8 4.3 1.5c-0.6 0.7-1 1.7-1 2.7 0 2.2 1.8 4 4 4s4-1.8 4-4c0-0.1 0-0.1 0-0.2zM5.4 12l1.5 0.5c-0.1 0-0.2 0.3 0 0.3 0 0 0.2 0 0.4 0l0.6 1.5-0.8 2.4-1.3-3.9c0.2 0 0.4 0 0.4 0 0.2 0 0.2-0.3 0-0.3 0 0-0.6 0.1-1 0.1-0.1 0-0.2 0-0.2 0 0.1-0.3 0.3-0.5 0.4-0.6zM4.4 14.5c0-0.5 0.1-1 0.3-1.5l1.7 4.7c-1.2-0.6-2-1.8-2-3.2zM8.6 13.1l1.7 0.6c0.1 0.2 0.1 0.4 0.1 0.6 0 0.3-0.1 0.7-0.3 1.2l-0.4 1.2-1.1-3.6zM11.6 14.5c0 1.3-0.7 2.5-1.8 3.1l1.1-3.2c0.1-0.2 0.1-0.3 0.1-0.5l0.5 0.2c0.1 0.2 0.1 0.3 0.1 0.4zM7 18l1.1-3.1 1.1 3c0 0 0 0 0 0-0.4 0.1-0.8 0.2-1.2 0.2-0.3 0-0.7-0.1-1-0.1z"></path>
</svg>
