<?xml version="1.0" encoding="utf-8"?>
<!-- Generated by IcoMoon.io -->
<!DOCTYPE svg PUBLIC "-//W3C//DTD SVG 1.1//EN" "http://www.w3.org/Graphics/SVG/1.1/DTD/svg11.dtd">
<svg version="1.1" xmlns="http://www.w3.org/2000/svg" xmlns:xlink="http://www.w3.org/1999/xlink" width="20" height="20" viewBox="0 0 20 20">
<path d="M20 5.9l-1 2.8c-0.5-0.2-1-0.2-1.5 0.1s-0.9 0.6-1 1.1-0.2 1 0.1 1.5c0.2 0.5 0.6 0.8 1.1 1v0l-1 2.8-15.1-5.3 1-2.8c0.5 0.2 1 0.2 1.5-0.1 0.5-0.2 0.8-0.6 1-1.1s0.2-1-0.1-1.5c-0.2-0.5-0.6-0.8-1.1-1l1-2.9 15.1 5.4zM15 11.6l1.4-3.8c0.1-0.3 0.1-0.6 0-0.9s-0.4-0.5-0.7-0.6l-7.6-2.8c-0.6-0.3-1.3 0.1-1.6 0.7l-1.3 3.8c-0.3 0.6 0.1 1.3 0.7 1.6l7.5 2.7c0.1 0.1 0.3 0.1 0.4 0.1 0.6 0 1.1-0.3 1.2-0.8zM8 4l7.5 2.7c0.2 0.1 0.3 0.2 0.4 0.4s0.1 0.4 0 0.6l-1.4 3.8c-0.1 0.4-0.6 0.6-1 0.4l-7.4-2.8c-0.4-0.1-0.6-0.6-0.5-1l1.4-3.7c0.1-0.3 0.4-0.5 0.7-0.5 0.1 0 0.2 0 0.3 0.1zM14.8 16.1c0.4 0.3 0.8 0.4 1.2 0.4v0 3h-16v-3c0.6 0 1-0.2 1.4-0.6 0.4-0.3 0.6-0.8 0.6-1.4s-0.2-1-0.6-1.4-0.8-0.6-1.4-0.6v-3h1l-0.3 0.8 2.9 1c-0.5 0.2-0.9 0.6-0.9 1.2v4c0 0.7 0.6 1.2 1.2 1.2h8c0.7 0 1.2-0.6 1.2-1.2v-1.8l0.8 0.3c0.3 0.5 0.5 0.8 0.9 1.1zM3.2 16.5v-4c0-0.4 0.3-0.8 0.8-0.8h0.8l7.9 2.8v1.9c0 0.4-0.3 0.8-0.8 0.8h-7.9c-0.4 0-0.8-0.3-0.8-0.7z"></path>
</svg>
