<?xml version="1.0" encoding="utf-8"?>
<!-- Generated by IcoMoon.io -->
<!DOCTYPE svg PUBLIC "-//W3C//DTD SVG 1.1//EN" "http://www.w3.org/Graphics/SVG/1.1/DTD/svg11.dtd">
<svg version="1.1" xmlns="http://www.w3.org/2000/svg" xmlns:xlink="http://www.w3.org/1999/xlink" width="20" height="20" viewBox="0 0 20 20">
<path d="M11.5 6h-1.5c-0.6 0-1.3 0.3-1.6 0.7l-0.9-2.7h-2.9l-2.4 7h1.7l0.7-2h2.8v4h-5c-1.1 0-2-0.9-2-2v-7c0-1.1 0.9-2 2-2h7c1.1 0 2 0.9 2 2v2zM7 8h-2l1-2.9 1 2.9zM10.5 7h7c1.1 0 2 0.9 2 2v7c0 1.1-0.9 2-2 2h-7c-1.1 0-2-0.9-2-2v-7c0-1.1 0.9-2 2-2zM17.8 12v-1.1h-3.2v-2.1h-1.2v2.2h-3.2v1h1.3c0.1 0.9 0.6 1.9 1.3 2.6-0.9 0.4-1.9 0.6-2.3 0.6 0 0 0.2 1 0.2 1.5 0.8 0 2.2-0.5 3.3-1.1 1.1 0.6 2.5 1.1 3.3 1.1 0-0.5 0.2-1.4 0.2-1.5-0.4 0-1.5-0.3-2.4-0.6 0.7-0.8 1.1-1.8 1.3-2.6 0 0 1.4 0 1.4 0zM13.9 13.9c-0.5-0.5-0.9-1.1-1-1.9h2.1c-0.2 0.8-0.5 1.5-1.1 1.9v0c0.1 0.1 0 0 0 0z"></path>
</svg>
