<?xml version="1.0" encoding="utf-8"?>
<!-- Generated by IcoMoon.io -->
<!DOCTYPE svg PUBLIC "-//W3C//DTD SVG 1.1//EN" "http://www.w3.org/Graphics/SVG/1.1/DTD/svg11.dtd">
<svg version="1.1" xmlns="http://www.w3.org/2000/svg" xmlns:xlink="http://www.w3.org/1999/xlink" width="20" height="20" viewBox="0 0 20 20">
<g>
</g>
	<path d="M11 7h-1.51q-0.46 0-0.895 0.195t-0.695 0.505l-0.9-2.7h-2.87l-2.39 7h1.69l0.74-2h2.83v4h-5q-0.82 0-1.41-0.59t-0.59-1.41v-7q0-0.82 0.59-1.41t1.41-0.59h7q0.82 0 1.41 0.59t0.59 1.41v2zM6.51 9h-2.020l1-2.93zM10 8h7q0.82 0 1.41 0.59t0.59 1.41v7q0 0.82-0.59 1.41t-1.41 0.59h-7q-0.82 0-1.41-0.59t-0.59-1.41v-7q0-0.82 0.59-1.41t1.41-0.59zM17.25 13v-1.080h-3.17v-2.17h-1.16v2.17h-3.17v1.080h1.28q0.090 0.66 0.42 1.36t0.86 1.26q-0.64 0.26-1.315 0.44t-0.995 0.18l0.050 0.26q0.050 0.26 0.105 0.62t0.045 0.58q0.62 0 1.54-0.325t1.74-0.825q0.83 0.5 1.77 0.825t1.57 0.325q-0.010-0.14 0.010-0.335t0.050-0.385 0.060-0.355 0.060-0.275l0.020-0.11q-0.33 0-1.030-0.185t-1.35-0.445q0.51-0.56 0.835-1.26t0.415-1.35h1.36zM13.44 14.93q-0.76-0.7-1.010-1.93h2.090q-0.26 1.24-1 1.93l-0.040 0.030q-0.030-0.020-0.040-0.030z" fill="#000000"></path>
</svg>
