<?xml version="1.0" encoding="utf-8"?>
<!-- Generated by IcoMoon.io -->
<!DOCTYPE svg PUBLIC "-//W3C//DTD SVG 1.1//EN" "http://www.w3.org/Graphics/SVG/1.1/DTD/svg11.dtd">
<svg version="1.1" xmlns="http://www.w3.org/2000/svg" xmlns:xlink="http://www.w3.org/1999/xlink" width="20" height="20" viewBox="0 0 20 20">
<g>
</g>
	<path d="M18.94 4.46q-0.75 1.12-1.83 1.9 0.010 0.15 0.010 0.47 0 1.47-0.43 2.945t-1.31 2.825-2.1 2.39-2.93 1.66-3.66 0.62q-3.040 0-5.63-1.65 0.48 0.050 0.88 0.050 2.55 0 4.55-1.57-1.19-0.020-2.125-0.73t-1.295-1.82q0.39 0.070 0.69 0.070 0.47 0 0.96-0.13-1.27-0.26-2.105-1.27t-0.835-2.33v-0.040q0.8 0.43 1.66 0.46-0.75-0.51-1.19-1.315t-0.44-1.745q0-1 0.5-1.84 1.38 1.69 3.345 2.705t4.215 1.125q-0.1-0.45-0.1-0.84 0-1.51 1.075-2.585t2.595-1.075q1.6 0 2.68 1.16 1.26-0.26 2.33-0.89-0.43 1.32-1.62 2.020 1.070-0.11 2.11-0.57z" fill="#000000"></path>
</svg>
