<?xml version="1.0" encoding="utf-8"?>
<!-- Generated by IcoMoon.io -->
<!DOCTYPE svg PUBLIC "-//W3C//DTD SVG 1.1//EN" "http://www.w3.org/Graphics/SVG/1.1/DTD/svg11.dtd">
<svg version="1.1" xmlns="http://www.w3.org/2000/svg" xmlns:xlink="http://www.w3.org/1999/xlink" width="20" height="20" viewBox="0 0 20 20">
<path d="M17.2 10.7c0.5 1.2 0.8 2.5 0.8 3.9s-0.3 2.7-0.8 3.9l-2.8-1.2c0.4-0.8 0.6-1.8 0.6-2.7s-0.2-1.9-0.6-2.7c-0.4-0.8-0.9-1.6-1.5-2.2s-1.4-1.2-2.2-1.5c-0.8-0.4-1.7-0.7-2.7-0.7v3l-6-4.5 6-4.5v3c1.4 0 2.7 0.3 3.9 0.8s2.3 1.2 3.2 2.2c0.9 0.9 1.6 2 2.1 3.2z"></path>
</svg>
