<?xml version="1.0" encoding="utf-8"?>
<!-- Generated by IcoMoon.io -->
<!DOCTYPE svg PUBLIC "-//W3C//DTD SVG 1.1//EN" "http://www.w3.org/Graphics/SVG/1.1/DTD/svg11.dtd">
<svg version="1.1" xmlns="http://www.w3.org/2000/svg" xmlns:xlink="http://www.w3.org/1999/xlink" width="20" height="20" viewBox="0 0 20 20">
<g>
</g>
	<path d="M19 10q0-1.83-0.715-3.495t-1.92-2.87-2.87-1.92-3.495-0.715-3.495 0.715-2.87 1.92-1.92 2.87-0.715 3.495 0.715 3.495 1.92 2.87 2.87 1.92 3.495 0.715 3.495-0.715 2.87-1.92 1.92-2.87 0.715-3.495zM10 2.6q0.62 0 1.060 0.44t0.44 1.060-0.44 1.065-1.060 0.445-1.060-0.445-0.44-1.065 0.44-1.060 1.060-0.44zM3.4 7.36q0-0.29 1.65-0.48t3.3-0.24l1.65-0.040q6.6 0.11 6.6 0.76 0 0.29-1.12 0.64t-2.24 0.56l-1.11 0.2 0.59 3.060q0.91 5.15 0.47 5.32-0.17 0.070-0.565-0.44t-0.83-1.285-0.845-1.56-0.68-1.345l-0.27-0.56-0.96 1.93q-1.77 3.42-2.22 3.26-0.17-0.14-0.13-0.965t0.23-2.090 0.405-2.445 0.385-2.030l0.17-0.85q-4.48-0.75-4.48-1.4z" fill="#000000"></path>
</svg>
