<?xml version="1.0" encoding="utf-8"?>
<!-- Generator: Adobe Illustrator 19.0.0, SVG Export Plug-In . SVG Version: 6.00 Build 0)  -->
<svg version="1.1" id="Layer_1" xmlns="http://www.w3.org/2000/svg" xmlns:xlink="http://www.w3.org/1999/xlink" x="0px" y="0px"
	 viewBox="-295 387 20 20" style="enable-background:new -295 387 20 20;" xml:space="preserve">
<path d="M-290,393L-290,393c0-0.9,0.2-1.7,0.7-2.5c0.4-0.8,1.1-1.4,1.8-1.8c0.8-0.4,1.6-0.7,2.5-0.7s1.7,0.2,2.5,0.7
	c0.8,0.4,1.4,1.1,1.8,1.8c0.2,0.4,0.4,0.9,0.5,1.4c0.1,0.5,0.2,1.2,0.2,2.1v1c0.5,0,1,0.2,1.4,0.6s0.6,0.9,0.6,1.4v7
	c0,0.5-0.2,1-0.6,1.4s-0.9,0.6-1.4,0.6h-10c-0.5,0-1-0.2-1.4-0.6s-0.6-0.9-0.6-1.4v-7c0-0.5,0.2-1,0.6-1.4s0.9-0.6,1.4-0.6h7v-2
	c0-0.5-0.2-1-0.6-1.4s-0.9-0.6-1.4-0.6s-1,0.2-1.4,0.6s-0.6,0.9-0.6,1.4 M-283.3,400.3c0.2-0.3,0.3-0.7,0.3-1.1c0-0.6-0.2-1-0.6-1.4
	c-0.4-0.4-0.9-0.6-1.4-0.6s-1,0.2-1.4,0.6c-0.4,0.4-0.6,0.9-0.6,1.4c0,0.4,0.1,0.8,0.3,1.1c0.2,0.3,0.5,0.6,0.9,0.7v2.2h1.6v-2.2
	C-283.8,400.9-283.5,400.7-283.3,400.3z"/>
</svg>
