<?xml version="1.0" encoding="utf-8"?>
<!-- Generated by IcoMoon.io -->
<!DOCTYPE svg PUBLIC "-//W3C//DTD SVG 1.1//EN" "http://www.w3.org/Graphics/SVG/1.1/DTD/svg11.dtd">
<svg version="1.1" xmlns="http://www.w3.org/2000/svg" xmlns:xlink="http://www.w3.org/1999/xlink" width="20" height="20" viewBox="0 0 20 20">
<path d="M16.41 9.59q0.59 0.59 0.59 1.41v7q0 0.82-0.59 1.41t-1.41 0.59h-10q-0.82 0-1.41-0.59t-0.59-1.41v-7q0-0.82 0.59-1.41t1.41-0.59h7v-3q0-0.82-0.59-1.41t-1.41-0.59-1.41 0.59-0.59 1.41v1h-3v-1q0-1.36 0.67-2.51t1.82-1.82 2.51-0.67 2.51 0.67 1.82 1.82q0.36 0.61 0.515 1.375t0.155 2.135v2q0.82 0 1.41 0.59zM11.67 14.34q0.33-0.48 0.33-1.090 0-0.83-0.59-1.42-0.6-0.58-1.41-0.58t-1.41 0.58q-0.59 0.59-0.59 1.42 0 0.61 0.33 1.090 0.33 0.5 0.87 0.74v2.17h1.6v-2.17q0.54-0.24 0.87-0.74z"></path>
</svg>
