<?xml version="1.0" encoding="utf-8"?>
<!-- Generated by IcoMoon.io -->
<!DOCTYPE svg PUBLIC "-//W3C//DTD SVG 1.1//EN" "http://www.w3.org/Graphics/SVG/1.1/DTD/svg11.dtd">
<svg version="1.1" xmlns="http://www.w3.org/2000/svg" xmlns:xlink="http://www.w3.org/1999/xlink" width="32" height="32" viewBox="0 0 32 32">
<path fill="#000000" d="M22.832 10.992l-6.832-5.968-6.832 5.968-1.168-1.168 8-7.008 8 7.008zM22.4 13.472l-6.48 5.488-6.32-5.552v-1.184l6.4-5.6 6.4 5.6v1.248zM17.6 15.52v-2.72h-3.2v2.72h3.2zM14.832 21.968l-6.832-5.968-6.832 5.968-1.168-1.168 8-7.008 8 7.008zM30.832 21.968l-6.832-5.968-6.832 5.968-1.168-1.168 8-7.008 8 7.008zM8 17.6l6.4 5.6v5.6h-12.8v-5.6zM24 17.6l6.4 5.6v5.6h-12.8v-5.6zM9.6 27.2v-3.2h-3.2v3.2h3.2zM25.6 27.2v-3.2h-3.2v3.2h3.2z"></path>
</svg>
