<?xml version="1.0" encoding="utf-8"?>
<!-- Generated by IcoMoon.io -->
<!DOCTYPE svg PUBLIC "-//W3C//DTD SVG 1.1//EN" "http://www.w3.org/Graphics/SVG/1.1/DTD/svg11.dtd">
<svg version="1.1" xmlns="http://www.w3.org/2000/svg" xmlns:xlink="http://www.w3.org/1999/xlink" width="20" height="20" viewBox="0 0 20 20">
<path d="M17.2 2.8l0.16 0.17q0.29 0.29 0.29 0.705t-0.29 0.705l-12.81 12.82q-0.29 0.29-0.71 0.29t-0.7-0.29l-0.17-0.17q-0.29-0.29-0.29-0.705t0.29-0.705l1.59-1.6q-2.37-1.51-3.56-3.93 1.21-2.47 3.64-3.99 2.41-1.51 5.36-1.51 1.75 0 3.4 0.6l2.38-2.39q0.29-0.29 0.71-0.29t0.71 0.29zM10.11 6.81q-0.34 0.37-0.34 0.88 0 0.43 0.31 0.81l1.8-1.79q-0.2-0.19-0.45-0.26-0.38-0.030-0.49-0.040-0.49 0.040-0.83 0.4zM2.4 10.090q1.040 1.85 3.050 3.050l1.28-1.28q-0.77-1.040-0.77-2.36 0-1.6 1.090-2.76-1.53 0.4-2.76 1.26-1.21 0.88-1.89 2.090zM15.62 7.96l0.96-0.96q1.54 1.3 2.42 3.090-1.21 2.47-3.64 3.99-2.41 1.51-5.36 1.51-0.86 0-1.83-0.18l1.070-1.070q0.62 0.050 0.76 0.050 2.45 0 4.5-1.21t3.1-3.090q-0.68-1.21-1.89-2.090-0.010 0-0.040-0.020t-0.050-0.020zM10.040 13.54l4-4q-0.010 1.64-1.18 2.81-1.18 1.18-2.82 1.19z"></path>
</svg>
