<?xml version="1.0" encoding="utf-8"?>
<!-- Generated by IcoMoon.io -->
<!DOCTYPE svg PUBLIC "-//W3C//DTD SVG 1.1//EN" "http://www.w3.org/Graphics/SVG/1.1/DTD/svg11.dtd">
<svg version="1.1" xmlns="http://www.w3.org/2000/svg" xmlns:xlink="http://www.w3.org/1999/xlink" width="32" height="32" viewBox="0 0 32 32">
<path fill="#000000" d="M4.8 32h22.4v-32h-22.4v32zM11.2 4.8h-3.2v-3.2h3.2v3.2zM17.6 4.8h-3.2v-3.2h3.2v3.2zM24 4.8h-3.2v-3.2h3.2v3.2zM11.2 9.6h-3.2v-3.2h3.2v3.2zM17.6 9.6h-3.2v-3.2h3.2v3.2zM24 9.6h-3.2v-3.2h3.2v3.2zM11.2 14.4h-3.2v-3.2h3.2v3.2zM17.6 14.4h-3.2v-3.2h3.2v3.2zM24 14.4h-3.2v-3.2h3.2v3.2zM11.2 19.2h-3.2v-3.2h3.2v3.2zM17.6 19.2h-3.2v-3.2h3.2v3.2zM24 19.2h-3.2v-3.2h3.2v3.2zM17.6 30.4h-9.6v-9.6h9.6v9.6zM24 24h-3.2v-3.2h3.2v3.2zM24 28.8h-3.2v-3.2h3.2v3.2z"></path>
</svg>
