<?xml version="1.0" encoding="utf-8"?>
<!-- Generated by IcoMoon.io -->
<!DOCTYPE svg PUBLIC "-//W3C//DTD SVG 1.1//EN" "http://www.w3.org/Graphics/SVG/1.1/DTD/svg11.dtd">
<svg version="1.1" xmlns="http://www.w3.org/2000/svg" xmlns:xlink="http://www.w3.org/1999/xlink" width="32" height="32" viewBox="0 0 32 32">
<path fill="#000000" d="M30.4 16q0-2.928-1.144-5.592t-3.072-4.592-4.592-3.072-5.592-1.144-5.592 1.144-4.592 3.072-3.072 4.592-1.144 5.592 1.144 5.592 3.072 4.592 4.592 3.072 5.592 1.144 5.592-1.144 4.592-3.072 3.072-4.592 1.144-5.592zM12.8 16.16q-6.048-0.624-8.768-3.664 1.184-3.84 4.344-6.336t7.256-2.672q-0.528 0.88-0.896 2.016t-0.512 2.384 0.192 2.472 1.168 2.040q-0.56 0.080-1.104-0.096t-0.936-0.48-0.816-0.64-0.728-0.576-0.688-0.28-0.704 0.232q-1.408 1.104-0.672 2.4 0.8 1.408 3.648 2.304 0.992 0.32 2.144 0.528 1.552 0.272 2.632 0.648t1.704 0.792 0.96 1 0.432 1.136 0.080 1.352q-0.096 4.768-6.496 7.52 0.032-1.376-0.184-2.448t-0.608-1.744-0.88-1.176-1.016-0.832-1-0.592-0.864-0.584-0.568-0.688q0.16-0.672 0.296-1.080t0.44-0.984 0.832-1.056 1.312-0.896zM26.384 9.248q0.496 0.768 0.872 1.56t0.616 1.48 0.368 1.424 0.184 1.296 0.024 1.208-0.072 1.056-0.16 0.936-0.184 0.744-0.192 0.6l-0.112 0.384q-0.336-0.816-0.832-1.528t-0.968-1.192-0.92-0.928-0.808-0.96-0.52-1.056q-0.624-2.192 2.704-5.024z"></path>
</svg>
