<?xml version="1.0" encoding="utf-8"?>
<!-- Generated by IcoMoon.io -->
<!DOCTYPE svg PUBLIC "-//W3C//DTD SVG 1.1//EN" "http://www.w3.org/Graphics/SVG/1.1/DTD/svg11.dtd">
<svg version="1.1" xmlns="http://www.w3.org/2000/svg" xmlns:xlink="http://www.w3.org/1999/xlink" width="20" height="20" viewBox="0 0 20 20">
<path d="M10.25 1.020q1.87 0 3.51 0.71t2.785 1.925 1.8 2.87 0.655 3.495-0.655 3.495-1.8 2.87-2.785 1.925-3.51 0.71q-2.36 0-4.385-1.075t-3.295-2.915l2.59-1.52q0.85 1.15 2.12 1.83t2.72 0.68q1.62 0 3.005-0.825t2.19-2.21 0.805-2.965-0.805-2.965-2.19-2.21-3.005-0.825q-1.44 0-2.705 0.67t-2.115 1.82l1.82 1.51-6 2v-7l1.89 1.58q1.29-1.66 3.22-2.62t4.14-0.96z"></path>
</svg>
