<?xml version="1.0" encoding="utf-8"?>
<!-- Generated by IcoMoon.io -->
<!DOCTYPE svg PUBLIC "-//W3C//DTD SVG 1.1//EN" "http://www.w3.org/Graphics/SVG/1.1/DTD/svg11.dtd">
<svg version="1.1" xmlns="http://www.w3.org/2000/svg" xmlns:xlink="http://www.w3.org/1999/xlink" width="32" height="32" viewBox="0 0 32 32">
<path fill="#000000" d="M0 4.8h32v19.2h-1.2q0-2.144-1.528-3.672t-3.672-1.528q-1.536 0-2.8 0.84t-1.904 2.216q-0.64-0.256-1.296-0.256-1.152 0-2.072 0.672t-1.304 1.728h-16.224v-19.2zM13.392 9.776q-0.16 0.384-0.176 0.752-0.032 0.432 0.016 0.8l0.032 0.128q0.048 0.256 0.080 0.368 0.032 0.128 0.16 0.496 0.048 0.176 0.24 0.528 0.144 0.24 0.368 0.496 0.208 0.24 0.496 0.368 0.288 0.144 0.64 0.144 0.336 0 0.624-0.144 0.256-0.128 0.48-0.352 0.192-0.192 0.352-0.512 0.144-0.24 0.256-0.528 0.096-0.24 0.144-0.496 0.032-0.112 0.048-0.24l0.032-0.112q0.016-0.064 0.016-0.144 0.112-0.656-0.064-1.312-0.16-0.608-0.656-1.056-0.512-0.432-1.264-0.432-0.464 0-0.832 0.16-0.384 0.176-0.608 0.448-0.192 0.24-0.384 0.64zM20.56 19.44v-1.824q0-0.784-0.464-1.568t-1.232-1.264q-0.752-0.496-1.632-0.496l-1.984 1.344-2.048-1.312q-0.896 0-1.664 0.48-0.752 0.48-1.184 1.232-0.432 0.768-0.432 1.584v1.824l0.288 0.080q0.016 0 0.816 0.224 0.64 0.144 1.184 0.24 0.496 0.096 1.456 0.208 0.912 0.080 1.584 0.080 0.64 0 1.568-0.080 0.928-0.112 1.424-0.208 0.352-0.048 1.216-0.256l0.8-0.192q0.176-0.048 0.304-0.096zM25.6 19.6q1.824 0 3.112 1.288t1.288 3.112-1.288 3.112-3.112 1.288q-1.712 0-2.992-1.232 0.592-0.896 0.592-1.968 0-0.912-0.424-1.704t-1.16-1.272q0.528-1.184 1.6-1.904t2.384-0.72zM16.8 25.2q0-1.152 0.824-1.976t1.976-0.824 1.976 0.824 0.824 1.976-0.824 1.976-1.976 0.824-1.976-0.824-0.824-1.976z"></path>
</svg>
