<?xml version="1.0" encoding="utf-8"?>
<!-- Generated by IcoMoon.io -->
<!DOCTYPE svg PUBLIC "-//W3C//DTD SVG 1.1//EN" "http://www.w3.org/Graphics/SVG/1.1/DTD/svg11.dtd">
<svg version="1.1" xmlns="http://www.w3.org/2000/svg" xmlns:xlink="http://www.w3.org/1999/xlink" width="32" height="32" viewBox="0 0 32 32">
<path fill="#000000" d="M0 28.8h16v-0.416q3.856 1.008 7.616-0.384 1.952-0.72 3.56-2t2.68-2.928 1.64-3.536 0.504-3.944-0.784-4.008q-0.672-1.84-1.856-3.376t-2.68-2.584-3.272-1.696-3.632-0.704-3.776 0.392v-0.416h-16v25.6zM14.4 4.8v22.4h-12.8v-22.4h12.8zM23.12 17.952q-0.816 1.616-2.536 2.192t-3.336-0.224q-0.736-0.352-1.248-0.944v-5.968q0.976-1.040 2.392-1.312t2.76 0.384q1.616 0.816 2.192 2.536t-0.224 3.336zM18.72 16.64q0.256 0.192 0.584 0.144t0.536-0.304q0.192-0.256 0.144-0.584t-0.304-0.536q-0.272-0.208-0.592-0.16t-0.528 0.32q-0.192 0.256-0.144 0.584t0.304 0.536zM23.536 22.512q-1.376 0.912-3 1.2t-3.128-0.096q-0.32-0.080-0.496-0.368t-0.096-0.608 0.368-0.488 0.624-0.088l0.272 0.064q2.48 0.432 4.576-0.944 1.152-0.784 1.824-1.888 0.176-0.272 0.496-0.344t0.608 0.088q0.272 0.176 0.352 0.504t-0.096 0.6q-0.912 1.44-2.304 2.368zM25.216 25.024q-1.744 1.168-3.744 1.592t-4 0.104q-0.336-0.064-0.528-0.344t-0.128-0.616q0.064-0.32 0.344-0.504t0.632-0.12l0.352 0.064q3.376 0.384 6.192-1.504 1.616-1.072 2.72-2.784 0.16-0.288 0.488-0.36t0.6 0.104q0.288 0.16 0.36 0.488t-0.104 0.616q-1.216 1.952-3.184 3.264z"></path>
</svg>
