<?xml version="1.0" encoding="utf-8"?>
<!-- Generated by IcoMoon.io -->
<!DOCTYPE svg PUBLIC "-//W3C//DTD SVG 1.1//EN" "http://www.w3.org/Graphics/SVG/1.1/DTD/svg11.dtd">
<svg version="1.1" xmlns="http://www.w3.org/2000/svg" xmlns:xlink="http://www.w3.org/1999/xlink" width="32" height="32" viewBox="0 0 32 32">
<path fill="#000000" d="M3.2 29.488q0.448 0.432 1.504 0.296t2.464-0.608 3.112-1.304 3.44-1.808 3.44-2.104 3.112-2.184 2.464-2.072 1.488-1.752q0.576-0.96 0.376-2.2t-0.928-2.48-1.88-2.424q0.512-0.336 1.064-0.336t1.032 0.28 1 0.664 0.976 0.808 0.952 0.736 0.928 0.424 0.912-0.128q0.736-0.384 1.096-1.368t0.024-1.704q-0.192-0.416-0.584-0.728t-0.76-0.488-1.024-0.32-1.008-0.192-1.12-0.12-0.976-0.088q0.576-0.144 1.28-0.44t1.472-0.752 1.288-1.096 0.536-1.312q0.048-1.104-1.064-2.104t-2.216-0.872q-0.4 0.048-0.752 0.224t-0.64 0.52-0.504 0.656-0.44 0.848-0.352 0.84-0.328 0.904-0.28 0.808q-0.256-3.568-1.568-4.72-0.88-0.688-1.696-0.608t-1.408 0.744-0.608 1.544q-0.016 0.496 0.304 1t0.784 0.896 0.968 0.872 0.848 0.912 0.432 1.016-0.264 1.176q-1.248-0.96-2.52-1.544t-2.488-0.704-2.128 0.424q-1.12 0.72-2.608 2.704 2.688 2.848 4.944 4.352 0.24 0.176 0.296 0.464t-0.12 0.528q-0.16 0.256-0.456 0.312t-0.536-0.12q-2.208-1.504-4.96-4.336-1.136 1.68-2.144 3.568 2.512 2.528 4.464 3.856 0.24 0.176 0.288 0.464t-0.112 0.528q-0.16 0.256-0.456 0.312t-0.552-0.12q-1.872-1.28-4.336-3.712-2.288 4.512-3.392 8.384t-0.080 4.784z"></path>
</svg>
