<?xml version="1.0" encoding="utf-8"?>
<!-- Generated by IcoMoon.io -->
<!DOCTYPE svg PUBLIC "-//W3C//DTD SVG 1.1//EN" "http://www.w3.org/Graphics/SVG/1.1/DTD/svg11.dtd">
<svg version="1.1" xmlns="http://www.w3.org/2000/svg" xmlns:xlink="http://www.w3.org/1999/xlink" width="32" height="32" viewBox="0 0 32 32">
<path fill="#000000" d="M13.728 3.824q0.752 0 1.296 0.224 1.408 0.624 2.056 2.344t0.664 4.008q0.896-1.232 2.496-2.448t2.96-1.216q0.656 0 1.28 0.152t1.304 0.552 1.248 1.024 1.056 1.64 0.76 2.312q-2.608-1.504-5.84-1.504-3.168 0-5.264 1.424 0.928-0.256 2.128-0.256 1.776 0 3.32 0.552t2.12 1.544q0.544 0.928 0.616 2.248t-0.408 2.56-1.424 1.816q-0.112-1.664-0.888-3.184t-2.032-2.464-2.632-0.944q-1.072 0-2.128 0.608-1.744 1.056-2.944 3.432t-1.736 5.432-0.536 6.72h-8q0-2.56 0.744-5.008t1.984-4.376 2.84-3.552 3.312-2.696 3.408-1.632q-1.488-0.24-2.912-0.24-5.136 0-9.376 3.104 0.448-1.712 1.248-3.008t1.824-2.056 2.136-1.128 2.296-0.368q1.488 0 2.848 0.552t2.272 1.512q-0.384-1.28-1.096-2.216t-1.624-1.424-1.848-0.712-1.96-0.224q-1.808 0-3.28 0.56 1.056-1.488 3.44-2.576t4.272-1.088zM20.8 18.4q0-0.992-0.704-1.696t-1.696-0.704-1.696 0.704-0.704 1.696 0.704 1.696 1.696 0.704 1.696-0.704 0.704-1.696z"></path>
</svg>
