<?xml version="1.0" encoding="utf-8"?>
<!-- Generated by IcoMoon.io -->
<!DOCTYPE svg PUBLIC "-//W3C//DTD SVG 1.1//EN" "http://www.w3.org/Graphics/SVG/1.1/DTD/svg11.dtd">
<svg version="1.1" xmlns="http://www.w3.org/2000/svg" xmlns:xlink="http://www.w3.org/1999/xlink" width="32" height="32" viewBox="0 0 32 32">
<path fill="#000000" d="M27.52 4.48l0.256 0.272q0.464 0.464 0.464 1.128t-0.464 1.128l-20.496 20.512q-0.464 0.464-1.136 0.464t-1.12-0.464l-0.272-0.272q-0.464-0.464-0.464-1.128t0.464-1.128l2.544-2.56q-3.792-2.416-5.696-6.288 1.936-3.952 5.824-6.384 3.856-2.416 8.576-2.416 2.8 0 5.44 0.96l3.808-3.824q0.464-0.464 1.136-0.464t1.136 0.464zM16.176 10.896q-0.544 0.592-0.544 1.408 0 0.688 0.496 1.296l2.88-2.864q-0.32-0.304-0.72-0.416-0.608-0.048-0.784-0.064-0.784 0.064-1.328 0.64zM3.84 16.144q1.664 2.96 4.88 4.88l2.048-2.048q-1.232-1.664-1.232-3.776 0-2.56 1.744-4.416-2.448 0.64-4.416 2.016-1.936 1.408-3.024 3.344zM24.992 12.736l1.536-1.536q2.464 2.080 3.872 4.944-1.936 3.952-5.824 6.384-3.856 2.416-8.576 2.416-1.376 0-2.928-0.288l1.712-1.712q0.992 0.080 1.216 0.080 3.92 0 7.2-1.936t4.96-4.944q-1.088-1.936-3.024-3.344-0.016 0-0.064-0.032t-0.080-0.032zM16.064 21.664l6.4-6.4q-0.016 2.624-1.888 4.496-1.888 1.888-4.512 1.904z"></path>
</svg>
