<?xml version="1.0" encoding="utf-8"?>
<!-- Generated by IcoMoon.io -->
<!DOCTYPE svg PUBLIC "-//W3C//DTD SVG 1.1//EN" "http://www.w3.org/Graphics/SVG/1.1/DTD/svg11.dtd">
<svg version="1.1" xmlns="http://www.w3.org/2000/svg" xmlns:xlink="http://www.w3.org/1999/xlink" width="32" height="32" viewBox="0 0 32 32">
<path fill="#000000" d="M22.4 9.392q0-2.64-1.872-4.52t-4.528-1.88-4.528 1.88-1.872 4.52q0 2.656 1.872 4.528t4.528 1.872 4.528-1.872 1.872-4.528zM5.184 17.056q-1.136 0.64-1.912 1.672t-1.088 2.208-0.16 2.456 0.808 2.4q0.88 1.504 2.376 2.36t3.136 0.848 3.24-0.856q2.288-1.328 2.976-3.888t-0.64-4.864q-0.656-1.12-1.68-1.896t-2.2-1.088-2.456-0.16-2.4 0.808zM20.416 28.144q2.304 1.328 4.864 0.64t3.888-2.976q0.848-1.6 0.856-3.24t-0.848-3.136-2.36-2.376q-1.12-0.656-2.4-0.808t-2.456 0.16-2.2 1.088-1.68 1.896q-1.328 2.304-0.64 4.864t2.976 3.888z"></path>
</svg>
