<?xml version="1.0" encoding="utf-8"?>
<!-- Generated by IcoMoon.io -->
<!DOCTYPE svg PUBLIC "-//W3C//DTD SVG 1.1//EN" "http://www.w3.org/Graphics/SVG/1.1/DTD/svg11.dtd">
<svg version="1.1" xmlns="http://www.w3.org/2000/svg" xmlns:xlink="http://www.w3.org/1999/xlink" width="32" height="32" viewBox="0 0 32 32">
<path fill="#000000" d="M20.352 3.2q0.224-0.032 0.656 0.112 0.672 0.224 0.968 0.848t0.088 1.312q-0.032 0.112-0.264 0.824t-0.424 1.344-0.416 1.4-0.36 1.344-0.136 0.816q0 0.608 0.704 1.104t1.456 0.496h4.8q0.72 0 1.16 0.44t0.44 1.16q0 0.432-0.8 3.232t-1.6 5.376l-0.8 2.592q-0.256 0.608-0.688 1.104t-0.912 0.496h-14.624v-14.4h3.424q0.464-0.464 2.92-4.096t2.808-4.336q0.256-0.48 0.688-0.792t0.912-0.376zM3.2 12.8h3.2v14.4h-3.2v-14.4z"></path>
</svg>
