<?xml version="1.0" encoding="utf-8"?>
<!-- Generated by IcoMoon.io -->
<!DOCTYPE svg PUBLIC "-//W3C//DTD SVG 1.1//EN" "http://www.w3.org/Graphics/SVG/1.1/DTD/svg11.dtd">
<svg version="1.1" xmlns="http://www.w3.org/2000/svg" xmlns:xlink="http://www.w3.org/1999/xlink" width="32" height="32" viewBox="0 0 32 32">
<path fill="#000000" d="M19.296 9.6l-0.336-0.32q-0.416-0.432-0.512-0.752t0.056-0.608 0.584-0.72l4.352-4.4q0.176-0.176 0.44-0.456t0.376-0.392 0.304-0.28 0.296-0.192 0.272-0.056 0.312 0.048 0.336 0.208 0.432 0.352l0.336 0.32zM20.144 10.32l7.040-7.040q0.336 0.448 0.664 0.952t0.752 1.248 0.72 1.52 0.496 1.6 0.16 1.664-0.344 1.56q-0.528 1.216-0.944 1.88t-1.112 1.488-1.144 1.432q-3.616 4.112-9.6 9.712-0.656 0.464-1.44 1.16t-1.464 1.128-1.896 0.912q-0.688 0.272-1.52 0.288t-1.656-0.2-1.608-0.504-1.552-0.712-1.28-0.728-0.992-0.64l7.040-7.040 1.888 2.592q0.256 0.368 0.776 0.264t1.056-0.456 1.048-0.864q0.368-0.368 1.48-1.488t1.888-1.896 1.672-1.704 1.36-1.424q0.512-0.512 0.856-1.040t0.464-1.048-0.264-0.792zM2.512 26.4l-0.336-0.336q-0.24-0.256-0.376-0.448t-0.152-0.392-0.016-0.312 0.176-0.336 0.272-0.328 0.432-0.424 0.496-0.48l4.384-4.352q0.656-0.624 1.016-0.68t1.016 0.504l0.32 0.336z"></path>
</svg>
