<?xml version="1.0" encoding="utf-8"?>
<!-- Generated by IcoMoon.io -->
<!DOCTYPE svg PUBLIC "-//W3C//DTD SVG 1.1//EN" "http://www.w3.org/Graphics/SVG/1.1/DTD/svg11.dtd">
<svg version="1.1" xmlns="http://www.w3.org/2000/svg" xmlns:xlink="http://www.w3.org/1999/xlink" width="32" height="32" viewBox="0 0 32 32">
<path fill="#000000" d="M16.4 1.632q2.992 0 5.616 1.136t4.456 3.080 2.88 4.592 1.048 5.592-1.048 5.592-2.88 4.592-4.456 3.080-5.616 1.136q-3.776 0-7.016-1.72t-5.272-4.664l4.144-2.432q1.36 1.84 3.392 2.928t4.352 1.088q2.592 0 4.808-1.32t3.504-3.536 1.288-4.744-1.288-4.744-3.504-3.536-4.808-1.32q-2.304 0-4.328 1.072t-3.384 2.912l2.912 2.416-9.6 3.2v-11.2l3.024 2.528q2.064-2.656 5.152-4.192t6.624-1.536z"></path>
</svg>
