<?xml version="1.0" encoding="utf-8"?>
<!-- Generated by IcoMoon.io -->
<!DOCTYPE svg PUBLIC "-//W3C//DTD SVG 1.1//EN" "http://www.w3.org/Graphics/SVG/1.1/DTD/svg11.dtd">
<svg version="1.1" xmlns="http://www.w3.org/2000/svg" xmlns:xlink="http://www.w3.org/1999/xlink" width="20" height="20" viewBox="0 0 20 20">
<path d="M20 6.38l-1.010 2.82v-0.010q-0.77-0.28-1.53 0.080t-1.040 1.14q-0.28 0.77 0.070 1.53 0.36 0.75 1.15 1.030v0.010l-1.010 2.82-15.060-5.38 0.99-2.79q0.77 0.28 1.53-0.080 0.74-0.34 1.030-1.13 0.28-0.77-0.080-1.53-0.34-0.73-1.13-1.020l1.020-2.87zM15.030 12.070l1.37-3.76q0.18-0.47-0.040-0.95-0.22-0.46-0.7-0.65l-7.52-2.73q-0.48-0.17-0.955 0.050t-0.645 0.69l-1.37 3.76q-0.18 0.49 0.040 0.96t0.7 0.64l7.52 2.74q0.22 0.080 0.43 0.080 0.39 0 0.715-0.23t0.455-0.6zM7.97 4.45l7.51 2.73q0.29 0.11 0.43 0.39 0.13 0.28 0.020 0.57l-1.37 3.76q-0.1 0.28-0.385 0.42t-0.575 0.030l-7.51-2.74q-0.29-0.1-0.425-0.385t-0.025-0.575l1.37-3.76q0.070-0.22 0.27-0.355t0.43-0.135q0.11 0 0.26 0.050zM14.79 16.59q0.53 0.41 1.2 0.41h0.010v3h-16v-2.96q0.84 0 1.41-0.59 0.59-0.57 0.59-1.41 0-0.82-0.59-1.41t-1.41-0.59v-3.040h1.050l-0.28 0.8 2.87 1.020q-0.39 0.12-0.64 0.445t-0.25 0.735v4q0 0.52 0.365 0.885t0.885 0.365h8q0.52 0 0.885-0.365t0.365-0.885v-1.75l0.83 0.3q0.18 0.65 0.71 1.040zM3.25 17v-4q0-0.31 0.22-0.53t0.53-0.22h0.83l7.92 2.83v1.92q0 0.31-0.22 0.53t-0.53 0.22h-8q-0.31 0-0.53-0.22t-0.22-0.53z"></path>
</svg>
