<?xml version="1.0" encoding="utf-8"?>
<!-- Generated by IcoMoon.io -->
<!DOCTYPE svg PUBLIC "-//W3C//DTD SVG 1.1//EN" "http://www.w3.org/Graphics/SVG/1.1/DTD/svg11.dtd">
<svg version="1.1" xmlns="http://www.w3.org/2000/svg" xmlns:xlink="http://www.w3.org/1999/xlink" width="32" height="32" viewBox="0 0 32 32">
<path fill="#000000" d="M26.256 15.344q0.944 0.944 0.944 2.256v11.2q0 1.312-0.944 2.256t-2.256 0.944h-16q-1.312 0-2.256-0.944t-0.944-2.256v-11.2q0-1.312 0.944-2.256t2.256-0.944h11.2v-4.8q0-1.312-0.944-2.256t-2.256-0.944-2.256 0.944-0.944 2.256v1.6h-4.8v-1.6q0-2.176 1.072-4.016t2.912-2.912 4.016-1.072 4.016 1.072 2.912 2.912q0.576 0.976 0.824 2.2t0.248 3.416v3.2q1.312 0 2.256 0.944zM18.672 22.944q0.528-0.768 0.528-1.744 0-1.328-0.944-2.272-0.96-0.928-2.256-0.928t-2.256 0.928q-0.944 0.944-0.944 2.272 0 0.976 0.528 1.744 0.528 0.8 1.392 1.184v3.472h2.56v-3.472q0.864-0.384 1.392-1.184z"></path>
</svg>
