<?xml version="1.0" encoding="utf-8"?>
<!-- Generated by IcoMoon.io -->
<!DOCTYPE svg PUBLIC "-//W3C//DTD SVG 1.1//EN" "http://www.w3.org/Graphics/SVG/1.1/DTD/svg11.dtd">
<svg version="1.1" xmlns="http://www.w3.org/2000/svg" xmlns:xlink="http://www.w3.org/1999/xlink" width="32" height="32" viewBox="0 0 32 32">
<path fill="#000000" d="M11.648 28.8q-0.224 0.032-0.656-0.112-0.672-0.224-0.968-0.848t-0.088-1.312q0.032-0.112 0.264-0.824t0.424-1.344 0.416-1.4 0.36-1.344 0.136-0.816q0-0.608-0.704-1.104t-1.456-0.496h-4.8q-0.72 0-1.16-0.44t-0.44-1.16q0-0.432 0.8-3.232t1.6-5.376l0.8-2.592q0.256-0.608 0.688-1.104t0.912-0.496h14.624v14.4h-3.424q-0.464 0.464-2.92 4.096t-2.808 4.336q-0.256 0.48-0.688 0.792t-0.912 0.376zM28.8 19.2h-3.2v-14.4h3.2v14.4z"></path>
</svg>
