<?xml version="1.0" encoding="utf-8"?>
<!-- Generated by IcoMoon.io -->
<!DOCTYPE svg PUBLIC "-//W3C//DTD SVG 1.1//EN" "http://www.w3.org/Graphics/SVG/1.1/DTD/svg11.dtd">
<svg version="1.1" xmlns="http://www.w3.org/2000/svg" xmlns:xlink="http://www.w3.org/1999/xlink" width="32" height="32" viewBox="0 0 32 32">
<path fill="#000000" d="M29.328 5.712q0.048-0.144 0.096-0.384t-0.064-0.816-0.528-0.976q-0.384-0.368-0.872-0.464t-0.792 0l-0.288 0.080q-1.456 0.72-5.88 3.736t-6.392 5.176q-0.736 0.832-1.408 2.32t-0.88 3 0.544 2.392q0.832 0.736 2.344 0.576t3.072-0.824 2.248-1.352q2.144-2.144 5.168-6.656t3.632-5.808zM2.24 28.24q1.056-0.688 1.712-1.528t0.952-1.616 0.544-1.52 0.72-1.48 1.24-1.28q1.088-0.8 2.504-0.704t2.424 1.168q0.816 0.88 0.824 2.64t-1.080 2.896q-1.216 1.12-2.904 1.624t-3.424 0.424-3.512-0.624z"></path>
</svg>
