<?xml version="1.0" encoding="utf-8"?>
<!-- Generated by IcoMoon.io -->
<!DOCTYPE svg PUBLIC "-//W3C//DTD SVG 1.1//EN" "http://www.w3.org/Graphics/SVG/1.1/DTD/svg11.dtd">
<svg version="1.1" xmlns="http://www.w3.org/2000/svg" xmlns:xlink="http://www.w3.org/1999/xlink" width="32" height="32" viewBox="0 0 32 32">
<path fill="#000000" d="M16 3.2q2.608 0 4.976 1.016t4.080 2.728 2.728 4.080 1.016 4.976-1.016 4.976-2.728 4.080-4.080 2.728-4.976 1.016-4.976-1.016-4.080-2.728-2.728-4.080-1.016-4.976 1.016-4.976 2.728-4.080 4.080-2.728 4.976-1.016zM17.808 18.208l0.56-10.336h-4.736l0.56 10.336h3.616zM17.664 23.584q0.592-0.56 0.592-1.536 0-0.992-0.576-1.552-0.592-0.56-1.696-0.56t-1.712 0.56q-0.592 0.544-0.592 1.552 0 0.976 0.608 1.536 0.608 0.544 1.696 0.544t1.68-0.544z"></path>
</svg>
