<?xml version="1.0" encoding="utf-8"?>
<!-- Generated by IcoMoon.io -->
<!DOCTYPE svg PUBLIC "-//W3C//DTD SVG 1.1//EN" "http://www.w3.org/Graphics/SVG/1.1/DTD/svg11.dtd">
<svg version="1.1" xmlns="http://www.w3.org/2000/svg" xmlns:xlink="http://www.w3.org/1999/xlink" width="32" height="32" viewBox="0 0 32 32">
<path fill="#000000" d="M1.6 16q0.976 0.688 2.4 0.688t2.4-0.688q1.6-1.184 1.6-3.2 0 2.032 1.6 3.2 0.976 0.688 2.4 0.688t2.4-0.688q1.6-1.184 1.6-3.2 0 2.032 1.6 3.2 0.976 0.688 2.416 0.688 1.408 0 2.384-0.688 1.6-1.184 1.6-3.2 0 2.032 1.6 3.2 0.976 0.688 2.4 0.688t2.4-0.688q1.6-1.168 1.6-3.2v-1.6l-4.8-11.2h-20.8l-6.4 11.2v1.6q0 2.032 1.6 3.2zM4.8 30.384h8v-8h6.4v8h8v-11.2q-0.832-0.112-1.6-0.688-0.608-0.432-0.888-0.688t-0.496-0.712-0.216-1.096q0 0.48-0.096 0.832t-0.352 0.656-0.472 0.488-0.68 0.52q-0.928 0.672-2.384 0.704-1.456 0-2.416-0.704-0.608-0.432-0.888-0.688t-0.496-0.712-0.216-1.096q0 0.48-0.096 0.832t-0.352 0.656-0.472 0.488-0.68 0.52q-0.928 0.672-2.4 0.704-1.44 0-2.4-0.704-0.608-0.432-0.888-0.688t-0.496-0.72-0.216-1.104q0 0.496-0.096 0.848t-0.352 0.656-0.472 0.488-0.68 0.52q-0.784 0.576-1.6 0.704v11.184z"></path>
</svg>
