<?xml version="1.0" encoding="utf-8"?>
<!-- Generated by IcoMoon.io -->
<!DOCTYPE svg PUBLIC "-//W3C//DTD SVG 1.1//EN" "http://www.w3.org/Graphics/SVG/1.1/DTD/svg11.dtd">
<svg version="1.1" xmlns="http://www.w3.org/2000/svg" xmlns:xlink="http://www.w3.org/1999/xlink" width="32" height="32" viewBox="0 0 32 32">
<path fill="#000000" d="M3.2 11.2h6.4l8-6.4v22.4l-8-6.4h-6.4v-9.6zM23.504 7.264q0.128 0.048 0.36 0.16t0.768 0.464 1.048 0.792 1.096 1.168 1.016 1.576 0.72 2.048 0.288 2.528-0.288 2.528-0.72 2.048-1.016 1.576-1.096 1.168-1.048 0.792-0.768 0.464-0.36 0.16q-0.128 0.064-0.304 0.064-0.56 0-0.736-0.496-0.128-0.304 0-0.608t0.432-0.432q0.16-0.080 0.304-0.144t0.616-0.376 0.856-0.664 0.88-0.968 0.832-1.312 0.576-1.696 0.24-2.104q0-1.536-0.456-2.848t-1.040-2.072-1.28-1.344-1.048-0.768-0.48-0.232q-0.304-0.128-0.432-0.432t0-0.608 0.432-0.432 0.608 0zM25.6 16q0 1.12-0.376 2.104t-0.8 1.536-1.096 1.048-0.88 0.6-0.544 0.248l-0.016 0.016q-0.144 0.048-0.288 0.048-0.544 0-0.752-0.512-0.112-0.304 0.024-0.608t0.44-0.432q0.096-0.032 0.328-0.144t0.664-0.44 0.792-0.76 0.632-1.152 0.272-1.552-0.272-1.552-0.632-1.152-0.792-0.76-0.664-0.44-0.328-0.144q-0.304-0.128-0.44-0.432t-0.024-0.608q0.128-0.304 0.432-0.44t0.608-0.024q2.32 1.024 3.232 3.12 0.48 1.12 0.48 2.432z"></path>
</svg>
