<?xml version="1.0" encoding="utf-8"?>
<!-- Generated by IcoMoon.io -->
<!DOCTYPE svg PUBLIC "-//W3C//DTD SVG 1.1//EN" "http://www.w3.org/Graphics/SVG/1.1/DTD/svg11.dtd">
<svg version="1.1" xmlns="http://www.w3.org/2000/svg" xmlns:xlink="http://www.w3.org/1999/xlink" width="20" height="20" viewBox="0 0 20 20">
<path d="M10 2q1.63 0 3.11 0.635t2.55 1.705 1.705 2.55 0.635 3.11-0.635 3.11-1.705 2.55-2.55 1.705-3.11 0.635-3.11-0.635-2.55-1.705-1.705-2.55-0.635-3.11 0.635-3.11 1.705-2.55 2.55-1.705 3.11-0.635zM11.13 11.38l0.35-6.46h-2.96l0.35 6.46h2.26zM11.040 14.74q0.37-0.35 0.37-0.96 0-0.62-0.36-0.97-0.37-0.35-1.060-0.35t-1.070 0.35q-0.37 0.34-0.37 0.97 0 0.61 0.38 0.96 0.38 0.34 1.060 0.34t1.050-0.34z"></path>
</svg>
