<?xml version="1.0" encoding="utf-8"?>
<!-- Generated by IcoMoon.io -->
<!DOCTYPE svg PUBLIC "-//W3C//DTD SVG 1.1//EN" "http://www.w3.org/Graphics/SVG/1.1/DTD/svg11.dtd">
<svg version="1.1" xmlns="http://www.w3.org/2000/svg" xmlns:xlink="http://www.w3.org/1999/xlink" width="32" height="32" viewBox="0 0 32 32">
<path fill="#000000" d="M32 10.208l-1.616 4.512v-0.016q-1.232-0.448-2.448 0.128t-1.664 1.824q-0.448 1.232 0.112 2.448 0.576 1.2 1.84 1.648v0.016l-1.616 4.512-24.096-8.608 1.584-4.464q1.232 0.448 2.448-0.128 1.184-0.544 1.648-1.808 0.448-1.232-0.128-2.448-0.544-1.168-1.808-1.632l1.632-4.592zM24.048 19.312l2.192-6.016q0.288-0.752-0.064-1.52-0.352-0.736-1.12-1.040l-12.032-4.368q-0.768-0.272-1.528 0.080t-1.032 1.104l-2.192 6.016q-0.288 0.784 0.064 1.536t1.12 1.024l12.032 4.384q0.352 0.128 0.688 0.128 0.624 0 1.144-0.368t0.728-0.96zM12.752 7.12l12.016 4.368q0.464 0.176 0.688 0.624 0.208 0.448 0.032 0.912l-2.192 6.016q-0.16 0.448-0.616 0.672t-0.92 0.048l-12.016-4.384q-0.464-0.16-0.68-0.616t-0.040-0.92l2.192-6.016q0.112-0.352 0.432-0.568t0.688-0.216q0.176 0 0.416 0.080zM23.664 26.544q0.848 0.656 1.92 0.656h0.016v4.8h-25.6v-4.736q1.344 0 2.256-0.944 0.944-0.912 0.944-2.256 0-1.312-0.944-2.256t-2.256-0.944v-4.864h1.68l-0.448 1.28 4.592 1.632q-0.624 0.192-1.024 0.712t-0.4 1.176v6.4q0 0.832 0.584 1.416t1.416 0.584h12.8q0.832 0 1.416-0.584t0.584-1.416v-2.8l1.328 0.48q0.288 1.040 1.136 1.664zM5.2 27.2v-6.4q0-0.496 0.352-0.848t0.848-0.352h1.328l12.672 4.528v3.072q0 0.496-0.352 0.848t-0.848 0.352h-12.8q-0.496 0-0.848-0.352t-0.352-0.848z"></path>
</svg>
