<?xml version="1.0" encoding="utf-8"?>
<!-- Generated by IcoMoon.io -->
<!DOCTYPE svg PUBLIC "-//W3C//DTD SVG 1.1//EN" "http://www.w3.org/Graphics/SVG/1.1/DTD/svg11.dtd">
<svg version="1.1" xmlns="http://www.w3.org/2000/svg" xmlns:xlink="http://www.w3.org/1999/xlink" width="20" height="20" viewBox="0 0 20 20">
<g>
</g>
	<path d="M10 5.090q2.94 0 5.36 1.51t3.64 3.99q-1.22 2.48-3.64 3.99t-5.36 1.51-5.36-1.51-3.64-3.99q1.22-2.48 3.64-3.99t5.36-1.51zM12.35 8.19q0-0.44-0.26-0.78t-0.66-0.46q-0.17-0.020-0.49-0.040-0.49 0.040-0.83 0.405t-0.34 0.875q0 0.53 0.38 0.91t0.91 0.38q0.54 0 0.915-0.38t0.375-0.91zM10 14.89q2.44 0 4.495-1.21t3.105-3.090q-0.69-1.23-1.89-2.085t-2.76-1.265q1.090 1.17 1.090 2.76 0 1.67-1.185 2.855t-2.855 1.185-2.855-1.185-1.185-2.855q0-1.59 1.090-2.76-1.56 0.41-2.76 1.265t-1.89 2.085q1.050 1.88 3.105 3.090t4.495 1.21z" fill="#000000"></path>
</svg>
