<?xml version="1.0" encoding="utf-8"?>
<!-- Generated by IcoMoon.io -->
<!DOCTYPE svg PUBLIC "-//W3C//DTD SVG 1.1//EN" "http://www.w3.org/Graphics/SVG/1.1/DTD/svg11.dtd">
<svg version="1.1" xmlns="http://www.w3.org/2000/svg" xmlns:xlink="http://www.w3.org/1999/xlink" width="20" height="20" viewBox="0 0 20 20">
<path d="M10 4.5c4 0 7.4 2.2 9 5.5-1.6 3.2-5 5.5-9 5.5s-7.4-2.3-9-5.5c1.6-3.2 5-5.5 9-5.5zM12.4 7.6c0-0.6-0.4-1.1-0.9-1.2-0.2 0-0.3 0-0.5 0-0.6 0.1-1.2 0.6-1.2 1.3s0.6 1.3 1.3 1.3c0.7-0.1 1.3-0.7 1.3-1.4zM10 14.3c3.4 0 6.2-1.9 7.6-4.3-0.9-1.7-2.6-2.8-4.6-3.3 0.6 0.7 1 1.6 1 2.7 0 2.2-1.8 4-4 4s-4-1.8-4-4c0-1.1 0.4-2 1.1-2.8-2.1 0.6-3.8 1.7-4.7 3.4 1.4 2.4 4.2 4.3 7.6 4.3z"></path>
</svg>
