<?xml version="1.0" encoding="utf-8"?>
<!-- Generated by IcoMoon.io -->
<!DOCTYPE svg PUBLIC "-//W3C//DTD SVG 1.1//EN" "http://www.w3.org/Graphics/SVG/1.1/DTD/svg11.dtd">
<svg version="1.1" xmlns="http://www.w3.org/2000/svg" xmlns:xlink="http://www.w3.org/1999/xlink" width="20" height="20" viewBox="0 0 20 20">
<g>
</g>
	<path d="M19 16v-13q0-0.41-0.295-0.705t-0.705-0.295h-15q-0.41 0-0.705 0.295t-0.295 0.705v13q0 0.41 0.295 0.705t0.705 0.295h15q0.41 0 0.705-0.295t0.295-0.705zM4 4h13v4h-13v-4zM5 5v2h3v-2h-3zM9 5v2h3v-2h-3zM13 5v2h3v-2h-3zM4.5 10q0.21 0 0.355 0.145t0.145 0.355-0.145 0.355-0.355 0.145-0.355-0.145-0.145-0.355 0.145-0.355 0.355-0.145zM6 10h4v1h-4v-1zM12 10h5v5h-5v-5zM4.5 12q0.21 0 0.355 0.145t0.145 0.355-0.145 0.355-0.355 0.145-0.355-0.145-0.145-0.355 0.145-0.355 0.355-0.145zM6 12h4v1h-4v-1zM13 12v2h3v-2h-3zM4.5 14q0.21 0 0.355 0.145t0.145 0.355-0.145 0.355-0.355 0.145-0.355-0.145-0.145-0.355 0.145-0.355 0.355-0.145zM6 14h4v1h-4v-1z" fill="#000000"></path>
</svg>
