<?xml version="1.0" encoding="utf-8"?>
<!-- Generated by IcoMoon.io -->
<!DOCTYPE svg PUBLIC "-//W3C//DTD SVG 1.1//EN" "http://www.w3.org/Graphics/SVG/1.1/DTD/svg11.dtd">
<svg version="1.1" xmlns="http://www.w3.org/2000/svg" xmlns:xlink="http://www.w3.org/1999/xlink" width="20" height="20" viewBox="0 0 20 20">
<g>
</g>
	<path d="M10 10l-7.46-2.98 0.46 10.98h-2l0.48-11.41-1.48-0.59 10-4 10 4zM10 5q-0.41 0-0.705 0.145t-0.295 0.355 0.295 0.355 0.705 0.145 0.705-0.145 0.295-0.355-0.295-0.355-0.705-0.145zM10 11l5.57-2.23q1.12 1.49 1.36 3.3-0.52-0.070-0.93-0.070-1.88 0-3.475 0.925t-2.525 2.485q-0.93-1.56-2.525-2.485t-3.475-0.925q-0.4 0-0.93 0.070 0.24-1.81 1.36-3.3z" fill="#000000"></path>
</svg>
