<?xml version="1.0" encoding="utf-8"?>
<!-- Generator: Adobe Illustrator 18.0.0, SVG Export Plug-In . SVG Version: 6.00 Build 0)  -->
<!DOCTYPE svg PUBLIC "-//W3C//DTD SVG 1.1//EN" "http://www.w3.org/Graphics/SVG/1.1/DTD/svg11.dtd">
<svg version="1.1" id="Layer_1" xmlns="http://www.w3.org/2000/svg" xmlns:xlink="http://www.w3.org/1999/xlink" x="0px" y="0px"
	 viewBox="0 0 20 20" enable-background="new 0 0 20 20" xml:space="preserve">
<path d="M16.9,1.2l1.4,1.4c0.2,0.2,0.3,0.4,0.3,0.7c0,0.3-0.1,0.5-0.3,0.7L14,8.3V17c0,0.6-0.4,1-1,1H4c-0.6,0-1-0.4-1-1V4
	c0-0.6,0.4-1,1-1h9.7l1.8-1.8c0.2-0.2,0.4-0.3,0.7-0.3C16.5,0.9,16.7,1,16.9,1.2z M11.2,9.7l5.4-5.4l-1.4-1.4L9.8,8.3l-0.7,2.1
	L11.2,9.7z"/>
</svg>
