<?xml version="1.0" encoding="utf-8"?>
<!-- Generated by IcoMoon.io -->
<!DOCTYPE svg PUBLIC "-//W3C//DTD SVG 1.1//EN" "http://www.w3.org/Graphics/SVG/1.1/DTD/svg11.dtd">
<svg version="1.1" xmlns="http://www.w3.org/2000/svg" xmlns:xlink="http://www.w3.org/1999/xlink" width="20" height="20" viewBox="0 0 20 20">
<path d="M18.5 16.5v-13c0-0.5-0.5-1-1-1h-15c-0.5 0-1 0.5-1 1v13c0 0.5 0.5 1 1 1h15c0.5 0 1-0.5 1-1zM3.5 4.5h13v4h-13v-4zM4.5 5.5v2h3v-2h-3zM8.5 5.5v2h3v-2h-3zM12.5 5.5v2h3v-2h-3zM4 10.5c0.3 0 0.5 0.2 0.5 0.5s-0.2 0.5-0.5 0.5-0.5-0.2-0.5-0.5 0.2-0.5 0.5-0.5zM5.5 10.5h4v1h-4v-1zM11.5 10.5h5v5h-5v-5zM4 12.5c0.3 0 0.5 0.2 0.5 0.5s-0.2 0.5-0.5 0.5-0.5-0.2-0.5-0.5 0.2-0.5 0.5-0.5zM5.5 12.5h4v1h-4v-1zM12.5 12.5v2h3v-2h-3zM4 14.5c0.3 0 0.5 0.2 0.5 0.5s-0.2 0.5-0.5 0.5-0.5-0.2-0.5-0.5 0.2-0.5 0.5-0.5zM5.5 14.5h4v1h-4v-1z"></path>
</svg>
