<?xml version="1.0" encoding="utf-8"?>
<!-- Generator: Adobe Illustrator 21.1.0, SVG Export Plug-In . SVG Version: 6.00 Build 0)  -->
<svg version="1.1" id="Layer_1" xmlns="http://www.w3.org/2000/svg" xmlns:xlink="http://www.w3.org/1999/xlink" x="0px" y="0px"
	 width="24px" height="24px" viewBox="0 0 24 24" style="enable-background:new 0 0 24 24;" xml:space="preserve">
<title>admin-site</title>
<path d="M12,1.2C6,1.2,1.2,6,1.2,12S6,22.8,12,22.8S22.8,18,22.8,12S18,1.2,12,1.2z M16.2,15.5c0,1.8-1,4-4.9,5.6c0.4-5-3-4.4-3.8-6
	c0.2-1.3,1-2.5,2.2-3.1C7.7,11.8,6,11,4.6,9.7c0.1,0.6,0.3,1.1,0.8,1.5c-0.9-0.4-1.7-1-2.3-1.8c1.2-3.9,4.7-6.6,8.7-6.8
	c-1,1.7-1.8,5,0,6.7c-1.8,0.3-3-2.1-4-1.2c-1.4,1.3,0.4,3,4.1,3.7C15.7,12.6,16.2,13.7,16.2,15.5z M17.8,10.7
	c-0.4-1.3,0.7-2.7,2-3.8c1.6,2.3,2,5.3,1,8C19.9,12.7,18.2,12.2,17.8,10.7L17.8,10.7z"/>
</svg>
