<!-- Generated by IcoMoon.io -->
<svg version="1.1" xmlns="http://www.w3.org/2000/svg" width="24" height="24" viewBox="0 0 24 24">
<title>admin-site</title>
<path d="M10.8 0c-5.965 0-10.8 4.835-10.8 10.8s4.835 10.8 10.8 10.8c5.965 0 10.8-4.835 10.8-10.8s-4.835-10.8-10.8-10.8zM14.952 14.34c0 1.764-0.96 3.96-4.872 5.64 0.36-5.004-3.024-4.428-3.84-6 0.151-1.322 0.965-2.475 2.16-3.060-1.862-0.319-3.599-1.15-5.016-2.4 0.060 0.565 0.335 1.085 0.768 1.452-0.939-0.354-1.749-0.981-2.328-1.8 1.173-3.87 4.66-6.578 8.7-6.756-1.008 1.656-1.8 4.956 0 6.684-1.848 0.3-3.012-2.1-4.032-1.152-1.356 1.272 0.396 3.012 4.104 3.696 3.948 0.708 4.392 1.896 4.356 3.696zM16.56 9.54c-0.384-1.332 0.744-2.676 2.028-3.768 1.628 2.346 2.004 5.34 1.008 8.016-0.924-2.268-2.604-2.784-3.036-4.284v0.036z"/>
</svg>
