<?xml version="1.0" encoding="utf-8"?>
<!-- Generator: Adobe Illustrator 21.1.0, SVG Export Plug-In . SVG Version: 6.00 Build 0)  -->
<svg version="1.1" id="Layer_1" xmlns="http://www.w3.org/2000/svg" xmlns:xlink="http://www.w3.org/1999/xlink" x="0px" y="0px"
	 width="24px" height="24px" viewBox="0 0 24 24" style="enable-background:new 0 0 24 24;" xml:space="preserve">
<title>admin-site-alt2</title>
<path d="M12,1.2C6,1.2,1.2,6,1.2,12S6,22.8,12,22.8S22.8,18,22.8,12S18,1.2,12,1.2z M15.5,16c0,0.4,0.2,0.8,0.4,0.8
	c0.3,0,0.6-0.3,0.7-0.7l0.2,0.1c0.9,0.5,1.3,1.5,1,2.4c-0.2,0.8-0.9,1.4-1.7,1.5c-0.6-1.5-2.5,0.1-4.3-0.3c-0.7-0.2-1.3-0.7-1.6-1.4
	C11.7,18.2,13.7,16.3,15.5,16z M10.8,14.7c1.1,0,2-0.8,2.2-1.9c0.5,0.6,0.5,1.6-0.1,2.2c-0.3,0.3-0.7,0.4-1.1,0.3S11,15.1,10.8,14.7
	z M14.4,13.8c0.5,0.5,3.6-0.1,4.2,1.3C17.5,14.9,15.1,15.9,14.4,13.8L14.4,13.8z M12.9,7.7c0,0.1,0,0.2,0,0.3
	c-0.8-0.9-1.6-1.3-1.9-0.7s1.2,1.3,0.9,2.3s-1.5,0.7-2.3,1.9S9,14.5,11.1,16c-1.4-0.2-2.6-1.2-3-2.5c-0.5-1.4-0.1-2.7-0.9-3
	C6,10.2,4.8,11.7,4.8,13c-1.5-1.5,0.1-3.4-1.4-5c2-4.3,7-6.5,11.6-5C13.6,4.2,12.9,5.9,12.9,7.7C12.9,7.7,12.9,7.7,12.9,7.7z"/>
</svg>
