<?xml version="1.0" encoding="utf-8"?>
<!-- Generator: Adobe Illustrator 21.1.0, SVG Export Plug-In . SVG Version: 6.00 Build 0)  -->
<svg version="1.1" id="Layer_1" xmlns="http://www.w3.org/2000/svg" xmlns:xlink="http://www.w3.org/1999/xlink" x="0px" y="0px"
	 width="24px" height="24px" viewBox="0 0 24 24" style="enable-background:new 0 0 24 24;" xml:space="preserve">
<title>admin-settings</title>
<path d="M21,19.2V4.8c0-0.7-0.5-1.2-1.2-1.2H4.2C3.5,3.6,3,4.1,3,4.8v14.4c0,0.7,0.5,1.2,1.2,1.2h15.6C20.5,20.4,21,19.9,21,19.2z
	 M9,13.2h1.2c0.7,0,1.2,0.5,1.2,1.2s-0.5,1.2-1.2,1.2H9v1.8C9,17.7,8.7,18,8.4,18s-0.6-0.3-0.6-0.6v-1.8H6.6c-0.7,0-1.2-0.5-1.2-1.2
	s0.5-1.2,1.2-1.2h1.2V6.6C7.8,6.3,8.1,6,8.4,6S9,6.3,9,6.6V13.2z M15,10.8h-1.2c-0.7,0-1.2-0.5-1.2-1.2s0.5-1.2,1.2-1.2H15V6.6
	C15,6.3,15.3,6,15.6,6s0.6,0.3,0.6,0.6v1.8h1.2c0.7,0,1.2,0.5,1.2,1.2s-0.5,1.2-1.2,1.2h-1.2v6.6c0,0.3-0.3,0.6-0.6,0.6
	S15,17.7,15,17.4C15,17.4,15,10.8,15,10.8z"/>
</svg>
