<!-- Generated by IcoMoon.io -->
<svg version="1.1" xmlns="http://www.w3.org/2000/svg" width="24" height="24" viewBox="0 0 24 24">
<title>admin-post</title>
<path d="M12.528 3.624l2.184-2.184 7.632 7.62-2.196 2.184c-1.26-0.816-2.976-0.684-4.092 0.432l-0.9 0.9c-1.104 1.116-1.248 2.82-0.42 4.092l-2.196 2.184-2.892-2.892-3.36 3.348c-0.504 0.504-4.056 3.252-4.56 2.748s2.232-4.068 2.736-4.572l3.348-3.348-2.892-2.904 2.196-2.184c1.26 0.828 2.976 0.684 4.080-0.432l0.9-0.9c1.116-1.104 1.26-2.82 0.432-4.092z"/>
</svg>
