<?xml version="1.0" encoding="utf-8"?>
<!-- Generator: Adobe Illustrator 21.1.0, SVG Export Plug-In . SVG Version: 6.00 Build 0)  -->
<svg version="1.1" id="Layer_1" xmlns="http://www.w3.org/2000/svg" xmlns:xlink="http://www.w3.org/1999/xlink" x="0px" y="0px"
	 width="24px" height="24px" viewBox="0 0 24 24" style="enable-background:new 0 0 24 24;" xml:space="preserve">
<title>admin-site-alt</title>
<path d="M12,1.2C6,1.2,1.2,6,1.2,12S6,22.8,12,22.8S22.8,18,22.8,12S18,1.2,12,1.2z M21,9c-0.3,1.1-1.1,2-2.1,2.5
	c-0.5-2-2-3.7-3.9-4.5c0.2-0.5,0.5-1,0.9-1.3c-0.5-0.3-1.2-0.5-1.6,0.1c-0.6,0.8,0,1.9,0.3,2.4v0.2c-0.7-0.4-1.2-1-1.5-1.7
	c-1.2,0-2.3,0.2-3.3,0.8c-0.1-0.7,0-1.4,0.2-2c0.9,0.1,1.7-0.3,2.3-1c0.6-0.6-0.2-1.4-0.7-1.9H12c1.6,0,3.2,0.4,4.7,1.2
	c1.6,1.2,2.6,3.1,2.7,5.1c0.3,0,0.8-0.7,1.1-1.1C20.7,8.1,20.9,8.5,21,9L21,9z M12,21.4c-2.5-2.5,0.3-4.5-1.2-6.3
	c-1.1-1-2.7-0.3-3.7-1.5c-0.3-1.8,0.3-3.6,1.7-4.7c0.6-0.5,4.8-1.2,6.5,0.3c1,0.9,1.7,2,2,3.3c0.6,0,1.1-0.1,1.6-0.3
	C19.4,15.7,15.1,20.2,12,21.4z M7.4,3.7c0.9-0.4,2,0,2.6,0.8C9.5,5,8.8,5.3,8.2,5.4c0-0.4,0.1-0.7,0.2-1C8.4,4.3,7.4,3.7,7.4,3.7z"
	/>
</svg>
