<?xml version="1.0" encoding="utf-8"?>
<!-- Generator: Adobe Illustrator 21.1.0, SVG Export Plug-In . SVG Version: 6.00 Build 0)  -->
<svg version="1.1" id="Layer_1" xmlns="http://www.w3.org/2000/svg" xmlns:xlink="http://www.w3.org/1999/xlink" x="0px" y="0px"
	 width="24px" height="24px" viewBox="0 0 24 24" style="enable-background:new 0 0 24 24;" xml:space="preserve">
<title>admin-generic</title>
<path d="M22.2,13.8h-2.6c-0.2,0.8-0.5,1.6-1,2.3l1.8,1.8l-2.5,2.5l-1.8-1.8c-0.7,0.4-1.5,0.8-2.3,0.9v2.6h-3.6v-2.6
	c-0.8-0.2-1.6-0.5-2.3-0.9l-1.8,1.8l-2.5-2.5l1.8-1.8c-0.4-0.7-0.8-1.5-0.9-2.3H1.8v-3.6h2.6c0.2-0.8,0.5-1.6,1-2.3L3.5,6.1L6,3.6
	l1.8,1.8c0.7-0.4,1.5-0.8,2.3-1V1.8h3.6v2.6c0.8,0.2,1.6,0.5,2.3,0.9l1.8-1.8L20.3,6l-1.8,1.8c0.4,0.7,0.8,1.5,1,2.3h2.7V13.8z
	 M12,15.6c2,0,3.6-1.6,3.6-3.6S14,8.4,12,8.4S8.4,10,8.4,12S10,15.6,12,15.6z"/>
</svg>
