<!-- Generated by IcoMoon.io -->
<svg version="1.1" xmlns="http://www.w3.org/2000/svg" width="24" height="24" viewBox="0 0 24 24">
<title>admin-media</title>
<path d="M15.6 13.2v-8.4c0-0.66-0.54-1.2-1.2-1.2h-2.004l-1.596-2.4h-4.8l-1.596 2.4h-2.004c-0.66 0-1.2 0.54-1.2 1.2v8.4c0 0.66 0.54 1.2 1.2 1.2h12c0.66 0 1.2-0.54 1.2-1.2zM8.4 5.4c1.656 0 3 1.344 3 3s-1.344 3-3 3-3-1.344-3-3 1.344-3 3-3zM16.8 7.2h6v12.6c0 1.656-1.344 3-3 3s-3-1.344-3-3 1.344-3 3-3c0.204 0 0.408 0.024 0.6 0.060v-6.060h-3.6v-3.6zM12 16.86v-1.26h2.4v4.2c0 1.656-1.344 3-3 3s-3-1.344-3-3 1.344-3 3-3c0.204 0 0.408 0.024 0.6 0.060z"/>
</svg>
