<!-- Generated by IcoMoon.io -->
<svg version="1.1" xmlns="http://www.w3.org/2000/svg" width="24" height="24" viewBox="0 0 24 24">
<title>admin-settings</title>
<path d="M21.6 19.2v-14.4c0-0.66-0.54-1.2-1.2-1.2h-15.6c-0.66 0-1.2 0.54-1.2 1.2v14.4c0 0.66 0.54 1.2 1.2 1.2h15.6c0.66 0 1.2-0.54 1.2-1.2zM9.6 13.2h1.2c0.66 0 1.2 0.54 1.2 1.2s-0.54 1.2-1.2 1.2h-1.2v1.8c0 0.336-0.264 0.6-0.6 0.6s-0.6-0.264-0.6-0.6v-1.8h-1.2c-0.66 0-1.2-0.54-1.2-1.2s0.54-1.2 1.2-1.2h1.2v-6.6c0-0.336 0.264-0.6 0.6-0.6s0.6 0.264 0.6 0.6v6.6zM15.6 10.8h-1.2c-0.66 0-1.2-0.54-1.2-1.2s0.54-1.2 1.2-1.2h1.2v-1.8c0-0.336 0.264-0.6 0.6-0.6s0.6 0.264 0.6 0.6v1.8h1.2c0.66 0 1.2 0.54 1.2 1.2s-0.54 1.2-1.2 1.2h-1.2v6.6c0 0.336-0.264 0.6-0.6 0.6s-0.6-0.264-0.6-0.6v-6.6z"/>
</svg>
