<!-- Generated by IcoMoon.io -->
<svg version="1.1" xmlns="http://www.w3.org/2000/svg" width="24" height="24" viewBox="0 0 24 24">
<title>admin-tools</title>
<path d="M20.016 11.724c-1.608 1.608-3.96 2.004-5.94 1.188l-6.492 7.824c-1.188 1.188-3.108 1.188-4.296 0s-1.188-3.108 0-4.284l7.824-6.504c-0.816-1.98-0.42-4.332 1.188-5.94 1.536-1.536 3.744-1.944 5.664-1.272l-3.468 3.468 3.384 3.384 3.432-3.444c0.636 1.896 0.216 4.068-1.296 5.58zM4.572 19.452c0.48 0.468 1.248 0.468 1.716 0 0.48-0.48 0.48-1.248 0-1.716-0.468-0.48-1.236-0.48-1.716 0-0.468 0.468-0.468 1.236 0 1.716z"/>
</svg>
