<!-- Generated by IcoMoon.io -->
<svg version="1.1" xmlns="http://www.w3.org/2000/svg" width="24" height="24" viewBox="0 0 24 24">
<title>admin-generic</title>
<path d="M21.6 14.4h-2.616c-0.204 0.84-0.528 1.62-0.972 2.316l1.848 1.848-2.52 2.52-1.848-1.848c-0.696 0.432-1.476 0.756-2.292 0.948v2.616h-3.6v-2.616c-0.816-0.192-1.596-0.516-2.292-0.948l-1.848 1.848-2.544-2.544 1.848-1.848c-0.432-0.696-0.756-1.476-0.948-2.292h-2.616v-3.564h2.604c0.192-0.84 0.528-1.62 0.96-2.328l-1.848-1.848 2.52-2.52 1.848 1.848c0.696-0.444 1.488-0.768 2.316-0.972v-2.616h3.6v2.616c0.816 0.192 1.596 0.516 2.292 0.948l1.848-1.848 2.544 2.544-1.848 1.848c0.432 0.708 0.768 1.488 0.96 2.328h2.604v3.564zM11.4 16.2c1.992 0 3.6-1.608 3.6-3.6s-1.608-3.6-3.6-3.6-3.6 1.608-3.6 3.6 1.608 3.6 3.6 3.6z"/>
</svg>
