<!-- Generated by IcoMoon.io -->
<svg version="1.1" xmlns="http://www.w3.org/2000/svg" width="24" height="24" viewBox="0 0 24 24">
<title>admin-customizer</title>
<path d="M21.996 4.284c0 0 0.324-0.96-0.372-1.632-0.636-0.624-1.464-0.288-1.464-0.288-0.732 0.36-6.912 4.164-9.204 6.684-1.032 1.152-2.472 4.548-1.308 5.784 1.104 1.176 4.752-0.204 5.748-1.2 2.472-2.472 6.252-8.604 6.6-9.348zM1.68 21.18c2.844-1.872 1.752-4.092 3.876-5.568 1.116-0.78 2.664-0.744 3.696 0.348 0.756 0.804 0.96 3.084-0.192 4.152-1.884 1.74-4.8 1.86-7.38 1.068z"/>
</svg>
