<?xml version="1.0" encoding="utf-8"?>
<!-- Generator: Adobe Illustrator 21.1.0, SVG Export Plug-In . SVG Version: 6.00 Build 0)  -->
<svg version="1.1" id="Layer_1" xmlns="http://www.w3.org/2000/svg" xmlns:xlink="http://www.w3.org/1999/xlink" x="0px" y="0px"
	 width="24px" height="24px" viewBox="0 0 24 24" style="enable-background:new 0 0 24 24;" xml:space="preserve">
<title>admin-site-alt3</title>
<path d="M12,1.2C6,1.2,1.2,6,1.2,12S6,22.8,12,22.8S22.8,18,22.8,12S18,1.2,12,1.2z M2.5,12.8h3c0,1.1,0.2,2.2,0.5,3.2H3.4
	C2.9,15,2.6,13.9,2.5,12.8C2.5,12.8,2.5,12.8,2.5,12.8z M12.8,6.3V2.6C14,3.1,14.9,3.9,15.5,5c0.2,0.4,0.5,0.8,0.6,1.3
	C16.1,6.3,12.8,6.3,12.8,6.3z M16.7,8c0.3,1.1,0.4,2.1,0.5,3.2h-4.4V8C12.8,8,16.7,8,16.7,8z M11.2,2.6v3.7H7.9
	C8.1,5.9,8.3,5.5,8.5,5C9.1,3.9,10,3.1,11.2,2.6C11.2,2.6,11.2,2.6,11.2,2.6z M11.2,8v3.2H6.8C6.9,10.1,7.1,9,7.3,8
	C7.3,8,11.2,8,11.2,8z M5.5,11.2h-3C2.6,10.1,2.9,9,3.4,7.9H6C5.7,9,5.6,10.1,5.5,11.2L5.5,11.2z M6.8,12.8h4.3v3.2H7.3
	C7.1,15,6.9,13.9,6.8,12.8C6.8,12.8,6.8,12.8,6.8,12.8z M11.2,17.6v3.7C10,20.9,9.1,20,8.5,18.9c-0.2-0.4-0.5-0.8-0.6-1.3
	C7.9,17.6,11.2,17.6,11.2,17.6z M12.8,21.3v-3.6h3.3c-0.2,0.4-0.4,0.9-0.6,1.3C14.9,20.1,14,20.9,12.8,21.3
	C12.8,21.4,12.8,21.3,12.8,21.3z M12.8,16v-3.2h4.3c0,1.1-0.2,2.2-0.5,3.2H12.8z M18.5,12.8h3c-0.1,1.1-0.4,2.2-0.9,3.2H18
	C18.3,15,18.4,13.9,18.5,12.8C18.5,12.8,18.5,12.8,18.5,12.8z M18.5,11.1C18.4,10.1,18.3,9,18,8h2.6c0.5,1,0.8,2.1,0.9,3.2
	C21.5,11.2,18.5,11.1,18.5,11.1z M19.7,6.3h-2.1c-0.4-1.1-1-2.1-1.7-3C17.3,4,18.6,5,19.7,6.3L19.7,6.3z M8.1,3.3
	c-0.7,0.9-1.3,1.9-1.7,3H4.4C5.4,5,6.7,4,8.1,3.3C8.1,3.3,8.1,3.3,8.1,3.3z M4.4,17.7h2.1c0.4,1.1,1,2.1,1.7,3
	C6.7,20.1,5.4,19,4.4,17.7L4.4,17.7z M15.8,20.7c0.7-0.9,1.3-1.9,1.7-3h2.1C18.6,19,17.3,20,15.8,20.7L15.8,20.7z"/>
</svg>
