<!-- Generated by IcoMoon.io -->
<svg version="1.1" xmlns="http://www.w3.org/2000/svg" width="24" height="24" viewBox="0 0 24 24">
<title>buddicons-buddypress-logo</title>
<path d="M12 0c6.624 0 12 5.376 12 12s-5.376 12-12 12-12-5.376-12-12 5.376-12 12-12zM12 0.6c-6.3 0-11.4 5.1-11.4 11.4s5.1 11.4 11.4 11.4 11.4-5.1 11.4-11.4-5.1-11.4-11.4-11.4zM12 1.8c5.64 0 10.2 4.56 10.2 10.2s-4.56 10.2-10.2 10.2-10.2-4.56-10.2-10.2 4.56-10.2 10.2-10.2zM14.16 3.852c-0.684 0-1.32 0.204-1.86 0.54 1.872 0.444 3.276 2.124 3.276 4.14 0 0.828-0.252 1.596-0.66 2.244 1.572-0.348 2.748-1.74 2.748-3.42 0-1.932-1.572-3.504-3.504-3.504zM11.304 5.052c-1.932 0-3.504 1.572-3.504 3.516 0 1.932 1.572 3.504 3.504 3.504 1.944 0 3.516-1.572 3.516-3.504 0-1.944-1.572-3.516-3.516-3.516zM16.404 11.064l-0.612 0.708c2.808 0.828 2.94 4.332 2.94 4.332h1.536c0-5.652-3.864-5.040-3.864-5.040zM13.884 12.024l-2.544 2.508-2.544-2.508c-5.052 0.264-4.128 5.976-4.128 5.976h13.296c0.564-5.976-4.080-5.976-4.080-5.976z"/>
</svg>
