<!-- Generated by IcoMoon.io -->
<svg version="1.1" xmlns="http://www.w3.org/2000/svg" width="24" height="24" viewBox="0 0 24 24">
<title>buddicons-friends</title>
<path d="M10.5 6.924c0-1.656-2.1-4.524-2.1-4.524s-2.1 2.868-2.1 4.524 0.78 2.076 2.1 2.076 2.1-0.42 2.1-2.076zM17.7 6.924c0-1.656-2.1-4.524-2.1-4.524s-2.1 2.868-2.1 4.524 0.78 2.076 2.1 2.076 2.1-0.42 2.1-2.076zM10.8 20.4v-9.6c0-0.66-0.54-1.2-1.2-1.2h-2.4c-0.66 0-1.2 0.54-1.2 1.2v9.6c0 0.66 0.54 1.2 1.2 1.2h2.4c0.66 0 1.2-0.54 1.2-1.2zM18 20.4v-9.6c0-0.66-0.54-1.2-1.2-1.2h-2.4c-0.66 0-1.2 0.54-1.2 1.2v9.6c0 0.66 0.54 1.2 1.2 1.2h2.4c0.66 0 1.2-0.54 1.2-1.2zM7.2 13.2l2.4-1.2v2.4l-2.4 1.2v-2.4zM14.4 13.2l2.4-1.2v2.4l-2.4 1.2v-2.4zM7.2 16.8l2.4-1.2v2.4l-2.4 1.2v-2.4zM14.4 16.8l2.4-1.2v2.4l-2.4 1.2v-2.4z"/>
</svg>
