<!-- Generated by IcoMoon.io -->
<svg version="1.1" xmlns="http://www.w3.org/2000/svg" width="24" height="24" viewBox="0 0 24 24">
<title>buddicons-forums</title>
<path d="M16.2 8.4h-8.4c-0.996 0-1.8-0.804-1.8-1.8s0.804-1.8 1.8-1.8h1.908c-0.060-0.192-0.108-0.384-0.108-0.6 0-0.996 0.804-1.8 1.8-1.8h1.2c0.996 0 1.8 0.804 1.8 1.8 0 0.216-0.048 0.408-0.108 0.6h1.908c0.996 0 1.8 0.804 1.8 1.8s-0.804 1.8-1.8 1.8zM4.8 9.6h14.4c0.66 0 1.2 0.54 1.2 1.2s-0.54 1.2-1.2 1.2h-14.4c-0.66 0-1.2-0.54-1.2-1.2s0.54-1.2 1.2-1.2zM6 13.2h12c0.66 0 1.2 0.54 1.2 1.2s-0.54 1.2-1.2 1.2h-12c-0.66 0-1.2-0.54-1.2-1.2s0.54-1.2 1.2-1.2zM8.4 16.8h7.2c0.66 0 1.2 0.54 1.2 1.2s-0.54 1.2-1.2 1.2h-1.308c0.060 0.192 0.108 0.384 0.108 0.6 0 0.996-0.804 1.8-1.8 1.8h-1.2c-0.996 0-1.8-0.804-1.8-1.8 0-0.216 0.048-0.408 0.108-0.6h-1.308c-0.66 0-1.2-0.54-1.2-1.2s0.54-1.2 1.2-1.2z"/>
</svg>
