<!-- Generated by IcoMoon.io -->
<svg version="1.1" xmlns="http://www.w3.org/2000/svg" width="24" height="24" viewBox="0 0 24 24">
<title>buddicons-bbpress-logo</title>
<path d="M10.2 15.12c0.36-1.56 0-2.76-1.32-2.76-0.96 0-1.92 0.72-2.16 1.8l-0.36 2.040c-0.36 1.2 0.36 1.8 1.2 1.8 1.44 0 2.28-1.32 2.64-2.88zM5.4 7.44v0c-0.96 1.32-1.44 2.88-1.44 4.56 0 1.2 0.24 2.28 0.72 3.36l1.2-5.52c0.36-2.040 0.48-2.4-0.48-2.4zM16.56 15.12c0.36-1.56 0-2.76-1.32-2.76-0.96 0-1.92 0.72-2.16 1.8l-0.48 2.040c-0.24 1.32 0.48 1.92 1.32 1.92 1.32-0.12 2.28-1.44 2.64-3zM12 3.96c-2.4 0-4.68 1.080-6.12 2.76 0.72-0.12 1.68-0.24 2.16-0.36 0.24 0 0.24 0.12 0.24 0.24 0 0.24-1.2 5.76-1.2 5.76 0.6-0.36 1.44-0.84 2.16-0.84 1.080 0 1.8 0.48 2.28 1.080l0.6-2.88c0.48-1.92 0.48-2.28-0.48-2.28-0.48 0-0.48-0.6 0-0.72 0.72-0.12 2.16-0.24 2.76-0.36 0.24 0 0.24 0.12 0.24 0.24l-1.2 5.76c0.6-0.48 1.44-0.84 2.28-0.84 2.040 0 3 1.56 2.52 3.6-0.36 2.040-2.4 3.6-4.56 3.6-1.56 0-2.52-0.84-2.76-1.68-0.84 0.96-2.040 1.56-3.36 1.68 1.32 0.84 2.88 1.32 4.44 1.32 4.44 0 8.040-3.6 8.040-8.040s-3.6-8.040-8.040-8.040zM12 2.4c-5.28 0-9.6 4.32-9.6 9.6s4.32 9.6 9.6 9.6 9.6-4.32 9.6-9.6-4.32-9.6-9.6-9.6zM12 21c-2.52 0-4.8-0.96-6.36-2.64-0.36-0.48-0.84-0.96-1.2-1.44-0.84-1.44-1.44-3.12-1.44-4.92 0-4.92 4.080-9 9-9s9 4.080 9 9-4.080 9-9 9z"/>
</svg>
