<!-- Generated by IcoMoon.io -->
<svg version="1.1" xmlns="http://www.w3.org/2000/svg" width="24" height="24" viewBox="0 0 24 24">
<title>building</title>
<path d="M3.6 24h16.8v-24h-16.8v24zM8.4 3.6h-2.4v-2.4h2.4v2.4zM13.2 3.6h-2.4v-2.4h2.4v2.4zM18 3.6h-2.4v-2.4h2.4v2.4zM8.4 7.2h-2.4v-2.4h2.4v2.4zM13.2 7.2h-2.4v-2.4h2.4v2.4zM18 7.2h-2.4v-2.4h2.4v2.4zM8.4 10.8h-2.4v-2.4h2.4v2.4zM13.2 10.8h-2.4v-2.4h2.4v2.4zM18 10.8h-2.4v-2.4h2.4v2.4zM8.4 14.4h-2.4v-2.4h2.4v2.4zM13.2 14.4h-2.4v-2.4h2.4v2.4zM18 14.4h-2.4v-2.4h2.4v2.4zM13.2 22.8h-7.2v-7.2h7.2v7.2zM18 18h-2.4v-2.4h2.4v2.4zM18 21.6h-2.4v-2.4h2.4v2.4z"/>
</svg>
