<!-- Generated by IcoMoon.io -->
<svg version="1.1" xmlns="http://www.w3.org/2000/svg" width="24" height="24" viewBox="0 0 24 24">
<title>calendar</title>
<path d="M18 4.8h3.6v16.8h-19.2v-16.8h3.6v-1.2c0-0.996 0.804-1.8 1.8-1.8s1.8 0.804 1.8 1.8v1.2h4.8v-1.2c0-0.996 0.804-1.8 1.8-1.8s1.8 0.804 1.8 1.8v1.2zM7.2 3.6v3c0 0.336 0.264 0.6 0.6 0.6s0.6-0.264 0.6-0.6v-3c0-0.336-0.264-0.6-0.6-0.6s-0.6 0.264-0.6 0.6zM15.6 3.6v3c0 0.336 0.264 0.6 0.6 0.6s0.6-0.264 0.6-0.6v-3c0-0.336-0.264-0.6-0.6-0.6s-0.6 0.264-0.6 0.6zM20.4 20.4v-10.8h-16.8v10.8h16.8zM8.4 19.2v-8.4h-2.4v8.4h2.4zM13.2 19.2v-8.4h-2.4v8.4h2.4zM18 19.2v-8.4h-2.4v8.4h2.4z"/>
</svg>
