<!-- Generated by IcoMoon.io -->
<svg version="1.1" xmlns="http://www.w3.org/2000/svg" width="24" height="24" viewBox="0 0 24 24">
<title>calendar-alt</title>
<path d="M18 4.8h3.6v18h-19.2v-18h3.6v-1.2c0-0.492 0.18-0.912 0.528-1.272 0.348-0.348 0.78-0.528 1.272-0.528s0.924 0.18 1.272 0.528c0.348 0.36 0.528 0.78 0.528 1.272v1.2h4.8v-1.2c0-0.492 0.18-0.912 0.528-1.272 0.348-0.348 0.78-0.528 1.272-0.528s0.924 0.18 1.272 0.528c0.348 0.36 0.528 0.78 0.528 1.272v1.2zM7.2 3.6v3c0 0.168 0.060 0.312 0.18 0.432 0.108 0.108 0.252 0.168 0.42 0.168s0.312-0.060 0.42-0.168c0.12-0.12 0.18-0.264 0.18-0.432v-3c0-0.168-0.060-0.312-0.18-0.42-0.108-0.12-0.252-0.18-0.42-0.18s-0.312 0.060-0.42 0.18c-0.12 0.108-0.18 0.252-0.18 0.42zM15.6 3.6v3c0 0.168 0.060 0.312 0.168 0.432 0.12 0.108 0.264 0.168 0.432 0.168s0.312-0.060 0.432-0.168c0.108-0.12 0.168-0.264 0.168-0.432v-3c0-0.168-0.060-0.312-0.168-0.42-0.12-0.12-0.264-0.18-0.432-0.18s-0.312 0.060-0.432 0.18c-0.108 0.108-0.168 0.252-0.168 0.42zM20.4 21.6v-12h-16.8v12h16.8zM8.4 10.8v2.4h-2.4v-2.4h2.4zM10.8 10.8h2.4v2.4h-2.4v-2.4zM15.6 13.2v-2.4h2.4v2.4h-2.4zM8.4 14.4v2.4h-2.4v-2.4h2.4zM10.8 14.4h2.4v2.4h-2.4v-2.4zM15.6 16.8v-2.4h2.4v2.4h-2.4zM8.4 18v2.4h-2.4v-2.4h2.4zM13.2 20.4h-2.4v-2.4h2.4v2.4zM18 20.4h-2.4v-2.4h2.4v2.4z"/>
</svg>
