<!-- Generated by IcoMoon.io -->
<svg version="1.1" xmlns="http://www.w3.org/2000/svg" width="24" height="24" viewBox="0 0 24 24">
<title>cart</title>
<path d="M7.2 15.6h10.8c0.66 0 1.2 0.54 1.2 1.2s-0.54 1.2-1.2 1.2h-12c-0.66 0-1.2-0.54-1.2-1.2v-12h-2.4c-0.66 0-1.2-0.54-1.2-1.2s0.54-1.2 1.2-1.2h3.6c0.66 0 1.2 0.54 1.2 1.2v2.4h15.6l-4.8 8.4h-10.8v1.2zM6.6 19.2c0.996 0 1.8 0.804 1.8 1.8s-0.804 1.8-1.8 1.8-1.8-0.804-1.8-1.8 0.804-1.8 1.8-1.8zM17.4 19.2c0.996 0 1.8 0.804 1.8 1.8s-0.804 1.8-1.8 1.8-1.8-0.804-1.8-1.8 0.804-1.8 1.8-1.8z"/>
</svg>
