<?xml version="1.0" encoding="utf-8"?>
<!-- Generator: Adobe Illustrator 21.1.0, SVG Export Plug-In . SVG Version: 6.00 Build 0)  -->
<svg version="1.1" id="Layer_1" xmlns="http://www.w3.org/2000/svg" xmlns:xlink="http://www.w3.org/1999/xlink" x="0px" y="0px"
	 width="24px" height="24px" viewBox="0 0 24 24" enable-background="new 0 0 24 24" xml:space="preserve">
<title>chart-line</title>
<path d="M21.6,4.2c0,0.7-0.5,1.4-1.1,1.7v15.7H2.4l5.1-8.1c-0.2-0.3-0.3-0.6-0.3-0.9c0-1,0.8-1.8,1.8-1.8s1.8,0.8,1.8,1.8
	c0,0.2,0,0.3-0.1,0.4l1.7,0.8c0.3-0.4,0.8-0.6,1.3-0.6c0.2,0,0.4,0,0.6,0.1l4.3-7.7C18.3,5.3,18,4.8,18,4.2c0-1,0.8-1.8,1.8-1.8
	c0.2,0,0.4,0,0.6,0.1l0.1,0l0,0C21.1,2.8,21.6,3.5,21.6,4.2z M19.3,20.4V7l-3.9,7.1c0.2,0.3,0.3,0.6,0.3,0.9c0,1-0.8,1.8-1.8,1.8
	S12,16,12,15l0-0.1l-2-0.9c-0.3,0.2-0.7,0.3-1.1,0.3c-0.2,0-0.4,0-0.6-0.1l-3.8,6.1C4.5,20.4,19.3,20.4,19.3,20.4z"/>
</svg>
