<!-- Generated by IcoMoon.io -->
<svg version="1.1" xmlns="http://www.w3.org/2000/svg" width="24" height="24" viewBox="0 0 24 24">
<title>clock</title>
<path d="M12 2.4c5.304 0 9.6 4.296 9.6 9.6s-4.296 9.6-9.6 9.6-9.6-4.296-9.6-9.6 4.296-9.6 9.6-9.6zM12 19.2c3.972 0 7.2-3.228 7.2-7.2s-3.228-7.2-7.2-7.2-7.2 3.228-7.2 7.2 3.228 7.2 7.2 7.2zM11.148 12.852c0.084 0.060 0.168 0.12 0.276 0.18l-0.024 0.024 5.4 2.544-3.636-3.828-1.164-5.772-1.164 5.772h0.012c0 0.024-0.012 0.060-0.024 0.108s-0.024 0.084-0.024 0.12c0 0.336 0.12 0.624 0.348 0.852z"/>
</svg>
