<?xml version="1.0" encoding="utf-8"?>
<!-- Generator: Adobe Illustrator 21.1.0, SVG Export Plug-In . SVG Version: 6.00 Build 0)  -->
<svg version="1.1" id="Layer_1" xmlns="http://www.w3.org/2000/svg" xmlns:xlink="http://www.w3.org/1999/xlink" x="0px" y="0px"
	 width="24px" height="24px" viewBox="0 0 24 24" enable-background="new 0 0 24 24" xml:space="preserve">
<title>cloud</title>
<path d="M18,11.6c2.1,0.2,3.8,2,3.8,4.2c0,2.3-1.9,4.2-4.2,4.2h-12c-2.3,0-4.2-1.9-4.2-4.2c0-2.1,1.6-3.9,3.7-4.2
	C5,11.4,5,11.2,5,11c0-1.7,1.3-3,3-3c0.4,0,0.8,0.1,1.1,0.2c0.8-1.6,2.4-2.6,4.3-2.6c2.7,0,4.8,2.1,4.8,4.8
	C18.2,10.8,18.1,11.2,18,11.6z"/>
</svg>
