<!-- Generated by IcoMoon.io -->
<svg version="1.1" xmlns="http://www.w3.org/2000/svg" width="24" height="24" viewBox="0 0 24 24">
<title>controls-volumeon</title>
<path d="M2.4 8.4h4.8l6-4.8v16.8l-6-4.8h-4.8v-7.2zM17.628 5.448c0.156 0.060 3.972 1.656 3.972 6.552s-3.816 6.492-3.972 6.552c-0.072 0.036-0.156 0.048-0.228 0.048-0.24 0-0.468-0.144-0.552-0.372-0.132-0.312 0.024-0.66 0.324-0.78 0.132-0.060 3.228-1.38 3.228-5.448 0-4.092-3.192-5.436-3.228-5.448-0.3-0.12-0.456-0.468-0.324-0.78 0.12-0.3 0.468-0.456 0.78-0.324zM19.2 12c0 3.084-2.676 4.116-2.784 4.164-0.072 0.024-0.144 0.036-0.216 0.036-0.24 0-0.468-0.144-0.564-0.384-0.12-0.312 0.048-0.66 0.348-0.78 0.084-0.024 2.016-0.804 2.016-3.036s-1.932-3.012-2.016-3.036c-0.3-0.12-0.456-0.468-0.348-0.78 0.12-0.3 0.468-0.468 0.78-0.348 0.108 0.048 2.784 1.080 2.784 4.164z"/>
</svg>
