<!-- Generated by IcoMoon.io -->
<svg version="1.1" xmlns="http://www.w3.org/2000/svg" width="24" height="24" viewBox="0 0 24 24">
<title>dashboard</title>
<path d="M4.512 19.2h14.976c1.32-1.644 2.112-3.732 2.112-6 0-5.304-4.296-9.6-9.6-9.6s-9.6 4.296-9.6 9.6c0 2.268 0.792 4.356 2.112 6zM12 4.8c0.66 0 1.2 0.54 1.2 1.2s-0.54 1.2-1.2 1.2-1.2-0.54-1.2-1.2 0.54-1.2 1.2-1.2zM7.2 7.2c0.66 0 1.2 0.54 1.2 1.2s-0.54 1.2-1.2 1.2-1.2-0.54-1.2-1.2 0.54-1.2 1.2-1.2zM16.8 7.2c0.66 0 1.2 0.54 1.2 1.2s-0.54 1.2-1.2 1.2-1.2-0.54-1.2-1.2 0.54-1.2 1.2-1.2zM10.356 13.86l4.044-5.46v7.2c0 1.32-1.080 2.4-2.4 2.4s-2.4-1.080-2.4-2.4c0-0.684 0.288-1.296 0.756-1.74zM4.8 12c0.66 0 1.2 0.54 1.2 1.2s-0.54 1.2-1.2 1.2-1.2-0.54-1.2-1.2 0.54-1.2 1.2-1.2zM19.2 12c0.66 0 1.2 0.54 1.2 1.2s-0.54 1.2-1.2 1.2-1.2-0.54-1.2-1.2 0.54-1.2 1.2-1.2zM13.2 15.6c0-0.66-0.54-1.2-1.2-1.2s-1.2 0.54-1.2 1.2 0.54 1.2 1.2 1.2 1.2-0.54 1.2-1.2z"/>
</svg>
