<?xml version="1.0" encoding="utf-8"?>
<!-- Generator: Adobe Illustrator 21.1.0, SVG Export Plug-In . SVG Version: 6.00 Build 0)  -->
<svg version="1.1" id="Layer_1" xmlns="http://www.w3.org/2000/svg" xmlns:xlink="http://www.w3.org/1999/xlink" x="0px" y="0px"
	 width="24px" height="24px" viewBox="0 0 24 24" enable-background="new 0 0 24 24" xml:space="preserve">
<title>dashboard</title>
<path d="M4.5,19h15c1.3-1.6,2.1-3.7,2.1-6c0-5.3-4.3-9.6-9.6-9.6S2.4,7.7,2.4,13C2.4,15.3,3.2,17.4,4.5,19z M12,4.6
	c0.7,0,1.2,0.5,1.2,1.2S12.7,7,12,7s-1.2-0.5-1.2-1.2S11.3,4.6,12,4.6z M7.2,7c0.7,0,1.2,0.5,1.2,1.2S7.9,9.4,7.2,9.4S6,8.9,6,8.2
	S6.5,7,7.2,7z M16.8,7C17.5,7,18,7.5,18,8.2s-0.5,1.2-1.2,1.2s-1.2-0.5-1.2-1.2S16.1,7,16.8,7z M10.4,13.7l4-5.5v7.2
	c0,1.3-1.1,2.4-2.4,2.4s-2.4-1.1-2.4-2.4C9.6,14.7,9.9,14.1,10.4,13.7z M4.8,11.8C5.5,11.8,6,12.3,6,13s-0.5,1.2-1.2,1.2
	S3.6,13.7,3.6,13S4.1,11.8,4.8,11.8z M19.2,11.8c0.7,0,1.2,0.5,1.2,1.2s-0.5,1.2-1.2,1.2S18,13.7,18,13S18.5,11.8,19.2,11.8z
	 M13.2,15.4c0-0.7-0.5-1.2-1.2-1.2s-1.2,0.5-1.2,1.2s0.5,1.2,1.2,1.2S13.2,16.1,13.2,15.4z"/>
</svg>
