<?xml version="1.0" encoding="utf-8"?>
<!-- Generator: Adobe Illustrator 21.1.0, SVG Export Plug-In . SVG Version: 6.00 Build 0)  -->
<svg version="1.1" id="Layer_1" xmlns="http://www.w3.org/2000/svg" xmlns:xlink="http://www.w3.org/1999/xlink" x="0px" y="0px"
	 width="24px" height="24px" viewBox="0 0 24 24" enable-background="new 0 0 24 24" xml:space="preserve">
<title>editor-indent</title>
<path d="M3.5,6V3.6h10.8V6H3.5z M15.5,4.8V3.6h4.8v1.2H15.5z M15.5,8.4h2.4V6l4.8,4.2l-4.8,4.2V12h-2.4C15.5,12,15.5,8.4,15.5,8.4z
	 M3.5,9.6V7.2h10.8v2.4H3.5z M5.9,13.2v-2.4h8.4v2.4C14.3,13.2,5.9,13.2,5.9,13.2z M3.5,16.8v-2.4h10.8v2.4H3.5z M15.5,16.8v-1.2
	h4.8v1.2H15.5z M10.7,20.4V18h3.6v2.4C14.3,20.4,10.7,20.4,10.7,20.4z"/>
</svg>
