<?xml version="1.0" encoding="utf-8"?>
<!-- Generator: Adobe Illustrator 21.1.0, SVG Export Plug-In . SVG Version: 6.00 Build 0)  -->
<svg version="1.1" id="Layer_1" xmlns="http://www.w3.org/2000/svg" xmlns:xlink="http://www.w3.org/1999/xlink" x="0px" y="0px"
	 width="24px" height="24px" viewBox="0 0 24 24" enable-background="new 0 0 24 24" xml:space="preserve">
<title>email</title>
<path d="M4.1,4.8h15.9c1.5,0,2.3,0.7,2.3,2.1v10.1c0,1.4-0.8,2.1-2.3,2.1H4.1c-1.5,0-2.3-0.7-2.3-2.1V6.9C1.8,5.5,2.5,4.8,4.1,4.8z
	 M12,15.1l8.1-6.6c0.3-0.2,0.5-0.8,0.2-1.3c-0.3-0.5-1-0.5-1.4-0.2L12,11.6L5.2,7C4.7,6.7,4.1,6.7,3.8,7.2c-0.4,0.5-0.1,1,0.2,1.3
	L12,15.1z"/>
</svg>
