<?xml version="1.0" encoding="utf-8"?>
<!-- Generator: Adobe Illustrator 21.1.0, SVG Export Plug-In . SVG Version: 6.00 Build 0)  -->
<svg version="1.1" id="Layer_1" xmlns="http://www.w3.org/2000/svg" xmlns:xlink="http://www.w3.org/1999/xlink" x="0px" y="0px"
	 width="24px" height="24px" viewBox="0 0 24 24" enable-background="new 0 0 24 24" xml:space="preserve">
<title>email-alt</title>
<path d="M22.2,17.4V6.6c0-1-0.8-1.8-1.8-1.8H3.6c-1,0-1.8,0.8-1.8,1.8v10.8c0,1,0.8,1.8,1.8,1.8h16.8C21.4,19.2,22.2,18.4,22.2,17.4
	z M20.6,6.5c0.4,0.4,0.2,0.8,0,1l-4.9,4.5l4.7,4.9c0.1,0.2,0.2,0.4,0.1,0.6c-0.2,0.2-0.5,0.2-0.7,0.1L14.6,13L12,15.3L9.4,13
	l-5.2,4.5c-0.2,0.1-0.5,0.1-0.7-0.1c-0.2-0.2-0.1-0.4,0.1-0.6l4.7-4.9L3.4,7.5c-0.2-0.2-0.4-0.6,0-1c0.4-0.4,0.8-0.2,1.1,0.1l7.5,6
	l7.5-6C19.8,6.3,20.2,6.1,20.6,6.5z"/>
</svg>
