<!-- Generated by IcoMoon.io -->
<svg version="1.1" xmlns="http://www.w3.org/2000/svg" width="24" height="24" viewBox="0 0 24 24">
<title>email-alt</title>
<path d="M22.8 17.4v-10.8c0-0.996-0.804-1.8-1.8-1.8h-16.812c-0.996 0-1.8 0.804-1.8 1.8v10.8c0 0.996 0.804 1.8 1.8 1.8h16.812c0.996 0 1.8-0.804 1.8-1.8zM21.228 6.468c0.396 0.396 0.18 0.804-0.036 1.008l-4.872 4.464 4.68 4.872c0.144 0.168 0.24 0.432 0.072 0.612-0.156 0.192-0.516 0.18-0.672 0.060l-5.244-4.476-2.568 2.34-2.556-2.34-5.244 4.476c-0.156 0.12-0.516 0.132-0.672-0.060-0.168-0.18-0.072-0.444 0.072-0.612l4.68-4.872-4.872-4.464c-0.216-0.204-0.432-0.612-0.036-1.008s0.804-0.204 1.14 0.084l7.488 6.048 7.5-6.048c0.336-0.288 0.744-0.48 1.14-0.084z"/>
</svg>
