<!-- Generated by IcoMoon.io -->
<svg version="1.1" xmlns="http://www.w3.org/2000/svg" width="24" height="24" viewBox="0 0 24 24">
<title>facebook</title>
<path d="M3.468 2.4h17.076c0.588 0 1.056 0.468 1.056 1.056v17.088c0 0.576-0.468 1.056-1.056 1.056h-4.896v-7.44h2.496l0.372-2.892h-2.868v-1.848c0-0.84 0.24-1.416 1.44-1.416h1.536v-2.592c-0.264-0.036-1.176-0.108-2.232-0.108-2.22 0-3.732 1.344-3.732 3.828v2.136h-2.508v2.892h2.508v7.44h-9.192c-0.588 0-1.068-0.48-1.068-1.056v-17.088c0-0.588 0.48-1.056 1.068-1.056z"/>
</svg>
