<!-- Generated by IcoMoon.io -->
<svg version="1.1" xmlns="http://www.w3.org/2000/svg" width="24" height="24" viewBox="0 0 24 24">
<title>format-status</title>
<path d="M12 1.2c8.4 0 10.8 3.492 10.8 7.8s-2.4 7.8-10.8 7.8-10.8-3.492-10.8-7.8 2.4-7.8 10.8-7.8zM6.6 10.8c0.996 0 1.8-0.804 1.8-1.8s-0.804-1.8-1.8-1.8-1.8 0.804-1.8 1.8 0.804 1.8 1.8 1.8zM12 10.8c0.996 0 1.8-0.804 1.8-1.8s-0.804-1.8-1.8-1.8-1.8 0.804-1.8 1.8 0.804 1.8 1.8 1.8zM17.4 10.8c0.996 0 1.8-0.804 1.8-1.8s-0.804-1.8-1.8-1.8-1.8 0.804-1.8 1.8 0.804 1.8 1.8 1.8zM7.2 17.4c0.996 0 1.8 0.804 1.8 1.8s-0.804 1.8-1.8 1.8-1.8-0.804-1.8-1.8 0.804-1.8 1.8-1.8zM3.6 19.8c0.66 0 1.2 0.54 1.2 1.2s-0.54 1.2-1.2 1.2-1.2-0.54-1.2-1.2 0.54-1.2 1.2-1.2z"/>
</svg>
