<!-- Generated by IcoMoon.io -->
<svg version="1.1" xmlns="http://www.w3.org/2000/svg" width="24" height="24" viewBox="0 0 24 24">
<title>format-image</title>
<path d="M2.7 1.2h18.6c0.828 0 1.5 0.672 1.5 1.5v18.6c0 0.828-0.672 1.5-1.5 1.5h-18.6c-0.828 0-1.5-0.672-1.5-1.5v-18.6c0-0.828 0.672-1.5 1.5-1.5zM20.4 20.4v-16.8h-16.8v16.8h16.8zM12 7.2c0-1.32-1.080-2.4-2.4-2.4s-2.4 1.080-2.4 2.4 1.080 2.4 2.4 2.4 2.4-1.080 2.4-2.4zM15.6 13.2c0 0 0-7.2 3.6-7.2v12c0 0.66-0.54 1.2-1.2 1.2h-12c-0.66 0-1.2-0.54-1.2-1.2v-8.4c2.4 0 3.6 4.8 3.6 4.8s1.2-3.6 3.6-3.6 3.6 2.4 3.6 2.4z"/>
</svg>
