<?xml version="1.0" encoding="utf-8"?>
<!-- Generator: Adobe Illustrator 21.1.0, SVG Export Plug-In . SVG Version: 6.00 Build 0)  -->
<svg version="1.1" id="Layer_1" xmlns="http://www.w3.org/2000/svg" xmlns:xlink="http://www.w3.org/1999/xlink" x="0px" y="0px"
	 width="24px" height="24px" viewBox="0 0 24 24" enable-background="new 0 0 24 24" xml:space="preserve">
<title>hammer</title>
<path d="M21.3,7.3L23,9l-4.2,4.1l-1.7-1.7l1-1c-0.4-0.9-1-1.9-1.8-2.8l-5.5,7.9l-6.3,5.6c-0.5,0.5-1.2,0.5-1.7,0l-1.4-1.5
	c-0.5-0.5-0.5-1.2,0-1.7L14.5,6.1c-1.6-1-3.9-1.8-6.8-1.8c3.2-1,5.9-1.1,7.9-0.4c2,0.8,3.4,2.6,4.7,4.3L21.3,7.3z"/>
</svg>
