<!-- Generated by IcoMoon.io -->
<svg version="1.1" xmlns="http://www.w3.org/2000/svg" width="24" height="24" viewBox="0 0 24 24">
<title>hidden</title>
<path d="M20.64 3.96l0.192 0.204c0.468 0.468 0.468 1.224 0 1.692l-15.372 15.384c-0.468 0.468-1.236 0.468-1.692 0l-0.204-0.204c-0.468-0.468-0.468-1.224 0-1.692l1.908-1.92c-1.884-1.2-3.312-2.76-4.272-4.716 0.972-1.98 2.436-3.576 4.368-4.788s4.080-1.812 6.432-1.812c1.44 0 2.796 0.252 4.080 0.72l2.856-2.868c0.468-0.468 1.236-0.468 1.704 0zM12.132 8.772c-0.276 0.3-0.408 0.648-0.408 1.056 0 0.372 0.144 0.696 0.372 0.972l2.16-2.148c-0.156-0.144-0.336-0.252-0.54-0.312-0.132-0.012-0.336-0.036-0.588-0.048-0.396 0.036-0.72 0.192-0.996 0.48zM2.88 12.708c0.828 1.476 2.052 2.7 3.66 3.66l1.536-1.536c-0.612-0.828-0.924-1.764-0.924-2.832 0-1.272 0.432-2.376 1.308-3.312-1.248 0.324-2.352 0.84-3.312 1.512-0.96 0.696-1.716 1.524-2.268 2.508zM18.744 10.152l1.152-1.152c1.224 1.032 2.196 2.268 2.904 3.708-0.972 1.98-2.436 3.576-4.368 4.788s-4.080 1.812-6.432 1.812c-0.756 0-1.488-0.084-2.196-0.216l1.284-1.284c0.3 0.024 0.6 0.060 0.912 0.060 1.956 0 3.756-0.48 5.4-1.452s2.88-2.208 3.72-3.708c-0.552-0.984-1.308-1.812-2.268-2.508-0.036-0.012-0.072-0.036-0.108-0.048zM12.048 16.848l4.8-4.8c-0.012 1.32-0.492 2.448-1.416 3.372-0.936 0.936-2.064 1.416-3.384 1.428z"/>
</svg>
