<!-- Generated by IcoMoon.io -->
<svg version="1.1" xmlns="http://www.w3.org/2000/svg" width="24" height="24" viewBox="0 0 24 24">
<title>lightbulb</title>
<path d="M12 1.2c3.732 0 6.756 3.024 6.756 6.744 0 2.208-2.436 5.496-2.436 5.496-0.396 0.528-0.72 1.5-0.72 2.16v1.2c0 0.66-0.54 1.2-1.2 1.2h-4.8c-0.66 0-1.2-0.54-1.2-1.2v-1.2c0-0.66-0.324-1.632-0.72-2.16 0 0-2.424-3.288-2.424-5.496 0-3.72 3.012-6.744 6.744-6.744zM8.4 20.244v-1.044h7.2v1.044c0 0.744-0.156 1.356-0.9 1.356h-0.3c0 0.744-0.48 1.2-1.224 1.2h-2.4c-0.732 0-1.176-0.456-1.176-1.2h-0.3c-0.744 0-0.9-0.612-0.9-1.356z"/>
</svg>
