<!-- Generated by IcoMoon.io -->
<svg version="1.1" xmlns="http://www.w3.org/2000/svg" width="24" height="24" viewBox="0 0 24 24">
<title>media-video</title>
<path d="M14.4 2.4l4.8 4.8v14.4h-14.4v-19.2h9.6zM14.4 7.2h3.6l-3.6-3.6v3.6zM13.2 16.8v-3.6c0-0.324-0.12-0.612-0.348-0.852-0.24-0.228-0.528-0.348-0.852-0.348h-3.6c-0.324 0-0.612 0.12-0.852 0.348-0.228 0.24-0.348 0.528-0.348 0.852v3.6c0 0.324 0.12 0.612 0.348 0.852 0.24 0.228 0.528 0.348 0.852 0.348h3.6c0.324 0 0.612-0.12 0.852-0.348 0.228-0.24 0.348-0.528 0.348-0.852zM16.8 18v-6l-2.4 2.4v1.2z"/>
</svg>
