<!-- Generated by IcoMoon.io -->
<svg version="1.1" xmlns="http://www.w3.org/2000/svg" width="24" height="24" viewBox="0 0 24 24">
<title>megaphone</title>
<path d="M21.78 7.128c0.552 1.944 0.456 3.864-0.024 5.376-0.504 1.536-1.512 2.616-2.76 2.976-0.192 0.072-0.312 0.072-0.48 0.072-0.072 0.024-0.144 0.024-0.216 0.024-0.072 0.024-0.168 0.024-0.264 0.024h-8.16l2.664 6.6c0.024 0.168-0.072 0.312-0.168 0.408-0.096 0.12-0.288 0.192-0.408 0.192h-3.624c-0.12 0-0.312-0.072-0.408-0.192-0.096-0.096-0.192-0.24-0.168-0.408l-1.2-6.6h-1.464l-0.024-0.024c-0.6 0.072-1.296-0.216-1.848-0.744s-1.056-1.296-1.272-2.256c-0.288-0.96-0.24-1.872-0.024-2.64 0.216-0.744 0.696-1.296 1.272-1.56l0.024-0.024 10.8-6.48c0.12-0.072 0.216-0.12 0.288-0.192 0.072-0.048 0.168-0.096 0.288-0.144 0.192-0.096 0.336-0.144 0.6-0.216 1.248-0.36 2.688 0.12 3.864 1.176s2.208 2.688 2.712 4.632zM18.684 14.304h-0.024c0.48-0.12 0.888-0.408 1.248-0.84 0.696-0.84 1.032-2.112 1.032-3.648 0-0.768-0.12-1.56-0.336-2.376-0.408-1.632-1.224-3-2.136-3.888s-2.016-1.32-2.952-1.056c-0.984 0.264-1.68 1.152-2.040 2.4-0.384 1.248-0.336 2.832 0.072 4.464 0.456 1.632 1.2 3 2.16 3.888 0.936 0.888 1.944 1.32 2.976 1.056zM15.636 5.808c0.264-0.048 0.504-0.024 0.744 0.048 0.456 0.192 0.912 0.576 1.224 1.2s0.504 1.44 0.504 2.136c0 0.36-0.048 0.672-0.144 0.96-0.216 0.576-0.528 1.008-1.032 1.128-0.408 0.12-0.96-0.072-1.368-0.48s-0.768-1.032-0.936-1.8c-0.216-0.744-0.144-1.488 0.024-2.064s0.576-1.008 0.984-1.128z"/>
</svg>
