<?xml version="1.0" encoding="utf-8"?>
<!-- Generator: Adobe Illustrator 21.1.0, SVG Export Plug-In . SVG Version: 6.00 Build 0)  -->
<svg version="1.1" id="Layer_1" xmlns="http://www.w3.org/2000/svg" xmlns:xlink="http://www.w3.org/1999/xlink" x="0px" y="0px"
	 width="24px" height="24px" viewBox="0 0 24 24" enable-background="new 0 0 24 24" xml:space="preserve">
<title>money</title>
<path d="M0,3.5h24v14.4h-0.9c0-2.1-1.8-3.9-3.9-3.9c-1.6,0-2.9,0.9-3.5,2.3c-0.3-0.1-0.6-0.2-1-0.2c-1.2,0-2.2,0.8-2.5,1.8H0
	C0,17.9,0,3.5,0,3.5z M10,7.2C10,7.4,9.9,7.6,9.9,7.8c0,0.2,0,0.4,0,0.6l0,0.1c0,0.1,0,0.2,0.1,0.3c0,0.1,0.1,0.2,0.1,0.4
	c0,0.1,0.1,0.3,0.2,0.4c0.1,0.1,0.2,0.3,0.3,0.4s0.2,0.2,0.4,0.3c0.1,0.1,0.3,0.1,0.5,0.1c0.2,0,0.3,0,0.5-0.1
	c0.1-0.1,0.3-0.2,0.4-0.3c0.1-0.1,0.2-0.2,0.3-0.4c0.1-0.1,0.1-0.3,0.2-0.4c0-0.1,0.1-0.2,0.1-0.4c0-0.1,0-0.2,0.1-0.3s0-0.1,0-0.1
	c0.1-0.3,0-0.7,0-1s-0.3-0.6-0.5-0.8c-0.3-0.2-0.6-0.3-0.9-0.3c-0.2,0-0.4,0-0.6,0.1c-0.2,0.1-0.3,0.2-0.5,0.3
	C10.2,6.9,10.1,7.1,10,7.2z M15.4,14.5v-1.4c0-0.4-0.1-0.8-0.3-1.2c-0.2-0.4-0.5-0.7-0.9-0.9c-0.4-0.3-0.8-0.4-1.2-0.4l-1.5,1
	l-1.5-1c-0.4,0-0.9,0.1-1.2,0.4c-0.4,0.2-0.7,0.6-0.9,0.9c-0.2,0.4-0.3,0.8-0.3,1.2v1.4l0.2,0.1c0.1,0,0.3,0.1,0.6,0.2
	c0.3,0.1,0.6,0.1,0.9,0.2c0.3,0.1,0.7,0.1,1.1,0.2c0.4,0,0.8,0.1,1.2,0.1c0.4,0,0.8,0,1.2-0.1c0.4,0,0.8-0.1,1.1-0.2
	c0.3,0,0.6-0.1,0.9-0.2l0.6-0.1C15.3,14.5,15.4,14.5,15.4,14.5z M19.2,14.6c1.8,0,3.3,1.5,3.3,3.3s-1.5,3.3-3.3,3.3
	c-0.9,0-1.7-0.4-2.2-0.9c0.3-0.4,0.4-0.9,0.4-1.5c0-0.9-0.5-1.8-1.2-2.2C16.7,15.4,17.9,14.6,19.2,14.6z M12.6,18.8
	c0-1.2,0.9-2.1,2.1-2.1s2.1,0.9,2.1,2.1s-0.9,2.1-2.1,2.1S12.6,20,12.6,18.8z"/>
</svg>
