<?xml version="1.0" encoding="utf-8"?>
<!-- Generator: Adobe Illustrator 21.1.0, SVG Export Plug-In . SVG Version: 6.00 Build 0)  -->
<svg version="1.1" id="Layer_1" xmlns="http://www.w3.org/2000/svg" xmlns:xlink="http://www.w3.org/1999/xlink" x="0px" y="0px"
	 width="24px" height="24px" viewBox="0 0 24 24" enable-background="new 0 0 24 24" xml:space="preserve">
<title>networking</title>
<path d="M21.6,15.5h1.2c0.7,0,1.2,0.5,1.2,1.2v3.6c0,0.7-0.5,1.2-1.2,1.2H18c-0.7,0-1.2-0.5-1.2-1.2v-3.6c0-0.7,0.5-1.2,1.2-1.2h1.2
	v-2.4h-6v2.4h1.2c0.7,0,1.2,0.5,1.2,1.2v3.6c0,0.7-0.5,1.2-1.2,1.2H9.6c-0.7,0-1.2-0.5-1.2-1.2v-3.6c0-0.7,0.5-1.2,1.2-1.2h1.2v-2.4
	h-6v2.4H6c0.7,0,1.2,0.5,1.2,1.2v3.6c0,0.7-0.5,1.2-1.2,1.2H1.2C0.5,21.5,0,21,0,20.3v-3.6c0-0.7,0.5-1.2,1.2-1.2h1.2v-2.4
	c0-1.3,1.1-2.4,2.4-2.4h6V8.3H9.6c-0.7,0-1.2-0.5-1.2-1.2V3.5c0-0.7,0.5-1.2,1.2-1.2h4.8c0.7,0,1.2,0.5,1.2,1.2v3.6
	c0,0.7-0.5,1.2-1.2,1.2h-1.2v2.4h6c1.3,0,2.4,1.1,2.4,2.4V15.5z"/>
</svg>
