<!-- Generated by IcoMoon.io -->
<svg version="1.1" xmlns="http://www.w3.org/2000/svg" width="24" height="24" viewBox="0 0 24 24">
<title>performance</title>
<path d="M4.512 20.412h14.976c1.32-1.656 2.112-3.732 2.112-6.012 0-5.292-4.296-9.6-9.6-9.6s-9.6 4.308-9.6 9.6c0 2.28 0.792 4.356 2.112 6.012zM10.8 7.2c0-0.66 0.54-1.2 1.2-1.2s1.2 0.54 1.2 1.2c0 0.672-0.54 1.2-1.2 1.2s-1.2-0.528-1.2-1.2zM4.8 9.6c0-0.66 0.54-1.2 1.2-1.2s1.2 0.54 1.2 1.2c0 0.672-0.54 1.2-1.2 1.2s-1.2-0.528-1.2-1.2zM10.224 13.68c1.008-0.996 7.812-4.2 7.812-4.2s-3.192 6.816-4.188 7.812c-1.008 1.008-2.616 1.008-3.624 0-0.996-0.996-0.996-2.616 0-3.612zM3.6 15.6c0-0.66 0.54-1.2 1.2-1.2s1.2 0.54 1.2 1.2c0 0.672-0.54 1.2-1.2 1.2s-1.2-0.528-1.2-1.2zM10.8 15.6c0-0.66 0.54-1.2 1.2-1.2s1.2 0.54 1.2 1.2c0 0.672-0.54 1.2-1.2 1.2s-1.2-0.528-1.2-1.2zM18 15.6c0-0.66 0.54-1.2 1.2-1.2s1.2 0.54 1.2 1.2c0 0.672-0.54 1.2-1.2 1.2s-1.2-0.528-1.2-1.2z"/>
</svg>
