<?xml version="1.0" encoding="utf-8"?>
<!-- Generator: Adobe Illustrator 21.1.0, SVG Export Plug-In . SVG Version: 6.00 Build 0)  -->
<svg version="1.1" id="Layer_1" xmlns="http://www.w3.org/2000/svg" xmlns:xlink="http://www.w3.org/1999/xlink" x="0px" y="0px"
	 width="24px" height="24px" viewBox="0 0 24 24" enable-background="new 0 0 24 24" xml:space="preserve">
<title>performance</title>
<path d="M4.5,20h15c1.3-1.7,2.1-3.7,2.1-6c0-5.3-4.3-9.6-9.6-9.6S2.4,8.7,2.4,14C2.4,16.3,3.2,18.3,4.5,20z M10.8,6.8
	c0-0.7,0.5-1.2,1.2-1.2s1.2,0.5,1.2,1.2C13.2,7.5,12.7,8,12,8S10.8,7.5,10.8,6.8z M4.8,9.2C4.8,8.5,5.3,8,6,8s1.2,0.5,1.2,1.2
	c0,0.7-0.5,1.2-1.2,1.2S4.8,9.9,4.8,9.2z M10.2,13.3c1-1,7.8-4.2,7.8-4.2s-3.2,6.8-4.2,7.8c-1,1-2.6,1-3.6,0
	C9.2,15.9,9.2,14.3,10.2,13.3z M3.6,15.2c0-0.7,0.5-1.2,1.2-1.2S6,14.5,6,15.2c0,0.7-0.5,1.2-1.2,1.2S3.6,15.9,3.6,15.2z M10.8,15.2
	c0-0.7,0.5-1.2,1.2-1.2s1.2,0.5,1.2,1.2c0,0.7-0.5,1.2-1.2,1.2S10.8,15.9,10.8,15.2z M18,15.2c0-0.7,0.5-1.2,1.2-1.2
	s1.2,0.5,1.2,1.2c0,0.7-0.5,1.2-1.2,1.2S18,15.9,18,15.2z"/>
</svg>
