<!-- Generated by IcoMoon.io -->
<svg version="1.1" xmlns="http://www.w3.org/2000/svg" width="24" height="24" viewBox="0 0 24 24">
<title>phone</title>
<path d="M14.472 7.2l-0.252-0.24c-0.624-0.648-0.516-0.948 0.096-1.56l3.264-3.3c0.972-0.984 1.152-1.452 2.076-0.576l0.252 0.24zM15.108 7.74l5.28-5.28c0.84 1.128 2.808 4.164 1.836 6.408-0.876 2.004-1.308 2.1-2.4 3.6-2.22 2.532-5.016 5.244-7.2 7.284-1.512 1.092-1.572 1.596-3.6 2.4-2.16 0.852-5.28-1.068-6.456-1.872l5.28-5.28 1.416 1.944c0.408 0.552 1.44-0.072 2.16-0.792 1.248-1.26 3.816-3.816 4.8-4.884 0.708-0.708 1.344-1.74 0.792-2.16zM1.884 19.8l-0.252-0.252c-0.816-0.888-0.348-1.080 0.624-2.040l3.288-3.264c0.612-0.588 0.9-0.72 1.524-0.132l0.24 0.252z"/>
</svg>
