<?xml version="1.0" encoding="utf-8"?>
<!-- Generator: Adobe Illustrator 21.1.0, SVG Export Plug-In . SVG Version: 6.00 Build 0)  -->
<svg version="1.1" id="Layer_1" xmlns="http://www.w3.org/2000/svg" xmlns:xlink="http://www.w3.org/1999/xlink" x="0px" y="0px"
	 width="24px" height="24px" viewBox="0 0 24 24" enable-background="new 0 0 24 24" xml:space="preserve">
<title>phone</title>
<path d="M14.6,7.5l-0.3-0.2c-0.6-0.6-0.5-0.9,0.1-1.6l3.3-3.3c1-1,1.2-1.5,2.1-0.6l0.3,0.2L14.6,7.5z M15.3,8l5.3-5.3
	c0.8,1.1,2.8,4.2,1.8,6.4c-0.9,2-1.3,2.1-2.4,3.6c-2.2,2.5-5,5.2-7.2,7.3c-1.5,1.1-1.6,1.6-3.6,2.4c-2.2,0.9-5.3-1.1-6.5-1.9L8,15.3
	l1.4,1.9c0.4,0.6,1.4-0.1,2.2-0.8c1.2-1.3,3.8-3.8,4.8-4.9c0.7-0.7,1.3-1.7,0.8-2.2L15.3,8z M2,20.1l-0.3-0.3
	c-0.8-0.9-0.3-1.1,0.6-2l3.3-3.3c0.6-0.6,0.9-0.7,1.5-0.1l0.2,0.3L2,20.1z"/>
</svg>
