<!-- Generated by IcoMoon.io -->
<svg version="1.1" xmlns="http://www.w3.org/2000/svg" width="24" height="24" viewBox="0 0 24 24">
<title>playlist-audio</title>
<path d="M20.4 3.6v-2.4h-18v2.4h18zM20.4 8.4v-2.4h-18v2.4h18zM12 13.2v-2.4h-9.6v2.4h9.6zM20.94 10.848l-7.2 1.344c-0.192 0.024-0.228 0.036-0.348 0.156-0.132 0.108-0.192 0.264-0.192 0.444v5.508c-0.348-0.156-0.792-0.168-1.116-0.168-0.648 0-1.2 0.228-1.656 0.684s-0.672 1.008-0.672 1.656c0 0.636 0.216 1.188 0.672 1.644s1.008 0.684 1.656 0.684c0.588 0 1.104-0.192 1.548-0.576s0.708-0.852 0.78-1.428v-5.94l5.988-1.332v4.176c-0.348-0.156-0.672-0.228-0.996-0.228-0.648 0-1.332 0.228-1.788 0.684-0.456 0.444-0.684 0.996-0.684 1.644s0.228 1.188 0.684 1.644 1.008 0.684 1.656 0.684c0.636 0 1.188-0.228 1.644-0.684s0.684-0.996 0.684-1.644v-8.28c0-0.192-0.060-0.36-0.192-0.492-0.132-0.144-0.288-0.204-0.468-0.18zM9.6 18v-2.4h-7.2v2.4h7.2zM7.2 22.8v-2.4h-4.8v2.4h4.8z"/>
</svg>
