<!-- Generated by IcoMoon.io -->
<svg version="1.1" xmlns="http://www.w3.org/2000/svg" width="24" height="24" viewBox="0 0 24 24">
<title>portfolio</title>
<path d="M4.8 6h-3.864c-0.444 0-0.888 0.384-0.828 1.008l1.872 11.988s2.22-8.832 2.652-10.956c0.132-0.636 0.732-0.84 1.176-0.84h6.192s-0.84-2.496-0.924-2.772c-0.144-0.528-0.408-0.828-0.936-0.828h-3.972c-0.432 0-0.84 0.276-0.96 0.768-0.108 0.48-0.408 1.632-0.408 1.632zM10.656 6h-4.8s0.504-1.2 1.044-1.2h2.556c0.576 0 1.2 1.2 1.2 1.2zM3.204 19.5c-0.372 0.564-0.912 0.9-1.512 0.9h18.876c0.648 0 1.104-0.372 1.236-0.996 0.528-2.628 2.016-10.128 2.016-10.128 0.084-0.6-0.36-0.876-0.744-0.876h-3.876v-1.764c0-0.192-0.312-0.636-0.792-0.636h-4.512c-0.624 0-1.044 0.696-1.044 0.696l-0.852 1.704h-5.292c-0.384 0-0.756 0.228-0.828 0.6 0 0-1.908 8.040-2.064 8.796-0.084 0.444-0.264 1.188-0.612 1.704zM18.456 8.4h-5.256s0.696-1.2 1.356-1.2h2.748c0.852 0 1.152 1.2 1.152 1.2z"/>
</svg>
