<!-- Generated by IcoMoon.io -->
<svg version="1.1" xmlns="http://www.w3.org/2000/svg" width="24" height="24" viewBox="0 0 24 24">
<title>search</title>
<path d="M14.568 5.016c2.244 2.244 2.532 5.7 0.864 8.268 0.144 0.12 0.264 0.252 0.432 0.372 0.24 0.192 0.564 0.432 0.972 0.708 0.408 0.288 0.672 0.468 0.792 0.564 0.504 0.372 0.876 0.684 1.128 0.936 0.384 0.384 0.72 0.78 1.008 1.2 0.3 0.42 0.528 0.828 0.708 1.248 0.168 0.42 0.252 0.816 0.216 1.2-0.024 0.384-0.168 0.708-0.432 0.972s-0.588 0.408-0.972 0.432c-0.372 0.024-0.78-0.048-1.188-0.228-0.42-0.168-0.84-0.408-1.248-0.708-0.42-0.288-0.816-0.624-1.2-1.008-0.252-0.252-0.564-0.624-0.924-1.116-0.12-0.156-0.3-0.42-0.564-0.792-0.264-0.384-0.48-0.684-0.672-0.936-0.192-0.24-0.348-0.42-0.528-0.6-2.484 1.308-5.628 0.912-7.728-1.176-2.568-2.58-2.568-6.768 0-9.336 2.58-2.58 6.756-2.58 9.336 0zM12.876 12.648c1.632-1.644 1.632-4.296 0-5.94-1.644-1.644-4.308-1.644-5.94 0-1.644 1.644-1.644 4.296 0 5.94 1.632 1.644 4.296 1.644 5.94 0z"/>
</svg>
