<!-- Generated by IcoMoon.io -->
<svg version="1.1" xmlns="http://www.w3.org/2000/svg" width="24" height="24" viewBox="0 0 24 24">
<title>share</title>
<path d="M17.4 14.4c1.992 0 3.6 1.608 3.6 3.6s-1.608 3.6-3.6 3.6-3.6-1.608-3.6-3.6c0-0.288 0.036-0.552 0.108-0.828l-5.256-2.76c-0.66 0.732-1.596 1.188-2.652 1.188-1.992 0-3.6-1.608-3.6-3.6s1.608-3.6 3.6-3.6c1.056 0 1.992 0.468 2.652 1.188l5.256-2.76c-0.072-0.276-0.108-0.54-0.108-0.828 0-1.992 1.608-3.6 3.6-3.6s3.6 1.608 3.6 3.6-1.608 3.6-3.6 3.6c-1.056 0-1.992-0.468-2.652-1.188l-5.256 2.76c0.072 0.276 0.108 0.54 0.108 0.828s-0.036 0.552-0.108 0.828l5.256 2.76c0.66-0.732 1.596-1.188 2.652-1.188z"/>
</svg>
