<!-- Generated by IcoMoon.io -->
<svg version="1.1" xmlns="http://www.w3.org/2000/svg" width="24" height="24" viewBox="0 0 24 24">
<title>smiley</title>
<path d="M8.4 6.24c1.32 0 2.4 1.068 2.4 2.4 0 0.444-0.132 0.852-0.336 1.2 0 0-0.864-0.24-2.064-0.24s-2.064 0.24-2.064 0.24c-0.204-0.348-0.336-0.756-0.336-1.2 0-1.332 1.080-2.4 2.4-2.4zM15.6 6.24c1.332 0 2.4 1.068 2.4 2.4 0 0.444-0.132 0.852-0.336 1.2 0 0-0.864-0.24-2.064-0.24s-2.064 0.24-2.064 0.24c-0.204-0.348-0.336-0.756-0.336-1.2 0-1.332 1.068-2.4 2.4-2.4zM12 22.68c4.464 0 8.436-2.832 9.876-7.056l-1.584-0.552c-1.212 3.552-4.548 5.928-8.292 5.928s-7.080-2.376-8.292-5.928l-1.584 0.552c1.44 4.224 5.412 7.056 9.876 7.056z"/>
</svg>
