<!-- Generated by IcoMoon.io -->
<svg version="1.1" xmlns="http://www.w3.org/2000/svg" width="24" height="24" viewBox="0 0 24 24">
<title>thumbs-up</title>
<path d="M15.264 2.4c0.18-0.024 0.312 0.024 0.492 0.084 0.672 0.228 0.996 0.948 0.792 1.62-0.204 0.66-1.2 3.648-1.2 4.296 0 0.636 0.9 1.2 1.62 1.2h3.6c0.72 0 1.2 0.48 1.2 1.2s-2.4 8.4-2.4 8.4c-0.204 0.468-0.66 1.2-1.2 1.2h-10.968v-10.8h2.568c0.492-0.492 3.96-5.652 4.296-6.324 0.252-0.492 0.72-0.816 1.2-0.876zM2.4 9.6h2.4v10.8h-2.4v-10.8z"/>
</svg>
