<?xml version="1.0" encoding="utf-8"?>
<!-- Generator: Adobe Illustrator 21.1.0, SVG Export Plug-In . SVG Version: 6.00 Build 0)  -->
<svg version="1.1" id="Layer_1" xmlns="http://www.w3.org/2000/svg" xmlns:xlink="http://www.w3.org/1999/xlink" x="0px" y="0px"
	 width="24px" height="24px" viewBox="0 0 24 24" enable-background="new 0 0 24 24" xml:space="preserve">
<title>thumbs-down</title>
<path d="M8.8,21.5c-0.2,0-0.3,0-0.5-0.1c-0.7-0.2-1-0.9-0.8-1.6c0.2-0.7,1.2-3.6,1.2-4.3c0-0.6-0.9-1.2-1.6-1.2H3.5
	c-0.7,0-1.2-0.5-1.2-1.2s2.4-8.4,2.4-8.4c0.2-0.5,0.7-1.2,1.2-1.2h11v10.8h-2.6c-0.5,0.5-4,5.7-4.3,6.3C9.8,21.2,9.3,21.5,8.8,21.5z
	 M21.7,14.3h-2.4V3.5h2.4V14.3z"/>
</svg>
