<?xml version="1.0" encoding="utf-8"?>
<!-- Generator: Adobe Illustrator 21.1.0, SVG Export Plug-In . SVG Version: 6.00 Build 0)  -->
<svg version="1.1" id="Layer_1" xmlns="http://www.w3.org/2000/svg" xmlns:xlink="http://www.w3.org/1999/xlink" x="0px" y="0px"
	 width="24px" height="24px" viewBox="0 0 24 24" enable-background="new 0 0 24 24" xml:space="preserve">
<title>thumbs-up</title>
<path d="M15.2,2.5c0.2,0,0.3,0,0.5,0.1c0.7,0.2,1,0.9,0.8,1.6c-0.2,0.7-1.2,3.6-1.2,4.3c0,0.6,0.9,1.2,1.6,1.2h3.6
	c0.7,0,1.2,0.5,1.2,1.2s-2.4,8.4-2.4,8.4c-0.2,0.5-0.7,1.2-1.2,1.2h-11V9.7h2.6c0.5-0.5,4-5.7,4.3-6.3C14.2,2.9,14.7,2.5,15.2,2.5z
	 M2.3,9.7h2.4v10.8H2.3C2.3,20.5,2.3,9.7,2.3,9.7z"/>
</svg>
