<!-- Generated by IcoMoon.io -->
<svg version="1.1" xmlns="http://www.w3.org/2000/svg" width="24" height="24" viewBox="0 0 24 24">
<title>tickets</title>
<path d="M24 6.456l-1.212 3.384v-0.012c-1.248-0.444-2.628 0.216-3.084 1.464-0.444 1.248 0.204 2.628 1.464 3.072v0.012l-1.212 3.384-18.072-6.456 1.188-3.348c1.248 0.456 2.628-0.204 3.072-1.452s-0.204-2.616-1.452-3.060l1.224-3.444zM17.46 10.5c0.888-2.496-0.408-5.244-2.904-6.144-2.496-0.888-5.244 0.42-6.132 2.904-0.888 2.496 0.408 5.256 2.904 6.144 2.484 0.888 5.244-0.42 6.132-2.904zM14.388 4.812c1.068 0.384 1.884 1.128 2.364 2.052-0.012-0.012-0.024-0.012-0.048-0.024-0.396-0.144-0.804 0.108-0.936 0.48-0.12 0.336-0.036 0.684 0.060 1.092 0.048 0.324 0.108 0.744-0.072 1.248-0.12 0.348-0.396 0.696-0.78 1.2l-0.888 1.212 0.096-4.896 0.48 0.132c0.228 0.048 0.312-0.288 0.096-0.348 0 0-0.684-0.18-1.104-0.336-0.408-0.144-1.056-0.432-1.056-0.432-0.216-0.096-0.36 0.228-0.144 0.324 0 0 0.192 0.096 0.408 0.192l0.012 1.956-1.836 2.352 0.096-4.932c0.24 0.072 0.48 0.132 0.48 0.132 0.228 0.048 0.312-0.276 0.084-0.348 0 0-0.672-0.18-1.092-0.336-0.084-0.024-0.168-0.060-0.264-0.096 1.116-0.84 2.628-1.128 4.044-0.624zM8.88 7.428c0.204-0.588 0.528-1.104 0.936-1.524l0.048 6c-1.128-1.14-1.56-2.868-0.984-4.476zM13.728 13.128l2.52-3.156c0.444-0.492 0.684-0.924 0.828-1.344 0.060-0.144 0.096-0.288 0.132-0.42 0.108 0.684 0.048 1.416-0.204 2.124-0.54 1.5-1.812 2.52-3.276 2.796zM12.888 9.264l0.024 3.864c0 0.024 0 0.048 0.012 0.072-0.48 0-0.96-0.084-1.44-0.252-0.396-0.144-0.756-0.336-1.080-0.576zM14.376 16.56l2.52 0.9c0.288 1.008 1.2 1.74 2.292 1.74h0.012v3.6h-19.2v-3.552c1.32 0 2.4-1.068 2.4-2.4 0-1.32-1.080-2.4-2.4-2.4v-3.648h1.26l-0.336 0.96 5.136 1.824c-0.78 0.852-1.26 1.98-1.26 3.216 0 2.652 2.148 4.8 4.8 4.8s4.8-2.148 4.8-4.8c0-0.084-0.024-0.156-0.024-0.24zM6.54 13.764l1.776 0.636c-0.168 0.048-0.18 0.324 0.036 0.336 0 0 0.216 0.024 0.444 0.036l0.672 1.848-0.936 2.832-1.572-4.68c0.252-0.012 0.492-0.036 0.492-0.036 0.228-0.024 0.204-0.372-0.024-0.36 0 0-0.708 0.060-1.152 0.060-0.084 0-0.18 0-0.276-0.012 0.156-0.24 0.336-0.456 0.54-0.66zM5.28 16.8c0-0.624 0.144-1.224 0.384-1.752l2.052 5.64c-1.44-0.708-2.436-2.184-2.436-3.888zM10.308 15.108l2.064 0.744c0.084 0.204 0.144 0.444 0.144 0.732 0 0.372-0.144 0.792-0.336 1.392l-0.42 1.44zM13.92 16.8c0 1.596-0.864 2.988-2.148 3.732l1.32-3.816c0.072-0.204 0.12-0.372 0.168-0.552l0.624 0.228c0.024 0.132 0.036 0.264 0.036 0.408zM8.376 20.94l1.296-3.768 1.332 3.636c0.012 0.024 0.012 0.048 0.024 0.060-0.444 0.156-0.924 0.252-1.428 0.252-0.42 0-0.828-0.072-1.224-0.18z"/>
</svg>
