<!-- Generated by IcoMoon.io -->
<svg version="1.1" xmlns="http://www.w3.org/2000/svg" width="24" height="24" viewBox="0 0 24 24">
<title>tickets-alt</title>
<path d="M24 7.656l-1.212 3.384v-0.012c-0.624-0.228-1.236-0.192-1.836 0.096s-1.020 0.744-1.248 1.368-0.192 1.236 0.084 1.836c0.288 0.6 0.744 1.008 1.38 1.236v0.012l-1.212 3.384-18.072-6.456 1.188-3.348c0.624 0.228 1.236 0.192 1.836-0.096 0.6-0.276 1.008-0.732 1.236-1.356s0.192-1.236-0.096-1.836c-0.276-0.588-0.732-0.996-1.356-1.224l1.224-3.444zM18.036 14.484l1.644-4.512c0.144-0.372 0.12-0.78-0.048-1.14s-0.468-0.636-0.84-0.78l-9.024-3.276c-0.768-0.276-1.644 0.144-1.92 0.888l-1.644 4.512c-0.288 0.78 0.12 1.644 0.888 1.92l9.024 3.288c0.168 0.060 0.336 0.096 0.516 0.096 0.624 0 1.2-0.396 1.404-0.996zM9.564 5.34l9.012 3.276c0.228 0.084 0.408 0.252 0.516 0.468 0.096 0.216 0.108 0.456 0.024 0.684l-1.644 4.512c-0.156 0.456-0.696 0.708-1.152 0.54l-9.012-3.288c-0.468-0.168-0.708-0.684-0.54-1.152l1.644-4.512c0.12-0.348 0.468-0.588 0.84-0.588 0.108 0 0.204 0.024 0.312 0.060zM17.748 19.908c0.42 0.324 0.9 0.492 1.44 0.492h0.012v3.6h-19.2v-3.552c0.66 0 1.236-0.24 1.692-0.708 0.468-0.456 0.708-1.032 0.708-1.692s-0.24-1.224-0.708-1.692-1.032-0.708-1.692-0.708v-3.648h1.26l-0.336 0.96 3.444 1.224c-0.612 0.192-1.068 0.744-1.068 1.416v4.8c0 0.828 0.672 1.5 1.5 1.5h9.6c0.828 0 1.5-0.672 1.5-1.5v-2.1l0.996 0.36c0.144 0.516 0.432 0.936 0.852 1.248zM3.9 20.4v-4.8c0-0.492 0.408-0.9 0.9-0.9h0.996l9.504 3.396v2.304c0 0.492-0.408 0.9-0.9 0.9h-9.6c-0.492 0-0.9-0.408-0.9-0.9z"/>
</svg>
