<?xml version="1.0" encoding="utf-8"?>
<!-- Generator: Adobe Illustrator 21.1.0, SVG Export Plug-In . SVG Version: 6.00 Build 0)  -->
<svg version="1.1" id="Layer_1" xmlns="http://www.w3.org/2000/svg" xmlns:xlink="http://www.w3.org/1999/xlink" x="0px" y="0px"
	 width="24px" height="24px" viewBox="0 0 24 24" enable-background="new 0 0 24 24" xml:space="preserve">
<title>translation</title>
<path d="M13.7,7.8h-1.8c-0.8,0-1.5,0.4-1.9,0.8L8.9,5.4H5.5l-2.9,8.4h2l0.9-2.4h3.4v4.8h-6c-1.3,0-2.4-1.1-2.4-2.4V5.4
	C0.5,4.1,1.6,3,2.9,3h8.4c1.3,0,2.4,1.1,2.4,2.4C13.7,5.4,13.7,7.8,13.7,7.8z M8.3,10.2H5.9l1.2-3.5L8.3,10.2z M12.5,9h8.4
	c1.3,0,2.4,1.1,2.4,2.4v8.4c0,1.3-1.1,2.4-2.4,2.4h-8.4c-1.3,0-2.4-1.1-2.4-2.4v-8.4C10.1,10.1,11.2,9,12.5,9z M21.2,15v-1.3h-3.8
	v-2.6H16v2.6h-3.8V15h1.5c0.1,1,0.7,2.2,1.5,3.1c-1,0.4-2.3,0.7-2.8,0.7c0,0,0.3,1.2,0.2,1.8c1,0,2.7-0.6,3.9-1.4
	c1.3,0.8,3,1.4,4,1.4c0-0.6,0.2-1.7,0.2-1.8c-0.5,0-1.8-0.3-2.9-0.8c0.8-0.9,1.4-2.1,1.5-3.1C19.6,15,21.2,15,21.2,15z M16.6,17.3
	c-0.6-0.6-1-1.4-1.2-2.3h2.5C17.7,16,17.3,16.8,16.6,17.3L16.6,17.3C16.7,17.4,16.6,17.3,16.6,17.3z"/>
</svg>
