<?xml version="1.0" encoding="utf-8"?>
<!-- Generator: Adobe Illustrator 21.1.0, SVG Export Plug-In . SVG Version: 6.00 Build 0)  -->
<svg version="1.1" id="Layer_1" xmlns="http://www.w3.org/2000/svg" xmlns:xlink="http://www.w3.org/1999/xlink" x="0px" y="0px"
	 width="24px" height="24px" viewBox="0 0 24 24" enable-background="new 0 0 24 24" xml:space="preserve">
<title>trash</title>
<path d="M15,4.7h3.6c0.7,0,1.2,0.5,1.2,1.2v1.2H4.2V5.9c0-0.7,0.6-1.2,1.2-1.2H9c0.2-1.3,1.6-2.4,3-2.4S14.8,3.4,15,4.7z M10.2,4.7
	h3.6C13.6,4,12.7,3.5,12,3.5S10.4,4,10.2,4.7z M5.4,8.3h13.2l-1.1,12.1c0,0.6-0.6,1.1-1.2,1.1H7.7c-0.6,0-1.1-0.5-1.2-1.1
	C6.5,20.4,5.4,8.3,5.4,8.3z"/>
</svg>
