<?xml version="1.0" encoding="utf-8"?>
<!-- Generator: Adobe Illustrator 21.1.0, SVG Export Plug-In . SVG Version: 6.00 Build 0)  -->
<svg version="1.1" id="Layer_1" xmlns="http://www.w3.org/2000/svg" xmlns:xlink="http://www.w3.org/1999/xlink" x="0px" y="0px"
	 width="24px" height="24px" viewBox="0 0 24 24" enable-background="new 0 0 24 24" xml:space="preserve">
<title>universal-access</title>
<path d="M12,3.3c1,0,1.8,0.8,1.8,1.8S13,6.9,12,6.9c-1,0-1.8-0.8-1.8-1.8S11,3.3,12,3.3z M4.1,9c0-0.8,7.9-0.9,7.9-0.9
	s7.9,0.1,7.9,0.9s-5.4,1.7-5.4,1.7s2,9.8,1.3,10.1C15.1,21,12,14.5,12,14.5S8.9,21,8.2,20.7c-0.8-0.3,1.3-10.1,1.3-10.1
	S4.1,9.8,4.1,9z"/>
</svg>
