<!-- Generated by IcoMoon.io -->
<svg version="1.1" xmlns="http://www.w3.org/2000/svg" width="24" height="24" viewBox="0 0 24 24">
<title>unlock</title>
<path d="M14.4 10.8v-3.6c0-1.32-1.080-2.4-2.4-2.4s-2.4 1.080-2.4 2.4h-2.4c0-2.652 2.148-4.8 4.8-4.8s4.8 2.148 4.8 4.8v3.6h1.2c0.66 0 1.2 0.54 1.2 1.2v8.4c0 0.66-0.54 1.2-1.2 1.2h-12c-0.66 0-1.2-0.54-1.2-1.2v-8.4c0-0.66 0.54-1.2 1.2-1.2h8.4zM13.2 19.2l-0.432-2.58c0.612-0.288 1.032-0.9 1.032-1.62 0-0.996-0.804-1.8-1.8-1.8s-1.8 0.804-1.8 1.8c0 0.72 0.42 1.332 1.032 1.62l-0.432 2.58h2.4z"/>
</svg>
