<!-- Generated by IcoMoon.io -->
<svg version="1.1" xmlns="http://www.w3.org/2000/svg" width="24" height="24" viewBox="0 0 24 24">
<title>update</title>
<path d="M12.24 3.936c4.236 0 7.716 3.132 8.304 7.2h2.496l-4.2 4.8-4.2-4.8h2.784c-0.54-2.364-2.652-4.14-5.184-4.14-1.74 0-3.276 0.852-4.248 2.136l-2.052-2.34c1.536-1.752 3.792-2.856 6.3-2.856zM11.76 20.064c-4.224 0-7.716-3.132-8.304-7.2h-2.496l4.2-4.8c1.404 1.596 2.796 3.204 4.2 4.8h-2.784c0.54 2.364 2.652 4.14 5.184 4.14 1.74 0 3.276-0.852 4.248-2.136l2.052 2.34c-1.536 1.752-3.78 2.856-6.3 2.856z"/>
</svg>
