<!-- Generated by IcoMoon.io -->
<svg version="1.1" xmlns="http://www.w3.org/2000/svg" width="24" height="24" viewBox="0 0 24 24">
<title>welcome-learn-more</title>
<path d="M12 12l-8.952-3.576 0.552 13.176h-2.4l0.576-13.692-1.776-0.708 12-4.8 12 4.8zM12 6c-0.66 0-1.2 0.264-1.2 0.6s0.54 0.6 1.2 0.6 1.2-0.264 1.2-0.6-0.54-0.6-1.2-0.6zM12 13.2l6.684-2.676c0.852 1.128 1.44 2.484 1.632 3.96-0.36-0.048-0.732-0.084-1.116-0.084-3.060 0-5.736 1.644-7.2 4.092-1.464-2.448-4.14-4.092-7.2-4.092-0.384 0-0.756 0.036-1.116 0.084 0.192-1.476 0.78-2.832 1.632-3.96z"/>
</svg>
