<?xml version="1.0" encoding="utf-8"?>
<!-- Generator: Adobe Illustrator 21.1.0, SVG Export Plug-In . SVG Version: 6.00 Build 0)  -->
<svg version="1.1" id="Layer_1" xmlns="http://www.w3.org/2000/svg" xmlns:xlink="http://www.w3.org/1999/xlink" x="0px" y="0px"
	 width="24px" height="24px" viewBox="0 0 24 24" enable-background="new 0 0 24 24" xml:space="preserve">
<title>welcome-view-site</title>
<path d="M21.6,16.7v-12c0-0.7-0.5-1.2-1.2-1.2H3.6C2.9,3.5,2.4,4,2.4,4.7v12c0,0.7,0.5,1.2,1.2,1.2h16.8
	C21.1,17.9,21.6,17.4,21.6,16.7z M12,7.1c2.8,0,5.3,1.4,7.2,3.6c-1.9,2.2-4.4,3.6-7.2,3.6s-5.3-1.4-7.2-3.6C6.7,8.5,9.2,7.1,12,7.1z
	 M14.4,10.7c0-1.3-1.1-2.4-2.4-2.4s-2.4,1.1-2.4,2.4s1.1,2.4,2.4,2.4S14.4,12,14.4,10.7z M16.8,20.3h3.6v1.2H3.6v-1.2h3.6v-1.2h9.6
	C16.8,19.1,16.8,20.3,16.8,20.3z"/>
</svg>
