<?xml version="1.0" encoding="utf-8"?>
<!-- Generator: Adobe Illustrator 21.1.0, SVG Export Plug-In . SVG Version: 6.00 Build 0)  -->
<svg version="1.1" id="Layer_1" xmlns="http://www.w3.org/2000/svg" xmlns:xlink="http://www.w3.org/1999/xlink" x="0px" y="0px"
	 width="24px" height="24px" viewBox="0 0 24 24" enable-background="new 0 0 24 24" xml:space="preserve">
<title>welcome-widgets-menus</title>
<path d="M22.2,19.8V4.2C22.2,3.5,21.7,3,21,3H3C2.3,3,1.8,3.5,1.8,4.2v15.6C1.8,20.5,2.3,21,3,21h18C21.7,21,22.2,20.5,22.2,19.8z
	 M4.2,5.4h15.6v4.8H4.2C4.2,10.2,4.2,5.4,4.2,5.4z M5.4,6.6V9H9V6.6C9,6.6,5.4,6.6,5.4,6.6z M10.2,6.6V9h3.6V6.6
	C13.8,6.6,10.2,6.6,10.2,6.6z M15,6.6V9h3.6V6.6C18.6,6.6,15,6.6,15,6.6z M4.8,12.6c0.3,0,0.6,0.3,0.6,0.6s-0.3,0.6-0.6,0.6
	s-0.6-0.3-0.6-0.6S4.5,12.6,4.8,12.6z M6.6,12.6h4.8v1.2H6.6V12.6z M13.8,12.6h6v6h-6V12.6z M4.8,15c0.3,0,0.6,0.3,0.6,0.6
	s-0.3,0.6-0.6,0.6s-0.6-0.3-0.6-0.6S4.5,15,4.8,15z M6.6,15h4.8v1.2H6.6V15z M15,15v2.4h3.6V15H15z M4.8,17.4c0.3,0,0.6,0.3,0.6,0.6
	s-0.3,0.6-0.6,0.6S4.2,18.3,4.2,18S4.5,17.4,4.8,17.4z M6.6,17.4h4.8v1.2H6.6V17.4z"/>
</svg>
