<!-- Generated by IcoMoon.io -->
<svg version="1.1" xmlns="http://www.w3.org/2000/svg" width="24" height="24" viewBox="0 0 24 24">
<title>wordpress</title>
<path d="M24 12c0-6.624-5.376-12-12-12s-12 5.376-12 12 5.376 12 12 12 12-5.376 12-12zM12 1.212c5.964 0 10.788 4.824 10.788 10.788s-4.824 10.788-10.788 10.788-10.788-4.824-10.788-10.788 4.824-10.788 10.788-10.788zM9.612 17.784l-3.66-9.852c0.588-0.036 1.26-0.096 1.26-0.096 0.516-0.060 0.456-1.212-0.072-1.188 0 0-1.548 0.12-2.556 0.12-0.18 0-0.396 0-0.624-0.012 1.728-2.604 4.68-4.32 8.040-4.32 2.508 0 4.788 0.948 6.492 2.508-0.72-0.096-1.74 0.42-1.74 1.704 0 0.792 0.456 1.464 0.948 2.256 0.372 0.648 0.6 1.464 0.6 2.652 0 1.608-1.524 5.376-1.524 5.376l-3.252-9c0.576-0.036 0.9-0.192 0.9-0.192 0.516-0.060 0.456-1.32-0.060-1.296 0 0-1.56 0.132-2.568 0.132-0.936 0-2.532-0.132-2.532-0.132-0.516-0.024-0.576 1.272-0.060 1.296l1.008 0.096 1.344 3.648zM16.836 20.364l3.132-8.364s0.804-2.028 0.468-4.572c0.756 1.368 1.128 2.904 1.128 4.572 0 3.552-1.872 6.696-4.728 8.364zM3.216 8.124l4.584 12.576c-3.204-1.56-5.364-4.896-5.364-8.7 0-1.392 0.24-2.676 0.78-3.876zM12.156 13.56l2.748 7.5c-0.9 0.324-1.884 0.504-2.904 0.504-0.864 0-1.692-0.132-2.472-0.36z"/>
</svg>
