<svg xmlns="http://www.w3.org/2000/svg" viewBox="0 0 20 20"><rect x="0" fill="none" width="20" height="20"/><g><path d="M7.4 6.7L6 3.9 3.9 6l2.8 1.4.7-.7zm.4 9c-.8.8-2.2.8-3 0-.8-.8-.8-2.2 0-3l3.9-4c-1.4-.4-3 0-4.1 1.1l-1.3 1.3c-1.7 1.7-1.7 4.4 0 6.1 1.7 1.7 4.4 1.7 6.1 0l1.3-1.3c1.1-1.1 1.5-2.7 1.1-4.1l-4 3.9zm5.3-1.9l1.4 2.8 2.1-2.1-2.8-1.4-.7.7zm4.6-11c-1.7-1.7-4.4-1.7-6.1 0l-1.3 1.3C9.2 5.2 8.8 6.8 9.2 8.2l3.4-3.4.6-.6c.8-.8 2.2-.8 3 0 .8.8.8 2.2 0 3l-.8.8-.6.6-2.6 2.6c1.4.4 3 0 4.1-1.1l1.3-1.3c1.8-1.6 1.8-4.3.1-6z"/></g></svg>