<svg xmlns="http://www.w3.org/2000/svg" viewBox="0 0 20 20"><rect x="0" fill="none" width="20" height="20"/><g><path d="M16 4H4c-1.1 0-2 .9-2 2v7c0 1.1.9 2 2 2h12c1.1 0 2-.9 2-2V6c0-1.1-.9-2-2-2zM9.1 9.5l-.4.3c-.4.4-.5 1.1-.2 1.6l-.8.8-1.1-1.1-1.3 1.3c-.2.2-1.6 1.3-1.8 1.1s.9-1.6 1.1-1.8l1.3-1.3-1.1-1.1.8-.8c.5.3 1.2.3 1.6-.2l.3-.3c.5-.5.5-1.2.2-1.7l.8-.8 3 2.9-.8.8c-.5-.2-1.2-.2-1.6.3zm4.3 4.1l-.7.7-2.4-2.3 2.4-2.4.7.7-1.7 1.7 1.7 1.6zm1 .8l-.7-.7 1.6-1.6-1.6-1.6.7-.7 2.4 2.4-2.4 2.2z"/></g></svg>