<?xml version="1.0" encoding="utf-8"?>
<!-- Generator: Adobe Illustrator 21.1.0, SVG Export Plug-In . SVG Version: 6.00 Build 0)  -->
<svg version="1.1" id="Layer_1" xmlns="http://www.w3.org/2000/svg" xmlns:xlink="http://www.w3.org/1999/xlink" x="0px" y="0px"
	 width="20px" height="20px" viewBox="0 0 20 20" style="enable-background:new 0 0 20 20;" xml:space="preserve">
<path d="M17,4H3C1.9,4,1,4.9,1,6v8c0,1.1,0.9,2,2,2h14c1.1,0,2-0.9,2-2V6C19,4.9,18.1,4,17,4z M10,12H3V6h7V12z M14,10.5L12.5,12
	l1.5,1.5V15l-3-3l3-3V10.5z M15,15v-1.5l1.5-1.5L15,10.5V9l3,3L15,15z"/>
<polygon points="4,11 6,9.2 7.2,10 9,8.5 9,11 "/>
<circle cx="4.6" cy="7.6" r="1"/>
</svg>
