<svg id="Layer_1" data-name="Layer 1" xmlns="http://www.w3.org/2000/svg" viewBox="0 0 20 20"><title>admin-site-alt2</title><path d="M10,1a9,9,0,1,0,9,9A9,9,0,0,0,10,1Zm2.92,12.34c0,.35.14.63.36.66s.47-.22.58-.6l.2.08a1.72,1.72,0,0,1,.84,2,1.58,1.58,0,0,1-1.45,1.24c-.49-1.21-2.11.06-3.56-.22a1.92,1.92,0,0,1-1.33-1.19C9.75,15.2,11.41,13.58,12.92,13.34ZM9,12.27a1.84,1.84,0,0,0,1.82-1.59,1.39,1.39,0,0,1-.07,1.83A1.17,1.17,0,0,1,9,12.27Zm3-.76c.41.39,3-.06,3.52,1.09C14.57,12.4,12.57,13.21,12.05,11.52ZM10.73,6.45c0,.09,0,.18,0,.27-.65-.77-1.33-1.07-1.61-.57s1,1.11.76,1.88S8.61,8.59,8,9.64s-.49,2.42,1.24,3.67A3,3,0,0,1,6.7,11.2C6.3,10,6.61,8.94,5.92,8.74,5,8.46,4,9.71,4,10.8c-1.26-1.26.05-2.86-1.2-4.18a7.89,7.89,0,0,1,9.64-4.13A5.34,5.34,0,0,0,10.73,6.45Z"/></svg>