<!-- Generated by IcoMoon.io -->
<svg version="1.1" xmlns="http://www.w3.org/2000/svg" width="24" height="24" viewBox="0 0 24 24">
<title>admin-links</title>
<path d="M21.288 3.312c2.016 2.028 2.016 5.292 0 7.32l-1.836 1.824c-1.344 1.344-3.24 1.764-4.968 1.308l3.144-3.132 0.912-0.924 0.912-0.912c1.008-1.008 1.008-2.64 0-3.648-1.008-1.020-2.64-1.020-3.648 0l-0.924 0.912-4.056 4.056c-0.444-1.728-0.024-3.624 1.32-4.968l1.824-1.836c2.028-2.016 5.304-2.016 7.32 0zM10.308 16.116l6.408-6.408c0.504-0.504 0.504-1.32 0-1.824-0.528-0.516-1.356-0.468-1.836 0l-6.396 6.408c-0.504 0.504-0.504 1.32 0 1.824 0.528 0.516 1.356 0.468 1.824 0zM9.396 18.864l4.968-4.98c0.456 1.728 0.036 3.624-1.308 4.968l-1.824 1.836c-2.028 2.016-5.292 2.016-7.32 0-2.016-2.016-2.016-5.304 0-7.32l1.836-1.824c1.344-1.344 3.24-1.764 4.968-1.32l-4.968 4.98c-1.020 1.008-1.020 2.64 0 3.66 1.008 1.008 2.64 1.008 3.648 0z"/>
</svg>
