<!-- Generated by IcoMoon.io -->
<svg version="1.1" xmlns="http://www.w3.org/2000/svg" width="24" height="24" viewBox="0 0 24 24">
<title>admin-site-alt3</title>
<path d="M10.8 0c-5.965 0-10.8 4.835-10.8 10.8s4.835 10.8 10.8 10.8c5.965 0 10.8-4.835 10.8-10.8s-4.835-10.8-10.8-10.8zM1.332 11.616h3.012c0.047 1.092 0.2 2.177 0.456 3.24h-2.592c-0.483-1.019-0.78-2.116-0.876-3.24v0zM11.616 5.136v-3.708c1.156 0.439 2.107 1.296 2.664 2.4 0.246 0.416 0.463 0.849 0.648 1.296l-3.312 0.012zM15.48 6.756c0.278 1.060 0.443 2.146 0.492 3.24h-4.356v-3.24h3.864zM9.984 1.428v3.708h-3.312c0.185-0.447 0.402-0.88 0.648-1.296 0.555-1.109 1.506-1.97 2.664-2.412v0zM9.984 6.756v3.24h-4.344c0.049-1.094 0.214-2.18 0.492-3.24h3.852zM4.344 9.984h-3.012c0.096-1.124 0.393-2.221 0.876-3.24h2.592c-0.256 1.063-0.409 2.148-0.456 3.24v0zM5.64 11.616h4.344v3.24h-3.852c-0.278-1.060-0.443-2.146-0.492-3.24v0zM9.996 16.416v3.708c-1.156-0.439-2.107-1.296-2.664-2.4-0.246-0.416-0.463-0.849-0.648-1.296l3.312-0.012zM11.616 20.124v-3.648h3.312c-0.185 0.447-0.402 0.88-0.648 1.296-0.557 1.104-1.508 1.961-2.664 2.4v-0.048zM11.616 14.796v-3.24h4.344c-0.049 1.094-0.214 2.18-0.492 3.24h-3.852zM17.268 11.556h3.012c-0.096 1.124-0.393 2.221-0.876 3.24h-2.604c0.252-1.043 0.405-2.108 0.456-3.18l0.012-0.060zM17.268 9.936c-0.055-1.072-0.212-2.137-0.468-3.18h2.592c0.483 1.019 0.78 2.116 0.876 3.24l-3-0.060zM18.468 5.136h-2.148c-0.389-1.092-0.952-2.113-1.668-3.024 1.493 0.67 2.79 1.711 3.768 3.024h0.048zM6.948 2.112c-0.716 0.911-1.279 1.932-1.668 3.024h-2.1c0.978-1.313 2.275-2.354 3.768-3.024v0zM3.168 16.512h2.112c0.389 1.092 0.952 2.113 1.668 3.024-1.497-0.68-2.795-1.734-3.768-3.060l-0.012 0.036zM14.64 19.536c0.716-0.911 1.279-1.932 1.668-3.024h2.112c-0.984 1.295-2.28 2.319-3.768 2.976l-0.012 0.048z"></path>
</svg>
