<!-- Generated by IcoMoon.io -->
<svg version="1.1" xmlns="http://www.w3.org/2000/svg" width="24" height="24" viewBox="0 0 24 24">
<title>admin-multisite</title>
<path d="M17.124 8.244l-5.124-4.476-5.124 4.476-0.876-0.876 6-5.256 6 5.256zM16.8 10.104l-4.86 4.116-4.74-4.164v-0.888l4.8-4.2 4.8 4.2v0.936zM13.2 11.64v-2.040h-2.4v2.040h2.4zM11.124 16.476l-5.124-4.476-5.124 4.476-0.876-0.876 6-5.256 6 5.256zM23.124 16.476l-5.124-4.476-5.124 4.476-0.876-0.876 6-5.256 6 5.256zM6 13.2l4.8 4.2v4.2h-9.6v-4.2zM18 13.2l4.8 4.2v4.2h-9.6v-4.2zM7.2 20.4v-2.4h-2.4v2.4h2.4zM19.2 20.4v-2.4h-2.4v2.4h2.4z"></path>
</svg>
