<svg id="Layer_1" data-name="Layer 1" xmlns="http://www.w3.org/2000/svg" viewBox="0 0 20 20"><title>admin-site-alt</title><path d="M10,1a9,9,0,1,0,9,9A9,9,0,0,0,10,1Zm7.5,6.48a3.38,3.38,0,0,1-1.75,2.05,5.64,5.64,0,0,0-3.27-3.75,2,2,0,0,1,.79-1.09c-.43-.28-1-.42-1.34.07-.53.69,0,1.61.21,2l0,.14A3.07,3.07,0,0,1,10.9,5.46a5.2,5.2,0,0,0-2.76.69A3.44,3.44,0,0,1,8.3,4.47a2.21,2.21,0,0,0,1.92-.8c.46-.52-.13-1.18-.59-1.58l.36,0a7.86,7.86,0,0,1,3.89,1,5.61,5.61,0,0,1,2.27,4.26c.24,0,.7-.55.91-.92A7.86,7.86,0,0,1,17.5,7.48ZM10,17.84c-2.05-2.08.25-3.75-1-5.24-.92-.85-2.29-.26-3.11-1.23A4.08,4.08,0,0,1,7.32,7.44c.52-.44,4-1,5.42.22a5.22,5.22,0,0,1,1.67,2.74,2.35,2.35,0,0,0,1.32-.29C16.14,13.09,12.58,16.85,10,17.84ZM6.15,3.09a1.84,1.84,0,0,1,2.16.66,2.92,2.92,0,0,1-1.5.72A3,3,0,0,1,7,3.61Z"/></svg>