<!-- Generated by IcoMoon.io -->
<svg version="1.1" xmlns="http://www.w3.org/2000/svg" width="24" height="24" viewBox="0 0 24 24">
<title>admin-appearance</title>
<path d="M17.376 13.272l-8.484-8.484 1.8-1.8c0.6-0.672 2.76-0.564 4.212 0.384 1.452 0.96 1.716 1.536 3.492 2.52 1.416 0.768 2.94 1.512 5.34 1.020zM16.524 14.124l-8.484-8.484-2.124 2.124c-0.468 0.468-0.468 1.224 0 1.692l1.272 1.272c0.468 0.468 0.468 1.236 0 1.704-0.72 0.72-1.716 1.332-2.652 2.028-0.42 0.312-0.84 0.636-1.212 1.008-1.608 1.608-2.844 3.828-1.644 5.016 1.188 1.2 3.408-0.036 5.016-1.632 0.372-0.372 0.696-0.792 1.020-1.224 0.684-0.936 1.296-1.932 2.028-2.652 0.468-0.468 1.224-0.468 1.692 0l1.272 1.272c0.468 0.468 1.224 0.468 1.692 0z"></path>
</svg>
