<!-- Generated by IcoMoon.io -->
<svg version="1.1" xmlns="http://www.w3.org/2000/svg" width="24" height="24" viewBox="0 0 24 24">
<title>admin-plugins</title>
<path d="M15.732 5.232l-3.888 3.888-2.244-2.244 3.888-3.888c0.42-0.408 1.26-0.24 1.872 0.384 0.624 0.612 0.792 1.452 0.372 1.86zM6.132 7.356l1.092-1.344 10.812 10.812-1.428 1.008c-0.852 0.852-3.156 1.392-4.584 1.392h-4.656l-1.488 1.488c-0.708 0.708-1.848 0.708-2.544 0-0.708-0.696-0.708-1.836 0-2.544l1.488-1.488v-4.656c0-1.356 0.48-3.828 1.308-4.668zM14.844 12.12l3.888-3.888c0.408-0.42 1.248-0.252 1.86 0.372 0.624 0.612 0.792 1.452 0.372 1.86l-3.888 3.9z"></path>
</svg>
