<!-- Generated by IcoMoon.io -->
<svg version="1.1" xmlns="http://www.w3.org/2000/svg" width="24" height="24" viewBox="0 0 24 24">
<title>admin-site-alt</title>
<path d="M10.8 0c-5.965 0-10.8 4.835-10.8 10.8s4.835 10.8 10.8 10.8c5.965 0 10.8-4.835 10.8-10.8s-4.835-10.8-10.8-10.8zM19.8 7.776c-0.329 1.076-1.089 1.967-2.1 2.46-0.54-2.027-1.989-3.689-3.924-4.5 0.155-0.532 0.49-0.995 0.948-1.308-0.516-0.336-1.2-0.504-1.608 0.084-0.636 0.828 0 1.932 0.252 2.4v0.168c-0.666-0.404-1.187-1.009-1.488-1.728-1.159-0.037-2.306 0.249-3.312 0.828-0.104-0.678-0.038-1.37 0.192-2.016 0.88 0.084 1.744-0.276 2.304-0.96 0.552-0.624-0.156-1.416-0.708-1.896h0.432c1.634-0.011 3.242 0.402 4.668 1.2 1.632 1.206 2.633 3.085 2.724 5.112 0.288 0 0.84-0.66 1.092-1.104 0.206 0.407 0.383 0.828 0.528 1.26v0zM10.8 20.208c-2.46-2.496 0.3-4.5-1.2-6.288-1.104-1.020-2.748-0.312-3.732-1.476-0.338-1.768 0.321-3.579 1.716-4.716 0.624-0.528 4.8-1.2 6.504 0.264 0.997 0.858 1.698 2.009 2.004 3.288 0.551 0.042 1.101-0.079 1.584-0.348 0.492 3.576-3.78 8.088-6.876 9.276zM6.18 2.508c0.943-0.36 2.011-0.034 2.592 0.792-0.504 0.456-1.129 0.757-1.8 0.864 0.025-0.353 0.102-0.701 0.228-1.032l-1.020-0.624z"></path>
</svg>
