<svg id="Layer_1" data-name="Layer 1" xmlns="http://www.w3.org/2000/svg" viewBox="0 0 20 20"><title>admin-site-alt3</title><path d="M10,1a9,9,0,1,0,9,9A9,9,0,0,0,10,1ZM2.11,10.68H4.62A14.13,14.13,0,0,0,5,13.38H2.84A7.86,7.86,0,0,1,2.11,10.68Zm8.57-5.4V2.19a4.13,4.13,0,0,1,2.22,2,8.53,8.53,0,0,1,.54,1.08Zm3.22,1.35a12.88,12.88,0,0,1,.41,2.7H10.68V6.63ZM9.32,2.19V5.28H6.56a8.53,8.53,0,0,1,.54-1.08A4.13,4.13,0,0,1,9.32,2.19Zm0,4.44v2.7H5.7a12.88,12.88,0,0,1,.41-2.7ZM4.62,9.32H2.11a7.86,7.86,0,0,1,.73-2.7H5A14.13,14.13,0,0,0,4.62,9.32ZM5.7,10.68H9.32v2.7H6.11A12.88,12.88,0,0,1,5.7,10.68Zm3.63,4v3.09a4.13,4.13,0,0,1-2.22-2,8.53,8.53,0,0,1-.54-1.08Zm1.35,3.09V14.73h2.76a8.53,8.53,0,0,1-.54,1.08A4.13,4.13,0,0,1,10.68,17.81Zm0-4.44v-2.7H14.3a12.88,12.88,0,0,1-.41,2.7Zm4.71-2.7h2.51a7.86,7.86,0,0,1-.73,2.7H15A14.13,14.13,0,0,0,15.38,10.68Zm0-1.35A14.13,14.13,0,0,0,15,6.63h2.16a7.86,7.86,0,0,1,.73,2.7Zm1-4H14.6a8.92,8.92,0,0,0-1.39-2.52A8,8,0,0,1,16.35,5.28ZM6.79,2.76A8.92,8.92,0,0,0,5.4,5.28H3.65A8,8,0,0,1,6.79,2.76Zm-3.15,12H5.4a8.92,8.92,0,0,0,1.39,2.52A8,8,0,0,1,3.65,14.73Zm9.56,2.52a8.92,8.92,0,0,0,1.39-2.52h1.76A8,8,0,0,1,13.21,17.24Z"/></svg>