<!-- Generated by IcoMoon.io -->
<svg version="1.1" xmlns="http://www.w3.org/2000/svg" width="24" height="24" viewBox="0 0 24 24">
<title>admin-site-alt2</title>
<path d="M10.8 0c-5.965 0-10.8 4.835-10.8 10.8s4.835 10.8 10.8 10.8c5.965 0 10.8-4.835 10.8-10.8s-4.835-10.8-10.8-10.8zM14.304 14.808c0 0.42 0.168 0.756 0.432 0.792s0.564-0.264 0.696-0.72l0.24 0.096c0.862 0.461 1.282 1.462 1.008 2.4-0.181 0.83-0.892 1.438-1.74 1.488-0.588-1.452-2.532 0.072-4.272-0.264-0.734-0.185-1.331-0.719-1.596-1.428 1.428-0.132 3.42-2.076 5.232-2.364zM9.6 13.524c1.102-0.002 2.034-0.816 2.184-1.908 0.526 0.65 0.49 1.588-0.084 2.196-0.306 0.268-0.713 0.39-1.116 0.335s-0.762-0.282-0.984-0.623zM13.2 12.612c0.492 0.468 3.6-0.072 4.224 1.308-1.14-0.24-3.54 0.732-4.164-1.296l-0.060-0.012zM11.676 6.54c0 0.108 0 0.216 0 0.324-0.78-0.924-1.596-1.284-1.932-0.684s1.2 1.332 0.912 2.256c-0.288 0.924-1.524 0.672-2.256 1.932s-0.588 2.904 1.488 4.404c-1.431-0.159-2.63-1.154-3.048-2.532-0.48-1.44-0.108-2.712-0.936-2.952-1.104-0.336-2.304 1.164-2.304 2.472-1.512-1.512 0.060-3.432-1.44-5.016 2.041-4.346 7.013-6.477 11.568-4.956-1.322 1.225-2.067 2.95-2.052 4.752v0z"></path>
</svg>
