<!-- Generated by IcoMoon.io -->
<svg version="1.1" xmlns="http://www.w3.org/2000/svg" width="24" height="24" viewBox="0 0 24 24">
<title>admin-network</title>
<path d="M20.34 3.096c2.352 2.34 2.352 6.144 0 8.484-1.812 1.812-4.5 2.208-6.708 1.212l-2.244 3.972-3.588 0.372-1.8 4.464h-3.6l-1.2-2.4 9.54-9.228c-1.104-2.244-0.744-5.016 1.116-6.876 2.34-2.352 6.144-2.352 8.484 0zM17.328 7.644c0.888 0 1.596-0.72 1.596-1.608 0-0.876-0.708-1.596-1.596-1.596-0.876 0-1.596 0.72-1.596 1.596 0 0.888 0.72 1.608 1.596 1.608z"></path>
</svg>
