<svg id="Layer_1" data-name="Layer 1" xmlns="http://www.w3.org/2000/svg" viewBox="0 0 20 20"><title>admin-site</title><path d="M10,1a9,9,0,1,0,9,9A9,9,0,0,0,10,1Zm3.46,11.95c0,1.47-.8,3.3-4.06,4.7.3-4.17-2.52-3.69-3.2-5A3.25,3.25,0,0,1,8,10.1a8.49,8.49,0,0,1-4.18-2,1.84,1.84,0,0,0,.64,1.21A4.18,4.18,0,0,1,2.52,7.81,7.94,7.94,0,0,1,9.77,2.18c-.84,1.38-1.5,4.13,0,5.57C8.23,8,7.26,6,6.41,6.79,5.28,7.85,6.74,9.3,9.83,9.87,13.12,10.46,13.49,11.45,13.46,12.95Zm1.34-4c-.32-1.11.62-2.23,1.69-3.14a7.27,7.27,0,0,1,.84,6.68C16.56,10.6,15.16,10.17,14.8,8.92Z"/></svg>