<?xml version="1.0" encoding="utf-8"?>
<!-- Generator: Adobe Illustrator 24.1.0, SVG Export Plug-In . SVG Version: 6.00 Build 0)  -->
<svg version="1.1" id="Layer_1" xmlns="http://www.w3.org/2000/svg" xmlns:xlink="http://www.w3.org/1999/xlink" x="0px" y="0px"
	 viewBox="0 0 20 20" style="enable-background:new 0 0 20 20;" xml:space="preserve">
<path d="M17.6,2.4c-0.8-0.8-2.1-0.1-2.7,0.5l-3.5,3.8l-2.4-1l0.6-0.6c0.2-0.2,0.2-0.5,0-0.7C9.5,4.2,9.2,4.3,9,4.4L8.1,5.3L6.3,4.5
	L6.8,4C7,3.8,7,3.5,6.8,3.4c-0.2-0.2-0.5-0.2-0.7,0L5.3,4.2L4.8,4C4,3.6,3.1,3.7,2.5,4.4l5.8,5.8L6,12.6l-3.5-0.2L2,13.1l3.1,1.8
	L6.9,18l0.7-0.5L7.4,14l2.5-2.3l5.8,5.8c0.6-0.6,0.8-1.6,0.4-2.3l-0.2-0.5l0.8-0.8c0.2-0.2,0.2-0.5,0-0.7c-0.2-0.2-0.5-0.2-0.7,0
	l-0.5,0.5l-0.8-1.9l0.9-0.9c0.2-0.2,0.2-0.5,0-0.7c-0.2-0.2-0.5-0.2-0.6,0l-0.6,0.6l-1-2.4L17.2,5C17.8,4.5,18.4,3.1,17.6,2.4z"/>
</svg>
