<!-- Generated by IcoMoon.io -->
<svg version="1.1" xmlns="http://www.w3.org/2000/svg" width="24" height="24" viewBox="0 0 24 24">
<title>album</title>
<path d="M0 21.6h12v-0.312c1.824 0.48 3.804 0.42 5.712-0.288 4.968-1.824 7.524-7.344 5.7-12.312-1.716-4.668-6.696-7.2-11.412-5.976v-0.312h-12v19.2zM10.8 3.6v16.8h-9.6v-16.8h9.6zM17.34 13.464c-0.816 1.62-2.784 2.28-4.404 1.476-0.372-0.18-0.684-0.42-0.936-0.708v-4.476c0.96-1.032 2.532-1.356 3.864-0.696 1.62 0.816 2.28 2.784 1.476 4.404zM14.040 12.48c0.264 0.192 0.636 0.144 0.84-0.12 0.192-0.264 0.144-0.636-0.12-0.84s-0.636-0.144-0.84 0.12c-0.192 0.252-0.144 0.636 0.12 0.84zM17.652 16.884c-1.404 0.936-3.072 1.188-4.596 0.828-0.324-0.072-0.528-0.408-0.444-0.732s0.408-0.516 0.744-0.432l0.204 0.048c1.152 0.204 2.376-0.012 3.432-0.708 0.564-0.384 1.032-0.864 1.368-1.416 0.18-0.276 0.54-0.36 0.828-0.192 0.276 0.18 0.36 0.552 0.192 0.828-0.432 0.684-1.008 1.296-1.728 1.776zM18.912 18.768c-1.776 1.188-3.852 1.584-5.808 1.272-0.336-0.060-0.564-0.384-0.492-0.72 0.060-0.324 0.384-0.54 0.732-0.468l0.264 0.048c1.572 0.18 3.216-0.168 4.644-1.128 0.852-0.564 1.524-1.284 2.040-2.088 0.168-0.288 0.54-0.372 0.816-0.192 0.288 0.168 0.372 0.54 0.192 0.828-0.588 0.948-1.392 1.788-2.388 2.448z"></path>
</svg>
