<?xml version="1.0" encoding="utf-8"?>
<!-- Generator: Adobe Illustrator 24.1.0, SVG Export Plug-In . SVG Version: 6.00 Build 0)  -->
<svg version="1.1" id="Layer_1" xmlns="http://www.w3.org/2000/svg" xmlns:xlink="http://www.w3.org/1999/xlink" x="0px" y="0px"
	 viewBox="0 0 20 20" style="enable-background:new 0 0 20 20;" xml:space="preserve">
<style type="text/css">
	.st0{fill-rule:evenodd;clip-rule:evenodd;}
</style>
<path class="st0" d="M16.2,14.9c-1.9,0.8-4,1.2-6.1,1.2c-2.8,0-5.5-0.7-7.9-2.1c-0.2-0.1-0.3,0.1-0.2,0.2c2.2,2,5,3,7.9,3
	c2.3,0,4.6-0.7,6.5-2C16.8,15.1,16.5,14.7,16.2,14.9z M18,13.9c-0.9-0.4-2-0.3-2.8,0.3c-0.2,0.1-0.1,0.3,0,0.2
	c0.6-0.1,1.8-0.2,2,0.1c0.2,0.3-0.2,1.5-0.5,2c-0.1,0.2,0.1,0.2,0.2,0.1C17.7,15.9,18.1,14.9,18,13.9z M9,12.6
	c1.1,0.1,2.2-0.4,2.9-1.3c0.3,0.4,0.6,0.8,1,1.2c0.1,0.1,0.3,0.1,0.4,0l0,0c0.3-0.3,1-0.9,1.3-1.2c0.1-0.1,0.1-0.3,0-0.5
	c-0.4-0.4-0.6-1-0.7-1.6V6.5c0-1.1,0.1-2.2-0.8-3c-0.7-0.6-1.7-0.9-2.6-0.9C8.9,2.7,7,3.3,6.7,5.3c0,0,0,0,0,0
	c0,0.2,0.1,0.3,0.3,0.3l1.7,0.2c0.2,0,0.3-0.2,0.3-0.3c0.1-0.7,0.7-1.1,1.4-1c0.4,0,0.7,0.2,1,0.5c0.2,0.4,0.3,0.8,0.2,1.3v0.2
	c-1.1,0-2.2,0.2-3.3,0.6C7.1,7.5,6.3,8.6,6.4,9.9c0,0.1,0,0.3,0,0.4C6.4,11.6,7.6,12.7,9,12.6z M11.5,7.8l0,0.4
	c0.1,0.6,0,1.3-0.3,1.8c-0.2,0.5-0.7,0.8-1.2,0.8c-0.7,0-1.1-0.5-1.1-1.3C8.9,8.1,10.2,7.8,11.5,7.8z"/>
</svg>
