<!-- Generated by IcoMoon.io -->
<svg version="1.1" xmlns="http://www.w3.org/2000/svg" width="24" height="24" viewBox="0 0 24 24">
<title>awards</title>
<path d="M5.352 6.192l0.648 2.76-0.648 2.748 2.412 1.488 1.476 2.412 2.76-0.648 2.76 0.648 1.476-2.412 2.412-1.488-0.648-2.748 0.648-2.76-2.4-1.488-1.488-2.412-2.76 0.66-2.748-0.648-1.5 2.4zM12.012 13.8c-2.664 0-4.812-2.148-4.812-4.812 0-2.64 2.148-4.788 4.812-4.788 2.64 0 4.788 2.148 4.788 4.788 0 2.664-2.148 4.812-4.788 4.812zM11.988 12.6c-1.992 0-3.588-1.608-3.588-3.6 0-1.98 1.596-3.6 3.588-3.6s3.612 1.62 3.612 3.6c0 1.992-1.62 3.6-3.612 3.6zM16.596 13.92l-1.536 2.688-2.496-0.564 3.036 6.996 1.68-2.64h3zM7.356 14.004l1.5 2.7 2.556-0.612-3.012 6.948-1.68-2.64h-3z"></path>
</svg>
