<!-- Generated by IcoMoon.io -->
<svg version="1.1" xmlns="http://www.w3.org/2000/svg" width="24" height="24" viewBox="0 0 24 24">
<title>backup</title>
<path d="M16.38 3.456c4.716 2.412 6.576 8.208 4.164 12.924s-8.196 6.576-12.924 4.164c-2.244-1.152-3.84-3.072-4.632-5.28l1.968-1.236c0.54 1.884 1.824 3.54 3.696 4.512 3.612 1.848 8.028 0.42 9.876-3.192 1.86-3.612 0.432-8.028-3.18-9.888-3.612-1.848-8.028-0.42-9.876 3.192l2.256 1.164-5.94 3.696-0.468-6.984 2.136 1.092c2.424-4.74 8.244-6.552 12.924-4.164zM11.148 12.852c-0.216-0.216-0.348-0.516-0.348-0.852 0-0.084 0.036-0.144 0.048-0.228h-0.012l1.164-5.772 1.164 5.772 3.636 3.828-5.4-2.544 0.024-0.024c-0.096-0.048-0.192-0.108-0.276-0.18z"/>
</svg>
