<?xml version="1.0" encoding="utf-8"?>
<!-- Generator: Adobe Illustrator 24.1.0, SVG Export Plug-In . SVG Version: 6.00 Build 0)  -->
<svg version="1.1" id="Layer_1" xmlns="http://www.w3.org/2000/svg" xmlns:xlink="http://www.w3.org/1999/xlink" x="0px" y="0px"
	 viewBox="0 0 20 20" style="enable-background:new 0 0 20 20;" xml:space="preserve">
<path d="M13.8,9.3c-0.8-0.1-1.5-0.4-2-1c-0.5-0.6-0.9-1.3-1-2c-0.4-0.1-0.7-0.3-1-0.6C9.4,5.2,9.2,4.7,9.1,4.2L8.2,5.1L7.4,4.4
	C6.8,3.7,5.7,3.7,5,4.4c0,0,0,0,0,0L2.5,6.9c-0.7,0.7-0.7,1.8,0,2.5l0.7,0.8l-0.6,0.6c-0.7,0.7-0.7,1.8,0,2.5l4.3,4.3
	c0.7,0.7,1.8,0.7,2.4,0c0,0,0,0,0,0l6.4-6.5c-0.5-0.1-1-0.3-1.4-0.7C14.2,10,14,9.6,13.8,9.3z M3.6,7.6l2-2c0.3-0.3,0.8-0.3,1,0l0,0
	l0.5,0.5L4.2,9.2L3.6,8.6C3.4,8.3,3.4,7.9,3.6,7.6z M4.2,12.3C4.2,12.3,4.2,12.3,4.2,12.3c-0.3-0.3-0.3-0.7,0-0.9L8.5,7
	c0.3-0.3,0.7-0.3,0.9,0c0,0,0,0,0,0c0.3,0.3,0.3,0.7,0,0.9l-4.3,4.3C4.8,12.5,4.4,12.5,4.2,12.3z M6,14.1C6,14.1,6,14.1,6,14.1
	c-0.3-0.3-0.3-0.7,0-0.9l4.3-4.3c0.3-0.3,0.7-0.3,0.9,0c0,0,0,0,0,0c0.3,0.3,0.3,0.7,0,0.9l-4.3,4.3C6.7,14.4,6.3,14.4,6,14.1z
	 M13.1,11.6L8.8,16c-0.3,0.3-0.7,0.3-0.9,0l0,0c-0.3-0.3-0.3-0.7,0-0.9l4.3-4.3c0.3-0.3,0.7-0.3,0.9,0l0,0
	C13.3,10.9,13.3,11.4,13.1,11.6z M17.5,7.2C17.3,7,17,6.8,16.8,6.8c0.4-1,0.2-2.2-0.6-2.9h0c-0.8-0.8-1.9-1-2.9-0.6
	C13.2,3,13,2.7,12.8,2.5c-0.7-0.7-1.8-0.7-2.4,0c-0.7,0.7-0.7,1.8,0,2.5c0.3,0.3,0.8,0.5,1.2,0.5c-0.1,0.8,0.2,1.6,0.8,2.2
	c0.6,0.6,1.4,0.8,2.2,0.8c0,0.5,0.2,0.9,0.5,1.2c0,0,0,0,0,0c0.7,0.7,1.8,0.7,2.4,0C18.2,9,18.2,7.9,17.5,7.2z"/>
</svg>
