<?xml version="1.0" encoding="utf-8"?>
<!-- Generator: Adobe Illustrator 24.1.0, SVG Export Plug-In . SVG Version: 6.00 Build 0)  -->
<svg version="1.1" id="Layer_1" xmlns="http://www.w3.org/2000/svg" xmlns:xlink="http://www.w3.org/1999/xlink" x="0px" y="0px"
	 viewBox="0 0 20 20" style="enable-background:new 0 0 20 20;" xml:space="preserve">
<path d="M10,18c1.1,0,2-0.9,2-2H8C8,17.1,8.9,18,10,18z M14,9.8V7.5c0-1.8-1.2-3.4-3-3.9c0.1-0.2,0.1-0.4,0.2-0.5
	C11.1,2.5,10.6,2,10,2C9.4,2,8.9,2.5,8.9,3.1c0,0.2,0.1,0.4,0.2,0.5c-1.8,0.4-3,2-3,3.9v2.2c-0.1,1.2-0.9,2.3-2,2.8V15h12v-2.5
	C14.9,12.1,14.1,11,14,9.8z"/>
</svg>
