<!-- Generated by IcoMoon.io -->
<svg version="1.1" xmlns="http://www.w3.org/2000/svg" width="24" height="24" viewBox="0 0 24 24">
<title>buddicons-tracking</title>
<path d="M13.176 8.136l5.424 9.864c-1.2 2.4-4.2 3.6-6.6 3.6s-5.4-1.2-6.6-3.6l5.4-9.816c-0.9-1.476-2.736-2.376-5.148-2.436l2.952-3.504c2.016 1.428 2.952 2.784 3.564 3.972 0.672-1.044 1.44-2.016 3.24-2.544l2.196 3.432c-1.704-0.408-3.168 0.096-4.428 1.032zM9.804 12.48l-1.116 2.028c0.588 0.132 1.2 0.192 1.848 0.192 1.62 0 3.096-0.432 4.26-1.14l-1.212-2.184c-1.044 0.636-2.352 1.032-3.78 1.104zM10.836 18.936c2.388 0 4.476-0.888 5.688-2.232l-1.176-2.112c-1.2 1.344-3.288 2.244-5.688 2.244-0.744 0-1.452-0.096-2.112-0.252l-0.756 1.38c1.128 0.6 2.52 0.972 4.044 0.972z"></path>
</svg>
