<!-- Generated by IcoMoon.io -->
<svg version="1.1" xmlns="http://www.w3.org/2000/svg" width="24" height="24" viewBox="0 0 24 24">
<title>buddicons-topics</title>
<path d="M12.528 1.992c-0.708-0.696-1.848-0.696-2.544 0l-6.792 6.792c-0.696 0.696-0.696 1.836 0 2.544 0.72 0.72 1.872 0.672 2.544 0l6.792-6.792c0.696-0.696 0.708-1.836 0-2.544zM15.924 5.388c-0.708-0.708-1.848-0.708-2.544 0l-6.792 6.792c-0.708 0.696-0.708 1.836 0 2.544 0.72 0.72 1.872 0.66 2.544 0l6.792-6.792c0.696-0.696 0.696-1.836 0-2.544zM17.196 13.452l5.016 5.016c0.708 0.696 0.708 1.836 0 2.544s-1.848 0.708-2.544 0l-5.016-5.016-2.124 2.124c-0.708 0.696-1.848 0.696-2.544 0-0.708-0.708-0.708-1.848 0-2.556l6.792-6.78c0.696-0.708 1.836-0.708 2.544 0 0.696 0.696 0.696 1.836 0 2.544zM6 18c0-1.908-1.992-4.8-1.992-4.8s-1.608 3.336-1.608 4.8 0.72 2.4 1.608 2.4h0.384c0.888 0 1.608-0.492 1.608-2.4z"/>
</svg>
