<!-- Generated by IcoMoon.io -->
<svg version="1.1" xmlns="http://www.w3.org/2000/svg" width="24" height="24" viewBox="0 0 24 24">
<title>buddicons-activity</title>
<path d="M9.6 1.2v8.4h2.4v-2.4c0-1.824 1.74-3.6 3.6-3.6v1.032c0.66-0.624 1.512-1.032 2.4-1.032v3.6h1.2c1.32 0 2.4 1.080 2.4 2.4s-1.080 2.4-2.4 2.4h-1.2v7.2c0 0.66-0.54 1.2-1.2 1.2s-1.2-0.54-1.2-1.2v-2.616c-0.372 0.132-0.78 0.216-1.2 0.216v2.4c0 0.66-0.54 1.2-1.2 1.2s-1.2-0.54-1.2-1.2v-2.4h-2.4v2.4c0 0.66-0.54 1.2-1.2 1.2s-1.2-0.54-1.2-1.2v-2.4c-0.42 0-0.828-0.084-1.2-0.216v2.616c0 0.66-0.54 1.2-1.2 1.2s-1.2-0.54-1.2-1.2v-4.8h-1.2v-1.2c0-1.992 1.608-3.6 3.6-3.6h2.4v-8.4h1.2zM15.6 9.6c0.66 0 1.2-0.54 1.2-1.2s-0.54-1.2-1.2-1.2-1.2 0.54-1.2 1.2 0.54 1.2 1.2 1.2z"></path>
</svg>
