<!-- Generated by IcoMoon.io -->
<svg version="1.1" xmlns="http://www.w3.org/2000/svg" width="24" height="24" viewBox="0 0 24 24">
<title>buddicons-community</title>
<path d="M10.8 3.6c0-0.804-0.564-1.716-1.2-2.4-0.6 0.6-1.2 1.656-1.2 2.4 0 0.576 0.54 1.2 1.2 1.2s1.2-0.564 1.2-1.2zM15.6 3.6c0-0.804-0.564-1.716-1.2-2.4-0.6 0.6-1.2 1.656-1.2 2.4 0 0.576 0.54 1.2 1.2 1.2s1.2-0.564 1.2-1.2zM10.8 10.8v-4.2c0-0.66-0.54-1.2-1.2-1.2-0.684 0-1.2 0.588-1.2 1.2v4.2c0 0.66 0.54 1.2 1.2 1.2 0.684 0 1.2-0.588 1.2-1.2zM15.6 10.8v-4.2c0-0.66-0.54-1.2-1.2-1.2-0.684 0-1.2 0.588-1.2 1.2v4.2c0 0.66 0.54 1.2 1.2 1.2 0.684 0 1.2-0.588 1.2-1.2zM20.4 12c0-1.776-1.692-3.324-4.2-4.152v2.952c0 0.996-0.804 1.8-1.8 1.8s-1.8-0.804-1.8-1.8v-3.588c-0.204 0-0.396-0.012-0.6-0.012s-0.396 0.012-0.6 0.012v3.588c0 0.996-0.804 1.8-1.8 1.8s-1.8-0.804-1.8-1.8v-2.952c-2.508 0.828-4.2 2.376-4.2 4.152 0 1.692 1.14 3.18 3.852 4.044 1.332 0.42 2.868 1.344 4.548 1.344s3.228-0.936 4.548-1.356c2.7-0.852 3.852-2.34 3.852-4.032zM12 18.516c1.716 0 3.288-0.948 4.656-1.332 2.28-0.636 2.988-1.608 3.744-2.784v3.6c0 2.652-3.756 4.8-8.4 4.8s-8.4-2.148-8.4-4.8v-3.6c0.768 1.188 1.584 2.16 3.78 2.796 1.356 0.396 2.928 1.32 4.62 1.32z"></path>
</svg>
