<!-- Generated by IcoMoon.io -->
<svg version="1.1" xmlns="http://www.w3.org/2000/svg" width="24" height="24" viewBox="0 0 24 24">
<title>buddicons-replies</title>
<path d="M21.048 12.348c1.404 1.404 1.404 3.696 0 5.1-1.416 1.404-3.696 1.404-5.1 0l-0.408-0.624c0 4.392-2.4 5.256-3.54 5.976-0.984-0.72-3.54-1.536-3.54-5.976l-0.408 0.624c-1.404 1.404-3.684 1.404-5.1 0-1.404-1.404-1.404-3.696 0-5.1 0 0 1.224-0.804 2.52-1.56-1.020-1.38-1.632-3.084-1.632-4.932 0-0.408 0.036-0.804 0.096-1.2 0.3 2.136 1.428 4.008 3.024 5.304 0.804-0.42 2.22-0.996 2.844-1.104h-0.204c-1.32 0-2.4-1.080-2.4-2.4s1.080-2.4 2.4-2.4v-0.6c0-0.336 0.264-0.6 0.6-0.6s0.6 0.264 0.6 0.6v0.6h2.4v-0.6c0-0.336 0.264-0.6 0.6-0.6s0.6 0.264 0.6 0.6v0.6c1.32 0 2.4 1.080 2.4 2.4s-1.080 2.4-2.4 2.4h-0.204c0.612 0.108 2.136 0.732 2.856 1.104 1.596-1.296 2.724-3.168 3.024-5.304 0.060 0.396 0.096 0.792 0.096 1.2 0 1.848-0.612 3.552-1.632 4.932 1.296 0.756 2.508 1.56 2.508 1.56zM10.2 7.656c0.6 0 1.2-0.54 1.2-1.2s-0.54-1.2-1.2-1.2-1.2 0.54-1.2 1.2 0.54 1.2 1.2 1.2zM13.8 5.256c-0.66 0-1.2 0.54-1.2 1.2s0.54 1.2 1.2 1.2 1.2-0.54 1.2-1.2-0.54-1.2-1.2-1.2zM11.040 12.132c-0.144 0.132-0.228 0.312-0.228 0.516 0.024 0.3 0.276 0.552 0.588 0.552h1.2c0.312 0 0.564-0.252 0.588-0.552 0-0.18-0.084-0.348-0.228-0.516-0.096-0.072-0.216-0.132-0.36-0.132h-1.2c-0.144 0-0.264 0.060-0.36 0.132zM14.4 15c0-0.144-0.072-0.336-0.228-0.456-0.108-0.084-0.228-0.144-0.372-0.144h-3.6c-0.144 0-0.264 0.060-0.372 0.144-0.132 0.12-0.228 0.3-0.228 0.456 0 0.336 0.264 0.6 0.6 0.6h3.6c0.336 0 0.6-0.264 0.6-0.6zM10.2 18h3.6c0.336 0 0.6-0.264 0.6-0.6s-0.264-0.6-0.6-0.6h-3.6c-0.336 0-0.6 0.264-0.6 0.6s0.264 0.6 0.6 0.6zM11.4 20.4h1.2c0.336 0 0.6-0.264 0.6-0.6s-0.264-0.6-0.6-0.6h-1.2c-0.336 0-0.6 0.264-0.6 0.6s0.264 0.6 0.6 0.6z"></path>
</svg>
