<!-- Generated by IcoMoon.io -->
<svg version="1.1" xmlns="http://www.w3.org/2000/svg" width="24" height="24" viewBox="0 0 24 24">
<title>buddicons-groups</title>
<path d="M18.54 7.5c2.196 1.128 2.376 3.816 0.84 5.976-0.96 1.344-2.796 2.256-4.152 2.136l-3.168 5.988h-1.26l-3.18-5.988c-1.356 0.192-3.276-0.756-4.26-2.148-1.536-2.16-1.356-4.848 0.852-5.964 0.576-0.288 1.152-0.396 1.716-0.372-0.012 0.48 0.012 0.96 0.084 1.452 0.312 2.028 1.692 4.236 3.432 5.244-0.228 0.66-0.588 1.188-1.056 1.5l2.412 4.572v-6.792c-1.632-0.444-3.288-2.592-3.6-4.704-0.48-3.18 1.2-6 4.2-6s4.68 2.82 4.2 6c-0.312 2.112-1.968 4.26-3.6 4.704v6.924l2.484-4.608c-0.528-0.276-0.924-0.852-1.188-1.56 1.776-0.996 3.18-3.228 3.492-5.28 0.072-0.492 0.096-0.984 0.084-1.464 0.552-0.012 1.104 0.096 1.668 0.384z"/>
</svg>
