<?xml version="1.0" encoding="utf-8"?>
<!-- Generated by IcoMoon.io -->
<!DOCTYPE svg PUBLIC "-//W3C//DTD SVG 1.1//EN" "http://www.w3.org/Graphics/SVG/1.1/DTD/svg11.dtd">
<svg version="1.1" xmlns="http://www.w3.org/2000/svg" width="20" height="20" viewBox="0 0 20 20">
<path d="M13.2,10L11,13l-1-1.4L9,13l-2.2-3C3,11,3,13,3,16.9c0,0,3,1.1,6.4,1.1h1.2c3.4-0.1,6.4-1.1,6.4-1.1C17,13,17,11,13.2,10z
	 M10,10.7L8.4,10l1.6,1.6l1.6-1.6L10,10.7z M7.3,6.063l-0.03-0.19c-0.04-0.37-0.05-0.73-0.03-1.08c0.02-0.36,0.1-0.71,0.25-1.04
	c0.14-0.32,0.31-0.61,0.52-0.86c0.21-0.25,0.49-0.46,0.83-0.6c0.34-0.15,0.72-0.23,1.13-0.23c0.69,0,1.26,0.2,1.71,0.59
	s0.76,0.87,0.91,1.44s0.18,1.16,0.09,1.78l-0.03,0.19c-0.01,0.09-0.05,0.25-0.11,0.48c-0.05,0.24-0.12,0.47-0.2,0.69
	c-0.08,0.21-0.19,0.45-0.34,0.72c-0.14,0.27-0.3,0.49-0.47,0.69c-0.18,0.19-0.4,0.34-0.67,0.48c-0.27,0.13-0.55,0.19-0.86,0.19
	s-0.59-0.06-0.87-0.19c-0.26-0.13-0.49-0.29-0.67-0.5c-0.18-0.2-0.34-0.42-0.49-0.66c-0.15-0.25-0.26-0.49-0.34-0.73
	c-0.09-0.25-0.16-0.47-0.21-0.67C7.36,6.353,7.32,6.193,7.3,6.063z"/>
</svg>
