<!-- Generated by IcoMoon.io -->
<svg version="1.1" xmlns="http://www.w3.org/2000/svg" width="24" height="24" viewBox="0 0 24 24">
<title>businessman</title>
<path d="M8.76 7.2l-0.036-0.228c-0.048-0.444-0.060-0.876-0.036-1.296 0.024-0.432 0.12-0.852 0.3-1.248 0.168-0.384 0.372-0.732 0.624-1.032s0.588-0.552 0.996-0.72c0.408-0.18 0.864-0.276 1.356-0.276 0.828 0 1.512 0.24 2.052 0.708s0.912 1.044 1.092 1.728 0.216 1.392 0.108 2.136l-0.036 0.228c-0.012 0.108-0.060 0.3-0.132 0.576-0.060 0.288-0.144 0.564-0.24 0.828-0.096 0.252-0.228 0.54-0.408 0.864-0.168 0.324-0.36 0.588-0.564 0.828-0.216 0.228-0.48 0.408-0.804 0.576-0.324 0.156-0.66 0.228-1.032 0.228s-0.708-0.072-1.044-0.228c-0.312-0.156-0.588-0.348-0.804-0.6-0.216-0.24-0.408-0.504-0.588-0.792-0.18-0.3-0.312-0.588-0.408-0.876-0.108-0.3-0.192-0.564-0.252-0.804-0.072-0.252-0.12-0.444-0.144-0.6zM19.8 14.688c0.492 0.84 0.6 1.692 0.6 2.568v2.988c0 0.036-0.144 0.096-0.348 0.156-0.216 0.048-0.504 0.156-1.164 0.324-0.66 0.144-1.32 0.288-1.98 0.408s-1.428 0.228-2.34 0.324c-0.9 0.096-1.752 0.144-2.556 0.144-0.816 0-1.668-0.048-2.568-0.144-0.9-0.084-1.68-0.204-2.376-0.324-0.696-0.132-1.296-0.276-1.872-0.408-0.588-0.132-0.96-0.252-1.272-0.348l-0.324-0.132v-2.988c0-0.9 0.084-1.752 0.552-2.58s0.972-1.5 1.8-2.016c0.84-0.516 2.676-0.66 3.648-0.66l2.004 2.004-0.804 1.596v3.6l1.224 1.296 1.176-1.296v-3.6l-0.816-1.596 1.98-2.004c0.924 0 2.64 0.084 3.48 0.624 0.852 0.54 1.452 1.224 1.956 2.064z"></path>
</svg>
