<?xml version="1.0" encoding="utf-8"?>
<!-- Generated by IcoMoon.io -->
<!DOCTYPE svg PUBLIC "-//W3C//DTD SVG 1.1//EN" "http://www.w3.org/Graphics/SVG/1.1/DTD/svg11.dtd">
<svg version="1.1" xmlns="http://www.w3.org/2000/svg" width="20" height="20" viewBox="0 0 20 20">
<path d="M8 4.7c0 0 1.1 1.2 4.3 1.5 0 0-0.3 1.8-1 2.4 0 0-0.2 0.2 0.4 0.4s2 0.7 3.1-0.1c0 0 0.1-0.1 0-0.3 0 0-1.7-0.9-1.7-3 0 0 0.2-3.4-2.6-3.6 0 0-2.4-0.4-3.2 1.5-0.4 1.2-0.2 2.1-0.5 3.1-0.2 0.6-0.6 1.3-1.2 1.8 0 0-0.5 0.2-0.4 0.5s1.4 0.6 2.7 0.2c0 0 0.8-0.2 0.9-0.5-0.8-1-1.5-2-0.8-3.9v0zM7.4 10c-1.2 0-2.5 0.2-3.4 1-0.8 0.7-1 1.9-1 3.1 0 0.9 0 1.9 0 2.8 0 0 3.4 1.2 7 1.1 3.6 0.1 7-1.1 7-1.1 0-0.9 0-1.9 0-2.8 0-1.1-0.2-2.3-1-3.1-0.9-0.8-2.2-0.9-3.4-1l1 2.1-3.6 3.7 2.3-5.8-2.2 1-2.4-1 2.3 5.8-3.6-3.6 1-2.2z"></path>
</svg>
