<?xml version="1.0" encoding="utf-8"?>
<!-- Generator: Adobe Illustrator 22.0.0, SVG Export Plug-In . SVG Version: 6.00 Build 0)  -->
<svg version="1.1" xmlns="http://www.w3.org/2000/svg" xmlns:xlink="http://www.w3.org/1999/xlink" width="20" height="20" viewBox="0 0 20 20">
<path d="M15.6,12.2c-0.3-0.7-0.7-1.2-1.3-1.7c-0.6-0.4-1.9-0.5-2.6-0.5l0.9,2H11l-1,2l-1-2H7.4l0.9-2c-0.7,0-2,0.1-2.6,0.5
	s-1,1-1.3,1.7C4.1,12.9,4,13.6,4,14.4v2.5L4.2,17c0.2,0.1,0.5,0.2,0.9,0.3c0.4,0.1,0.8,0.2,1.3,0.3c0.5,0.1,1.1,0.2,1.7,0.3
	C8.8,18,9.4,18,10,18l0,0l0,0l0,0l0,0c0.6,0,1.2,0,1.8-0.1s1.2-0.2,1.7-0.3c0.5-0.1,0.9-0.2,1.3-0.3c0.4-0.1,0.7-0.2,0.9-0.3
	l0.2-0.1v-2.5C16,13.6,15.9,12.9,15.6,12.2z M8.7,9.2C8.8,9.3,9.2,12,10,12s1.1-2.6,1.2-2.7c0.3-0.1,2.3-1.1,2.4-1.2l0,0L13.7,8
	c0-0.1,0-0.1-0.1-0.2c0,0-0.8-0.7-0.8-2.9C12.8,3,12.3,2,11.4,2h-0.1C11,1.7,10.7,1.6,10,1.6c-0.9,0-2.8,0.8-2.8,3.3
	c0,2.2-0.8,2.9-0.8,2.9C6.3,7.8,6.3,7.9,6.3,8c0,0.1,0,0.1,0.1,0.2C6.4,8.1,7.4,9.1,8.7,9.2z"/>
</svg>