<?xml version="1.0" encoding="utf-8"?>
<!-- Generator: Adobe Illustrator 24.1.0, SVG Export Plug-In . SVG Version: 6.00 Build 0)  -->
<svg version="1.1" id="Layer_1" xmlns="http://www.w3.org/2000/svg" xmlns:xlink="http://www.w3.org/1999/xlink" x="0px" y="0px"
	 viewBox="0 0 20 20" style="enable-background:new 0 0 20 20;" xml:space="preserve">
<path d="M15,2H5C4.4,2,4,2.4,4,3v14c0,0.6,0.4,1,1,1h10c0.6,0,1-0.4,1-1V3C16,2.4,15.6,2,15,2z M6.5,16.8c-0.7,0-1.2-0.6-1.2-1.2
	s0.6-1.2,1.2-1.2s1.2,0.6,1.2,1.2S7.2,16.8,6.5,16.8z M6.5,13.2c-0.7,0-1.2-0.6-1.2-1.2s0.6-1.2,1.2-1.2s1.2,0.6,1.2,1.2
	S7.2,13.2,6.5,13.2z M6.5,9.8c-0.7,0-1.2-0.6-1.2-1.2s0.6-1.2,1.2-1.2s1.2,0.6,1.2,1.2S7.2,9.8,6.5,9.8z M10,16.8
	c-0.7,0-1.2-0.6-1.2-1.2s0.6-1.2,1.2-1.2s1.2,0.6,1.2,1.2S10.7,16.8,10,16.8z M10,13.2c-0.7,0-1.2-0.6-1.2-1.2s0.6-1.2,1.2-1.2
	s1.2,0.6,1.2,1.2S10.7,13.2,10,13.2z M10,9.8c-0.7,0-1.2-0.6-1.2-1.2S9.3,7.2,10,7.2s1.2,0.6,1.2,1.2S10.7,9.8,10,9.8z M14.8,15.5
	c0,0.7-0.6,1.2-1.2,1.2s-1.2-0.6-1.2-1.2V12c0-0.7,0.6-1.2,1.2-1.2s1.2,0.6,1.2,1.2V15.5z M13.5,9.8c-0.7,0-1.2-0.6-1.2-1.2
	s0.6-1.2,1.2-1.2s1.2,0.6,1.2,1.2S14.2,9.8,13.5,9.8z M15,6.4H5V3h10V6.4z"/>
</svg>
