<!-- Generated by IcoMoon.io -->
<svg version="1.1" xmlns="http://www.w3.org/2000/svg" width="24" height="24" viewBox="0 0 24 24">
<title>carrot</title>
<path d="M2.4 22.116c1.812 1.632 13.968-5.604 15.768-8.652 0.864-1.464-0.156-3.612-1.824-5.328 1.896-1.26 3.564 2.664 5.148 1.836 0.72-0.384 1.188-1.572 0.84-2.304-0.624-1.296-2.7-1.296-4.104-1.452 0.996-0.24 3.384-1.26 3.432-2.7 0.048-1.104-1.356-2.364-2.46-2.232-1.452 0.168-1.98 2.256-2.472 3.6-0.060-0.852-0.24-2.724-1.176-3.54-1.248-1.092-2.748-0.060-2.784 1.26-0.048 1.596 3.384 2.484 2.304 4.404-1.824-1.404-3.972-2.172-5.352-1.368-0.588 0.372-1.26 1.092-1.956 2.028 1.068 1.128 2.544 2.484 3.708 3.264 0.24 0.168 0.312 0.504 0.132 0.744-0.168 0.252-0.504 0.312-0.744 0.144-1.188-0.804-2.64-2.136-3.72-3.252-0.54 0.804-1.092 1.716-1.608 2.676 1.020 1.032 2.316 2.196 3.348 2.892 0.24 0.168 0.3 0.504 0.132 0.744-0.168 0.252-0.504 0.312-0.756 0.144-1.020-0.696-2.232-1.776-3.252-2.784-2.124 4.188-3.684 8.916-2.604 9.876z"/>
</svg>
