<!-- Generated by IcoMoon.io -->
<svg version="1.1" xmlns="http://www.w3.org/2000/svg" width="24" height="24" viewBox="0 0 24 24">
<title>chart-line</title>
<path d="M21.6 4.2c0 0.744-0.456 1.392-1.104 1.656v15.732h-18.108l5.064-8.076c-0.156-0.276-0.252-0.576-0.252-0.912 0-0.996 0.804-1.8 1.8-1.8s1.8 0.804 1.8 1.8c0 0.156-0.024 0.3-0.060 0.444l1.728 0.756c0.324-0.36 0.804-0.6 1.332-0.6 0.216 0 0.42 0.048 0.612 0.108l4.296-7.692c-0.432-0.324-0.708-0.84-0.708-1.416 0-0.996 0.804-1.8 1.8-1.8 0.228 0 0.432 0.048 0.636 0.12l0.060-0.108v0.132c0.648 0.264 1.104 0.912 1.104 1.656zM19.296 20.388v-13.368l-3.948 7.068c0.156 0.276 0.252 0.576 0.252 0.912 0 0.996-0.804 1.8-1.8 1.8s-1.8-0.804-1.8-1.8l0.012-0.084-1.956-0.864c-0.3 0.216-0.66 0.348-1.056 0.348-0.216 0-0.42-0.048-0.612-0.12l-3.84 6.108h14.748z"></path>
</svg>
