<!-- Generated by IcoMoon.io -->
<svg version="1.1" xmlns="http://www.w3.org/2000/svg" width="24" height="24" viewBox="0 0 24 24">
<title>chart-area</title>
<path d="M21.6 21.6l0.012-14.736c0.708-0.42 1.188-1.188 1.188-2.064 0-1.32-1.080-2.4-2.4-2.4s-2.4 1.080-2.4 2.4c0 0.96 0.564 1.776 1.368 2.16l-4.956 7.896c-0.396-0.288-0.876-0.456-1.392-0.456-1.008 0-1.86 0.612-2.22 1.488l-2.568-1.836c0.108-0.264 0.168-0.552 0.168-0.852 0-1.332-1.068-2.4-2.4-2.4-1.32 0-2.4 1.068-2.4 2.4 0 0.876 0.48 1.632 1.176 2.052l-3.576 6.348h20.4zM20.4 3.6c0.66 0 1.2 0.54 1.2 1.2s-0.54 1.2-1.2 1.2-1.2-0.54-1.2-1.2 0.54-1.2 1.2-1.2zM6 12c0.66 0 1.2 0.54 1.2 1.2s-0.54 1.2-1.2 1.2-1.2-0.54-1.2-1.2 0.54-1.2 1.2-1.2zM13.020 15.6c0.66 0 1.2 0.54 1.2 1.2s-0.54 1.2-1.2 1.2-1.2-0.54-1.2-1.2 0.54-1.2 1.2-1.2z"/>
</svg>
