<!-- Generated by IcoMoon.io -->
<svg version="1.1" xmlns="http://www.w3.org/2000/svg" width="24" height="24" viewBox="0 0 24 24">
<title>clipboard</title>
<path d="M14.28 0.468l1.68 1.68c1.932 0.228 4.2-0.888 5.532 0.444s0.216 3.6 0.444 5.532l1.68 1.68c0.468 0.468 0.468 1.224 0 1.692l-11.028 11.040c-0.48 0.468-1.236 0.468-1.704 0l-9.336-9.336c-0.468-0.468-0.468-1.224 0-1.704l11.040-11.028c0.468-0.468 1.224-0.468 1.692 0zM14.976 3.168l-0.696 0.696 5.94 5.94 0.696-0.696c-0.228-0.72-0.24-1.464-0.18-2.184 0.024-0.372 0.060-0.744 0.108-1.104 0.144-1.2 0.216-1.956-0.204-2.376s-1.176-0.348-2.376-0.204c-0.36 0.048-0.732 0.084-1.104 0.108-0.72 0.060-1.464 0.048-2.184-0.18zM19.8 4.284c0.468 0.468 0.468 1.236 0 1.704s-1.236 0.468-1.704 0-0.468-1.236 0-1.704 1.236-0.468 1.704 0zM11.736 4.716l-0.852 0.84 7.644 7.644 0.84-0.852zM10.032 6.408l-0.84 0.852 7.632 7.632 0.852-0.84zM8.34 8.112l-0.852 0.84 7.644 7.644 0.84-0.852zM6.648 9.804l-0.852 0.852 7.632 7.632 0.852-0.852zM4.944 11.496l-0.852 0.852 7.644 7.644 0.852-0.852z"></path>
</svg>
