<?xml version="1.0" encoding="utf-8"?>
<!-- Generator: Adobe Illustrator 21.1.0, SVG Export Plug-In . SVG Version: 6.00 Build 0)  -->
<svg version="1.1" id="Layer_1" xmlns="http://www.w3.org/2000/svg" xmlns:xlink="http://www.w3.org/1999/xlink" x="0px" y="0px"
	 viewBox="0 0 20 20" style="enable-background:new 0 0 20 20;" xml:space="preserve">
<path d="M14.9,9c1.8,0.2,3.1,1.7,3.1,3.5c0,1.9-1.6,3.5-3.5,3.5h-10C2.6,16,1,14.4,1,12.5C1,10.7,2.3,9.3,4.1,9C4,8.9,4,8.7,4,8.5
	C4,7.1,5.1,6,6.5,6c0.3,0,0.7,0.1,0.9,0.2C8.1,4.9,9.4,4,11,4c2.2,0,4,1.8,4,4C15,8.4,14.9,8.7,14.9,9z"/>
</svg>
