<?xml version="1.0" encoding="utf-8"?>
<!-- Generator: Adobe Illustrator 24.1.0, SVG Export Plug-In . SVG Version: 6.00 Build 0)  -->
<svg version="1.1" id="Layer_1" xmlns="http://www.w3.org/2000/svg" xmlns:xlink="http://www.w3.org/1999/xlink" x="0px" y="0px"
	 viewBox="0 0 20 20" style="enable-background:new 0 0 20 20;" xml:space="preserve">
<path d="M4,15c0,1.1,0.9,2,2,2h10c1.1,0,2-0.9,2-2H4z M6,11.2V12c0,1.1,0.9,2,2,2h7c1.1,0,2-0.9,2-2V4H5.6C3.6,4,2,5.4,2,7.6
	c0,2.3,1.6,3.6,3.6,3.6H6z M3.9,7.6c0-1,0.7-1.8,1.7-1.8H6v3.6H5.6C4.6,9.4,3.9,8.7,3.9,7.6z"/>
</svg>
