<?xml version="1.0" encoding="utf-8"?>
<!-- Generator: Adobe Illustrator 24.1.2, SVG Export Plug-In . SVG Version: 6.00 Build 0)  -->
<svg version="1.1" id="Layer_1" xmlns="http://www.w3.org/2000/svg" xmlns:xlink="http://www.w3.org/1999/xlink" x="0px" y="0px"
	 viewBox="0 0 20 20" style="enable-background:new 0 0 20 20;" xml:space="preserve">
<path d="M17.8,2.2c-1-1-2.6-1-3.6,0L12.4,4l-0.7-0.7c-0.4-0.4-1-0.4-1.4,0c0,0,0,0,0,0L9.5,4c-0.4,0.4-0.4,1,0,1.4c0,0,0,0,0,0l5,5
	c0.4,0.4,1,0.4,1.4,0c0,0,0,0,0,0l0.7-0.7c0.4-0.4,0.4-1,0-1.4c0,0,0,0,0,0L16,7.6l1.8-1.8C18.8,4.8,18.8,3.2,17.8,2.2z M4.4,12
	c-2.2,2.2-0.9,3.2-2.9,5.8l0.7,0.7c2.6-2,3.6-0.7,5.8-2.9l5.1-5.1L9.5,6.9L4.4,12z"/>
</svg>
