<?xml version="1.0" encoding="utf-8"?>
<!-- Generator: Adobe Illustrator 24.1.0, SVG Export Plug-In . SVG Version: 6.00 Build 0)  -->
<svg version="1.1" id="Layer_1" xmlns="http://www.w3.org/2000/svg" xmlns:xlink="http://www.w3.org/1999/xlink" x="0px" y="0px"
	 viewBox="0 0 20 20" style="enable-background:new 0 0 20 20;" xml:space="preserve">
<path d="M9,6c0-1.6,0.8-3,2-4c-0.3,0-0.7,0-1,0C6.1,2,3,2.9,3,4C3,5,5.6,5.8,9,6z M12.8,10.8C11.9,10.9,10.9,11,10,11
	c-3.9,0-7-0.9-7-2v3c0,1.1,3.1,2,7,2s7-0.9,7-2v-2c-0.9,0.7-1.9,1-3,1C13.6,11,13.2,10.9,12.8,10.8z M10,15c-3.9,0-7-0.9-7-2v3
	c0,1.1,3.1,2,7,2s7-0.9,7-2v-3C17,14.1,13.9,15,10,15z M10,10c0.3,0,0.7,0,1,0c-1-0.7-1.7-1.8-1.9-3C5.7,6.9,3,6,3,5v3
	C3,9.1,6.1,10,10,10z M14,10c2.2,0,4-1.8,4-4s-1.8-4-4-4s-4,1.8-4,4S11.8,10,14,10z M11.7,5.6l1.7,1.7l2.9-2.9L17,5.1l-3.6,3.6
	L11,6.3L11.7,5.6z"/>
</svg>
