<?xml version="1.0" encoding="utf-8"?>
<!-- Generated by IcoMoon.io -->
<!DOCTYPE svg PUBLIC "-//W3C//DTD SVG 1.1//EN" "http://www.w3.org/Graphics/SVG/1.1/DTD/svg11.dtd">
<svg version="1.1" xmlns="http://www.w3.org/2000/svg" xmlns:xlink="http://www.w3.org/1999/xlink" width="20" height="20" viewBox="0 0 20 20"><path d="M15.025,8.75a1.04844,1.04844,0,0,1,.45-.1.5074.5074,0,0,1,.35.11.45478.45478,0,0,1,.13.36.80281.80281,0,0,1-.06.3,1.44773,1.44773,0,0,1-.19.33c-.09.11-.29.32-.58.62l-.99,1v.58h2.76v-.7h-1.72v-.04l.51-.48a7.276,7.276,0,0,0,.7-.71,1.75082,1.75082,0,0,0,.3-.49005,1.25433,1.25433,0,0,0,.1-.50995.968.968,0,0,0-.16-.56,1.00745,1.00745,0,0,0-.44-.37,1.5123,1.5123,0,0,0-.65-.14,1.9806,1.9806,0,0,0-.50995.06,1.90064,1.90064,0,0,0-.42.15,3.67134,3.67134,0,0,0-.48.35l.45.54A2.50521,2.50521,0,0,1,15.025,8.75Z"/><path d="M16.695,15.29a1.29033,1.29033,0,0,0-.74-.3v-.02a1.20318,1.20318,0,0,0,.65-.37.9734.9734,0,0,0,.23-.65.81112.81112,0,0,0-.37-.71,1.72094,1.72094,0,0,0-1-.26,2.18468,2.18468,0,0,0-1.33.4l.4.6a1.78919,1.78919,0,0,1,.46-.23,1.17937,1.17937,0,0,1,.41-.07c.37994,0,.58.15.58.46a.44731.44731,0,0,1-.22.43,1.54282,1.54282,0,0,1-.7.12h-.31v.66h.31a1.76407,1.76407,0,0,1,.75.12.43316.43316,0,0,1,.23.41.54963.54963,0,0,1-.2.47,1.084,1.084,0,0,1-.62994.15,2.23991,2.23991,0,0,1-.57-.08,2.6715,2.6715,0,0,1-.52-.2V16.96a2.923,2.923,0,0,0,1.18.22,1.948,1.948,0,0,0,1.22-.33,1.077,1.077,0,0,0,.43-.92A.8359.8359,0,0,0,16.695,15.29Z"/><path d="M15.005,4.17c.06-.05.16-.14.3-.28l-.02.42V7h.84V3h-.69l-1.29,1.03.4.51Z"/><rect x="4.02002" y="5" width="9" height="1"/><rect x="4.02002" y="10" width="9" height="1"/><rect x="4.02002" y="15" width="9" height="1"/></svg>