<!-- Generated by IcoMoon.io -->
<svg version="1.1" xmlns="http://www.w3.org/2000/svg" width="24" height="24" viewBox="0 0 24 24">
<title>editor-bold</title>
<path d="M7.2 4.8v15.6h5.448c1.644 0 2.952-0.396 3.912-1.2 0.96-0.792 1.44-1.896 1.44-3.324 0-1.008-0.204-1.812-0.612-2.412s-1.080-1.020-2.004-1.236v-0.108c0.684-0.12 1.224-0.48 1.632-1.080s0.612-1.356 0.612-2.292c0-1.368-0.468-2.376-1.404-3-0.924-0.636-2.424-0.948-4.488-0.948h-4.536zM10.284 10.98v-3.468h1.632c0.876 0 1.524 0.132 1.932 0.384 0.408 0.264 0.612 0.696 0.612 1.284 0 0.648-0.192 1.104-0.564 1.38s-0.984 0.42-1.812 0.42h-1.8zM10.284 13.608h1.92c1.728 0 2.592 0.636 2.592 1.932 0 0.72-0.204 1.26-0.612 1.608s-1.032 0.516-1.884 0.516h-2.016v-4.056z"/>
</svg>
