<!-- Generated by IcoMoon.io -->
<svg version="1.1" xmlns="http://www.w3.org/2000/svg" width="24" height="24" viewBox="0 0 24 24">
<title>editor-paste-text</title>
<path d="M14.856 2.4l3.144 3.6v1.2h-12v-1.2l3.168-3.6h5.688zM12 6c0.66 0 1.2-0.528 1.2-1.2 0-0.66-0.54-1.2-1.2-1.2s-1.2 0.54-1.2 1.2c0 0.672 0.54 1.2 1.2 1.2zM18.54 4.8h1.86c0.66 0 1.2 0.54 1.2 1.2v14.4c0 0.672-0.54 1.2-1.2 1.2h-16.8c-0.66 0-1.2-0.528-1.2-1.2v-14.4c0-0.66 0.54-1.2 1.2-1.2h1.86l-0.66 0.756v2.844h14.4v-2.844zM16.8 13.2v-2.4h-9.6v2.4h3.6v6h2.4v-6h3.6z"/>
</svg>
