<!-- Generated by IcoMoon.io -->
<svg version="1.1" xmlns="http://www.w3.org/2000/svg" width="24" height="24" viewBox="0 0 24 24">
<title>editor-quote</title>
<path d="M11.388 15.864c0-0.888-0.24-1.656-0.732-2.28-0.744-0.936-2.196-1.056-3.036-0.864-0.348-1.98 1.332-4.5 3.504-5.58l-1.668-2.34c-3.276 1.56-6.504 5.136-5.952 9.66 0.348 2.856 2.004 4.74 4.344 4.74 1.020 0 1.872-0.3 2.544-0.9s0.996-1.416 0.996-2.436zM21.048 15.864c0-0.888-0.24-1.656-0.732-2.28-0.756-0.936-2.196-1.056-3.036-0.864-0.348-1.98 1.332-4.5 3.504-5.58l-1.668-2.34c-3.276 1.56-6.492 5.136-5.94 9.66 0.348 2.856 1.992 4.74 4.332 4.74 1.020 0 1.872-0.3 2.544-0.9s0.996-1.416 0.996-2.436z"></path>
</svg>
