<!-- Generated by IcoMoon.io -->
<svg version="1.1" xmlns="http://www.w3.org/2000/svg" width="24" height="24" viewBox="0 0 24 24">
<title>editor-kitchensink</title>
<path d="M22.8 2.4v7.2h-21.6v-7.2h21.6zM21.6 8.4v-4.8h-19.2v4.8h19.2zM6 4.8v2.4h-2.4v-2.4h2.4zM9.6 4.8v2.4h-2.4v-2.4h2.4zM13.2 4.8v2.4h-2.4v-2.4h2.4zM16.8 4.8v2.4h-2.4v-2.4h2.4zM20.4 4.8v2.4h-2.4v-2.4h2.4zM22.8 10.8v10.8h-21.6v-10.8h21.6zM21.6 20.4v-8.4h-19.2v8.4h19.2zM6 13.2v2.4h-2.4v-2.4h2.4zM9.6 13.2v2.4h-2.4v-2.4h2.4zM13.2 13.2v2.4h-2.4v-2.4h2.4zM20.4 13.2v2.4h-6v-2.4h6zM13.2 16.8v2.4h-9.6v-2.4h9.6zM16.8 16.8v2.4h-2.4v-2.4h2.4zM20.4 16.8v2.4h-2.4v-2.4h2.4z"></path>
</svg>
