<!-- Generated by IcoMoon.io -->
<svg version="1.1" xmlns="http://www.w3.org/2000/svg" width="24" height="24" viewBox="0 0 24 24">
<title>editor-unlink</title>
<path d="M21.288 2.712c2.016 2.028 2.016 5.292 0 7.32l-1.836 1.824c-0.384 0.396-0.828 0.696-1.296 0.924l-2.556-0.78 2.028-1.968 0.912-0.924 0.912-0.912c1.008-1.008 1.008-2.64 0-3.648-1.008-1.020-2.64-1.020-3.648 0l-0.924 0.912-0.912 0.912-1.968 2.028-0.78-2.568c0.228-0.456 0.528-0.9 0.924-1.284l1.824-1.836c2.028-2.016 5.304-2.016 7.32 0zM2.4 4.8l9.6 7.2-7.2-9.6zM7.2 2.4l4.8 9.6-2.4-9.6h-2.4zM2.4 7.2l9.6 4.8-9.6-2.4v-2.4zM11.232 16.428l0.768-0.828 0.888 2.82-1.656 1.668c-2.028 2.016-5.292 2.016-7.32 0-2.016-2.016-2.016-5.304 0-7.32l1.668-1.656 2.82 0.888-0.828 0.768-1.824 1.836c-1.020 1.008-1.020 2.64 0 3.648 1.008 1.020 2.64 1.020 3.648 0zM21.6 19.2l-9.6-7.2 7.2 9.6zM16.8 21.6l-4.8-9.6 2.4 9.6h2.4zM21.6 16.8l-9.6-4.8 9.6 2.4v2.4z"></path>
</svg>
