<!-- Generated by IcoMoon.io -->
<svg version="1.1" xmlns="http://www.w3.org/2000/svg" width="24" height="24" viewBox="0 0 24 24">
<title>editor-ul</title>
<path d="M6.6 8.4c-0.996 0-1.8-0.804-1.8-1.8 0-0.984 0.804-1.8 1.8-1.8 0.984 0 1.8 0.816 1.8 1.8 0 0.996-0.816 1.8-1.8 1.8zM9.6 6h10.8v1.2h-10.8v-1.2zM6.6 14.4c-0.996 0-1.8-0.804-1.8-1.8 0-0.984 0.804-1.8 1.8-1.8 0.984 0 1.8 0.816 1.8 1.8 0 0.996-0.816 1.8-1.8 1.8zM9.6 12h10.8v1.2h-10.8v-1.2zM6.6 20.4c-0.996 0-1.8-0.804-1.8-1.8 0-0.984 0.804-1.8 1.8-1.8 0.984 0 1.8 0.816 1.8 1.8 0 0.996-0.816 1.8-1.8 1.8zM9.6 18h10.8v1.2h-10.8v-1.2z"/>
</svg>
