<!-- Generated by IcoMoon.io -->
<svg version="1.1" xmlns="http://www.w3.org/2000/svg" width="24" height="24" viewBox="0 0 24 24">
<title>editor-video</title>
<path d="M19.2 2.4h-3.6v1.2h-7.2v-1.2h-3.6v18h3.6v-1.2h7.2v1.2h3.6v-18zM7.2 3.6v1.2h-1.2v-1.2h1.2zM18 3.6v1.2h-1.2v-1.2h1.2zM15.6 4.8v6h-7.2v-6h7.2zM7.2 6v1.2h-1.2v-1.2h1.2zM18 6v1.2h-1.2v-1.2h1.2zM7.2 8.4v1.2h-1.2v-1.2h1.2zM18 8.4v1.2h-1.2v-1.2h1.2zM7.2 10.8v1.2h-1.2v-1.2h1.2zM18 10.8v1.2h-1.2v-1.2h1.2zM15.6 12v6h-7.2v-6h7.2zM7.2 13.2v1.2h-1.2v-1.2h1.2zM18 13.2v1.2h-1.2v-1.2h1.2zM7.2 15.6v1.2h-1.2v-1.2h1.2zM18 15.6v1.2h-1.2v-1.2h1.2zM7.2 18v1.2h-1.2v-1.2h1.2zM18 18v1.2h-1.2v-1.2h1.2z"></path>
</svg>
