<!-- Generated by IcoMoon.io -->
<svg version="1.1" xmlns="http://www.w3.org/2000/svg" width="24" height="24" viewBox="0 0 24 24">
<title>editor-help</title>
<path d="M20.4 12c0-4.644-3.768-8.4-8.4-8.4-4.644 0-8.4 3.756-8.4 8.4s3.756 8.4 8.4 8.4c4.632 0 8.4-3.756 8.4-8.4zM12.84 13.776h-1.872v-0.516c0-0.456 0.096-0.84 0.288-1.176s0.552-0.684 1.056-1.068c0.492-0.348 0.816-0.636 0.972-0.852 0.168-0.216 0.24-0.468 0.24-0.744 0-0.3-0.108-0.528-0.336-0.696-0.228-0.156-0.54-0.228-0.948-0.228-0.696 0-1.5 0.228-2.4 0.684l-0.768-1.536c1.044-0.588 2.16-0.888 3.324-0.888 0.972 0 1.74 0.24 2.304 0.696 0.576 0.468 0.852 1.092 0.852 1.86 0 0.516-0.108 0.96-0.348 1.332-0.228 0.384-0.684 0.804-1.332 1.272-0.456 0.336-0.732 0.588-0.852 0.756-0.12 0.18-0.18 0.408-0.18 0.684v0.42zM11.076 17.064c-0.216-0.204-0.324-0.504-0.324-0.876 0-0.396 0.096-0.696 0.312-0.9s0.516-0.3 0.924-0.3c0.384 0 0.684 0.108 0.9 0.312s0.324 0.504 0.324 0.888c0 0.36-0.108 0.66-0.324 0.864-0.216 0.216-0.516 0.324-0.9 0.324-0.396 0-0.696-0.108-0.912-0.312z"/>
</svg>
