<!-- Generated by IcoMoon.io -->
<svg version="1.1" xmlns="http://www.w3.org/2000/svg" width="24" height="24" viewBox="0 0 24 24">
<title>editor-customchar</title>
<path d="M12 6.48c1.524 0 2.688 0.432 3.492 1.296 0.792 0.852 1.2 2.112 1.2 3.756 0 1.536-0.276 2.844-0.828 3.924-0.564 1.068-1.524 1.824-2.664 2.544v2.4h7.2v-2.4h-4.428c1.104-0.768 1.944-1.608 2.544-2.808 0.588-1.212 0.888-2.556 0.888-4.020 0-2.136-0.66-3.828-1.98-5.064s-3.12-1.86-5.424-1.86-4.116 0.636-5.424 1.884c-1.32 1.248-1.98 2.928-1.98 5.040 0 1.452 0.288 2.772 0.876 3.996 0.576 1.212 1.428 2.052 2.52 2.832h-4.392v2.4h7.2v-2.4c-1.176-0.768-2.16-1.536-2.688-2.604-0.54-1.068-0.804-2.352-0.804-3.864 0-1.644 0.396-2.892 1.2-3.756 0.792-0.864 1.956-1.296 3.492-1.296z"></path>
</svg>
