<!-- Generated by IcoMoon.io -->
<svg version="1.1" xmlns="http://www.w3.org/2000/svg" width="24" height="24" viewBox="0 0 24 24">
<title>editor-paragraph</title>
<path d="M18 2.4h-8.952c-0.996 0-1.908 0.24-2.736 0.72-0.84 0.492-1.5 1.152-1.98 1.98-0.492 0.828-0.732 1.74-0.732 2.724s0.24 1.896 0.732 2.724c0.48 0.828 1.14 1.488 1.98 1.968 0.828 0.492 1.74 0.732 2.736 0.732h0.516v7.152c0 0.324 0.12 0.612 0.348 0.852 0.24 0.228 0.528 0.348 0.852 0.348 0.336 0 0.612-0.12 0.852-0.348 0.24-0.24 0.36-0.528 0.36-0.852v-14.4c0-0.324 0.108-0.612 0.348-0.852 0.24-0.228 0.528-0.348 0.852-0.348s0.612 0.12 0.852 0.348c0.228 0.24 0.348 0.528 0.348 0.852v14.4c0 0.324 0.12 0.612 0.36 0.852 0.24 0.228 0.516 0.348 0.852 0.348 0.324 0 0.612-0.12 0.852-0.348 0.228-0.24 0.348-0.528 0.348-0.852v-15.6h1.212c0.324 0 0.6-0.12 0.84-0.36 0.24-0.228 0.36-0.516 0.36-0.84s-0.12-0.612-0.36-0.852c-0.24-0.228-0.516-0.348-0.84-0.348z"></path>
</svg>
