<!-- Generated by IcoMoon.io -->
<svg version="1.1" xmlns="http://www.w3.org/2000/svg" width="24" height="24" viewBox="0 0 24 24">
<title>editor-spellcheck</title>
<path d="M19.008 3.312c0.3 0 0.588 0.048 0.852 0.132 0.276 0.084 0.528 0.192 0.768 0.3l0.42-0.972c-0.624-0.312-1.296-0.468-2.028-0.468-0.696 0-1.308 0.156-1.824 0.444-0.516 0.3-0.912 0.732-1.188 1.296-0.276 0.552-0.408 1.212-0.408 1.956 0 1.188 0.276 2.1 0.84 2.736s1.38 0.948 2.424 0.948c0.72 0 1.356-0.108 1.92-0.312v-1.008c-0.312 0.096-0.612 0.168-0.888 0.228-0.288 0.060-0.588 0.096-0.888 0.096-0.708 0-1.248-0.228-1.608-0.684-0.384-0.444-0.564-1.116-0.564-1.992 0-0.84 0.192-1.5 0.576-1.98 0.396-0.48 0.924-0.72 1.596-0.72zM7.8 9.6h1.248l-2.688-7.2h-1.272l-2.688 7.2h1.236l0.696-1.992h2.748zM9.6 2.4v7.2h2.604c0.804 0 1.428-0.18 1.884-0.552 0.456-0.36 0.672-0.864 0.672-1.512 0-0.48-0.12-0.864-0.36-1.14-0.228-0.288-0.6-0.468-1.116-0.564v-0.048c0.42-0.072 0.72-0.252 0.936-0.528 0.216-0.288 0.336-0.636 0.336-1.056 0-0.624-0.228-1.080-0.672-1.368-0.432-0.288-1.152-0.432-2.148-0.432h-2.136zM10.776 5.376v-1.992h1.020c0.528 0 0.924 0.072 1.164 0.228 0.252 0.144 0.372 0.396 0.372 0.732 0 0.372-0.12 0.636-0.348 0.792-0.216 0.156-0.576 0.24-1.068 0.24h-1.14zM6.768 6.6h-2.088l0.648-1.872c0.168-0.48 0.3-0.912 0.384-1.32l0.18 0.624c0.084 0.276 0.156 0.48 0.204 0.612zM10.776 6.324h1.188c0.528 0 0.912 0.096 1.176 0.276 0.252 0.18 0.384 0.456 0.384 0.828 0 0.408-0.132 0.708-0.384 0.9s-0.624 0.288-1.116 0.288h-1.248v-2.292zM4.8 15.6l6 6 10.8-9.6-1.2-1.2-9.6 7.2-4.8-3.6z"></path>
</svg>
