<!-- Generated by IcoMoon.io -->
<svg version="1.1" xmlns="http://www.w3.org/2000/svg" width="24" height="24" viewBox="0 0 24 24">
<title>editor-strikethrough</title>
<path d="M18.984 14.7c0.312 0 0.6-0.024 0.888-0.084 0.276-0.060 0.576-0.144 0.876-0.24v1.008c-0.552 0.204-1.188 0.312-1.896 0.312-1.056 0-1.848-0.312-2.412-0.948-0.468-0.528-0.744-1.248-0.816-2.148h-1.128c0.144 0.252 0.216 0.576 0.216 0.948 0 0.648-0.216 1.14-0.66 1.512-0.456 0.36-1.080 0.54-1.872 0.54h-2.58v-3h-1.692l1.116 3h-1.236l-0.708-2.004h-2.736l-0.696 2.004h-1.248l1.116-3h-1.116v-1.2h1.572l1.116-2.988h1.272l1.104 2.988h2.136v-3h2.124c1.2 0 1.692 0.204 2.124 0.492 0.444 0.288 0.66 0.744 0.66 1.356 0 0.42-0.108 0.768-0.324 1.044l-0.096 0.108h1.548c0.060-0.48 0.18-0.924 0.372-1.32 0.276-0.552 0.66-0.984 1.176-1.272 0.516-0.3 1.116-0.444 1.812-0.444 0.732 0 1.404 0.144 2.028 0.456l-0.42 0.972c-0.24-0.12-0.504-0.216-0.768-0.3s-0.552-0.132-0.852-0.132c-0.66 0-1.188 0.24-1.572 0.708-0.276 0.348-0.456 0.792-0.528 1.332h3.516v1.2h-3.54c0.072 0.6 0.24 1.080 0.528 1.428 0.36 0.444 0.9 0.672 1.596 0.672zM5.328 10.752l-0.216 0.648h1.248l-0.264-0.732c-0.048-0.132-0.108-0.336-0.204-0.612-0.084-0.288-0.144-0.492-0.168-0.612-0.096 0.396-0.216 0.828-0.396 1.308zM10.764 9.444v1.956h1.428c0.336-0.024 0.588-0.108 0.768-0.216 0.228-0.156 0.336-0.42 0.336-0.792 0-0.336-0.12-0.576-0.36-0.732-0.24-0.144-0.636-0.216-1.164-0.216h-1.008zM6.768 12.612v-0.012h-2.076v0.012h2.076zM13.104 12.624l-0.036-0.024h-2.304v2.016h1.248c0.48 0 0.852-0.096 1.104-0.276 0.252-0.192 0.372-0.48 0.372-0.888 0-0.372-0.132-0.648-0.384-0.828z"></path>
</svg>
