<?xml version="1.0" encoding="utf-8"?>
<!-- Generator: Adobe Illustrator 15.1.0, SVG Export Plug-In . SVG Version: 6.00 Build 0)  -->
<!DOCTYPE svg PUBLIC "-//W3C//DTD SVG 1.1//EN" "http://www.w3.org/Graphics/SVG/1.1/DTD/svg11.dtd">
<svg version="1.1" xmlns="http://www.w3.org/2000/svg" xmlns:xlink="http://www.w3.org/1999/xlink" width="20" height="20" viewBox="0 0 20 20">
<path d="M5.52,2h7.43c0.55,0,1,0.45,1,1s-0.45,1-1,1h-1v13c0,0.55-0.45,1-1,1c-0.55,0-1-0.45-1-1V5c0-0.55-0.45-1-1-1
	c-0.55,0-1,0.45-1,1v12c0,0.55-0.45,1-1,1c-0.55,0-1-0.45-1-1v-5.96H5.52C3.02,11.04,1,9.02,1,6.52S3.02,2,5.52,2z M19,6l-5,4l5,4V6
	z"/>
</svg>
