<!-- Generated by IcoMoon.io -->
<svg version="1.1" xmlns="http://www.w3.org/2000/svg" width="24" height="24" viewBox="0 0 24 24">
<title>editor-removeformatting</title>
<path d="M17.148 5.508l1.32 1.332c0.492 0.48 0.732 1.128 0.732 1.764v2.544c0 0.636-0.24 1.284-0.732 1.764l-7.956 7.956c-0.48 0.492-1.128 0.732-1.764 0.732s-1.284-0.24-1.764-0.732l-1.332-1.32-1.32-1.332c-0.492-0.48-0.732-1.128-0.732-1.764v-2.544c0-0.648 0.24-1.284 0.732-1.776l7.956-7.944c0.48-0.492 1.128-0.732 1.764-0.732s1.272 0.24 1.764 0.732zM9.696 17.148l7.704-7.704c0.468-0.468 0.468-1.236 0-1.716l-2.568-2.568c-0.228-0.228-0.54-0.348-0.864-0.348s-0.624 0.12-0.852 0.348l-7.704 7.704c-0.468 0.48-0.468 1.248 0 1.716l2.568 2.568c0.456 0.456 1.248 0.456 1.716 0z"></path>
</svg>
