<?xml version="1.0" encoding="utf-8"?>
<!-- Generated by IcoMoon.io -->
<!DOCTYPE svg PUBLIC "-//W3C//DTD SVG 1.1//EN" "http://www.w3.org/Graphics/SVG/1.1/DTD/svg11.dtd">
<svg version="1.1" xmlns="http://www.w3.org/2000/svg" xmlns:xlink="http://www.w3.org/1999/xlink" width="20" height="20" viewBox="0 0 20 20">
	<path d="M16.8,15.3C16.6,15.1,16.3,15,16,15v0c0.3-0.1,0.5-0.2,0.6-0.4c0.2-0.2,0.2-0.4,0.2-0.6c0-0.3-0.1-0.5-0.4-0.7
		c-0.2-0.2-0.6-0.3-1-0.3c-0.5,0-1,0.1-1.3,0.4l0.4,0.6c0.2-0.1,0.3-0.2,0.5-0.2c0.1,0,0.3-0.1,0.4-0.1c0.4,0,0.6,0.2,0.6,0.5
		c0,0.2-0.1,0.3-0.2,0.4c-0.2,0.1-0.4,0.1-0.7,0.1h-0.3v0.7h0.3c0.3,0,0.6,0,0.8,0.1c0.1,0.1,0.2,0.2,0.2,0.4c0,0.2-0.1,0.4-0.2,0.5
		c-0.1,0.1-0.3,0.2-0.6,0.2c-0.2,0-0.4,0-0.6-0.1s-0.4-0.1-0.5-0.2V17c0.3,0.1,0.7,0.2,1.2,0.2c0.5,0,0.9-0.1,1.2-0.3
		c0.3-0.2,0.4-0.5,0.4-0.9C17,15.7,16.9,15.5,16.8,15.3z"/>
	<path d="M15.1,8.8c0.2-0.1,0.3-0.1,0.5-0.1c0.1,0,0.3,0,0.4,0.1C16,8.8,16,9,16,9.1c0,0.1,0,0.2-0.1,0.3c0,0.1-0.1,0.2-0.2,0.3
		c-0.1,0.1-0.3,0.3-0.6,0.6l-1,1V12H17v-0.7h-1.7v0l0.5-0.5c0.3-0.3,0.6-0.5,0.7-0.7c0.1-0.2,0.2-0.3,0.3-0.5
		c0.1-0.2,0.1-0.3,0.1-0.5c0-0.2,0-0.4-0.2-0.6c-0.1-0.2-0.2-0.3-0.4-0.4C16.1,8,15.8,8,15.6,8c-0.2,0-0.4,0-0.5,0.1
		c-0.1,0-0.3,0.1-0.4,0.1c-0.1,0.1-0.3,0.2-0.5,0.4L14.6,9C14.8,8.9,15,8.8,15.1,8.8z"/>
	<path d="M15.1,4.2c0.1,0,0.2-0.1,0.3-0.3l0,0.4V7h0.8V3h-0.7l-1.3,1l0.4,0.5L15.1,4.2z"/>
	<rect x="4" y="5" width="9" height="1"/>
	<rect x="4" y="10" width="9" height="1"/>
	<rect x="4" y="15" width="9" height="1"/>
</svg>