<!-- Generated by IcoMoon.io -->
<svg version="1.1" xmlns="http://www.w3.org/2000/svg" width="24" height="24" viewBox="0 0 24 24">
<title>editor-ol</title>
<path d="M7.2 8.4v-4.8h-0.828l-1.548 1.236 0.48 0.612 0.552-0.444c0.072-0.060 0.192-0.168 0.36-0.336l-0.024 0.504v3.228h1.008zM9.6 6h10.8v1.2h-10.8v-1.2zM8.124 14.34v-0.84h-2.064v-0.048l0.612-0.576c0.396-0.372 0.684-0.648 0.84-0.852 0.168-0.204 0.288-0.396 0.36-0.588 0.084-0.192 0.12-0.396 0.12-0.612 0-0.252-0.060-0.48-0.192-0.672-0.12-0.192-0.3-0.336-0.528-0.444s-0.492-0.168-0.78-0.168c-0.228 0-0.432 0.024-0.612 0.072-0.18 0.036-0.348 0.108-0.504 0.18-0.144 0.084-0.348 0.228-0.576 0.42l0.54 0.648c0.192-0.156 0.372-0.276 0.54-0.36 0.18-0.084 0.36-0.12 0.54-0.12 0.168 0 0.312 0.036 0.42 0.132s0.156 0.24 0.156 0.432c0 0.12-0.024 0.24-0.072 0.36s-0.12 0.252-0.228 0.396c-0.108 0.132-0.348 0.384-0.696 0.744l-1.188 1.2v0.696h3.312zM9.6 12h10.8v1.2h-10.8v-1.2zM8.052 16.74c0-0.36-0.144-0.648-0.444-0.852-0.288-0.204-0.696-0.312-1.2-0.312-0.624 0-1.152 0.156-1.596 0.48l0.48 0.72c0.204-0.132 0.384-0.228 0.552-0.276 0.168-0.060 0.324-0.084 0.492-0.084 0.456 0 0.696 0.18 0.696 0.552 0 0.24-0.084 0.42-0.264 0.516s-0.456 0.144-0.84 0.144h-0.372v0.792h0.372c0.408 0 0.708 0.048 0.9 0.144 0.18 0.096 0.276 0.264 0.276 0.492 0 0.264-0.084 0.444-0.24 0.564-0.168 0.12-0.42 0.18-0.756 0.18-0.228 0-0.456-0.036-0.684-0.096s-0.432-0.144-0.624-0.24v0.888c0.408 0.18 0.888 0.264 1.416 0.264 0.636 0 1.128-0.132 1.464-0.396 0.348-0.264 0.516-0.624 0.516-1.104 0-0.324-0.108-0.576-0.312-0.768s-0.504-0.312-0.888-0.36v-0.024c0.324-0.072 0.588-0.228 0.78-0.444 0.18-0.216 0.276-0.468 0.276-0.78zM9.6 18h10.8v1.2h-10.8v-1.2z"></path>
</svg>
