<!-- Generated by IcoMoon.io -->
<svg version="1.1" xmlns="http://www.w3.org/2000/svg" width="24" height="24" viewBox="0 0 24 24">
<title>editor-paste-word</title>
<path d="M14.856 2.4l3.144 3.6v1.2h-12v-1.2l3.168-3.6h5.688zM12 6c0.66 0 1.2-0.54 1.2-1.2s-0.54-1.2-1.2-1.2-1.2 0.54-1.2 1.2 0.54 1.2 1.2 1.2zM21.6 20.4v-14.4c0-0.66-0.54-1.2-1.2-1.2h-1.848l0.648 0.756v2.844h-14.4v-2.856l0.66-0.744h-1.86c-0.66 0-1.2 0.54-1.2 1.2v14.4c0 0.66 0.54 1.2 1.2 1.2h16.8c0.66 0 1.2-0.54 1.2-1.2zM18 10.8l-2.4 8.4h-2.4l-1.2-6-1.2 6h-2.496l-2.304-8.4h2.4l1.2 6 1.2-6h2.4l1.2 6 1.2-6h2.4z"></path>
</svg>
