<!-- Generated by IcoMoon.io -->
<svg version="1.1" xmlns="http://www.w3.org/2000/svg" width="24" height="24" viewBox="0 0 24 24">
<title>email</title>
<path d="M4.644 4.8h15.9c1.5 0 2.256 0.708 2.256 2.148v10.104c0 1.428-0.756 2.148-2.256 2.148h-15.9c-1.5 0-2.256-0.72-2.256-2.148v-10.104c0-1.44 0.756-2.148 2.256-2.148zM12.588 15.12l8.088-6.636c0.288-0.24 0.516-0.792 0.156-1.284-0.348-0.492-0.984-0.504-1.404-0.204l-6.84 4.632-6.828-4.632c-0.42-0.3-1.056-0.288-1.404 0.204-0.36 0.492-0.132 1.044 0.156 1.284z"></path>
</svg>
