<!-- Generated by IcoMoon.io -->
<svg version="1.1" xmlns="http://www.w3.org/2000/svg" width="24" height="24" viewBox="0 0 24 24">
<title>email-alt2</title>
<path d="M21.612 13.416v-10.404c0-1.428-1.080-2.172-2.4-1.644l-14.412 5.724c-1.32 0.528-2.4 2.124-2.4 3.564v10.392c0 1.44 1.080 2.172 2.4 1.644l14.412-5.724c1.32-0.528 2.4-2.112 2.4-3.552zM19.896 4.464l-7.248 11.196-7.98-5.52c-0.12-0.084-0.432-0.384-0.204-0.768 0.252-0.432 0.78-0.252 0.78-0.252l7.56 2.784s5.796-7.608 6.132-8.040c0.156-0.204 0.516-0.408 0.876-0.156 0.348 0.24 0.192 0.588 0.084 0.756z"></path>
</svg>
