<!-- Generated by IcoMoon.io -->
<svg version="1.1" xmlns="http://www.w3.org/2000/svg" width="24" height="24" viewBox="0 0 24 24">
<title>excerpt-view</title>
<path d="M22.8 21.6v-19.2c0-0.66-0.54-1.2-1.2-1.2h-19.2c-0.66 0-1.2 0.54-1.2 1.2v19.2c0 0.66 0.54 1.2 1.2 1.2h19.2c0.66 0 1.2-0.54 1.2-1.2zM4.8 3.6c0.66 0 1.2 0.54 1.2 1.2s-0.54 1.2-1.2 1.2-1.2-0.54-1.2-1.2 0.54-1.2 1.2-1.2zM20.4 3.6v7.2h-13.2v-7.2h13.2zM4.8 13.2c0.66 0 1.2 0.54 1.2 1.2s-0.54 1.2-1.2 1.2-1.2-0.54-1.2-1.2 0.54-1.2 1.2-1.2zM20.4 13.2v7.2h-13.2v-7.2h13.2z"></path>
</svg>
