<?xml version="1.0" encoding="utf-8"?>
<!-- Generator: Adobe Illustrator 24.1.0, SVG Export Plug-In . SVG Version: 6.00 Build 0)  -->
<svg version="1.1" id="Layer_1" xmlns="http://www.w3.org/2000/svg" xmlns:xlink="http://www.w3.org/1999/xlink" x="0px" y="0px"
	 viewBox="0 0 20 20" style="enable-background:new 0 0 20 20;" xml:space="preserve">
<path d="M7,4.5C6.7,4.5,6.5,4.8,6.5,5c0,0,0,2.5,0,2.5h-1c0,0,0-2.5,0-2.5c0-0.3-0.2-0.5-0.5-0.5S4.5,4.8,4.5,5c0,0,0,2.5,0,2.5h-1
	c0,0,0-2.5,0-2.5c0-0.3-0.2-0.5-0.5-0.5S2.5,4.8,2.5,5v3.3C2.5,9.2,3.2,9.9,4,10v7c0,0.6,0.4,1,1,1s1-0.4,1-1v-7
	c0.8-0.1,1.5-0.8,1.5-1.7V5C7.5,4.8,7.3,4.5,7,4.5z M9,5v6h1v6c0,0.6,0.4,1,1,1s1-0.4,1-1V2C10.3,2,9,3.3,9,5z M16,4
	c-1.4,0-2.5,1.5-2.5,3.3c-0.1,1.2,0.5,2.3,1.5,3V17c0,0.6,0.4,1,1,1s1-0.4,1-1v-6.7c1-0.7,1.6-1.8,1.5-3C18.5,5.5,17.4,4,16,4z"/>
</svg>
