<!-- Generated by IcoMoon.io -->
<svg version="1.1" xmlns="http://www.w3.org/2000/svg" width="24" height="24" viewBox="0 0 24 24">
<title>format-gallery</title>
<path d="M19.2 4.8h2.352c0.684 0 1.248 0.564 1.248 1.248v15.504c0 0.684-0.564 1.248-1.248 1.248h-15.504c-0.684 0-1.248-0.564-1.248-1.248v-2.352h-2.352c-0.684 0-1.248-0.564-1.248-1.248v-15.504c0-0.684 0.564-1.248 1.248-1.248h15.504c0.684 0 1.248 0.564 1.248 1.248v2.352zM3.6 16.8h13.2v-13.2h-13.2v13.2zM9.6 6.6c0-0.996-0.804-1.8-1.8-1.8s-1.8 0.804-1.8 1.8 0.804 1.8 1.8 1.8 1.8-0.804 1.8-1.8zM12 12c0 0 1.2-6 3.6-6v9.6h-10.8v-7.2c2.4 0 2.4 3.6 2.4 3.6s0.396-2.4 2.4-2.4 2.4 2.4 2.4 2.4zM20.4 20.4v-13.2h-1.2v10.752c0 0.684-0.564 1.248-1.248 1.248h-10.752v1.2h13.2z"></path>
</svg>
