<!-- Generated by IcoMoon.io -->
<svg version="1.1" xmlns="http://www.w3.org/2000/svg" width="24" height="24" viewBox="0 0 24 24">
<title>format-audio</title>
<path d="M8.388 3.696l13.224-2.4c0.66-0.096 1.188 0.54 1.188 1.2v14.904c0 2.328-1.884 4.2-4.2 4.2s-4.2-1.872-4.2-4.2c0-2.316 1.884-4.2 4.2-4.2 0.648 0 1.248 0.168 1.8 0.42v-7.524l-10.8 2.4v10.704c-0.288 2.040-2.088 3.6-4.2 3.6-2.316 0-4.2-1.872-4.2-4.2 0-2.316 1.884-4.2 4.2-4.2 0.648 0 1.248 0.168 1.8 0.42v-9.924c0-0.66 0.528-1.092 1.188-1.2z"></path>
</svg>
