<!-- Generated by IcoMoon.io -->
<svg version="1.1" xmlns="http://www.w3.org/2000/svg" width="24" height="24" viewBox="0 0 24 24">
<title>format-quote</title>
<path d="M10.248 15.288c0-1.044-0.288-1.932-0.864-2.664-0.876-1.104-2.568-1.236-3.552-1.020-0.408-2.316 1.56-5.268 4.104-6.54l-1.956-2.736c-3.84 1.824-7.608 6.024-6.96 11.316 0.408 3.348 2.34 5.556 5.076 5.556 1.2 0 2.196-0.348 2.976-1.056 0.792-0.708 1.176-1.656 1.176-2.856zM21.564 15.288c0-1.044-0.288-1.932-0.864-2.664-0.876-1.104-2.568-1.236-3.552-1.020-0.408-2.316 1.56-5.268 4.104-6.54l-1.956-2.736c-3.84 1.824-7.608 6.024-6.96 11.316 0.408 3.348 2.34 5.556 5.076 5.556 1.2 0 2.196-0.348 2.976-1.056 0.792-0.708 1.176-1.656 1.176-2.856z"></path>
</svg>
