<!-- Generated by IcoMoon.io -->
<svg version="1.1" xmlns="http://www.w3.org/2000/svg" width="24" height="24" viewBox="0 0 24 24">
<title>forms</title>
<path d="M2.4 2.4h8.4v8.4h-8.4v-8.4zM13.2 2.4v8.4h8.4v-8.4h-8.4zM6.6 5.4l1.8-1.8h-3.6zM14.4 9.6v-6h6v6h-6zM5.4 6.6l-1.8-1.8v3.6zM9.6 4.8l-1.8 1.8 1.8 1.8v-3.6zM6.6 7.8l-1.8 1.8h3.6zM10.8 21.6v-8.4h-8.4v8.4h8.4zM21.6 21.6h-8.4v-8.4h8.4v8.4zM9.6 14.4v6h-6v-6h6zM17.4 16.2l1.8-1.8h-3.6zM14.4 19.2l1.8-1.8-1.8-1.8v3.6zM18.6 17.4l1.8 1.8v-3.6zM17.4 18.6l-1.8 1.8h3.6z"></path>
</svg>
