<?xml version="1.0" encoding="utf-8"?>
<!-- Generator: Adobe Illustrator 24.1.0, SVG Export Plug-In . SVG Version: 6.00 Build 0)  -->
<svg version="1.1" id="Layer_1" xmlns="http://www.w3.org/2000/svg" xmlns:xlink="http://www.w3.org/1999/xlink" x="0px" y="0px"
	 viewBox="0 0 20 20" style="enable-background:new 0 0 20 20;" xml:space="preserve">
<path d="M15.9,5.5L15.9,5.5C15.3,4.5,14.2,4,13,4H7C5.8,4,4.7,4.5,4.1,5.5l0,0C1.8,9,1.3,14.3,2.9,15.4c1.6,1.1,5.2-3.7,7.1-3.7
	s5.4,4.8,7.1,3.7C18.7,14.3,18.2,9,15.9,5.5z M8,9H7v1H6V9H5V8h1V7h1v1h1V9z M13.4,9.5c0,0.5-0.4,0.9-0.9,0.9
	c-0.5,0-0.9-0.4-0.9-0.9s0.4-0.9,0.9-0.9S13.4,9,13.4,9.5L13.4,9.5z M15.3,7.5c0,0.5-0.4,0.9-0.9,0.9c-0.5,0-0.9-0.4-0.9-0.9
	s0.4-0.9,0.9-0.9S15.3,7,15.3,7.5L15.3,7.5z"/>
</svg>
