<!-- Generated by IcoMoon.io -->
<svg version="1.1" xmlns="http://www.w3.org/2000/svg" width="24" height="24" viewBox="0 0 24 24">
<title>googleplus</title>
<path d="M8.076 12h6.48c0.060 0.348 0.108 0.684 0.108 1.14 0 3.924-2.628 6.72-6.588 6.72-3.804 0-6.876-3.084-6.876-6.876 0-3.804 3.072-6.876 6.876-6.876 1.848 0 3.408 0.684 4.596 1.8l-1.86 1.8c-0.516-0.492-1.404-1.068-2.736-1.068-2.352 0-4.26 1.944-4.26 4.344 0 2.388 1.908 4.332 4.26 4.332 2.712 0 3.732-1.944 3.888-2.964h-3.888v-2.352zM22.8 12v1.968h-1.968v1.956h-1.956v-1.956h-1.968v-1.968h1.968v-1.968h1.956v1.968h1.968z"></path>
</svg>
