<?xml version="1.0" encoding="utf-8"?>
<!-- Generator: Adobe Illustrator 24.1.0, SVG Export Plug-In . SVG Version: 6.00 Build 0)  -->
<svg version="1.1" id="Layer_1" xmlns="http://www.w3.org/2000/svg" xmlns:xlink="http://www.w3.org/1999/xlink" x="0px" y="0px"
	 viewBox="0 0 20 20" style="enable-background:new 0 0 20 20;" xml:space="preserve">
<style type="text/css">
	.st0{fill-rule:evenodd;clip-rule:evenodd;}
</style>
<path class="st0" d="M17.6,8.5h-7.5v3h4.4c-0.4,2.1-2.3,3.5-4.4,3.4c-2.6-0.1-4.6-2.1-4.7-4.7c-0.1-2.7,2-5,4.7-5.1
	c1.1,0,2.2,0.4,3.1,1.2l2.3-2.2C14.1,2.7,12.1,2,10.2,2c-4.4,0-8,3.6-8,8s3.6,8,8,8c4.6,0,7.7-3.2,7.7-7.8
	C17.8,9.6,17.8,9.1,17.6,8.5z"/>
</svg>
