<!-- Generated by IcoMoon.io -->
<svg version="1.1" xmlns="http://www.w3.org/2000/svg" width="24" height="24" viewBox="0 0 24 24">
<title>groups</title>
<path d="M9.636 5.352c-0.348 1.536 0.66 4.152 2.364 4.152 1.692 0 2.7-2.616 2.352-4.152-0.264-1.176-1.296-1.956-2.352-1.956-1.068 0-2.088 0.78-2.364 1.956zM4.68 6.432c-0.3 1.296 0.564 3.516 2.004 3.516s2.304-2.22 2.004-3.516c-0.228-0.996-1.104-1.668-2.004-1.668s-1.776 0.672-2.004 1.668zM15.312 6.432c-0.3 1.296 0.564 3.516 1.992 3.516 1.44 0 2.304-2.22 2.004-3.516-0.228-0.996-1.104-1.668-2.004-1.668-0.888 0-1.764 0.672-1.992 1.668zM14.604 20.148l1.5-5.16c0.936-2.988-0.852-4.824-4.104-4.824-3.264 0-5.052 1.836-4.128 4.824l1.512 5.16c0.276 0.864 1.416 1.452 2.616 1.452 1.176 0 2.328-0.588 2.604-1.452zM7.284 10.992c-0.588 0.804-1.152 2.196-0.504 4.308l1.344 4.548c-0.408 0.24-0.924 0.372-1.44 0.372-1.020 0-1.98-0.492-2.22-1.236l-1.284-4.38c-0.78-2.532 0.732-4.080 3.504-4.080 0.324 0 0.648 0.024 0.948 0.072-0.12 0.12-0.24 0.264-0.348 0.396zM17.304 10.524c2.772 0 4.296 1.548 3.504 4.080l-1.284 4.38c-0.24 0.744-1.2 1.236-2.22 1.236-0.516 0-1.032-0.132-1.44-0.372l1.332-4.524c0.66-2.136 0.096-3.528-0.504-4.332-0.096-0.132-0.216-0.276-0.336-0.396 0.3-0.048 0.612-0.072 0.948-0.072z"></path>
</svg>
