<?xml version="1.0" encoding="utf-8"?>
<!-- Generator: Adobe Illustrator 24.1.0, SVG Export Plug-In . SVG Version: 6.00 Build 0)  -->
<svg version="1.1" id="Layer_1" xmlns="http://www.w3.org/2000/svg" xmlns:xlink="http://www.w3.org/1999/xlink" x="0px" y="0px"
	 viewBox="0 0 20 20" style="enable-background:new 0 0 20 20;" xml:space="preserve">
<path d="M17.3,3.3c-0.4-0.4-1.1-0.4-1.6,0l-2.4,2.4c-1.1-0.4-2.2-0.6-3.3-0.6c-3.8,0.1-7.2,2.1-9,5.4c0.2,0.4,0.5,0.8,0.8,1.2
	c0.8,1.1,1.8,2,2.9,2.7l-1.7,1.7c-0.4,0.4-0.5,1.1,0,1.6c0.4,0.4,1.1,0.5,1.6,0c0,0,0,0,0,0L17.3,4.9C17.7,4.4,17.7,3.7,17.3,3.3z
	 M6.7,12.3l-1.3,1.3c-1.2-0.7-2.3-1.7-3.1-2.9C3.5,9,5.1,7.8,7,7.2C5.7,8.6,5.6,10.8,6.7,12.3z M10.1,9c-0.5-0.5-0.4-1.3,0.1-1.8
	c0.5-0.4,1.2-0.4,1.7,0L10.1,9z M18.3,9.5c-0.5-0.7-1.1-1.4-1.8-1.9l-1,1c0.8,0.6,1.5,1.3,2.1,2.2c-1.7,2.6-4.6,4.2-7.7,4.2
	c-0.3,0-0.5,0-0.8,0l-1,1C8.8,15.9,9.4,16,10,16c3.3,0,6.4-1.6,8.3-4.3c0.3-0.4,0.5-0.8,0.8-1.2C18.8,10.2,18.6,9.8,18.3,9.5z
	 M14,10l-4,4C12.2,14,14,12.2,14,10z"/>
</svg>
