<?xml version="1.0" encoding="utf-8"?>
<!-- Generator: Adobe Illustrator 24.1.0, SVG Export Plug-In . SVG Version: 6.00 Build 0)  -->
<svg version="1.1" id="Layer_1" xmlns="http://www.w3.org/2000/svg" xmlns:xlink="http://www.w3.org/1999/xlink" x="0px" y="0px"
	 viewBox="0 0 20 20" style="enable-background:new 0 0 20 20;" xml:space="preserve">
<path d="M15.5,16H15c-0.1-2.5-0.6-4.4-3.3-6c2.6-1.6,3.2-3.5,3.3-6h0.5c0.6,0,1-0.4,1-1s-0.4-1-1-1h-11c-0.6,0-1,0.4-1,1s0.4,1,1,1
	H5c0.1,2.5,0.6,4.4,3.3,6c-2.6,1.6-3.2,3.5-3.3,6H4.5c-0.6,0-1,0.4-1,1s0.4,1,1,1h11c0.6,0,1-0.4,1-1S16.1,16,15.5,16z"/>
</svg>
