<!-- Generated by IcoMoon.io -->
<svg version="1.1" xmlns="http://www.w3.org/2000/svg" width="24" height="24" viewBox="0 0 24 24">
<title>id-alt</title>
<path d="M21.6 21.6h-19.2v-19.2h19.2v19.2zM9.66 9.036c0.156-0.084 0.288-0.18 0.396-0.288 0.108-0.12 0.204-0.252 0.288-0.408 0.084-0.168 0.156-0.312 0.204-0.444s0.084-0.264 0.12-0.408l0.072-0.288c0-0.048 0.012-0.084 0.012-0.108 0.060-0.384 0.036-0.732-0.048-1.080-0.096-0.336-0.276-0.624-0.552-0.864-0.276-0.228-0.612-0.348-1.032-0.348-0.24 0-0.468 0.048-0.672 0.132-0.204 0.096-0.372 0.216-0.492 0.36-0.132 0.156-0.24 0.324-0.324 0.528-0.084 0.192-0.132 0.396-0.144 0.612s0 0.432 0.012 0.66l0.024 0.108c0.012 0.072 0.036 0.18 0.072 0.3s0.072 0.252 0.12 0.396 0.12 0.3 0.204 0.444c0.096 0.144 0.192 0.276 0.3 0.396s0.24 0.228 0.408 0.3c0.156 0.072 0.336 0.108 0.516 0.108s0.36-0.036 0.516-0.108zM19.2 6v-1.2h-6v1.2h6zM19.2 8.4v-1.2h-6v1.2h6zM9.144 10.596l-1.656-1.056c-0.492 0-0.948 0.132-1.368 0.384-0.42 0.264-0.744 0.6-0.972 1.020-0.228 0.408-0.348 0.84-0.348 1.284v1.5l0.24 0.060c0.156 0.048 0.372 0.108 0.66 0.168 0.288 0.072 0.612 0.144 0.96 0.204 0.348 0.072 0.744 0.12 1.2 0.168 0.444 0.048 0.876 0.072 1.284 0.072s0.828-0.024 1.284-0.072 0.84-0.108 1.176-0.168c0.324-0.060 0.648-0.12 0.984-0.204 0.324-0.072 0.54-0.132 0.648-0.156 0.108-0.036 0.192-0.060 0.252-0.072v-1.5c0-0.432-0.12-0.864-0.372-1.284s-0.588-0.768-1.008-1.032-0.864-0.396-1.332-0.396zM19.2 10.8v-1.2h-3.6v1.2h3.6zM19.2 13.2v-1.2h-3.6v1.2h3.6zM19.2 16.8v-1.2h-14.4v1.2h14.4zM19.2 19.2v-1.2h-14.4v1.2h14.4z"/>
</svg>
