<!-- Generated by IcoMoon.io -->
<svg version="1.1" xmlns="http://www.w3.org/2000/svg" width="24" height="24" viewBox="0 0 24 24">
<title>images-alt</title>
<path d="M4.8 18v-3.6h-2.4v-12h14.4v3.6h2.4v3.6h2.4v12h-14.4v-3.6h-2.4zM13.2 3.6c-1.32 0-2.4 1.080-2.4 2.4h4.8c0-1.32-1.068-2.4-2.4-2.4zM4.8 13.2v-6h-1.2v6h1.2zM13.2 9.6h4.8c0-1.32-1.068-2.4-2.4-2.4-1.32 0-2.4 1.080-2.4 2.4zM7.2 16.8v-6h-1.2v6h1.2zM18 15.6c1.32 0 2.4-1.068 2.4-2.4 0-1.32-1.080-2.4-2.4-2.4s-2.4 1.080-2.4 2.4c0 1.332 1.080 2.4 2.4 2.4zM20.4 20.4v-2.4c-6 0-6-3.6-12-3.6v6h12z"/>
</svg>
