<!-- Generated by IcoMoon.io -->
<svg version="1.1" xmlns="http://www.w3.org/2000/svg" width="24" height="24" viewBox="0 0 24 24">
<title>image-filter</title>
<path d="M16.8 7.044c0-2.64-2.148-4.8-4.8-4.8s-4.8 2.16-4.8 4.8c0 2.652 2.148 4.8 4.8 4.8s4.8-2.148 4.8-4.8zM3.888 12.792c-2.304 1.32-3.084 4.26-1.764 6.552 1.332 2.304 4.26 3.084 6.564 1.764 2.292-1.332 3.084-4.26 1.752-6.564-1.32-2.292-4.26-3.072-6.552-1.752zM15.312 21.108c2.304 1.32 5.232 0.54 6.564-1.752 1.32-2.304 0.54-5.232-1.764-6.564-2.292-1.32-5.232-0.54-6.552 1.752-1.332 2.304-0.54 5.232 1.752 6.564z"></path>
</svg>
