<svg viewBox="0 0 20 20" id="instagram"><title>instagram</title>
  <path d="M12.67,10A2.67,2.67,0,1,0,10,12.67,2.68,2.68,0,0,0,12.67,10Zm1.43,0A4.1,4.1,0,1,1,10,5.9,4.09,4.09,0,0,1,14.1,10Zm1.13-4.27a1,1,0,1,1-1-1A1,1,0,0,1,15.23,5.73ZM10,3.44c-1.17,0-3.67-.1-4.72.32A2.67,2.67,0,0,0,3.76,5.28c-.42,1-.32,3.55-.32,4.72s-.1,3.67.32,4.72a2.74,2.74,0,0,0,1.52,1.52c1,.42,3.55.32,4.72.32s3.67.1,4.72-.32a2.83,2.83,0,0,0,1.52-1.52c.42-1.05.32-3.55.32-4.72s.1-3.67-.32-4.72a2.74,2.74,0,0,0-1.52-1.52C13.67,3.34,11.17,3.44,10,3.44ZM18,10c0,1.1,0,2.2-.05,3.3a4.84,4.84,0,0,1-1.29,3.36A4.8,4.8,0,0,1,13.3,18C12.2,18,11.1,18,10,18S7.8,18,6.7,18a4.84,4.84,0,0,1-3.36-1.29A4.84,4.84,0,0,1,2.05,13.3C2,12.2,2,11.1,2,10s0-2.2,0-3.3A4.84,4.84,0,0,1,3.34,3.34,4.8,4.8,0,0,1,6.7,2.05C7.8,2,8.9,2,10,2s2.2,0,3.3,0a4.84,4.84,0,0,1,3.36,1.29A4.8,4.8,0,0,1,18,6.7C18,7.8,18,8.9,18,10Z"/>
</svg>