<?xml version="1.0" encoding="utf-8"?>
<!-- Generator: Adobe Illustrator 24.1.0, SVG Export Plug-In . SVG Version: 6.00 Build 0)  -->
<svg version="1.1" id="Layer_1" xmlns="http://www.w3.org/2000/svg" xmlns:xlink="http://www.w3.org/1999/xlink" x="0px" y="0px"
	 viewBox="0 0 20 20" style="enable-background:new 0 0 20 20;" xml:space="preserve">
<path d="M2.5,18h3V6.9h-3V18z M4,2C3,2,2.2,2.8,2.2,3.8c0,1,0.8,1.8,1.8,1.8c1,0,1.8-0.8,1.8-1.8c0,0,0,0,0,0C5.8,2.8,5,2,4,2z
	 M10.6,8.6V6.9h-3V18h3v-5.7c0-3.2,4.1-3.4,4.1,0V18h3v-6.8C17.7,5.8,12,6,10.6,8.6z"/>
</svg>
