<!-- Generated by IcoMoon.io -->
<svg version="1.1" xmlns="http://www.w3.org/2000/svg" width="24" height="24" viewBox="0 0 24 24">
<title>list-view</title>
<path d="M2.4 22.8h19.2c0.66 0 1.2-0.54 1.2-1.2v-19.2c0-0.66-0.54-1.2-1.2-1.2h-19.2c-0.66 0-1.2 0.54-1.2 1.2v19.2c0 0.66 0.54 1.2 1.2 1.2zM4.8 3.6c0.66 0 1.2 0.54 1.2 1.2s-0.54 1.2-1.2 1.2-1.2-0.54-1.2-1.2 0.54-1.2 1.2-1.2zM20.4 3.6v2.4h-13.2v-2.4h13.2zM4.8 8.4c0.66 0 1.2 0.54 1.2 1.2s-0.54 1.2-1.2 1.2-1.2-0.54-1.2-1.2 0.54-1.2 1.2-1.2zM20.4 8.4v2.4h-13.2v-2.4h13.2zM4.8 13.2c0.66 0 1.2 0.54 1.2 1.2s-0.54 1.2-1.2 1.2-1.2-0.54-1.2-1.2 0.54-1.2 1.2-1.2zM20.4 13.2v2.4h-13.2v-2.4h13.2zM4.8 18c0.66 0 1.2 0.54 1.2 1.2s-0.54 1.2-1.2 1.2-1.2-0.54-1.2-1.2 0.54-1.2 1.2-1.2zM20.4 18v2.4h-13.2v-2.4h13.2z"></path>
</svg>
