<!-- Generated by IcoMoon.io -->
<svg version="1.1" xmlns="http://www.w3.org/2000/svg" width="24" height="24" viewBox="0 0 24 24">
<title>location</title>
<path d="M12 2.4c-3.972 0-7.2 3.228-7.2 7.2 0 2.424 1.404 4.452 3.036 5.868 0.516 0.444 1.416 1.152 2.22 2.196 0.888 1.164 1.692 2.412 1.944 3.252 0.252-0.84 1.056-2.088 1.944-3.252 0.804-1.044 1.704-1.752 2.22-2.196 1.632-1.416 3.036-3.444 3.036-5.868 0-3.972-3.228-7.2-7.2-7.2zM12 5.472c2.28 0 4.128 1.848 4.128 4.128s-1.848 4.128-4.128 4.128-4.128-1.848-4.128-4.128 1.848-4.128 4.128-4.128z"/>
</svg>
