<!-- Generated by IcoMoon.io -->
<svg version="1.1" xmlns="http://www.w3.org/2000/svg" width="24" height="24" viewBox="0 0 24 24">
<title>media-spreadsheet</title>
<path d="M14.4 2.4l4.8 4.8v14.4h-14.4v-19.2h9.6zM13.2 7.2v-3.6h-7.2v3.6h7.2zM9.6 9.6v-1.2h-3.6v1.2h3.6zM13.2 9.6v-1.2h-2.4v1.2h2.4zM18 9.6v-1.2h-3.6v1.2h3.6zM9.6 12v-1.2h-3.6v1.2h3.6zM13.2 12v-1.2h-2.4v1.2h2.4zM18 12v-1.2h-3.6v1.2h3.6zM9.6 14.4v-1.2h-3.6v1.2h3.6zM13.2 14.4v-1.2h-2.4v1.2h2.4zM18 14.4v-1.2h-3.6v1.2h3.6zM9.6 16.8v-1.2h-3.6v1.2h3.6zM13.2 16.8v-1.2h-2.4v1.2h2.4zM18 16.8v-1.2h-3.6v1.2h3.6zM9.6 19.2v-1.2h-3.6v1.2h3.6zM13.2 19.2v-1.2h-2.4v1.2h2.4z"></path>
</svg>
