<!-- Generated by IcoMoon.io -->
<svg version="1.1" xmlns="http://www.w3.org/2000/svg" width="24" height="24" viewBox="0 0 24 24">
<title>media-audio</title>
<path d="M14.4 2.4l4.8 4.8v14.4h-14.4v-19.2h9.6zM14.4 7.2h3.6l-3.6-3.6v3.6zM15.6 15.912v-6.204c0-0.132-0.048-0.252-0.144-0.348-0.084-0.096-0.192-0.132-0.324-0.12 0 0-4.764 0.852-5.1 0.936-0.348 0.072-0.432 0.384-0.432 0.624v4.044c-0.24-0.108-0.504-0.084-0.72-0.084-0.456 0-0.84 0.156-1.152 0.468-0.312 0.324-0.48 0.696-0.48 1.152 0 0.444 0.168 0.828 0.48 1.14 0.312 0.324 0.696 0.48 1.152 0.48 0.408 0 0.84-0.048 1.152-0.312 0.312-0.276 0.768-0.78 0.768-1.344v-3.984l3.6-0.72v2.76c-0.804-0.24-1.404 0.048-1.728 0.372-0.312 0.312-0.468 0.696-0.468 1.14 0 0.456 0.156 0.828 0.468 1.152 0.324 0.312 0.852 0.468 1.296 0.468 0.456 0 0.84-0.156 1.152-0.468 0.312-0.324 0.48-0.696 0.48-1.152z"/>
</svg>
