<!-- Generated by IcoMoon.io -->
<svg version="1.1" xmlns="http://www.w3.org/2000/svg" width="24" height="24" viewBox="0 0 24 24">
<title>media-archive</title>
<path d="M14.4 2.4l4.8 4.8v14.4h-14.4v-19.2h9.6zM14.4 7.2h3.6l-3.6-3.6v3.6zM9.6 4.2v2.4l2.16-1.2zM13.2 6l-2.16 1.2 2.16 1.2v-2.4zM9.6 7.8v2.4l2.16-1.2zM13.2 9.6l-2.16 1.2 2.16 1.2v-2.4zM9.6 11.4v2.4l2.16-1.2zM13.2 13.2l-2.16 1.2 2.16 1.2v-2.4zM11.4 20.4c0.996 0 1.944-0.864 1.8-1.956-0.060-0.456-0.588-1.932-0.588-1.932l-2.388-1.32s-0.54 2.34-0.624 3.252c-0.084 0.924 0.804 1.956 1.8 1.956zM11.4 17.532c0.504 0 0.912 0.408 0.912 0.912 0 0.516-0.408 0.924-0.912 0.924s-0.912-0.408-0.912-0.924c0-0.504 0.408-0.912 0.912-0.912z"></path>
</svg>
