<!-- Generated by IcoMoon.io -->
<svg version="1.1" xmlns="http://www.w3.org/2000/svg" width="24" height="24" viewBox="0 0 24 24">
<title>microphone</title>
<path d="M14.4 10.8v-7.2c0-1.32-1.068-2.4-2.4-2.4-1.344 0-2.4 1.128-2.4 2.4v7.2c0 1.32 1.080 2.4 2.4 2.4 1.356 0 2.4-1.128 2.4-2.4zM19.2 10.8c0 3.564-2.592 6.516-6 7.092v2.508h2.4c0.672 0 1.2 0.54 1.2 1.2s-0.528 1.2-1.2 1.2h-7.2c-0.66 0-1.2-0.54-1.2-1.2s0.54-1.2 1.2-1.2h2.4v-2.508c-3.396-0.576-6-3.528-6-7.092 0-0.66 0.54-1.2 1.2-1.2 0.672 0 1.2 0.54 1.2 1.2 0 2.652 2.16 4.8 4.8 4.8 2.652 0 4.8-2.148 4.8-4.8 0-0.66 0.54-1.2 1.2-1.2 0.672 0 1.2 0.54 1.2 1.2z"/>
</svg>
