<!-- Generated by IcoMoon.io -->
<svg version="1.1" xmlns="http://www.w3.org/2000/svg" width="24" height="24" viewBox="0 0 24 24">
<title>money</title>
<path d="M0 3.6h24v14.4h-0.9c0-2.148-1.752-3.9-3.9-3.9-1.572 0-2.904 0.948-3.528 2.292-0.3-0.12-0.624-0.192-0.972-0.192-1.176 0-2.16 0.756-2.532 1.8h-12.168v-14.4zM10.044 7.332c-0.072 0.18-0.12 0.372-0.132 0.564s-0.012 0.396 0.012 0.6l0.024 0.096c0.012 0.072 0.024 0.168 0.060 0.276 0.024 0.12 0.072 0.24 0.12 0.372 0.036 0.132 0.108 0.264 0.18 0.396 0.084 0.144 0.18 0.264 0.276 0.372s0.216 0.204 0.372 0.276c0.144 0.072 0.3 0.108 0.48 0.108 0.168 0 0.324-0.036 0.468-0.108s0.264-0.168 0.36-0.264c0.108-0.108 0.192-0.24 0.264-0.384 0.084-0.144 0.144-0.276 0.192-0.396s0.084-0.24 0.108-0.372c0.036-0.132 0.048-0.216 0.060-0.264s0.012-0.084 0.012-0.108c0.060-0.348 0.036-0.672-0.048-0.984s-0.252-0.576-0.492-0.792c-0.252-0.216-0.564-0.324-0.948-0.324-0.228 0-0.432 0.036-0.624 0.12-0.18 0.084-0.336 0.192-0.456 0.336-0.108 0.132-0.204 0.3-0.288 0.48zM15.42 14.58v-1.368c0-0.396-0.12-0.792-0.348-1.176s-0.54-0.708-0.924-0.948c-0.384-0.252-0.792-0.372-1.224-0.372l-1.488 1.008-1.536-0.984c-0.444 0-0.864 0.12-1.248 0.36-0.372 0.24-0.672 0.552-0.888 0.924-0.216 0.384-0.324 0.78-0.324 1.188v1.368l0.216 0.060c0.144 0.048 0.348 0.096 0.612 0.168 0.276 0.060 0.564 0.12 0.888 0.18 0.312 0.060 0.684 0.108 1.092 0.156 0.408 0.036 0.804 0.060 1.188 0.060 0.36 0 0.756-0.024 1.176-0.060 0.408-0.048 0.768-0.096 1.068-0.156 0.3-0.048 0.6-0.12 0.912-0.192l0.6-0.144c0.096-0.024 0.168-0.048 0.228-0.072zM19.2 14.7c1.824 0 3.3 1.476 3.3 3.3s-1.476 3.3-3.3 3.3c-0.876 0-1.656-0.36-2.244-0.924 0.276-0.42 0.444-0.936 0.444-1.476 0-0.924-0.468-1.752-1.188-2.232 0.516-1.152 1.644-1.968 2.988-1.968zM12.6 18.9c0-1.152 0.948-2.1 2.1-2.1s2.1 0.948 2.1 2.1-0.948 2.1-2.1 2.1-2.1-0.948-2.1-2.1z"/>
</svg>
