<?xml version="1.0" encoding="utf-8"?>
<!-- Generator: Adobe Illustrator 24.1.0, SVG Export Plug-In . SVG Version: 6.00 Build 0)  -->
<svg version="1.1" id="Layer_1" xmlns="http://www.w3.org/2000/svg" xmlns:xlink="http://www.w3.org/1999/xlink" x="0px" y="0px"
	 viewBox="0 0 20 20" style="enable-background:new 0 0 20 20;" xml:space="preserve">
<path d="M10.6,9c-0.4-0.1-0.8-0.3-1.1-0.6C9.2,8.3,9.1,8,9.1,7.8c0-0.2,0.1-0.5,0.3-0.6c0.3-0.2,0.6-0.4,0.9-0.3
	c0.6,0,1.1,0.3,1.4,0.7l0.9-1.2c-0.3-0.3-0.6-0.5-0.9-0.7c-0.3-0.2-0.7-0.3-1.1-0.3V4H9.4v1.4C8.9,5.5,8.4,5.8,8,6.2
	C7.6,6.7,7.3,7.3,7.4,7.9c0,0.6,0.2,1.2,0.6,1.6c0.5,0.5,1.2,0.8,1.8,1.1c0.3,0.1,0.7,0.3,1,0.5c0.2,0.2,0.3,0.5,0.3,0.8
	c0,0.3-0.1,0.6-0.3,0.9c-0.3,0.3-0.7,0.4-1,0.4c-0.4,0-0.9-0.1-1.2-0.4c-0.3-0.2-0.6-0.5-0.8-0.8l-1,1.1c0.3,0.4,0.6,0.7,1,1
	c0.5,0.3,1.1,0.6,1.7,0.6V16h1.1v-1.5c0.6-0.1,1.1-0.4,1.5-0.8c0.5-0.5,0.8-1.3,0.8-2c0-0.6-0.2-1.3-0.7-1.7
	C11.7,9.5,11.2,9.2,10.6,9z M10,2c-4.4,0-8,3.6-8,8s3.6,8,8,8s8-3.6,8-8S14.4,2,10,2z M10,16.9c-3.8,0-6.9-3.1-6.9-6.9
	S6.2,3.1,10,3.1s6.9,3.1,6.9,6.9S13.8,16.9,10,16.9z"/>
</svg>
