<!-- Generated by IcoMoon.io -->
<svg version="1.1" xmlns="http://www.w3.org/2000/svg" width="24" height="24" viewBox="0 0 24 24">
<title>nametag</title>
<path d="M14.4 6v-3.6c0-0.66-0.54-1.2-1.2-1.2h-2.4c-0.66 0-1.2 0.54-1.2 1.2v3.6c0 0.66 0.54 1.2 1.2 1.2h2.4c0.66 0 1.2-0.54 1.2-1.2zM12 2.4c0.66 0 1.2 0.54 1.2 1.2s-0.54 1.2-1.2 1.2-1.2-0.54-1.2-1.2 0.54-1.2 1.2-1.2zM21.6 18v-9.6c0-1.32-1.080-2.4-2.4-2.4h-3.6v0.396c0 1.104-0.9 2.004-2.004 2.004h-3.192c-1.104 0-2.004-0.9-2.004-2.004v-0.396h-3.6c-1.32 0-2.4 1.080-2.4 2.4v9.6c0 1.32 1.080 2.4 2.4 2.4h14.4c1.32 0 2.4-1.080 2.4-2.4zM20.4 10.8v7.2h-16.8v-7.2h16.8zM10.8 13.2c0-0.66-0.264-1.2-0.6-1.2s-0.6 0.54-0.6 1.2 0.264 1.2 0.6 1.2 0.6-0.54 0.6-1.2zM14.4 13.2c0-0.66-0.264-1.2-0.6-1.2s-0.6 0.54-0.6 1.2 0.264 1.2 0.6 1.2 0.6-0.54 0.6-1.2zM7.248 14.652c1.104 0.576 2.808 0.948 4.752 0.948s3.648-0.372 4.752-0.948c-0.252 1.2-2.268 2.148-4.752 2.148s-4.5-0.948-4.752-2.148z"></path>
</svg>
