<!-- Generated by IcoMoon.io -->
<svg version="1.1" xmlns="http://www.w3.org/2000/svg" width="24" height="24" viewBox="0 0 24 24">
<title>networking</title>
<path d="M21.6 15.6h1.2c0.66 0 1.2 0.54 1.2 1.212v3.576c0 0.672-0.54 1.212-1.2 1.212h-4.8c-0.66 0-1.2-0.54-1.2-1.212v-3.576c0-0.672 0.54-1.212 1.2-1.212h1.2v-2.4h-6v2.4h1.2c0.66 0 1.2 0.54 1.2 1.212v3.576c0 0.672-0.54 1.212-1.2 1.212h-4.8c-0.66 0-1.2-0.54-1.2-1.212v-3.576c0-0.672 0.54-1.212 1.2-1.212h1.2v-2.4h-6v2.4h1.2c0.66 0 1.2 0.54 1.2 1.212v3.576c0 0.672-0.54 1.212-1.2 1.212h-4.8c-0.66 0-1.2-0.54-1.2-1.212v-3.576c0-0.672 0.54-1.212 1.2-1.212h1.2v-2.4c0-1.32 1.080-2.4 2.4-2.4h6v-2.4h-1.2c-0.66 0-1.2-0.54-1.2-1.212v-3.576c0-0.672 0.54-1.212 1.2-1.212h4.8c0.66 0 1.2 0.54 1.2 1.212v3.576c0 0.672-0.54 1.212-1.2 1.212h-1.2v2.4h6c1.32 0 2.4 1.080 2.4 2.4v2.4z"></path>
</svg>
