<!-- Generated by IcoMoon.io -->
<svg version="1.1" xmlns="http://www.w3.org/2000/svg" width="24" height="24" viewBox="0 0 24 24">
<title>palmtree</title>
<path d="M10.296 2.868c0.384 0 0.708 0.060 0.972 0.168 1.5 0.66 2.028 2.688 2.040 4.764 0.708-0.984 2.58-2.748 4.092-2.748s3.528 0.876 4.236 4.26c-1.356-0.78-2.904-1.128-4.38-1.128-1.512 0-2.94 0.384-3.948 1.068 0.48-0.132 1.032-0.192 1.596-0.192 1.668 0 3.48 0.54 4.080 1.572 0.816 1.392 0.564 4.056-0.912 4.968-0.168-2.52-2.028-4.944-4.164-4.944-0.528 0-1.056 0.144-1.596 0.456-2.712 1.632-3.912 6.36-3.912 11.688h-6c0-6.636 5.052-11.58 9.216-12.948-0.672-0.108-1.404-0.18-2.184-0.18-2.112 0-4.572 0.528-7.032 2.328 0.912-3.552 3.336-4.92 5.628-4.92 1.5 0 2.94 0.6 3.84 1.548-0.792-2.688-2.988-3.432-4.896-3.432-0.96 0-1.86 0.192-2.46 0.42 1.092-1.548 3.972-2.748 5.784-2.748zM15.6 13.8c0-0.996-0.804-1.8-1.8-1.8s-1.8 0.804-1.8 1.8 0.804 1.8 1.8 1.8 1.8-0.804 1.8-1.8z"></path>
</svg>
