<!-- Generated by IcoMoon.io -->
<svg version="1.1" xmlns="http://www.w3.org/2000/svg" width="24" height="24" viewBox="0 0 24 24">
<title>paperclip</title>
<path d="M20.46 3.24c2.316 2.328 2.316 6.156 0 8.484l-8.46 8.484c-2.256 2.268-5.892 2.316-8.232 0.18-0.072-0.060-0.156-0.108-0.228-0.18-2.316-2.328-2.316-6.144 0-8.484l5.928-5.94c1.092-1.104 2.736-1.32 4.068-0.696 0.36 0.18 0.708 0.396 0.996 0.696 1.404 1.404 1.404 3.684 0 5.088l-5.916 5.94c-0.468 0.468-1.224 0.468-1.692 0s-0.468-1.224 0-1.692l5.916-5.94c0.468-0.468 0.468-1.224 0-1.692-0.456-0.468-1.224-0.468-1.68 0l-5.928 5.94c-1.092 1.104-1.32 2.748-0.684 4.080 0.168 0.36 0.384 0.708 0.684 1.008s0.648 0.516 1.008 0.684c1.332 0.636 2.964 0.42 4.068-0.684l8.46-8.484c1.392-1.404 1.392-3.696 0-5.1-0.672-0.66-1.536-0.996-2.4-1.032-0.096 0.012-0.192 0.012-0.288 0-0.264-0.036-0.516-0.132-0.72-0.324-0.468-0.48-0.456-1.26 0.024-1.74 0.192-0.192 0.432-0.288 0.672-0.336 0.168-0.024 0.324-0.012 0.48 0.024 1.428 0.072 2.832 0.624 3.924 1.716z"/>
</svg>
