<?xml version="1.0" encoding="utf-8"?>
<!-- Generator: Adobe Illustrator 24.1.0, SVG Export Plug-In . SVG Version: 6.00 Build 0)  -->
<svg version="1.1" id="Layer_1" xmlns="http://www.w3.org/2000/svg" xmlns:xlink="http://www.w3.org/1999/xlink" x="0px" y="0px"
	 viewBox="0 0 20 20" style="enable-background:new 0 0 20 20;" xml:space="preserve">
<path d="M11.9,8.4c1.3,0,2.1-1.9,2.1-3.1c0-1-0.5-2.2-1.5-2.2c-1.3,0-2.1,1.9-2.1,3.1C10.4,7.2,10.9,8.4,11.9,8.4z M8.1,8.4
	c1,0,1.5-1.2,1.5-2.2C9.6,4.9,8.8,3,7.5,3c-1,0-1.5,1.2-1.5,2.2C5.9,6.5,6.7,8.4,8.1,8.4z M15.5,7.4c-1.3,0-2.2,1.8-2.2,3.1
	c0,0.9,0.4,1.8,1.3,1.8c1.3,0,2.2-1.8,2.2-3.1v0C16.8,8.3,16.3,7.4,15.5,7.4z M6.8,10.5c0-1.3-1-3.1-2.2-3.1c-0.9,0-1.3,0.9-1.3,1.8
	c0,1.3,1,3.1,2.2,3.1C6.4,12.3,6.8,11.4,6.8,10.5z M10,10.3c-2,0-4.7,3.2-4.7,5.4c0,1,0.7,1.3,1.5,1.3c1.2,0,2.1-0.8,3.2-0.8
	c1,0,1.9,0.8,3,0.8c0.8,0,1.7-0.2,1.7-1.3C14.7,13.5,12,10.3,10,10.3z"/>
</svg>
