<?xml version="1.0" encoding="utf-8"?>
<!-- Generator: Adobe Illustrator 24.1.0, SVG Export Plug-In . SVG Version: 6.00 Build 0)  -->
<svg version="1.1" id="Layer_1" xmlns="http://www.w3.org/2000/svg" xmlns:xlink="http://www.w3.org/1999/xlink" x="0px" y="0px"
	 viewBox="0 0 20 20" style="enable-background:new 0 0 20 20;" xml:space="preserve">
<path d="M13.2,13.8L9.1,9.7C8.9,9.5,8.7,9.2,8.7,8.8c0-0.7,0.6-1.3,1.3-1.3c0.1,0,0.3,0,0.4,0.1c0.7,0.2,1.1,0.9,0.9,1.6
	c-0.1,0.5,0.1,1,0.6,1.1c0.5,0.1,1-0.1,1.1-0.6c0.1-0.3,0.1-0.6,0.1-0.9c0-1.7-1.4-3.1-3.1-3.1C9.2,5.7,8.4,6,7.8,6.6
	c-1.2,1.2-1.2,3.2,0,4.4l4.1,4.1c0.4,0.4,0.9,0.4,1.3,0C13.6,14.8,13.6,14.2,13.2,13.8L13.2,13.8z M14.9,4L14.9,4
	c-2.7-2.6-6.9-2.7-9.6,0l0,0c-2.7,2.7-2.7,7,0,9.6l4.1,4.1c0.4,0.4,0.9,0.4,1.3,0c0.4-0.4,0.4-0.9,0-1.3l-4.1-4.1
	c-1.9-1.9-1.9-5.1,0-7l0,0c1.9-1.9,5.1-1.9,7,0c1.6,1.7,1.8,4.4,0.5,6.3c-0.3,0.4-0.1,1,0.3,1.3c0.4,0.3,1,0.1,1.3-0.3
	C17.4,9.9,17.1,6.3,14.9,4z"/>
</svg>
