<!-- Generated by IcoMoon.io -->
<svg version="1.1" xmlns="http://www.w3.org/2000/svg" width="24" height="24" viewBox="0 0 24 24">
<title>pressthis</title>
<path d="M17.712 1.2c2.148 0 3.888 1.752 3.888 3.9 0 2.136-1.74 3.888-3.888 3.888-0.276 0-0.564-0.036-0.84-0.096l-1.272 1.272v12.636h-13.2v-18h11.448c0.156-2.4 1.824-3.6 3.864-3.6zM17.712 7.788c1.488 0 2.688-1.212 2.688-2.688 0-1.488-1.2-2.7-2.688-2.7s-2.688 1.212-2.688 2.7c0 0.444 0.12 0.864 0.324 1.236l-3.864 3.864c-0.336 0.336-2.124 2.664-1.8 2.988 0.024 0.036 0.072 0.048 0.12 0.048 0.588 0 2.568-1.536 2.868-1.836l3.888-3.888c0.348 0.168 0.732 0.276 1.152 0.276z"></path>
</svg>
