<?xml version="1.0" encoding="utf-8"?>
<!-- Generator: Adobe Illustrator 24.1.0, SVG Export Plug-In . SVG Version: 6.00 Build 0)  -->
<svg version="1.1" id="Layer_1" xmlns="http://www.w3.org/2000/svg" xmlns:xlink="http://www.w3.org/1999/xlink" x="0px" y="0px"
	 viewBox="0 0 20 20" style="enable-background:new 0 0 20 20;" xml:space="preserve">
<path d="M12,11H7v1h5V11z M13,15H7v1h6V15z M10,13H7v1h3V13z M17,6h-2V2H5v4H3C2.4,6,2,6.4,2,7v5c0,0.6,0.4,1,1,1h2v5h10v-5h2
	c0.6,0,1-0.4,1-1V7C18,6.4,17.6,6,17,6z M14,17H6v-7h8V17z M14,6H6V3h8V6z M16,9h-1V8h1V9z"/>
</svg>
