<!-- Generated by IcoMoon.io -->
<svg version="1.1" xmlns="http://www.w3.org/2000/svg" width="24" height="24" viewBox="0 0 24 24">
<title>products</title>
<path d="M20.4 9.6h1.2v13.2h-19.2v-13.2h1.2v-2.4c0-3.312 2.688-6 6-6 0.852 0 1.668 0.18 2.4 0.504 0.732-0.324 1.548-0.504 2.4-0.504 3.312 0 6 2.688 6 6v2.4zM6 7.2v2.4h2.4v-2.4c0-1.356 0.468-2.592 1.224-3.6h-0.024c-1.98 0-3.6 1.62-3.6 3.6zM18 9.6v-2.4c0-1.98-1.62-3.6-3.6-3.6h-0.024c0.756 1.008 1.224 2.244 1.224 3.6v2.4h2.4zM12 4.536c-0.732 0.66-1.2 1.608-1.2 2.664v2.4h2.4v-2.4c0-1.056-0.468-2.004-1.2-2.664z"/>
</svg>
