<?xml version="1.0" encoding="utf-8"?>
<!-- Generator: Adobe Illustrator 24.1.0, SVG Export Plug-In . SVG Version: 6.00 Build 0)  -->
<svg version="1.1" id="Layer_1" xmlns="http://www.w3.org/2000/svg" xmlns:xlink="http://www.w3.org/1999/xlink" x="0px" y="0px"
	 viewBox="0 0 20 20" style="enable-background:new 0 0 20 20;" xml:space="preserve">
<path d="M18,10.1c0-1-0.8-1.8-1.8-1.7c-0.4,0-0.9,0.2-1.2,0.5c-1.4-0.9-3-1.5-4.7-1.5l0.8-3.8l2.6,0.6c0,0.7,0.6,1.2,1.3,1.2
	c0.7,0,1.2-0.6,1.2-1.3c0-0.7-0.6-1.2-1.3-1.2c-0.5,0-0.9,0.3-1.1,0.7L11,2.9c-0.1,0-0.2,0-0.2,0c-0.1,0-0.1,0.1-0.1,0.2L9.7,7.4
	C8,7.4,6.4,7.9,5,8.9c-0.7-0.7-1.8-0.7-2.5,0c-0.7,0.7-0.7,1.8,0,2.5c0.1,0.1,0.3,0.3,0.5,0.3c0,0.2,0,0.4,0,0.5
	c0,2.7,3.1,4.9,7,4.9s7-2.2,7-4.9c0-0.2,0-0.4,0-0.5C17.6,11.4,18,10.8,18,10.1z M6,11.4c0-0.7,0.6-1.2,1.2-1.2
	c0.7,0,1.2,0.6,1.2,1.2s-0.6,1.2-1.2,1.2C6.5,12.6,6,12.1,6,11.4z M13,14.7c-0.9,0.6-1.9,1-3,0.9c-1.1,0-2.1-0.3-3-0.9
	c-0.1-0.1-0.1-0.3,0-0.5c0.1-0.1,0.3-0.1,0.4,0c0.7,0.5,1.6,0.8,2.5,0.7c0.9,0.1,1.8-0.2,2.5-0.7c0.1-0.1,0.3-0.1,0.5,0c0,0,0,0,0,0
	C13.1,14.3,13.1,14.5,13,14.7z M12.7,12.6c-0.7,0-1.2-0.6-1.2-1.2s0.6-1.2,1.2-1.2c0.7,0,1.2,0.6,1.2,1.2
	C14,12.1,13.4,12.6,12.7,12.6z"/>
</svg>
