<!-- Generated by IcoMoon.io -->
<svg version="1.1" xmlns="http://www.w3.org/2000/svg" width="24" height="24" viewBox="0 0 24 24">
<title>rest-api</title>
<path fill="#999" d="M10.8 18c0 2.651-2.149 4.8-4.8 4.8s-4.8-2.149-4.8-4.8c0-2.651 2.149-4.8 4.8-4.8s4.8 2.149 4.8 4.8z"></path>
<path fill="#999" d="M22.8 4.175c0 1.671-1.343 3.025-3 3.025s-3-1.354-3-3.025c0-1.671 1.343-3.025 3-3.025s3 1.354 3 3.025z"></path>
<path fill="#999" d="M22.766 19.183c0 1.979-1.604 3.583-3.583 3.583s-3.583-1.604-3.583-3.583c0-1.979 1.604-3.583 3.583-3.583s3.583 1.604 3.583 3.583z"></path>
<path fill="#999" d="M8.4 4.8c0 1.988-1.612 3.6-3.6 3.6s-3.6-1.612-3.6-3.6c0-1.988 1.612-3.6 3.6-3.6s3.6 1.612 3.6 3.6z"></path>
<path fill="#999" d="M4.8 18h14.4v2.4h-14.4v-2.4z"></path>
<path fill="#999" d="M5.297 20.897l-1.697-1.697 15.952-16.448 1.697 1.697z"></path>
<path fill="#999" d="M3.6 4.8h2.4v14.4h-2.4v-14.4z"></path>
</svg>
