<!-- Generated by IcoMoon.io -->
<svg version="1.1" xmlns="http://www.w3.org/2000/svg" width="24" height="24" viewBox="0 0 24 24">
<title>rss</title>
<path d="M17.904 21.6h3.696c0-10.416-8.616-18.9-19.2-18.9v3.624c8.544 0 15.504 6.852 15.504 15.276zM11.376 21.6h3.696c0-6.876-5.688-12.48-12.672-12.48v3.624c2.4 0 4.644 0.924 6.348 2.592 1.692 1.668 2.628 3.9 2.628 6.264zM4.956 21.576c1.404 0 2.556-1.116 2.556-2.508 0-1.38-1.152-2.508-2.556-2.508-1.416 0-2.556 1.128-2.556 2.508 0 1.392 1.14 2.508 2.556 2.508z"></path>
</svg>
