<!-- Generated by IcoMoon.io -->
<svg version="1.1" xmlns="http://www.w3.org/2000/svg" width="24" height="24" viewBox="0 0 24 24">
<title>share-alt</title>
<path d="M19.464 6.96c0.564 0.828 0.348 1.944-0.48 2.496-0.828 0.564-1.944 0.348-2.496-0.48-0.192-0.288-0.42-0.552-0.66-0.804-0.252-0.24-0.516-0.468-0.804-0.66s-0.6-0.36-0.924-0.492c-0.324-0.144-0.66-0.252-1.008-0.312-0.708-0.156-1.476-0.156-2.184-0.012-0.348 0.072-0.684 0.18-1.008 0.324-0.324 0.132-0.636 0.3-0.924 0.492s-0.552 0.42-0.792 0.66c-0.252 0.252-0.48 0.516-0.672 0.804s-0.36 0.6-0.492 0.912c-0.012 0.024-0.012 0.036-0.012 0.048-0.12 0.288-0.204 0.576-0.276 0.864h-5.532v-3.6h3.192c0.048-0.084 0.084-0.156 0.144-0.24 0.324-0.48 0.684-0.924 1.092-1.332s0.864-0.78 1.332-1.092c0.48-0.324 0.996-0.612 1.536-0.84s1.116-0.408 1.692-0.516c1.188-0.252 2.436-0.252 3.624 0 0.576 0.108 1.152 0.288 1.692 0.516s1.056 0.516 1.536 0.84c0.468 0.312 0.924 0.684 1.332 1.092s0.768 0.852 1.092 1.332zM15 12c0-1.656-1.344-3-3-3s-3 1.344-3 3 1.344 3 3 3 3-1.344 3-3zM4.536 17.040c-0.564-0.828-0.348-1.944 0.48-2.508 0.828-0.552 1.944-0.336 2.496 0.492 0.192 0.288 0.42 0.552 0.66 0.804 0.252 0.24 0.516 0.468 0.804 0.66s0.6 0.36 0.924 0.492c0.324 0.144 0.66 0.24 1.008 0.312 0.708 0.156 1.476 0.144 2.184 0 0.348-0.072 0.684-0.168 1.008-0.312 0.324-0.132 0.636-0.3 0.924-0.492s0.552-0.42 0.792-0.66c0.252-0.252 0.48-0.528 0.672-0.804 0.192-0.3 0.36-0.6 0.492-0.912 0.012-0.024 0.012-0.036 0.012-0.048 0.12-0.288 0.204-0.576 0.276-0.864h5.532v3.6h-3.192c-0.048 0.072-0.084 0.156-0.144 0.24-0.324 0.48-0.684 0.924-1.092 1.332s-0.864 0.78-1.332 1.092c-0.48 0.324-0.996 0.612-1.536 0.84s-1.116 0.396-1.692 0.516c-1.188 0.252-2.436 0.252-3.624 0-0.576-0.12-1.152-0.288-1.692-0.516s-1.056-0.516-1.536-0.84c-0.468-0.312-0.924-0.684-1.332-1.092s-0.768-0.852-1.092-1.332z"/>
</svg>
