<!-- Generated by IcoMoon.io -->
<svg version="1.1" xmlns="http://www.w3.org/2000/svg" width="24" height="24" viewBox="0 0 24 24">
<title>sos</title>
<path d="M21.6 12c0-5.304-4.296-9.6-9.6-9.6s-9.6 4.296-9.6 9.6 4.296 9.6 9.6 9.6 9.6-4.296 9.6-9.6zM8.676 4.284l1.788 4.476c-0.744 0.348-1.356 0.96-1.704 1.704l-4.476-1.788c0.852-1.968 2.424-3.54 4.392-4.392zM19.716 8.676l-4.476 1.788c-0.348-0.744-0.96-1.356-1.704-1.704l1.788-4.476c1.968 0.852 3.54 2.424 4.392 4.392zM12 14.4c-1.32 0-2.4-1.080-2.4-2.4s1.080-2.4 2.4-2.4 2.4 1.080 2.4 2.4-1.080 2.4-2.4 2.4zM4.284 15.324l4.476-1.788c0.348 0.744 0.96 1.356 1.704 1.704l-1.788 4.476c-1.968-0.852-3.54-2.424-4.392-4.392zM15.324 19.716l-1.788-4.476c0.744-0.348 1.356-0.96 1.704-1.704l4.476 1.788c-0.852 1.968-2.424 3.54-4.392 4.392z"/>
</svg>
