<?xml version="1.0" encoding="utf-8"?>
<!-- Generator: Adobe Illustrator 24.1.0, SVG Export Plug-In . SVG Version: 6.00 Build 0)  -->
<svg version="1.1" id="Layer_1" xmlns="http://www.w3.org/2000/svg" xmlns:xlink="http://www.w3.org/1999/xlink" x="0px" y="0px"
	 viewBox="0 0 20 20" style="enable-background:new 0 0 20 20;" xml:space="preserve">
<path d="M10,2c-4.4,0-8,3.6-8,8s3.6,8,8,8s8-3.6,8-8S14.4,2,10,2z M13.7,13.5L13.7,13.5c-0.1,0.2-0.5,0.3-0.7,0.2
	c-2.1-1.2-4.7-1.5-7-0.8c-0.3,0-0.5-0.1-0.6-0.4c0-0.2,0.1-0.5,0.4-0.6c2.6-0.8,5.4-0.4,7.8,0.9C13.7,13,13.8,13.3,13.7,13.5z
	 M14.7,11.4C14.6,11.4,14.6,11.4,14.7,11.4L14.7,11.4c-0.2,0.3-0.6,0.4-0.9,0.2c-2.4-1.4-5.3-1.7-8-0.9c-0.3,0.1-0.7-0.1-0.8-0.4
	C4.9,9.9,5.1,9.6,5.4,9.4c0,0,0,0,0,0c3-0.9,6.3-0.5,9,1.1C14.7,10.7,14.8,11.1,14.7,11.4z M14.7,9.1L14.7,9.1
	c-2.6-1.5-6.8-1.7-9.3-0.9C5,8.3,4.6,8.1,4.5,7.7C4.4,7.3,4.6,6.9,5,6.7C7.8,5.9,12.5,6,15.5,7.8c0.4,0.2,0.5,0.7,0.3,1
	C15.5,9.2,15.1,9.3,14.7,9.1z"/>
</svg>
