<!-- Generated by IcoMoon.io -->
<svg version="1.1" xmlns="http://www.w3.org/2000/svg" width="24" height="24" viewBox="0 0 24 24">
<title>store</title>
<path d="M1.2 12c0.492 0.348 1.152 0.516 1.8 0.516 0.66 0 1.308-0.168 1.8-0.516 0.744-0.552 1.2-1.404 1.2-2.4 0 0.996 0.444 1.848 1.2 2.4 0.492 0.348 1.152 0.516 1.8 0.516 0.66 0 1.308-0.168 1.8-0.516 0.744-0.552 1.2-1.404 1.2-2.4 0 0.996 0.444 1.848 1.2 2.4 0.492 0.348 1.152 0.516 1.812 0.516 0.648 0 1.296-0.168 1.788-0.516 0.744-0.552 1.2-1.404 1.2-2.4 0 0.996 0.444 1.848 1.2 2.4 0.492 0.348 1.152 0.516 1.8 0.516 0.66 0 1.308-0.168 1.8-0.516 0.756-0.552 1.2-1.404 1.2-2.4v-1.2l-3.6-8.4h-15.6l-4.8 8.4v1.2c0 0.996 0.444 1.848 1.2 2.4zM3.6 22.788h6v-6h4.8v6h6v-8.4c-0.444-0.060-0.864-0.264-1.2-0.516-0.756-0.54-1.2-0.876-1.2-1.872 0 0.996-0.456 1.332-1.2 1.872-0.492 0.36-1.14 0.516-1.788 0.528-0.66 0-1.32-0.168-1.812-0.528-0.756-0.54-1.2-0.876-1.2-1.872 0 0.996-0.456 1.332-1.2 1.872-0.492 0.36-1.14 0.516-1.8 0.528-0.648 0-1.308-0.168-1.8-0.528-0.756-0.54-1.2-0.876-1.2-1.884 0 1.008-0.456 1.344-1.2 1.884-0.348 0.252-0.756 0.456-1.2 0.528v8.388z"/>
</svg>
