<?xml version="1.0" encoding="utf-8"?>
<!-- Generator: Adobe Illustrator 24.1.0, SVG Export Plug-In . SVG Version: 6.00 Build 0)  -->
<svg version="1.1" id="Layer_1" xmlns="http://www.w3.org/2000/svg" xmlns:xlink="http://www.w3.org/1999/xlink" x="0px" y="0px"
	 viewBox="0 0 20 20" style="enable-background:new 0 0 20 20;" xml:space="preserve">
<path d="M11.1,10L18,2L7,10h2l-7,8l11-8L11.1,10z M6.8,11H3.9l2.5-1.8l7.5-5.5L10,2L3,5v3c0,2,0.5,3.9,1.5,5.6L6.8,11z M13.2,9L16,9
	l-2.4,1.8L6.5,16c1,0.9,2.2,1.6,3.5,2c4.2-1.5,7.1-5.5,7-10V5l-0.2-0.1L13.2,9z"/>
</svg>
