<!-- Generated by IcoMoon.io -->
<svg version="1.1" xmlns="http://www.w3.org/2000/svg" width="24" height="24" viewBox="0 0 24 24">
<title>testimonial</title>
<path d="M4.8 3.6h14.4c0.66 0 1.224 0.24 1.692 0.708s0.708 1.032 0.708 1.692v8.4c0 0.66-0.24 1.224-0.708 1.692s-1.032 0.708-1.692 0.708h-1.2l-6 6v-6h-7.2c-0.66 0-1.224-0.24-1.692-0.708s-0.708-1.032-0.708-1.692v-8.4c0-0.66 0.24-1.224 0.708-1.692s1.032-0.708 1.692-0.708zM18 6h-13.2v1.2h13.2v-1.2zM19.2 9.6h-14.4v1.2h14.4v-1.2zM15.6 13.2h-10.8v1.2h10.8v-1.2z"></path>
</svg>
