<!-- Generated by IcoMoon.io -->
<svg version="1.1" xmlns="http://www.w3.org/2000/svg" width="24" height="24" viewBox="0 0 24 24">
<title>translation</title>
<path d="M13.2 8.4h-1.812c-0.756 0-1.5 0.36-1.908 0.84l-1.080-3.24h-3.444l-2.868 8.4h2.028l0.888-2.4h3.396v4.8h-6c-1.32 0-2.4-1.080-2.4-2.4v-8.4c0-1.32 1.080-2.4 2.4-2.4h8.4c1.32 0 2.4 1.080 2.4 2.4v2.4zM7.812 10.8h-2.424l1.2-3.516zM12 9.6h8.4c1.32 0 2.4 1.080 2.4 2.4v8.4c0 1.32-1.080 2.4-2.4 2.4h-8.4c-1.32 0-2.4-1.080-2.4-2.4v-8.4c0-1.32 1.080-2.4 2.4-2.4zM20.7 15.6v-1.296h-3.804v-2.604h-1.392v2.604h-3.804v1.296h1.536c0.132 1.020 0.672 2.22 1.536 3.144-1.044 0.432-2.268 0.744-2.772 0.744-0.012 0.024 0.264 1.164 0.24 1.752 1.008 0 2.652-0.6 3.936-1.38 1.308 0.78 2.976 1.38 4.008 1.38-0.024-0.588 0.24-1.728 0.24-1.752-0.516 0-1.788-0.324-2.856-0.756 0.84-0.924 1.368-2.124 1.5-3.132h1.632zM16.128 17.916c-0.6-0.552-1.020-1.356-1.212-2.316h2.508c-0.204 0.96-0.612 1.764-1.2 2.316l-0.048 0.036s-0.036-0.024-0.048-0.036z"></path>
</svg>
