<!-- Generated by IcoMoon.io -->
<svg version="1.1" xmlns="http://www.w3.org/2000/svg" width="24" height="24" viewBox="0 0 24 24">
<title>twitter</title>
<path d="M22.728 5.352c-0.588 0.876-1.332 1.656-2.196 2.28 0.012 0.18 0.012 0.372 0.012 0.564 0 5.82-4.428 12.528-12.516 12.528-2.484 0-4.8-0.732-6.756-1.98 0.348 0.036 0.696 0.060 1.056 0.060 2.064 0 3.96-0.708 5.46-1.884-1.92-0.036-3.54-1.308-4.104-3.060 0.264 0.048 0.54 0.084 0.828 0.084 0.396 0 0.792-0.060 1.152-0.156-2.004-0.408-3.528-2.184-3.528-4.32v-0.048c0.6 0.324 1.272 0.528 1.992 0.552-1.176-0.792-1.956-2.136-1.956-3.672 0-0.804 0.216-1.56 0.6-2.208 2.172 2.664 5.412 4.416 9.072 4.596-0.072-0.324-0.12-0.66-0.12-1.008 0-2.424 1.98-4.392 4.404-4.392 1.272 0 2.412 0.528 3.216 1.392 0.996-0.204 1.944-0.564 2.796-1.068-0.336 1.020-1.032 1.884-1.944 2.424 0.9-0.096 1.74-0.336 2.532-0.684z"></path>
</svg>
