<!-- Generated by IcoMoon.io -->
<svg version="1.1" xmlns="http://www.w3.org/2000/svg" width="24" height="24" viewBox="0 0 24 24">
<title>universal-access-alt</title>
<path d="M22.8 12c0-5.964-4.836-10.8-10.8-10.8s-10.8 4.836-10.8 10.8 4.836 10.8 10.8 10.8 10.8-4.836 10.8-10.8zM12 3.12c0.996 0 1.8 0.804 1.8 1.8s-0.804 1.812-1.8 1.812c-0.984 0-1.8-0.816-1.8-1.812s0.816-1.8 1.8-1.8zM4.080 8.832c0-0.78 7.92-0.912 7.92-0.912s7.92 0.132 7.92 0.912-5.364 1.68-5.364 1.68 2.028 9.768 1.272 10.056c-0.744 0.288-3.828-6.228-3.828-6.228s-3.072 6.516-3.816 6.228c-0.756-0.288 1.272-10.056 1.272-10.056s-5.376-0.9-5.376-1.68z"/>
</svg>
