<!-- Generated by IcoMoon.io -->
<svg version="1.1" xmlns="http://www.w3.org/2000/svg" width="24" height="24" viewBox="0 0 24 24">
<title>vault</title>
<path d="M21.6 20.4v-16.8c0-0.66-0.54-1.2-1.2-1.2h-16.8c-0.66 0-1.2 0.54-1.2 1.2v16.8c0 0.66 0.54 1.2 1.2 1.2h16.8c0.66 0 1.2-0.54 1.2-1.2zM20.4 20.4h-16.8v-16.8h16.8v16.8zM5.7 4.8h12.6c0.492 0 0.9 0.408 0.9 0.9v1.5h-1.2v3.6h1.2v2.4h-1.2v3.6h1.2v1.5c0 0.492-0.408 0.9-0.9 0.9h-12.6c-0.492 0-0.9-0.408-0.9-0.9v-12.6c0-0.492 0.408-0.9 0.9-0.9zM15.6 12c0-2.652-2.148-4.8-4.8-4.8s-4.8 2.148-4.8 4.8 2.148 4.8 4.8 4.8 4.8-2.148 4.8-4.8zM10.8 8.4l0.924 1.38c0.864 0.372 1.476 1.224 1.476 2.22 0 1.32-1.080 2.4-2.4 2.4s-2.4-1.080-2.4-2.4c0-0.996 0.612-1.848 1.476-2.22z"/>
</svg>
