<!-- Generated by IcoMoon.io -->
<svg version="1.1" xmlns="http://www.w3.org/2000/svg" width="24" height="24" viewBox="0 0 24 24">
<title>visibility</title>
<path d="M23.64 11.28c-2.4-4.080-6.84-6.6-11.64-6.6s-9.24 2.52-11.64 6.6l-0.36 0.72 0.36 0.72c2.4 4.080 6.84 6.6 11.64 6.6s9.24-2.52 11.64-6.6l0.36-0.72-0.36-0.72zM12 16.92c-3.72 0-7.2-1.92-9.24-4.92 1.56-2.4 4.080-4.080 6.84-4.68-1.080 0.72-1.8 2.040-1.8 3.48 0 2.28 1.92 4.2 4.2 4.2s4.2-1.92 4.2-4.2c0-1.44-0.72-2.76-1.8-3.48 2.76 0.6 5.28 2.28 6.84 4.68-2.040 3-5.52 4.92-9.24 4.92z"/>
</svg>
