<?xml version="1.0" encoding="utf-8"?>
<!-- Generator: Adobe Illustrator 21.0.2, SVG Export Plug-In . SVG Version: 6.00 Build 0)  -->
<svg version="1.1" id="Layer_1" xmlns="http://www.w3.org/2000/svg" xmlns:xlink="http://www.w3.org/1999/xlink" x="0px" y="0px"
	 viewBox="0 0 20 20" style="enable-background:new 0 0 20 20;" xml:space="preserve">
<g>
	<path class="st0" d="M19.7,9.4C17.7,6,14,3.9,10,3.9S2.3,6,0.3,9.4L0,10l0.3,0.6c2,3.4,5.7,5.5,9.7,5.5s7.7-2.1,9.7-5.5L20,10
		L19.7,9.4z M10,14.1c-3.1,0-6-1.6-7.7-4.1C3.6,8,5.7,6.6,8,6.1C7.1,6.7,6.5,7.8,6.5,9c0,1.9,1.6,3.5,3.5,3.5s3.5-1.6,3.5-3.5
		c0-1.2-0.6-2.3-1.5-2.9c2.3,0.5,4.4,1.9,5.7,3.9C16,12.5,13.1,14.1,10,14.1z"/>
</g>
</svg>
