<!-- Generated by IcoMoon.io -->
<svg version="1.1" xmlns="http://www.w3.org/2000/svg" width="24" height="24" viewBox="0 0 24 24">
<title>warning</title>
<path d="M12 2.4c5.304 0 9.6 4.296 9.6 9.6s-4.296 9.6-9.6 9.6-9.6-4.296-9.6-9.6 4.296-9.6 9.6-9.6zM13.356 13.656l0.42-7.752h-3.552l0.42 7.752h2.712zM13.248 17.688c0.288-0.276 0.444-0.66 0.444-1.152 0-0.504-0.144-0.888-0.432-1.164s-0.708-0.42-1.272-0.42-0.984 0.144-1.284 0.42-0.444 0.66-0.444 1.164c0 0.492 0.156 0.876 0.456 1.152 0.312 0.276 0.732 0.408 1.272 0.408s0.96-0.132 1.26-0.408z"></path>
</svg>
