<!-- Generated by IcoMoon.io -->
<svg version="1.1" xmlns="http://www.w3.org/2000/svg" width="24" height="24" viewBox="0 0 24 24">
<title>welcome-view-site</title>
<path d="M21.6 16.8v-12c0-0.66-0.54-1.2-1.2-1.2h-16.8c-0.66 0-1.2 0.54-1.2 1.2v12c0 0.66 0.54 1.2 1.2 1.2h16.8c0.66 0 1.2-0.54 1.2-1.2zM12 7.2c2.76 0 5.28 1.368 7.2 3.6-1.92 2.232-4.44 3.6-7.2 3.6s-5.28-1.368-7.2-3.6c1.92-2.232 4.44-3.6 7.2-3.6zM14.4 10.8c0-1.32-1.080-2.4-2.4-2.4s-2.4 1.080-2.4 2.4 1.080 2.4 2.4 2.4 2.4-1.080 2.4-2.4zM16.8 20.4h3.6v1.2h-16.8v-1.2h3.6v-1.2h9.6v1.2z"></path>
</svg>
