<!-- Generated by IcoMoon.io -->
<svg version="1.1" xmlns="http://www.w3.org/2000/svg" width="24" height="24" viewBox="0 0 24 24">
<title>welcome-widgets-menus</title>
<path d="M22.8 19.2v-15.6c0-0.66-0.54-1.2-1.2-1.2h-18c-0.66 0-1.2 0.54-1.2 1.2v15.6c0 0.66 0.54 1.2 1.2 1.2h18c0.66 0 1.2-0.54 1.2-1.2zM4.8 4.8h15.6v4.8h-15.6v-4.8zM6 6v2.4h3.6v-2.4h-3.6zM10.8 6v2.4h3.6v-2.4h-3.6zM15.6 6v2.4h3.6v-2.4h-3.6zM5.4 12c0.336 0 0.6 0.264 0.6 0.6s-0.264 0.6-0.6 0.6-0.6-0.264-0.6-0.6 0.264-0.6 0.6-0.6zM7.2 12h4.8v1.2h-4.8v-1.2zM14.4 12h6v6h-6v-6zM5.4 14.4c0.336 0 0.6 0.264 0.6 0.6s-0.264 0.6-0.6 0.6-0.6-0.264-0.6-0.6 0.264-0.6 0.6-0.6zM7.2 14.4h4.8v1.2h-4.8v-1.2zM15.6 14.4v2.4h3.6v-2.4h-3.6zM5.4 16.8c0.336 0 0.6 0.264 0.6 0.6s-0.264 0.6-0.6 0.6-0.6-0.264-0.6-0.6 0.264-0.6 0.6-0.6zM7.2 16.8h4.8v1.2h-4.8v-1.2z"></path>
</svg>
