<?xml version="1.0" encoding="utf-8"?>
<!-- Generator: Adobe Illustrator 24.1.0, SVG Export Plug-In . SVG Version: 6.00 Build 0)  -->
<svg version="1.1" id="Layer_1" xmlns="http://www.w3.org/2000/svg" xmlns:xlink="http://www.w3.org/1999/xlink" x="0px" y="0px"
	 viewBox="0 0 20 20" style="enable-background:new 0 0 20 20;" xml:space="preserve">
<path d="M16.8,5.7C14.4,2,9.5,0.9,5.7,3.2c-3.7,2.3-4.9,7.3-2.5,11l0.2,0.3l-0.8,3l3-0.8l0.3,0.2C7.2,17.6,8.6,18,10,18
	c1.5,0,3-0.4,4.3-1.2C18,14.4,19.1,9.5,16.8,5.7z M14.7,13.4c-0.4,0.6-0.9,1-1.6,1.1c-0.4,0-0.9,0.2-2.9-0.6
	c-1.7-0.8-3.1-2.1-4.1-3.6c-0.6-0.7-0.9-1.6-1-2.5c0-0.8,0.3-1.5,0.8-2c0.2-0.2,0.4-0.3,0.6-0.3c0.2,0,0.3,0,0.5,0
	c0.2,0,0.4,0,0.5,0.4l0,0c0.2,0.5,0.7,1.7,0.7,1.8c0.1,0.1,0.1,0.3,0,0.4C8.3,8.3,8.2,8.5,8.1,8.6C8,8.7,7.9,8.9,7.8,9
	C7.6,9.1,7.5,9.3,7.6,9.5C8,10.1,8.5,10.7,9,11.2c0.6,0.5,1.2,0.9,1.9,1.2c0.2,0.1,0.4,0.1,0.5-0.1s0.6-0.7,0.8-0.9
	c0.2-0.2,0.3-0.2,0.5-0.1c0.2,0.1,1.4,0.7,1.6,0.8c0.2,0.1,0.4,0.2,0.5,0.3C14.9,12.7,14.9,13.1,14.7,13.4z"/>
</svg>
