<!-- Generated by IcoMoon.io -->
<svg version="1.1" xmlns="http://www.w3.org/2000/svg" width="24" height="24" viewBox="0 0 24 24">
<title>wordpress-alt</title>
<path d="M24 12c0-6.612-5.388-12-12-12-6.624 0-12 5.388-12 12 0 6.624 5.376 12 12 12 6.612 0 12-5.376 12-12zM9.336 18.444l-4.092-10.98c0.66-0.024 1.404-0.096 1.404-0.096 0.6-0.072 0.528-1.356-0.072-1.332 0 0-1.74 0.132-2.844 0.132-0.216 0-0.444 0-0.696-0.012 1.908-2.928 5.208-4.824 8.964-4.824 2.796 0 5.34 1.044 7.26 2.808-0.816-0.132-1.98 0.468-1.98 1.896 0 0.888 0.54 1.632 1.080 2.52 0.42 0.732 0.66 1.632 0.66 2.952 0 1.788-1.68 6-1.68 6l-3.636-10.044c0.648-0.024 0.984-0.204 0.984-0.204 0.6-0.060 0.528-1.5-0.072-1.464 0 0-1.728 0.144-2.856 0.144-1.044 0-2.796-0.144-2.796-0.144-0.6-0.036-0.672 1.44-0.072 1.464l1.104 0.096 1.512 4.092zM20.892 12c0.288-0.768 0.888-2.244 0.516-5.1 0.84 1.548 1.26 3.252 1.26 5.1 0 3.948-2.076 7.488-5.28 9.336 1.164-3.108 2.328-6.24 3.504-9.336zM7.32 21.708c-3.576-1.728-5.988-5.472-5.988-9.708 0-1.56 0.276-2.976 0.864-4.308 1.704 4.668 3.408 9.348 5.124 14.016zM12.156 13.752l3.096 8.376c-1.032 0.348-2.112 0.54-3.252 0.54-0.948 0-1.884-0.132-2.748-0.396 0.972-2.856 1.944-5.688 2.904-8.52z"></path>
</svg>
