<?xml version="1.0" encoding="utf-8"?>
<!-- Generator: Adobe Illustrator 24.1.0, SVG Export Plug-In . SVG Version: 6.00 Build 0)  -->
<svg version="1.1" id="Layer_1" xmlns="http://www.w3.org/2000/svg" xmlns:xlink="http://www.w3.org/1999/xlink" x="0px" y="0px"
	 viewBox="0 0 20 20" style="enable-background:new 0 0 20 20;" xml:space="preserve">
<path d="M7.4,5.6C7.3,5.3,7,5.2,6.7,5.2H4.4c-0.2,0-0.3,0.1-0.4,0.3c0,0.1,0,0.2,0.1,0.2l1.6,2.7v0l-2.5,4.3c-0.1,0.1-0.1,0.2,0,0.4
	c0.1,0.1,0.2,0.2,0.3,0.2h2.3c0.3,0,0.5-0.2,0.6-0.4c0,0,2.4-4.2,2.5-4.4L7.4,5.6z M16.8,2.5c0.1-0.1,0.1-0.2,0-0.4
	C16.7,2,16.6,2,16.5,2h-2.3c-0.3,0-0.5,0.2-0.6,0.4c0,0-5,8.8-5.1,9.1l3.3,6c0.1,0.3,0.4,0.4,0.6,0.4h2.3c0.1,0,0.2,0,0.3-0.1
	c0.1-0.1,0.1-0.2,0-0.3l-3.2-5.9v0L16.8,2.5z"/>
</svg>
