<?xml version="1.0" encoding="utf-8"?>
<!-- Generated by IcoMoon.io -->
<!DOCTYPE svg PUBLIC "-//W3C//DTD SVG 1.1//EN" "http://www.w3.org/Graphics/SVG/1.1/DTD/svg11.dtd">
<svg version="1.1" xmlns="http://www.w3.org/2000/svg" xmlns:xlink="http://www.w3.org/1999/xlink" width="20" height="20" viewBox="0 0 20 20">
<g>
</g>
	<path d="M10 9.25q-0.46 0-0.865-0.19t-0.675-0.495-0.49-0.67-0.345-0.73-0.21-0.67-0.115-0.495l-0.030-0.19q-0.060-0.55-0.030-1.085t0.245-1.030 0.53-0.87 0.825-0.6 1.13-0.225q1.030 0 1.71 0.59t0.91 1.44 0.090 1.78q-0.010 0.070-0.030 0.195t-0.105 0.48-0.205 0.68-0.335 0.725-0.48 0.685-0.665 0.48-0.86 0.195zM10 11.67l2.72-1.82q1.16 0 2.215 0.67t1.68 1.72 0.625 2.14v2.49q-0.15 0.050-0.415 0.125t-1.090 0.27-1.645 0.345-1.95 0.27-2.14 0.12q-1.020 0-2.145-0.115t-1.995-0.28-1.595-0.335-1.115-0.29l-0.39-0.11v-2.49q0-1.12 0.58-2.15t1.625-1.68 2.265-0.65z" fill="#000000"></path>
</svg>
