<?xml version="1.0" encoding="utf-8"?>
<!-- Generated by IcoMoon.io -->
<!DOCTYPE svg PUBLIC "-//W3C//DTD SVG 1.1//EN" "http://www.w3.org/Graphics/SVG/1.1/DTD/svg11.dtd">
<svg version="1.1" xmlns="http://www.w3.org/2000/svg" xmlns:xlink="http://www.w3.org/1999/xlink" width="20" height="20" viewBox="0 0 20 20">
<g>
</g>
	<path d="M19 10q0-1.83-0.715-3.495t-1.92-2.87-2.87-1.92-3.495-0.715-3.495 0.715-2.87 1.92-1.92 2.87-0.715 3.495 0.715 3.495 1.92 2.87 2.87 1.92 3.495 0.715 3.495-0.715 2.87-1.92 1.92-2.87 0.715-3.495zM8 10.1q-3.78-0.39-5.48-2.29 0.74-2.4 2.715-3.96t4.535-1.67q-0.33 0.55-0.56 1.26t-0.32 1.49 0.12 1.545 0.73 1.275q-0.35 0.050-0.69-0.060t-0.585-0.3-0.51-0.4-0.455-0.36-0.43-0.175-0.44 0.145q-0.88 0.69-0.42 1.5 0.5 0.88 2.28 1.44 0.62 0.2 1.34 0.33 0.97 0.17 1.645 0.405t1.065 0.495 0.6 0.625 0.27 0.71 0.050 0.845q-0.060 2.98-4.060 4.7 0.020-0.86-0.115-1.53t-0.38-1.090-0.55-0.735-0.635-0.52-0.625-0.37-0.54-0.365-0.355-0.43q0.1-0.42 0.185-0.675t0.275-0.615 0.52-0.66 0.82-0.56zM16.49 5.78q0.31 0.48 0.545 0.975t0.385 0.925 0.23 0.89 0.115 0.81 0.015 0.755-0.045 0.66-0.1 0.585-0.115 0.465-0.12 0.375l-0.070 0.24q-0.21-0.51-0.52-0.955t-0.605-0.745-0.575-0.58-0.505-0.6-0.325-0.66q-0.39-1.37 1.69-3.14z" fill="#000000"></path>
</svg>
