<?xml version="1.0" encoding="utf-8"?>
<!-- Generated by IcoMoon.io -->
<!DOCTYPE svg PUBLIC "-//W3C//DTD SVG 1.1//EN" "http://www.w3.org/Graphics/SVG/1.1/DTD/svg11.dtd">
<svg version="1.1" xmlns="http://www.w3.org/2000/svg" xmlns:xlink="http://www.w3.org/1999/xlink" width="20" height="20" viewBox="0 0 20 20">
<g>
</g>
	<path d="M14.48 11.060l-7.070-7.070 1.5-1.5q0.25-0.28 0.85-0.345t1.34 0.11 1.32 0.555q0.45 0.3 1.265 0.97t1.645 1.13q0.43 0.24 0.73 0.38t0.765 0.305 0.875 0.23 0.955 0.060 1.125-0.125zM13.77 11.77l-7.070-7.070-1.77 1.77q-0.29 0.29-0.29 0.705t0.29 0.705l1.060 1.060q0.29 0.29 0.29 0.71t-0.29 0.71q-0.27 0.27-0.615 0.54t-0.86 0.63-0.735 0.52q-0.66 0.49-1.010 0.84-0.52 0.52-0.92 1.085t-0.64 1.13-0.205 1.085 0.395 0.88 0.88 0.395 1.085-0.205 1.13-0.635 1.085-0.915q0.34-0.34 0.85-1.020 0.13-0.17 0.51-0.72t0.64-0.885 0.54-0.605q0.29-0.29 0.705-0.29t0.705 0.29l1.060 1.060q0.29 0.29 0.705 0.29t0.705-0.29z" fill="#000000"></path>
</svg>
