<?xml version="1.0" encoding="utf-8"?>
<!-- Generated by IcoMoon.io -->
<!DOCTYPE svg PUBLIC "-//W3C//DTD SVG 1.1//EN" "http://www.w3.org/Graphics/SVG/1.1/DTD/svg11.dtd">
<svg version="1.1" xmlns="http://www.w3.org/2000/svg" xmlns:xlink="http://www.w3.org/1999/xlink" width="20" height="20" viewBox="0 0 20 20">
<g>
</g>
	<path d="M8.75 5.77q0-0.39-0.18-0.92t-0.435-1.010-0.515-0.905-0.44-0.675l-0.18-0.26q-0.070 0.1-0.19 0.27t-0.42 0.655-0.53 0.93-0.42 0.985-0.19 0.93q0 0.98 0.43 1.355t1.32 0.375 1.32-0.375 0.43-1.355zM14.75 5.77q0-0.39-0.18-0.92t-0.435-1.010-0.515-0.905-0.44-0.675l-0.18-0.26q-0.070 0.1-0.19 0.27t-0.42 0.655-0.53 0.93-0.42 0.985-0.19 0.93q0 0.98 0.43 1.355t1.32 0.375 1.32-0.375 0.43-1.355zM9 17v-8q0-0.41-0.295-0.705t-0.705-0.295h-2q-0.41 0-0.705 0.295t-0.295 0.705v8q0 0.41 0.295 0.705t0.705 0.295h2q0.41 0 0.705-0.295t0.295-0.705zM15 17v-8q0-0.41-0.295-0.705t-0.705-0.295h-2q-0.41 0-0.705 0.295t-0.295 0.705v8q0 0.41 0.295 0.705t0.705 0.295h2q0.41 0 0.705-0.295t0.295-0.705zM6 11l2-1v2l-2 1v-2zM12 11l2-1v2l-2 1v-2zM6 14l2-1v2l-2 1v-2zM12 14l2-1v2l-2 1v-2z" fill="#000000"></path>
</svg>
