<?xml version="1.0" encoding="utf-8"?>
<!-- Generated by IcoMoon.io -->
<!DOCTYPE svg PUBLIC "-//W3C//DTD SVG 1.1//EN" "http://www.w3.org/Graphics/SVG/1.1/DTD/svg11.dtd">
<svg version="1.1" xmlns="http://www.w3.org/2000/svg" xmlns:xlink="http://www.w3.org/1999/xlink" width="20" height="20" viewBox="0 0 20 20">
<g>
</g>
	<path d="M15.45 6.25q0.89 0.46 1.275 1.3t0.225 1.81-0.8 1.87q-0.59 0.83-1.595 1.345t-1.865 0.435l-2.64 4.99h-1.050l-2.65-4.99q-0.85 0.12-1.895-0.4t-1.655-1.39q-0.64-0.9-0.8-1.87t0.23-1.81 1.28-1.29q0.68-0.34 1.43-0.31-0.020 0.62 0.070 1.21 0.2 1.29 0.995 2.52t1.865 1.85q-0.3 0.86-0.88 1.25l2.010 3.81v-5.66q-1.020-0.28-1.915-1.44t-1.085-2.48q-0.2-1.32 0.16-2.46t1.24-1.84 2.1-0.7 2.1 0.7 1.24 1.84 0.16 2.46q-0.19 1.32-1.085 2.48t-1.915 1.44v5.77l2.070-3.84q-0.63-0.33-0.99-1.3 1.090-0.61 1.9-1.855t1.010-2.545q0.090-0.59 0.070-1.22 0.73-0.020 1.39 0.32z" fill="#000000"></path>
</svg>
