<?xml version="1.0" encoding="utf-8"?>
<!-- Generated by IcoMoon.io -->
<!DOCTYPE svg PUBLIC "-//W3C//DTD SVG 1.1//EN" "http://www.w3.org/Graphics/SVG/1.1/DTD/svg11.dtd">
<svg version="1.1" xmlns="http://www.w3.org/2000/svg" xmlns:xlink="http://www.w3.org/1999/xlink" width="20" height="20" viewBox="0 0 20 20">
<g>
</g>
	<path d="M17.54 10.29q0.88 0.88 0.88 2.125t-0.88 2.125-2.125 0.88-2.125-0.88l-0.34-0.52q0 0.66-0.095 1.24t-0.225 0.995-0.365 0.795-0.425 0.605-0.495 0.47-0.48 0.355-0.475 0.285-0.39 0.235q-0.11-0.080-0.495-0.32t-0.645-0.42-0.635-0.585-0.605-0.855-0.4-1.185-0.17-1.615l-0.34 0.52q-0.88 0.88-2.125 0.88t-2.125-0.88-0.88-2.125 0.88-2.125q1.020-0.67 2.1-1.3-1.36-1.84-1.36-4.11 0-0.47 0.080-1 0.18 1.31 0.84 2.455t1.68 1.965q0.53-0.28 1.265-0.57t1.105-0.35h-0.17q-0.82 0-1.41-0.59t-0.59-1.41 0.59-1.41 1.41-0.59v-0.5q0-0.21 0.145-0.355t0.355-0.145 0.355 0.145 0.145 0.355v0.5h2v-0.5q0-0.21 0.145-0.355t0.355-0.145 0.355 0.145 0.145 0.355v0.5q0.82 0 1.41 0.59t0.59 1.41-0.59 1.41-1.41 0.59h-0.17q0.36 0.060 1.125 0.365t1.255 0.555q1.020-0.82 1.68-1.965t0.84-2.455q0.080 0.53 0.080 1 0 2.27-1.36 4.11 0.48 0.28 1 0.605t0.81 0.505zM8.5 6.38q0.38 0 0.69-0.3t0.31-0.7q0-0.41-0.295-0.705t-0.705-0.295-0.705 0.295-0.295 0.705 0.295 0.705 0.705 0.295zM11.5 4.38q-0.41 0-0.705 0.295t-0.295 0.705 0.295 0.705 0.705 0.295 0.705-0.295 0.295-0.705-0.295-0.705-0.705-0.295zM9.2 10.11q-0.19 0.17-0.19 0.43 0.020 0.19 0.16 0.325t0.33 0.135h1q0.19 0 0.33-0.135t0.16-0.325q0-0.21-0.19-0.43-0.15-0.11-0.3-0.11h-1q-0.15 0-0.3 0.11zM12 12.5q0-0.23-0.19-0.38-0.15-0.12-0.31-0.12h-3q-0.16 0-0.31 0.12-0.19 0.17-0.19 0.38t0.145 0.355 0.355 0.145h3q0.21 0 0.355-0.145t0.145-0.355zM8.5 15h3q0.21 0 0.355-0.145t0.145-0.355-0.145-0.355-0.355-0.145h-3q-0.21 0-0.355 0.145t-0.145 0.355 0.145 0.355 0.355 0.145zM9.5 17h1q0.21 0 0.355-0.145t0.145-0.355-0.145-0.355-0.355-0.145h-1q-0.21 0-0.355 0.145t-0.145 0.355 0.145 0.355 0.355 0.145z" fill="#000000"></path>
</svg>
