<?xml version="1.0" encoding="utf-8"?>
<!-- Generated by IcoMoon.io -->
<!DOCTYPE svg PUBLIC "-//W3C//DTD SVG 1.1//EN" "http://www.w3.org/Graphics/SVG/1.1/DTD/svg11.dtd">
<svg version="1.1" xmlns="http://www.w3.org/2000/svg" xmlns:xlink="http://www.w3.org/1999/xlink" width="20" height="20" viewBox="0 0 20 20">
<g>
</g>
	<path d="M13.5 7h-7q-0.62 0-1.060-0.44t-0.44-1.060 0.44-1.060 1.060-0.44h1.59q-0.090-0.29-0.090-0.5 0-0.62 0.44-1.060t1.060-0.44h1q0.62 0 1.060 0.44t0.44 1.060q0 0.21-0.090 0.5h1.59q0.62 0 1.060 0.44t0.44 1.060-0.44 1.060-1.060 0.44zM4 8h12q0.41 0 0.705 0.295t0.295 0.705-0.295 0.705-0.705 0.295h-12q-0.41 0-0.705-0.295t-0.295-0.705 0.295-0.705 0.705-0.295zM5 11h10q0.41 0 0.705 0.295t0.295 0.705-0.295 0.705-0.705 0.295h-10q-0.41 0-0.705-0.295t-0.295-0.705 0.295-0.705 0.705-0.295zM7 14h6q0.41 0 0.705 0.295t0.295 0.705-0.295 0.705-0.705 0.295h-1.090q0.090 0.29 0.090 0.5 0 0.62-0.44 1.060t-1.060 0.44h-1q-0.62 0-1.060-0.44t-0.44-1.060q0-0.21 0.090-0.5h-1.090q-0.41 0-0.705-0.295t-0.295-0.705 0.295-0.705 0.705-0.295z" fill="#000000"></path>
</svg>
