<?xml version="1.0" encoding="utf-8"?>
<!-- Generated by IcoMoon.io -->
<!DOCTYPE svg PUBLIC "-//W3C//DTD SVG 1.1//EN" "http://www.w3.org/Graphics/SVG/1.1/DTD/svg11.dtd">
<svg version="1.1" xmlns="http://www.w3.org/2000/svg" xmlns:xlink="http://www.w3.org/1999/xlink" width="20" height="20" viewBox="0 0 20 20">
<g>
</g>
	<path d="M7.3 6l-0.030-0.19q-0.060-0.55-0.030-1.080 0.030-0.56 0.25-1.040 0.22-0.5 0.52-0.86 0.33-0.39 0.83-0.6 0.52-0.23 1.13-0.23 1.030 0 1.71 0.59 0.69 0.6 0.91 1.44 0.22 0.85 0.090 1.78l-0.030 0.19q-0.010 0.1-0.11 0.48-0.070 0.33-0.2 0.69-0.13 0.34-0.34 0.72-0.18 0.35-0.47 0.69-0.25 0.26-0.67 0.48-0.39 0.19-0.86 0.19-0.46 0-0.87-0.19-0.42-0.21-0.67-0.5-0.25-0.28-0.49-0.66-0.22-0.36-0.34-0.73-0.14-0.39-0.21-0.67-0.090-0.33-0.12-0.5zM16.5 12.24q0.5 0.85 0.5 2.14v2.49q0 0.040-0.29 0.13-0.070 0.020-0.37 0.105t-0.6 0.165q-1.1 0.24-1.65 0.34-0.85 0.15-1.95 0.27-1.12 0.12-2.13 0.12t-2.14-0.12q-0.9-0.080-1.98-0.27-0.44-0.080-1.56-0.34-0.43-0.1-1.060-0.29l-0.27-0.11v-2.49q0-1.34 0.46-2.15 0.65-1.15 1.5-1.68 0.47-0.29 1.36-0.42t1.68-0.13l1.67 1.67-0.67 1.33v3l1.020 1.080 0.98-1.080v-3l-0.68-1.33 1.65-1.67q2.090 0 2.9 0.52 0.96 0.61 1.63 1.72z" fill="#000000"></path>
</svg>
