<?xml version="1.0" encoding="utf-8"?>
<!-- Generated by IcoMoon.io -->
<!DOCTYPE svg PUBLIC "-//W3C//DTD SVG 1.1//EN" "http://www.w3.org/Graphics/SVG/1.1/DTD/svg11.dtd">
<svg version="1.1" xmlns="http://www.w3.org/2000/svg" xmlns:xlink="http://www.w3.org/1999/xlink" width="20" height="20" viewBox="0 0 20 20">
<g>
</g>
	<path d="M18 18l0.010-12.28q0.45-0.27 0.72-0.725t0.27-0.995q0-0.82-0.59-1.41t-1.41-0.59-1.41 0.59-0.59 1.41q0 0.59 0.315 1.075t0.825 0.725l-4.13 6.58q-0.52-0.38-1.16-0.38-0.62 0-1.12 0.34t-0.73 0.9l-2.14-1.53q0.14-0.34 0.14-0.71 0-0.83-0.585-1.415t-1.415-0.585-1.415 0.585-0.585 1.415q0 0.54 0.265 0.99t0.715 0.72l-2.98 5.29h17zM17 3q0.41 0 0.705 0.295t0.295 0.705-0.295 0.705-0.705 0.295-0.705-0.295-0.295-0.705 0.295-0.705 0.705-0.295zM5 10q0.41 0 0.705 0.295t0.295 0.705-0.295 0.705-0.705 0.295-0.705-0.295-0.295-0.705 0.295-0.705 0.705-0.295zM10.85 13q0.41 0 0.705 0.295t0.295 0.705-0.295 0.705-0.705 0.295-0.705-0.295-0.295-0.705 0.295-0.705 0.705-0.295z" fill="#000000"></path>
</svg>
