<?xml version="1.0" encoding="utf-8"?>
<!-- Generated by IcoMoon.io -->
<!DOCTYPE svg PUBLIC "-//W3C//DTD SVG 1.1//EN" "http://www.w3.org/Graphics/SVG/1.1/DTD/svg11.dtd">
<svg version="1.1" xmlns="http://www.w3.org/2000/svg" xmlns:xlink="http://www.w3.org/1999/xlink" width="20" height="20" viewBox="0 0 20 20">
<g>
</g>
	<path d="M18 3.5q0 0.46-0.255 0.835t-0.665 0.545v13.11h-15.090l4.22-6.73q-0.21-0.37-0.21-0.76 0-0.62 0.44-1.060t1.060-0.44 1.060 0.44 0.44 1.060q0 0.17-0.050 0.37l1.44 0.63q0.45-0.5 1.11-0.5 0.22 0 0.51 0.090l3.58-6.41q-0.59-0.44-0.59-1.18 0-0.62 0.44-1.060t1.060-0.44q0.25 0 0.53 0.1l0.050-0.090v0.11q0.41 0.17 0.665 0.545t0.255 0.835zM16.080 16.99v-11.14l-3.29 5.89q0.21 0.37 0.21 0.76 0 0.62-0.44 1.060t-1.060 0.44-1.060-0.44-0.44-1.060l0.010-0.070-1.63-0.72q-0.4 0.29-0.88 0.29-0.24 0-0.51-0.1l-3.2 5.090h12.29z" fill="#000000"></path>
</svg>
