<?xml version="1.0" encoding="utf-8"?>
<!-- Generated by IcoMoon.io -->
<!DOCTYPE svg PUBLIC "-//W3C//DTD SVG 1.1//EN" "http://www.w3.org/Graphics/SVG/1.1/DTD/svg11.dtd">
<svg version="1.1" xmlns="http://www.w3.org/2000/svg" xmlns:xlink="http://www.w3.org/1999/xlink" width="20" height="20" viewBox="0 0 20 20">
<g>
</g>
	<path d="M17.74 2.26q1.26 1.27 1.26 3.050t-1.26 3.050l-1.53 1.52q-0.45 0.46-1.080 0.77l-2.13-0.65 1.69-1.64 0.76-0.77 0.76-0.76q0.63-0.63 0.63-1.52t-0.63-1.52q-0.63-0.64-1.52-0.64t-1.52 0.64l-0.77 0.76-0.76 0.76-1.64 1.69-0.65-2.14q0.31-0.63 0.77-1.070l1.52-1.53q1.27-1.26 3.055-1.26t3.045 1.26zM2 4l8 6-6-8zM6 2l4 8-2-8h-2zM2 6l8 4-8-2v-2zM9.36 13.69l0.64-0.69 0.74 2.35-1.38 1.39q-1.27 1.26-3.050 1.26t-3.050-1.26q-1.26-1.26-1.26-3.050t1.26-3.050l1.39-1.38 2.35 0.74-0.69 0.64-1.52 1.53q-0.64 0.63-0.64 1.52t0.64 1.52q0.63 0.64 1.52 0.64t1.52-0.64zM18 16l-8-6 6 8zM14 18l-4-8 2 8h2zM18 14l-8-4 8 2v2z" fill="#000000"></path>
</svg>
