<?xml version="1.0" encoding="utf-8"?>
<!-- Generated by IcoMoon.io -->
<!DOCTYPE svg PUBLIC "-//W3C//DTD SVG 1.1//EN" "http://www.w3.org/Graphics/SVG/1.1/DTD/svg11.dtd">
<svg version="1.1" xmlns="http://www.w3.org/2000/svg" xmlns:xlink="http://www.w3.org/1999/xlink" width="20" height="20" viewBox="0 0 20 20">
<g>
</g>
	<path d="M15.84 2.76q0.36 0 0.71 0.11 0.26 0.080 0.64 0.25l0.35-0.81q-0.78-0.39-1.69-0.39-0.86 0-1.52 0.37-0.65 0.37-0.99 1.080-0.34 0.68-0.34 1.63 0 1.49 0.7 2.28t2.020 0.79q0.88 0 1.6-0.26v-0.84q-0.32 0.1-0.74 0.19-0.38 0.080-0.74 0.080-0.89 0-1.34-0.57-0.47-0.54-0.47-1.66 0-1.050 0.48-1.65 0.49-0.6 1.33-0.6zM6.5 8h1.040l-2.24-6h-1.060l-2.24 6h1.030l0.58-1.66h2.29zM8 2v6h2.17q1.010 0 1.57-0.46 0.56-0.44 0.56-1.26 0-0.6-0.3-0.95-0.28-0.35-0.93-0.47v-0.040q0.5-0.090 0.78-0.44 0.28-0.37 0.28-0.88 0-0.78-0.56-1.14-0.54-0.36-1.79-0.36h-1.78zM8.98 4.48v-1.66h0.85q0.68 0 0.97 0.19 0.31 0.18 0.31 0.61 0 0.46-0.29 0.66-0.28 0.2-0.89 0.2h-0.95zM5.64 5.5h-1.74l0.54-1.56q0.23-0.65 0.32-1.1l0.15 0.52q0.080 0.26 0.17 0.51zM8.98 5.27h0.99q0.64 0 0.98 0.23 0.32 0.23 0.32 0.69 0 0.51-0.32 0.75-0.31 0.24-0.93 0.24h-1.040v-1.91zM4 13l5 5 9-8-1-1-8 6-4-3z" fill="#000000"></path>
</svg>
