<?xml version="1.0" encoding="utf-8"?>
<!-- Generated by IcoMoon.io -->
<!DOCTYPE svg PUBLIC "-//W3C//DTD SVG 1.1//EN" "http://www.w3.org/Graphics/SVG/1.1/DTD/svg11.dtd">
<svg version="1.1" xmlns="http://www.w3.org/2000/svg" xmlns:xlink="http://www.w3.org/1999/xlink" width="20" height="20" viewBox="0 0 20 20">
<g>
</g>
	<path d="M10 1q2.050 0 3.62 0.335t2.575 0.91 1.645 1.42 0.9 1.775 0.26 2.060-0.26 2.060-0.9 1.775-1.645 1.42-2.575 0.91-3.62 0.335-3.62-0.335-2.575-0.91-1.645-1.42-0.9-1.775-0.26-2.060 0.26-2.060 0.9-1.775 1.645-1.42 2.575-0.91 3.62-0.335zM5.5 9q0.62 0 1.060-0.44t0.44-1.060-0.44-1.060-1.060-0.44-1.060 0.44-0.44 1.060 0.44 1.060 1.060 0.44zM10 9q0.62 0 1.060-0.44t0.44-1.060-0.44-1.060-1.060-0.44-1.060 0.44-0.44 1.060 0.44 1.060 1.060 0.44zM14.5 9q0.62 0 1.060-0.44t0.44-1.060-0.44-1.060-1.060-0.44-1.060 0.44-0.44 1.060 0.44 1.060 1.060 0.44zM6 14.5q0.62 0 1.060 0.44t0.44 1.060-0.44 1.060-1.060 0.44-1.060-0.44-0.44-1.060 0.44-1.060 1.060-0.44zM3 16.5q0.41 0 0.705 0.295t0.295 0.705-0.295 0.705-0.705 0.295-0.705-0.295-0.295-0.705 0.295-0.705 0.705-0.295z" fill="#000000"></path>
</svg>
