<?xml version="1.0" encoding="utf-8"?>
<!-- Generated by IcoMoon.io -->
<!DOCTYPE svg PUBLIC "-//W3C//DTD SVG 1.1//EN" "http://www.w3.org/Graphics/SVG/1.1/DTD/svg11.dtd">
<svg version="1.1" xmlns="http://www.w3.org/2000/svg" xmlns:xlink="http://www.w3.org/1999/xlink" width="20" height="20" viewBox="0 0 20 20">
<g>
</g>
	<path d="M4 15v-3h-2v-10h12v3h2v3h2v10h-12v-3h-2zM11 3q-0.82 0-1.41 0.59t-0.59 1.41h4q0-0.83-0.585-1.415t-1.415-0.585zM4 11v-5h-1v5h1zM11 8h4q0-0.83-0.585-1.415t-1.415-0.585q-0.82 0-1.41 0.59t-0.59 1.41zM6 14v-5h-1v5h1zM15 13q0.83 0 1.415-0.585t0.585-1.415q0-0.82-0.59-1.41t-1.41-0.59-1.41 0.59-0.59 1.41q0 0.83 0.585 1.415t1.415 0.585zM17 17v-2q-1.010 0-1.855-0.165t-1.445-0.43-1.15-0.585l-1.1-0.64t-1.15-0.585-1.445-0.43-1.855-0.165v5h10z" fill="#000000"></path>
</svg>
