<?xml version="1.0" encoding="utf-8"?>
<!-- Generated by IcoMoon.io -->
<!DOCTYPE svg PUBLIC "-//W3C//DTD SVG 1.1//EN" "http://www.w3.org/Graphics/SVG/1.1/DTD/svg11.dtd">
<svg version="1.1" xmlns="http://www.w3.org/2000/svg" xmlns:xlink="http://www.w3.org/1999/xlink" width="20" height="20" viewBox="0 0 20 20">
<g>
</g>
	<path d="M10 1q1.53 0 2.825 0.755t2.050 2.045 0.755 2.82q0 0.52-0.21 1.18t-0.505 1.235-0.595 1.075-0.51 0.79l-0.21 0.3q-0.25 0.33-0.425 0.86t-0.175 0.94v1q0 0.41-0.295 0.705t-0.705 0.295h-4q-0.41 0-0.705-0.295t-0.295-0.705v-1q0-0.41-0.175-0.94t-0.425-0.86q-0.080-0.11-0.215-0.305t-0.485-0.77-0.615-1.105-0.485-1.205-0.22-1.195q0-1.53 0.75-2.82t2.045-2.045 2.825-0.755zM7 16.87v-0.87h6v0.87q0 0.53-0.16 0.83t-0.59 0.3h-0.25q0 0.46-0.275 0.73t-0.745 0.27h-2q-0.46 0-0.72-0.265t-0.26-0.735h-0.25q-0.43 0-0.59-0.3t-0.16-0.83z" fill="#000000"></path>
</svg>
