<?xml version="1.0" encoding="utf-8"?>
<!-- Generated by IcoMoon.io -->
<!DOCTYPE svg PUBLIC "-//W3C//DTD SVG 1.1//EN" "http://www.w3.org/Graphics/SVG/1.1/DTD/svg11.dtd">
<svg version="1.1" xmlns="http://www.w3.org/2000/svg" xmlns:xlink="http://www.w3.org/1999/xlink" width="20" height="20" viewBox="0 0 20 20">
<g>
</g>
	<path d="M18.15 5.94q0.66 2.33-0.020 4.48-0.31 0.96-0.915 1.605t-1.385 0.875q-0.16 0.060-0.4 0.060-0.060 0.020-0.18 0.020-0.060 0.020-0.22 0.020h-6.8l2.22 5.5q0.030 0.18-0.14 0.34-0.13 0.16-0.34 0.16h-3.020q-0.21 0-0.34-0.16-0.17-0.17-0.14-0.34l-1-5.5h-1.22l-0.020-0.020q-0.37 0.040-0.78-0.125t-0.76-0.495q-0.81-0.78-1.060-1.88-0.33-1.1-0.020-2.2 0.27-0.94 1.060-1.3l0.020-0.020 9-5.4q0.2-0.12 0.24-0.16 0.090-0.060 0.24-0.12 0.19-0.1 0.5-0.18 0.77-0.22 1.62 0.045t1.6 0.935q0.76 0.68 1.355 1.68t0.905 2.18zM15.57 11.92h-0.020q0.58-0.14 1.040-0.7 0.86-1.040 0.86-3.040 0-0.92-0.28-1.98-0.5-1.99-1.78-3.24-0.58-0.56-1.23-0.8t-1.23-0.080q-1.22 0.33-1.7 2-0.48 1.56 0.060 3.72 0.59 2.12 1.8 3.24 1.26 1.19 2.48 0.88zM13.030 4.84q0.3-0.060 0.62 0.040 0.66 0.28 1.020 1 0.42 0.84 0.42 1.78 0 0.44-0.12 0.8-0.3 0.81-0.86 0.94-0.26 0.080-0.575-0.035t-0.565-0.365q-0.58-0.58-0.78-1.5-0.24-0.83 0.020-1.72 0.1-0.35 0.33-0.605t0.49-0.335z" fill="#000000"></path>
</svg>
