<?xml version="1.0" encoding="utf-8"?>
<!-- Generated by IcoMoon.io -->
<!DOCTYPE svg PUBLIC "-//W3C//DTD SVG 1.1//EN" "http://www.w3.org/Graphics/SVG/1.1/DTD/svg11.dtd">
<svg version="1.1" xmlns="http://www.w3.org/2000/svg" xmlns:xlink="http://www.w3.org/1999/xlink" width="20" height="20" viewBox="0 0 20 20">
<g>
</g>
	<path d="M12 9v-6q0-0.83-0.585-1.415t-1.415-0.585-1.415 0.595-0.585 1.405v6q0 0.82 0.59 1.41t1.41 0.59q0.84 0 1.42-0.595t0.58-1.405zM16 9q0 2.21-1.425 3.88t-3.575 2.030v2.090h2q0.42 0 0.71 0.295t0.29 0.705-0.29 0.705-0.71 0.295h-6q-0.41 0-0.705-0.295t-0.295-0.705 0.295-0.705 0.705-0.295h2v-2.090q-2.14-0.36-3.57-2.030t-1.43-3.88q0-0.41 0.295-0.705t0.705-0.295q0.42 0 0.71 0.295t0.29 0.705q0 1.66 1.175 2.83t2.825 1.17q1.66 0 2.83-1.17t1.17-2.83q0-0.41 0.295-0.705t0.705-0.295q0.42 0 0.71 0.295t0.29 0.705z" fill="#000000"></path>
</svg>
