<?xml version="1.0" encoding="utf-8"?>
<!-- Generated by IcoMoon.io -->
<!DOCTYPE svg PUBLIC "-//W3C//DTD SVG 1.1//EN" "http://www.w3.org/Graphics/SVG/1.1/DTD/svg11.dtd">
<svg version="1.1" xmlns="http://www.w3.org/2000/svg" xmlns:xlink="http://www.w3.org/1999/xlink" width="20" height="20" viewBox="0 0 20 20">
<g>
</g>
	<path d="M18 13h1q0.41 0 0.705 0.295t0.295 0.715v2.98q0 0.42-0.295 0.715t-0.705 0.295h-4q-0.41 0-0.705-0.295t-0.295-0.715v-2.98q0-0.42 0.295-0.715t0.705-0.295h1v-2h-5v2h1q0.41 0 0.705 0.295t0.295 0.715v2.98q0 0.42-0.295 0.715t-0.705 0.295h-4q-0.41 0-0.705-0.295t-0.295-0.715v-2.98q0-0.42 0.295-0.715t0.705-0.295h1v-2h-5v2h1q0.41 0 0.705 0.295t0.295 0.715v2.98q0 0.42-0.295 0.715t-0.705 0.295h-4q-0.41 0-0.705-0.295t-0.295-0.715v-2.98q0-0.42 0.295-0.715t0.705-0.295h1v-2q0-0.82 0.59-1.41t1.41-0.59h5v-2h-1q-0.41 0-0.705-0.295t-0.295-0.715v-2.98q0-0.42 0.295-0.715t0.705-0.295h4q0.41 0 0.705 0.295t0.295 0.715v2.98q0 0.42-0.295 0.715t-0.705 0.295h-1v2h5q0.82 0 1.41 0.59t0.59 1.41v2z" fill="#000000"></path>
</svg>
