<?xml version="1.0" encoding="utf-8"?>
<!-- Generated by IcoMoon.io -->
<!DOCTYPE svg PUBLIC "-//W3C//DTD SVG 1.1//EN" "http://www.w3.org/Graphics/SVG/1.1/DTD/svg11.dtd">
<svg version="1.1" xmlns="http://www.w3.org/2000/svg" xmlns:xlink="http://www.w3.org/1999/xlink" width="20" height="20" viewBox="0 0 20 20">
<g>
</g>
	<path d="M12.14 4.18q1.39 1.39 1.58 3.345t-0.86 3.545q0.030 0.030 0.155 0.14t0.205 0.17q0.34 0.27 0.81 0.59 0.62 0.43 0.66 0.47 0.61 0.45 0.94 0.78 0.49 0.49 0.84 1 0.36 0.5 0.59 1.040 0.22 0.55 0.18 1-0.030 0.48-0.36 0.81t-0.81 0.36q-0.49 0.030-0.99-0.19-0.52-0.21-1.040-0.59-0.51-0.35-1-0.84-0.33-0.33-0.77-0.93-0.020-0.030-0.47-0.66-0.32-0.46-0.56-0.78-0.24-0.3-0.44-0.5-1.54 0.83-3.34 0.57t-3.1-1.55q-1.6-1.61-1.6-3.895t1.6-3.885q1.060-1.060 2.475-1.435t2.83 0 2.475 1.435zM10.73 10.54q1.020-1.030 1.020-2.475t-1.020-2.475q-1.030-1.030-2.48-1.030t-2.47 1.030q-1.030 1.030-1.030 2.475t1.030 2.475q1.020 1.030 2.47 1.030t2.48-1.030z" fill="#000000"></path>
</svg>
