<?xml version="1.0" encoding="utf-8"?>
<!-- Generated by IcoMoon.io -->
<!DOCTYPE svg PUBLIC "-//W3C//DTD SVG 1.1//EN" "http://www.w3.org/Graphics/SVG/1.1/DTD/svg11.dtd">
<svg version="1.1" xmlns="http://www.w3.org/2000/svg" xmlns:xlink="http://www.w3.org/1999/xlink" width="20" height="20" viewBox="0 0 20 20">
<g>
</g>
	<path d="M10.98 6.78l4.52 8.22q-0.48 0.96-1.42 1.66t-1.99 1.020-2.090 0.32-2.090-0.32-1.99-1.020-1.42-1.66l4.5-8.18q-0.57-0.93-1.68-1.46t-2.61-0.57l2.46-2.92q1.99 1.41 2.97 3.31 0.51-0.8 1.095-1.31t1.605-0.81l1.83 2.86q-1.92-0.46-3.69 0.86zM8.17 10.4l-0.93 1.69q0.71 0.16 1.54 0.16 1.99 0 3.55-0.95l-1.010-1.82q-1.36 0.83-3.15 0.92zM9.030 15.78q1.47 0 2.72-0.5t2.020-1.36l-0.98-1.76q-0.77 0.86-2.020 1.365t-2.72 0.505q-0.87 0-1.76-0.21l-0.63 1.15q1.52 0.81 3.37 0.81z" fill="#000000"></path>
</svg>
