<?xml version="1.0" encoding="utf-8"?>
<!-- Generated by IcoMoon.io -->
<!DOCTYPE svg PUBLIC "-//W3C//DTD SVG 1.1//EN" "http://www.w3.org/Graphics/SVG/1.1/DTD/svg11.dtd">
<svg version="1.1" xmlns="http://www.w3.org/2000/svg" xmlns:xlink="http://www.w3.org/1999/xlink" width="20" height="20" viewBox="0 0 20 20">
<g>
</g>
	<path d="M3 2h14q0.41 0 0.705 0.295t0.295 0.705v10q0 0.41-0.295 0.705t-0.705 0.295h-5v2h2q0.41 0 0.705 0.295t0.295 0.705v1h-10v-1q0-0.41 0.295-0.705t0.705-0.295h2v-2h-5q-0.41 0-0.705-0.295t-0.295-0.705v-10q0-0.41 0.295-0.705t0.705-0.295zM16 11v-7h-12v7h12zM5 5h9l-9 4v-4z" fill="#000000"></path>
</svg>
