<?xml version="1.0" encoding="utf-8"?>
<!-- Generated by IcoMoon.io -->
<!DOCTYPE svg PUBLIC "-//W3C//DTD SVG 1.1//EN" "http://www.w3.org/Graphics/SVG/1.1/DTD/svg11.dtd">
<svg version="1.1" xmlns="http://www.w3.org/2000/svg" xmlns:xlink="http://www.w3.org/1999/xlink" width="20" height="20" viewBox="0 0 20 20">
<g>
</g>
	<path d="M10 2q0.12 0.080 0.345 0.215t0.96 0.48 1.505 0.61 1.92 0.48 2.27 0.215q0 2.24-0.385 4.23t-1.005 3.365-1.365 2.525-1.49 1.845-1.365 1.175-1.010 0.67l-0.38 0.19q-0.090-0.040-0.245-0.115t-0.635-0.385-0.94-0.685-1.090-1.035-1.175-1.415-1.095-1.85-0.94-2.31-0.635-2.825-0.245-3.38q1.12 0 2.255-0.205t1.95-0.5 1.47-0.59 0.985-0.505zM10 10h5q0.040-0.040 0.11-0.13t0.24-0.48 0.3-0.9 0.24-1.44 0.11-2.050q-0.2-0.040-0.545-0.115t-1.26-0.3-1.67-0.45-1.5-0.54-1.025-0.595v7h-5q0.28 1.12 0.9 2.255t1.3 1.95 1.32 1.47 1.060 0.985l0.42 0.34v-7z" fill="#000000"></path>
</svg>
