<?xml version="1.0" encoding="utf-8"?>
<!-- Generated by IcoMoon.io -->
<!DOCTYPE svg PUBLIC "-//W3C//DTD SVG 1.1//EN" "http://www.w3.org/Graphics/SVG/1.1/DTD/svg11.dtd">
<svg version="1.1" xmlns="http://www.w3.org/2000/svg" xmlns:xlink="http://www.w3.org/1999/xlink" width="20" height="20" viewBox="0 0 20 20">
<g>
</g>
	<path d="M18 10q0-1.63-0.635-3.11t-1.705-2.55-2.55-1.705-3.11-0.635-3.11 0.635-2.55 1.705-1.705 2.55-0.635 3.11 0.635 3.11 1.705 2.55 2.55 1.705 3.11 0.635 3.11-0.635 2.55-1.705 1.705-2.55 0.635-3.11zM7.23 3.57l1.49 3.73q-0.97 0.45-1.42 1.42l-3.73-1.49q0.53-1.23 1.48-2.18t2.18-1.48zM16.43 7.23l-3.73 1.49q-0.45-0.97-1.42-1.42l1.49-3.73q1.23 0.53 2.18 1.48t1.48 2.18zM10 12q-0.82 0-1.41-0.59t-0.59-1.41 0.59-1.41 1.41-0.59 1.41 0.59 0.59 1.41-0.59 1.41-1.41 0.59zM3.57 12.77l3.73-1.49q0.45 0.97 1.42 1.42l-1.49 3.73q-1.23-0.53-2.18-1.48t-1.48-2.18zM12.77 16.43l-1.49-3.73q0.97-0.45 1.42-1.42l3.73 1.49q-0.53 1.23-1.48 2.18t-2.18 1.48z" fill="#000000"></path>
</svg>
