<?xml version="1.0" encoding="utf-8"?>
<!-- Generated by IcoMoon.io -->
<!DOCTYPE svg PUBLIC "-//W3C//DTD SVG 1.1//EN" "http://www.w3.org/Graphics/SVG/1.1/DTD/svg11.dtd">
<svg version="1.1" xmlns="http://www.w3.org/2000/svg" xmlns:xlink="http://www.w3.org/1999/xlink" width="20" height="20" viewBox="0 0 20 20">
<g>
</g>
	<path d="M10 5.4q1.9 0 2.91 1.080 1 1.080 1 3.13 0 1.92-0.69 3.27-0.33 0.62-0.875 1.115t-1.345 1.005v2h6v-2h-3.69q1.46-1.010 2.12-2.34 0.74-1.53 0.74-3.35 0-2.67-1.65-4.22-1.66-1.55-4.52-1.55-2.87 0-4.52 1.57-1.65 1.56-1.65 4.2 0 1.81 0.73 3.33 0.62 1.3 2.1 2.36h-3.66v2h6v-2q-0.84-0.55-1.39-1.050t-0.85-1.12q-0.67-1.33-0.67-3.22 0-2.060 1-3.13 0.99-1.080 2.91-1.080z" fill="#000000"></path>
</svg>
