<?xml version="1.0" encoding="utf-8"?>
<!-- Generated by IcoMoon.io -->
<!DOCTYPE svg PUBLIC "-//W3C//DTD SVG 1.1//EN" "http://www.w3.org/Graphics/SVG/1.1/DTD/svg11.dtd">
<svg version="1.1" xmlns="http://www.w3.org/2000/svg" xmlns:xlink="http://www.w3.org/1999/xlink" width="20" height="20" viewBox="0 0 20 20">
<g>
</g>
	<path d="M12 2l4 4v12h-12v-16h8zM12 6h3l-3-3v3zM14 14v-6h-8v6h3l-1 2h1l1-2 1 2h1l-1-2h3zM8 11q-0.41 0-0.705-0.295t-0.295-0.705 0.295-0.705 0.705-0.295 0.705 0.295 0.295 0.705-0.295 0.705-0.705 0.295zM13 9v2h-3v-2h3zM13 12v1h-6v-1h6z" fill="#000000"></path>
</svg>
