<?xml version="1.0" encoding="utf-8"?>
<!-- Generated by IcoMoon.io -->
<!DOCTYPE svg PUBLIC "-//W3C//DTD SVG 1.1//EN" "http://www.w3.org/Graphics/SVG/1.1/DTD/svg11.dtd">
<svg version="1.1" xmlns="http://www.w3.org/2000/svg" xmlns:xlink="http://www.w3.org/1999/xlink" width="20" height="20" viewBox="0 0 20 20">
<g>
</g>
	<path d="M18.010 11.18v-8.67q0-0.89-0.59-1.295t-1.41-0.075l-12.010 4.77q-0.83 0.33-1.415 1.2t-0.585 1.77v8.66q0 0.9 0.585 1.3t1.415 0.070l12.010-4.77q0.83-0.33 1.415-1.195t0.585-1.765zM16.58 3.72l-6.040 9.33-6.65-4.6q-0.070-0.050-0.13-0.125t-0.105-0.22 0.065-0.295q0.090-0.16 0.255-0.215t0.285-0.025l0.11 0.030 6.3 2.32q4.83-6.34 5.11-6.7 0.12-0.15 0.3-0.205t0.43 0.075q0.33 0.23 0.070 0.63z" fill="#000000"></path>
</svg>
