<?xml version="1.0" encoding="utf-8"?>
<!-- Generated by IcoMoon.io -->
<!DOCTYPE svg PUBLIC "-//W3C//DTD SVG 1.1//EN" "http://www.w3.org/Graphics/SVG/1.1/DTD/svg11.dtd">
<svg version="1.1" xmlns="http://www.w3.org/2000/svg" xmlns:xlink="http://www.w3.org/1999/xlink" width="20" height="20" viewBox="0 0 20 20">
<g>
</g>
	<path d="M14 9h1q0.41 0 0.705 0.295t0.295 0.705v7q0 0.41-0.295 0.705t-0.705 0.295h-10q-0.41 0-0.705-0.295t-0.295-0.705v-7q0-0.41 0.295-0.705t0.705-0.295h1v-3q0-1.66 1.17-2.83t2.83-1.17 2.83 1.17 1.17 2.83v3zM12 9v-3q0-0.82-0.59-1.41t-1.41-0.59-1.41 0.59-0.59 1.41v3h4zM11 16l-0.36-2.15q0.39-0.18 0.625-0.545t0.235-0.805q0-0.62-0.44-1.060t-1.060-0.44-1.060 0.44-0.44 1.060q0 0.44 0.235 0.805t0.625 0.545l-0.36 2.15h2z" fill="#000000"></path>
</svg>
