<?xml version="1.0" encoding="utf-8"?>
<!-- Generated by IcoMoon.io -->
<!DOCTYPE svg PUBLIC "-//W3C//DTD SVG 1.1//EN" "http://www.w3.org/Graphics/SVG/1.1/DTD/svg11.dtd">
<svg version="1.1" xmlns="http://www.w3.org/2000/svg" xmlns:xlink="http://www.w3.org/1999/xlink" width="20" height="20" viewBox="0 0 20 20">
<g>
</g>
	<path d="M6.050 2q-0.87 0-1.485 0.615t-0.615 1.485v9.080q0 0.060-0.010 0.090 0 2.090 1.175 3.375t3.425 1.345q0.020 0 0.070 0.005t0.080 0.005h5.21q0.86 0 1.48-0.62t0.62-1.49-0.62-1.485-1.48-0.615h-5.44q-0.3 0-0.3-0.39v-3.030h5.74q0.86 0 1.48-0.615t0.62-1.485-0.62-1.49-1.48-0.62h-5.74v-2.060q0-0.87-0.62-1.485t-1.49-0.615z" fill="#000000"></path>
</svg>
