<?xml version="1.0" encoding="utf-8"?>
<!-- Generated by IcoMoon.io -->
<!DOCTYPE svg PUBLIC "-//W3C//DTD SVG 1.1//EN" "http://www.w3.org/Graphics/SVG/1.1/DTD/svg11.dtd">
<svg version="1.1" xmlns="http://www.w3.org/2000/svg" xmlns:xlink="http://www.w3.org/1999/xlink" width="20" height="20" viewBox="0 0 20 20">
<g>
</g>
	<path d="M12 4h3q0.41 0 0.705 0.295t0.295 0.705v1h-13v-1q0-0.41 0.295-0.705t0.705-0.295h3q0.17-0.86 0.885-1.43t1.615-0.57 1.615 0.57 0.885 1.43zM8 4h3q-0.16-0.43-0.585-0.715t-0.915-0.285-0.915 0.285-0.585 0.715zM4 7h11v10q0 0.41-0.295 0.705t-0.705 0.295h-9q-0.41 0-0.705-0.295t-0.295-0.705v-10zM7 16v-7h-1v7h1zM10 16v-7h-1v7h1zM13 16v-7h-1v7h1z" fill="#000000"></path>
</svg>
