<?xml version="1.0" encoding="utf-8"?>
<!-- Generated by IcoMoon.io -->
<!DOCTYPE svg PUBLIC "-//W3C//DTD SVG 1.1//EN" "http://www.w3.org/Graphics/SVG/1.1/DTD/svg11.dtd">
<svg version="1.1" xmlns="http://www.w3.org/2000/svg" xmlns:xlink="http://www.w3.org/1999/xlink" width="20" height="20" viewBox="0 0 20 20">
<g>
</g>
	<path d="M0.19 5.92q-0.22 0.18 0.79 1.42t2.12 2.4l1.12 1.15 0.79-0.79t1.845-1.855 2.495-2.565 2.325-2.47 1.79-2.060 0.455-0.89q-0.3-0.17-2.74 1.665t-4.74 3.755l-2.29 1.91q-0.040-0.030-0.115-0.070t-0.325-0.185-0.475-0.265-0.57-0.305-0.615-0.31-0.61-0.275-0.55-0.21-0.435-0.1-0.265 0.050zM15.42 6.9l-3.15 3.15-1.81-1.82 3.15-3.15q0.25-0.25 0.695-0.16t0.815 0.47q0.38 0.37 0.47 0.815t-0.17 0.695zM7.65 8.62l0.88-1.090 8.76 8.75-1.16 0.81q-0.49 0.49-1.63 0.81t-2.080 0.32h-3.77l-1.21 1.21q-0.43 0.43-1.030 0.43t-1.030-0.43-0.43-1.030 0.43-1.040l1.21-1.2v-3.76q0-0.94 0.295-2.125t0.765-1.655zM14.7 12.48l3.15-3.15q0.25-0.26 0.695-0.17t0.815 0.47q0.38 0.37 0.47 0.81t-0.17 0.69l-3.15 3.16z" fill="#000000"></path>
</svg>
