<?xml version="1.0" encoding="utf-8"?>
<!-- Generated by IcoMoon.io -->
<!DOCTYPE svg PUBLIC "-//W3C//DTD SVG 1.1//EN" "http://www.w3.org/Graphics/SVG/1.1/DTD/svg11.dtd">
<svg version="1.1" xmlns="http://www.w3.org/2000/svg" xmlns:xlink="http://www.w3.org/1999/xlink" width="20" height="20" viewBox="0 0 20 20">
<g>
</g>
	<path d="M13.65 2.88q1.45 0.74 2.48 1.98t1.49 2.685 0.35 3.050-0.85 3.055-1.98 2.475-2.68 1.49-3.050 0.355-3.060-0.85q-1.38-0.71-2.37-1.85t-1.49-2.55l1.64-1.030q0.34 1.2 1.135 2.18t1.945 1.58q1.11 0.57 2.34 0.655t2.33-0.27 2.045-1.145 1.515-1.9 0.66-2.34-0.27-2.33-1.145-2.050-1.895-1.52-2.34-0.655-2.33 0.27-2.045 1.145-1.515 1.9l1.88 0.97-4.95 3.080-0.39-5.82 1.78 0.91q0.74-1.45 1.985-2.48t2.69-1.49 3.050-0.345 3.045 0.845zM9.29 10.71q-0.29-0.29-0.29-0.71 0-0.040 0.020-0.1t0.020-0.090h-0.010l0.97-4.81 0.97 4.81 3.030 3.19-4.5-2.12 0.020-0.020q-0.13-0.070-0.23-0.15z" fill="#000000"></path>
</svg>
