<?xml version="1.0" encoding="utf-8"?>
<!-- Generated by IcoMoon.io -->
<!DOCTYPE svg PUBLIC "-//W3C//DTD SVG 1.1//EN" "http://www.w3.org/Graphics/SVG/1.1/DTD/svg11.dtd">
<svg version="1.1" xmlns="http://www.w3.org/2000/svg" xmlns:xlink="http://www.w3.org/1999/xlink" width="20" height="20" viewBox="0 0 20 20">
<g>
</g>
	<path d="M8.55 3.060q0.2 0.070 0.21 0.22t-0.11 0.355-0.3 0.445-0.32 0.515-0.195 0.54 0.090 0.545 0.525 0.51q0.23 0.17 0.61 0.050t0.75-0.37 0.825-0.635 0.835-0.74 0.78-0.69 0.65-0.475q0.39-0.22 0.845-0.3t0.95 0 0.96 0.47 0.775 1.060q0.33 0.72 0.41 1.82t-0.145 2.395-0.7 2.555-1.35 2.42-2.005 1.87q-1.17 0.74-2.465 1.060t-2.525 0.2-2.335-0.585-1.985-1.325-1.39-2.010q-0.29-0.66-0.395-1.41t-0.025-1.475 0.3-1.475 0.575-1.425 0.79-1.31 0.95-1.135 1.065-0.91 1.13-0.62 1.135-0.275 1.085 0.135zM9.76 9.51q0.3 0.68 1.26 0.56 0.91-0.12 1.73-0.84 0.96-0.86 0.93-1.87-0.010-0.34-0.13-0.65-0.26-0.65-1.24-0.33-0.92 0.29-1.76 1.12-0.94 0.94-0.87 1.71 0.020 0.16 0.080 0.3z" fill="#000000"></path>
</svg>
