<?xml version="1.0" encoding="utf-8"?>
<!-- Generated by IcoMoon.io -->
<!DOCTYPE svg PUBLIC "-//W3C//DTD SVG 1.1//EN" "http://www.w3.org/Graphics/SVG/1.1/DTD/svg11.dtd">
<svg version="1.1" xmlns="http://www.w3.org/2000/svg" xmlns:xlink="http://www.w3.org/1999/xlink" width="20" height="20" viewBox="0 0 20 20">
<g>
</g>
	<path d="M12 2l4 4v12h-12v-16h8zM12 6h3l-3-3v3zM8 3.5v2l1.8-1zM11 5l-1.8 1 1.8 1v-2zM8 6.5v2l1.8-1zM11 8l-1.8 1 1.8 1v-2zM8 9.5v2l1.8-1zM11 11l-1.8 1 1.8 1v-2zM9.5 17q0.64 0 1.115-0.485t0.385-1.145q-0.020-0.17-0.145-0.57t-0.235-0.72l-0.11-0.32-1.99-1.1q-0.45 1.95-0.52 2.71-0.050 0.59 0.42 1.11t1.080 0.52zM9.5 14.61q0.32 0 0.54 0.225t0.22 0.535q0 0.32-0.22 0.545t-0.54 0.225-0.54-0.225-0.22-0.545q0-0.31 0.22-0.535t0.54-0.225z" fill="#000000"></path>
</svg>
