<?xml version="1.0" encoding="utf-8"?>
<!-- Generated by IcoMoon.io -->
<!DOCTYPE svg PUBLIC "-//W3C//DTD SVG 1.1//EN" "http://www.w3.org/Graphics/SVG/1.1/DTD/svg11.dtd">
<svg version="1.1" xmlns="http://www.w3.org/2000/svg" xmlns:xlink="http://www.w3.org/1999/xlink" width="20" height="20" viewBox="0 0 20 20">
<g>
</g>
	<path d="M18 17v-14q0-0.41-0.295-0.705t-0.705-0.295h-14q-0.41 0-0.705 0.295t-0.295 0.705v14q0 0.41 0.295 0.705t0.705 0.295h14q0.41 0 0.705-0.295t0.295-0.705zM17 17h-14v-14h14v14zM4.75 4h10.5q0.31 0 0.53 0.22t0.22 0.53v1.25h-1v3h1v2h-1v3h1v1.25q0 0.31-0.22 0.53t-0.53 0.22h-10.5q-0.31 0-0.53-0.22t-0.22-0.53v-10.5q0-0.31 0.22-0.53t0.53-0.22zM13 10q0-1.66-1.17-2.83t-2.83-1.17-2.83 1.17-1.17 2.83 1.17 2.83 2.83 1.17 2.83-1.17 1.17-2.83zM9 7l0.77 1.15q0.55 0.24 0.89 0.74t0.34 1.11q0 0.82-0.59 1.41t-1.41 0.59-1.41-0.59-0.59-1.41q0-0.61 0.34-1.11t0.89-0.74z" fill="#000000"></path>
</svg>
