<?xml version="1.0" encoding="utf-8"?>
<!-- Generated by IcoMoon.io -->
<!DOCTYPE svg PUBLIC "-//W3C//DTD SVG 1.1//EN" "http://www.w3.org/Graphics/SVG/1.1/DTD/svg11.dtd">
<svg version="1.1" xmlns="http://www.w3.org/2000/svg" xmlns:xlink="http://www.w3.org/1999/xlink" width="20" height="20" viewBox="0 0 20 20">
<g>
</g>
	<path d="M8.54 12.74q0-1.3-0.72-2.22-0.5-0.63-1.365-0.82t-1.595-0.030q-0.25-1.43 0.78-3.035t2.64-2.415l-1.63-2.28q-0.98 0.47-1.885 1.14t-1.695 1.57-1.335 1.925-0.795 2.27-0.090 2.525q0.26 2.11 1.395 3.37t2.835 1.26q1.51 0 2.48-0.88 0.98-0.88 0.98-2.38zM17.97 12.74q0-1.3-0.72-2.22-0.5-0.63-1.365-0.82t-1.595-0.030q-0.25-1.43 0.78-3.035t2.64-2.415l-1.63-2.28q-0.98 0.47-1.885 1.14t-1.695 1.57-1.335 1.925-0.795 2.27-0.090 2.525q0.26 2.11 1.395 3.37t2.835 1.26q1.51 0 2.48-0.88 0.98-0.88 0.98-2.38z" fill="#000000"></path>
</svg>
