<?xml version="1.0" encoding="utf-8"?>
<!-- Generated by IcoMoon.io -->
<!DOCTYPE svg PUBLIC "-//W3C//DTD SVG 1.1//EN" "http://www.w3.org/Graphics/SVG/1.1/DTD/svg11.dtd">
<svg version="1.1" xmlns="http://www.w3.org/2000/svg" xmlns:xlink="http://www.w3.org/1999/xlink" width="20" height="20" viewBox="0 0 20 20">
<g>
</g>
	<path d="M17.74 2.76q1.26 1.27 1.26 3.050t-1.26 3.050l-1.53 1.52q-0.82 0.82-1.95 1.105t-2.19-0.015l2.62-2.61 0.76-0.77 0.76-0.76q0.63-0.63 0.63-1.52t-0.63-1.52q-0.63-0.64-1.52-0.64t-1.52 0.64l-0.77 0.76-3.38 3.38q-0.29-1.060-0.005-2.19t1.105-1.95l1.52-1.53q1.27-1.26 3.055-1.26t3.045 1.26zM8.59 13.43l5.34-5.34q0.31-0.31 0.31-0.76t-0.31-0.76q-0.34-0.32-0.78-0.31t-0.75 0.31l-5.33 5.34q-0.31 0.31-0.31 0.76t0.31 0.76q0.34 0.32 0.78 0.31t0.74-0.31zM7.83 15.72l4.14-4.15q0.3 1.060 0.015 2.19t-1.105 1.95l-1.52 1.53q-1.27 1.26-3.050 1.26t-3.050-1.26q-1.26-1.26-1.26-3.050t1.26-3.050l1.53-1.52q0.82-0.82 1.95-1.105t2.19 0.005l-4.14 4.15q-0.64 0.63-0.64 1.52t0.64 1.53q0.63 0.63 1.52 0.63t1.52-0.63z" fill="#000000"></path>
</svg>
