<?xml version="1.0" encoding="utf-8"?>
<!-- Generated by IcoMoon.io -->
<!DOCTYPE svg PUBLIC "-//W3C//DTD SVG 1.1//EN" "http://www.w3.org/Graphics/SVG/1.1/DTD/svg11.dtd">
<svg version="1.1" xmlns="http://www.w3.org/2000/svg" xmlns:xlink="http://www.w3.org/1999/xlink" width="20" height="20" viewBox="0 0 20 20">
<g>
</g>
	<path d="M10 3q1.54 0 2.905 0.63t2.345 1.75l-1.71 1.95q-0.62-0.82-1.55-1.3t-1.99-0.48q-1.57 0-2.775 0.98t-1.545 2.47h2.32l-3.5 4-3.5-4h2.080q0.24-1.68 1.21-3.050t2.475-2.16 3.235-0.79zM10 17.040q-1.55 0-2.91-0.63t-2.34-1.75l1.71-1.95q0.62 0.82 1.55 1.3t1.99 0.48q1.57 0 2.775-0.98t1.545-2.47h-2.32l3.5-4 3.5 4h-2.080q-0.18 1.26-0.795 2.365t-1.525 1.905-2.105 1.265-2.495 0.465z" fill="#000000"></path>
</svg>
