<?xml version="1.0" encoding="utf-8"?>
<!-- Generated by IcoMoon.io -->
<!DOCTYPE svg PUBLIC "-//W3C//DTD SVG 1.1//EN" "http://www.w3.org/Graphics/SVG/1.1/DTD/svg11.dtd">
<svg version="1.1" xmlns="http://www.w3.org/2000/svg" xmlns:xlink="http://www.w3.org/1999/xlink" width="20" height="20" viewBox="0 0 20 20">
<g>
</g>
	<path d="M16 4h1.96q0.43 0 0.735 0.305t0.305 0.735v12.92q0 0.43-0.305 0.735t-0.735 0.305h-12.92q-0.43 0-0.735-0.305t-0.305-0.735v-1.96h-1.96q-0.43 0-0.735-0.305t-0.305-0.735v-12.92q0-0.43 0.305-0.735t0.735-0.305h12.92q0.43 0 0.735 0.305t0.305 0.735v1.96zM3 14h11v-11h-11v11zM8 5.5q0-0.62-0.44-1.060t-1.060-0.44-1.060 0.44-0.44 1.060 0.44 1.060 1.060 0.44 1.060-0.44 0.44-1.060zM10 10q0.020-0.1 0.060-0.28t0.185-0.7 0.305-0.995 0.43-1.050 0.555-0.99 0.67-0.7 0.795-0.285v8h-9v-6q0.56 0 0.97 0.31t0.6 0.75 0.3 0.88 0.12 0.75l0.010 0.31q0.010-0.040 0.025-0.115t0.080-0.28 0.155-0.395 0.255-0.42 0.36-0.395 0.49-0.28 0.635-0.115q0.47 0 0.845 0.205t0.58 0.5 0.345 0.59 0.19 0.505zM17 17v-11h-1v8.96q0 0.43-0.305 0.735t-0.735 0.305h-8.96v1h11z" fill="#000000"></path>
</svg>
