<?xml version="1.0" encoding="utf-8"?>
<!-- Generated by IcoMoon.io -->
<!DOCTYPE svg PUBLIC "-//W3C//DTD SVG 1.1//EN" "http://www.w3.org/Graphics/SVG/1.1/DTD/svg11.dtd">
<svg version="1.1" xmlns="http://www.w3.org/2000/svg" xmlns:xlink="http://www.w3.org/1999/xlink" width="20" height="20" viewBox="0 0 20 20">
<g>
</g>
	<path d="M10.44 3.020l1.82-1.82 6.36 6.35-1.83 1.82q-0.78-0.52-1.75-0.425t-1.66 0.785l-0.75 0.75q-0.68 0.69-0.775 1.655t0.425 1.755l-1.83 1.82-2.41-2.41-2.8 2.79q-0.54 0.54-2.035 1.55t-1.765 0.74 0.74-1.775 1.54-2.035l2.79-2.79-2.41-2.42 1.83-1.82q0.78 0.52 1.75 0.425t1.65-0.785l0.75-0.75q0.69-0.68 0.785-1.65t-0.425-1.76z" fill="#000000"></path>
</svg>
