<?xml version="1.0" encoding="utf-8"?>
<!-- Generated by IcoMoon.io -->
<!DOCTYPE svg PUBLIC "-//W3C//DTD SVG 1.1//EN" "http://www.w3.org/Graphics/SVG/1.1/DTD/svg11.dtd">
<svg version="1.1" xmlns="http://www.w3.org/2000/svg" xmlns:xlink="http://www.w3.org/1999/xlink" width="20" height="20" viewBox="0 0 20 20">
<g>
</g>
	<path d="M18 14v-10q0-0.41-0.295-0.705t-0.705-0.295h-14q-0.41 0-0.705 0.295t-0.295 0.705v10q0 0.41 0.295 0.705t0.705 0.295h14q0.41 0 0.705-0.295t0.295-0.705zM10 6q1.69 0 3.23 0.79t2.77 2.21q-1.23 1.42-2.77 2.21t-3.23 0.79-3.23-0.79-2.77-2.21q1.23-1.42 2.77-2.21t3.23-0.79zM12 9q0-0.82-0.59-1.41t-1.41-0.59-1.41 0.59-0.59 1.41 0.59 1.41 1.41 0.59 1.41-0.59 0.59-1.41zM14 17h3v1h-14v-1h3v-1h8v1z" fill="#000000"></path>
</svg>
