<?xml version="1.0" encoding="utf-8"?>
<!-- Generated by IcoMoon.io -->
<!DOCTYPE svg PUBLIC "-//W3C//DTD SVG 1.1//EN" "http://www.w3.org/Graphics/SVG/1.1/DTD/svg11.dtd">
<svg version="1.1" xmlns="http://www.w3.org/2000/svg" xmlns:xlink="http://www.w3.org/1999/xlink" width="20" height="20" viewBox="0 0 20 20">
<g>
</g>
	<path d="M20 5.38l-1.010 2.82v-0.010q-0.78-0.28-1.53 0.080t-1.040 1.14q-0.28 0.78 0.075 1.53t1.145 1.030v0.010l-1.010 2.82-15.060-5.38 0.99-2.79q0.78 0.28 1.53-0.075t1.030-1.135-0.075-1.525-1.135-1.025l1.020-2.87zM14.55 8.75q0.34-1.080 0.165-2.085t-0.87-1.835-1.715-1.2q-1.56-0.55-3.055 0.16t-2.055 2.26q-0.34 1.080-0.165 2.090t0.87 1.84 1.715 1.19q1.55 0.55 3.050-0.16t2.060-2.26zM11.99 4.010q1.33 0.48 1.97 1.71l-0.040-0.020q-0.24-0.090-0.465 0.035t-0.315 0.365q-0.1 0.28 0.050 0.91 0.090 0.62-0.060 1.040-0.090 0.27-0.65 1l-0.74 1.010 0.080-4.080 0.4 0.11q0.14 0.030 0.18-0.11t-0.1-0.18q-0.57-0.15-0.92-0.28l-0.88-0.36q-0.070-0.030-0.12 0t-0.075 0.075-0.005 0.105 0.080 0.090q0.16 0.080 0.34 0.16l0.010 1.63-1.53 1.96 0.080-4.11 0.4 0.11q0.14 0.030 0.175-0.11t-0.105-0.18q-0.56-0.15-0.91-0.28-0.030-0.010-0.22-0.080 0.71-0.54 1.59-0.68t1.78 0.16zM7.4 6.19q0.25-0.73 0.78-1.27l0.040 5q-0.72-0.72-0.945-1.715t0.125-2.015zM11.44 10.94l2.1-2.63q0.49-0.55 0.69-1.12 0.040-0.1 0.11-0.35 0.14 0.9-0.17 1.77-0.33 0.92-1.065 1.535t-1.665 0.795zM10.74 7.72l0.020 3.22q0 0.040 0.010 0.060-0.6 0-1.2-0.21-0.49-0.18-0.9-0.48zM11.98 13.8l2.1 0.75q0.18 0.64 0.71 1.045t1.2 0.405h0.010v3h-16v-2.96q0.83 0 1.415-0.585t0.585-1.415q0-0.82-0.59-1.41t-1.41-0.59v-3.040h1.050l-0.28 0.8 4.28 1.52q-1.050 1.15-1.050 2.68 0 1.66 1.17 2.83t2.83 1.17 2.83-1.17 1.17-2.83q0-0.040-0.010-0.1t-0.010-0.1zM5.45 11.47l1.48 0.53q-0.11 0.030-0.105 0.15t0.135 0.13q0.18 0.020 0.37 0.030l0.56 1.54-0.78 2.36-1.31-3.9 0.41-0.030q0.090-0.010 0.12-0.085t-0.010-0.145-0.13-0.070q-0.59 0.050-0.96 0.050-0.15 0-0.23-0.010 0.19-0.29 0.45-0.55zM4.4 14q0-0.76 0.32-1.46l1.71 4.7q-0.92-0.45-1.475-1.32t-0.555-1.92zM8.59 12.59l1.72 0.62q0.12 0.29 0.12 0.61 0 0.28-0.28 1.16l-0.35 1.2zM11.6 14q0 0.98-0.485 1.81t-1.305 1.3l1.1-3.18q0.070-0.2 0.14-0.46l0.52 0.19q0.030 0.17 0.030 0.34zM6.98 17.45l1.080-3.14 1.11 3.030q0 0.010 0.005 0.025t0.015 0.025q-0.6 0.21-1.19 0.21-0.47 0-1.020-0.15z" fill="#000000"></path>
</svg>
