<?xml version="1.0" encoding="utf-8"?>
<!-- Generated by IcoMoon.io -->
<!DOCTYPE svg PUBLIC "-//W3C//DTD SVG 1.1//EN" "http://www.w3.org/Graphics/SVG/1.1/DTD/svg11.dtd">
<svg version="1.1" xmlns="http://www.w3.org/2000/svg" xmlns:xlink="http://www.w3.org/1999/xlink" width="20" height="20" viewBox="0 0 20 20">
<g>
</g>
	<path d="M6 4v13h4.54q2.070 0 3.26-1 1.2-0.99 1.2-2.77 0-1.26-0.51-2.010-0.52-0.76-1.67-1.030v-0.090q0.85-0.15 1.36-0.9t0.51-1.91q0-1.72-1.17-2.5-1.15-0.79-3.74-0.79h-3.78zM8.57 9.15v-2.89h1.36q1.090 0 1.61 0.32 0.51 0.33 0.51 1.070 0 0.8-0.47 1.15t-1.51 0.35h-1.5zM8.57 11.34h1.6q2.16 0 2.16 1.61 0 0.91-0.51 1.34-0.5 0.43-1.57 0.43h-1.68v-3.38z" fill="#000000"></path>
</svg>
