<?xml version="1.0" encoding="utf-8"?>
<!-- Generated by IcoMoon.io -->
<!DOCTYPE svg PUBLIC "-//W3C//DTD SVG 1.1//EN" "http://www.w3.org/Graphics/SVG/1.1/DTD/svg11.dtd">
<svg version="1.1" xmlns="http://www.w3.org/2000/svg" xmlns:xlink="http://www.w3.org/1999/xlink" width="20" height="20" viewBox="0 0 20 20">
<g>
</g>
	<path d="M19 14.5v-9q0-0.62-0.44-1.060t-1.060-0.44h-14.010q-0.62 0-1.060 0.44t-0.44 1.060v9q0 0.62 0.44 1.060t1.060 0.44h14.010q0.62 0 1.060-0.44t0.44-1.060zM17.69 5.39q0.15 0.15 0.175 0.325t-0.040 0.295-0.165 0.22l-4.060 3.72 3.9 4.060q0.26 0.3 0.060 0.51-0.090 0.11-0.28 0.12t-0.28-0.070l-4.37-3.73-2.14 1.95-2.13-1.95-4.37 3.73q-0.090 0.080-0.28 0.070t-0.28-0.12q-0.2-0.21 0.060-0.51l3.9-4.060-4.060-3.72q-0.1-0.1-0.165-0.22t-0.040-0.295 0.175-0.325q0.4-0.4 0.95 0.070l6.24 5.040 6.25-5.040q0.55-0.47 0.95-0.070z" fill="#000000"></path>
</svg>
