<?xml version="1.0" encoding="utf-8"?>
<!-- Generated by IcoMoon.io -->
<!DOCTYPE svg PUBLIC "-//W3C//DTD SVG 1.1//EN" "http://www.w3.org/Graphics/SVG/1.1/DTD/svg11.dtd">
<svg version="1.1" xmlns="http://www.w3.org/2000/svg" xmlns:xlink="http://www.w3.org/1999/xlink" width="20" height="20" viewBox="0 0 20 20">
<g>
</g>
	<path d="M2 18.43q0.28 0.27 0.94 0.185t1.54-0.38 1.945-0.815 2.15-1.13 2.15-1.315 1.945-1.365 1.54-1.295 0.93-1.095q0.36-0.6 0.235-1.375t-0.58-1.55-1.175-1.515q0.32-0.21 0.665-0.21t0.645 0.175 0.625 0.415 0.61 0.505 0.595 0.46 0.58 0.265 0.57-0.080q0.46-0.24 0.685-0.855t0.015-1.065q-0.12-0.26-0.365-0.455t-0.475-0.305-0.64-0.2-0.63-0.12-0.7-0.075-0.61-0.055q0.36-0.090 0.8-0.275t0.92-0.47 0.805-0.685 0.335-0.82q0.030-0.69-0.665-1.315t-1.385-0.545q-0.25 0.030-0.47 0.14t-0.4 0.325-0.315 0.41-0.275 0.53-0.22 0.525-0.205 0.565-0.175 0.505q-0.16-2.23-0.98-2.95-0.55-0.43-1.060-0.38t-0.88 0.465-0.38 0.965q-0.010 0.31 0.19 0.625t0.49 0.56 0.605 0.545 0.53 0.57 0.27 0.635-0.165 0.735q-0.78-0.6-1.575-0.965t-1.555-0.44-1.33 0.265q-0.7 0.45-1.63 1.69 1.68 1.78 3.090 2.72 0.15 0.11 0.185 0.29t-0.075 0.33q-0.1 0.16-0.285 0.195t-0.335-0.075q-1.38-0.94-3.1-2.71-0.71 1.050-1.34 2.23 1.57 1.58 2.79 2.41 0.15 0.11 0.18 0.29t-0.070 0.33q-0.1 0.16-0.285 0.195t-0.345-0.075q-1.17-0.8-2.71-2.32-1.43 2.82-2.12 5.24t-0.050 2.99z" fill="#000000"></path>
</svg>
