<?xml version="1.0" encoding="utf-8"?>
<!-- Generated by IcoMoon.io -->
<!DOCTYPE svg PUBLIC "-//W3C//DTD SVG 1.1//EN" "http://www.w3.org/Graphics/SVG/1.1/DTD/svg11.dtd">
<svg version="1.1" xmlns="http://www.w3.org/2000/svg" xmlns:xlink="http://www.w3.org/1999/xlink" width="20" height="20" viewBox="0 0 20 20">
<g>
</g>
	<path d="M13 13.14l1.17-5.94q0.6-0.33 0.965-0.915t0.365-1.285q0-1.040-0.73-1.77t-1.77-0.73-1.77 0.73-0.73 1.77q0 0.7 0.365 1.285t0.965 0.915zM13 3.5q0.62 0 1.060 0.44t0.44 1.060-0.44 1.060-1.060 0.44-1.060-0.44-0.44-1.060 0.44-1.060 1.060-0.44zM14.72 8.3l3.28-1.33v9l-4.88 2.030-6.12-2.030-5 2v-9l5-2 4.27 1.41 1.73 7.3z" fill="#000000"></path>
</svg>
