<?xml version="1.0" encoding="utf-8"?>
<!-- Generated by IcoMoon.io -->
<!DOCTYPE svg PUBLIC "-//W3C//DTD SVG 1.1//EN" "http://www.w3.org/Graphics/SVG/1.1/DTD/svg11.dtd">
<svg version="1.1" xmlns="http://www.w3.org/2000/svg" xmlns:xlink="http://www.w3.org/1999/xlink" width="20" height="20" viewBox="0 0 20 20">
<g>
</g>
	<path d="M10.2 3.28q1.73 0 3.235 0.79t2.475 2.16 1.21 3.050h2.080l-3.5 4-3.5-4h2.32q-0.34-1.49-1.545-2.47t-2.775-0.98q-1.060 0-1.99 0.48t-1.55 1.3l-1.71-1.95q0.98-1.12 2.345-1.75t2.905-0.63zM9.8 16.72q-1.3 0-2.495-0.465t-2.105-1.265-1.525-1.905-0.795-2.365h-2.080l3.5-4q0.59 0.67 1.755 2t1.745 2h-2.32q0.34 1.49 1.545 2.47t2.775 0.98q1.060 0 1.99-0.48t1.55-1.3l1.71 1.95q-0.98 1.12-2.34 1.75t-2.91 0.63z" fill="#000000"></path>
</svg>
