<?xml version="1.0" encoding="utf-8"?>
<!-- Generated by IcoMoon.io -->
<!DOCTYPE svg PUBLIC "-//W3C//DTD SVG 1.1//EN" "http://www.w3.org/Graphics/SVG/1.1/DTD/svg11.dtd">
<svg version="1.1" xmlns="http://www.w3.org/2000/svg" xmlns:xlink="http://www.w3.org/1999/xlink" width="20" height="20" viewBox="0 0 20 20">
<g>
</g>
	<path d="M8 5q0-0.41-0.295-0.705t-0.705-0.295h-5q-0.41 0-0.705 0.295t-0.295 0.705q0 0.42 0.305 0.71t0.695 0.29h5q0.41 0 0.705-0.295t0.295-0.705zM14 10l4-4v10l-4-4v-2zM13 14v-6q0-0.41-0.295-0.705t-0.705-0.295h-8q-0.41 0-0.705 0.295t-0.295 0.705v6q0 0.41 0.295 0.705t0.705 0.295h8q0.41 0 0.705-0.295t0.295-0.705z" fill="#000000"></path>
</svg>
