<?xml version="1.0" encoding="utf-8"?>
<!-- Generated by IcoMoon.io -->
<!DOCTYPE svg PUBLIC "-//W3C//DTD SVG 1.1//EN" "http://www.w3.org/Graphics/SVG/1.1/DTD/svg11.dtd">
<svg version="1.1" xmlns="http://www.w3.org/2000/svg" xmlns:xlink="http://www.w3.org/1999/xlink" width="20" height="20" viewBox="0 0 20 20">
<g>
</g>
	<path d="M20 10q0-2.030-0.795-3.88t-2.135-3.19-3.19-2.135-3.88-0.795-3.885 0.795-3.195 2.135-2.13 3.19-0.79 3.88q0 1.63 0.505 3.155t1.43 2.755 2.155 2.155 2.755 1.43 3.155 0.505q2.030 0 3.88-0.79t3.19-2.13 2.135-3.195 0.795-3.885zM7.78 15.37l-3.41-9.15 1.17-0.080q0.24-0.030 0.32-0.31t-0.030-0.545-0.35-0.255q-1.45 0.11-2.37 0.11-0.37 0-0.58-0.010 1.21-1.86 3.185-2.94t4.285-1.080q1.72 0 3.275 0.61t2.775 1.73q-0.58-0.090-1.115 0.335t-0.535 1.245q0 0.18 0.045 0.375t0.085 0.325 0.16 0.365 0.17 0.315 0.225 0.37 0.215 0.35q0.55 0.96 0.55 2.46 0 0.66-0.35 1.91t-0.7 2.17l-0.35 0.92-3.030-8.37q0.24-0.010 0.445-0.050t0.295-0.080l0.080-0.040q0.24-0.020 0.32-0.33t-0.030-0.605-0.35-0.285q-1.44 0.12-2.38 0.12-0.39 0-0.97-0.030t-0.97-0.060l-0.39-0.030q-0.24-0.010-0.35 0.29t-0.030 0.61 0.32 0.32l0.92 0.080 1.26 3.41zM17.41 10q0.12-0.32 0.175-0.47t0.165-0.605 0.145-0.85 0.035-1.020-0.090-1.305q1.050 1.93 1.050 4.25 0 2.45-1.19 4.535t-3.21 3.245q2.47-6.61 2.92-7.78zM6.1 18.090q-2.26-1.090-3.625-3.28t-1.365-4.81q0-1.96 0.72-3.59 3.36 9.21 4.27 11.68zM10.13 11.46l2.58 6.98q-1.33 0.45-2.71 0.45-1.21 0-2.29-0.33 0.28-0.83 1.125-3.295t1.295-3.805z" fill="#000000"></path>
</svg>
