<svg viewBox="0 0 20 20" xmlns="http://www.w3.org/2000/svg"><symbol viewBox="0 0 20 20" id="admin-appearance"><title>admin-appearance</title> <path d="M14.48 11.060l-7.070-7.070 1.5-1.5c0.5-0.56 2.3-0.47 3.51 0.32 1.21 0.8 1.43 1.28 2.91 2.1 1.18 0.64 2.45 1.26 4.45 0.85zM13.77 11.77l-7.070-7.070-1.77 1.77c-0.39 0.39-0.39 1.020 0 1.41l1.060 1.060c0.39 0.39 0.39 1.030 0 1.42-0.6 0.6-1.43 1.11-2.21 1.69-0.35 0.26-0.7 0.53-1.010 0.84-1.34 1.34-2.37 3.19-1.37 4.18 0.99 1 2.84-0.030 4.18-1.36 0.31-0.31 0.58-0.66 0.85-1.020 0.57-0.78 1.080-1.61 1.69-2.21 0.39-0.39 1.020-0.39 1.41 0l1.060 1.060c0.39 0.39 1.020 0.39 1.41 0z"/> </symbol><symbol viewBox="0 0 20 20" id="admin-collapse"><title>admin-collapse</title> <path d="M10 2.16c4.33 0 7.84 3.51 7.84 7.84s-3.51 7.84-7.84 7.84-7.84-3.51-7.84-7.84 3.55-7.84 7.84-7.84zM12 13.88v-7.76l-5.82 3.85z"/> </symbol><symbol viewBox="0 0 20 20" id="admin-comments"><title>admin-comments</title> <path d="M5 2h9c1.1 0 2 0.9 2 2v7c0 1.1-0.9 2-2 2h-2l-5 5v-5h-2c-1.1 0-2-0.9-2-2v-7c0-1.1 0.9-2 2-2z"/> </symbol><symbol viewBox="0 0 20 20" id="admin-customizer"><title>admin-customizer</title> <path d="M18.33 3.57c0 0 0.27-0.8-0.31-1.36-0.53-0.52-1.22-0.24-1.22-0.24-0.61 0.3-5.76 3.47-7.67 5.57-0.86 0.96-2.060 3.79-1.090 4.82 0.92 0.98 3.96-0.17 4.79-1 2.060-2.060 5.21-7.17 5.5-7.79zM1.4 17.65c2.37-1.56 1.46-3.41 3.23-4.64 0.93-0.65 2.22-0.62 3.080 0.29 0.63 0.67 0.8 2.57-0.16 3.46-1.57 1.45-4 1.55-6.15 0.89z"/> </symbol><symbol viewBox="0 0 20 20" id="admin-generic"><title>admin-generic</title> <path d="M18 12h-2.18c-0.17 0.7-0.44 1.35-0.81 1.93l1.54 1.54-2.1 2.1-1.54-1.54c-0.58 0.36-1.23 0.63-1.91 0.79v2.18h-3v-2.18c-0.68-0.16-1.33-0.43-1.91-0.79l-1.54 1.54-2.12-2.12 1.54-1.54c-0.36-0.58-0.63-1.23-0.79-1.91h-2.18v-2.97h2.17c0.16-0.7 0.44-1.35 0.8-1.94l-1.54-1.54 2.1-2.1 1.54 1.54c0.58-0.37 1.24-0.64 1.93-0.81v-2.18h3v2.18c0.68 0.16 1.33 0.43 1.91 0.79l1.54-1.54 2.12 2.12-1.54 1.54c0.36 0.59 0.64 1.24 0.8 1.94h2.17v2.97zM9.5 13.5c1.66 0 3-1.34 3-3s-1.34-3-3-3-3 1.34-3 3 1.34 3 3 3z"/> </symbol><symbol viewBox="0 0 20 20" id="admin-home"><title>admin-home</title> <path d="M16 8.5l1.53 1.53-1.060 1.060-6.47-6.47-6.47 6.47-1.060-1.060 7.53-7.53 4 4v-2h2v4zM10 6.040l6 5.99v5.97h-12v-5.97zM12 17v-5h-4v5h4z"/> </symbol><symbol viewBox="0 0 20 20" id="admin-links"><title>admin-links</title> <path d="M17.74 2.76c1.68 1.69 1.68 4.41 0 6.1l-1.53 1.52c-1.12 1.12-2.7 1.47-4.14 1.090l2.62-2.61 0.76-0.77 0.76-0.76c0.84-0.84 0.84-2.2 0-3.040-0.84-0.85-2.2-0.85-3.040 0l-0.77 0.76-3.38 3.38c-0.37-1.44-0.020-3.020 1.1-4.14l1.52-1.53c1.69-1.68 4.42-1.68 6.1 0zM8.59 13.43l5.34-5.34c0.42-0.42 0.42-1.1 0-1.52-0.44-0.43-1.13-0.39-1.53 0l-5.33 5.34c-0.42 0.42-0.42 1.1 0 1.52 0.44 0.43 1.13 0.39 1.52 0zM7.83 15.72l4.14-4.15c0.38 1.44 0.030 3.020-1.090 4.14l-1.52 1.53c-1.69 1.68-4.41 1.68-6.1 0-1.68-1.68-1.68-4.42 0-6.1l1.53-1.52c1.12-1.12 2.7-1.47 4.14-1.1l-4.14 4.15c-0.85 0.84-0.85 2.2 0 3.050 0.84 0.84 2.2 0.84 3.040 0z"/> </symbol><symbol viewBox="0 0 20 20" id="admin-media"><title>admin-media</title> <path d="M13 11v-7c0-0.55-0.45-1-1-1h-1.67l-1.33-2h-4l-1.33 2h-1.67c-0.55 0-1 0.45-1 1v7c0 0.55 0.45 1 1 1h10c0.55 0 1-0.45 1-1zM7 4.5c1.38 0 2.5 1.12 2.5 2.5s-1.12 2.5-2.5 2.5-2.5-1.12-2.5-2.5 1.12-2.5 2.5-2.5zM14 6h5v10.5c0 1.38-1.12 2.5-2.5 2.5s-2.5-1.12-2.5-2.5 1.12-2.5 2.5-2.5c0.17 0 0.34 0.020 0.5 0.050v-5.050h-3v-3zM10 14.050v-1.050h2v3.5c0 1.38-1.12 2.5-2.5 2.5s-2.5-1.12-2.5-2.5 1.12-2.5 2.5-2.5c0.17 0 0.34 0.020 0.5 0.050z"/> </symbol><symbol viewBox="0 0 20 20" id="admin-multisite"><title>admin-multisite</title> <path d="M14.27 6.87l-4.27-3.73-4.27 3.73-0.73-0.73 5-4.38 5 4.38zM14 8.42l-4.050 3.43-3.95-3.47v-0.74l4-3.5 4 3.5v0.78zM11 9.7v-1.7h-2v1.7h2zM9.27 13.73l-4.27-3.73-4.27 3.73-0.73-0.73 5-4.38 5 4.38zM19.27 13.73l-4.27-3.73-4.27 3.73-0.73-0.73 5-4.38 5 4.38zM5 11l4 3.5v3.5h-8v-3.5zM15 11l4 3.5v3.5h-8v-3.5zM6 17v-2h-2v2h2zM16 17v-2h-2v2h2z"/> </symbol><symbol viewBox="0 0 20 20" id="admin-network"><title>admin-network</title> <path d="M16.95 2.58c1.96 1.95 1.96 5.12 0 7.070-1.51 1.51-3.75 1.84-5.59 1.010l-1.87 3.31-2.99 0.31-1.5 3.72h-3l-1-2 7.95-7.69c-0.92-1.87-0.62-4.18 0.93-5.73 1.95-1.96 5.12-1.96 7.070 0zM14.44 6.37c0.74 0 1.33-0.6 1.33-1.34 0-0.73-0.59-1.33-1.33-1.33-0.73 0-1.33 0.6-1.33 1.33 0 0.74 0.6 1.34 1.33 1.34z"/> </symbol><symbol viewBox="0 0 20 20" id="admin-page"><title>admin-page</title> <path d="M6 15v-13h10v13h-10zM5 16h8v2h-10v-13h2v11z"/> </symbol><symbol viewBox="0 0 20 20" id="admin-plugins"><title>admin-plugins</title> <path d="M13.11 4.36l-3.24 3.24-1.87-1.87 3.24-3.24c0.35-0.34 1.050-0.2 1.56 0.32 0.52 0.51 0.66 1.21 0.31 1.55zM5.11 6.13l0.91-1.12 9.010 9.010-1.19 0.84c-0.71 0.71-2.63 1.16-3.82 1.16h-3.88l-1.24 1.24c-0.59 0.59-1.54 0.59-2.12 0-0.59-0.58-0.59-1.53 0-2.12l1.24-1.24v-3.88c0-1.13 0.4-3.19 1.090-3.89zM12.37 10.1l3.24-3.24c0.34-0.35 1.040-0.21 1.55 0.31 0.52 0.51 0.66 1.21 0.31 1.55l-3.24 3.25z"/> </symbol><symbol viewBox="0 0 20 20" id="admin-post"><title>admin-post</title> <path d="M10.44 3.020l1.82-1.82 6.36 6.35-1.83 1.82c-1.050-0.68-2.48-0.57-3.41 0.36l-0.75 0.75c-0.92 0.93-1.040 2.35-0.35 3.41l-1.83 1.82-2.41-2.41-2.8 2.79c-0.42 0.42-3.38 2.71-3.8 2.29s1.86-3.39 2.28-3.81l2.79-2.79-2.41-2.42 1.83-1.82c1.050 0.69 2.48 0.57 3.4-0.36l0.75-0.75c0.93-0.92 1.050-2.35 0.36-3.41z"/> </symbol><symbol viewBox="0 0 20 20" id="admin-settings"><title>admin-settings</title> <path d="M18 16v-12c0-0.55-0.45-1-1-1h-13c-0.55 0-1 0.45-1 1v12c0 0.55 0.45 1 1 1h13c0.55 0 1-0.45 1-1zM8 11h1c0.55 0 1 0.45 1 1s-0.45 1-1 1h-1v1.5c0 0.28-0.22 0.5-0.5 0.5s-0.5-0.22-0.5-0.5v-1.5h-1c-0.55 0-1-0.45-1-1s0.45-1 1-1h1v-5.5c0-0.28 0.22-0.5 0.5-0.5s0.5 0.22 0.5 0.5v5.5zM13 9h-1c-0.55 0-1-0.45-1-1s0.45-1 1-1h1v-1.5c0-0.28 0.22-0.5 0.5-0.5s0.5 0.22 0.5 0.5v1.5h1c0.55 0 1 0.45 1 1s-0.45 1-1 1h-1v5.5c0 0.28-0.22 0.5-0.5 0.5s-0.5-0.22-0.5-0.5v-5.5z"/> </symbol><symbol viewBox="0 0 20 20" id="admin-site"><title>admin-site</title> <path d="M19 10c0-4.97-4.030-9-9-9s-9 4.030-9 9 4.030 9 9 9 9-4.030 9-9zM8 10.1c-2.84-0.29-4.48-1.17-5.48-2.29 0.97-3.16 3.8-5.48 7.25-5.63-0.84 1.38-1.5 4.13-0.030 5.57-1.51 0.21-2.21-1.86-3.11-1.15-1.43 1.12-0.080 2.67 3.2 3.27 3.29 0.59 3.66 1.58 3.63 3.080-0.030 1.47-0.8 3.3-4.060 4.7 0.090-4.18-2.64-3.84-3.2-5.040 0.2-0.87 0.44-1.78 1.8-2.51zM16.49 5.78c2.15 3.3 1.020 6.080 0.84 6.68-0.77-1.86-2.17-2.29-2.53-3.54-0.32-1.11 0.62-2.23 1.69-3.14z"/> </symbol><symbol viewBox="0 0 20 20" id="admin-tools"><title>admin-tools</title> <path d="M16.68 9.77c-1.34 1.34-3.3 1.67-4.95 0.99l-5.41 6.52c-0.99 0.99-2.59 0.99-3.58 0s-0.99-2.59 0-3.57l6.52-5.42c-0.68-1.65-0.35-3.61 0.99-4.95 1.28-1.28 3.12-1.62 4.72-1.060l-2.89 2.89 2.82 2.82 2.86-2.87c0.53 1.58 0.18 3.39-1.080 4.65zM3.81 16.21c0.4 0.39 1.040 0.39 1.43 0 0.4-0.4 0.4-1.040 0-1.43-0.39-0.4-1.030-0.4-1.43 0-0.39 0.39-0.39 1.030 0 1.43z"/> </symbol><symbol viewBox="0 0 20 20" id="admin-users"><title>admin-users</title> <path d="M10 9.25c-2.27 0-2.73-3.44-2.73-3.44-0.27-1.79 0.55-3.81 2.7-3.81 2.16 0 2.98 2.020 2.71 3.81 0 0-0.41 3.44-2.68 3.44zM10 11.82l2.72-1.82c2.39 0 4.52 2.33 4.52 4.53v2.49s-3.65 1.13-7.24 1.13c-3.65 0-7.24-1.13-7.24-1.13v-2.49c0-2.25 1.94-4.48 4.47-4.48z"/> </symbol><symbol viewBox="0 0 20 20" id="album"><title>album</title> <path d="M0 18h10v-0.26c1.52 0.4 3.17 0.35 4.76-0.24 4.14-1.52 6.27-6.12 4.75-10.26-1.43-3.89-5.58-6-9.51-4.98v-0.26h-10v16zM9 3v14h-8v-14h8zM14.45 11.22c-0.68 1.35-2.32 1.9-3.67 1.23-0.31-0.15-0.57-0.35-0.78-0.59v-3.73c0.8-0.86 2.11-1.13 3.22-0.58 1.35 0.68 1.9 2.32 1.23 3.67zM11.7 10.4c0.22 0.16 0.53 0.12 0.7-0.1 0.16-0.22 0.12-0.53-0.1-0.7s-0.53-0.12-0.7 0.1c-0.16 0.21-0.12 0.53 0.1 0.7zM14.71 14.070c-1.17 0.78-2.56 0.99-3.83 0.69-0.27-0.060-0.44-0.34-0.37-0.61s0.34-0.43 0.62-0.36l0.17 0.040c0.96 0.17 1.98-0.010 2.86-0.59 0.47-0.32 0.86-0.72 1.14-1.18 0.15-0.23 0.45-0.3 0.69-0.16 0.23 0.15 0.3 0.46 0.16 0.69-0.36 0.57-0.84 1.080-1.44 1.48zM15.76 15.64c-1.48 0.99-3.21 1.32-4.84 1.060-0.28-0.050-0.47-0.32-0.41-0.6 0.050-0.27 0.32-0.45 0.61-0.39l0.22 0.040c1.31 0.15 2.68-0.14 3.87-0.94 0.71-0.47 1.27-1.070 1.7-1.74 0.14-0.24 0.45-0.31 0.68-0.16 0.24 0.14 0.31 0.45 0.16 0.69-0.49 0.79-1.16 1.49-1.99 2.040z"/> </symbol><symbol viewBox="0 0 20 20" id="align-center"><title>align-center</title> <path d="M3 5h14v-2h-14v2zM15 13v-6h-10v6h10zM3 17h14v-2h-14v2z"/> </symbol><symbol viewBox="0 0 20 20" id="align-left"><title>align-left</title> <path d="M3 5h14v-2h-14v2zM12 13v-6h-9v6h9zM14 9h3v-2h-3v2zM14 13h3v-2h-3v2zM3 17h14v-2h-14v2z"/> </symbol><symbol viewBox="0 0 20 20" id="align-none"><title>align-none</title> <path d="M3 5h14v-2h-14v2zM13 13v-6h-10v6h10zM3 17h14v-2h-14v2z"/> </symbol><symbol viewBox="0 0 20 20" id="align-right"><title>align-right</title> <path d="M3 5h14v-2h-14v2zM3 9h3v-2h-3v2zM17 13v-6h-9v6h9zM3 13h3v-2h-3v2zM3 17h14v-2h-14v2z"/> </symbol><symbol viewBox="0 0 20 20" id="analytics"><title>analytics</title> <path d="M18 18v-16h-16v16h16zM16 5h-12v-1h12v1zM7 7v3h3c0 1.66-1.34 3-3 3s-3-1.34-3-3 1.34-3 3-3zM8 9v-2c1.1 0 2 0.9 2 2h-2zM16 8h-4v-1h4v1zM16 11h-4v-2h4v2zM16 13h-4v-1h4v1zM16 16h-12v-1h12v1z"/> </symbol><symbol viewBox="0 0 20 20" id="archive"><title>archive</title> <path d="M19 4v2h-18v-2h18zM2 7h16v10h-16v-10zM13 10v-1h-6v1h6z"/> </symbol><symbol viewBox="0 0 20 20" id="arrow-down-alt"><title>arrow-down-alt</title> <path d="M9 2h2v12l4-4 2 1-7 7-7-7 2-1 4 4v-12z"/> </symbol><symbol viewBox="0 0 20 20" id="arrow-down-alt2"><title>arrow-down-alt2</title> <path d="M5 6l5 5 5-5 2 1-7 7-7-7z"/> </symbol><symbol viewBox="0 0 20 20" id="arrow-down"><title>arrow-down</title> <path d="M15 8l-4.030 6-3.97-6h8z"/> </symbol><symbol viewBox="0 0 20 20" id="arrow-left-alt"><title>arrow-left-alt</title> <path d="M18 9v2h-12l4 4-1 2-7-7 7-7 1 2-4 4h12z"/> </symbol><symbol viewBox="0 0 20 20" id="arrow-left-alt2"><title>arrow-left-alt2</title> <path d="M14 5l-5 5 5 5-1 2-7-7 7-7z"/> </symbol><symbol viewBox="0 0 20 20" id="arrow-left"><title>arrow-left</title> <path d="M13 14l-6-4.030 6-3.97v8z"/> </symbol><symbol viewBox="0 0 20 20" id="arrow-right-alt"><title>arrow-right-alt</title> <path d="M2 11v-2h12l-4-4 1-2 7 7-7 7-1-2 4-4h-12z"/> </symbol><symbol viewBox="0 0 20 20" id="arrow-right-alt2"><title>arrow-right-alt2</title> <path d="M6 15l5-5-5-5 1-2 7 7-7 7z"/> </symbol><symbol viewBox="0 0 20 20" id="arrow-right"><title>arrow-right</title> <path d="M8 6l6 4.030-6 3.97v-8z"/> </symbol><symbol viewBox="0 0 20 20" id="arrow-up-alt"><title>arrow-up-alt</title> <path d="M11 18h-2v-12l-4 4-2-1 7-7 7 7-2 1-4-4v12z"/> </symbol><symbol viewBox="0 0 20 20" id="arrow-up-alt2"><title>arrow-up-alt2</title> <path d="M15 14l-5-5-5 5-2-1 7-7 7 7z"/> </symbol><symbol viewBox="0 0 20 20" id="arrow-up"><title>arrow-up</title> <path d="M7 13l4.030-6 3.97 6h-8z"/> </symbol><symbol viewBox="0 0 20 20" id="art"><title>art</title> <path d="M8.55 3.060c1.010 0.34-1.95 2.010-0.1 3.13 1.040 0.63 3.31-2.22 4.45-2.86 0.97-0.54 2.67-0.65 3.53 1.23 1.090 2.38 0.14 8.57-3.79 11.060-3.97 2.5-8.97 1.23-10.7-2.66-2.010-4.53 3.12-11.090 6.61-9.9zM9.76 9.51c0.73 1.64 4.7-0.5 3.79-2.8-0.59-1.49-4.48 1.25-3.79 2.8z"/> </symbol><symbol viewBox="0 0 20 20" id="awards"><title>awards</title> <path d="M4.46 5.16l0.54 2.3-0.54 2.29 2.010 1.24 1.23 2.010 2.3-0.54 2.3 0.54 1.23-2.010 2.010-1.24-0.54-2.29 0.54-2.3-2-1.24-1.24-2.010-2.3 0.55-2.29-0.54-1.25 2zM10.010 11.5c-2.22 0-4.010-1.79-4.010-4.010 0-2.2 1.79-3.99 4.010-3.99 2.2 0 3.99 1.79 3.99 3.99 0 2.22-1.79 4.010-3.99 4.010zM9.99 10.5c-1.66 0-2.99-1.34-2.99-3 0-1.65 1.33-3 2.99-3s3.010 1.35 3.010 3c0 1.66-1.35 3-3.010 3zM13.83 11.6l-1.28 2.24-2.080-0.47 2.53 5.83 1.4-2.2h2.5zM6.13 11.67l1.25 2.25 2.13-0.51-2.51 5.79-1.4-2.2h-2.5z"/> </symbol><symbol viewBox="0 0 20 20" id="backup"><title>backup</title> <path d="M13.65 2.88c3.93 2.010 5.48 6.84 3.47 10.77s-6.83 5.48-10.77 3.47c-1.87-0.96-3.2-2.56-3.86-4.4l1.64-1.030c0.45 1.57 1.52 2.95 3.080 3.76 3.010 1.54 6.69 0.35 8.23-2.66 1.55-3.010 0.36-6.69-2.65-8.24-3.010-1.54-6.69-0.35-8.23 2.66l1.88 0.97-4.95 3.080-0.39-5.82 1.78 0.91c2.020-3.95 6.87-5.46 10.77-3.47zM9.29 10.71c-0.18-0.18-0.29-0.43-0.29-0.71 0-0.070 0.030-0.12 0.040-0.19h-0.010l0.97-4.81 0.97 4.81 3.030 3.19-4.5-2.12 0.020-0.020c-0.080-0.040-0.16-0.090-0.23-0.15z"/> </symbol><symbol viewBox="0 0 20 20" id="book-alt"><title>book-alt</title> <path d="M5 17h13v2h-13c-1.66 0-3-1.34-3-3v-12c0-1.66 1.34-3 3-3h13v14h-13c-0.55 0-1 0.45-1 1s0.45 1 1 1zM7 13.5v-11c0-0.28-0.22-0.5-0.5-0.5s-0.5 0.22-0.5 0.5v11c0 0.28 0.22 0.5 0.5 0.5s0.5-0.22 0.5-0.5z"/> </symbol><symbol viewBox="0 0 20 20" id="book"><title>book</title> <path d="M16 3h2v16h-13c-1.66 0-3-1.34-3-3v-12c0-1.66 1.34-3 3-3h9v14h-9c-0.55 0-1 0.45-1 1s0.45 1 1 1h11v-14z"/> </symbol><symbol viewBox="0 0 20 20" id="building"><title>building</title> <path d="M3 20h14v-20h-14v20zM7 3h-2v-2h2v2zM11 3h-2v-2h2v2zM15 3h-2v-2h2v2zM7 6h-2v-2h2v2zM11 6h-2v-2h2v2zM15 6h-2v-2h2v2zM7 9h-2v-2h2v2zM11 9h-2v-2h2v2zM15 9h-2v-2h2v2zM7 12h-2v-2h2v2zM11 12h-2v-2h2v2zM15 12h-2v-2h2v2zM11 19h-6v-6h6v6zM15 15h-2v-2h2v2zM15 18h-2v-2h2v2z"/> </symbol><symbol viewBox="0 0 20 20" id="businessman"><title>businessman</title> <path d="M7.3 6l-0.030-0.19c-0.040-0.37-0.050-0.73-0.030-1.080 0.020-0.36 0.1-0.71 0.25-1.040 0.14-0.32 0.31-0.61 0.52-0.86s0.49-0.46 0.83-0.6c0.34-0.15 0.72-0.23 1.13-0.23 0.69 0 1.26 0.2 1.71 0.59s0.76 0.87 0.91 1.44 0.18 1.16 0.090 1.78l-0.030 0.19c-0.010 0.090-0.050 0.25-0.11 0.48-0.050 0.24-0.12 0.47-0.2 0.69-0.080 0.21-0.19 0.45-0.34 0.72-0.14 0.27-0.3 0.49-0.47 0.69-0.18 0.19-0.4 0.34-0.67 0.48-0.27 0.13-0.55 0.19-0.86 0.19s-0.59-0.060-0.87-0.19c-0.26-0.13-0.49-0.29-0.67-0.5-0.18-0.2-0.34-0.42-0.49-0.66-0.15-0.25-0.26-0.49-0.34-0.73-0.090-0.25-0.16-0.47-0.21-0.67-0.060-0.21-0.1-0.37-0.12-0.5zM16.5 12.24c0.41 0.7 0.5 1.41 0.5 2.14v2.49c0 0.030-0.12 0.080-0.29 0.13-0.18 0.040-0.42 0.13-0.97 0.27-0.55 0.12-1.1 0.24-1.65 0.34s-1.19 0.19-1.95 0.27c-0.75 0.080-1.46 0.12-2.13 0.12-0.68 0-1.39-0.040-2.14-0.12-0.75-0.070-1.4-0.17-1.98-0.27-0.58-0.11-1.080-0.23-1.56-0.34-0.49-0.11-0.8-0.21-1.060-0.29l-0.27-0.11v-2.49c0-0.75 0.070-1.46 0.46-2.15s0.81-1.25 1.5-1.68c0.7-0.43 2.23-0.55 3.040-0.55l1.67 1.67-0.67 1.33v3l1.020 1.080 0.98-1.080v-3l-0.68-1.33 1.65-1.67c0.77 0 2.2 0.070 2.9 0.52 0.71 0.45 1.21 1.020 1.63 1.72z"/> </symbol><symbol viewBox="0 0 20 20" id="calendar-alt"><title>calendar-alt</title> <path d="M15 4h3v15h-16v-15h3v-1c0-0.41 0.15-0.76 0.44-1.060 0.29-0.29 0.65-0.44 1.060-0.44s0.77 0.15 1.060 0.44c0.29 0.3 0.44 0.65 0.44 1.060v1h4v-1c0-0.41 0.15-0.76 0.44-1.060 0.29-0.29 0.65-0.44 1.060-0.44s0.77 0.15 1.060 0.44c0.29 0.3 0.44 0.65 0.44 1.060v1zM6 3v2.5c0 0.14 0.050 0.26 0.15 0.36 0.090 0.090 0.21 0.14 0.35 0.14s0.26-0.050 0.35-0.14c0.1-0.1 0.15-0.22 0.15-0.36v-2.5c0-0.14-0.050-0.26-0.15-0.35-0.090-0.1-0.21-0.15-0.35-0.15s-0.26 0.050-0.35 0.15c-0.1 0.090-0.15 0.21-0.15 0.35zM13 3v2.5c0 0.14 0.050 0.26 0.14 0.36 0.1 0.090 0.22 0.14 0.36 0.14s0.26-0.050 0.36-0.14c0.090-0.1 0.14-0.22 0.14-0.36v-2.5c0-0.14-0.050-0.26-0.14-0.35-0.1-0.1-0.22-0.15-0.36-0.15s-0.26 0.050-0.36 0.15c-0.090 0.090-0.14 0.21-0.14 0.35zM17 18v-10h-14v10h14zM7 9v2h-2v-2h2zM9 9h2v2h-2v-2zM13 11v-2h2v2h-2zM7 12v2h-2v-2h2zM9 12h2v2h-2v-2zM13 14v-2h2v2h-2zM7 15v2h-2v-2h2zM11 17h-2v-2h2v2zM15 17h-2v-2h2v2z"/> </symbol><symbol viewBox="0 0 20 20" id="calendar"><title>calendar</title> <path d="M15 4h3v14h-16v-14h3v-1c0-0.83 0.67-1.5 1.5-1.5s1.5 0.67 1.5 1.5v1h4v-1c0-0.83 0.67-1.5 1.5-1.5s1.5 0.67 1.5 1.5v1zM6 3v2.5c0 0.28 0.22 0.5 0.5 0.5s0.5-0.22 0.5-0.5v-2.5c0-0.28-0.22-0.5-0.5-0.5s-0.5 0.22-0.5 0.5zM13 3v2.5c0 0.28 0.22 0.5 0.5 0.5s0.5-0.22 0.5-0.5v-2.5c0-0.28-0.22-0.5-0.5-0.5s-0.5 0.22-0.5 0.5zM17 17v-9h-14v9h14zM7 16v-7h-2v7h2zM11 16v-7h-2v7h2zM15 16v-7h-2v7h2z"/> </symbol><symbol viewBox="0 0 20 20" id="camera"><title>camera</title> <path d="M6 5v-2h-3v2h3zM18 15v-11h-9l-2 2h-5v9h16zM11 7c1.66 0 3 1.34 3 3s-1.34 3-3 3-3-1.34-3-3 1.34-3 3-3z"/> </symbol><symbol viewBox="0 0 20 20" id="carrot"><title>carrot</title> <path d="M2 18.43c1.51 1.36 11.64-4.67 13.14-7.21 0.72-1.22-0.13-3.010-1.52-4.44 1.58-1.050 2.97 2.22 4.29 1.53 0.6-0.32 0.99-1.31 0.7-1.92-0.52-1.080-2.25-1.080-3.42-1.21 0.83-0.2 2.82-1.050 2.86-2.25 0.040-0.92-1.13-1.97-2.050-1.86-1.21 0.14-1.65 1.88-2.060 3-0.050-0.71-0.2-2.27-0.98-2.95-1.040-0.91-2.29-0.050-2.32 1.050-0.040 1.33 2.82 2.070 1.92 3.67-1.52-1.17-3.31-1.81-4.46-1.14-0.49 0.31-1.050 0.91-1.63 1.69 0.89 0.94 2.12 2.070 3.090 2.72 0.2 0.14 0.26 0.42 0.11 0.62-0.14 0.21-0.42 0.26-0.62 0.12-0.99-0.67-2.2-1.78-3.1-2.71-0.45 0.67-0.91 1.43-1.34 2.23 0.85 0.86 1.93 1.83 2.79 2.41 0.2 0.14 0.25 0.42 0.11 0.62-0.14 0.21-0.42 0.26-0.63 0.12-0.85-0.58-1.86-1.48-2.71-2.32-1.77 3.49-3.070 7.43-2.17 8.23z"/> </symbol><symbol viewBox="0 0 20 20" id="cart"><title>cart</title> <path d="M6 13h9c0.55 0 1 0.45 1 1s-0.45 1-1 1h-10c-0.55 0-1-0.45-1-1v-10h-2c-0.55 0-1-0.45-1-1s0.45-1 1-1h3c0.55 0 1 0.45 1 1v2h13l-4 7h-9v1zM5.5 16c0.83 0 1.5 0.67 1.5 1.5s-0.67 1.5-1.5 1.5-1.5-0.67-1.5-1.5 0.67-1.5 1.5-1.5zM14.5 16c0.83 0 1.5 0.67 1.5 1.5s-0.67 1.5-1.5 1.5-1.5-0.67-1.5-1.5 0.67-1.5 1.5-1.5z"/> </symbol><symbol viewBox="0 0 20 20" id="category"><title>category</title> <path d="M5 7h13v10h-16v-13h7l2 2h-7v9h1v-8z"/> </symbol><symbol viewBox="0 0 20 20" id="chart-area"><title>chart-area</title> <path d="M18 18l0.010-12.28c0.59-0.35 0.99-0.99 0.99-1.72 0-1.1-0.9-2-2-2s-2 0.9-2 2c0 0.8 0.47 1.48 1.14 1.8l-4.13 6.58c-0.33-0.24-0.73-0.38-1.16-0.38-0.84 0-1.55 0.51-1.85 1.24l-2.14-1.53c0.090-0.22 0.14-0.46 0.14-0.71 0-1.11-0.89-2-2-2-1.1 0-2 0.89-2 2 0 0.73 0.4 1.36 0.98 1.71l-2.98 5.29h17zM17 3c0.55 0 1 0.45 1 1s-0.45 1-1 1-1-0.45-1-1 0.45-1 1-1zM5 10c0.55 0 1 0.45 1 1s-0.45 1-1 1-1-0.45-1-1 0.45-1 1-1zM10.85 13c0.55 0 1 0.45 1 1s-0.45 1-1 1-1-0.45-1-1 0.45-1 1-1z"/> </symbol><symbol viewBox="0 0 20 20" id="chart-bar"><title>chart-bar</title> <path d="M18 18v-16h-4v16h4zM12 18v-11h-4v11h4zM6 18v-8h-4v8h4z"/> </symbol><symbol viewBox="0 0 20 20" id="chart-line"><title>chart-line</title> <path d="M18 3.5c0 0.62-0.38 1.16-0.92 1.38v13.11h-15.090l4.22-6.73c-0.13-0.23-0.21-0.48-0.21-0.76 0-0.83 0.67-1.5 1.5-1.5s1.5 0.67 1.5 1.5c0 0.13-0.020 0.25-0.050 0.37l1.44 0.63c0.27-0.3 0.67-0.5 1.11-0.5 0.18 0 0.35 0.040 0.51 0.090l3.58-6.41c-0.36-0.27-0.59-0.7-0.59-1.18 0-0.83 0.67-1.5 1.5-1.5 0.19 0 0.36 0.040 0.53 0.1l0.050-0.090v0.11c0.54 0.22 0.92 0.76 0.92 1.38zM16.080 16.99v-11.14l-3.29 5.89c0.13 0.23 0.21 0.48 0.21 0.76 0 0.83-0.67 1.5-1.5 1.5s-1.5-0.67-1.5-1.5l0.010-0.070-1.63-0.72c-0.25 0.18-0.55 0.29-0.88 0.29-0.18 0-0.35-0.040-0.51-0.1l-3.2 5.090h12.29z"/> </symbol><symbol viewBox="0 0 20 20" id="chart-pie"><title>chart-pie</title> <path d="M10 10v-7c3.87 0 7 3.13 7 7h-7zM9 4v7h7c0 3.87-3.13 7-7 7s-7-3.13-7-7 3.13-7 7-7z"/> </symbol><symbol viewBox="0 0 20 20" id="clipboard"><title>clipboard</title> <path d="M11.9 0.39l1.4 1.4c1.61 0.19 3.5-0.74 4.61 0.37s0.18 3 0.37 4.61l1.4 1.4c0.39 0.39 0.39 1.020 0 1.41l-9.19 9.2c-0.4 0.39-1.030 0.39-1.42 0l-7.78-7.78c-0.39-0.39-0.39-1.020 0-1.42l9.2-9.19c0.39-0.39 1.020-0.39 1.41 0zM12.48 2.64l-0.58 0.58 4.95 4.95 0.58-0.58c-0.19-0.6-0.2-1.22-0.15-1.82 0.020-0.31 0.050-0.62 0.090-0.92 0.12-1 0.18-1.63-0.17-1.98s-0.98-0.29-1.98-0.17c-0.3 0.040-0.61 0.070-0.92 0.090-0.6 0.050-1.22 0.040-1.82-0.15zM16.5 3.57c0.39 0.39 0.39 1.030 0 1.42s-1.030 0.39-1.42 0-0.39-1.030 0-1.42 1.030-0.39 1.42 0zM9.78 3.93l-0.71 0.7 6.37 6.37 0.7-0.71zM8.36 5.34l-0.7 0.71 6.36 6.36 0.71-0.7zM6.95 6.76l-0.71 0.7 6.37 6.37 0.7-0.71zM5.54 8.17l-0.71 0.71 6.36 6.36 0.71-0.71zM4.12 9.58l-0.71 0.71 6.37 6.37 0.71-0.71z"/> </symbol><symbol viewBox="0 0 20 20" id="clock"><title>clock</title> <path d="M10 2c4.42 0 8 3.58 8 8s-3.58 8-8 8-8-3.58-8-8 3.58-8 8-8zM10 16c3.31 0 6-2.69 6-6s-2.69-6-6-6-6 2.69-6 6 2.69 6 6 6zM9.29 10.71c0.070 0.050 0.14 0.1 0.23 0.15l-0.020 0.020 4.5 2.12-3.030-3.19-0.97-4.81-0.97 4.81h0.010c0 0.020-0.010 0.050-0.020 0.090s-0.020 0.070-0.020 0.1c0 0.28 0.1 0.52 0.29 0.71z"/> </symbol><symbol viewBox="0 0 20 20" id="cloud"><title>cloud</title> <path d="M14.85 10.030c1.76 0.18 3.15 1.66 3.15 3.47 0 1.93-1.57 3.5-3.5 3.5h-10c-1.93 0-3.5-1.57-3.5-3.5 0-1.79 1.34-3.24 3.060-3.46-0.040-0.17-0.060-0.35-0.060-0.54 0-1.38 1.12-2.5 2.5-2.5 0.34 0 0.66 0.070 0.95 0.19 0.66-1.3 2-2.19 3.55-2.19 2.21 0 4 1.79 4 4 0 0.36-0.060 0.7-0.15 1.030z"/> </symbol><symbol viewBox="0 0 20 20" id="controls-back"><title>controls-back</title> <path d="M2 10l10-6v3.6l6-3.6v12l-6-3.6v3.6z"/> </symbol><symbol viewBox="0 0 20 20" id="controls-forward"><title>controls-forward</title> <path d="M18 10l-10 6v-3.6l-6 3.6v-12l6 3.6v-3.6z"/> </symbol><symbol viewBox="0 0 20 20" id="controls-pause"><title>controls-pause</title> <path d="M5 16v-12h3v12h-3zM12 4h3v12h-3v-12z"/> </symbol><symbol viewBox="0 0 20 20" id="controls-play"><title>controls-play</title> <path d="M5 4l10 6-10 6v-12z"/> </symbol><symbol viewBox="0 0 20 20" id="controls-repeat"><title>controls-repeat</title> <path d="M5 7v3l-2 1.5v-6.5h11v-2l4 3.010-4 2.99v-2h-9zM15 13v-3l2-1.5v6.5h-11v2l-4-3.010 4-2.99v2h9z"/> </symbol><symbol viewBox="0 0 20 20" id="controls-skipback"><title>controls-skipback</title> <path d="M11.98 7.63l6-3.6v12l-6-3.6v3.6l-8-4.8v4.8h-2v-12h2v4.8l8-4.8v3.6z"/> </symbol><symbol viewBox="0 0 20 20" id="controls-skipforward"><title>controls-skipforward</title> <path d="M8 12.4l-6 3.6v-12l6 3.6v-3.6l8 4.8v-4.8h2v12h-2v-4.8l-8 4.8v-3.6z"/> </symbol><symbol viewBox="0 0 20 20" id="controls-volumeoff"><title>controls-volumeoff</title> <path d="M2 7h4l5-4v14l-5-4h-4v-6z"/> </symbol><symbol viewBox="0 0 20 20" id="controls-volumeon"><title>controls-volumeon</title> <path d="M2 7h4l5-4v14l-5-4h-4v-6zM14.69 4.54c0.13 0.050 3.31 1.38 3.31 5.46s-3.18 5.41-3.31 5.46c-0.060 0.030-0.13 0.040-0.19 0.040-0.2 0-0.39-0.12-0.46-0.31-0.11-0.26 0.020-0.55 0.27-0.65 0.11-0.050 2.69-1.15 2.69-4.54 0-3.41-2.66-4.53-2.69-4.54-0.25-0.1-0.38-0.39-0.27-0.65 0.1-0.25 0.39-0.38 0.65-0.27zM16 10c0 2.57-2.23 3.43-2.32 3.47-0.060 0.020-0.12 0.030-0.18 0.030-0.2 0-0.39-0.12-0.47-0.32-0.1-0.26 0.040-0.55 0.29-0.65 0.070-0.020 1.68-0.67 1.68-2.53s-1.61-2.51-1.68-2.53c-0.25-0.1-0.38-0.39-0.29-0.65 0.1-0.25 0.39-0.39 0.65-0.29 0.090 0.040 2.32 0.9 2.32 3.47z"/> </symbol><symbol viewBox="0 0 20 20" id="dashboard"><title>dashboard</title> <path d="M3.76 16h12.48c1.1-1.37 1.76-3.11 1.76-5 0-4.42-3.58-8-8-8s-8 3.58-8 8c0 1.89 0.66 3.63 1.76 5zM10 4c0.55 0 1 0.45 1 1s-0.45 1-1 1-1-0.45-1-1 0.45-1 1-1zM6 6c0.55 0 1 0.45 1 1s-0.45 1-1 1-1-0.45-1-1 0.45-1 1-1zM14 6c0.55 0 1 0.45 1 1s-0.45 1-1 1-1-0.45-1-1 0.45-1 1-1zM8.63 11.55l3.37-4.55v6c0 1.1-0.9 2-2 2s-2-0.9-2-2c0-0.57 0.24-1.080 0.63-1.45zM4 10c0.55 0 1 0.45 1 1s-0.45 1-1 1-1-0.45-1-1 0.45-1 1-1zM16 10c0.55 0 1 0.45 1 1s-0.45 1-1 1-1-0.45-1-1 0.45-1 1-1zM11 13c0-0.55-0.45-1-1-1s-1 0.45-1 1 0.45 1 1 1 1-0.45 1-1z"/> </symbol><symbol viewBox="0 0 20 20" id="desktop"><title>desktop</title> <path d="M3 2h14c0.55 0 1 0.45 1 1v10c0 0.55-0.45 1-1 1h-5v2h2c0.55 0 1 0.45 1 1v1h-10v-1c0-0.55 0.45-1 1-1h2v-2h-5c-0.55 0-1-0.45-1-1v-10c0-0.55 0.45-1 1-1zM16 11v-7h-12v7h12zM5 5h9l-9 4v-4z"/> </symbol><symbol viewBox="0 0 20 20" id="dismiss"><title>dismiss</title> <path d="M10 2c4.42 0 8 3.58 8 8s-3.58 8-8 8-8-3.58-8-8 3.58-8 8-8zM15 13l-3-3 3-3-2-2-3 3-3-3-2 2 3 3-3 3 2 2 3-3 3 3z"/> </symbol><symbol viewBox="0 0 20 20" id="download"><title>download</title> <path d="M14.010 4v6h2v-8h-12.010v8h2.010v-6h8zM12.010 6v6h3l-5 6-5-6h3v-6h4z"/> </symbol><symbol viewBox="0 0 20 20" id="edit"><title>edit</title> <path d="M13.89 3.39l2.71 2.72c0.46 0.46 0.42 1.24 0.030 1.64l-8.010 8.020-5.56 1.16 1.16-5.58s7.6-7.63 7.99-8.030c0.39-0.39 1.22-0.39 1.68 0.070zM11.16 6.18l-5.59 5.61 1.11 1.11 5.54-5.65zM8.19 14.41l5.58-5.6-1.070-1.080-5.59 5.6z"/> </symbol><symbol viewBox="0 0 20 20" id="editor-aligncenter"><title>editor-aligncenter</title> <path d="M14 5v-2h-8v2h8zM17 9v-2h-14v2h14zM14 13v-2h-8v2h8zM17 17v-2h-14v2h14z"/> </symbol><symbol viewBox="0 0 20 20" id="editor-alignleft"><title>editor-alignleft</title> <path d="M12 5v-2h-9v2h9zM17 9v-2h-14v2h14zM12 13v-2h-9v2h9zM17 17v-2h-14v2h14z"/> </symbol><symbol viewBox="0 0 20 20" id="editor-alignright"><title>editor-alignright</title> <path d="M17 5v-2h-9v2h9zM17 9v-2h-14v2h14zM17 13v-2h-9v2h9zM17 17v-2h-14v2h14z"/> </symbol><symbol viewBox="0 0 20 20" id="editor-bold"><title>editor-bold</title> <path d="M6 4v13h4.54c1.37 0 2.46-0.33 3.26-1 0.8-0.66 1.2-1.58 1.2-2.77 0-0.84-0.17-1.51-0.51-2.010s-0.9-0.85-1.67-1.030v-0.090c0.57-0.1 1.020-0.4 1.36-0.9s0.51-1.13 0.51-1.91c0-1.14-0.39-1.98-1.17-2.5-0.77-0.53-2.020-0.79-3.74-0.79h-3.78zM8.57 9.15v-2.89h1.36c0.73 0 1.27 0.11 1.61 0.32 0.34 0.22 0.51 0.58 0.51 1.070 0 0.54-0.16 0.92-0.47 1.15s-0.82 0.35-1.51 0.35h-1.5zM8.57 11.34h1.6c1.44 0 2.16 0.53 2.16 1.61 0 0.6-0.17 1.050-0.51 1.34s-0.86 0.43-1.57 0.43h-1.68v-3.38z"/> </symbol><symbol viewBox="0 0 20 20" id="editor-break"><title>editor-break</title> <path d="M16 4h2v9h-11v3l-5-4 5-4v3h9v-7z"/> </symbol><symbol viewBox="0 0 20 20" id="editor-code"><title>editor-code</title> <path d="M9 6l-4 4 4 4-1 2-6-6 6-6zM11 14l4-4-4-4 1-2 6 6-6 6z"/> </symbol><symbol viewBox="0 0 20 20" id="editor-contract"><title>editor-contract</title> <path d="M15.75 6.75l2.25-3.75v14l-2.25-3.75 1.25-1.25h-4v4l1.25-1.25 3.75 2.25h-16l3.75-2.25 1.25 1.25v-4h-4l1.25 1.25-2.25 3.75v-14l2.25 3.75-1.25 1.25h4v-4l-1.25 1.25-3.75-2.25h16l-3.75 2.25-1.25-1.25v4h4z"/> </symbol><symbol viewBox="0 0 20 20" id="editor-customchar"><title>editor-customchar</title> <path d="M10 5.4c1.27 0 2.24 0.36 2.91 1.080 0.66 0.71 1 1.76 1 3.13 0 1.28-0.23 2.37-0.69 3.27-0.47 0.89-1.27 1.52-2.22 2.12v2h6v-2h-3.69c0.92-0.64 1.62-1.34 2.12-2.34 0.49-1.010 0.74-2.13 0.74-3.35 0-1.78-0.55-3.19-1.65-4.22s-2.6-1.55-4.52-1.55-3.43 0.53-4.52 1.57c-1.1 1.040-1.65 2.44-1.65 4.2 0 1.21 0.24 2.31 0.73 3.33 0.48 1.010 1.19 1.71 2.1 2.36h-3.66v2h6v-2c-0.98-0.64-1.8-1.28-2.24-2.17-0.45-0.89-0.67-1.96-0.67-3.22 0-1.37 0.33-2.41 1-3.13 0.66-0.72 1.63-1.080 2.91-1.080z"/> </symbol><symbol viewBox="0 0 20 20" id="editor-expand"><title>editor-expand</title><path d="M7 8h6v4H7zM2 13v4h4l-1.2-1.2L7 12l-3.8 2.2M14 17h4v-4l-1.2 1.2L13 12l2.2 3.8M14 3l1.3 1.3L13 8l3.8-2.2L18 7V3M6 3H2v4l1.2-1.2L7 8 4.7 4.3"/></symbol><symbol viewBox="0 0 20 20" id="editor-help"><title>editor-help</title> <path d="M17 10c0-3.87-3.14-7-7-7-3.87 0-7 3.13-7 7s3.13 7 7 7c3.86 0 7-3.13 7-7zM10.7 11.48h-1.56v-0.43c0-0.38 0.080-0.7 0.24-0.98s0.46-0.57 0.88-0.89c0.41-0.29 0.68-0.53 0.81-0.71 0.14-0.18 0.2-0.39 0.2-0.62 0-0.25-0.090-0.44-0.28-0.58-0.19-0.13-0.45-0.19-0.79-0.19-0.58 0-1.25 0.19-2 0.57l-0.64-1.28c0.87-0.49 1.8-0.74 2.77-0.74 0.81 0 1.45 0.2 1.92 0.58 0.48 0.39 0.71 0.91 0.71 1.55 0 0.43-0.090 0.8-0.29 1.11-0.19 0.32-0.57 0.67-1.11 1.060-0.38 0.28-0.61 0.49-0.71 0.63-0.1 0.15-0.15 0.34-0.15 0.57v0.35zM9.23 14.22c-0.18-0.17-0.27-0.42-0.27-0.73 0-0.33 0.080-0.58 0.26-0.75s0.43-0.25 0.77-0.25c0.32 0 0.57 0.090 0.75 0.26s0.27 0.42 0.27 0.74c0 0.3-0.090 0.55-0.27 0.72-0.18 0.18-0.43 0.27-0.75 0.27-0.33 0-0.58-0.090-0.76-0.26z"/> </symbol><symbol viewBox="0 0 20 20" id="editor-indent"><title>editor-indent</title> <path d="M3 5v-2h9v2h-9zM13 4v-1h4v1h-4zM13 7h2v-2l4 3.5-4 3.5v-2h-2v-3zM3 8v-2h9v2h-9zM5 11v-2h7v2h-7zM3 14v-2h9v2h-9zM13 14v-1h4v1h-4zM9 17v-2h3v2h-3z"/> </symbol><symbol viewBox="0 0 20 20" id="editor-insertmore"><title>editor-insertmore</title> <path d="M17 7v-4h-14v4h14zM6 11v-2h-3v2h3zM12 11v-2h-4v2h4zM17 11v-2h-3v2h3zM17 17v-4h-14v4h14z"/> </symbol><symbol viewBox="0 0 20 20" id="editor-italic"><title>editor-italic</title> <path d="M14.78 6h-2.13l-2.8 9h2.12l-0.62 2h-6.75l0.62-2h2.14l2.8-9h-2.13l0.62-2h6.75z"/> </symbol><symbol viewBox="0 0 20 20" id="editor-justify"><title>editor-justify</title> <path d="M2 3h16v2h-16v-2zM2 7h16v2h-16v-2zM2 11h16v2h-16v-2zM2 15h16v2h-16v-2z"/> </symbol><symbol viewBox="0 0 20 20" id="editor-kitchensink"><title>editor-kitchensink</title> <path d="M19 2v6h-18v-6h18zM18 7v-4h-16v4h16zM5 4v2h-2v-2h2zM8 4v2h-2v-2h2zM11 4v2h-2v-2h2zM14 4v2h-2v-2h2zM17 4v2h-2v-2h2zM19 9v9h-18v-9h18zM18 17v-7h-16v7h16zM5 11v2h-2v-2h2zM8 11v2h-2v-2h2zM11 11v2h-2v-2h2zM17 11v2h-5v-2h5zM11 14v2h-8v-2h8zM14 14v2h-2v-2h2zM17 14v2h-2v-2h2z"/> </symbol><symbol viewBox="0 0 20 20" id="editor-ol"><title>editor-ol</title> <path d="M6 7v-4h-0.69l-1.29 1.030 0.4 0.51 0.46-0.37c0.060-0.050 0.16-0.14 0.3-0.28l-0.020 0.42v2.69h0.84zM8 5h9v1h-9v-1zM6.77 11.95v-0.7h-1.72v-0.040l0.51-0.48c0.33-0.31 0.57-0.54 0.7-0.71 0.14-0.17 0.24-0.33 0.3-0.49 0.070-0.16 0.1-0.33 0.1-0.51 0-0.21-0.050-0.4-0.16-0.56-0.1-0.16-0.25-0.28-0.44-0.37s-0.41-0.14-0.65-0.14c-0.19 0-0.36 0.020-0.51 0.060-0.15 0.030-0.29 0.090-0.42 0.15-0.12 0.070-0.29 0.19-0.48 0.35l0.45 0.54c0.16-0.13 0.31-0.23 0.45-0.3 0.15-0.070 0.3-0.1 0.45-0.1 0.14 0 0.26 0.030 0.35 0.11s0.13 0.2 0.13 0.36c0 0.1-0.020 0.2-0.060 0.3s-0.1 0.21-0.19 0.33c-0.090 0.11-0.29 0.32-0.58 0.62l-0.99 1v0.58h2.76zM8 10h9v1h-9v-1zM6.71 13.95c0-0.3-0.12-0.54-0.37-0.71-0.24-0.17-0.58-0.26-1-0.26-0.52 0-0.96 0.13-1.33 0.4l0.4 0.6c0.17-0.11 0.32-0.19 0.46-0.23 0.14-0.050 0.27-0.070 0.41-0.070 0.38 0 0.58 0.15 0.58 0.46 0 0.2-0.070 0.35-0.22 0.43s-0.38 0.12-0.7 0.12h-0.31v0.66h0.31c0.34 0 0.59 0.040 0.75 0.12 0.15 0.080 0.23 0.22 0.23 0.41 0 0.22-0.070 0.37-0.2 0.47-0.14 0.1-0.35 0.15-0.63 0.15-0.19 0-0.38-0.030-0.57-0.080s-0.36-0.12-0.52-0.2v0.74c0.34 0.15 0.74 0.22 1.18 0.22 0.53 0 0.94-0.11 1.22-0.33 0.29-0.22 0.43-0.52 0.43-0.92 0-0.27-0.090-0.48-0.26-0.64s-0.42-0.26-0.74-0.3v-0.020c0.27-0.060 0.49-0.19 0.65-0.37 0.15-0.18 0.23-0.39 0.23-0.65zM8 15h9v1h-9v-1z"/> </symbol><symbol viewBox="0 0 20 20" id="editor-outdent"><title>editor-outdent</title> <path d="M7 4v-1h-4v1h4zM17 5v-2h-9v2h9zM7 7h-2v-2l-4 3.5 4 3.5v-2h2v-3zM17 8v-2h-9v2h9zM15 11v-2h-7v2h7zM17 14v-2h-9v2h9zM7 14v-1h-4v1h4zM11 17v-2h-3v2h3z"/> </symbol><symbol viewBox="0 0 20 20" id="editor-paragraph"><title>editor-paragraph</title> <path d="M15 2h-7.46c-0.83 0-1.59 0.2-2.28 0.6-0.7 0.41-1.25 0.96-1.65 1.65-0.41 0.69-0.61 1.45-0.61 2.27s0.2 1.58 0.61 2.27c0.4 0.69 0.95 1.24 1.65 1.64 0.69 0.41 1.45 0.61 2.28 0.61h0.43v5.96c0 0.27 0.1 0.51 0.29 0.71 0.2 0.19 0.44 0.29 0.71 0.29 0.28 0 0.51-0.1 0.71-0.29 0.2-0.2 0.3-0.44 0.3-0.71v-12c0-0.27 0.090-0.51 0.29-0.71 0.2-0.19 0.44-0.29 0.71-0.29s0.51 0.1 0.71 0.29c0.19 0.2 0.29 0.44 0.29 0.71v12c0 0.27 0.1 0.51 0.3 0.71 0.2 0.19 0.43 0.29 0.71 0.29 0.27 0 0.51-0.1 0.71-0.29 0.19-0.2 0.29-0.44 0.29-0.71v-13h1.010c0.27 0 0.5-0.1 0.7-0.3 0.2-0.19 0.3-0.43 0.3-0.7s-0.1-0.51-0.3-0.71c-0.2-0.19-0.43-0.29-0.7-0.29z"/> </symbol><symbol viewBox="0 0 20 20" id="editor-paste-text"><title>editor-paste-text</title> <path d="M12.38 2l2.62 3v1h-10v-1l2.64-3h4.74zM10 5c0.55 0 1-0.44 1-1 0-0.55-0.45-1-1-1s-1 0.45-1 1c0 0.56 0.45 1 1 1zM15.45 4h1.55c0.55 0 1 0.45 1 1v12c0 0.56-0.45 1-1 1h-14c-0.55 0-1-0.44-1-1v-12c0-0.55 0.45-1 1-1h1.55l-0.55 0.63v2.37h12v-2.37zM14 11v-2h-8v2h3v5h2v-5h3z"/> </symbol><symbol viewBox="0 0 20 20" id="editor-paste-word"><title>editor-paste-word</title> <path d="M12.38 2l2.62 3v1h-10v-1l2.64-3h4.74zM10 5c0.55 0 1-0.45 1-1s-0.45-1-1-1-1 0.45-1 1 0.45 1 1 1zM18 17v-12c0-0.55-0.45-1-1-1h-1.54l0.54 0.63v2.37h-12v-2.38l0.55-0.62h-1.55c-0.55 0-1 0.45-1 1v12c0 0.55 0.45 1 1 1h14c0.55 0 1-0.45 1-1zM15 9l-2 7h-2l-1-5-1 5h-2.080l-1.92-7h2l1 5 1-5h2l1 5 1-5h2z"/> </symbol><symbol viewBox="0 0 20 20" id="editor-quote"><title>editor-quote</title> <path d="M9.49 13.22c0-0.74-0.2-1.38-0.61-1.9-0.62-0.78-1.83-0.88-2.53-0.72-0.29-1.65 1.11-3.75 2.92-4.65l-1.39-1.95c-2.73 1.3-5.42 4.28-4.96 8.050 0.29 2.38 1.67 3.95 3.62 3.95 0.85 0 1.56-0.25 2.12-0.75s0.83-1.18 0.83-2.030zM17.54 13.22c0-0.74-0.2-1.38-0.61-1.9-0.63-0.78-1.83-0.88-2.53-0.72-0.29-1.65 1.11-3.75 2.92-4.65l-1.39-1.95c-2.73 1.3-5.41 4.28-4.95 8.050 0.29 2.38 1.66 3.95 3.61 3.95 0.85 0 1.56-0.25 2.12-0.75s0.83-1.18 0.83-2.030z"/> </symbol><symbol viewBox="0 0 20 20" id="editor-removeformatting"><title>editor-removeformatting</title> <path d="M14.29 4.59l1.1 1.11c0.41 0.4 0.61 0.94 0.61 1.47v2.12c0 0.53-0.2 1.070-0.61 1.47l-6.63 6.63c-0.4 0.41-0.94 0.61-1.47 0.61s-1.070-0.2-1.47-0.61l-1.11-1.1-1.1-1.11c-0.41-0.4-0.61-0.94-0.61-1.47v-2.12c0-0.54 0.2-1.070 0.61-1.48l6.63-6.62c0.4-0.41 0.94-0.61 1.47-0.61s1.060 0.2 1.47 0.61zM8.080 14.29l6.42-6.42c0.39-0.39 0.39-1.030 0-1.43l-2.14-2.14c-0.19-0.19-0.45-0.29-0.72-0.29s-0.52 0.1-0.71 0.29l-6.42 6.42c-0.39 0.4-0.39 1.040 0 1.43l2.14 2.14c0.38 0.38 1.040 0.38 1.43 0z"/> </symbol><symbol viewBox="0 0 20 20" id="editor-rtl"><title>editor-rtl</title> <path d="M5.52 2h7.43c0.55 0 1 0.45 1 1s-0.45 1-1 1h-1v13c0 0.55-0.45 1-1 1s-1-0.45-1-1v-12c0-0.55-0.45-1-1-1s-1 0.45-1 1v12c0 0.55-0.45 1-1 1s-1-0.45-1-1v-5.96h-0.43c-2.5 0-4.52-2.020-4.52-4.52s2.020-4.52 4.52-4.52zM14 14l5-4-5-4v8z"/> </symbol><symbol viewBox="0 0 20 20" id="editor-spellcheck"><title>editor-spellcheck</title> <path d="M15.84 2.76c0.25 0 0.49 0.040 0.71 0.11 0.23 0.070 0.44 0.16 0.64 0.25l0.35-0.81c-0.52-0.26-1.080-0.39-1.69-0.39-0.58 0-1.090 0.13-1.52 0.37-0.43 0.25-0.76 0.61-0.99 1.080-0.23 0.46-0.34 1.010-0.34 1.63 0 0.99 0.23 1.75 0.7 2.28s1.15 0.79 2.020 0.79c0.6 0 1.13-0.090 1.6-0.26v-0.84c-0.26 0.080-0.51 0.14-0.74 0.19-0.24 0.050-0.49 0.080-0.74 0.080-0.59 0-1.040-0.19-1.34-0.57-0.32-0.37-0.47-0.93-0.47-1.66 0-0.7 0.16-1.25 0.48-1.65 0.33-0.4 0.77-0.6 1.33-0.6zM6.5 8h1.040l-2.24-6h-1.060l-2.24 6h1.030l0.58-1.66h2.29zM8 2v6h2.17c0.67 0 1.19-0.15 1.57-0.46 0.38-0.3 0.56-0.72 0.56-1.26 0-0.4-0.1-0.72-0.3-0.95-0.19-0.24-0.5-0.39-0.93-0.47v-0.040c0.35-0.060 0.6-0.21 0.78-0.44 0.18-0.24 0.28-0.53 0.28-0.88 0-0.52-0.19-0.9-0.56-1.14-0.36-0.24-0.96-0.36-1.79-0.36h-1.78zM8.98 4.48v-1.66h0.85c0.44 0 0.77 0.060 0.97 0.19 0.21 0.12 0.31 0.33 0.31 0.61 0 0.31-0.1 0.53-0.29 0.66-0.18 0.13-0.48 0.2-0.89 0.2h-0.95zM5.64 5.5h-1.74l0.54-1.56c0.14-0.4 0.25-0.76 0.32-1.1l0.15 0.52c0.070 0.23 0.13 0.4 0.17 0.51zM8.98 5.27h0.99c0.44 0 0.76 0.080 0.98 0.23 0.21 0.15 0.32 0.38 0.32 0.69 0 0.34-0.11 0.59-0.32 0.75s-0.52 0.24-0.93 0.24h-1.040v-1.91zM4 13l5 5 9-8-1-1-8 6-4-3z"/> </symbol><symbol viewBox="0 0 20 20" id="editor-strikethrough"><title>editor-strikethrough</title> <path d="M15.82 12.25c0.26 0 0.5-0.020 0.74-0.070 0.23-0.050 0.48-0.12 0.73-0.2v0.84c-0.46 0.17-0.99 0.26-1.58 0.26-0.88 0-1.54-0.26-2.010-0.79-0.39-0.44-0.62-1.040-0.68-1.79h-0.94c0.12 0.21 0.18 0.48 0.18 0.79 0 0.54-0.18 0.95-0.55 1.26-0.38 0.3-0.9 0.45-1.56 0.45h-2.15v-2.5h-1.41l0.93 2.5h-1.030l-0.59-1.67h-2.28l-0.58 1.67h-1.040l0.93-2.5h-0.93v-1h1.31l0.93-2.49h1.060l0.92 2.49h1.78v-2.5h1.77c1 0 1.41 0.17 1.77 0.41 0.37 0.24 0.55 0.62 0.55 1.13 0 0.35-0.090 0.64-0.27 0.87l-0.080 0.090h1.29c0.050-0.4 0.15-0.77 0.31-1.1 0.23-0.46 0.55-0.82 0.98-1.060 0.43-0.25 0.93-0.37 1.51-0.37 0.61 0 1.17 0.12 1.69 0.38l-0.35 0.81c-0.2-0.1-0.42-0.18-0.64-0.25s-0.46-0.11-0.71-0.11c-0.55 0-0.99 0.2-1.31 0.59-0.23 0.29-0.38 0.66-0.44 1.11h2.93v1h-2.95c0.060 0.5 0.2 0.9 0.44 1.19 0.3 0.37 0.75 0.56 1.33 0.56zM4.44 8.96l-0.18 0.54h1.040l-0.22-0.61c-0.040-0.11-0.090-0.28-0.17-0.51-0.070-0.24-0.12-0.41-0.14-0.51-0.080 0.33-0.18 0.69-0.33 1.090zM8.97 7.87v1.63h1.19c0.28-0.020 0.49-0.090 0.64-0.18 0.19-0.13 0.28-0.35 0.28-0.66 0-0.28-0.1-0.48-0.3-0.61-0.2-0.12-0.53-0.18-0.97-0.18h-0.84zM5.64 10.51v-0.010h-1.73v0.010h1.73zM10.92 10.52l-0.030-0.020h-1.92v1.68h1.040c0.4 0 0.71-0.080 0.92-0.23 0.21-0.16 0.31-0.4 0.31-0.74 0-0.31-0.11-0.54-0.32-0.69z"/> </symbol><symbol viewBox="0 0 20 20" id="editor-table"><title>editor-table</title> <path d="M18 17v-14h-16v14h16zM16 7h-12v-2h12v2zM9 11h-5v-2h5v2zM16 11h-5v-2h5v2zM9 15h-5v-2h5v2zM16 15h-5v-2h5v2z"/> </symbol><symbol viewBox="0 0 20 20" id="editor-textcolor"><title>editor-textcolor</title> <path d="M13.23 15h1.9l-4.13-11h-2l-4 11h1.88l1.070-3h4.18zM11.7 10.46h-3.19l1.49-4.86z"/> </symbol><symbol viewBox="0 0 20 20" id="editor-ul"><title>editor-ul</title> <path d="M5.5 7c-0.83 0-1.5-0.67-1.5-1.5 0-0.82 0.67-1.5 1.5-1.5 0.82 0 1.5 0.68 1.5 1.5 0 0.83-0.68 1.5-1.5 1.5zM8 5h9v1h-9v-1zM5.5 12c-0.83 0-1.5-0.67-1.5-1.5 0-0.82 0.67-1.5 1.5-1.5 0.82 0 1.5 0.68 1.5 1.5 0 0.83-0.68 1.5-1.5 1.5zM8 10h9v1h-9v-1zM5.5 17c-0.83 0-1.5-0.67-1.5-1.5 0-0.82 0.67-1.5 1.5-1.5 0.82 0 1.5 0.68 1.5 1.5 0 0.83-0.68 1.5-1.5 1.5zM8 15h9v1h-9v-1z"/> </symbol><symbol viewBox="0 0 20 20" id="editor-underline"><title>editor-underline</title> <path d="M14 5h-2v5.71c0 1.99-1.12 2.98-2.45 2.98-1.32 0-2.55-1-2.55-2.96v-5.73h-2v5.87c0 1.91 1 4.54 4.48 4.54 3.49 0 4.52-2.58 4.52-4.5v-5.91zM14 18v-2h-9v2h9z"/> </symbol><symbol viewBox="0 0 20 20" id="editor-unlink"><title>editor-unlink</title> <path d="M17.74 2.26c1.68 1.69 1.68 4.41 0 6.1l-1.53 1.52c-0.32 0.33-0.69 0.58-1.080 0.77l-2.13-0.65 1.69-1.64 0.76-0.77 0.76-0.76c0.84-0.84 0.84-2.2 0-3.040-0.84-0.85-2.2-0.85-3.040 0l-0.77 0.76-0.76 0.76-1.64 1.69-0.65-2.14c0.19-0.38 0.44-0.75 0.77-1.070l1.52-1.53c1.69-1.68 4.42-1.68 6.1 0zM2 4l8 6-6-8zM6 2l4 8-2-8h-2zM2 6l8 4-8-2v-2zM9.36 13.69l0.64-0.69 0.74 2.35-1.38 1.39c-1.69 1.68-4.41 1.68-6.1 0-1.68-1.68-1.68-4.42 0-6.1l1.39-1.38 2.35 0.74-0.69 0.64-1.52 1.53c-0.85 0.84-0.85 2.2 0 3.040 0.84 0.85 2.2 0.85 3.040 0zM18 16l-8-6 6 8zM14 18l-4-8 2 8h2zM18 14l-8-4 8 2v2z"/> </symbol><symbol viewBox="0 0 20 20" id="editor-video"><title>editor-video</title> <path d="M16 2h-3v1h-6v-1h-3v15h3v-1h6v1h3v-15zM6 3v1h-1v-1h1zM15 3v1h-1v-1h1zM13 4v5h-6v-5h6zM6 5v1h-1v-1h1zM15 5v1h-1v-1h1zM6 7v1h-1v-1h1zM15 7v1h-1v-1h1zM6 9v1h-1v-1h1zM15 9v1h-1v-1h1zM13 10v5h-6v-5h6zM6 11v1h-1v-1h1zM15 11v1h-1v-1h1zM6 13v1h-1v-1h1zM15 13v1h-1v-1h1zM6 15v1h-1v-1h1zM15 15v1h-1v-1h1z"/> </symbol><symbol viewBox="0 0 20 20" id="email-alt"><title>email-alt</title> <path d="M19 14.5v-9c0-0.83-0.67-1.5-1.5-1.5h-14.010c-0.83 0-1.5 0.67-1.5 1.5v9c0 0.83 0.67 1.5 1.5 1.5h14.010c0.83 0 1.5-0.67 1.5-1.5zM17.69 5.39c0.33 0.33 0.15 0.67-0.030 0.84l-4.060 3.72 3.9 4.060c0.12 0.14 0.2 0.36 0.060 0.51-0.13 0.16-0.43 0.15-0.56 0.050l-4.37-3.73-2.14 1.95-2.13-1.95-4.37 3.73c-0.13 0.1-0.43 0.11-0.56-0.050-0.14-0.15-0.060-0.37 0.060-0.51l3.9-4.060-4.060-3.72c-0.18-0.17-0.36-0.51-0.030-0.84s0.67-0.17 0.95 0.070l6.24 5.040 6.25-5.040c0.28-0.24 0.62-0.4 0.95-0.070z"/> </symbol><symbol viewBox="0 0 20 20" id="email-alt2"><title>email-alt2</title> <path d="M18.010 11.18v-8.67c0-1.19-0.9-1.81-2-1.37l-12.010 4.77c-1.1 0.44-2 1.77-2 2.97v8.66c0 1.2 0.9 1.81 2 1.37l12.010-4.77c1.1-0.44 2-1.76 2-2.96zM16.58 3.72l-6.040 9.33-6.65-4.6c-0.1-0.070-0.36-0.32-0.17-0.64 0.21-0.36 0.65-0.21 0.65-0.21l6.3 2.32s4.83-6.34 5.11-6.7c0.13-0.17 0.43-0.34 0.73-0.13 0.29 0.2 0.16 0.49 0.070 0.63z"/> </symbol><symbol viewBox="0 0 20 20" id="email"><title>email</title> <path d="M3.87 4h13.25c1.25 0 1.88 0.59 1.88 1.79v8.42c0 1.19-0.63 1.79-1.88 1.79h-13.25c-1.25 0-1.88-0.6-1.88-1.79v-8.42c0-1.2 0.63-1.79 1.88-1.79zM10.49 12.6l6.74-5.53c0.24-0.2 0.43-0.66 0.13-1.070-0.29-0.41-0.82-0.42-1.17-0.17l-5.7 3.86-5.69-3.86c-0.35-0.25-0.88-0.24-1.17 0.17-0.3 0.41-0.11 0.87 0.13 1.070z"/> </symbol><symbol viewBox="0 0 20 20" id="exerpt-view"><title>exerpt-view</title> <path d="M19 18v-16c0-0.55-0.45-1-1-1h-16c-0.55 0-1 0.45-1 1v16c0 0.55 0.45 1 1 1h16c0.55 0 1-0.45 1-1zM4 3c0.55 0 1 0.45 1 1s-0.45 1-1 1-1-0.45-1-1 0.45-1 1-1zM17 3v6h-11v-6h11zM4 11c0.55 0 1 0.45 1 1s-0.45 1-1 1-1-0.45-1-1 0.45-1 1-1zM17 11v6h-11v-6h11z"/> </symbol><symbol viewBox="0 0 20 20" id="external"><title>external</title> <path d="M9 3h8v8l-2-1v-3.080l-5.6 5.59-1.41-1.41 6.090-6.1h-4.080zM12 15v-3l2-2v7h-11v-11h8l-2 2h-4v7h7z"/> </symbol><symbol viewBox="0 0 20 20" id="facebook-alt"><title>facebook-alt</title> <path d="M8.46 18h2.93v-7.3h2.45l0.37-2.84h-2.82v-1.82c0-0.82 0.23-1.38 1.41-1.38h1.51v-2.55c-0.26-0.030-1.15-0.11-2.19-0.11-2.18 0-3.66 1.33-3.66 3.76v2.1h-2.46v2.84h2.46v7.3z"/> </symbol><symbol viewBox="0 0 20 20" id="facebook"><title>facebook</title> <path d="M2.89 2h14.23c0.49 0 0.88 0.39 0.88 0.88v14.24c0 0.48-0.39 0.88-0.88 0.88h-4.080v-6.2h2.080l0.31-2.41h-2.39v-1.54c0-0.7 0.2-1.18 1.2-1.18h1.28v-2.16c-0.22-0.030-0.98-0.090-1.86-0.090-1.85 0-3.11 1.12-3.11 3.19v1.78h-2.090v2.41h2.090v6.2h-7.66c-0.49 0-0.89-0.4-0.89-0.88v-14.24c0-0.49 0.4-0.88 0.89-0.88z"/> </symbol><symbol viewBox="0 0 20 20" id="feedback"><title>feedback</title> <path d="M2 2h16c0.55 0 1 0.45 1 1v14c0 0.55-0.45 1-1 1h-16c-0.55 0-1-0.45-1-1v-14c0-0.55 0.45-1 1-1zM17 16v-9h-14v9h14zM4 8v1h3v-1h-3zM8 8v3h8v-3h-8zM4 12v1h3v-1h-3zM8 12v3h8v-3h-8z"/> </symbol><symbol viewBox="0 0 20 20" id="filter"><title>filter</title> <path d="M3 4.5v-2s3.34-1 7-1 7 1 7 1v2l-5 7.030v6.97s-1.22-0.090-2.25-0.59-1.75-1.41-1.75-1.41v-4.97z"/> </symbol><symbol viewBox="0 0 20 20" id="flag"><title>flag</title> <path d="M5 18v-15h-2v15h2zM6 12v-8c3-1 7 1 11 0v8c-3 1.27-8-1-11 0z"/> </symbol><symbol viewBox="0 0 20 20" id="format-aside"><title>format-aside</title> <path d="M1 1h18v12l-6 6h-12v-18zM4 4v1h12v-1h-12zM4 8v1h12v-1h-12zM10 13v-1h-6v1h6zM12 17l5-5h-5v5z"/> </symbol><symbol viewBox="0 0 20 20" id="format-audio"><title>format-audio</title> <path d="M6.99 3.080l11.020-2c0.55-0.080 0.99 0.45 0.99 1v12.42c0 1.94-1.57 3.5-3.5 3.5s-3.5-1.56-3.5-3.5c0-1.93 1.57-3.5 3.5-3.5 0.54 0 1.040 0.14 1.5 0.35v-6.27l-9 2v8.92c-0.24 1.7-1.74 3-3.5 3-1.93 0-3.5-1.56-3.5-3.5 0-1.93 1.57-3.5 3.5-3.5 0.54 0 1.040 0.14 1.5 0.35v-8.27c0-0.55 0.44-0.91 0.99-1z"/> </symbol><symbol viewBox="0 0 20 20" id="format-chat"><title>format-chat</title> <path d="M11 6h-0.82c-1.11 0-2.18 1.2-2.18 2.16v1.84l-3 3v-3h-2c-1.1 0-2-0.9-2-2v-5c0-1.1 0.9-2 2-2h6c1.1 0 2 0.9 2 2v3zM11 7h6c1.1 0 2 0.9 2 2v5c0 1.1-0.9 2-2 2h-2v3l-3-3h-1c-1.1 0-2-0.9-2-2v-5c0-1.1 0.9-2 2-2z"/> </symbol><symbol viewBox="0 0 20 20" id="format-gallery"><title>format-gallery</title> <path d="M16 4h1.96c0.57 0 1.040 0.47 1.040 1.040v12.92c0 0.57-0.47 1.040-1.040 1.040h-12.92c-0.57 0-1.040-0.47-1.040-1.040v-1.96h-1.96c-0.57 0-1.040-0.47-1.040-1.040v-12.92c0-0.57 0.47-1.040 1.040-1.040h12.92c0.57 0 1.040 0.47 1.040 1.040v1.96zM3 14h11v-11h-11v11zM8 5.5c0-0.83-0.67-1.5-1.5-1.5s-1.5 0.67-1.5 1.5 0.67 1.5 1.5 1.5 1.5-0.67 1.5-1.5zM10 10c0 0 1-5 3-5v8h-9v-6c2 0 2 3 2 3s0.33-2 2-2 2 2 2 2zM17 17v-11h-1v8.96c0 0.57-0.47 1.040-1.040 1.040h-8.96v1h11z"/> </symbol><symbol viewBox="0 0 20 20" id="format-image"><title>format-image</title> <path d="M2.25 1h15.5c0.69 0 1.25 0.56 1.25 1.25v15.5c0 0.69-0.56 1.25-1.25 1.25h-15.5c-0.69 0-1.25-0.56-1.25-1.25v-15.5c0-0.69 0.56-1.25 1.25-1.25zM17 17v-14h-14v14h14zM10 6c0-1.1-0.9-2-2-2s-2 0.9-2 2 0.9 2 2 2 2-0.9 2-2zM13 11c0 0 0-6 3-6v10c0 0.55-0.45 1-1 1h-10c-0.55 0-1-0.45-1-1v-7c2 0 3 4 3 4s1-3 3-3 3 2 3 2z"/> </symbol><symbol viewBox="0 0 20 20" id="format-quote"><title>format-quote</title> <path d="M8.54 12.74c0-0.87-0.24-1.61-0.72-2.22-0.73-0.92-2.14-1.030-2.96-0.85-0.34-1.93 1.3-4.39 3.42-5.45l-1.63-2.28c-3.2 1.52-6.34 5.020-5.8 9.43 0.34 2.79 1.95 4.63 4.23 4.63 1 0 1.83-0.29 2.48-0.88 0.66-0.59 0.98-1.38 0.98-2.38zM17.97 12.74c0-0.87-0.24-1.61-0.72-2.22-0.73-0.92-2.14-1.030-2.96-0.85-0.34-1.93 1.3-4.39 3.42-5.45l-1.63-2.28c-3.2 1.52-6.34 5.020-5.8 9.43 0.34 2.79 1.95 4.63 4.23 4.63 1 0 1.83-0.29 2.48-0.88 0.66-0.59 0.98-1.38 0.98-2.38z"/> </symbol><symbol viewBox="0 0 20 20" id="format-status"><title>format-status</title> <path d="M10 1c7 0 9 2.91 9 6.5s-2 6.5-9 6.5-9-2.91-9-6.5 2-6.5 9-6.5zM5.5 9c0.83 0 1.5-0.67 1.5-1.5s-0.67-1.5-1.5-1.5-1.5 0.67-1.5 1.5 0.67 1.5 1.5 1.5zM10 9c0.83 0 1.5-0.67 1.5-1.5s-0.67-1.5-1.5-1.5-1.5 0.67-1.5 1.5 0.67 1.5 1.5 1.5zM14.5 9c0.83 0 1.5-0.67 1.5-1.5s-0.67-1.5-1.5-1.5-1.5 0.67-1.5 1.5 0.67 1.5 1.5 1.5zM6 14.5c0.83 0 1.5 0.67 1.5 1.5s-0.67 1.5-1.5 1.5-1.5-0.67-1.5-1.5 0.67-1.5 1.5-1.5zM3 16.5c0.55 0 1 0.45 1 1s-0.45 1-1 1-1-0.45-1-1 0.45-1 1-1z"/> </symbol><symbol viewBox="0 0 20 20" id="format-video"><title>format-video</title> <path d="M2 1h16c0.55 0 1 0.45 1 1v16l-18-0.020v-15.98c0-0.55 0.45-1 1-1zM6 2l-2 3h1l2-3h-1zM10 2h-1l-2 3h1zM13 2h-1l-2 3h1zM16 2h-1l-2 3h1zM17 16v-10h-14v10h14zM8 7l6 4-6 4v-8z"/> </symbol><symbol viewBox="0 0 20 20" id="forms"><title>forms</title> <path d="M2 2h7v7h-7v-7zM11 2v7h7v-7h-7zM5.5 4.5l1.5-1.5h-3zM12 8v-5h5v5h-5zM4.5 5.5l-1.5-1.5v3zM8 4l-1.5 1.5 1.5 1.5v-3zM5.5 6.5l-1.5 1.5h3zM9 18v-7h-7v7h7zM18 18h-7v-7h7v7zM8 12v5h-5v-5h5zM14.5 13.5l1.5-1.5h-3zM12 16l1.5-1.5-1.5-1.5v3zM15.5 14.5l1.5 1.5v-3zM14.5 15.5l-1.5 1.5h3z"/> </symbol><symbol viewBox="0 0 20 20" id="googleplus"><title>googleplus</title> <path d="M6.73 10h5.4c0.050 0.29 0.090 0.57 0.090 0.95 0 3.27-2.19 5.6-5.49 5.6-3.17 0-5.73-2.57-5.73-5.73 0-3.17 2.56-5.73 5.73-5.73 1.54 0 2.84 0.57 3.83 1.5l-1.55 1.5c-0.43-0.41-1.17-0.89-2.28-0.89-1.96 0-3.55 1.62-3.55 3.62 0 1.99 1.59 3.61 3.55 3.61 2.26 0 3.11-1.62 3.24-2.47h-3.24v-1.96zM19 10v1.64h-1.64v1.63h-1.63v-1.63h-1.64v-1.64h1.64v-1.64h1.63v1.64h1.64z"/> </symbol><symbol viewBox="0 0 20 20" id="grid-view"><title>grid-view</title> <path d="M2 1h16c0.55 0 1 0.45 1 1v16c0 0.55-0.45 1-1 1h-16c-0.55 0-1-0.45-1-1v-16c0-0.55 0.45-1 1-1zM9.010 8.99v-6h-6.010v6h6.010zM17.010 8.99v-6h-6v6h6zM9.010 17v-6h-6.010v6h6.010zM17.010 17v-6h-6v6h6z"/> </symbol><symbol viewBox="0 0 20 20" id="groups"><title>groups</title> <path d="M8.030 4.46c-0.29 1.28 0.55 3.46 1.97 3.46 1.41 0 2.25-2.18 1.96-3.46-0.22-0.98-1.080-1.63-1.96-1.63-0.89 0-1.74 0.65-1.97 1.63zM3.9 5.36c-0.25 1.080 0.47 2.93 1.67 2.93s1.92-1.85 1.67-2.93c-0.19-0.83-0.92-1.39-1.67-1.39s-1.48 0.56-1.67 1.39zM12.76 5.36c-0.25 1.080 0.47 2.93 1.66 2.93 1.2 0 1.92-1.85 1.67-2.93-0.19-0.83-0.92-1.39-1.67-1.39-0.74 0-1.47 0.56-1.66 1.39zM12.17 16.79l1.25-4.3c0.78-2.49-0.71-4.020-3.42-4.020-2.72 0-4.21 1.53-3.44 4.020l1.26 4.3c0.23 0.72 1.18 1.21 2.18 1.21 0.98 0 1.94-0.49 2.17-1.21zM6.070 9.16c-0.49 0.67-0.96 1.83-0.42 3.59l1.12 3.79c-0.34 0.2-0.77 0.31-1.2 0.31-0.85 0-1.65-0.41-1.85-1.030l-1.070-3.65c-0.65-2.11 0.61-3.4 2.92-3.4 0.27 0 0.54 0.020 0.79 0.060-0.1 0.1-0.2 0.22-0.29 0.33zM14.42 8.77c2.31 0 3.58 1.29 2.92 3.4l-1.070 3.65c-0.2 0.62-1 1.030-1.85 1.030-0.43 0-0.86-0.11-1.2-0.31l1.11-3.77c0.55-1.78 0.080-2.94-0.42-3.61-0.080-0.11-0.18-0.23-0.28-0.33 0.25-0.040 0.51-0.060 0.79-0.060z"/> </symbol><symbol viewBox="0 0 20 20" id="hammer"><title>hammer</title> <path d="M17.7 6.32l1.41 1.42-3.47 3.41-1.42-1.42 0.84-0.82c-0.32-0.76-0.81-1.57-1.51-2.31l-4.61 6.59-5.26 4.7c-0.39 0.39-1.020 0.39-1.42 0l-1.2-1.21c-0.39-0.39-0.39-1.020 0-1.41l10.97-9.92c-1.37-0.86-3.21-1.46-5.67-1.48 2.7-0.82 4.95-0.93 6.58-0.3 1.7 0.66 2.82 2.2 3.91 3.58z"/> </symbol><symbol viewBox="0 0 20 20" id="heading"><title>heading</title> <polygon points="12.5,4 12.5,9.2 7.5,9.2 7.5,4 5,4 5,17 7.5,17 7.5,11.8 12.5,11.8 12.5,17 15,17 15,4 "/> </symbol><symbol viewBox="0 0 20 20" id="heart"><title>heart</title> <path d="M10 17.12c3.33-1.4 5.74-3.79 7.040-6.21 1.28-2.41 1.46-4.81 0.32-6.25-1.030-1.29-2.37-1.78-3.73-1.74s-2.68 0.63-3.63 1.46c-0.95-0.83-2.27-1.42-3.63-1.46s-2.7 0.45-3.73 1.74c-1.14 1.44-0.96 3.84 0.34 6.25 1.28 2.42 3.69 4.81 7.020 6.21z"/> </symbol><symbol viewBox="0 0 20 20" id="hidden"><title>hidden</title> <path d="M17.2 3.3l0.16 0.17c0.39 0.39 0.39 1.020 0 1.41l-12.81 12.82c-0.39 0.39-1.030 0.39-1.41 0l-0.17-0.17c-0.39-0.39-0.39-1.020 0-1.41l1.59-1.6c-1.57-1-2.76-2.3-3.56-3.93 0.81-1.65 2.030-2.98 3.64-3.99s3.4-1.51 5.36-1.51c1.2 0 2.33 0.21 3.4 0.6l2.38-2.39c0.39-0.39 1.030-0.39 1.42 0zM10.11 7.31c-0.23 0.25-0.34 0.54-0.34 0.88 0 0.31 0.12 0.58 0.31 0.81l1.8-1.79c-0.13-0.12-0.28-0.21-0.45-0.26-0.11-0.010-0.28-0.030-0.49-0.040-0.33 0.030-0.6 0.16-0.83 0.4zM2.4 10.59c0.69 1.23 1.71 2.25 3.050 3.050l1.28-1.28c-0.51-0.69-0.77-1.47-0.77-2.36 0-1.060 0.36-1.98 1.090-2.76-1.040 0.27-1.96 0.7-2.76 1.26-0.8 0.58-1.43 1.27-1.89 2.090zM15.62 8.46l0.96-0.96c1.020 0.86 1.83 1.89 2.42 3.090-0.81 1.65-2.030 2.98-3.64 3.99s-3.4 1.51-5.36 1.51c-0.63 0-1.24-0.070-1.83-0.18l1.070-1.070c0.25 0.020 0.5 0.050 0.76 0.050 1.63 0 3.13-0.4 4.5-1.21s2.4-1.84 3.1-3.090c-0.46-0.82-1.090-1.51-1.89-2.090-0.030-0.010-0.060-0.030-0.090-0.040zM10.040 14.040l4-4c-0.010 1.1-0.41 2.040-1.18 2.81-0.78 0.78-1.72 1.18-2.82 1.19z"/> </symbol><symbol viewBox="0 0 20 20" id="id-alt"><title>id-alt</title> <path d="M18 18h-16v-16h16v16zM8.050 7.53c0.13-0.070 0.24-0.15 0.33-0.24 0.090-0.1 0.17-0.21 0.24-0.34 0.070-0.14 0.13-0.26 0.17-0.37s0.070-0.22 0.1-0.34l0.060-0.24c0-0.040 0.010-0.070 0.010-0.090 0.050-0.32 0.030-0.61-0.040-0.9-0.080-0.28-0.23-0.52-0.46-0.72-0.23-0.19-0.51-0.29-0.86-0.29-0.2 0-0.39 0.040-0.56 0.11-0.17 0.080-0.31 0.18-0.41 0.3-0.11 0.13-0.2 0.27-0.27 0.44-0.070 0.16-0.11 0.33-0.12 0.51s0 0.36 0.010 0.55l0.020 0.090c0.010 0.060 0.030 0.15 0.060 0.25s0.060 0.21 0.1 0.33 0.1 0.25 0.17 0.37c0.080 0.12 0.16 0.23 0.25 0.33s0.2 0.19 0.34 0.25c0.13 0.060 0.28 0.090 0.43 0.090s0.3-0.030 0.43-0.090zM16 5v-1h-5v1h5zM16 7v-1h-5v1h5zM7.62 8.83l-1.38-0.88c-0.41 0-0.79 0.11-1.14 0.32-0.35 0.22-0.62 0.5-0.81 0.85-0.19 0.34-0.29 0.7-0.29 1.070v1.25l0.2 0.050c0.13 0.040 0.31 0.090 0.55 0.14 0.24 0.060 0.51 0.12 0.8 0.17 0.29 0.060 0.62 0.1 1 0.14 0.37 0.040 0.73 0.060 1.070 0.060s0.69-0.020 1.070-0.060 0.7-0.090 0.98-0.14c0.27-0.050 0.54-0.1 0.82-0.17 0.27-0.060 0.45-0.11 0.54-0.13 0.090-0.030 0.16-0.050 0.21-0.060v-1.25c0-0.36-0.1-0.72-0.31-1.070s-0.49-0.64-0.84-0.86-0.72-0.33-1.11-0.33zM16 9v-1h-3v1h3zM16 11v-1h-3v1h3zM16 14v-1h-12v1h12zM16 16v-1h-12v1h12z"/> </symbol><symbol viewBox="0 0 20 20" id="id"><title>id</title> <path d="M18 16h-16v-12h16v12zM7.050 8.53c0.13-0.070 0.24-0.15 0.33-0.24 0.090-0.1 0.17-0.21 0.24-0.34 0.070-0.14 0.13-0.26 0.17-0.37s0.070-0.22 0.1-0.34l0.060-0.24c0-0.040 0.010-0.070 0.010-0.090 0.050-0.32 0.030-0.61-0.040-0.9-0.080-0.28-0.23-0.52-0.46-0.72-0.23-0.19-0.51-0.29-0.86-0.29-0.2 0-0.39 0.040-0.56 0.11-0.17 0.080-0.31 0.18-0.41 0.3-0.11 0.13-0.2 0.27-0.27 0.44-0.070 0.16-0.11 0.33-0.12 0.51s0 0.36 0.010 0.55l0.020 0.090c0.010 0.060 0.030 0.15 0.060 0.25s0.060 0.21 0.1 0.33 0.1 0.25 0.17 0.37c0.080 0.12 0.16 0.23 0.25 0.33s0.2 0.19 0.34 0.25c0.13 0.060 0.28 0.090 0.43 0.090s0.3-0.030 0.43-0.090zM17 9v-4h-5v4h5zM6.62 9.83l-1.38-0.88c-0.41 0-0.79 0.11-1.14 0.32-0.35 0.22-0.62 0.5-0.81 0.85-0.19 0.34-0.29 0.7-0.29 1.070v1.25l0.2 0.050c0.13 0.040 0.31 0.090 0.55 0.14 0.24 0.060 0.51 0.12 0.8 0.17 0.29 0.060 0.62 0.1 1 0.14 0.37 0.040 0.73 0.060 1.070 0.060s0.69-0.020 1.070-0.060 0.7-0.090 0.98-0.14c0.27-0.050 0.54-0.1 0.82-0.17 0.27-0.060 0.45-0.11 0.54-0.13 0.090-0.030 0.16-0.050 0.21-0.060v-1.25c0-0.36-0.1-0.72-0.31-1.070s-0.49-0.64-0.84-0.86-0.72-0.33-1.11-0.33zM17 11v-1h-5v1h5zM17 13v-1h-5v1h5zM17 15v-1h-14v1h14z"/> </symbol><symbol viewBox="0 0 20 20" id="image-crop"><title>image-crop</title> <path d="M19 12v3h-4v4h-3v-4h-8v-8h-4v-3h4v-4h3v4h7l3-3 1 1-3 3v7h4zM11 7h-4v4zM8 12h4v-4z"/> </symbol><symbol viewBox="0 0 20 20" id="image-filter"><title>image-filter</title> <path d="M14 5.87c0-2.2-1.79-4-4-4s-4 1.8-4 4c0 2.21 1.79 4 4 4s4-1.79 4-4zM3.24 10.66c-1.92 1.1-2.57 3.55-1.47 5.46 1.11 1.92 3.55 2.57 5.47 1.47 1.91-1.11 2.57-3.55 1.46-5.47-1.1-1.91-3.55-2.56-5.46-1.46zM12.76 17.59c1.92 1.1 4.36 0.45 5.47-1.46 1.1-1.92 0.45-4.36-1.47-5.47-1.91-1.1-4.36-0.45-5.46 1.46-1.11 1.92-0.45 4.36 1.46 5.47z"/> </symbol><symbol viewBox="0 0 20 20" id="image-flip-horizontal"><title>image-flip-horizontal</title> <path d="M19 3v14h-8v3h-2v-3h-8v-14h8v-3h2v3h8zM10.5 17v-14h-1v14h1zM7 6.5l-4 3.5 4 3.5v-7zM17 10l-4-3.5v7z"/> </symbol><symbol viewBox="0 0 20 20" id="image-flip-vertical"><title>image-flip-vertical</title> <path d="M20 9v2h-3v8h-14v-8h-3v-2h3v-8h14v8h3zM6.5 7h7l-3.5-4zM17 9.5h-14v1h14v-1zM13.5 13h-7l3.5 4z"/> </symbol><symbol viewBox="0 0 20 20" id="image-rotate-left"><title>image-rotate-left</title> <path d="M7 5h-1.95c0-1.74 0.85-2.9 2.95-2.9v-2.1c-3.15 0-5.040 2.11-5.040 5h-1.78l2.62 3.39zM20 1v14h-5v5h-14v-10h9v-9h10zM18 3h-6v7h3v3h3v-10zM13 12h-10v6h10v-6z"/> </symbol><symbol viewBox="0 0 20 20" id="image-rotate-right"><title>image-rotate-right</title> <path d="M15.95 5h-1.95l3.2 3.39 2.62-3.39h-1.78c0-2.89-1.89-5-5.040-5v2.1c2.1 0 2.95 1.16 2.95 2.9zM1 1h10v9h9v10h-14v-5h-5v-14zM3 3v10h3v-3h3v-7h-6zM8 12v6h10v-6h-10z"/> </symbol><symbol viewBox="0 0 20 20" id="image-rotate"><title>image-rotate</title> <path d="M10.25 1.020c5.1 0 8.75 4.040 8.75 9s-3.65 9-8.75 9c-3.2 0-6.020-1.59-7.68-3.99l2.59-1.52c1.1 1.5 2.86 2.51 4.84 2.51 3.3 0 6-2.79 6-6s-2.7-6-6-6c-1.97 0-3.72 1-4.82 2.49l1.82 1.51-6 2v-7l1.89 1.58c1.69-2.17 4.36-3.58 7.36-3.58z"/> </symbol><symbol viewBox="0 0 20 20" id="images-alt"><title>images-alt</title> <path d="M4 15v-3h-2v-10h12v3h2v3h2v10h-12v-3h-2zM11 3c-1.1 0-2 0.9-2 2h4c0-1.1-0.89-2-2-2zM4 11v-5h-1v5h1zM11 8h4c0-1.1-0.89-2-2-2-1.1 0-2 0.9-2 2zM6 14v-5h-1v5h1zM15 13c1.1 0 2-0.89 2-2 0-1.1-0.9-2-2-2s-2 0.9-2 2c0 1.11 0.9 2 2 2zM17 17v-2c-5 0-5-3-10-3v5h10z"/> </symbol><symbol viewBox="0 0 20 20" id="images-alt2"><title>images-alt2</title> <path d="M5 3h14v11h-2v2h-2v2h-14v-11h2v-2h2v-2zM18 13v-9h-12v9h12zM15 9c-1.1 0-2-0.9-2-2s0.9-2 2-2 2 0.9 2 2-0.9 2-2 2zM16 15v-1h-11v-8h-1v9h12zM7 6l10 6h-10v-6zM14 17v-1h-11v-8h-1v9h12z"/> </symbol><symbol viewBox="0 0 20 20" id="index-card"><title>index-card</title> <path d="M1 3.17v14.83h18v-14h-11v-0.83c0-0.32-0.12-0.6-0.35-0.83s-0.51-0.34-0.83-0.34h-4.64c-0.33 0-0.6 0.11-0.83 0.34-0.24 0.23-0.35 0.51-0.35 0.83zM10 6v2h-7v-2h7zM17 6v10h-5v-10h5zM10 10v2h-7v-2h7zM10 14v2h-7v-2h7z"/> </symbol><symbol viewBox="0 0 20 20" id="info"><title>info</title> <path d="M10 2c4.42 0 8 3.58 8 8s-3.58 8-8 8-8-3.58-8-8 3.58-8 8-8zM11 6c0-0.55-0.45-1-1-1s-1 0.45-1 1 0.45 1 1 1 1-0.45 1-1zM11 15v-6h-2v6h2z"/> </symbol><symbol viewBox="0 0 20 20" id="insert"><title>insert</title> <path class="st0" d="M10,1c-5,0-9,4-9,9c0,5,4,9,9,9c5,0,9-4,9-9C19,5,15,1,10,1z M10,17c-3.9,0-7-3.1-7-7s3.1-7,7-7s7,3.1,7,7
	S13.9,17,10,17z M11,6H9v3H6v2h3v3h2v-3h3V9h-3V6z"/> </symbol><symbol viewBox="0 0 20 20" id="laptop"><title>laptop</title> <path d="M3 3h14c0.6 0 1 0.4 1 1v10c0 0.6-0.4 1-1 1h-14c-0.6 0-1-0.4-1-1v-10c0-0.6 0.4-1 1-1zM16 5h-12v8h12v-8zM13 6h-8v4zM19 17v-1h-18v1c0 0.6 0.5 1 1.1 1h15.8c0.6 0 1.1-0.4 1.1-1z"/> </symbol><symbol viewBox="0 0 20 20" id="layout"><title>layout</title> <path d="M2 2h5v11h-5v-11zM8 2h5v5h-5v-5zM14 2h4v16h-4v-16zM8 8h5v5h-5v-5zM2 14h11v4h-11v-4z"/> </symbol><symbol viewBox="0 0 20 20" id="leftright"><title>leftright</title> <path d="M3 10.030l6-4.030v8zM11 6l6 4.030-6 3.97v-8z"/> </symbol><symbol viewBox="0 0 20 20" id="lightbulb"><title>lightbulb</title> <path d="M10 1c3.11 0 5.63 2.52 5.63 5.62 0 1.84-2.030 4.58-2.030 4.58-0.33 0.44-0.6 1.25-0.6 1.8v1c0 0.55-0.45 1-1 1h-4c-0.55 0-1-0.45-1-1v-1c0-0.55-0.27-1.36-0.6-1.8 0 0-2.020-2.74-2.020-4.58 0-3.1 2.51-5.62 5.62-5.62zM7 16.87v-0.87h6v0.87c0 0.62-0.13 1.13-0.75 1.13h-0.25c0 0.62-0.4 1-1.020 1h-2c-0.61 0-0.98-0.38-0.98-1h-0.25c-0.62 0-0.75-0.51-0.75-1.13z"/> </symbol><symbol viewBox="0 0 20 20" id="list-view"><title>list-view</title> <path d="M2 19h16c0.55 0 1-0.45 1-1v-16c0-0.55-0.45-1-1-1h-16c-0.55 0-1 0.45-1 1v16c0 0.55 0.45 1 1 1zM4 3c0.55 0 1 0.45 1 1s-0.45 1-1 1-1-0.45-1-1 0.45-1 1-1zM17 3v2h-11v-2h11zM4 7c0.55 0 1 0.45 1 1s-0.45 1-1 1-1-0.45-1-1 0.45-1 1-1zM17 7v2h-11v-2h11zM4 11c0.55 0 1 0.45 1 1s-0.45 1-1 1-1-0.45-1-1 0.45-1 1-1zM17 11v2h-11v-2h11zM4 15c0.55 0 1 0.45 1 1s-0.45 1-1 1-1-0.45-1-1 0.45-1 1-1zM17 15v2h-11v-2h11z"/> </symbol><symbol viewBox="0 0 20 20" id="location-alt"><title>location-alt</title> <path d="M13 13.14l1.17-5.94c0.79-0.43 1.33-1.25 1.33-2.2 0-1.38-1.12-2.5-2.5-2.5s-2.5 1.12-2.5 2.5c0 0.95 0.54 1.77 1.33 2.2zM13 3.5c0.83 0 1.5 0.67 1.5 1.5s-0.67 1.5-1.5 1.5-1.5-0.67-1.5-1.5 0.67-1.5 1.5-1.5zM14.72 8.3l3.28-1.33v9l-4.88 2.030-6.12-2.030-5 2v-9l5-2 4.27 1.41 1.73 7.3z"/> </symbol><symbol viewBox="0 0 20 20" id="location"><title>location</title> <path d="M10 2c-3.31 0-6 2.69-6 6 0 2.020 1.17 3.71 2.53 4.89 0.43 0.37 1.18 0.96 1.85 1.83 0.74 0.97 1.41 2.010 1.62 2.71 0.21-0.7 0.88-1.74 1.62-2.71 0.67-0.87 1.42-1.46 1.85-1.83 1.36-1.18 2.53-2.87 2.53-4.89 0-3.31-2.69-6-6-6zM10 4.56c1.9 0 3.44 1.54 3.44 3.44s-1.54 3.44-3.44 3.44-3.44-1.54-3.44-3.44 1.54-3.44 3.44-3.44z"/> </symbol><symbol viewBox="0 0 20 20" id="lock"><title>lock</title> <path d="M14 9h1c0.55 0 1 0.45 1 1v7c0 0.55-0.45 1-1 1h-10c-0.55 0-1-0.45-1-1v-7c0-0.55 0.45-1 1-1h1v-3c0-2.21 1.79-4 4-4s4 1.79 4 4v3zM12 9v-3c0-1.1-0.9-2-2-2s-2 0.9-2 2v3h4zM11 16l-0.36-2.15c0.51-0.24 0.86-0.75 0.86-1.35 0-0.83-0.67-1.5-1.5-1.5s-1.5 0.67-1.5 1.5c0 0.6 0.35 1.11 0.86 1.35l-0.36 2.15h2z"/> </symbol><symbol viewBox="0 0 20 20" id="marker"><title>marker</title> <path d="M10 2c4.42 0 8 3.58 8 8s-3.58 8-8 8-8-3.58-8-8 3.58-8 8-8zM10 15c2.76 0 5-2.24 5-5s-2.24-5-5-5-5 2.24-5 5 2.24 5 5 5z"/> </symbol><symbol viewBox="0 0 20 20" id="media-archive"><title>media-archive</title> <path d="M12 2l4 4v12h-12v-16h8zM12 6h3l-3-3v3zM8 3.5v2l1.8-1zM11 5l-1.8 1 1.8 1v-2zM8 6.5v2l1.8-1zM11 8l-1.8 1 1.8 1v-2zM8 9.5v2l1.8-1zM11 11l-1.8 1 1.8 1v-2zM9.5 17c0.83 0 1.62-0.72 1.5-1.63-0.050-0.38-0.49-1.61-0.49-1.61l-1.99-1.1s-0.45 1.95-0.52 2.71c-0.070 0.77 0.67 1.63 1.5 1.63zM9.5 14.61c0.42 0 0.76 0.34 0.76 0.76 0 0.43-0.34 0.77-0.76 0.77s-0.76-0.34-0.76-0.77c0-0.42 0.34-0.76 0.76-0.76z"/> </symbol><symbol viewBox="0 0 20 20" id="media-audio"><title>media-audio</title> <path d="M12 2l4 4v12h-12v-16h8zM12 6h3l-3-3v3zM13 13.26v-5.17c0-0.11-0.040-0.21-0.12-0.29-0.070-0.080-0.16-0.11-0.27-0.1 0 0-3.97 0.71-4.25 0.78-0.29 0.060-0.36 0.32-0.36 0.52v3.37c-0.2-0.090-0.42-0.070-0.6-0.070-0.38 0-0.7 0.13-0.96 0.39-0.26 0.27-0.4 0.58-0.4 0.96 0 0.37 0.14 0.69 0.4 0.95 0.26 0.27 0.58 0.4 0.96 0.4 0.34 0 0.7-0.040 0.96-0.26 0.26-0.23 0.64-0.65 0.64-1.12v-3.32l3-0.6v2.3c-0.67-0.2-1.17 0.040-1.44 0.31-0.26 0.26-0.39 0.58-0.39 0.95 0 0.38 0.13 0.69 0.39 0.96 0.27 0.26 0.71 0.39 1.080 0.39 0.38 0 0.7-0.13 0.96-0.39 0.26-0.27 0.4-0.58 0.4-0.96z"/> </symbol><symbol viewBox="0 0 20 20" id="media-code"><title>media-code</title> <path d="M12 2l4 4v12h-12v-16h8zM9 13l-2-2 2-2-1-1-3 3 3 3zM12 14l3-3-3-3-1 1 2 2-2 2z"/> </symbol><symbol viewBox="0 0 20 20" id="media-default"><title>media-default</title> <path d="M12 2l4 4v12h-12v-16h8zM12 6h3l-3-3v3z"/> </symbol><symbol viewBox="0 0 20 20" id="media-document"><title>media-document</title> <path d="M12 2l4 4v12h-12v-16h8zM5 3v1h6v-1h-6zM12 6h3l-3-3v3zM5 5v1h6v-1h-6zM15 8v-1h-10v1h10zM5 9v1h4v-1h-4zM15 12v-3h-5v3h5zM5 11v1h4v-1h-4zM15 14v-1h-10v1h10zM12 16v-1h-7v1h7z"/> </symbol><symbol viewBox="0 0 20 20" id="media-interactive"><title>media-interactive</title> <path d="M12 2l4 4v12h-12v-16h8zM12 6h3l-3-3v3zM14 14v-6h-8v6h3l-1 2h1l1-2 1 2h1l-1-2h3zM8 11c-0.55 0-1-0.45-1-1s0.45-1 1-1 1 0.45 1 1-0.45 1-1 1zM13 9v2h-3v-2h3zM13 12v1h-6v-1h6z"/> </symbol><symbol viewBox="0 0 20 20" id="media-spreadsheet"><title>media-spreadsheet</title> <path d="M12 2l4 4v12h-12v-16h8zM11 6v-3h-6v3h6zM8 8v-1h-3v1h3zM11 8v-1h-2v1h2zM15 8v-1h-3v1h3zM8 10v-1h-3v1h3zM11 10v-1h-2v1h2zM15 10v-1h-3v1h3zM8 12v-1h-3v1h3zM11 12v-1h-2v1h2zM15 12v-1h-3v1h3zM8 14v-1h-3v1h3zM11 14v-1h-2v1h2zM15 14v-1h-3v1h3zM8 16v-1h-3v1h3zM11 16v-1h-2v1h2z"/> </symbol><symbol viewBox="0 0 20 20" id="media-text"><title>media-text</title> <path d="M12 2l4 4v12h-12v-16h8zM5 3v1h6v-1h-6zM12 6h3l-3-3v3zM5 5v1h6v-1h-6zM15 8v-1h-10v1h10zM15 10v-1h-10v1h10zM15 12v-1h-10v1h10zM11 14v-1h-6v1h6z"/> </symbol><symbol viewBox="0 0 20 20" id="media-video"><title>media-video</title> <path d="M12 2l4 4v12h-12v-16h8zM12 6h3l-3-3v3zM11 14v-3c0-0.27-0.1-0.51-0.29-0.71-0.2-0.19-0.44-0.29-0.71-0.29h-3c-0.27 0-0.51 0.1-0.71 0.29-0.19 0.2-0.29 0.44-0.29 0.71v3c0 0.27 0.1 0.51 0.29 0.71 0.2 0.19 0.44 0.29 0.71 0.29h3c0.27 0 0.51-0.1 0.71-0.29 0.19-0.2 0.29-0.44 0.29-0.71zM14 15v-5l-2 2v1z"/> </symbol><symbol viewBox="0 0 20 20" id="megaphone"><title>megaphone</title> <path d="M18.15 5.94c0.46 1.62 0.38 3.22-0.020 4.48-0.42 1.28-1.26 2.18-2.3 2.48-0.16 0.060-0.26 0.060-0.4 0.060-0.060 0.020-0.12 0.020-0.18 0.020-0.060 0.020-0.14 0.020-0.22 0.020h-6.8l2.22 5.5c0.020 0.14-0.060 0.26-0.14 0.34-0.080 0.1-0.24 0.16-0.34 0.16h-3.020c-0.1 0-0.26-0.060-0.34-0.16-0.080-0.080-0.16-0.2-0.14-0.34l-1-5.5h-1.22l-0.020-0.020c-0.5 0.060-1.080-0.18-1.54-0.62s-0.88-1.080-1.060-1.88c-0.24-0.8-0.2-1.56-0.020-2.2 0.18-0.62 0.58-1.080 1.060-1.3l0.020-0.020 9-5.4c0.1-0.060 0.18-0.1 0.24-0.16 0.060-0.040 0.14-0.080 0.24-0.12 0.16-0.080 0.28-0.12 0.5-0.18 1.040-0.3 2.24 0.1 3.22 0.98s1.84 2.24 2.26 3.86zM15.57 11.92h-0.020c0.4-0.1 0.74-0.34 1.040-0.7 0.58-0.7 0.86-1.76 0.86-3.040 0-0.64-0.1-1.3-0.28-1.98-0.34-1.36-1.020-2.5-1.78-3.24s-1.68-1.1-2.46-0.88c-0.82 0.22-1.4 0.96-1.7 2-0.32 1.040-0.28 2.36 0.060 3.72 0.38 1.36 1 2.5 1.8 3.24 0.78 0.74 1.62 1.1 2.48 0.88zM13.030 4.84c0.22-0.040 0.42-0.020 0.62 0.040 0.38 0.16 0.76 0.48 1.020 1s0.42 1.2 0.42 1.78c0 0.3-0.040 0.56-0.12 0.8-0.18 0.48-0.44 0.84-0.86 0.94-0.34 0.1-0.8-0.060-1.14-0.4s-0.64-0.86-0.78-1.5c-0.18-0.62-0.12-1.24 0.020-1.72s0.48-0.84 0.82-0.94z"/> </symbol><symbol viewBox="0 0 20 20" id="menu-alt"><title>menu-alt</title> <path d="M3 4h14v2h-14v-2zM3 9h14v2h-14v-2zM3 14h14v2h-14v-2z"/> </symbol><symbol viewBox="0 0 20 20" id="menu"><title>menu</title> <path d="M17 7v-2h-14v2h14zM17 11v-2h-14v2h14zM17 15v-2h-14v2h14z"/> </symbol><symbol viewBox="0 0 20 20" id="microphone"><title>microphone</title> <path d="M12 9v-6c0-1.1-0.89-2-2-2-1.12 0-2 0.94-2 2v6c0 1.1 0.9 2 2 2 1.13 0 2-0.94 2-2zM16 9c0 2.97-2.16 5.43-5 5.91v2.090h2c0.56 0 1 0.45 1 1s-0.44 1-1 1h-6c-0.55 0-1-0.45-1-1s0.45-1 1-1h2v-2.090c-2.83-0.48-5-2.94-5-5.91 0-0.55 0.45-1 1-1 0.56 0 1 0.45 1 1 0 2.21 1.8 4 4 4 2.21 0 4-1.79 4-4 0-0.55 0.45-1 1-1 0.56 0 1 0.45 1 1z"/> </symbol><symbol viewBox="0 0 20 20" id="migrate"><title>migrate</title> <path d="M4 6h6v-2h-8v12.010h8v-2.010h-6v-8zM6 8h6v-3l6 5-6 5v-3h-6v-4z"/> </symbol><symbol viewBox="0 0 20 20" id="minus"><title>minus</title> <path d="M4 9h12v2h-12v-2z"/> </symbol><symbol viewBox="0 0 20 20" id="money"><title>money</title> <path d="M0 3h20v12h-0.75c0-1.79-1.46-3.25-3.25-3.25-1.31 0-2.42 0.79-2.94 1.91-0.25-0.1-0.52-0.16-0.81-0.16-0.98 0-1.8 0.63-2.11 1.5h-10.14v-12zM8.37 6.11c-0.060 0.15-0.1 0.31-0.11 0.47s-0.010 0.33 0.010 0.5l0.020 0.080c0.010 0.060 0.020 0.14 0.050 0.23 0.020 0.1 0.060 0.2 0.1 0.31 0.030 0.11 0.090 0.22 0.15 0.33 0.070 0.12 0.15 0.22 0.23 0.31s0.18 0.17 0.31 0.23c0.12 0.060 0.25 0.090 0.4 0.090 0.14 0 0.27-0.030 0.39-0.090s0.22-0.14 0.3-0.22c0.090-0.090 0.16-0.2 0.22-0.32 0.070-0.12 0.12-0.23 0.16-0.33s0.070-0.2 0.090-0.31c0.030-0.11 0.040-0.18 0.050-0.22s0.010-0.070 0.010-0.090c0.050-0.29 0.030-0.56-0.040-0.82s-0.21-0.48-0.41-0.66c-0.21-0.18-0.47-0.27-0.79-0.27-0.19 0-0.36 0.030-0.52 0.1-0.15 0.070-0.28 0.16-0.38 0.28-0.090 0.11-0.17 0.25-0.24 0.4zM12.85 12.15v-1.14c0-0.33-0.1-0.66-0.29-0.98s-0.45-0.59-0.77-0.79c-0.32-0.21-0.66-0.31-1.020-0.31l-1.24 0.84-1.28-0.82c-0.37 0-0.72 0.1-1.040 0.3-0.31 0.2-0.56 0.46-0.74 0.77-0.18 0.32-0.27 0.65-0.27 0.99v1.14l0.18 0.050c0.12 0.040 0.29 0.080 0.51 0.14 0.23 0.050 0.47 0.1 0.74 0.15 0.26 0.050 0.57 0.090 0.91 0.13 0.34 0.030 0.67 0.050 0.99 0.050 0.3 0 0.63-0.020 0.98-0.050 0.34-0.040 0.64-0.080 0.89-0.13 0.25-0.040 0.5-0.1 0.76-0.16l0.5-0.12c0.080-0.020 0.14-0.040 0.19-0.060zM16 12.25c1.52 0 2.75 1.23 2.75 2.75s-1.23 2.75-2.75 2.75c-0.73 0-1.38-0.3-1.87-0.77 0.23-0.35 0.37-0.78 0.37-1.23 0-0.77-0.39-1.46-0.99-1.86 0.43-0.96 1.37-1.64 2.49-1.64zM10.5 15.75c0-0.96 0.79-1.75 1.75-1.75s1.75 0.79 1.75 1.75-0.79 1.75-1.75 1.75-1.75-0.79-1.75-1.75z"/> </symbol><symbol viewBox="0 0 20 20" id="move"><title>move</title> <path d="M19 10l-4 4v-3h-4v4h3l-4 4-4-4h3v-4h-4v3l-4-4 4-4v3h4v-4h-3l4-4 4 4h-3v4h4v-3z"/> </symbol><symbol viewBox="0 0 20 20" id="nametag"><title>nametag</title> <path d="M12 5v-3c0-0.55-0.45-1-1-1h-2c-0.55 0-1 0.45-1 1v3c0 0.55 0.45 1 1 1h2c0.55 0 1-0.45 1-1zM10 2c0.55 0 1 0.45 1 1s-0.45 1-1 1-1-0.45-1-1 0.45-1 1-1zM18 15v-8c0-1.1-0.9-2-2-2h-3v0.33c0 0.92-0.75 1.67-1.67 1.67h-2.66c-0.92 0-1.67-0.75-1.67-1.67v-0.33h-3c-1.1 0-2 0.9-2 2v8c0 1.1 0.9 2 2 2h12c1.1 0 2-0.9 2-2zM17 9v6h-14v-6h14zM9 11c0-0.55-0.22-1-0.5-1s-0.5 0.45-0.5 1 0.22 1 0.5 1 0.5-0.45 0.5-1zM12 11c0-0.55-0.22-1-0.5-1s-0.5 0.45-0.5 1 0.22 1 0.5 1 0.5-0.45 0.5-1zM6.040 12.21c0.92 0.48 2.34 0.79 3.96 0.79s3.040-0.31 3.96-0.79c-0.21 1-1.89 1.79-3.96 1.79s-3.75-0.79-3.96-1.79z"/> </symbol><symbol viewBox="0 0 20 20" id="networking"><title>networking</title> <path d="M18 13h1c0.55 0 1 0.45 1 1.010v2.98c0 0.56-0.45 1.010-1 1.010h-4c-0.55 0-1-0.45-1-1.010v-2.98c0-0.56 0.45-1.010 1-1.010h1v-2h-5v2h1c0.55 0 1 0.45 1 1.010v2.98c0 0.56-0.45 1.010-1 1.010h-4c-0.55 0-1-0.45-1-1.010v-2.98c0-0.56 0.45-1.010 1-1.010h1v-2h-5v2h1c0.55 0 1 0.45 1 1.010v2.98c0 0.56-0.45 1.010-1 1.010h-4c-0.55 0-1-0.45-1-1.010v-2.98c0-0.56 0.45-1.010 1-1.010h1v-2c0-1.1 0.9-2 2-2h5v-2h-1c-0.55 0-1-0.45-1-1.010v-2.98c0-0.56 0.45-1.010 1-1.010h4c0.55 0 1 0.45 1 1.010v2.98c0 0.56-0.45 1.010-1 1.010h-1v2h5c1.1 0 2 0.9 2 2v2z"/> </symbol><symbol viewBox="0 0 20 20" id="no-alt"><title>no-alt</title> <path d="M14.95 6.46l-3.54 3.54 3.54 3.54-1.41 1.41-3.54-3.53-3.53 3.53-1.42-1.42 3.53-3.53-3.53-3.53 1.42-1.42 3.53 3.53 3.54-3.53z"/> </symbol><symbol viewBox="0 0 20 20" id="no"><title>no</title> <path d="M12.12 10l3.53 3.53-2.12 2.12-3.53-3.53-3.54 3.54-2.12-2.12 3.54-3.54-3.54-3.54 2.12-2.12 3.54 3.54 3.54-3.53 2.12 2.12z"/> </symbol><symbol viewBox="0 0 20 20" id="palmtree"><title>palmtree</title> <path d="M8.58 2.39c0.32 0 0.59 0.050 0.81 0.14 1.25 0.55 1.69 2.24 1.7 3.97 0.59-0.82 2.15-2.29 3.41-2.29s2.94 0.73 3.53 3.55c-1.13-0.65-2.42-0.94-3.65-0.94-1.26 0-2.45 0.32-3.29 0.89 0.4-0.11 0.86-0.16 1.33-0.16 1.39 0 2.9 0.45 3.4 1.31 0.68 1.16 0.47 3.38-0.76 4.14-0.14-2.1-1.69-4.12-3.47-4.12-0.44 0-0.88 0.12-1.33 0.38-2.26 1.36-3.26 5.3-3.26 9.74h-5c0-5.53 4.21-9.65 7.68-10.79-0.56-0.090-1.17-0.15-1.82-0.15-1.76 0-3.81 0.44-5.86 1.94 0.76-2.96 2.78-4.1 4.69-4.1 1.25 0 2.45 0.5 3.2 1.29-0.66-2.24-2.49-2.86-4.080-2.86-0.8 0-1.55 0.16-2.050 0.35 0.91-1.29 3.31-2.29 4.82-2.29zM13 11.5c0-0.83-0.67-1.5-1.5-1.5s-1.5 0.67-1.5 1.5 0.67 1.5 1.5 1.5 1.5-0.67 1.5-1.5z"/> </symbol><symbol viewBox="0 0 20 20" id="paperclip"><title>paperclip</title> <path d="M17.050 2.7c1.93 1.94 1.93 5.13 0 7.070l-7.050 7.070c-1.88 1.89-4.91 1.93-6.86 0.15-0.060-0.050-0.13-0.090-0.19-0.15-1.93-1.94-1.93-5.12 0-7.070l4.94-4.95c0.91-0.92 2.28-1.1 3.39-0.58 0.3 0.15 0.59 0.33 0.83 0.58 1.17 1.17 1.17 3.070 0 4.24l-4.93 4.95c-0.39 0.39-1.020 0.39-1.41 0s-0.39-1.020 0-1.41l4.93-4.95c0.39-0.39 0.39-1.020 0-1.41-0.38-0.39-1.020-0.39-1.4 0l-4.94 4.95c-0.91 0.92-1.1 2.29-0.57 3.4 0.14 0.3 0.32 0.59 0.57 0.84s0.54 0.43 0.84 0.57c1.11 0.53 2.47 0.35 3.39-0.57l7.050-7.070c1.16-1.17 1.16-3.080 0-4.25-0.56-0.55-1.28-0.83-2-0.86-0.080 0.010-0.16 0.010-0.24 0-0.22-0.030-0.43-0.11-0.6-0.27-0.39-0.4-0.38-1.050 0.020-1.45 0.16-0.16 0.36-0.24 0.56-0.28 0.14-0.020 0.27-0.010 0.4 0.020 1.19 0.060 2.36 0.52 3.27 1.43z"/> </symbol><symbol viewBox="0 0 20 20" id="performance"><title>performance</title> <path d="M3.76 17.010h12.48c1.1-1.38 1.76-3.11 1.76-5.010 0-4.41-3.58-8-8-8s-8 3.59-8 8c0 1.9 0.66 3.63 1.76 5.010zM9 6c0-0.55 0.45-1 1-1s1 0.45 1 1c0 0.56-0.45 1-1 1s-1-0.44-1-1zM4 8c0-0.55 0.45-1 1-1s1 0.45 1 1c0 0.56-0.45 1-1 1s-1-0.44-1-1zM8.52 11.4c0.84-0.83 6.51-3.5 6.51-3.5s-2.66 5.68-3.49 6.51c-0.84 0.84-2.18 0.84-3.020 0-0.83-0.83-0.83-2.18 0-3.010zM3 13c0-0.55 0.45-1 1-1s1 0.45 1 1c0 0.56-0.45 1-1 1s-1-0.44-1-1zM9 13c0-0.55 0.45-1 1-1s1 0.45 1 1c0 0.56-0.45 1-1 1s-1-0.44-1-1zM15 13c0-0.55 0.45-1 1-1s1 0.45 1 1c0 0.56-0.45 1-1 1s-1-0.44-1-1z"/> </symbol><symbol viewBox="0 0 20 20" id="phone"><title>phone</title> <path d="M12.060 6l-0.21-0.2c-0.52-0.54-0.43-0.79 0.080-1.3l2.72-2.75c0.81-0.82 0.96-1.21 1.73-0.48l0.21 0.2zM12.59 6.45l4.4-4.4c0.7 0.94 2.34 3.47 1.53 5.34-0.73 1.67-1.090 1.75-2 3-1.85 2.11-4.18 4.37-6 6.070-1.26 0.91-1.31 1.33-3 2-1.8 0.71-4.4-0.89-5.38-1.56l4.4-4.4 1.18 1.62c0.34 0.46 1.2-0.060 1.8-0.66 1.040-1.050 3.18-3.18 4-4.070 0.59-0.59 1.12-1.45 0.66-1.8zM1.57 16.5l-0.21-0.21c-0.68-0.74-0.29-0.9 0.52-1.7l2.74-2.72c0.51-0.49 0.75-0.6 1.27-0.11l0.2 0.21z"/> </symbol><symbol viewBox="0 0 20 20" id="playlist-audio"><title>playlist-audio</title> <path d="M17 3v-2h-15v2h15zM17 7v-2h-15v2h15zM10 11v-2h-8v2h8zM17.45 9.040l-6 1.12c-0.16 0.020-0.19 0.030-0.29 0.13-0.11 0.090-0.16 0.22-0.16 0.37v4.59c-0.29-0.13-0.66-0.14-0.93-0.14-0.54 0-1 0.19-1.38 0.57s-0.56 0.84-0.56 1.38c0 0.53 0.18 0.99 0.56 1.37s0.84 0.57 1.38 0.57c0.49 0 0.92-0.16 1.29-0.48s0.59-0.71 0.65-1.19v-4.95l4.99-1.11v3.48c-0.29-0.13-0.56-0.19-0.83-0.19-0.54 0-1.11 0.19-1.49 0.57-0.38 0.37-0.57 0.83-0.57 1.37s0.19 0.99 0.57 1.37 0.84 0.57 1.38 0.57c0.53 0 0.99-0.19 1.37-0.57s0.57-0.83 0.57-1.37v-6.9c0-0.16-0.050-0.3-0.16-0.41-0.11-0.12-0.24-0.17-0.39-0.15zM8 15v-2h-6v2h6zM6 19v-2h-4v2h4z"/> </symbol><symbol viewBox="0 0 20 20" id="playlist-video"><title>playlist-video</title> <path d="M17 3v-2h-15v2h15zM17 7v-2h-15v2h15zM6 11v-2h-4v2h4zM8 9h9c0.55 0 1 0.45 1 1v8c0 0.55-0.45 1-1 1h-9c-0.55 0-1-0.45-1-1v-8c0-0.55 0.45-1 1-1zM11 16l3.33-2-3.33-2v4zM6 15v-2h-4v2h4zM6 19v-2h-4v2h4z"/> </symbol><symbol viewBox="0 0 20 20" id="plus-alt"><title>plus-alt</title> <path d="M15.8 4.2c3.2 3.21 3.2 8.39 0 11.6-3.21 3.2-8.39 3.2-11.6 0-3.2-3.21-3.2-8.39 0-11.6 3.21-3.2 8.39-3.2 11.6 0zM11.5 15.5v-4h4v-3h-4v-4h-3v4h-4v3h4v4h3z"/> </symbol><symbol viewBox="0 0 20 20" id="plus-light"><title>plus-light</title> <path d="M17 9v2h-6v6h-2v-6h-6v-2h6v-6h2v6h6z"/> </symbol><symbol viewBox="0 0 20 20" id="plus"><title>plus</title> <path d="M17 7v3h-5v5h-3v-5h-5v-3h5v-5h3v5h5z"/> </symbol><symbol viewBox="0 0 20 20" id="portfolio"><title>portfolio</title> <path d="M4 5h-3.22c-0.37 0-0.74 0.32-0.69 0.84l1.56 9.99s1.85-7.36 2.21-9.13c0.11-0.53 0.61-0.7 0.98-0.7h5.16s-0.7-2.080-0.77-2.31c-0.12-0.44-0.34-0.69-0.78-0.69h-3.31c-0.36 0-0.7 0.23-0.8 0.64-0.090 0.4-0.34 1.36-0.34 1.36zM8.88 5h-4s0.42-1 0.87-1h2.13c0.48 0 1 1 1 1zM2.67 16.25c-0.31 0.47-0.76 0.75-1.26 0.75h15.73c0.54 0 0.92-0.31 1.030-0.83 0.44-2.19 1.68-8.44 1.68-8.44 0.070-0.5-0.3-0.73-0.62-0.73h-3.23v-1.47c0-0.16-0.26-0.53-0.66-0.53h-3.76c-0.52 0-0.87 0.58-0.87 0.58l-0.71 1.42h-4.41c-0.32 0-0.63 0.19-0.69 0.5 0 0-1.59 6.7-1.72 7.33-0.070 0.37-0.22 0.99-0.51 1.42zM15.38 7h-4.38s0.58-1 1.13-1h2.29c0.71 0 0.96 1 0.96 1z"/> </symbol><symbol viewBox="0 0 20 20" id="post-status"><title>post-status</title> <path d="M14 6c0 1.86-1.28 3.41-3 3.86v6.14c0 1-2 2-2 2v-8.14c-1.72-0.45-3-2-3-3.86 0-2.21 1.79-4 4-4s4 1.79 4 4zM8 5c0 0.55 0.45 1 1 1s1-0.45 1-1-0.45-1-1-1-1 0.45-1 1z"/> </symbol><symbol viewBox="0 0 20 20" id="pressthis"><title>pressthis</title> <path d="M14.76 1c1.79 0 3.24 1.46 3.24 3.25 0 1.78-1.45 3.24-3.24 3.24-0.23 0-0.47-0.030-0.7-0.080l-1.060 1.060v10.53h-11v-15h9.54c0.13-2 1.52-3 3.22-3zM14.76 6.49c1.24 0 2.24-1.010 2.24-2.24 0-1.24-1-2.25-2.24-2.25s-2.24 1.010-2.24 2.25c0 0.37 0.1 0.72 0.27 1.030l-3.22 3.22c-0.28 0.28-1.77 2.22-1.5 2.49 0.020 0.030 0.060 0.040 0.1 0.040 0.49 0 2.14-1.28 2.39-1.53l3.24-3.24c0.29 0.14 0.61 0.23 0.96 0.23z"/> </symbol><symbol viewBox="0 0 20 20" id="products"><title>products</title> <path d="M17 8h1v11h-16v-11h1v-2c0-2.76 2.24-5 5-5 0.71 0 1.39 0.15 2 0.42 0.61-0.27 1.29-0.42 2-0.42 2.76 0 5 2.24 5 5v2zM5 6v2h2v-2c0-1.13 0.39-2.16 1.020-3h-0.020c-1.65 0-3 1.35-3 3zM15 8v-2c0-1.65-1.35-3-3-3h-0.020c0.63 0.84 1.020 1.87 1.020 3v2h2zM10 3.78c-0.61 0.55-1 1.34-1 2.22v2h2v-2c0-0.88-0.39-1.67-1-2.22z"/> </symbol><symbol viewBox="0 0 20 20" id="randomize"><title>randomize</title> <path d="M18 6.010l-4 2.99v-2h-4l-5 8h-3v-2h2l5-8h5v-2zM2 5h3l1.15 2.17-1.12 1.8-1.030-1.97h-2v-2zM18 14.010l-4 2.99v-2h-5l-1.15-2.17 1.12-1.8 1.030 1.97h4v-2z"/> </symbol><symbol viewBox="0 0 20 20" id="redo"><title>redo</title> <path class="st0" d="M8,5h5V2l6,4l-6,4V7H8c-2.2,0-4,1.8-4,4c0,2.2,1.8,4,4,4h5v2H8c-3.3,0-6-2.7-6-6S4.7,5,8,5z"/> </symbol><symbol viewBox="0 0 20 20" id="rss"><title>rss</title> <path d="M14.92 18h3.080c0-8.68-7.18-15.75-16-15.75v3.020c7.12 0 12.92 5.71 12.92 12.73zM9.48 18h3.080c0-5.73-4.74-10.4-10.56-10.4v3.020c2 0 3.87 0.77 5.29 2.16 1.41 1.39 2.19 3.25 2.19 5.22zM4.13 17.98c1.17 0 2.13-0.93 2.13-2.090 0-1.15-0.96-2.090-2.13-2.090-1.18 0-2.13 0.94-2.13 2.090 0 1.16 0.95 2.090 2.13 2.090z"/> </symbol><symbol viewBox="0 0 20 20" id="saved"><title>saved</title> <polygon points="15.3,5.3 8.5,12.1 5.7,9.3 4.3,10.7 8.5,14.9 16.7,6.7 "/> </symbol><symbol viewBox="0 0 20 20" id="schedule"><title>schedule</title> <path d="M2 2h16v4h-16v-4zM2 12v-4h4v4h-4zM8 10v-2h4v2h-4zM14 13v-5h4v5h-4zM8 18v-6h4v6h-4zM2 18v-4h4v4h-4zM14 18v-3h4v3h-4z"/> </symbol><symbol viewBox="0 0 20 20" id="screenoptions"><title>screenoptions</title> <path d="M9 9v-6h-6v6h6zM17 9v-6h-6v6h6zM9 17v-6h-6v6h6zM17 17v-6h-6v6h6z"/> </symbol><symbol viewBox="0 0 20 20" id="search"><title>search</title> <path d="M12.14 4.18c1.87 1.87 2.11 4.75 0.72 6.89 0.12 0.1 0.22 0.21 0.36 0.31 0.2 0.16 0.47 0.36 0.81 0.59 0.34 0.24 0.56 0.39 0.66 0.47 0.42 0.31 0.73 0.57 0.94 0.78 0.32 0.32 0.6 0.65 0.84 1 0.25 0.35 0.44 0.69 0.59 1.040 0.14 0.35 0.21 0.68 0.18 1-0.020 0.32-0.14 0.59-0.36 0.81s-0.49 0.34-0.81 0.36c-0.31 0.020-0.65-0.040-0.99-0.19-0.35-0.14-0.7-0.34-1.040-0.59-0.35-0.24-0.68-0.52-1-0.84-0.21-0.21-0.47-0.52-0.77-0.93-0.1-0.13-0.25-0.35-0.47-0.66-0.22-0.32-0.4-0.57-0.56-0.78-0.16-0.2-0.29-0.35-0.44-0.5-2.070 1.090-4.69 0.76-6.44-0.98-2.14-2.15-2.14-5.64 0-7.78 2.15-2.15 5.63-2.15 7.78 0zM10.73 10.54c1.36-1.37 1.36-3.58 0-4.95-1.37-1.37-3.59-1.37-4.95 0-1.37 1.37-1.37 3.58 0 4.95 1.36 1.37 3.58 1.37 4.95 0z"/> </symbol><symbol viewBox="0 0 20 20" id="share-alt"><title>share-alt</title> <path d="M16.22 5.8c0.47 0.69 0.29 1.62-0.4 2.080-0.69 0.47-1.62 0.29-2.080-0.4-0.16-0.24-0.35-0.46-0.55-0.67-0.21-0.2-0.43-0.39-0.67-0.55s-0.5-0.3-0.77-0.41c-0.27-0.12-0.55-0.21-0.84-0.26-0.59-0.13-1.23-0.13-1.82-0.010-0.29 0.060-0.57 0.15-0.84 0.27-0.27 0.11-0.53 0.25-0.77 0.41s-0.46 0.35-0.66 0.55c-0.21 0.21-0.4 0.43-0.56 0.67s-0.3 0.5-0.41 0.76c-0.010 0.020-0.010 0.030-0.010 0.040-0.1 0.24-0.17 0.48-0.23 0.72h-4.61v-3h2.66c0.040-0.070 0.070-0.13 0.12-0.2 0.27-0.4 0.57-0.77 0.91-1.11s0.72-0.65 1.11-0.91c0.4-0.27 0.83-0.51 1.28-0.7s0.93-0.34 1.41-0.43c0.99-0.21 2.030-0.21 3.020 0 0.48 0.090 0.96 0.24 1.41 0.43s0.88 0.43 1.28 0.7c0.39 0.26 0.77 0.57 1.11 0.91s0.64 0.71 0.91 1.11zM12.5 10c0-1.38-1.12-2.5-2.5-2.5s-2.5 1.12-2.5 2.5 1.12 2.5 2.5 2.5 2.5-1.12 2.5-2.5zM3.78 14.2c-0.47-0.69-0.29-1.62 0.4-2.090 0.69-0.46 1.62-0.28 2.080 0.41 0.16 0.24 0.35 0.46 0.55 0.67 0.21 0.2 0.43 0.39 0.67 0.55s0.5 0.3 0.77 0.41c0.27 0.12 0.55 0.2 0.84 0.26 0.59 0.13 1.23 0.12 1.82 0 0.29-0.060 0.57-0.14 0.84-0.26 0.27-0.11 0.53-0.25 0.77-0.41s0.46-0.35 0.66-0.55c0.21-0.21 0.4-0.44 0.56-0.67 0.16-0.25 0.3-0.5 0.41-0.76 0.010-0.020 0.010-0.030 0.010-0.040 0.1-0.24 0.17-0.48 0.23-0.72h4.61v3h-2.66c-0.040 0.060-0.070 0.13-0.12 0.2-0.27 0.4-0.57 0.77-0.91 1.11s-0.72 0.65-1.11 0.91c-0.4 0.27-0.83 0.51-1.28 0.7s-0.93 0.33-1.41 0.43c-0.99 0.21-2.030 0.21-3.020 0-0.48-0.1-0.96-0.24-1.41-0.43s-0.88-0.43-1.28-0.7c-0.39-0.26-0.77-0.57-1.11-0.91s-0.64-0.71-0.91-1.11z"/> </symbol><symbol viewBox="0 0 20 20" id="share-alt2"><title>share-alt2</title> <path d="M18 8l-5 4v-2.99c-2.58 0.060-4.88 0.45-7 2.99 0.29-3.57 2.66-5.66 7-5.94v-3.060zM4 14h11v-2l2-1.6v5.6h-15v-11h9.43c-1.83 0.32-3.31 1-4.41 2h-3.020v7z"/> </symbol><symbol viewBox="0 0 20 20" id="share"><title>share</title> <path d="M14.5 12c1.66 0 3 1.34 3 3s-1.34 3-3 3-3-1.34-3-3c0-0.24 0.030-0.46 0.090-0.69l-4.38-2.3c-0.55 0.61-1.33 0.99-2.21 0.99-1.66 0-3-1.34-3-3s1.34-3 3-3c0.88 0 1.66 0.39 2.21 0.99l4.38-2.3c-0.060-0.23-0.090-0.45-0.090-0.69 0-1.66 1.34-3 3-3s3 1.34 3 3-1.34 3-3 3c-0.88 0-1.66-0.39-2.21-0.99l-4.38 2.3c0.060 0.23 0.090 0.45 0.090 0.69s-0.030 0.46-0.090 0.69l4.38 2.3c0.55-0.61 1.33-0.99 2.21-0.99z"/> </symbol><symbol viewBox="0 0 20 20" id="shield-alt"><title>shield-alt</title> <path d="M10 2c0 0 3 2 7 2 0 11-7 14-7 14s-7-3-7-14c4 0 7-2 7-2z"/> </symbol><symbol viewBox="0 0 20 20" id="shield"><title>shield</title> <path d="M10 2c0 0 3 2 7 2 0 11-7 14-7 14s-7-3-7-14c4 0 7-2 7-2zM10 10h5s1-1 1-5c0 0-5-1-6-2v7h-5c1 4 5 7 5 7v-7z"/> </symbol><symbol viewBox="0 0 20 20" id="slides"><title>slides</title> <path d="M5 14v-8h10v8h-10zM2 13v-6h2v6h-2zM6 7v6h8v-6h-8zM16 7h2v6h-2v-6zM13 9v-1h-6v1h6zM13 12v-2h-6v2h6z"/> </symbol><symbol viewBox="0 0 20 20" id="smartphone"><title>smartphone</title> <path d="M6 2h8c0.55 0 1 0.45 1 1v14c0 0.55-0.45 1-1 1h-8c-0.55 0-1-0.45-1-1v-14c0-0.55 0.45-1 1-1zM13 14v-10h-6v10h6zM8 5h4l-4 5v-5z"/> </symbol><symbol viewBox="0 0 20 20" id="smiley"><title>smiley</title> <path d="M7 5.2c1.1 0 2 0.89 2 2 0 0.37-0.11 0.71-0.28 1 0 0-0.72-0.2-1.72-0.2s-1.72 0.2-1.72 0.2c-0.17-0.29-0.28-0.63-0.28-1 0-1.11 0.9-2 2-2zM13 5.2c1.11 0 2 0.89 2 2 0 0.37-0.11 0.71-0.28 1 0 0-0.72-0.2-1.72-0.2s-1.72 0.2-1.72 0.2c-0.17-0.29-0.28-0.63-0.28-1 0-1.11 0.89-2 2-2zM10 18.9c3.72 0 7.030-2.36 8.23-5.88l-1.32-0.46c-1.010 2.96-3.79 4.94-6.91 4.94s-5.9-1.98-6.91-4.94l-1.32 0.46c1.2 3.52 4.51 5.88 8.23 5.88z"/> </symbol><symbol viewBox="0 0 20 20" id="sort"><title>sort</title> <path d="M11 7h-10l5 7zM9 14h10l-5-7z"/> </symbol><symbol viewBox="0 0 20 20" id="sos"><title>sos</title> <path d="M18 10c0-4.42-3.58-8-8-8s-8 3.58-8 8 3.58 8 8 8 8-3.58 8-8zM7.23 3.57l1.49 3.73c-0.62 0.29-1.13 0.8-1.42 1.42l-3.73-1.49c0.71-1.64 2.020-2.95 3.66-3.66zM16.43 7.23l-3.73 1.49c-0.29-0.62-0.8-1.13-1.42-1.42l1.49-3.73c1.64 0.71 2.95 2.020 3.66 3.66zM10 12c-1.1 0-2-0.9-2-2s0.9-2 2-2 2 0.9 2 2-0.9 2-2 2zM3.57 12.77l3.73-1.49c0.29 0.62 0.8 1.13 1.42 1.42l-1.49 3.73c-1.64-0.71-2.95-2.020-3.66-3.66zM12.77 16.43l-1.49-3.73c0.62-0.29 1.13-0.8 1.42-1.42l3.73 1.49c-0.71 1.64-2.020 2.95-3.66 3.66z"/> </symbol><symbol viewBox="0 0 20 20" id="star-empty"><title>star-empty</title> <path d="M10 1l-3 6-6 0.75 4.13 4.62-1.13 6.63 6-3 6 3-1.12-6.63 4.12-4.62-6-0.75zM10 3.24l2.34 4.69 4.65 0.58-3.18 3.56 0.87 5.15-4.68-2.34-4.68 2.34 0.87-5.15-3.18-3.56 4.65-0.58z"/> </symbol><symbol viewBox="0 0 20 20" id="star-filled"><title>star-filled</title> <path d="M10 1l3 6 6 0.75-4.12 4.62 1.12 6.63-6-3-6 3 1.13-6.63-4.13-4.62 6-0.75z"/> </symbol><symbol viewBox="0 0 20 20" id="star-half"><title>star-half</title> <path d="M10 1l-3 6-6 0.75 4.13 4.62-1.13 6.63 6-3 6 3-1.12-6.63 4.12-4.62-6-0.75zM10 3.24l2.34 4.69 4.65 0.58-3.18 3.56 0.87 5.15-4.68-2.34v-11.64z"/> </symbol><symbol viewBox="0 0 20 20" id="sticky"><title>sticky</title> <path d="M5 3.61v-2.57l8.99-0.010-0.010 2.58c-1.22 0.26-2.16 1.35-2.16 2.67v0.5c0.010 1.31 0.93 2.4 2.17 2.66l-0.010 2.58h-3.41l-0.010 2.57c0 0.6-0.47 4.41-1.060 4.41-0.6 0-1.080-3.81-1.080-4.41v-2.56l-3.42-0.010 0.010-2.58c1.23-0.25 2.15-1.35 2.15-2.66v-0.5c0-1.31-0.92-2.41-2.16-2.67z"/> </symbol><symbol viewBox="0 0 20 20" id="store"><title>store</title> <path d="M1 10c0.41 0.29 0.96 0.43 1.5 0.43 0.55 0 1.090-0.14 1.5-0.43 0.62-0.46 1-1.17 1-2 0 0.83 0.37 1.54 1 2 0.41 0.29 0.96 0.43 1.5 0.43 0.55 0 1.090-0.14 1.5-0.43 0.62-0.46 1-1.17 1-2 0 0.83 0.37 1.54 1 2 0.41 0.29 0.96 0.43 1.51 0.43 0.54 0 1.080-0.14 1.49-0.43 0.62-0.46 1-1.17 1-2 0 0.83 0.37 1.54 1 2 0.41 0.29 0.96 0.43 1.5 0.43 0.55 0 1.090-0.14 1.5-0.43 0.63-0.46 1-1.17 1-2v-1l-3-7h-13l-4 7v1c0 0.83 0.37 1.54 1 2zM3 18.99h5v-5h4v5h5v-7c-0.37-0.050-0.72-0.22-1-0.43-0.63-0.45-1-0.73-1-1.56 0 0.83-0.38 1.11-1 1.56-0.41 0.3-0.95 0.43-1.49 0.44-0.55 0-1.1-0.14-1.51-0.44-0.63-0.45-1-0.73-1-1.56 0 0.83-0.38 1.11-1 1.56-0.41 0.3-0.95 0.43-1.5 0.44-0.54 0-1.090-0.14-1.5-0.44-0.63-0.45-1-0.73-1-1.57 0 0.84-0.38 1.12-1 1.57-0.29 0.21-0.63 0.38-1 0.44v6.99z"/> </symbol><symbol viewBox="0 0 20 20" id="tablet"><title>tablet</title> <path d="M4 2h12c0.55 0 1 0.45 1 1v14c0 0.55-0.45 1-1 1h-12c-0.55 0-1-0.45-1-1v-14c0-0.55 0.45-1 1-1zM15 16v-12h-10v12h10zM6 5h6l-6 5v-5z"/> </symbol><symbol viewBox="0 0 20 20" id="tag"><title>tag</title> <path d="M11 2h7v7l-10 10-7-7zM14 8c1.1 0 2-0.9 2-2s-0.9-2-2-2-2 0.9-2 2 0.9 2 2 2z"/> </symbol><symbol viewBox="0 0 20 20" id="tagcloud"><title>tagcloud</title> <path d="M11 3v4h-10v-4h10zM19 3v4h-7v-4h7zM7 8v3h-6v-3h6zM19 8v3h-11v-3h11zM9 12v2h-8v-2h8zM19 12v2h-9v-2h9zM6 15v1h-5v-1h5zM11 15v1h-4v-1h4zM14 15v1h-2v-1h2zM19 15v1h-4v-1h4z"/> </symbol><symbol viewBox="0 0 20 20" id="testimonial"><title>testimonial</title> <path d="M4 3h12c0.55 0 1.020 0.2 1.41 0.59s0.59 0.86 0.59 1.41v7c0 0.55-0.2 1.020-0.59 1.41s-0.86 0.59-1.41 0.59h-1l-5 5v-5h-6c-0.55 0-1.020-0.2-1.41-0.59s-0.59-0.86-0.59-1.41v-7c0-0.55 0.2-1.020 0.59-1.41s0.86-0.59 1.41-0.59zM15 5h-11v1h11v-1zM16 8h-12v1h12v-1zM13 11h-9v1h9v-1z"/> </symbol><symbol viewBox="0 0 20 20" id="text"><title>text</title> <path d="M18 3v2h-16v-2h16zM12 7v2h-10v-2h10zM18 7v2h-4v-2h4zM8 11v2h-6v-2h6zM18 11v2h-8v-2h8zM14 15v2h-12v-2h12z"/> </symbol><symbol viewBox="0 0 20 20" id="thumbs-down"><title>thumbs-down</title> <path d="M7.28 18c-0.15 0.020-0.26-0.020-0.41-0.070-0.56-0.19-0.83-0.79-0.66-1.35 0.17-0.55 1-3.040 1-3.58 0-0.53-0.75-1-1.35-1h-3c-0.6 0-1-0.4-1-1s2-7 2-7c0.17-0.39 0.55-1 1-1h9.14v9h-2.14c-0.41 0.41-3.3 4.71-3.58 5.27-0.21 0.41-0.6 0.68-1 0.73zM18 12h-2v-9h2v9z"/> </symbol><symbol viewBox="0 0 20 20" id="thumbs-up"><title>thumbs-up</title> <path d="M12.72 2c0.15-0.020 0.26 0.020 0.41 0.070 0.56 0.19 0.83 0.79 0.66 1.35-0.17 0.55-1 3.040-1 3.58 0 0.53 0.75 1 1.35 1h3c0.6 0 1 0.4 1 1s-2 7-2 7c-0.17 0.39-0.55 1-1 1h-9.14v-9h2.14c0.41-0.41 3.3-4.71 3.58-5.27 0.21-0.41 0.6-0.68 1-0.73zM2 8h2v9h-2v-9z"/> </symbol><symbol viewBox="0 0 20 20" id="tickets-alt"><title>tickets-alt</title> <path d="M20 6.38l-1.010 2.82v-0.010c-0.52-0.19-1.030-0.16-1.53 0.080s-0.85 0.62-1.040 1.14-0.16 1.030 0.070 1.53c0.24 0.5 0.62 0.84 1.15 1.030v0.010l-1.010 2.82-15.060-5.38 0.99-2.79c0.52 0.19 1.030 0.16 1.53-0.080 0.5-0.23 0.84-0.61 1.030-1.13s0.16-1.030-0.080-1.53c-0.23-0.49-0.61-0.83-1.13-1.020l1.020-2.87zM15.030 12.070l1.37-3.76c0.12-0.31 0.1-0.65-0.040-0.95s-0.39-0.53-0.7-0.65l-7.52-2.73c-0.64-0.23-1.37 0.12-1.6 0.74l-1.37 3.76c-0.24 0.65 0.1 1.37 0.74 1.6l7.52 2.74c0.14 0.050 0.28 0.080 0.43 0.080 0.52 0 1-0.33 1.17-0.83zM7.97 4.45l7.51 2.73c0.19 0.070 0.34 0.21 0.43 0.39 0.080 0.18 0.090 0.38 0.020 0.57l-1.37 3.76c-0.13 0.38-0.58 0.59-0.96 0.45l-7.51-2.74c-0.39-0.14-0.59-0.57-0.45-0.96l1.37-3.76c0.1-0.29 0.39-0.49 0.7-0.49 0.090 0 0.17 0.020 0.26 0.050zM14.79 16.59c0.35 0.27 0.75 0.41 1.2 0.41h0.010v3h-16v-2.96c0.55 0 1.030-0.2 1.41-0.59 0.39-0.38 0.59-0.86 0.59-1.41s-0.2-1.020-0.59-1.41-0.86-0.59-1.41-0.59v-3.040h1.050l-0.28 0.8 2.87 1.020c-0.51 0.16-0.89 0.62-0.89 1.18v4c0 0.69 0.56 1.25 1.25 1.25h8c0.69 0 1.25-0.56 1.25-1.25v-1.75l0.83 0.3c0.12 0.43 0.36 0.78 0.71 1.040zM3.25 17v-4c0-0.41 0.34-0.75 0.75-0.75h0.83l7.92 2.83v1.92c0 0.41-0.34 0.75-0.75 0.75h-8c-0.41 0-0.75-0.34-0.75-0.75z"/> </symbol><symbol viewBox="0 0 20 20" id="tickets"><title>tickets</title> <path d="M20 5.38l-1.010 2.82v-0.010c-1.040-0.37-2.19 0.18-2.57 1.22-0.37 1.040 0.17 2.19 1.22 2.56v0.010l-1.010 2.82-15.060-5.38 0.99-2.79c1.040 0.38 2.19-0.17 2.56-1.21s-0.17-2.18-1.21-2.55l1.020-2.87zM14.55 8.75c0.74-2.080-0.34-4.37-2.42-5.12-2.080-0.74-4.37 0.35-5.11 2.42-0.74 2.080 0.34 4.38 2.42 5.12 2.070 0.74 4.37-0.35 5.11-2.42zM11.99 4.010c0.89 0.32 1.57 0.94 1.97 1.71-0.010-0.010-0.020-0.010-0.040-0.020-0.33-0.12-0.67 0.090-0.78 0.4-0.1 0.28-0.030 0.57 0.050 0.91 0.040 0.27 0.090 0.62-0.060 1.040-0.1 0.29-0.33 0.58-0.65 1l-0.74 1.010 0.080-4.080 0.4 0.11c0.19 0.040 0.26-0.24 0.080-0.29 0 0-0.57-0.15-0.92-0.28-0.34-0.12-0.88-0.36-0.88-0.36-0.18-0.080-0.3 0.19-0.12 0.27 0 0 0.16 0.080 0.34 0.16l0.010 1.63-1.53 1.96 0.080-4.11c0.2 0.060 0.4 0.11 0.4 0.11 0.19 0.040 0.26-0.23 0.070-0.29 0 0-0.56-0.15-0.91-0.28-0.070-0.020-0.14-0.050-0.22-0.080 0.93-0.7 2.19-0.94 3.37-0.52zM7.4 6.19c0.17-0.49 0.44-0.92 0.78-1.27l0.040 5c-0.94-0.95-1.3-2.39-0.82-3.73zM11.44 10.94l2.1-2.63c0.37-0.41 0.57-0.77 0.69-1.12 0.050-0.12 0.080-0.24 0.11-0.35 0.090 0.57 0.040 1.18-0.17 1.77-0.45 1.25-1.51 2.1-2.73 2.33zM10.74 7.72l0.020 3.22c0 0.020 0 0.040 0.010 0.060-0.4 0-0.8-0.070-1.2-0.21-0.33-0.12-0.63-0.28-0.9-0.48zM11.98 13.8l2.1 0.75c0.24 0.84 1 1.45 1.91 1.45h0.010v3h-16v-2.96c1.1 0 2-0.89 2-2 0-1.1-0.9-2-2-2v-3.040h1.050l-0.28 0.8 4.28 1.52c-0.65 0.71-1.050 1.65-1.050 2.68 0 2.21 1.79 4 4 4s4-1.79 4-4c0-0.070-0.020-0.13-0.020-0.2zM5.45 11.47l1.48 0.53c-0.14 0.040-0.15 0.27 0.030 0.28 0 0 0.18 0.020 0.37 0.030l0.56 1.54-0.78 2.36-1.31-3.9c0.21-0.010 0.41-0.030 0.41-0.030 0.19-0.020 0.17-0.31-0.020-0.3 0 0-0.59 0.050-0.96 0.050-0.070 0-0.15 0-0.23-0.010 0.13-0.2 0.28-0.38 0.45-0.55zM4.4 14c0-0.52 0.12-1.020 0.32-1.46l1.71 4.7c-1.2-0.59-2.030-1.82-2.030-3.24zM8.59 12.59l1.72 0.62c0.070 0.17 0.12 0.37 0.12 0.61 0 0.31-0.12 0.66-0.28 1.16l-0.35 1.2zM11.6 14c0 1.33-0.72 2.49-1.79 3.11l1.1-3.18c0.060-0.17 0.1-0.31 0.14-0.46l0.52 0.19c0.020 0.11 0.030 0.22 0.030 0.34zM6.98 17.45l1.080-3.14 1.11 3.030c0.010 0.020 0.010 0.040 0.020 0.050-0.37 0.13-0.77 0.21-1.19 0.21-0.35 0-0.69-0.060-1.020-0.15z"/> </symbol><symbol viewBox="0 0 20 20" id="translation"><title>translation</title> <path d="M11 7h-1.51c-0.63 0-1.25 0.3-1.59 0.7l-0.9-2.7h-2.87l-2.39 7h1.69l0.74-2h2.83v4h-5c-1.1 0-2-0.9-2-2v-7c0-1.1 0.9-2 2-2h7c1.1 0 2 0.9 2 2v2zM6.51 9h-2.020l1-2.93zM10 8h7c1.1 0 2 0.9 2 2v7c0 1.1-0.9 2-2 2h-7c-1.1 0-2-0.9-2-2v-7c0-1.1 0.9-2 2-2zM17.25 13v-1.080h-3.17v-2.17h-1.16v2.17h-3.17v1.080h1.28c0.11 0.85 0.56 1.85 1.28 2.62-0.87 0.36-1.89 0.62-2.31 0.62-0.010 0.020 0.22 0.97 0.2 1.46 0.84 0 2.21-0.5 3.28-1.15 1.090 0.65 2.48 1.15 3.34 1.15-0.020-0.49 0.2-1.44 0.2-1.46-0.43 0-1.49-0.27-2.38-0.63 0.7-0.77 1.14-1.77 1.25-2.61h1.36zM13.44 14.93c-0.5-0.46-0.85-1.13-1.010-1.93h2.090c-0.17 0.8-0.51 1.47-1 1.93l-0.040 0.030s-0.030-0.020-0.040-0.030z"/> </symbol><symbol viewBox="0 0 20 20" id="trash"><title>trash</title> <path d="M12 4h3c0.55 0 1 0.45 1 1v1h-13v-1c0-0.55 0.45-1 1-1h3c0.23-1.14 1.29-2 2.5-2s2.27 0.86 2.5 2zM8 4h3c-0.21-0.58-0.85-1-1.5-1s-1.29 0.42-1.5 1zM4 7h11v10c0 0.55-0.45 1-1 1h-9c-0.55 0-1-0.45-1-1v-10zM7 16v-7h-1v7h1zM10 16v-7h-1v7h1zM13 16v-7h-1v7h1z"/> </symbol><symbol viewBox="0 0 20 20" id="twitter"><title>twitter</title> <path d="M18.94 4.46c-0.49 0.73-1.11 1.38-1.83 1.9 0.010 0.15 0.010 0.31 0.010 0.47 0 4.85-3.69 10.44-10.43 10.44-2.070 0-4-0.61-5.63-1.65 0.29 0.030 0.58 0.050 0.88 0.050 1.72 0 3.3-0.59 4.55-1.57-1.6-0.030-2.95-1.090-3.42-2.55 0.22 0.040 0.45 0.070 0.69 0.070 0.33 0 0.66-0.050 0.96-0.13-1.67-0.34-2.94-1.82-2.94-3.6v-0.040c0.5 0.27 1.060 0.44 1.66 0.46-0.98-0.66-1.63-1.78-1.63-3.060 0-0.67 0.18-1.3 0.5-1.84 1.81 2.22 4.51 3.68 7.56 3.83-0.060-0.27-0.1-0.55-0.1-0.84 0-2.020 1.65-3.66 3.67-3.66 1.060 0 2.010 0.44 2.68 1.16 0.83-0.17 1.62-0.47 2.33-0.89-0.28 0.85-0.86 1.57-1.62 2.020 0.75-0.080 1.45-0.28 2.11-0.57z"/> </symbol><symbol viewBox="0 0 20 20" id="undo"><title>undo</title> <path class="st0" d="M12,5H7V2L1,6l6,4V7h5c2.2,0,4,1.8,4,4c0,2.2-1.8,4-4,4H7v2h5c3.3,0,6-2.7,6-6S15.3,5,12,5z"/> </symbol><symbol viewBox="0 0 20 20" id="universal-access-alt"><title>universal-access-alt</title> <path d="M19 10c0-4.97-4.030-9-9-9s-9 4.030-9 9 4.030 9 9 9 9-4.030 9-9zM10 2.6c0.83 0 1.5 0.67 1.5 1.5s-0.67 1.51-1.5 1.51c-0.82 0-1.5-0.68-1.5-1.51s0.68-1.5 1.5-1.5zM3.4 7.36c0-0.65 6.6-0.76 6.6-0.76s6.6 0.11 6.6 0.76-4.47 1.4-4.47 1.4 1.69 8.14 1.060 8.38c-0.62 0.24-3.19-5.19-3.19-5.19s-2.56 5.43-3.18 5.19c-0.63-0.24 1.060-8.38 1.060-8.38s-4.48-0.75-4.48-1.4z"/> </symbol><symbol viewBox="0 0 20 20" id="universal-access"><title>universal-access</title> <path d="M10 2.6c0.83 0 1.5 0.67 1.5 1.5s-0.67 1.51-1.5 1.51c-0.82 0-1.5-0.68-1.5-1.51s0.68-1.5 1.5-1.5zM3.4 7.36c0-0.65 6.6-0.76 6.6-0.76s6.6 0.11 6.6 0.76-4.47 1.4-4.47 1.4 1.69 8.14 1.060 8.38c-0.62 0.24-3.19-5.19-3.19-5.19s-2.56 5.43-3.18 5.19c-0.63-0.24 1.060-8.38 1.060-8.38s-4.48-0.75-4.48-1.4z"/> </symbol><symbol viewBox="0 0 20 20" id="unlock"><title>unlock</title> <path d="M12 9v-3c0-1.1-0.9-2-2-2s-2 0.9-2 2h-2c0-2.21 1.79-4 4-4s4 1.79 4 4v3h1c0.55 0 1 0.45 1 1v7c0 0.55-0.45 1-1 1h-10c-0.55 0-1-0.45-1-1v-7c0-0.55 0.45-1 1-1h7zM11 16l-0.36-2.15c0.51-0.24 0.86-0.75 0.86-1.35 0-0.83-0.67-1.5-1.5-1.5s-1.5 0.67-1.5 1.5c0 0.6 0.35 1.11 0.86 1.35l-0.36 2.15h2z"/> </symbol><symbol viewBox="0 0 20 20" id="update"><title>update</title> <path d="M10.2 3.28c3.53 0 6.43 2.61 6.92 6h2.080l-3.5 4-3.5-4h2.32c-0.45-1.97-2.21-3.45-4.32-3.45-1.45 0-2.73 0.71-3.54 1.78l-1.71-1.95c1.28-1.46 3.16-2.38 5.25-2.38zM9.8 16.72c-3.52 0-6.43-2.61-6.92-6h-2.080l3.5-4c1.17 1.33 2.33 2.67 3.5 4h-2.32c0.45 1.97 2.21 3.45 4.32 3.45 1.45 0 2.73-0.71 3.54-1.78l1.71 1.95c-1.28 1.46-3.15 2.38-5.25 2.38z"/> </symbol><symbol viewBox="0 0 20 20" id="upload"><title>upload</title> <path d="M8 14v-6h-3l5-6 5 6h-3v6h-4zM6 16v-6h-2v8h12.010v-8h-2.010v6h-8z"/> </symbol><symbol viewBox="0 0 20 20" id="vault"><title>vault</title> <path d="M18 17v-14c0-0.55-0.45-1-1-1h-14c-0.55 0-1 0.45-1 1v14c0 0.55 0.45 1 1 1h14c0.55 0 1-0.45 1-1zM17 17h-14v-14h14v14zM4.75 4h10.5c0.41 0 0.75 0.34 0.75 0.75v1.25h-1v3h1v2h-1v3h1v1.25c0 0.41-0.34 0.75-0.75 0.75h-10.5c-0.41 0-0.75-0.34-0.75-0.75v-10.5c0-0.41 0.34-0.75 0.75-0.75zM13 10c0-2.21-1.79-4-4-4s-4 1.79-4 4 1.79 4 4 4 4-1.79 4-4zM9 7l0.77 1.15c0.72 0.31 1.23 1.020 1.23 1.85 0 1.1-0.9 2-2 2s-2-0.9-2-2c0-0.83 0.51-1.54 1.23-1.85z"/> </symbol><symbol viewBox="0 0 20 20" id="video-alt"><title>video-alt</title> <path d="M8 5c0-0.55-0.45-1-1-1h-5c-0.55 0-1 0.45-1 1 0 0.57 0.49 1 1 1h5c0.55 0 1-0.45 1-1zM14 10l4-4v10l-4-4v-2zM13 14v-6c0-0.55-0.45-1-1-1h-8c-0.55 0-1 0.45-1 1v6c0 0.55 0.45 1 1 1h8c0.55 0 1-0.45 1-1z"/> </symbol><symbol viewBox="0 0 20 20" id="video-alt2"><title>video-alt2</title> <path d="M12 13v-6c0-1.1-0.9-2-2-2h-7c-1.1 0-2 0.9-2 2v6c0 1.1 0.9 2 2 2h7c1.1 0 2-0.9 2-2zM13 10.5l6 4.5v-10l-6 4.5v1z"/> </symbol><symbol viewBox="0 0 20 20" id="video-alt3"><title>video-alt3</title> <path d="M19 15v-10c0-1.1-0.9-2-2-2h-13c-1.1 0-2 0.9-2 2v10c0 1.1 0.9 2 2 2h13c1.1 0 2-0.9 2-2zM8 14v-8l6 4z"/> </symbol><symbol viewBox="0 0 20 20" id="visibility"><title>visibility</title> <g> <path class="st0" d="M19.7,9.4C17.7,6,14,3.9,10,3.9S2.3,6,0.3,9.4L0,10l0.3,0.6c2,3.4,5.7,5.5,9.7,5.5s7.7-2.1,9.7-5.5L20,10
		L19.7,9.4z M10,14.1c-3.1,0-6-1.6-7.7-4.1C3.6,8,5.7,6.6,8,6.1C7.1,6.7,6.5,7.8,6.5,9c0,1.9,1.6,3.5,3.5,3.5s3.5-1.6,3.5-3.5
		c0-1.2-0.6-2.3-1.5-2.9c2.3,0.5,4.4,1.9,5.7,3.9C16,12.5,13.1,14.1,10,14.1z"/> </g> </symbol><symbol viewBox="0 0 20 20" id="warning"><title>warning</title> <path d="M10 2c4.42 0 8 3.58 8 8s-3.58 8-8 8-8-3.58-8-8 3.58-8 8-8zM11.13 11.38l0.35-6.46h-2.96l0.35 6.46h2.26zM11.040 14.74c0.24-0.23 0.37-0.55 0.37-0.96 0-0.42-0.12-0.74-0.36-0.97s-0.59-0.35-1.060-0.35-0.82 0.12-1.070 0.35-0.37 0.55-0.37 0.97c0 0.41 0.13 0.73 0.38 0.96 0.26 0.23 0.61 0.34 1.060 0.34s0.8-0.11 1.050-0.34z"/> </symbol><symbol viewBox="0 0 20 20" id="welcome-add-page"><title>welcome-add-page</title> <path d="M17 7v-3h-2v-2h-3v1h-9v15h11v-9h1v-2h2zM16 5v1h-2v2h-1v-2h-2v-1h2v-2h1v2h2z"/> </symbol><symbol viewBox="0 0 20 20" id="welcome-comments"><title>welcome-comments</title> <path d="M5 2h10c1.1 0 2 0.9 2 2v8c0 1.1-0.9 2-2 2h-2l-5 5v-5h-3c-1.1 0-2-0.9-2-2v-8c0-1.1 0.9-2 2-2zM13.5 10.5l-2.5-2.5 2.5-2.5-1-1-2.5 2.5-2.5-2.5-1 1 2.5 2.5-2.5 2.5 1 1 2.5-2.5 2.5 2.5z"/> </symbol><symbol viewBox="0 0 20 20" id="welcome-learn-more"><title>welcome-learn-more</title> <path d="M10 10l-7.46-2.98 0.46 10.98h-2l0.48-11.41-1.48-0.59 10-4 10 4zM10 5c-0.55 0-1 0.22-1 0.5s0.45 0.5 1 0.5 1-0.22 1-0.5-0.45-0.5-1-0.5zM10 11l5.57-2.23c0.71 0.94 1.2 2.070 1.36 3.3-0.3-0.040-0.61-0.070-0.93-0.070-2.55 0-4.78 1.37-6 3.41-1.22-2.040-3.45-3.41-6-3.41-0.32 0-0.63 0.030-0.93 0.070 0.16-1.23 0.65-2.36 1.36-3.3z"/> </symbol><symbol viewBox="0 0 20 20" id="welcome-view-site"><title>welcome-view-site</title> <path d="M18 14v-10c0-0.55-0.45-1-1-1h-14c-0.55 0-1 0.45-1 1v10c0 0.55 0.45 1 1 1h14c0.55 0 1-0.45 1-1zM10 6c2.3 0 4.4 1.14 6 3-1.6 1.86-3.7 3-6 3s-4.4-1.14-6-3c1.6-1.86 3.7-3 6-3zM12 9c0-1.1-0.9-2-2-2s-2 0.9-2 2 0.9 2 2 2 2-0.9 2-2zM14 17h3v1h-14v-1h3v-1h8v1z"/> </symbol><symbol viewBox="0 0 20 20" id="welcome-widgets-menus"><title>welcome-widgets-menus</title> <path d="M19 16v-13c0-0.55-0.45-1-1-1h-15c-0.55 0-1 0.45-1 1v13c0 0.55 0.45 1 1 1h15c0.55 0 1-0.45 1-1zM4 4h13v4h-13v-4zM5 5v2h3v-2h-3zM9 5v2h3v-2h-3zM13 5v2h3v-2h-3zM4.5 10c0.28 0 0.5 0.22 0.5 0.5s-0.22 0.5-0.5 0.5-0.5-0.22-0.5-0.5 0.22-0.5 0.5-0.5zM6 10h4v1h-4v-1zM12 10h5v5h-5v-5zM4.5 12c0.28 0 0.5 0.22 0.5 0.5s-0.22 0.5-0.5 0.5-0.5-0.22-0.5-0.5 0.22-0.5 0.5-0.5zM6 12h4v1h-4v-1zM13 12v2h3v-2h-3zM4.5 14c0.28 0 0.5 0.22 0.5 0.5s-0.22 0.5-0.5 0.5-0.5-0.22-0.5-0.5 0.22-0.5 0.5-0.5zM6 14h4v1h-4v-1z"/> </symbol><symbol viewBox="0 0 20 20" id="welcome-write-blog"><title>welcome-write-blog</title> <path d="M16.89 1.2l1.41 1.41c0.39 0.39 0.39 1.020 0 1.41l-4.3 4.31v9.67h-11v-15h10.67l1.8-1.8c0.4-0.39 1.030-0.4 1.42 0zM11.23 9.68l5.37-5.36-1.42-1.42-5.36 5.37-0.71 2.12z"/> </symbol><symbol viewBox="0 0 20 20" id="wordpress-alt"><title>wordpress-alt</title> <path d="M20 10c0-5.51-4.49-10-10-10-5.52 0-10 4.49-10 10 0 5.52 4.48 10 10 10 5.51 0 10-4.48 10-10zM7.78 15.37l-3.41-9.15c0.55-0.020 1.17-0.080 1.17-0.080 0.5-0.060 0.44-1.13-0.060-1.11 0 0-1.45 0.11-2.37 0.11-0.18 0-0.37 0-0.58-0.010 1.59-2.44 4.34-4.020 7.47-4.020 2.33 0 4.45 0.87 6.050 2.34-0.68-0.11-1.65 0.39-1.65 1.58 0 0.74 0.45 1.36 0.9 2.1 0.35 0.61 0.55 1.36 0.55 2.46 0 1.49-1.4 5-1.4 5l-3.030-8.37c0.54-0.020 0.82-0.17 0.82-0.17 0.5-0.050 0.44-1.25-0.060-1.22 0 0-1.44 0.12-2.38 0.12-0.87 0-2.33-0.12-2.33-0.12-0.5-0.030-0.56 1.2-0.060 1.22l0.92 0.080 1.26 3.41zM17.41 10c0.24-0.64 0.74-1.87 0.43-4.25 0.7 1.29 1.050 2.71 1.050 4.25 0 3.29-1.73 6.24-4.4 7.78 0.97-2.59 1.94-5.2 2.92-7.78zM6.1 18.090c-2.98-1.44-4.99-4.56-4.99-8.090 0-1.3 0.23-2.48 0.72-3.59 1.42 3.89 2.84 7.79 4.27 11.68zM10.13 11.46l2.58 6.98c-0.86 0.29-1.76 0.45-2.71 0.45-0.79 0-1.57-0.11-2.29-0.33 0.81-2.38 1.62-4.74 2.42-7.1z"/> </symbol><symbol viewBox="0 0 20 20" id="wordpress"><title>wordpress</title> <path d="M20 10c0-5.52-4.48-10-10-10s-10 4.48-10 10 4.48 10 10 10 10-4.48 10-10zM10 1.010c4.97 0 8.99 4.020 8.99 8.99s-4.020 8.99-8.99 8.99-8.99-4.020-8.99-8.99 4.020-8.99 8.99-8.99zM8.010 14.82l-3.050-8.21c0.49-0.030 1.050-0.080 1.050-0.080 0.43-0.050 0.38-1.010-0.060-0.99 0 0-1.29 0.1-2.13 0.1-0.15 0-0.33 0-0.52-0.010 1.44-2.17 3.9-3.6 6.7-3.6 2.090 0 3.99 0.79 5.41 2.090-0.6-0.080-1.45 0.35-1.45 1.42 0 0.66 0.38 1.22 0.79 1.88 0.31 0.54 0.5 1.22 0.5 2.21 0 1.34-1.27 4.48-1.27 4.48l-2.71-7.5c0.48-0.030 0.75-0.16 0.75-0.16 0.43-0.050 0.38-1.1-0.050-1.080 0 0-1.3 0.11-2.14 0.11-0.78 0-2.11-0.11-2.11-0.11-0.43-0.020-0.48 1.060-0.050 1.080l0.84 0.080 1.12 3.040zM14.030 16.97l2.61-6.97s0.67-1.69 0.39-3.81c0.63 1.14 0.94 2.42 0.94 3.81 0 2.96-1.56 5.58-3.94 6.97zM2.68 6.77l3.82 10.48c-2.67-1.3-4.47-4.080-4.47-7.25 0-1.16 0.2-2.23 0.65-3.23zM10.13 11.3l2.29 6.25c-0.75 0.27-1.57 0.42-2.42 0.42-0.72 0-1.41-0.11-2.060-0.3z"/> </symbol><symbol viewBox="0 0 20 20" id="yes"><title>yes</title> <path d="M14.83 4.89l1.34 0.94-5.81 8.38h-1.34l-3.24-4.54 1.34-1.25 2.57 2.4z"/> </symbol></svg>