<?xml version="1.0" standalone="no"?>
<!DOCTYPE svg PUBLIC "-//W3C//DTD SVG 1.1//EN" "http://www.w3.org/Graphics/SVG/1.1/DTD/svg11.dtd" >
<svg xmlns="http://www.w3.org/2000/svg">
<metadata></metadata>
<defs>
<font id="dashiconsregular" horiz-adv-x="2048" >
<font-face units-per-em="2048" ascent="2048" descent="0" />
<missing-glyph horiz-adv-x="500" />
<glyph unicode="&#x2000;" horiz-adv-x="1024" />
<glyph unicode="&#x2001;" />
<glyph unicode="&#x2002;" horiz-adv-x="1024" />
<glyph unicode="&#x2003;" />
<glyph unicode="&#x2004;" horiz-adv-x="682" />
<glyph unicode="&#x2005;" horiz-adv-x="512" />
<glyph unicode="&#x2006;" horiz-adv-x="341" />
<glyph unicode="&#x2007;" horiz-adv-x="341" />
<glyph unicode="&#x2008;" horiz-adv-x="256" />
<glyph unicode="&#x2009;" horiz-adv-x="409" />
<glyph unicode="&#x200a;" horiz-adv-x="113" />
<glyph unicode="&#x202f;" horiz-adv-x="409" />
<glyph unicode="&#x205f;" horiz-adv-x="512" />
<glyph unicode="&#x25fc;" horiz-adv-x="512" d="M0 0z" />
<glyph unicode="&#xf100;" d="M102.5 389.5q3.5 -53.5 40.5 -89.5q36 -37 89.5 -40.5t111.5 21t116 65t111 93.5q31 31 87 105q14 20 41.5 59t44.5 62.5t41 53.5t46 51q30 30 72.5 30t72.5 -30l108 -108q30 -30 72.5 -30t72.5 30l181 181l-724 724l-181 -182q-30 -30 -30 -72t30 -72l108 -108 q30 -30 30 -73t-30 -73q-27 -27 -61.5 -54t-89.5 -65.5t-75 -53.5q-68 -51 -103 -86q-53 -53 -94 -111t-66 -116t-21.5 -111.5zM759 1639l153 154q25 28 87 35t137.5 -11t135.5 -57q46 -30 129 -99t169 -116q44 -24 74.5 -39t78 -32t89.5 -23.5t98 -5.5t115 13l-542 -543z " />
<glyph unicode="&#xf101;" d="M307 922v716q0 85 60 145t145 60h922q85 0 144.5 -60t59.5 -145v-716q0 -85 -59.5 -145t-144.5 -60h-205l-512 -512v512h-205q-85 0 -145 60t-60 145z" />
<glyph unicode="&#xf102;" d="M253 1021l771 771l410 -410v205h204v-409l157 -157l-108 -109l-663 663l-663 -663zM410 205v611l614 614l614 -614v-611h-1228zM819 307h410v512h-410v-512z" />
<glyph unicode="&#xf103;" d="M205 595q0 183 129 312l156 156q85 85 200 114t224 -1l-424 -425q-65 -65 -65 -156.5t65 -156.5q64 -64 156 -64t156 64l424 425q31 -109 2 -224t-114 -200l-156 -156q-130 -129 -312 -129t-312 129q-129 129 -129 312zM692 750.5q0 -45.5 32 -77.5q34 -32 79.5 -31.5 t76.5 31.5l546 547q32 32 32 77.5t-32 77.5q-34 32 -79.5 31.5t-76.5 -31.5l-546 -547q-32 -32 -32 -77.5zM923 1409q29 116 113 200l156 156q130 129 313 129t312 -129q129 -130 129 -312t-129 -312l-157 -156q-85 -85 -200 -114t-224 2l268 268l78 79l78 77q64 65 64 156 t-64 156q-65 65 -155.5 65t-155.5 -65l-79 -78l-346 -346q-30 108 -1 224z" />
<glyph unicode="&#xf104;" d="M102 922q0 -42 30.5 -72.5t72.5 -30.5h1024q42 0 72 30.5t30 72.5v716q0 42 -30 72.5t-72 30.5h-171l-136 205h-410l-136 -205h-171q-42 0 -72.5 -30.5t-30.5 -72.5v-716zM461 1331q0 106 75 181t181 75t181 -75t75 -181t-75 -181t-181 -75t-181 75t-75 181zM717 358 q0 106 75 181t181 75q24 0 51 -5v108h205v-359q0 -106 -75 -181t-181 -75t-181 75t-75 181zM1434 358q0 106 75 181t181 75q24 0 51 -5v517h-307v308h512v-1076q0 -106 -75 -181t-181 -75t-181 75t-75 181z" />
<glyph unicode="&#xf105;" d="M307 205v1331h205v-1126h819v-205h-1024zM614 512v1331h1024v-1331h-1024z" />
<glyph unicode="&#xf106;" d="M240 389q0 64 45 109l127 127v397q0 99 31 223.5t80 174.5l93 115l923 -923l-122 -86q-51 -51 -171 -84.5t-220 -33.5h-397l-127 -127q-45 -45 -109 -45t-108 45q-45 44 -45 108zM819 1461l332 332q27 26 74 16.5t86 -49.5q40 -39 49 -85.5t-18 -72.5l-331 -332z M1267 1014l331 332q26 27 73 17.5t86 -49.5q40 -39 49.5 -86t-17.5 -73l-332 -333z" />
<glyph unicode="&#xf107;" d="M205 462q0 107 76 182l667 555q-54 126 -27 265.5t129 241.5q97 97 229.5 125t253.5 -16l-296 -296l289 -289l293 294q42 -120 13 -250.5t-124 -225.5q-102 -102 -241.5 -129t-265.5 27l-554 -667q-76 -76 -183 -76t-183 76t-76 183zM360 462q0 -43 30 -74q31 -30 74 -30 t73 30q31 31 31 74t-31 73q-30 31 -73 31t-74 -31q-30 -30 -30 -73z" />
<glyph unicode="&#xf108;" d="M307 410q0 -42 30.5 -72.5t72.5 -30.5h1331q42 0 72 30.5t30 72.5v1228q0 42 -30 72.5t-72 30.5h-1331q-42 0 -72.5 -30.5t-30.5 -72.5v-1228zM512 819q0 42 30 72.5t72 30.5h103v563q0 22 14.5 36.5t36.5 14.5t36.5 -14.5t14.5 -36.5v-563h103q42 0 72 -30.5t30 -72.5 t-30 -72t-72 -30h-103v-154q0 -22 -14.5 -36.5t-36.5 -14.5t-36.5 14.5t-14.5 36.5v154h-103q-42 0 -72 30t-30 72zM1126 1229q0 42 30.5 72t72.5 30h102v154q0 22 14.5 36.5t36.5 14.5t37 -14.5t15 -36.5v-154h102q42 0 72 -30t30 -72t-30 -72.5t-72 -30.5h-102v-563 q0 -22 -15 -36.5t-37 -14.5t-36.5 14.5t-14.5 36.5v563h-102q-42 0 -72.5 30.5t-30.5 72.5z" />
<glyph unicode="&#xf109;" d="M147 166q-28 28 75.5 181.5t158.5 208.5l286 286l-247 248l187 186q81 -54 179.5 -44t168.5 81l77 77q71 70 81 169t-44 180l186 186l652 -650l-188 -186q-80 53 -179 43.5t-170 -80.5l-77 -77q-70 -71 -80 -169.5t44 -179.5l-187 -187l-247 247l-286 -286 q-55 -55 -208.5 -158.5t-181.5 -75.5z" />
<glyph unicode="&#xf110;" d="M283 321v254q0 115 59 220t166 172t232 67l284 -181l279 186q119 0 227 -69t171.5 -176.5t63.5 -218.5v-254q-15 -5 -42.5 -12.5t-111.5 -27.5t-168 -35.5t-200 -28t-219 -12.5q-166 0 -351.5 29t-287.5 58zM744 1453q-15 95 9 182t93.5 147.5t174.5 60.5q80 0 140 -35 t92 -91.5t44 -125t1 -138.5q-1 -7 -3 -20t-11 -49.5t-21 -69.5t-34 -74t-49 -70t-68 -49t-88 -20q-65 0 -117.5 36.5t-81.5 88t-48.5 103t-26.5 87.5z" />
<glyph unicode="&#xf111;" d="M102 819v304h223q23 103 82 199l-158 158l215 215l158 -158q89 57 197 83v223h307v-223q105 -24 196 -81l158 158l217 -217l-158 -158q59 -96 82 -199h222v-304h-223q-25 -108 -83 -197l158 -158l-215 -215l-158 158q-91 -57 -196 -81v-224h-307v224q-104 24 -195 81 l-158 -158l-217 217l158 158q-57 91 -81 195h-224zM666 973q0 -127 90 -217t217 -90t217 90t90 217t-90 217t-217 90t-217 -90t-90 -217z" />
<glyph unicode="&#xf112;" d="M102 410l814 787q-72 142 -47 305.5t143 281.5q98 99 230 134t264 0t230 -134q99 -98 134 -230t0 -264t-134 -230q-115 -115 -274.5 -142t-298.5 38l-191 -339l-306 -31l-154 -381h-307zM1342 1533q0 -57 40.5 -97t96.5 -40q57 0 96.5 40t39.5 97q0 56 -39.5 96t-96.5 40 q-56 0 -96.5 -40t-40.5 -96z" />
<glyph unicode="&#xf113;" d="M102 1126h213q19 129 81.5 242.5t156 195.5t216 129.5t255.5 47.5q158 0 298 -65t240 -179l-176 -200q-64 85 -158.5 134t-203.5 49q-160 0 -283.5 -100.5t-158.5 -253.5h237l-358 -409zM486 547l176 199q64 -84 158.5 -133t203.5 -49q160 0 283.5 100.5t158.5 253.5 h-237l358 409l359 -409h-213q-25 -172 -124.5 -312.5t-253.5 -221.5t-331 -81q-158 0 -298 64.5t-240 179.5z" />
<glyph unicode="&#xf115;" d="M205 614q0 -42 30 -72t72 -30h1434q42 0 72 30t30 72v1024q0 42 -30 72.5t-72 30.5h-1434q-42 0 -72 -30.5t-30 -72.5v-1024zM307 205v102h307v103h820v-103h307v-102h-1434zM410 1126q126 146 283.5 227t330.5 81t330.5 -81t283.5 -227q-126 -146 -283.5 -226.5 t-330.5 -80.5t-330.5 80.5t-283.5 226.5zM819 1126q0 -85 60 -144.5t145 -59.5t145 59.5t60 144.5t-60 145t-145 60t-145 -60t-60 -145z" />
<glyph unicode="&#xf116;" d="M205 410q0 -42 30 -72.5t72 -30.5h1536q42 0 72.5 30.5t30.5 72.5v1331q0 42 -30.5 72t-72.5 30h-1536q-42 0 -72 -30t-30 -72v-1331zM410 563q0 22 14.5 36.5t36.5 14.5t36.5 -14.5t14.5 -36.5t-14.5 -36.5t-36.5 -14.5t-36.5 14.5t-14.5 36.5zM410 768q0 22 14.5 36.5 t36.5 14.5t36.5 -14.5t14.5 -36.5t-14.5 -36.5t-36.5 -14.5t-36.5 14.5t-14.5 36.5zM410 973q0 22 14.5 36.5t36.5 14.5t36.5 -14.5t14.5 -36.5t-14.5 -36.5t-36.5 -14.5t-36.5 14.5t-14.5 36.5zM410 1229v409h1331v-409h-1331zM512 1331h307v205h-307v-205zM614 512v102 h410v-102h-410zM614 717v102h410v-102h-410zM614 922v102h410v-102h-410zM922 1331h307v205h-307v-205zM1229 512v512h512v-512h-512zM1331 614h307v205h-307v-205zM1331 1331h307v205h-307v-205z" />
<glyph unicode="&#xf117;" d="M307 819v819q0 85 60 145t145 60h1024q85 0 145 -60t60 -145v-819q0 -85 -60 -145t-145 -60h-205l-512 -512v512h-307q-85 0 -145 60t-60 145zM666 973l102 -103l256 256l256 -256l102 103l-256 256l256 256l-102 102l-256 -256l-256 256l-102 -102l256 -256z" />
<glyph unicode="&#xf118;" d="M0 1434l1024 409l1024 -409l-1024 -410l-764 305l47 -1124h-205l50 1168zM314 812q23 185 140 338l570 -228l570 228q117 -153 140 -338q-54 7 -96 7q-192 0 -355.5 -94.5t-258.5 -254.5q-95 160 -258.5 254.5t-355.5 94.5q-42 0 -96 -7zM922 1485q0 -22 30 -36.5 t72 -14.5t72 14.5t30 36.5t-30 36.5t-72 14.5t-72 -14.5t-30 -36.5z" />
<glyph unicode="&#xf119;" d="M307 205v1536h1093l184 184q31 30 73.5 30.5t72.5 -30.5l144 -144q30 -30 30 -72.5t-30 -72.5l-440 -441v-990h-1127zM933 984l217 73l550 549l-146 145l-548 -550z" />
<glyph unicode="&#xf120;" d="M0 1024q0 -208 81 -397.5t218.5 -327t327 -218.5t397.5 -81t397.5 81t327 218.5t218.5 327t81 397.5t-81 397.5t-218.5 327t-327 218.5t-397.5 81t-397.5 -81t-327 -218.5t-218.5 -327t-81 -397.5zM103 1024q0 188 73 358.5t196 293.5t293.5 196t358.5 73t358.5 -73 t293.5 -196t196 -293.5t73 -358.5t-73 -358.5t-196 -293.5t-293.5 -196t-358.5 -73t-358.5 73t-293.5 196t-196 293.5t-73 358.5zM208 1024q0 185 66 331l392 -1073q-207 101 -332.5 301t-125.5 441zM338 1471q112 170 293.5 269.5t392.5 99.5q158 0 300.5 -56t253.5 -158 q-53 7 -100.5 -31t-47.5 -114q0 -32 13.5 -69t24.5 -55.5t42 -68.5q52 -89 52 -226q0 -61 -32.5 -175.5t-65.5 -198.5l-32 -85l-278 768q22 1 41 5.5t27 7.5l9 4q21 2 28 30t-2.5 54.5t-30.5 25.5q-133 -11 -219 -11q-36 0 -90 2.5t-90 5.5l-36 3q-21 1 -31 -26t-3 -55 t28 -29l86 -9l115 -311l-166 -538l-312 841l107 8q21 2 28 28t-3 50.5t-31 23.5q-132 -11 -218 -11q-34 0 -53 1zM813 239l224 652l235 -640q-118 -43 -248 -43q-102 0 -211 31zM1437 310l267 714q3 7 7 19.5t15.5 55t16 84.5t8.5 107t-7 124q96 -173 96 -390 q0 -225 -109 -415.5t-294 -298.5z" />
<glyph unicode="&#xf121;" d="M307 102v1844h1434v-1844h-1434zM614 614h615v103h-615v-103zM614 922h820v102h-820v-102zM614 1229h820v102h-820v-102zM614 1536h820v102h-820v-102z" />
<glyph unicode="&#xf122;" d="M87 884q26 -216 142.5 -345t290.5 -129q154 0 254 90q100 88 100 243q0 136 -73 228q-51 64 -139.5 83.5t-163.5 3.5q-26 146 79.5 310.5t270.5 247.5l-167 233q-127 -61 -239.5 -154.5t-200.5 -215.5t-131 -277t-23 -318zM1053 884q26 -216 142.5 -345t290.5 -129 q154 0 254 90q100 88 100 243q0 134 -74 228q-51 64 -139.5 83.5t-163.5 3.5q-17 96 26.5 206.5t130 204t194.5 147.5l-167 233q-127 -61 -239.5 -154.5t-200.5 -215.5t-131 -277t-23 -318z" />
<glyph unicode="&#xf123;" d="M102 102v1844h1844v-1229l-615 -615h-1229zM410 717h614v102h-614v-102zM410 1126h1228v103h-1228v-103zM410 1536h1228v102h-1228v-102zM1229 307l512 512h-512v-512z" />
<glyph unicode="&#xf125;" d="M102 1229v512q0 85 60 145t145 60h615q85 0 144.5 -60t59.5 -145v-307h-84q-83 0 -153 -73t-70 -149v-188l-307 -307v307h-205q-85 0 -145 60t-60 145zM922 614v512q0 85 59.5 145t144.5 60h615q85 0 145 -60t60 -145v-512q0 -85 -60 -144.5t-145 -59.5h-205v-308 l-307 308h-103q-85 0 -144.5 59.5t-59.5 144.5z" />
<glyph unicode="&#xf126;" d="M102 207v1636q0 42 30.5 72.5t72.5 30.5h1638q42 0 72.5 -30.5t30.5 -72.5v-1638zM307 410h1434v1024h-1434v-1024zM410 1536h102l205 307h-103zM717 1536h102l205 307h-102zM819 512v819l615 -409zM1024 1536h102l205 307h-102zM1331 1536h103l204 307h-102z" />
<glyph unicode="&#xf127;" d="M102 461q0 148 105 253t254 105q76 0 153 -36v847q0 41 29 68.5t73 34.5l1128 204q41 6 71.5 -26.5t30.5 -75.5v-205v-1067q0 -149 -105 -253.5t-254 -104.5t-253.5 104.5t-104.5 253.5t105 254t253 105q77 0 154 -36v642l-922 -205v-913q-19 -131 -121 -219.5 t-237 -88.5q-149 0 -254 105t-105 254z" />
<glyph unicode="&#xf128;" d="M102 230v1588q0 53 37.5 90.5t90.5 37.5h1588q53 0 90.5 -37.5t37.5 -90.5v-1588q0 -53 -37.5 -90.5t-90.5 -37.5h-1588q-53 0 -90.5 37.5t-37.5 90.5zM307 307h1434v1434h-1434v-1434zM410 512v717q42 0 81.5 -22.5t69 -59t56 -80t44.5 -87t31 -80t19 -58.5l6 -23 q2 6 6 17.5t19 43t31.5 60.5t43.5 64.5t56.5 61t69 43t81.5 17.5q57 0 110 -21t87 -51t60.5 -60t38.5 -51l11 -21q0 8 0.5 21.5t3 55.5t7.5 82.5t16 96t25.5 103t38.5 96t53.5 82.5t71.5 55.5t91 21.5v-1024q0 -42 -30 -72t-72 -30h-1024q-42 0 -72 30t-30 72zM614 1434 q0 -85 60 -145t145 -60t145 60t60 145t-60 144.5t-145 59.5t-145 -59.5t-60 -144.5z" />
<glyph unicode="&#xf129;" d="M102 321v1209q0 45 32 76.5t77 31.5h301l307 205h410l307 -205h301q45 0 77 -31.5t32 -76.5v-1209q0 -46 -32.5 -81t-76.5 -35h-1626q-44 0 -76.5 35t-32.5 81zM614 922q0 -111 55 -205.5t149.5 -149.5t205.5 -55t205.5 55t149.5 149.5t55 205.5q0 169 -120 289t-290 120 t-290 -120t-120 -289z" />
<glyph unicode="&#xf130;" d="M102 1280q0 116 26.5 211.5t92 181.5t168.5 145t264 93.5t371 34.5t371 -34.5t264 -93.5t168.5 -145t92 -181.5t26.5 -211.5t-26.5 -211.5t-92 -181.5t-168.5 -145t-264 -93.5t-371 -34.5t-371 34.5t-264 93.5t-168.5 145t-92 181.5t-26.5 211.5zM205 256q0 42 30 72 t72 30t72.5 -30t30.5 -72t-30.5 -72t-72.5 -30t-72 30t-30 72zM410 1280q0 -64 44.5 -109t108.5 -45t109 45t45 109t-45 109t-109 45t-108.5 -45t-44.5 -109zM461 410q0 64 44.5 108.5t108.5 44.5t109 -44.5t45 -108.5t-45 -109t-109 -45t-108.5 45t-44.5 109zM870 1280 q0 -64 45 -109t109 -45t109 45t45 109t-45 109t-109 45t-109 -45t-45 -109zM1331 1280q0 -64 45 -109t109 -45t108.5 45t44.5 109t-44.5 109t-108.5 45t-109 -45t-45 -109z" />
<glyph unicode="&#xf132;" d="M410 1024v307h512v512h307v-512h512v-307h-512v-512h-307v512h-512z" />
<glyph unicode="&#xf133;" d="M307 205h1127v921h102v205h205v307h-205v205h-307v-102h-922v-1536zM1126 1434v102h205v205h103v-205h204v-102h-204v-205h-103v205h-205z" />
<glyph unicode="&#xf134;" d="M0 307v1434h2048v-1434h-2048zM102 512h1844v205h-1844v-205zM102 922h308v204h-308v-204zM102 1331h1844v205h-1844v-205zM512 819h1024v410h-1024v-410zM1638 922h308v204h-308v-204z" />
<glyph unicode="&#xf135;" d="M0 287v1433h2048v-1433h-2048zM102 492h1844v204h-1844v-204zM102 799h1024v409h-1024v-409zM102 1311h1844v205h-1844v-205zM1229 901h717v205h-717v-205z" />
<glyph unicode="&#xf136;" d="M0 287v1433h2048v-1433h-2048zM102 492h1844v204h-1844v-204zM102 901h717v205h-717v-205zM102 1311h1844v205h-1844v-205zM922 799h1024v409h-1024v-409z" />
<glyph unicode="&#xf138;" d="M0 287v1433h2048v-1433h-2048zM512 799h1024v409h-1024v-409z" />
<glyph unicode="&#xf139;" d="M819 614v820l615 -413z" />
<glyph unicode="&#xf140;" d="M717 1229h819l-413 -615z" />
<glyph unicode="&#xf141;" d="M717 1027l614 407v-820z" />
<glyph unicode="&#xf142;" d="M717 717l412 614l407 -614h-819z" />
<glyph unicode="&#xf143;" d="M717 717l412 614l407 -614h-819z" />
<glyph unicode="&#xf145;" d="M205 205v1433h307v103q0 64 45 108.5t109 44.5t108.5 -44.5t44.5 -108.5v-103h410v103q0 64 44.5 108.5t108.5 44.5t109 -44.5t45 -108.5v-103h307v-1433h-1638zM307 307h1434v922h-1434v-922zM512 410h205v716h-205v-716zM614 1485q0 -22 15 -36.5t37 -14.5t36.5 14.5 t14.5 36.5v256q0 22 -14.5 36.5t-36.5 14.5t-37 -14.5t-15 -36.5v-256zM922 410h204v716h-204v-716zM1331 410h205v716h-205v-716zM1331 1485q0 -22 14.5 -36.5t36.5 -14.5t37 14.5t15 36.5v256q0 22 -15 36.5t-37 14.5t-36.5 -14.5t-14.5 -36.5v-256z" />
<glyph unicode="&#xf147;" d="M614 1036l138 128l240 -191l482 512l137 -96l-550 -763h-137z" />
<glyph unicode="&#xf148;" d="M221 1024q0 131 41 253.5t115.5 221t173.5 173t221 115t252 40.5q131 0 253.5 -40.5t221 -115t173 -173t115 -221t40.5 -253.5t-40.5 -253.5t-115 -221t-173 -173t-221 -115t-253.5 -40.5t-253.5 40.5t-221 115t-173 173t-115 221t-40.5 253.5zM633 1027l596 -400v794z " />
<glyph unicode="&#xf153;" d="M205 1024q0 167 65 318.5t174.5 261t261 174.5t318.5 65t318.5 -65t261 -174.5t174.5 -261t65 -318.5t-65 -318.5t-174.5 -261t-261 -174.5t-318.5 -65t-318.5 65t-261 174.5t-174.5 261t-65 318.5zM512 717l205 -205l307 307l307 -307l205 205l-307 307l307 307 l-205 205l-307 -307l-307 307l-205 -205l307 -307z" />
<glyph unicode="&#xf154;" d="M102 1254l423 -473l-115 -679l614 308l614 -308l-114 679l422 473l-615 77l-307 615l-307 -615zM308 1177l476 59l240 480l240 -480l476 -59l-326 -365l89 -527l-479 239l-479 -239l89 527z" />
<glyph unicode="&#xf155;" d="M102 1254l615 77l307 615l307 -615l615 -77l-422 -473l114 -679l-614 308l-614 -308l115 679z" />
<glyph unicode="&#xf156;" d="M102 1331l512 -717l512 717h-1024zM922 614h1024l-512 717z" />
<glyph unicode="&#xf157;" d="M205 102v1536h977q9 148 101 228t228 80q137 0 234.5 -98t97.5 -235t-97.5 -234.5t-234.5 -97.5q-33 0 -71 8l-109 -108v-1079h-1126zM826 923q3 -4 11 -4q33 0 123.5 63t120.5 93l332 332q51 -24 98 -24q95 0 162.5 67.5t67.5 162.5t-67.5 162.5t-162.5 67.5t-162 -67.5 t-67 -162.5q0 -53 28 -106l-330 -329q-36 -36 -104 -136.5t-50 -118.5z" />
<glyph unicode="&#xf158;" d="M434 680l373 351l-350 373l223 211l351 -373l373 350l210 -223l-373 -351l351 -373l-224 -211l-350 374l-373 -351z" />
<glyph unicode="&#xf159;" d="M205 1024q0 167 65 318.5t174.5 261t261 174.5t318.5 65t318.5 -65t261 -174.5t174.5 -261t65 -318.5t-65 -318.5t-174.5 -261t-261 -174.5t-318.5 -65t-318.5 65t-261 174.5t-174.5 261t-65 318.5zM512 1024q0 -212 150 -362t362 -150t362 150t150 362t-150 362 t-362 150t-362 -150t-150 -362z" />
<glyph unicode="&#xf160;" d="M410 307v717q0 42 30 72t72 30h102v308q0 169 120 289t290 120t290 -120t120 -289v-308h102q42 0 72 -30t30 -72v-717q0 -42 -30 -72t-72 -30h-1024q-42 0 -72 30t-30 72zM819 1126h410v308q0 85 -60 144.5t-145 59.5t-145 -59.5t-60 -144.5v-308zM870 768q0 -45 24 -82 t64 -56l-36 -220h204l-36 220q40 19 64 56t24 82q0 64 -45 109t-109 45t-109 -45t-45 -109z" />
<glyph unicode="&#xf161;" d="M102 516v1323q0 43 32 75t75 32h1323q43 0 74.5 -31.5t31.5 -75.5v-201h201q44 0 75.5 -31.5t31.5 -74.5v-1323q0 -43 -32 -75t-75 -32h-1323q-43 0 -74.5 31.5t-31.5 75.5v201h-201q-44 0 -75.5 31.5t-31.5 74.5zM307 614h1127v1127h-1127v-1127zM410 717v614 q42 0 76 -17t54.5 -44t35.5 -60t22 -65.5t11 -59.5t5 -44v-17q1 4 2.5 11.5t8.5 29t16 40.5t25.5 43t37 41t50.5 28.5t65 11.5q48 0 86.5 -21t59.5 -51.5t35.5 -60.5t19.5 -51l4 -21q2 11 6 29.5t19 71.5t31.5 101.5t43.5 107.5t56.5 101.5t69 71.5t81.5 29v-819h-921z M512 1485q0 -64 45 -109t109 -45t108.5 45t44.5 109t-44.5 108.5t-108.5 44.5t-109 -44.5t-45 -108.5zM614 307h1127v1127h-103v-918q0 -44 -31 -75t-75 -31h-918v-103z" />
<glyph unicode="&#xf163;" d="M102 205q0 -42 30.5 -72.5t72.5 -30.5h1638q42 0 72.5 30.5t30.5 72.5v1638q0 42 -30.5 72.5t-72.5 30.5h-1638q-42 0 -72.5 -30.5t-30.5 -72.5v-1638zM307 410q0 42 30.5 72t72.5 30t72 -30t30 -72t-30 -72.5t-72 -30.5t-72.5 30.5t-30.5 72.5zM307 819q0 42 30.5 72.5 t72.5 30.5t72 -30.5t30 -72.5t-30 -72t-72 -30t-72.5 30t-30.5 72zM307 1229q0 42 30.5 72t72.5 30t72 -30t30 -72t-30 -72.5t-72 -30.5t-72.5 30.5t-30.5 72.5zM307 1638q0 42 30.5 72.5t72.5 30.5t72 -30.5t30 -72.5t-30 -72t-72 -30t-72.5 30t-30.5 72zM614 307v205h1127 v-205h-1127zM614 717v205h1127v-205h-1127zM614 1126v205h1127v-205h-1127zM614 1536v205h1127v-205h-1127z" />
<glyph unicode="&#xf164;" d="M102 205q0 -42 30.5 -72.5t72.5 -30.5h1638q42 0 72.5 30.5t30.5 72.5v1638q0 42 -30.5 72.5t-72.5 30.5h-1638q-42 0 -72.5 -30.5t-30.5 -72.5v-1638zM307 819q0 42 30.5 72.5t72.5 30.5t72 -30.5t30 -72.5t-30 -72t-72 -30t-72.5 30t-30.5 72zM307 1638q0 42 30.5 72.5 t72.5 30.5t72 -30.5t30 -72.5t-30 -72t-72 -30t-72.5 30t-30.5 72zM614 307v615h1127v-615h-1127zM614 1126v615h1127v-615h-1127z" />
<glyph unicode="&#xf165;" d="M0 1331v307h410v410h307v-410h717l307 308l102 -103l-307 -307v-717h410v-307h-410v-410h-307v410h-819v819h-410zM717 922l409 409h-409v-409zM819 819h410v410z" />
<glyph unicode="&#xf166;" d="M102 0v1024h922v922h1024v-1434h-512v-512h-1434zM121 1536l268 -347l328 347h-200q0 140 73.5 218.5t228.5 78.5v215q-238 0 -377 -143t-139 -369h-182zM307 205h1024v614h-1024v-614zM1229 1024h307v-307h307v1024h-614v-717z" />
<glyph unicode="&#xf167;" d="M102 512v1434h1024v-922h922v-1024h-1434v512h-512zM307 717h307v307h308v717h-615v-1024zM819 205h1024v614h-1024v-614zM1331 1833q155 0 228.5 -78.5t73.5 -218.5h-199l327 -347l269 347h-183q0 226 -139 369t-377 143v-215z" />
<glyph unicode="&#xf168;" d="M0 922v204h307v820h1434v-820h307v-204h-307v-820h-1434v820h-307zM307 973h1434v102h-1434v-102zM666 717l358 -410l358 410h-716zM666 1331h716l-358 410z" />
<glyph unicode="&#xf169;" d="M102 307v1434h820v307h204v-307h820v-1434h-820v-307h-204v307h-820zM307 1024l410 -358v716zM973 307h102v1434h-102v-1434zM1331 666l410 358l-410 358v-716z" />
<glyph unicode="&#xf171;" d="M205 1485l614 461v-306q211 0 400 -80q183 -77 325 -221q142 -140 220 -325q81 -192 81 -400q0 -207 -81 -399l-284 120q56 134 56 279q0 147 -56 279q-53 127 -154 228q-100 100 -227 154q-134 56 -280 56v-307z" />
<glyph unicode="&#xf172;" d="M203 614q0 208 81 400q78 185 220 325q142 144 325 221q189 80 400 80v306l614 -461l-614 -461v307q-146 0 -280 -56q-127 -54 -227 -154q-101 -101 -154 -228q-56 -132 -56 -279q0 -145 56 -279l-284 -120q-81 192 -81 399z" />
<glyph unicode="&#xf173;" d="M614 1434q0 169 120 289t290 120t290 -120t120 -289q0 -141 -87 -251t-221 -145v-628q0 -29 -21 -60.5t-51 -56t-60 -45.5t-51 -32l-21 -11v833q-134 35 -221 145t-87 251zM819 1536q0 -42 30.5 -72t72.5 -30t72 30t30 72t-30 72t-72 30t-72.5 -30t-30.5 -72z" />
<glyph unicode="&#xf174;" d="M102 1741q0 42 30.5 72t72.5 30h307q42 0 72 -30t30 -72v-205h1332l-410 -717h-922v-102h922q42 0 72 -30.5t30 -72.5t-30 -72t-72 -30h-1024q-42 0 -72 30t-30 72v1024h-205q-42 0 -72.5 30.5t-30.5 72.5zM410 256q0 64 44.5 109t108.5 45t109 -45t45 -109t-45 -109 t-109 -45t-108.5 45t-44.5 109zM1331 256q0 64 45 109t109 45t108.5 -45t44.5 -109t-44.5 -109t-108.5 -45t-109 45t-45 109z" />
<glyph unicode="&#xf175;" d="M102 307v1434q0 42 30.5 72t72.5 30h1638q42 0 72.5 -30t30.5 -72v-1434q0 -42 -30.5 -72t-72.5 -30h-1638q-42 0 -72.5 30t-30.5 72zM307 410h1434v921h-1434v-921zM410 717h307v102h-307v-102zM410 1126h307v103h-307v-103zM819 512h819v307h-819v-307zM819 922h819 v307h-819v-307z" />
<glyph unicode="&#xf176;" d="M102 666q0 136 90.5 236.5t223.5 117.5q-6 26 -6 55q0 106 75 181t181 75q49 0 97 -19q52 102 149 163t214 61q111 0 205.5 -55t149.5 -149.5t55 -205.5q0 -48 -15 -105q136 -14 229 -115.5t93 -239.5q0 -149 -105 -254t-253 -105h-1024q-149 0 -254 105.5t-105 253.5z " />
<glyph unicode="&#xf177;" d="M102 964q125 254 373 408.5t549 154.5t549 -154.5t373 -408.5q-125 -254 -373 -409t-549 -155t-549 155t-373 409zM246 964q107 -193 317.5 -317t460.5 -124t460.5 124t317.5 317q-70 126 -193 213.5t-283 129.5q112 -120 112 -283q0 -171 -121.5 -292.5t-292.5 -121.5 t-292.5 121.5t-121.5 292.5q0 163 112 283q-160 -42 -283 -129.5t-193 -213.5zM1000 1209q0 -55 39 -93.5t94 -38.5t93.5 38.5t38.5 93.5q0 44 -27 79.5t-68 47.5q-16 2 -50 4q-51 -4 -85.5 -41.5t-34.5 -89.5z" />
<glyph unicode="&#xf178;" d="M205 307q0 -42 30 -72t72 -30h1434q42 0 72 30t30 72v1434q0 42 -30 72t-72 30h-1434q-42 0 -72 -30t-30 -72v-1434zM307 307v1434h1434v-1434h-1434zM410 486v1076q0 32 22 54t54 22h1076q32 0 54 -22t22 -54v-128h-102v-308h102v-204h-102v-308h102v-128q0 -32 -22 -54 t-54 -22h-1076q-32 0 -54 22t-22 54zM512 1024q0 -111 55 -205.5t149.5 -149.5t205.5 -55q169 0 289 120t120 290t-120 290t-289 120q-111 0 -205.5 -55t-149.5 -149.5t-55 -205.5zM717 1024q0 63 34.5 114t91.5 75l79 118l78 -118q57 -24 91.5 -75t34.5 -114 q0 -85 -59.5 -145t-144.5 -60t-145 60t-60 145z" />
<glyph unicode="&#xf179;" d="M300 1076.5q-38 145.5 0 290.5t146 253t253 146.5t290.5 0t253.5 -146.5q94 -94 135.5 -218t25 -251.5t-86.5 -236.5q1 -1 15 -13t22 -18q36 -29 83 -61q65 -47 67 -48q66 -49 97 -80q50 -50 86 -102q36 -50 60 -107q22 -57 18 -102q-3 -50 -36 -83q-34 -34 -83 -37 q-48 -3 -102 20q-53 21 -106 60q-56 39 -103 86q-34 34 -79 95q-5 7 -21 30t-27 38q-27 39 -57 80q-24 30 -45 51q-158 -85 -342.5 -58.5t-317.5 158.5q-108 108 -146 253.5zM487 1222.5q0 -148.5 105 -253.5q104 -105 253 -105t254 105q104 105 104 253.5t-104 253.5 q-105 105 -254 105t-253 -105q-105 -105 -105 -253.5z" />
<glyph unicode="&#xf180;" d="M307 307h615v615h-615v-615zM307 1126h615v615h-615v-615zM1126 307h615v615h-615v-615zM1126 1126h615v615h-615v-615z" />
<glyph unicode="&#xf181;" d="M205 717v614h205v-614h-205zM512 614v820h1024v-820h-1024zM614 717h820v614h-820v-614zM717 819h614v205h-614v-205zM717 1126h614v103h-614v-103zM1638 717v614h205v-614h-205z" />
<glyph unicode="&#xf182;" d="M307 1434v102q0 42 30.5 72t72.5 30h307q18 88 90.5 146.5t165.5 58.5t165.5 -58.5t90.5 -146.5h307q42 0 72 -30t30 -72v-102h-1331zM410 307v1024h1126v-1024q0 -42 -30 -72t-72 -30h-922q-42 0 -72 30t-30 72zM614 410h103v716h-103v-716zM819 1638h307 q-17 44 -60 73.5t-93 29.5t-93.5 -29.5t-60.5 -73.5zM922 410h102v716h-102v-716zM1229 410h102v716h-102v-716z" />
<glyph unicode="&#xf183;" d="M205 205h1638v1638h-1638v-1638zM410 410v102h1228v-102h-1228zM410 1024q0 128 90 217.5t217 89.5v-307h307q0 -128 -90 -217.5t-217 -89.5t-217 89.5t-90 217.5zM410 1536v102h1228v-102h-1228zM819 1126v205q85 0 145 -60t60 -145h-205zM1229 717v102h409v-102h-409z M1229 922v204h409v-204h-409zM1229 1229v102h409v-102h-409z" />
<glyph unicode="&#xf184;" d="M205 922q0 146 57 278.5t153 228.5t228.5 152.5t278.5 56.5v-716h716q0 -146 -56.5 -278.5t-152.5 -228.5t-228.5 -153t-278.5 -57t-278.5 57t-228.5 153t-153 228.5t-57 278.5zM1024 1024v717q146 0 278.5 -57t228.5 -153t153 -228.5t57 -278.5h-717z" />
<glyph unicode="&#xf185;" d="M205 205h409v819h-409v-819zM819 205h410v1126h-410v-1126zM1434 205h409v1638h-409v-1638z" />
<glyph unicode="&#xf200;" d="M614 307h465q212 0 334 103q123 102 123 283q0 130 -52 206q-55 79 -171 106v9q86 15 139 92q52 76 52 196q0 177 -120 256q-117 80 -383 80h-387v-1331zM878 541v346h163q222 0 222 -165q0 -92 -53 -137q-51 -44 -160 -44h-172zM878 1111v296h139q113 0 165 -33 q52 -34 52 -109q0 -82 -48 -118t-155 -36h-153z" />
<glyph unicode="&#xf201;" d="M471 307l64 205h219l286 922h-218l64 204h691l-64 -204h-218l-286 -922h217l-64 -205h-691z" />
<glyph unicode="&#xf203;" d="M410 461q0 63 44.5 108t108.5 45q63 0 108.5 -45t45.5 -108q0 -64 -45.5 -109t-108.5 -45q-64 0 -108.5 45t-44.5 109zM410 973q0 63 44.5 108t108.5 45q63 0 108.5 -45t45.5 -108q0 -64 -45.5 -109t-108.5 -45q-64 0 -108.5 45t-44.5 109zM410 1485q0 63 44.5 108 t108.5 45q63 0 108.5 -45t45.5 -108q0 -64 -45.5 -109t-108.5 -45q-64 0 -108.5 45t-44.5 109zM819 410v102h922v-102h-922zM819 922v102h922v-102h-922zM819 1434v102h922v-102h-922z" />
<glyph unicode="&#xf204;" d="M410 311q51 -22 120 -22q82 0 125 34q44 34 44 94q0 41 -26 65q-27 25 -76 31v2q41 9 67 38q23 28 23 67q0 47 -38 72q-40 27 -102 27q-80 0 -136 -41l41 -62q29 19 47 24q20 7 42 7q59 0 59 -47q0 -32 -22 -44t-72 -12h-32v-68h32q53 0 77 -12q23 -12 23 -42 q0 -33 -20 -48q-22 -16 -65 -16q-24 0 -58 9q-27 7 -53 20v-76zM410 1177l46 -56q26 21 46 31q21 10 46 10q24 0 36 -11q13 -12 13 -37q0 -16 -6 -31q-5 -14 -20 -33q-16 -20 -59 -64l-101 -102v-60h282v72h-176v4l52 49q58 54 72 73q22 27 31 50q10 23 10 52q0 35 -16 58 q-15 24 -45 38t-67 14q-30 0 -52 -6q-15 -3 -43 -16q-24 -14 -49 -35zM412 1635l41 -52l47 38q6 5 30 29l-2 -43v-276h86v410h-70zM819 410v102h922v-102h-922zM819 922v102h922v-102h-922zM819 1434v102h922v-102h-922z" />
<glyph unicode="&#xf205;" d="M299 814q23 -184 122.5 -294t248.5 -110q132 0 217 76t85 208q0 116 -63 195q-43 55 -119 71.5t-140 2.5q-22 125 68 265.5t231 210.5l-142 199q-86 -41 -165 -99.5t-148 -137.5t-117 -168.5t-70 -198t-8 -220.5zM1124 814q23 -184 122 -294t248 -110q132 0 217 76 t85 208q0 117 -62 195q-45 55 -120 71.5t-139 2.5q-22 125 68 265.5t231 210.5l-143 199q-109 -52 -204.5 -132t-171 -184t-112 -236.5t-19.5 -271.5z" />
<glyph unicode="&#xf206;" d="M307 307h1434v205h-1434v-205zM307 717h922v205h-922v-205zM307 1126h1434v205h-1434v-205zM307 1536h922v205h-922v-205z" />
<glyph unicode="&#xf207;" d="M307 307h1434v205h-1434v-205zM307 1126h1434v205h-1434v-205zM614 717h820v205h-820v-205zM614 1536h820v205h-820v-205z" />
<glyph unicode="&#xf208;" d="M307 307h1434v205h-1434v-205zM307 1126h1434v205h-1434v-205zM819 717h922v205h-922v-205zM819 1536h922v205h-922v-205z" />
<glyph unicode="&#xf209;" d="M307 307h1434v410h-1434v-410zM307 922h307v204h-307v-204zM307 1331h1434v410h-1434v-410zM819 922h410v204h-410v-204zM1434 922h307v204h-307v-204z" />
<glyph unicode="&#xf210;" d="M205 1229h105l60 170h234l62 -170h106l-229 614h-109zM399 1485l56 160q23 68 32 112l16 -53q8 -27 17 -52l58 -167h-179zM410 717l512 -512l921 819l-102 102l-819 -614l-410 307zM819 1229h222q104 0 161 47q58 46 58 129q0 60 -31 97q-27 36 -95 48v4q52 9 79 45 q29 40 29 91q0 78 -57 116q-55 37 -184 37h-182v-614zM920 1313v195h101q65 0 100 -23q33 -23 33 -71q0 -53 -33 -77t-95 -24h-106zM920 1589v170h87q70 0 99 -19q32 -17 32 -63t-30 -67q-29 -21 -91 -21h-97zM1331 1536q0 -152 72 -233t207 -81q91 0 164 26v86 q-36 -11 -76 -19t-76 -8q-91 0 -137 58q-48 55 -48 170q0 108 49 169q51 61 136 61q37 0 73 -11q27 -8 65 -25l36 82q-79 40 -173 40q-91 0 -156 -37q-65 -38 -101 -111q-35 -69 -35 -167z" />
<glyph unicode="&#xf211;" d="M205 307v410l128 -128l384 230l-231 -384l128 -128h-409zM205 1331v410h409l-128 -128l231 -384l-384 230zM717 819v410h614v-410h-614zM1331 819l384 -230l128 128v-410h-409l128 128zM1331 1229l231 384l-128 128h409v-410l-128 128z" />
<glyph unicode="&#xf212;" d="M102 205v921h1844v-921h-1844zM102 1229v614h1844v-614h-1844zM205 307h1638v717h-1638v-717zM205 1331h1638v410h-1638v-410zM307 410v204h819v-204h-819zM307 717v205h205v-205h-205zM307 1434v204h205v-204h-205zM614 717v205h205v-205h-205zM614 1434v204h205v-204 h-205zM922 717v205h204v-205h-204zM922 1434v204h204v-204h-204zM1229 410v204h205v-204h-205zM1229 717v205h512v-205h-512zM1229 1434v204h205v-204h-205zM1536 410v204h205v-204h-205zM1536 1434v204h205v-204h-205z" />
<glyph unicode="&#xf213;" d="M512 205h922v205h-922v-205zM512 935q0 -63 13 -124t46.5 -124t83.5 -110t132 -77t184 -30q103 0 185 29.5t133 76t84.5 108.5t47 123t13.5 124v605h-205v-585q0 -146 -71.5 -225.5t-179.5 -79.5t-184.5 80t-76.5 223v587h-205v-601z" />
<glyph unicode="&#xf214;" d="M205 307v205h1638v-205h-1638zM205 717v205h1638v-205h-1638zM205 1126v205h1638v-205h-1638zM205 1536v205h1638v-205h-1638z" />
<glyph unicode="&#xf215;" d="M512 512h193l109 307h428l113 -307h194l-423 1126h-204zM871 977l153 498l174 -498h-327z" />
<glyph unicode="&#xf216;" d="M205 307q0 -42 30 -72t72 -30h1434q42 0 72 30t30 72v1229q0 42 -30 72t-72 30h-158l55 -64v-243h-1228v244l56 63h-159q-42 0 -72 -30t-30 -72v-1229zM512 1126h205l102 -512l103 512h204l103 -512l102 512h205l-205 -716h-205l-102 512l-102 -512h-213zM512 1434v102 l270 307h486l268 -307v-102h-1024zM922 1638q0 -42 30 -72t72 -30t72 30t30 72t-30 72.5t-72 30.5t-72 -30.5t-30 -72.5z" />
<glyph unicode="&#xf217;" d="M205 307v1229q0 42 30 72t72 30h159l-56 -64v-243h1228v243l-56 64h159q42 0 72 -30t30 -72v-1229q0 -43 -30 -72.5t-72 -29.5h-1434q-42 0 -72 29.5t-30 72.5zM512 1434v102l270 307h486l268 -307v-102h-1024zM614 922h308v-512h204v512h308v204h-820v-204zM922 1638 q0 -43 30 -72.5t72 -29.5t72 29.5t30 72.5q0 42 -30 72.5t-72 30.5t-72 -30.5t-30 -72.5z" />
<glyph unicode="&#xf218;" d="M307 644v217q0 89 63 152l679 678q61 62 150 62t151 -62l113 -113l113 -114q62 -61 62 -150v-217q0 -90 -62 -151l-679 -679q-61 -62 -151 -62q-89 0 -150 62l-114 113l-112 114q-63 62 -63 150zM432 876.5q0 -42.5 30 -72.5l219 -219q29 -29 72.5 -29t73.5 29l658 657 q30 30 30 73t-30 74l-219 219q-29 29 -74 29q-44 0 -73 -29l-657 -658q-30 -31 -30 -73.5z" />
<glyph unicode="&#xf219;" d="M410 307h307v103h614v-103h307v1536h-307v-102h-614v102h-307v-1536zM512 410v102h102v-102h-102zM512 614v103h102v-103h-102zM512 819v103h102v-103h-102zM512 1024v102h102v-102h-102zM512 1229v102h102v-102h-102zM512 1434v102h102v-102h-102zM512 1638v103h102 v-103h-102zM717 512v512h614v-512h-614zM717 1126v512h614v-512h-614zM1434 410v102h102v-102h-102zM1434 614v103h102v-103h-102zM1434 819v103h102v-103h-102zM1434 1024v102h102v-102h-102zM1434 1229v102h102v-102h-102zM1434 1434v102h102v-102h-102zM1434 1638v103 h102v-103h-102z" />
<glyph unicode="&#xf220;" d="M307 307h615v205q-87 58 -143 108.5t-87 113.5q-68 135 -68 330q0 211 102 320q102 111 298 111q194 0 298 -111q102 -110 102 -320q0 -198 -70 -335q-33 -63 -89.5 -114t-138.5 -103v-205h615v205h-378q149 105 217 240q76 157 76 343q0 275 -169 432q-171 159 -463 159 q-293 0 -463 -161q-169 -159 -169 -430q0 -185 75 -341q63 -133 215 -242h-375v-205z" />
<glyph unicode="&#xf221;" d="M102 1178l410 -359v205h205v307h-205v205zM307 614h410v103h-410v-103zM307 1638h410v103h-410v-103zM819 307h307v205h-307v-205zM819 614h922v205h-922v-205zM819 922h717v204h-717v-204zM819 1229h922v205h-922v-205zM819 1536h922v205h-922v-205z" />
<glyph unicode="&#xf222;" d="M307 614v205h922v-205h-922zM307 1229v205h922v-205h-922zM307 1536v205h922v-205h-922zM512 922v204h717v-204h-717zM922 307v205h307v-205h-307zM1331 614v103h410v-103h-410zM1331 1024v307h205v205l410 -358l-410 -359v205h-205zM1331 1638v103h410v-103h-410z" />
<glyph unicode="&#xf223;" d="M307 1024q0 -146 57 -278.5t153 -228.5t228.5 -153t278.5 -57t278.5 57t228.5 153t153 228.5t57 278.5t-57 278.5t-153 228.5t-228.5 153t-278.5 57t-278.5 -57t-228.5 -153t-153 -228.5t-57 -278.5zM774 1396q134 75 284 75q123 0 196 -59q73 -60 73 -159 q0 -65 -30 -113q-27 -46 -113 -109q-58 -43 -73 -64q-15 -23 -15 -59v-36h-160v44q0 56 25 101q21 38 90 91q63 45 83 73q20 26 20 63q0 39 -29 60q-28 19 -81 19q-89 0 -204 -58zM918 667q0 51 26 76q28 26 79 26q48 0 77 -27q27 -26 27 -75t-27 -74q-28 -28 -77 -28 t-78 27q-27 26 -27 75z" />
<glyph unicode="&#xf224;" d="M205 717l95 256h-95v102h134l95 255h109l94 -255h182v256h181q120 0 182 -42q56 -37 56 -115q0 -53 -28 -90l-8 -9h132q7 61 32 113q37 72 100 108q64 38 155 38q96 0 173 -39l-36 -83q-32 16 -65 26q-36 11 -73 11q-84 0 -134 -60q-36 -45 -45 -114h300v-102h-302 q9 -79 45 -122q46 -57 136 -57q41 0 76 7q28 6 74 20v-86q-72 -26 -161 -26q-134 0 -206 81q-61 69 -70 183h-96q18 -33 18 -81q0 -82 -56 -129q-58 -46 -160 -46h-220v256h-144l95 -256h-105l-61 171h-233l-60 -171h-106zM400 972h178v1h-178v-1zM436 1075h106l-22 63 q-2 6 -7.5 23.5t-9.5 28.5q-3 10 -6.5 21.5t-5.5 19t-3 11.5q-14 -61 -33 -112zM919 801h106q60 0 94 23q32 23 32 76q0 48 -33 71l-3 2h-196v-172zM919 1075h121q39 3 66 19q29 20 29 67q0 43 -31 63q-30 18 -99 18h-86v-167z" />
<glyph unicode="&#xf225;" d="M205 646q0 183 129 312l142 142l241 -76l-71 -66l-156 -156q-65 -64 -65 -156t65 -156q64 -65 156 -65t156 65l156 156l66 71l76 -241l-142 -142q-130 -129 -312 -129t-312 129q-129 129 -129 312zM205 1229v205l819 -410zM205 1638l819 -614l-614 819zM614 1843 l410 -819l-205 819h-205zM957 1550q31 63 79 110l156 157q130 129 313 129t312 -129q129 -130 129 -312.5t-129 -312.5l-157 -156q-47 -49 -111 -79l-218 67l173 168l78 79l78 78q64 65 64 156t-64 155q-65 65 -155.5 65t-155.5 -65l-79 -78l-78 -78l-168 -173zM1024 1024 l614 -819l205 205zM1024 1024l205 -819h205zM1024 1024l819 -205v-205z" />
<glyph unicode="&#xf226;" d="M205 922q0 -289 180 -512h1278q180 223 180 512q0 167 -65 318.5t-174.5 261t-261 174.5t-318.5 65t-318.5 -65t-261 -174.5t-174.5 -261t-65 -318.5zM307 922q0 42 30.5 72t72.5 30t72 -30t30 -72t-30 -72.5t-72 -30.5t-72.5 30.5t-30.5 72.5zM512 1331q0 42 30 72.5 t72 30.5t72.5 -30.5t30.5 -72.5t-30.5 -72t-72.5 -30t-72 30t-30 72zM819 717q0 86 65 148l345 466v-614q0 -85 -60 -145t-145 -60t-145 60t-60 145zM922 717q0 -42 30 -72.5t72 -30.5t72 30.5t30 72.5t-30 72t-72 30t-72 -30t-30 -72zM922 1536q0 42 30 72t72 30t72 -30 t30 -72t-30 -72t-72 -30t-72 30t-30 72zM1331 1331q0 42 30.5 72.5t72.5 30.5t72 -30.5t30 -72.5t-30 -72t-72 -30t-72.5 30t-30.5 72zM1536 922q0 42 30 72t72 30t72.5 -30t30.5 -72t-30.5 -72.5t-72.5 -30.5t-72 30.5t-30 72.5z" />
<glyph unicode="&#xf227;" d="M307 205h205v1536h-205v-1536zM614 819v819q84 28 193 29t220.5 -14t226 -30t244.5 -14t243 29v-819q-72 -30 -169 -38t-191.5 2.5t-203 25t-203 27t-192 10t-168.5 -26.5z" />
<glyph unicode="&#xf228;" d="M307 410v204h1434v-204h-1434zM307 922v204h1434v-204h-1434zM307 1434v204h1434v-204h-1434z" />
<glyph unicode="&#xf229;" d="M307 1021l615 413v-820zM1126 614v820l615 -413z" />
<glyph unicode="&#xf230;" d="M410 1229q0 -145 72 -273t187 -228q4 -4 23.5 -20.5t30 -25.5t31 -28t35.5 -34t34 -36.5t35 -42.5q135 -175 166 -278q31 103 166 278q16 21 35 42.5t34 36.5t35.5 34t31 28t30 25.5t23.5 20.5q115 100 187 228t72 273q0 125 -48.5 238.5t-131 196t-196 131t-238.5 48.5 t-238.5 -48.5t-196 -131t-131 -196t-48.5 -238.5zM672 1229q0 146 103 249t249 103t249 -103t103 -249t-103 -249t-249 -103t-249 103t-103 249z" />
<glyph unicode="&#xf231;" d="M205 208v921l512 205l437 -144l177 -748l176 756l336 136v-921l-500 -208l-626 208zM1075 1536q0 -72 37 -131.5t99 -93.5l120 -609l120 609q62 34 99 93.5t37 131.5q0 106 -75 181t-181 75t-181 -75t-75 -181zM1178 1536q0 64 44.5 109t108.5 45t109 -45t45 -109 t-45 -109t-109 -45t-108.5 45t-44.5 109z" />
<glyph unicode="&#xf232;" d="M205 819v1024h1229v-307h204v-307h205v-1024h-1229v307h-204v307h-205zM307 922h103v512h-103v-512zM512 614h102v512h-102v-512zM717 307h1024v205q-104 0 -190.5 17t-148 44t-117.5 59.5t-112 65.5t-117.5 60t-148 44t-190.5 17v-512zM922 1536h409q0 85 -60 145 t-145 60t-144.5 -60t-59.5 -145zM1126 1229h410q0 85 -60 145t-145 60t-145 -60t-60 -145zM1331 922q0 -85 60 -145t145 -60t145 60t60 145t-60 144.5t-145 59.5t-145 -59.5t-60 -144.5z" />
<glyph unicode="&#xf233;" d="M102 205v1126h205v205h205v205h1434v-1127h-205v-204h-205v-205h-1434zM205 307h1229v103h-1127v819h-102v-922zM410 512h1228v102h-1126v820h-102v-922zM614 717h1229v921h-1229v-921zM717 819v615l1024 -615h-1024zM1331 1331q0 85 60 145t145 60t145 -60t60 -145 t-60 -145t-145 -60t-145 60t-60 145z" />
<glyph unicode="&#xf234;" d="M102 1536q0 -42 31.5 -72t71.5 -30h512q42 0 72 30t30 72t-30 72t-72 30h-512q-42 0 -72.5 -30t-30.5 -72zM307 614q0 -42 30.5 -72t72.5 -30h819q42 0 72 30t30 72v615q0 42 -30 72t-72 30h-819q-42 0 -72.5 -30t-30.5 -72v-615zM1434 819v205l409 410v-1024z" />
<glyph unicode="&#xf235;" d="M102 717q0 -85 60 -145t145 -60h717q85 0 145 60t60 145v614q0 85 -60 145t-145 60h-717q-85 0 -145 -60t-60 -145v-614zM1331 973l615 -461v1024l-615 -461v-102z" />
<glyph unicode="&#xf236;" d="M205 512q0 -85 60 -145t145 -60h1331q85 0 145 60t60 145v1024q0 85 -60 145t-145 60h-1331q-85 0 -145 -60t-60 -145v-1024zM819 614v820l615 -410z" />
<glyph unicode="&#xf237;" d="M205 1024q0 128 89.5 217.5t217.5 89.5q133 0 226 -101l449 235q-9 36 -9 71q0 128 90 217.5t217 89.5t217 -89.5t90 -217.5t-90 -217.5t-217 -89.5q-134 0 -227 101l-448 -235q9 -36 9 -71t-9 -71l448 -235q91 101 227 101q127 0 217 -89.5t90 -217.5t-90 -217.5 t-217 -89.5t-217 89.5t-90 217.5q0 35 9 71l-449 235q-91 -101 -226 -101q-128 0 -217.5 89.5t-89.5 217.5z" />
<glyph unicode="&#xf238;" d="M204 206l432 689q-22 41 -22 78q0 64 45 108.5t109 44.5t109 -44.5t45 -108.5q0 -14 -6 -38l148 -65q47 52 114 52q20 0 52 -10l366 657q-60 45 -60 121q0 64 45 108.5t109 44.5q26 0 54 -10l5 9v-11q42 -17 68 -55.5t26 -85.5t-26 -86t-68 -56v-1342h-1545zM388 308 h1259v1141l-337 -603q21 -39 21 -78q0 -64 -44.5 -109t-108.5 -45t-109 45t-45 109l1 7l-167 74q-43 -30 -90 -30q-25 0 -52 10z" />
<glyph unicode="&#xf239;" d="M102 205h1741l1 1257q46 28 74 74.5t28 101.5q0 85 -60 145t-145 60t-145 -60t-60 -145q0 -60 32 -109.5t85 -74.5l-423 -674q-53 39 -119 39q-64 0 -114.5 -35t-74.5 -92l-220 157q15 38 15 73q0 85 -59.5 144.5t-145.5 59.5q-85 0 -145 -59.5t-60 -144.5 q0 -55 27.5 -101.5t73.5 -74.5zM410 922q0 42 30 72t72 30t72 -30t30 -72t-30 -72.5t-72 -30.5t-72 30.5t-30 72.5zM1009 614q0 42 30 72.5t72 30.5t72 -30.5t30 -72.5t-30 -72t-72 -30t-72 30t-30 72zM1638 1638q0 42 30.5 72.5t72.5 30.5t72 -30.5t30 -72.5t-30 -72 t-72 -30t-72.5 30t-30.5 72z" />
<glyph unicode="&#xf240;" d="M102 1126v308h273q9 16 12 20q45 66 93 114q49 49 114 93q66 45 131 72q77 32 144 44q155 34 310 0q67 -12 144 -44q65 -27 131 -72q65 -44 114 -93q48 -48 93 -114q36 -53 24 -115.5t-65 -97.5q-53 -36 -115.5 -24t-97.5 65q-16 25 -56 69q-44 40 -69 56q-44 28 -79 42 q-48 21 -86 27q-92 20 -186 1q-39 -8 -86 -28q-35 -14 -79 -42q-33 -21 -68 -56q-36 -36 -57 -69q-28 -44 -42 -78q-1 -2 -1 -4q-16 -39 -24 -74h-472zM363 709.5q12 62.5 65 98.5q53 35 115.5 23t97.5 -65q16 -25 56 -69q44 -40 69 -56q44 -28 79 -42q43 -18 86 -27 q89 -19 186 0q43 9 86 27q35 14 79 42q33 21 68 56q33 33 57 69q30 49 42 78q1 2 1 4q16 39 24 74h472v-308h-273q-2 -3 -5.5 -9.5t-6.5 -10.5q-45 -66 -93 -114q-49 -49 -114 -93q-66 -45 -131 -72q-70 -29 -144 -44q-155 -34 -310 0q-74 15 -144 44q-65 27 -131 72 q-65 44 -114 93q-48 48 -93 114q-36 53 -24 115.5zM768 1024q0 -106 75 -181t181 -75t181 75t75 181t-75 181t-181 75t-181 -75t-75 -181z" />
<glyph unicode="&#xf242;" d="M205 410v1126h965q-278 -49 -451 -205h-309v-717h1126v205l205 164v-573h-1536zM614 819q23 276 204.5 431t512.5 177v314l512 -512l-512 -410v306q-88 -2 -156 -9t-147 -26.5t-144.5 -52t-136 -87.5t-133.5 -131z" />
<glyph unicode="&#xf301;" d="M109 449q60 -6 90 -6q260 0 466 161q-122 2 -218.5 74.5t-132.5 186.5q40 -7 71 -7q48 0 98 13q-130 27 -215.5 130.5t-85.5 238.5v4q80 -44 170 -47q-77 52 -122 134.5t-45 178.5q0 102 52 189q141 -173 342.5 -277t431.5 -115q-11 51 -11 86q0 155 110.5 264.5 t265.5 109.5q165 0 275 -118q126 25 238 91q-45 -136 -166 -207q111 11 216 58q-77 -115 -187 -194q1 -15 1 -48q0 -151 -44 -302t-134 -289t-215 -244.5t-300 -170t-375 -63.5q-310 0 -576 169z" />
<glyph unicode="&#xf302;" d="M403 689q0 -213 120.5 -345t350.5 -138q2 0 8 -0.5t8 -0.5h533q89 0 152 63.5t63 152.5t-63 152t-152 63h-557q-17 0 -23.5 9.5t-6.5 30.5v310h587q89 0 152 63t63 152t-63 152.5t-152 63.5h-587v211q0 89 -63.5 152t-152.5 63t-152.5 -63t-63.5 -152v-930q0 -6 -1 -9z " />
<glyph unicode="&#xf303;" d="M205 421q0 -89 63.5 -151.5t154.5 -62.5q90 0 154 62.5t64 151.5q0 88 -64 151t-154 63q-91 0 -154.5 -62.5t-63.5 -151.5zM205 961q153 0 292.5 -57.5t248.5 -164.5q108 -107 166.5 -245t58.5 -289h315q0 216 -86 413.5t-230.5 340t-344.5 227t-420 84.5v-309zM205 1508 q179 0 350.5 -47t316.5 -131t267.5 -204.5t208 -263t133 -311.5t47.5 -346h315q0 219 -59 428t-164.5 385.5t-257 326t-331 253.5t-392 162t-434.5 58v-310z" />
<glyph unicode="&#xf304;" d="M205 295v1458q0 37 26.5 63.5t64.5 26.5h1457q37 0 63.5 -26.5t26.5 -63.5v-1458q0 -37 -26.5 -63.5t-63.5 -26.5h-418v635h213l32 246h-245v158q0 60 26 90.5t97 30.5h131v221q-69 9 -190 9q-145 0 -232 -85t-87 -241v-183h-214v-246h214v-635h-784q-37 0 -64 26.5 t-27 63.5z" />
<glyph unicode="&#xf305;" d="M614 952h252v-747h300v747h251l38 291h-289v187q0 70 30 105.5t115 35.5h154v261q-99 11 -224 11q-171 0 -273 -101t-102 -284v-215h-252v-291z" />
<glyph unicode="&#xf306;" d="M205 512h1638v1126h-921l-205 -204h-512v-922zM307 1536h307v205h-307v-205zM819 1024q0 128 89.5 217.5t217.5 89.5t218 -90t90 -217t-90 -217t-218 -90t-217.5 89.5t-89.5 217.5z" />
<glyph unicode="&#xf307;" d="M271 802q-50 160 34 254t265 94q42 0 81 -6q-7 -6 -29 -34q-109 -151 -43 -368l114 -388q-54 -31 -123 -31q-66 0 -120 29t-69 76zM399 1499q-13 -56 4.5 -126t63 -122t103.5 -52t103.5 52t63 122t4.5 126q-14 63 -63 102.5t-108 39.5t-108 -39.5t-63 -102.5zM672 769 l129 -440q18 -55 81.5 -89.5t141.5 -34.5q77 0 140.5 34.5t81.5 89.5l128 440q59 188 -39.5 300t-310.5 112t-311 -111.5t-41 -300.5zM822 1591q-15 -66 5.5 -148.5t74.5 -144t122 -61.5t121.5 61.5t74 144t5.5 148.5q-17 74 -74.5 120.5t-126.5 46.5t-126.5 -46.5 t-75.5 -120.5zM1307 1499q-13 -56 4.5 -126t62.5 -122t103 -52t103.5 52t63 122t4.5 126q-14 63 -63 102.5t-108 39.5q-58 0 -107 -39.5t-63 -102.5zM1354 354l113 386q68 220 -43 370q-16 22 -28 34q39 6 81 6q181 0 265 -94t34 -254l-110 -374q-15 -47 -69 -76t-120 -29 q-69 0 -123 31z" />
<glyph unicode="&#xf308;" d="M79 412q0 42 30 72l1123 1016q-237 149 -581 152q421 128 674 30q26 -10 51 -23.5t46 -26t45.5 -33.5t40.5 -34t41 -39.5t36.5 -38.5t37.5 -43.5t34 -41t35 -44.5t33 -42l87 85l145 -146l-355 -349l-146 146l86 84q-56 133 -154 236l-473 -675l-538 -481 q-30 -30 -72.5 -30t-73.5 30l-122 124q-30 30 -30 72z" />
<glyph unicode="&#xf309;" d="M156 1016.5q8 74.5 30.5 151.5t59 145.5t81 134t97.5 117t109.5 93t115.5 63.5t116 28t111 -14q21 -7 22 -22.5t-12 -36.5t-31 -45.5t-32.5 -53t-20 -55.5t9.5 -56t53 -52q37 -22 100.5 10.5t122.5 86t128.5 115t104.5 81.5q40 22 86.5 30t97.5 0t98.5 -47.5t78.5 -108.5 q34 -74 42 -186.5t-15 -245t-72 -261.5t-138.5 -247.5t-204.5 -191.5q-120 -75 -252.5 -108t-258.5 -21t-239 59.5t-203 136t-142 205.5q-30 68 -40.5 144.5t-2.5 151zM991 1109q1 -19 8 -35q31 -70 127 -58q94 12 178 85q98 86 98 189q0 36 -14 71q-26 66 -126 35 q-93 -29 -180 -114q-96 -94 -91 -173z" />
<glyph unicode="&#xf310;" d="M205 409h819v205h-614v820h614v204h-819v-1229zM614 819v410h615v307l614 -512l-614 -512v307h-615z" />
<glyph unicode="&#xf311;" d="M205 819q0 -288 180 -513h1278q180 225 180 513q0 167 -65 318.5t-174.5 261t-261 174.5t-318.5 65t-318.5 -65t-261 -174.5t-174.5 -261t-65 -318.5zM307 717q0 42 30.5 72t72.5 30t72 -30t30 -72q0 -43 -30 -73t-72 -30t-72.5 30t-30.5 73zM410 1229q0 42 30 72t72 30 t72 -30t30 -72q0 -43 -30 -73t-72 -30t-72 30t-30 73zM808 726.5q0 90.5 64 154.5q38 38 205 127.5t315 159.5l147 71q-30 -65 -77.5 -164t-144.5 -282t-135 -221q-64 -64 -155 -64t-155 64t-64 154.5zM922 717q0 42 30 72t72 30t72 -30t30 -72q0 -43 -30 -73t-72 -30 t-72 30t-30 73zM922 1434q0 42 30 72t72 30t72 -30t30 -72q0 -43 -30 -73t-72 -30t-72 30t-30 73zM1536 717q0 42 30 72t72 30t72.5 -30t30.5 -72q0 -43 -30.5 -73t-72.5 -30t-72 30t-30 73z" />
<glyph unicode="&#xf312;" d="M205 102v1127h102v205q0 212 150 362t362 150q110 0 205 -43q95 43 205 43q212 0 362 -150t150 -362v-205h102v-1127h-1638zM512 1229h205v205q0 169 104 307h-2q-127 0 -217 -90t-90 -217v-205zM922 1229h204v205q0 135 -102 227q-102 -92 -102 -227v-205zM1227 1741 q104 -138 104 -307v-205h205v205q0 127 -90 217t-217 90h-2z" />
<glyph unicode="&#xf313;" d="M317 307l311 546l128 -230l218 52l-257 -593l-144 225h-256zM457 1050l206 -127l125 -206l236 55l236 -55l125 206l206 127l-55 234l55 236l-205 127l-126 205l-236 -56l-234 55l-128 -204l-205 -127l55 -236zM614 1281q0 169 120.5 289t290.5 120q169 0 289 -120 t120 -289q0 -170 -120 -290.5t-289 -120.5q-170 0 -290.5 120.5t-120.5 290.5zM717 1280q0 127 89.5 217t216.5 90t217.5 -90t90.5 -217t-90 -217t-218 -90q-127 0 -216.5 89.5t-89.5 217.5zM1072 679l259 -597l144 225h256l-315 553l-131 -229z" />
<glyph unicode="&#xf314;" d="M205 205h717v717h-717v-717zM205 1126v717h717v-717h-717zM307 307v512h512v-512h-512zM307 1331l154 154l-154 153v-307zM410 1229h307l-154 153zM410 1741l153 -154l154 154h-307zM666 1485l153 -154v307zM1126 205v717h717v-717h-717zM1126 1126h717v717h-717v-717z M1229 410l153 153l-153 154v-307zM1229 1229v512h512v-512h-512zM1331 307h307l-153 154zM1331 819l154 -153l153 153h-307zM1587 563l154 -153v307z" />
<glyph unicode="&#xf315;" d="M307 307v717q0 85 60 145t145 60v205q0 212 150 362t362 150t362 -150t150 -362v-205q85 0 145 -60t60 -145v-717q0 -85 -60 -145t-145 -60h-1024q-85 0 -145 60t-60 145zM819 794q0 -62 34 -113t89 -75v-222h164v222q55 24 89 75t34 113q0 85 -60 144.5t-145 59.5 t-145 -59.5t-60 -144.5zM819 1229h410v205q0 85 -60 144.5t-145 59.5t-145 -59.5t-60 -144.5v-205z" />
<glyph unicode="&#xf316;" d="M410 1024h205v614h820v-614h204v819h-1229v-819zM513 819h307v615h410v-615h307l-512 -614z" />
<glyph unicode="&#xf317;" d="M410 205h1229v819h-205v-614h-820v614h-204v-819zM512 1229l512 614l512 -614h-307v-615h-410v615h-307z" />
<glyph unicode="&#xf318;" d="M205 307v1331h717l204 -204h-716v-922h102v819h1331v-1024h-1638z" />
<glyph unicode="&#xf319;" d="M102 1024q0 -187 73 -358t196.5 -294.5t294.5 -196.5t358 -73t358 73t294.5 196.5t196.5 294.5t73 358t-73 358t-196.5 294.5t-294.5 196.5t-358 73t-358 -73t-294.5 -196.5t-196.5 -294.5t-73 -358zM258 1248q75 246 277.5 406t464.5 171q-34 -56 -57.5 -129t-33 -153 t12 -158.5t75.5 -130.5q-42 -6 -83.5 11t-69 42t-58.5 48.5t-53.5 30t-53.5 -13.5q-89 -70 -43 -152q49 -89 227 -147q66 -22 144 -36q99 -18 168 -42t109 -50t61.5 -63.5t27.5 -73t5 -86.5q-6 -306 -415 -481q2 88 -12 156.5t-39 112t-56 75.5t-65 52.5t-64 37.5 t-55.5 37.5t-36.5 44.5q8 33 14 54t19.5 52.5t31.5 54t48.5 48.5t70.5 48q-389 40 -561 234zM1516 1135q-41 140 173 321q32 -49 56 -100t39 -95t23.5 -91t12 -83t1.5 -77t-5 -67.5t-10 -60t-11.5 -48t-12 -38t-7.5 -24.5q-26 63 -68 118t-77.5 87t-68.5 73.5t-45 84.5z" />
<glyph unicode="&#xf320;" d="M102 1380q0 192 135.5 327.5t327.5 135.5h761q42 0 72 -30t30 -72t-30 -72.5t-72 -30.5h-102v-1331q0 -42 -30.5 -72t-72.5 -30t-72 30t-30 72v1229q0 42 -30.5 72t-72.5 30t-72 -30t-30 -72v-1229q0 -42 -30 -72t-72 -30t-72.5 30t-30.5 72v611h-44q-192 0 -327.5 135 t-135.5 327zM1434 614l512 410l-512 410v-820z" />
<glyph unicode="&#xf321;" d="M113 1491l182 -93q76 149 203.5 254t275.5 152t312.5 35.5t311.5 -86.5q148 -76 253.5 -203t153 -275t36 -312.5t-87.5 -312.5t-203 -253.5t-274.5 -153t-312.5 -36t-313 87.5q-141 72 -242 189t-153 261l168 106q35 -123 116 -223.5t199 -161.5q113 -58 239 -67 t239 27.5t210 117.5t155 194q59 113 68 239t-27.5 239t-117 210t-194.5 156q-113 58 -239 67t-239 -27.5t-210 -117.5t-155 -194l192 -100l-506 -315zM922 1024q0 4 2 10t2 9h-1l99 493l99 -493l311 -326l-461 217l2 2q-16 8 -24 15q-29 29 -29 73z" />
<glyph unicode="&#xf322;" d="M9 1450l160 -1023q189 754 226 935q8 37 37.5 54.5t63.5 17.5h528q-72 212 -79 236q-19 71 -80 71h-339q-29 0 -52 -17.5t-30 -48.5l-34 -139h-330q-30 0 -52.5 -24t-18.5 -62zM144 307h1611q41 0 69.5 22.5t36.5 62.5l172 864q5 35 -15.5 55t-48.5 20h-331v151 q0 15 -19.5 34.5t-47.5 19.5h-385q-24 0 -46 -15t-32 -29l-11 -15l-73 -146h-452q-26 0 -46 -14t-24 -37q-163 -686 -176 -751q-17 -92 -53 -145q-51 -77 -129 -77zM500 1536q2 4 5 11t13 24.5t20 31t24 24.5t27 11h218q22 0 47.5 -25.5t39.5 -50.5l15 -26h-409zM1126 1331 q7 12 18.5 29t42 45.5t55.5 28.5h235q32 0 56.5 -26t32.5 -52l9 -25h-449z" />
<glyph unicode="&#xf323;" d="M102 819l1024 1024h717v-717l-1024 -1024zM1229 1434q0 -85 60 -145t145 -60t144.5 60t59.5 145t-59.5 144.5t-144.5 59.5t-145 -59.5t-60 -144.5z" />
<glyph unicode="&#xf324;" d="M0 1024q0 -208 81 -397.5t218.5 -327t327 -218.5t397.5 -81t397.5 81t326.5 218.5t218.5 327t81.5 397.5t-81.5 397.5t-218.5 326.5t-326.5 218.5t-397.5 81.5t-397.5 -81.5t-327 -218.5t-218.5 -326.5t-81 -397.5zM114 1024q0 202 73 368q106 -292 438 -1196 q-231 111 -371 335.5t-140 492.5zM259 1523q124 190 326 300.5t439 110.5q177 0 336 -62t284 -177q-60 9 -114.5 -34t-54.5 -128q0 -18 4.5 -38t8.5 -33.5t16.5 -37t17.5 -33t22.5 -37.5l22.5 -36q56 -96 56 -252q0 -68 -35.5 -196t-71.5 -222l-36 -94l-311 857q24 1 45 5 t30 8l9 4q24 2 32.5 34t-3 62t-35.5 29q-147 -12 -243 -12q-40 0 -99.5 3t-99.5 6l-40 3q-24 1 -35.5 -29.5t-3 -62.5t32.5 -33l94 -8l129 -349l-185 -597l-350 937l120 8q24 3 32.5 31.5t-3 56t-35.5 26.5q-149 -11 -243 -11q-37 0 -59 1zM790 147q170 501 247 727 l265 -714q-135 -46 -278 -46q-128 0 -234 33zM1484 227q208 556 299 797q12 32 17.5 48t17 62t15.5 86.5t3.5 105t-9.5 133.5q107 -196 107 -435q0 -251 -121.5 -464t-328.5 -333z" />
<glyph unicode="&#xf325;" d="M0 308v305q0 43 30 73.5t72 30.5h103v205q0 85 60 144.5t145 59.5h512v205h-103q-42 0 -72 30.5t-30 73.5v305q0 43 30 73t72 30h410q42 0 72 -30t30 -73v-305q0 -43 -30 -73.5t-72 -30.5h-103v-205h512q85 0 145 -59.5t60 -144.5v-205h103q42 0 72 -30.5t30 -73.5v-305 q0 -43 -30 -73t-72 -30h-410q-42 0 -72 30t-30 73v305q0 43 30 73.5t72 30.5h102v205h-512v-205h103q42 0 72 -30.5t30 -73.5v-305q0 -43 -30 -73t-72 -30h-410q-42 0 -72 30t-30 73v305q0 43 30 73.5t72 30.5h103v205h-512v-205h102q42 0 72 -30.5t30 -73.5v-305 q0 -43 -30 -73t-72 -30h-410q-42 0 -72 30t-30 73z" />
<glyph unicode="&#xf326;" d="M0 819v717q0 85 60 145t145 60h717q85 0 144.5 -60t59.5 -145v-205h-154q-48 0 -92 -20t-71 -51l-92 276h-294l-245 -717h173l76 205h290v-410h-512q-85 0 -145 60t-60 145zM460 1126l102 300l105 -300h-207zM819 307v717q0 85 60 145t145 60h717q85 0 145 -60t60 -145 v-717q0 -85 -60 -145t-145 -60h-717q-85 0 -145 60t-60 145zM998 717h131q8 -67 43 -138.5t89 -129.5q-65 -27 -134.5 -45.5t-102.5 -18.5l5 -27q5 -26 10.5 -63t4.5 -59q64 0 158.5 33t177.5 84q85 -51 181 -84t161 -33q-1 14 1 34.5t5.5 39.5t6.5 36t5 28l3 11 q-34 0 -105.5 19t-138.5 46q53 58 86 129t42 138h139v110h-324v223h-119v-223h-325v-110zM1273 717h214q-26 -126 -103 -198l-4 -3q-3 2 -4 3q-78 72 -103 198z" />
<glyph unicode="&#xf327;" d="M148 147l147 705q960 963 1009 1013q36 37 102.5 35t109.5 -45l342 -343q42 -45 41.5 -106t-38.5 -100l-1010 -1012zM466 796l140 -141l699 714l-135 134zM659 602l137 -137l704 707l-135 136z" />
<glyph unicode="&#xf328;" d="M181 715q92 -270 324.5 -436t518.5 -166t518.5 166t324.5 436l-135 47q-77 -227 -272.5 -366.5t-435.5 -139.5t-435.5 139.5t-272.5 366.5zM512 1311q0 85 60 145t145 60t145 -60t60 -145q0 -52 -29 -103q-74 21 -176 21q-45 0 -89 -5.5t-66 -10.5l-21 -5q-29 51 -29 103 zM1126 1311q0 85 60 145t145 60t145 -60t60 -145q0 -52 -29 -103q-74 21 -176 21q-45 0 -89 -5.5t-66 -10.5l-21 -5q-29 51 -29 103z" />
<glyph unicode="&#xf329;" d="M512 512h1024v205h-1024v-205zM512 922h1024v204h-1024v-204zM512 1331h1024v205h-1024v-205z" />
<glyph unicode="&#xf330;" d="M205 410v1228q0 128 90 218t217 90h922v-1434h-922q-42 0 -72 -30t-30 -72t30 -72.5t72 -30.5h1126v1434h205v-1639h-1331q-127 0 -217 90t-90 218z" />
<glyph unicode="&#xf331;" d="M205 410v1228q0 128 90 218t217 90h1331v-1434h-1331q-42 0 -72 -30t-30 -72t30 -72.5t72 -30.5h1331v-205h-1331q-127 0 -217 90t-90 218zM614 666q0 -22 15 -37t37 -15t36.5 15t14.5 37v1126q0 22 -14.5 36.5t-36.5 14.5t-37 -14.5t-15 -36.5v-1126z" />
<glyph unicode="&#xf332;" d="M307 1638q115 0 231 21t199.5 51t151 60.5t101.5 51.5l34 21q13 -8 36 -22t98 -49.5t154 -62.5t196.5 -49t232.5 -22q0 -181 -24.5 -345.5t-66 -290t-95.5 -236t-113.5 -189.5t-118.5 -144.5t-113 -106.5t-95.5 -69.5t-66.5 -40.5l-24 -11q-9 4 -25 12t-65 39.5t-96.5 70 t-112 105.5t-120 144.5t-112 189.5t-96.5 237t-65 289.5t-25 345.5zM512 1024q21 -84 60.5 -168.5t86 -153t98 -132t98.5 -110.5t85 -82t61 -53l23 -18v717h512q4 4 11 13.5t24.5 49t31 91.5t24.5 147.5t11 210.5q-21 4 -56 11.5t-129 31t-171 46.5t-153 55t-105 61v-717 h-512z" />
<glyph unicode="&#xf333;" d="M307 512h1434v205h-1434v-205zM307 922h1434v204h-1434v-204zM307 1331h1434v205h-1434v-205z" />
<glyph unicode="&#xf334;" d="M307 1638q115 0 231 21t199.5 51t151 60.5t101.5 51.5l34 21q13 -8 36 -22t98 -49.5t154 -62.5t196.5 -49t232.5 -22q0 -181 -24.5 -345.5t-66 -290t-95.5 -236t-113.5 -189.5t-118.5 -144.5t-113 -106.5t-95.5 -69.5t-66.5 -40.5l-24 -11q-9 4 -25 12t-65 39.5t-96.5 70 t-112 105.5t-120 144.5t-112 189.5t-96.5 237t-65 289.5t-25 345.5z" />
<glyph unicode="&#xf335;" d="M517 663l362 361l-362 361l146 146l361 -362l362 362l145 -145l-363 -362l363 -362l-145 -145l-362 362l-361 -362z" />
<glyph unicode="&#xf336;" d="M205 410v1228h1638v-1228h-1638zM307 512h1434v102h-1434v-102zM307 774l21 -5q26 -8 56 -14q59 -14 82 -18q36 -7 102 -14q57 -6 110 -6q50 0 109 6q49 5 101 14q36 6 84 18q17 4 35.5 8.5t19.5 4.5q12 4 22 6v128q0 58 -32 110q-33 54 -86 88t-114 34l-139 -93l-141 91 q-63 0 -117 -33q-56 -36 -83 -87q-30 -55 -30 -110v-128zM537 1397q-1 -18 1 -57l2 -9q2 -11 6 -25q1 -2 4.5 -14.5t5.5 -19.5q7 -21 17 -38q13 -20 26 -34q15 -16 35 -25q22 -10 44 -10t44 10q22 12 34 24q13 14 24 35q15 31 18 38q4 11 10 35l6 24q0 2 0.5 5t0.5 4 q7 46 -4 93q-12 44 -47 73q-38 30 -88 30q-31 0 -58 -11q-25 -12 -41 -31q-18 -22 -28 -45q-10 -24 -12 -52zM1229 717h512v102h-512v-102zM1229 922h512v102h-512v-102zM1229 1126h512v410h-512v-410z" />
<glyph unicode="&#xf337;" d="M205 205v1638h1638v-1638h-1638zM410 410h1228v102h-1228v-102zM410 614h1228v103h-1228v-103zM410 877l20 -6q26 -8 56 -14q45 -11 82 -17q46 -9 103 -15t109 -6t110 6q32 3 100 15q52 9 84 17q17 4 35.5 8.5t19.5 4.5q19 6 22 7v128q0 57 -32 109q-33 54 -86 88 t-113 34l-140 -92l-141 90q-63 0 -117 -33q-56 -36 -83 -87q-29 -53 -29 -109v-128zM639 1499q-1 -18 1 -56l2 -9q2 -14 6 -26q1 -2 4.5 -14.5t5.5 -19.5q6 -17 18 -38q13 -20 25 -33q16 -18 35 -26q19 -9 44 -9q24 0 44 9q20 10 34 25q17 19 25 34q12 23 17 38q4 11 10 35 l6 25q0 2 1 5t1 4q6 43 -5 92q-12 45 -47 74q-37 29 -88 29q-30 0 -57 -11q-27 -13 -42 -31q-18 -22 -28 -45q-10 -24 -12 -52zM1126 1331h512v103h-512v-103zM1126 1536h512v102h-512v-102zM1331 922h307v102h-307v-102zM1331 1126h307v103h-307v-103z" />
<glyph unicode="&#xf338;" d="M307 321v254q0 138 47 221q66 118 154 172q48 29 139 42.5t172 13.5l171 -171l-68 -136v-307l104 -111l100 111v307l-69 136l169 171q214 0 297 -53q99 -63 167 -176q51 -87 51 -220v-254q0 -5 -30 -14q-7 -2 -37.5 -10.5t-61.5 -16.5q-135 -29 -169 -35 q-99 -18 -200 -28q-115 -12 -218 -12t-219 12q-82 7 -203 28q-24 4 -160 35q-39 9 -108 29zM741 1564q3 54 26 106q22 51 53 88q36 42 85 62q54 23 116 23q106 0 175 -60q71 -61 93 -148q23 -87 9 -182l-3 -19q-1 -11 -11 -50q-6 -29 -20 -70q-10 -27 -35 -74 q-18 -35 -48 -71q-26 -28 -69 -49q-41 -19 -88 -19t-89 19q-45 22 -69 51q-28 31 -50 68q-25 43 -35 75q-14 42 -21 68q-9 34 -12 52l-4 19q-6 57 -3 111z" />
<glyph unicode="&#xf339;" d="M449 1370q0 156 77 288.5t209.5 210t288.5 77.5t289 -77.5t210.5 -210t77.5 -288.5q0 -53 -21.5 -120.5t-52 -126.5t-61 -110.5t-52.5 -81.5l-21 -30q-26 -34 -44 -88t-18 -96v-103q0 -42 -30 -72t-72 -30h-410q-42 0 -72 30t-30 72v103q0 42 -18 96t-44 88 q-8 11 -22 31.5t-49.5 79t-62.5 113t-49.5 123.5t-22.5 122zM717 321v89h614v-89q0 -116 -77 -116h-25q0 -47 -29 -75t-76 -28h-204q-46 0 -73.5 28t-27.5 75h-25q-77 0 -77 116z" />
<glyph unicode="&#xf340;" d="M205 1024l819 819v-307l-410 -410h1229v-204h-1229l410 -410v-307z" />
<glyph unicode="&#xf341;" d="M614 1024l820 819v-307l-512 -512l512 -512v-307z" />
<glyph unicode="&#xf342;" d="M205 1024l819 819l819 -819h-307l-410 410v-1229h-204v1229l-410 -410h-307z" />
<glyph unicode="&#xf343;" d="M205 614l819 820l819 -820h-307l-512 512l-512 -512h-307z" />
<glyph unicode="&#xf344;" d="M205 922v204h1229l-410 410v307l819 -819l-819 -819v307l410 410h-1229z" />
<glyph unicode="&#xf345;" d="M614 205v307l512 512l-512 512v307l820 -819z" />
<glyph unicode="&#xf346;" d="M205 1024h307l410 -410v1229h204v-1229l410 410h307l-819 -819z" />
<glyph unicode="&#xf347;" d="M205 1434h307l512 -512l512 512h307l-819 -820z" />
<glyph unicode="&#xf348;" d="M205 1024q0 167 65 318.5t174.5 261t261 174.5t318.5 65t318.5 -65t261 -174.5t174.5 -261t65 -318.5t-65 -318.5t-174.5 -261t-261 -174.5t-318.5 -65t-318.5 65t-261 174.5t-174.5 261t-65 318.5zM922 512h204v614h-204v-614zM922 1434q0 -42 30 -72.5t72 -30.5 t72 30.5t30 72.5t-30 72t-72 30t-72 -30t-30 -72z" />
<glyph unicode="&#xf349;" d="M0 307h2048v307h-2048v-307zM0 922h2048v307h-2048v-307zM0 1536h2048v307h-2048v-307z" />
<glyph unicode="&#xf448;" d="M0 1024q0 208 81 397.5t218.5 327t327 218.5t397.5 81t397.5 -81t327 -218.5t218.5 -327t81 -397.5t-81 -397.5t-218.5 -327t-327 -218.5t-397.5 -81t-397.5 81t-327 218.5t-218.5 327t-81 397.5zM51 1024q0 -198 77 -378.5t207 -310.5t310.5 -207t378.5 -77t378.5 77 t310.5 207t207 310.5t77 378.5t-77 378.5t-207 310.5t-310.5 207t-378.5 77t-378.5 -77t-310.5 -207t-207 -310.5t-77 -378.5zM154 1024q0 177 69 338t185.5 277.5t277.5 185.5t338 69t338 -69t277.5 -185.5t185.5 -277.5t69 -338t-69 -338t-185.5 -277.5t-277.5 -185.5 t-338 -69t-338 69t-277.5 185.5t-185.5 277.5t-69 338zM393.5 573.5q0.5 -28.5 2.5 -45.5l2 -16h1135q7 85 0.5 152t-25 118t-44.5 89t-56.5 63.5t-61.5 42.5t-60 26t-51.5 13.5t-36.5 5.5h-13l-217 -214l-217 214q-69 -4 -125.5 -23.5t-93 -50t-64.5 -69t-42 -80 t-22.5 -82.5t-9.5 -78t-0.5 -65.5zM666 1317q0 -124 87.5 -211.5t211.5 -87.5t212 87.5t88 211.5q0 125 -87.5 212.5t-212.5 87.5q-124 0 -211.5 -88t-87.5 -212zM1050 1673q121 -29 200 -127t79 -226q0 -104 -56 -192q102 23 168 104.5t66 187.5q0 124 -87.5 211.5 t-211.5 87.5q-85 0 -158 -46zM1348 1043q67 -20 117.5 -65.5t74.5 -95.5t38.5 -98t17.5 -79l2 -31h132q0 98 -18 175t-47.5 121.5t-64.5 75t-70 41.5t-64.5 16t-47.5 3l-18 -2z" />
<glyph unicode="&#xf449;" d="M307 1126q0 42 30.5 72.5t72.5 30.5h1228q42 0 72.5 -30.5t30.5 -72.5t-30.5 -72t-72.5 -30h-1228q-42 0 -72.5 30t-30.5 72zM410 819q0 42 30 72.5t72 30.5h1024q42 0 72 -30.5t30 -72.5t-30 -72t-72 -30h-1024q-42 0 -72 30t-30 72zM512 1485q0 64 45 108.5t109 44.5 h162q-9 29 -9 52q0 64 45 108.5t109 44.5h102q64 0 109 -44.5t45 -108.5q0 -23 -9 -52h162q64 0 109 -44.5t45 -108.5t-45 -109t-109 -45h-716q-64 0 -109 45t-45 109zM614 512q0 42 30.5 72t72.5 30h614q42 0 72.5 -30t30.5 -72t-30.5 -72t-72.5 -30h-111q9 -29 9 -52 q0 -64 -45 -108.5t-109 -44.5h-102q-64 0 -109 44.5t-45 108.5q0 23 9 52h-111q-42 0 -72.5 30t-30.5 72z" />
<glyph unicode="&#xf450;" d="M205 512q0 -92 39.5 -148.5t97.5 -56.5h33q64 0 100.5 45.5t36.5 159.5q0 72 -42.5 174.5t-85.5 169.5l-42 66q-15 -32 -38 -82.5t-61 -161t-38 -166.5zM228 1190q0 -64 44 -109q46 -45 110 -44t107 44l580 580q44 44 44.5 108t-44.5 109q-45 44 -109 44t-108 -44 l-580 -580q-44 -44 -44 -108zM517 901q0 -64 45 -109q47 -45 110 -44t107 44l580 579q44 44 44 108t-44 109q-45 45 -109 45t-108 -45l-580 -579q-45 -44 -45 -108zM807 611q0 64 45 109l580 578q44 45 108 45t109 -45q44 -44 44 -108t-44 -109l-182 -181l428 -428 q45 -44 45 -108t-45 -109t-109 -45t-108 45l-428 428l-181 -181q-45 -44 -109 -44t-108 44q-45 45 -45 109z" />
<glyph unicode="&#xf451;" d="M162 776.5q0 127.5 90 217.5q104 68 215 133q-139 189 -139 421q0 49 8 103q19 -134 86.5 -251t171.5 -202q55 28 130 58t113 36h-18q-85 0 -145 60t-60 145t60 145t145 60v51q0 22 14.5 36.5t36.5 14.5t37 -14.5t15 -36.5v-51h204v51q0 22 15 36.5t37 14.5t36.5 -14.5 t14.5 -36.5v-51q85 0 145 -60t60 -145t-60 -145t-145 -60h-18q37 -6 116 -37t128 -57q104 85 171.5 202t86.5 251q8 -54 8 -103q0 -232 -139 -421q49 -29 102.5 -62t82.5 -52l29 -19q90 -90 90 -217.5t-90 -217.5q-91 -90 -218 -90t-217 90l-35 53q0 -68 -9.5 -127.5 t-23.5 -102t-38 -81t-43 -62t-50.5 -48.5t-49 -36t-48.5 -29t-40 -24q-11 8 -50.5 32.5t-66 43t-65 60t-62 88t-41 121.5t-17.5 165l-35 -53q-90 -90 -217 -90t-218 90q-90 90 -90 217.5zM768 1497q0 -42 30 -72t72 -30q39 0 71 30.5t32 71.5q0 42 -30.5 72t-72.5 30 t-72 -30t-30 -72zM819 563q0 -22 14.5 -36.5t36.5 -14.5h308q22 0 36.5 14.5t14.5 36.5t-14.5 36.5t-36.5 14.5h-308q-22 0 -36.5 -14.5t-14.5 -36.5zM819 768q0 -22 14.5 -36.5t36.5 -14.5h308q22 0 36.5 14.5t14.5 36.5q0 24 -20 39q-15 12 -31 12h-308q-16 0 -31 -12 q-20 -18 -20 -39zM922 358q0 -22 14.5 -36.5t36.5 -14.5h102q22 0 36.5 14.5t14.5 36.5t-14.5 37t-36.5 15h-102q-22 0 -36.5 -15t-14.5 -37zM923 969q2 -20 16 -33.5t34 -13.5h102q20 0 34 13.5t16 33.5q0 22 -19 44q-15 11 -31 11h-102q-16 0 -31 -11q-19 -17 -19 -44z M1075 1497q0 -42 30.5 -72t72.5 -30t72 30t30 72t-30 72t-72 30t-72.5 -30t-30.5 -72z" />
<glyph unicode="&#xf452;" d="M205 819v103q0 128 89.5 217.5t217.5 89.5h205v717h102v-717h205v205q0 118 94 212.5t213 94.5v-88q93 88 205 88v-307h102q85 0 145 -60t60 -145t-60 -145t-145 -60h-102v-102v-1v-511q0 -42 -30 -72.5t-72 -30.5t-72.5 30.5t-30.5 72.5v223q-55 -19 -102 -19v-204 q0 -42 -30.5 -72.5t-72.5 -30.5t-72 30.5t-30 72.5v204h-205v-204q0 -42 -30 -72.5t-72 -30.5t-72.5 30.5t-30.5 72.5v204q-47 0 -102 19v-223q0 -42 -30 -72.5t-72 -30.5t-72.5 30.5t-30.5 72.5v409h-102zM1229 1331q0 -42 30 -72t72 -30t72.5 30t30.5 72t-30.5 72.5 t-72.5 30.5t-72 -30.5t-30 -72.5z" />
<glyph unicode="&#xf453;" d="M307 512v307q38 -59 72 -96.5t98 -76.5t153 -65q36 -11 114 -42.5t147 -51t133 -19.5q65 0 134.5 20t147 51.5t115.5 42.5q70 19 121.5 44t88.5 59t58.5 61t51.5 73v-307q0 -111 -96 -205.5t-261 -149.5t-360 -55t-360 55t-261 149.5t-96 205.5zM307 1024q0 -113 81 -202 t248 -143q33 -11 111.5 -43.5t145.5 -52t131 -19.5t131.5 19.5t145.5 53t111 43.5q167 53 248 142t81 202q0 112 -97.5 206t-261.5 148v-252q0 -64 -44.5 -108.5t-108.5 -44.5t-109 44.5t-45 108.5v307q-9 0 -26 0.5t-25 0.5t-25 -0.5t-26 -0.5v-307q0 -64 -45 -108.5 t-109 -44.5t-108.5 44.5t-44.5 108.5v252q-164 -54 -261.5 -148t-97.5 -206zM717 1126q0 -42 30 -72t72 -30q43 0 73 31t30 71v359q0 42 -30.5 72t-72.5 30t-72 -31t-30 -71v-359zM717 1741q0 -38 30.5 -70.5t71.5 -32.5q42 0 72.5 31t30.5 72q0 94 -103 205 q-40 -40 -71 -100t-31 -105zM1126 1126q0 -42 30.5 -72t72.5 -30t72 31t30 71v359q0 42 -30 72t-72 30q-43 0 -73 -31t-30 -71v-359zM1126 1741q0 -38 31 -70.5t72 -32.5q42 0 72 31t30 72q0 95 -102 205q-41 -41 -72 -100.5t-31 -104.5z" />
<glyph unicode="&#xf454;" d="M512 307q0 -42 30 -72t72 -30h205q42 0 72.5 30t30.5 72v819q0 42 -30.5 72.5t-72.5 30.5h-205q-42 0 -72 -30.5t-30 -72.5v-819zM538 1457q0 -100 44 -138.5t135 -38.5t135 38.5t44 138.5q0 63 -45 159.5t-89 161.5l-45 65q-7 -10 -19 -27.5t-43 -67t-54.5 -95 t-43 -101.5t-19.5 -95zM614 410v204l205 103v-205zM614 717v205l205 102v-205zM1126 307q0 -42 30.5 -72t72.5 -30h205q42 0 72 30t30 72v819q0 42 -30 72.5t-72 30.5h-205q-42 0 -72.5 -30.5t-30.5 -72.5v-819zM1152 1457q0 -100 44 -138.5t135 -38.5t135 38.5t44 138.5 q0 63 -45 159.5t-89 161.5l-45 65q-7 -10 -19 -27.5t-43 -67t-54.5 -95t-43 -101.5t-19.5 -95zM1229 410v204l205 103v-205zM1229 717v205l205 102v-205z" />
<glyph unicode="&#xf455;" d="M461 512l461 838q-58 95 -172.5 149.5t-267.5 58.5l252 299q204 -145 304 -339q52 81 112 133.5t165 83.5l187 -293q-195 47 -378 -88l463 -842q-49 -98 -145.5 -169.5t-204 -104.5t-213.5 -33t-213.5 33t-204 104.5t-145.5 169.5zM580 515q156 -83 345 -83 q150 0 278 51.5t207 139.5l-100 180q-78 -88 -206.5 -140t-279.5 -52q-85 0 -180 22zM741 810q73 -16 158 -16q204 0 364 97l-104 186q-140 -85 -322 -94z" />
<glyph unicode="&#xf456;" d="M205.5 1090.5q-16.5 99.5 23 185.5t130.5 132q69 35 147 32q-2 -64 7 -124q21 -132 102.5 -258t190.5 -190q-30 -87 -90 -128l206 -390v580q-105 29 -196.5 147.5t-111.5 253.5t17 252t127.5 188.5t214.5 71.5t214.5 -71.5t127 -188.5t16.5 -252t-111.5 -253.5 t-195.5 -147.5v-591l212 393q-63 34 -101 133q112 63 194.5 190t103.5 261q9 60 7 125q76 2 142 -33q91 -47 130.5 -133t23 -185.5t-81.5 -191.5q-61 -85 -164 -137.5t-191 -44.5l-270 -511h-107l-272 511q-88 -12 -194 41t-169 142q-65 92 -81.5 191.5z" />
<glyph unicode="&#xf457;" d="M205 205v1126q11 11 30 29.5t78 71.5t118 101.5t141 107.5t155.5 101.5t153.5 71.5t143 29t142 -28t155 -73.5t154 -100t143 -109t116 -100t80 -73.5l29 -28v-1126h-1638zM307 922l382 -287l-352 -292l41 -44l646 418l669 -425l48 44l-382 299l382 287l-44 37l-232 -133 l25 442l-898 53l-47 -465l-204 97z" />
<glyph unicode="&#xf459;" d="M102 1254l423 -473l-115 -679l614 308l614 -308l-114 679l422 473l-615 77l-307 615l-307 -615zM1024 524v1192l240 -480l476 -59l-326 -365l89 -527z" />
<glyph unicode="&#xf460;" d="M410 922v204h1228v-204h-1228z" />
<glyph unicode="&#xf462;" d="M180 495q0 85 59.5 161t165 123.5t230.5 47.5q14 0 40.5 0.5t39.5 0.5q-63 63 -63 129q0 43 24 89q-8 -1 -22.5 0.5t-20.5 1.5q-155 0 -253.5 99.5t-98.5 242.5q0 89 57 170.5t150.5 131t194.5 49.5h463l-104 -103h-147q84 -88 104 -118q45 -65 45 -148q0 -139 -131 -239 q-54 -42 -71 -68.5t-17 -64.5q0 -28 40.5 -71.5t81.5 -72.5q90 -64 126 -131t36 -169q0 -63 -30.5 -122.5t-86.5 -106.5t-144 -75.5t-194 -28.5q-129 0 -236.5 32.5t-172.5 95.5t-65 144zM347 544q0 -103 87.5 -175t218.5 -72q176 0 256 65.5t80 174.5q0 23 -5 48 q-5 19 -15 36.5t-19 29t-31 29.5t-32.5 26t-42.5 29.5t-45 30.5q-57 18 -115 18q-134 2 -235.5 -70t-101.5 -170zM446 1378q15 -118 89.5 -202.5t163.5 -86.5q90 -3 142.5 77.5t37.5 198.5q-15 117 -89 200t-164 86q-90 2 -142.5 -77t-37.5 -196zM1229 1331v103h205v204h102 v-204h205v-103h-205v-205h-102v205h-205z" />
<glyph unicode="&#xf463;" d="M82 950l358 410q60 -68 179.5 -205t179.5 -205h-238q35 -153 158.5 -253t284.5 -100q109 0 203.5 49t158.5 133l175 -199q-100 -115 -239.5 -179.5t-297.5 -64.5q-177 0 -331 81t-253.5 221t-124.5 312h-213zM507 1468q100 115 239.5 179.5t297.5 64.5q177 0 331.5 -81 t253.5 -221t124 -312h213l-358 -410l-359 410h238q-35 153 -158.5 253t-284.5 100q-109 0 -203.5 -49t-158.5 -133z" />
<glyph unicode="&#xf464;" d="M313 314l119 572q778 781 818 822q29 31 83 29.5t89 -36.5l278 -279q34 -36 34 -86t-31 -82l-820 -821zM570 841l114 -114l567 579l-108 109zM728 683l111 -111l571 574l-110 110z" />
<glyph unicode="&#xf465;" d="M204 593v862q0 183 192 183h1357q193 0 193 -183v-862q0 -183 -193 -183h-1357q-192 0 -192 183zM357.5 1370.5q5.5 -29.5 27.5 -46.5l689 -566l690 566q22 17 28 46.5t-14 63.5q-22 30 -58 34t-62 -17l-584 -395l-582 395q-26 21 -62 17t-58 -34q-20 -34 -14.5 -63.5z " />
<glyph unicode="&#xf466;" d="M204 563q0 -64 44.5 -108.5t108.5 -44.5h1435q64 0 109 44.5t45 108.5v922q0 64 -45 108.5t-109 44.5h-1435q-64 0 -108.5 -44.5t-44.5 -108.5v-922zM320 1462.5q2 17.5 18 33.5q41 41 97 -7l639 -516l640 516q56 48 97 7q16 -16 18 -33.5t-4 -30t-17 -22.5l-415 -381 l399 -416q26 -30 6 -52q-9 -11 -28.5 -12t-28.5 7l-448 382l-219 -200l-218 200l-447 -382q-9 -8 -29 -7t-29 12q-20 22 6 52l400 416l-416 381q-11 10 -17 22.5t-4 30z" />
<glyph unicode="&#xf467;" d="M205 252q0 -92 60 -133t145 -7l1229 488q85 34 145 122.5t60 180.5v888q0 92 -60 133t-145 7l-1229 -488q-85 -34 -145 -123t-60 -181v-887zM374.5 1218q-4.5 15 6.5 30q10 16 26.5 21.5t28.5 2.5l11 -2l646 -238q494 649 523 686q12 16 30.5 21.5t44.5 -7.5 q34 -23 7 -65l-619 -955l-681 471q-7 5 -13 12.5t-10.5 22.5z" />
<glyph unicode="&#xf468;" d="M205 1024q0 -167 65 -318.5t174.5 -261t261 -174.5t318.5 -65t318.5 65t261 174.5t174.5 261t65 318.5t-65 318.5t-174.5 261t-261 174.5t-318.5 65t-318.5 -65t-261 -174.5t-174.5 -261t-65 -318.5zM366 740l382 153q47 -98 145 -145l-153 -382q-126 55 -222.5 151.5 t-151.5 222.5zM366 1308q55 126 151.5 222.5t222.5 151.5l153 -382q-98 -47 -145 -145zM819 1024q0 85 60 145t145 60t145 -60t60 -145t-60 -145t-145 -60t-145 60t-60 145zM1155 748q98 47 145 145l382 -153q-55 -126 -151.5 -222.5t-222.5 -151.5zM1155 1300l153 382 q126 -55 222.5 -151.5t151.5 -222.5l-382 -153q-47 98 -145 145z" />
<glyph unicode="&#xf469;" d="M205 1024q0 167 65 318.5t174.5 261t261 174.5t318.5 65t318.5 -65t261 -174.5t174.5 -261t65 -318.5t-65 -318.5t-174.5 -261t-261 -174.5t-318.5 -65t-318.5 65t-261 174.5t-174.5 261t-65 318.5zM410 1024q0 -125 48.5 -238.5t131 -196t196 -131t238.5 -48.5 t238.5 48.5t196 131t131 196t48.5 238.5t-48.5 238.5t-131 196t-196 131t-238.5 48.5t-238.5 -48.5t-196 -131t-131 -196t-48.5 -238.5zM922 1024q0 -44 29 -73q11 -7 24 -15l-2 -2l461 -217l-311 326l-99 493l-99 -493h1q0 -1 -2 -9t-2 -10z" />
<glyph unicode="&#xf470;" d="M512 307v1434q0 42 30 72t72 30h820q42 0 72 -30t30 -72v-1434q0 -42 -30 -72t-72 -30h-820q-42 0 -72 30t-30 72zM717 614h614v1024h-614v-1024zM819 1024v512h410z" />
<glyph unicode="&#xf471;" d="M307 307v1434q0 42 30.5 72t72.5 30h1228q42 0 72.5 -30t30.5 -72v-1434q0 -42 -30.5 -72t-72.5 -30h-1228q-42 0 -72.5 30t-30.5 72zM512 410h1024v1228h-1024v-1228zM614 1024v512h615z" />
<glyph unicode="&#xf472;" d="M205 717v1024q0 42 30 72t72 30h1434q42 0 72 -30t30 -72v-1024q0 -42 -30 -72.5t-72 -30.5h-512v-204h205q42 0 72 -30.5t30 -72.5v-102h-1024v102q0 42 30 72.5t72 30.5h205v204h-512q-42 0 -72 30.5t-30 72.5zM410 922h1228v716h-1228v-716zM512 1126v410h922z" />
<glyph unicode="&#xf473;" d="M205 819v717q0 84 60 144q61 61 145 61h1228q84 0 145 -61q60 -60 60 -144v-717q0 -84 -60 -144q-61 -61 -145 -61h-102l-512 -512v512h-614q-84 0 -145 61q-60 60 -60 144zM410 819h921v103h-921v-103zM410 1126h1228v103h-1228v-103zM410 1434h1126v102h-1126v-102z " />
<glyph unicode="&#xf474;" d="M205 819l512 410v-307h921v716h205v-921h-1126v-307z" />
<glyph unicode="&#xf475;" d="M205 1024l614 614v-230l-384 -384l384 -384v-230zM1229 410v230l384 384l-384 384v230l614 -614z" />
<glyph unicode="&#xf476;" d="M307 1380q0 -126 63 -232q62 -107 169 -168q105 -62 233 -62h44v-611q0 -41 30 -73q31 -29 73 -29q41 0 72 29q31 31 31 73v1229q0 43 30 73q31 29 72 29q42 0 73 -29q30 -32 30 -73v-1229q0 -43 30 -73q31 -29 73 -29t73 29q30 32 30 73v1331h103q41 0 72 31 q30 29 30 72t-30 73q-31 29 -72 29h-764q-127 0 -233 -61q-108 -63 -169 -169q-63 -107 -63 -233z" />
<glyph unicode="&#xf477;" d="M205 1024q0 166 65 318t174.5 261.5t261.5 174.5t318 65t318 -65t261.5 -174.5t174.5 -261.5t65 -318t-65 -318t-174.5 -261.5t-261.5 -174.5t-318 -65t-318 65t-261.5 174.5t-174.5 261.5t-65 318zM256 1024q0 -229 125 -420q45 -66 97 -120q106 -108 247.5 -168 t298.5 -60q209 0 385.5 103t279.5 279.5t103 385.5t-103 385.5t-279.5 279.5t-385.5 103t-385.5 -103t-279.5 -279.5t-103 -385.5zM334 1024q0 211 118 386h6q53 2 63 -22t-13 -128q-3 -13 -10 -45l-104 -474q-60 132 -60 283zM503 1477q96 111 231.5 174t289.5 63 q187 0 346 -92.5t251.5 -251.5t92.5 -346t-92.5 -346t-251.5 -251.5t-346 -92.5q-211 0 -383 116q80 4 155 42.5t129 101.5q21 -60 82 -102.5t154 -42.5q133 0 246 90t140 217q30 130 -28.5 218t-186.5 88q-46 0 -98 -21.5t-92 -53.5l106 491q2 14 -3.5 21.5t-18.5 3.5 q-62 -16 -233 -33q-18 -2 -25 -17.5t2 -29.5t27 -13q33 1 47.5 -5.5t18 -28t-3 -58.5t-20.5 -101q-1 -1 -1 -2l-55 -248q-59 95 -190 95q-47 0 -99 -21.5t-92 -53.5q103 473 106 491q3 13 -3 21t-19 4q-43 -10 -183 -26zM534 671l34 171q16 66 71.5 109.5t117.5 43.5 q84 0 112 -66.5t4 -172.5q-24 -107 -84.5 -176.5t-146.5 -69.5q-57 0 -91.5 42t-16.5 119zM1073 671l36 171q15 66 70.5 109.5t116.5 43.5q84 0 112.5 -66.5t4.5 -172.5q-23 -106 -84 -176t-147 -70q-57 0 -91.5 42t-17.5 119z" />
<glyph unicode="&#xf478;" d="M205 307v205h1229v-205h-1229zM205 717v205h614v-205h-614zM205 1126v205h1024v-205h-1024zM205 1536v205h1638v-205h-1638zM1024 717v205h819v-205h-819zM1434 1126v205h409v-205h-409z" />
<glyph unicode="&#xf479;" d="M102 410v102h512v-102h-512zM102 614v205h820v-205h-820zM102 922v307h615v-307h-615zM102 1331v410h1024v-410h-1024zM717 410v102h409v-102h-409zM819 922v307h1127v-307h-1127zM1024 614v205h922v-205h-922zM1229 410v102h205v-102h-205zM1229 1331v410h717v-410h-717 zM1536 410v102h410v-102h-410z" />
<glyph unicode="&#xf480;" d="M102 1434v204h1844v-204h-1844zM205 307v1024h1638v-1024h-1638zM717 1024h614v102h-614v-102z" />
<glyph unicode="&#xf481;" d="M102 994q0 42 30 73l942 941q30 30 72.5 30t72.5 -30l143 -143q51 -6 126 1.5t130.5 15.5t116 -4t99.5 -51t51 -99.5t4 -116t-15.5 -130.5t-1.5 -126l143 -144q30 -30 30 -72t-30 -72l-941 -942q-31 -30 -73 -30t-72 30l-797 797q-30 30 -30 72zM349 994l652 -652l73 73 l-652 652zM495 1139l651 -652l73 73l-652 651zM639 1284l652 -652l72 73l-651 651zM784 1428l652 -651l72 72l-652 652zM929 1574l652 -652l72 72l-652 652zM1219 1718l506 -507l60 60q-25 79 -16 186q2 32 10 94q11 74 9 126t-27 77t-76.5 27t-125.5 -9q-61 -8 -95 -10 q-107 -9 -186 16zM1514 1609.5q0 42.5 30 72.5t73 30t73 -30t30 -72.5t-30 -72.5t-73 -30t-73 30t-30 72.5z" />
<glyph unicode="&#xf482;" d="M410 1126q0 42 30 72.5t72 30.5t72 -30.5t30 -72.5q0 -169 120.5 -289t289.5 -120q170 0 290 120t120 289q0 42 30 72.5t72 30.5t72 -30.5t30 -72.5q0 -226 -146 -397t-366 -208v-214h205q43 0 73 -30t30 -72t-30 -72.5t-73 -30.5h-614q-42 0 -72.5 30.5t-30.5 72.5 t30.5 72t72.5 30h205v214q-219 37 -365.5 208t-146.5 397zM819 1126q0 -85 60 -144.5t145 -59.5q86 0 145.5 60.5t59.5 143.5v615q0 85 -60 145t-145 60t-145 -61t-60 -144v-615z" />
<glyph unicode="&#xf483;" d="M102 1024q0 -187 73 -358t196.5 -294.5t294.5 -196.5t358 -73t358 73t294.5 196.5t196.5 294.5t73 358t-73 358t-196.5 294.5t-294.5 196.5t-358 73t-358 -73t-294.5 -196.5t-196.5 -294.5t-73 -358zM348 1294q0 30 169 49.5t338 24.5l169 4q676 -11 676 -78 q0 -30 -114.5 -65.5t-229.5 -56.5l-114 -21l60 -309q95 -531 49 -549q-28 -11 -109.5 121.5t-149.5 271.5l-68 138l-97 -195q-183 -351 -229 -336q-18 14 -13.5 99t24 214t41.5 250t40 208l17 87q-459 76 -459 143zM870 1628q0 64 45.5 109t108.5 45q64 0 109 -45t45 -109 t-45 -109t-109 -45q-63 0 -108.5 45t-45.5 109z" />
<glyph unicode="&#xf484;" d="M205 512q0 -85 60 -145t145 -60h1228q85 0 145 60t60 145v819q0 85 -60 145t-145 60h-307v-34q0 -70 -50.5 -120.5t-120.5 -50.5h-272q-70 0 -120.5 50.5t-50.5 120.5v34h-307q-85 0 -145 -60t-60 -145v-819zM307 512v614h1434v-614h-1434zM618 798q155 -81 406 -81 t406 81q-17 -77 -133 -130.5t-273 -53.5t-273 53.5t-133 130.5zM819 922q0 -42 14.5 -72.5t36.5 -30.5t37 30.5t15 72.5t-15 72t-37 30t-36.5 -30t-14.5 -72zM819 1536q0 -42 30.5 -72t72.5 -30h204q42 0 72.5 30t30.5 72v307q0 42 -30.5 72.5t-72.5 30.5h-204 q-42 0 -72.5 -30.5t-30.5 -72.5v-307zM922 1741q0 42 30 72t72 30t72 -30t30 -72t-30 -72.5t-72 -30.5t-72 30.5t-30 72.5zM1126 922q0 -42 15 -72.5t37 -30.5t36.5 30.5t14.5 72.5t-14.5 72t-36.5 30t-37 -30t-15 -72z" />
<glyph unicode="&#xf485;" d="M19 1442q-14 -11 23.5 -68t100.5 -129.5t128.5 -143.5t112.5 -119l48 -49q67 66 175.5 175.5t336 343t366.5 395t115 174.5q-19 11 -129.5 -62.5t-253.5 -185.5t-283.5 -226t-236.5 -195l-97 -81l-12.5 7.5t-33 19t-48.5 27t-58.5 31.5t-63 32t-62.5 28t-56.5 21 t-44.5 10t-27 -5zM508 164q0 62 43 106l124 123v385q0 97 30 217.5t78 169.5l90 112l897 -896l-118 -83q-50 -50 -166.5 -83t-213.5 -33h-386l-124 -124q-44 -44 -106 -44t-105 44t-43 106zM1071 1205l323 323q26 26 71.5 16.5t82.5 -48.5q39 -38 48 -83.5t-17 -71.5 l-323 -322zM1505 770l323 323q26 26 71 17t83 -48q39 -37 48 -83t-17 -71l-322 -323z" />
<glyph unicode="&#xf486;" d="M0 102v304q85 0 145 59.5t60 144.5t-60 145t-145 60v311h108l-29 -82l438 -155q-107 -117 -107 -275q0 -170 120 -289.5t289 -119.5q170 0 290 120t120 289q0 4 -1 11t-1 10l215 -77q19 -65 72.5 -106.5t122.5 -41.5h1v-308h-1638zM161 1083l101 286q79 -29 156 7.5 t106 116.5q28 79 -8 155.5t-116 105.5l105 294l1543 -551l-103 -289v1q-79 28 -157 -8.5t-107 -116.5t7.5 -157t117.5 -105v-1l-103 -289zM451 614q0 78 32 150l175 -481q-94 46 -150.5 135t-56.5 196zM512 817q19 29 46 56l152 -54q-11 -3 -10.5 -15t13.5 -13q19 -3 38 -4 l57 -157l-80 -242l-134 399l42 4q9 1 12 8.5t-1 14.5t-13 7q-60 -5 -98 -5q-16 0 -24 1zM702 1214.5q18 -103.5 89 -188.5t176 -122q110 -35 213 -17t188 89.5t122 175.5q35 110 17 213t-89 188t-176 123q-110 35 -213 16.5t-188 -89.5t-122 -175q-35 -110 -17 -213.5z M715 261l110 322l114 -311q0 -1 0.5 -2.5t1.5 -2.5q-61 -21 -122 -21q-47 0 -104 15zM745.5 1208q-23.5 102 12.5 206q25 73 80 130l4 -512q-73 74 -96.5 176zM880 759l176 -64q12 -29 12 -62q0 -27 -29 -119l-35 -123zM883 1584q73 55 163 69.5t182 -16.5q137 -50 202 -175 q-1 1 -2 1q-2 1 -3 1q-25 9 -48 -3.5t-31 -37.5q-10 -28 5 -93q9 -63 -6 -106q-9 -28 -67 -103l-76 -103l8 418l41 -12q9 -2 14.5 4.5t4.5 15t-10 10.5q-59 16 -95 29l-90 37q-9 4 -15 -1.5t-6 -14t9 -12.5q17 -8 35 -16l1 -167l-157 -201l8 421l41 -11q14 -3 17.5 11 t-10.5 18q-57 16 -93 29q-3 1 -22 8zM888 992l212 265l2 -329q0 -4 1 -6q-61 0 -123 21q-46 16 -92 49zM1005 296l112 326q10 29 15 47l53 -20q3 -17 3 -35q0 -101 -49.5 -185.5t-133.5 -132.5zM1171 928l215 269q52 57 71 115q3 8 11 36q15 -95 -17 -182q-34 -94 -109 -157 t-171 -81z" />
<glyph unicode="&#xf487;" d="M193.5 1288.5q10.5 -170.5 111.5 -357.5q103 -196 288 -364.5t431 -271.5q245 103 430.5 271.5t290.5 364.5q100 188 109.5 357.5t-76.5 282.5q-147 185 -382 178q-101 -3 -199 -43.5t-173 -106.5q-75 66 -173 106.5t-199 43.5q-235 7 -382 -178q-87 -112 -76.5 -282.5z " />
<glyph unicode="&#xf488;" d="M165 1200q27 95 108 133l2 2l922 553q20 12 25 17q9 6 24 12q20 10 51 18q78 23 166 -4.5t164 -95.5q78 -70 139.5 -172t92.5 -223q68 -239 -2 -459q-32 -98 -94 -164.5t-142 -89.5q-16 -6 -41 -6q-6 -2 -18 -2q-6 -2 -23 -2h-696l227 -563q3 -18 -14 -35 q-14 -17 -35 -17h-309q-21 0 -35 17q-17 17 -14 35l-103 563h-125l-2 2q-38 -4 -80.5 12.5t-77.5 50.5q-83 80 -108 193q-33 110 -2 225zM1150 1630q-50 -160 6 -381q61 -217 184 -331q130 -123 254 -91h-2q59 14 107 72q88 107 88 311q0 90 -29 203q-52 205 -182 332 q-60 58 -126.5 82.5t-125.5 7.5q-124 -34 -174 -205zM1248 1280q-24 85 2 176q10 36 33.5 62t50.5 34q32 6 64 -4q66 -27 104 -102q43 -84 43 -182q0 -44 -12 -82q-31 -84 -88 -97q-26 -8 -58.5 3.5t-58.5 37.5q-60 60 -80 154z" />
<glyph unicode="&#xf489;" d="M205 205v409h409v-409h-409zM205 819v410h409v-410h-409zM205 1434v409h1638v-409h-1638zM819 205v614h410v-614h-410zM819 1024v205h410v-205h-410zM1434 205v307h409v-307h-409zM1434 717v512h409v-512h-409z" />
<glyph horiz-adv-x="614" />
</font>
</defs>
</svg>
