<?xml version="1.0" encoding="utf-8"?>
<!-- Generator: Adobe Illustrator 22.0.1, SVG Export Plug-In . SVG Version: 6.00 Build 0)  -->
<svg version="1.1" id="Layer_1" xmlns="http://www.w3.org/2000/svg" xmlns:xlink="http://www.w3.org/1999/xlink" x="0px" y="0px"
	 viewBox="0 0 20 20" style="enable-background:new 0 0 20 20;" xml:space="preserve">
<path d="M7.4,6.7L6,3.9L3.9,6l2.8,1.4L7.4,6.7z M7.8,15.7c-0.8,0.8-2.2,0.8-3,0c-0.8-0.8-0.8-2.2,0-3l3.9-4c-1.4-0.4-3,0-4.1,1.1
	l-1.3,1.3c-1.7,1.7-1.7,4.4,0,6.1c1.7,1.7,4.4,1.7,6.1,0l1.3-1.3c1.1-1.1,1.5-2.7,1.1-4.1L7.8,15.7z M13.1,13.8l1.4,2.8l2.1-2.1
	l-2.8-1.4L13.1,13.8z M17.7,2.8c-1.7-1.7-4.4-1.7-6.1,0l-1.3,1.3C9.2,5.2,8.8,6.8,9.2,8.2l3.4-3.4l0.6-0.6c0.8-0.8,2.2-0.8,3,0
	c0.8,0.8,0.8,2.2,0,3l-0.8,0.8l-0.6,0.6l-2.6,2.6c1.4,0.4,3,0,4.1-1.1l1.3-1.3C19.4,7.2,19.4,4.5,17.7,2.8z"/>
</svg>
