<?xml version="1.0" encoding="utf-8"?>
<!-- Generator: Adobe Illustrator 21.1.0, SVG Export Plug-In . SVG Version: 6.00 Build 0)  -->
<svg version="1.1" id="Layer_1" xmlns="http://www.w3.org/2000/svg" xmlns:xlink="http://www.w3.org/1999/xlink" x="0px" y="0px"
	 viewBox="0 0 20 20" style="enable-background:new 0 0 20 20;" xml:space="preserve">
<style type="text/css">
	.st0{fill:none;}
</style>
<rect class="st0" width="20" height="20"/>
<path d="M14.8,10C14.9,9.7,15,9.4,15,9c0-2.2-1.8-4-4-4C9.5,5,8.1,5.9,7.5,7.2C7.2,7.1,6.8,7,6.5,7C5.1,7,4,8.1,4,9.5
	C4,9.7,4,9.9,4.1,10C2.3,10.3,1,11.7,1,13.5C1,15.4,2.6,17,4.5,17H8v-3H5l4.5-4.5L14,14h-3v3h3.5c1.9,0,3.5-1.6,3.5-3.5
	C18,11.7,16.6,10.2,14.8,10z"/>
</svg>
