<?xml version="1.0" encoding="utf-8"?>
<!-- Generator: Adobe Illustrator 21.1.0, SVG Export Plug-In . SVG Version: 6.00 Build 0)  -->
<svg version="1.1" id="Layer_1" xmlns="http://www.w3.org/2000/svg" xmlns:xlink="http://www.w3.org/1999/xlink" x="0px" y="0px"
	 viewBox="0 0 20 20" style="enable-background:new 0 0 20 20;" xml:space="preserve">
<path d="M16,4H4C2.9,4,2,4.9,2,6v7c0,1.1,0.9,2,2,2h12c1.1,0,2-0.9,2-2V6C18,4.9,17.1,4,16,4z M8,12L8,12c0,0.1,0,0.2,0,0.3
	c-0.2,1.1-1.2,1.8-2.3,1.7c-1.1-0.2-1.8-1.2-1.7-2.3c0.2-1.1,1.2-1.8,2.3-1.7c0.3,0,0.5,0.1,0.7,0.3V5h4v2H8V12z M13.4,13.6
	l-0.7,0.7L10.3,12l2.4-2.4l0.7,0.7L11.7,12L13.4,13.6z M14.4,14.4l-0.7-0.7l1.6-1.6l-1.6-1.6l0.7-0.7l2.4,2.4L14.4,14.4z"/>
</svg>
