<?xml version="1.0" encoding="utf-8"?>
<!-- Generator: Adobe Illustrator 21.1.0, SVG Export Plug-In . SVG Version: 6.00 Build 0)  -->
<svg version="1.1" id="Layer_1" xmlns="http://www.w3.org/2000/svg" xmlns:xlink="http://www.w3.org/1999/xlink" x="0px" y="0px"
	 viewBox="0 0 20 20" style="enable-background:new 0 0 20 20;" xml:space="preserve">
<g>
	<path d="M16,4H4C2.9,4,2,4.9,2,6v7c0,1.1,0.9,2,2,2h12c1.1,0,2-0.9,2-2V6C18,4.9,17.1,4,16,4z M7.5,9.9l-2,4.1H4c-0.6,0-1-0.4-1-1
		V6c0-0.6,0.4-1,1-1h7c0.6,0,1,0.4,1,1v3l-0.5-1.1c-0.2-0.4-0.7-0.4-0.9,0L9,11L8.5,9.9C8.3,9.5,7.7,9.5,7.5,9.9z M13.4,13.6
		l-0.7,0.7L10.3,12l2.4-2.4l0.7,0.7L11.7,12L13.4,13.6z M14.4,14.4l-0.7-0.7l1.6-1.6l-1.6-1.6l0.7-0.7l2.4,2.4L14.4,14.4z"/>
	<circle cx="5.5" cy="7.5" r="1.5"/>
</g>
</svg>
