<?xml version="1.0" encoding="utf-8"?>
<!-- Generator: Adobe Illustrator 21.1.0, SVG Export Plug-In . SVG Version: 6.00 Build 0)  -->
<svg version="1.1" id="Layer_1" xmlns="http://www.w3.org/2000/svg" xmlns:xlink="http://www.w3.org/1999/xlink" x="0px" y="0px"
	 viewBox="0 0 20 20" style="enable-background:new 0 0 20 20;" xml:space="preserve">
<path d="M16,4H4C2.9,4,2,4.9,2,6v7c0,1.1,0.9,2,2,2h12c1.1,0,2-0.9,2-2V6C18,4.9,17.1,4,16,4z M7.9,11.1l-0.7,0.7L4.8,9.5l2.4-2.4
	l0.7,0.7L6.2,9.5L7.9,11.1z M9.5,13.1l-1-0.3l2-7l1,0.3L9.5,13.1z M12.9,11.9l-0.7-0.7l1.6-1.6l-1.6-1.6l0.7-0.7l2.4,2.4L12.9,11.9z
	"/>
</svg>
