<?xml version="1.0" encoding="utf-8"?>
<!-- Generator: Adobe Illustrator 21.1.0, SVG Export Plug-In . SVG Version: 6.00 Build 0)  -->
<svg version="1.1" id="Layer_1" xmlns="http://www.w3.org/2000/svg" xmlns:xlink="http://www.w3.org/1999/xlink" x="0px" y="0px"
	 viewBox="0 0 20 20" style="enable-background:new 0 0 20 20;" xml:space="preserve">
<path d="M16,4H4C2.9,4,2,4.9,2,6v7c0,1.1,0.9,2,2,2h12c1.1,0,2-0.9,2-2V6C18,4.9,17.1,4,16,4z M9.1,9.5L8.7,9.8
	c-0.4,0.4-0.5,1.1-0.2,1.6l-0.8,0.8l-1.1-1.1l-1.3,1.3c-0.2,0.2-1.6,1.3-1.8,1.1s0.9-1.6,1.1-1.8l1.3-1.3L4.8,9.3l0.8-0.8
	c0.5,0.3,1.2,0.3,1.6-0.2l0.3-0.3C8,7.5,8,6.8,7.7,6.3l0.8-0.8l3,2.9l-0.8,0.8C10.2,9,9.5,9,9.1,9.5z M13.4,13.6l-0.7,0.7L10.3,12
	l2.4-2.4l0.7,0.7L11.7,12L13.4,13.6z M14.4,14.4l-0.7-0.7l1.6-1.6l-1.6-1.6l0.7-0.7l2.4,2.4L14.4,14.4z"/>
</svg>
