<svg data-name="Layer 1" xmlns="http://www.w3.org/2000/svg" viewBox="0 0 20 20"><rect x="0" fill="none" width="20" height="20"/><g><path d="M10 1a9 9 0 1 0 9 9 9 9 0 0 0-9-9zm3.46 11.95c0 1.47-.8 3.3-4.06 4.7.3-4.17-2.52-3.69-3.2-5A3.25 3.25 0 0 1 8 10.1a8.49 8.49 0 0 1-4.18-2 1.84 1.84 0 0 0 .64 1.21 4.18 4.18 0 0 1-1.94-1.5 7.94 7.94 0 0 1 7.25-5.63c-.84 1.38-1.5 4.13 0 5.57C8.23 8 7.26 6 6.41 6.79c-1.13 1.06.33 2.51 3.42 3.08 3.29.59 3.66 1.58 3.63 3.08zm1.34-4c-.32-1.11.62-2.23 1.69-3.14a7.27 7.27 0 0 1 .84 6.68c-.77-1.89-2.17-2.32-2.53-3.57z"/></g></svg>