<svg data-name="Layer 1" xmlns="http://www.w3.org/2000/svg" viewBox="0 0 20 20"><rect x="0" fill="none" width="20" height="20"/><g><path d="M10 1a9 9 0 1 0 9 9 9 9 0 0 0-9-9zm-7.89 9.68h2.51a14.13 14.13 0 0 0 .38 2.7H2.84a7.86 7.86 0 0 1-.73-2.7zm8.57-5.4V2.19a4.13 4.13 0 0 1 2.22 2 8.53 8.53 0 0 1 .54 1.08zm3.22 1.35a12.88 12.88 0 0 1 .41 2.7h-3.63v-2.7zM9.32 2.19v3.09H6.56A8.53 8.53 0 0 1 7.1 4.2a4.13 4.13 0 0 1 2.22-2.01zm0 4.44v2.7H5.7a12.88 12.88 0 0 1 .41-2.7zm-4.7 2.69H2.11a7.86 7.86 0 0 1 .73-2.7H5a14.13 14.13 0 0 0-.38 2.7zm1.08 1.36h3.62v2.7H6.11a12.88 12.88 0 0 1-.41-2.7zm3.63 4v3.09a4.13 4.13 0 0 1-2.22-2 8.53 8.53 0 0 1-.54-1.08zm1.35 3.09v-3.04h2.76a8.53 8.53 0 0 1-.54 1.08 4.13 4.13 0 0 1-2.22 2zm0-4.44v-2.7h3.62a12.88 12.88 0 0 1-.41 2.7zm4.71-2.7h2.51a7.86 7.86 0 0 1-.73 2.7H15a14.13 14.13 0 0 0 .38-2.65zm0-1.35A14.13 14.13 0 0 0 15 6.63h2.16a7.86 7.86 0 0 1 .73 2.7zm1-4H14.6a8.92 8.92 0 0 0-1.39-2.52 8 8 0 0 1 3.14 2.52zm-9.6-2.52A8.92 8.92 0 0 0 5.4 5.28H3.65a8 8 0 0 1 3.14-2.52zm-3.15 12H5.4a8.92 8.92 0 0 0 1.39 2.52 8 8 0 0 1-3.14-2.55zm9.56 2.52a8.92 8.92 0 0 0 1.39-2.52h1.76a8 8 0 0 1-3.14 2.48z"/></g></svg>