<svg data-name="Layer 1" xmlns="http://www.w3.org/2000/svg" viewBox="0 0 20 20"><rect x="0" fill="none" width="20" height="20"/><g><path d="M10 1a9 9 0 1 0 9 9 9 9 0 0 0-9-9zm2.92 12.34c0 .35.14.63.36.66s.47-.22.58-.6l.2.08a1.72 1.72 0 0 1 .84 2 1.58 1.58 0 0 1-1.45 1.24c-.49-1.21-2.11.06-3.56-.22a1.92 1.92 0 0 1-1.33-1.19c1.19-.11 2.85-1.73 4.36-1.97zM9 12.27a1.84 1.84 0 0 0 1.82-1.59 1.39 1.39 0 0 1-.07 1.83A1.17 1.17 0 0 1 9 12.27zm3-.76c.41.39 3-.06 3.52 1.09-.95-.2-2.95.61-3.47-1.08zm-1.27-5.06v.27c-.65-.77-1.33-1.07-1.61-.57s1 1.11.76 1.88S8.61 8.59 8 9.64s-.49 2.42 1.24 3.67A3 3 0 0 1 6.7 11.2c-.4-1.2-.09-2.26-.78-2.46C5 8.46 4 9.71 4 10.8c-1.26-1.26.05-2.86-1.2-4.18a7.89 7.89 0 0 1 9.64-4.13 5.34 5.34 0 0 0-1.71 3.96z"/></g></svg>