<svg xmlns="http://www.w3.org/2000/svg" viewBox="0 0 20 20"><rect x="0" fill="none" width="20" height="20"/><g><path d="M17.6 2.4c-.8-.8-2.1-.1-2.7.5l-3.5 3.8-2.4-1 .6-.6c.2-.2.2-.5 0-.7-.1-.2-.4-.1-.6 0l-.9.9-1.8-.8.5-.5c.2-.2.2-.5 0-.6-.2-.2-.5-.2-.7 0l-.8.8-.5-.2c-.8-.4-1.7-.3-2.3.4l5.8 5.8L6 12.6l-3.5-.2-.5.7 3.1 1.8L6.9 18l.7-.5-.2-3.5 2.5-2.3 5.8 5.8c.6-.6.8-1.6.4-2.3l-.2-.5.8-.8c.2-.2.2-.5 0-.7-.2-.2-.5-.2-.7 0l-.5.5-.8-1.9.9-.9c.2-.2.2-.5 0-.7-.2-.2-.5-.2-.6 0l-.6.6-1-2.4L17.2 5c.6-.5 1.2-1.9.4-2.6z"/></g></svg>