<svg xmlns="http://<g><rect x="0" fill="none" width="20" height="20"/>www.w3.org/2000/svg" viewBox="0 0 16 16"><path d="M14.463 13.83c-1.753 1.295-4.29 1.982-6.478 1.982-3.066 0-5.825-1.13-7.912-3.02-.163-.146-.02-.35.178-.233 2.254 1.312 5.042 2.1 7.92 2.1 1.94 0 4.075-.404 6.04-1.24.295-.124.545.198.254.41z"/><path d="M15.19 13c-.224-.287-1.48-.137-2.046-.07-.172.02-.197-.127-.044-.237 1.003-.703 2.647-.5 2.838-.266.194.238-.05 1.884-.99 2.672-.145.12-.282.055-.22-.104.216-.528.688-1.71.463-1.997zM11.053 11.838l.003.003c.387-.34 1.084-.95 1.478-1.277.156-.125.128-.334.006-.51-.353-.487-.728-.883-.728-1.783v-3c0-1.272.088-2.438-.847-3.313C10.227 1.25 9.002 1 8.065 1c-1.83 0-3.875.685-4.303 2.948-.047.24.13.37.287.403l1.865.204c.175-.01.3-.18.334-.356.158-.778.812-1.156 1.546-1.156.397 0 .847.144 1.08.5.27.397.235.938.235 1.397v.25c-1.115.124-2.574.205-3.618.665C4.286 6.377 3.44 7.44 3.44 9.002c0 2 1.258 3 2.88 3 1.37 0 2.116-.322 3.172-1.403.35.505.463.752 1.103 1.283.147.078.328.072.456-.044zm-1.94-4.694c0 .75.02 1.375-.36 2.04-.305.545-.79.876-1.33.876-.737 0-1.17-.563-1.17-1.394 0-1.64 1.473-1.938 2.864-1.938v.416z"/></g></svg>