<svg xmlns="http://www.w3.org/2000/svg" viewBox="0 0 20 20"><rect x="0" fill="none" width="20" height="20"/><g><style>.st0{fill-rule:evenodd;clip-rule:evenodd;}</style><path d="M16.2 14.9c-1.9.8-4 1.2-6.1 1.2-2.8 0-5.5-.7-7.9-2.1-.2-.1-.3.1-.2.2 2.2 2 5 3 7.9 3 2.3 0 4.6-.7 6.5-2 .4-.1.1-.5-.2-.3zm1.8-1c-.9-.4-2-.3-2.8.3-.2.1-.1.3 0 .2.6-.1 1.8-.2 2 .1.2.3-.2 1.5-.5 2-.1.2.1.2.2.1.8-.7 1.2-1.7 1.1-2.7zm-9-1.3c1.1.1 2.2-.4 2.9-1.3.3.4.6.8 1 1.2.1.1.3.1.4 0 .3-.3 1-.9 1.3-1.2.1-.1.1-.3 0-.5-.4-.4-.6-1-.7-1.6V6.5c0-1.1.1-2.2-.8-3-.7-.6-1.7-.9-2.6-.9-1.6.1-3.5.7-3.8 2.7 0 .2.1.3.3.3l1.7.2c.2 0 .3-.2.3-.3.1-.7.7-1.1 1.4-1 .4 0 .7.2 1 .5.2.4.3.8.2 1.3v.2c-1.1 0-2.2.2-3.3.6-1.2.4-2 1.5-1.9 2.8v.4c0 1.3 1.2 2.4 2.6 2.3zm2.5-4.8v.4c.1.6 0 1.3-.3 1.8-.2.5-.7.8-1.2.8-.7 0-1.1-.5-1.1-1.3 0-1.4 1.3-1.7 2.6-1.7z"/></g></svg>