<svg xmlns="http://www.w3.org/2000/svg" viewBox="0 0 20 20"><rect x="0" fill="none" width="20" height="20"/><g><rect x="0" fill="none" width="20" height="20"/><g><rect x="0" fill="none" width="20" height="20"/><g><path d="M14.444 10.273a2.588 2.588 0 0 1-.62-1 3.485 3.485 0 0 1-2.034-1 3.537 3.537 0 0 1-.995-2.05 2.566 2.566 0 0 1-1-.627 2.6 2.6 0 0 1-.713-1.375l-.915.923-.744-.75a1.722 1.722 0 0 0-2.45 0l-2.465 2.48a1.758 1.758 0 0 0 0 2.47l.744.752-.613.618a1.758 1.758 0 0 0 0 2.472l4.265 4.3a1.723 1.723 0 0 0 2.452 0l6.442-6.5a2.568 2.568 0 0 1-1.356-.712zM4.162 9.16l-.516-.522a.753.753 0 0 1 0-1.06l2.03-2.046a.738.738 0 0 1 1.05 0l.517.52zm4.31-2.182a.646.646 0 0 1 .918 0 .66.66 0 0 1 0 .927L5.082 12.25a.646.646 0 0 1-.92 0 .66.66 0 0 1 0-.927zm1.837 1.854a.646.646 0 0 1 .918 0 .66.66 0 0 1 0 .927L6.92 14.1a.646.646 0 0 1-.92 0 .66.66 0 0 1 0-.928zm1.837 1.854a.646.646 0 0 1 .92 0 .66.66 0 0 1 0 .927l-4.31 4.345a.646.646 0 0 1-.918 0 .66.66 0 0 1 0-.927zm4.036-6.852a2.713 2.713 0 0 1 .582 2.93 1.715 1.715 0 0 1 .73.43 1.75 1.75 0 0 1 0 2.46 1.715 1.715 0 0 1-2.44 0 1.742 1.742 0 0 1-.5-1.243 2.646 2.646 0 0 1-2.15-.764 2.7 2.7 0 0 1-.757-2.17 1.71 1.71 0 0 1-1.235-.507 1.75 1.75 0 0 1 0-2.46 1.71 1.71 0 0 1 2.866.738 2.656 2.656 0 0 1 2.906.586"/></g></g></g></svg>