<svg xmlns="http://www.w3.org/2000/svg" viewBox="0 0 20 20"><rect x="0" fill="none" width="20" height="20"/><g><g><rect x="0" fill="none" width="20" height="20"/><g><path d="M10 2c4.41 0 8 3.59 8 8s-3.59 8-8 8-8-3.59-8-8 3.59-8 8-8zm0 15.5c4.14 0 7.5-3.36 7.5-7.5S14.14 2.5 10 2.5 2.5 5.86 2.5 10c0 1.51.45 2.92 1.22 4.1.28.42.6.81.95 1.17C6.03 16.65 7.92 17.5 10 17.5zm0-14.24c3.72 0 6.74 3.02 6.74 6.74s-3.02 6.74-6.74 6.74c-1.38 0-2.67-.41-3.74-1.13 1.06-.06 2.08-.61 2.77-1.41.24.69 1 1.42 2.31 1.42 1.73 0 3.42-1.35 3.77-3 .38-1.65-.39-2.99-2.1-2.99-.63 0-1.37.34-1.86.73l1.04-4.79c.03-.17-.04-.3-.22-.25-.46.12-1.68.26-2.27.32-.38.04-.34.61.04.59.83-.03.76.26.4 1.9l-.54 2.43c-.35-.57-.98-.93-1.86-.93-.64 0-1.37.34-1.86.73 0 0 1-4.61 1.03-4.79.04-.17-.03-.3-.21-.25-.36.09-1.17.19-1.79.26C6.14 4.16 7.96 3.26 10 3.26zM4.41 6.23h.06c.83-.03.76.26.39 1.9l-1.01 4.63c-.38-.84-.59-1.78-.59-2.76 0-1.4.42-2.69 1.15-3.77zm4.12 6.39c-.29 1.3-1.08 2.4-2.26 2.4-.65 0-1.31-.49-1.06-1.57l.34-1.67c.21-.88 1.06-1.5 1.84-1.5 1.14 0 1.43 1.03 1.14 2.34zm5.27 0c-.28 1.3-1.08 2.4-2.26 2.4-.65 0-1.3-.49-1.06-1.57l.35-1.67c.2-.88 1.06-1.5 1.83-1.5 1.14 0 1.43 1.03 1.14 2.34z"/></g></g></g></svg>