<svg xmlns="http://www.w3.org/2000/svg" viewBox="0 0 20 20"><rect x="0" fill="none" width="20" height="20"/><g><path d="M13.2 10L11 13l-1-1.4L9 13l-2.2-3C3 11 3 13 3 16.9c0 0 3 1.1 6.4 1.1h1.2c3.4-.1 6.4-1.1 6.4-1.1 0-3.9 0-5.9-3.8-6.9zm-3.2.7L8.4 10l1.6 1.6 1.6-1.6-1.6.7zM7.3 6.063l-.03-.19c-.04-.37-.05-.73-.03-1.08.02-.36.1-.71.25-1.04.14-.32.31-.61.52-.86.21-.25.49-.46.83-.6.34-.15.72-.23 1.13-.23.69 0 1.26.2 1.71.59s.76.87.91 1.44.18 1.16.09 1.78l-.03.19c-.01.09-.05.25-.11.48-.05.24-.12.47-.2.69-.08.21-.19.45-.34.72-.14.27-.3.49-.47.69-.18.19-.4.34-.67.48-.27.13-.55.19-.86.19s-.59-.06-.87-.19c-.26-.13-.49-.29-.67-.5-.18-.2-.34-.42-.49-.66-.15-.25-.26-.49-.34-.73-.09-.25-.16-.47-.21-.67-.06-.21-.1-.37-.12-.5z"/></g></svg>