<svg xmlns="http://www.w3.org/2000/svg" viewBox="0 0 20 20"><rect x="0" fill="none" width="20" height="20"/><g><path d="M16 11c-.9-.8-2.2-.9-3.4-1l1 2.1-3.6 3.7-3.6-3.6 1-2.2c-1.2 0-2.5.2-3.4 1-.8.7-1 1.9-1 3.1v2.8s3.4 1.2 7 1.1c3.6.1 7-1.1 7-1.1v-2.8c0-1.1-.2-2.3-1-3.1zM6.6 9.3c.8 0 2-.4 2.2-.7-.8-1-1.5-2-.8-3.9 0 0 1.1 1.2 4.3 1.5 0 1-.5 1.7-1.1 2.4.2.3 1.4.7 2.2.7s1.4-.2 1.4-.5-1.3-1.3-1.6-2.2c-.3-.9-.1-1.9-.5-3.1-.6-1.4-2-1.5-2.7-1.5-.7 0-2.1.1-2.7 1.5-.4 1.2-.2 2.2-.5 3.1-.3.9-1.6 1.9-1.6 2.2 0 .3.6.5 1.4.5z"/><path d="M10 11l-2.3-1 2.3 5.8 2.3-5.8"/></g></svg>