<svg xmlns="http://www.w3.org/2000/svg" viewBox="0 0 20 20"><rect x="0" fill="none" width="20" height="20"/><g><path d="M8 4.7s1.1 1.2 4.3 1.5c0 0-.3 1.8-1 2.4 0 0-.2.2.4.4s2 .7 3.1-.1c0 0 .1-.1 0-.3 0 0-1.7-.9-1.7-3 0 0 .2-3.4-2.6-3.6 0 0-2.4-.4-3.2 1.5-.4 1.2-.2 2.1-.5 3.1-.2.6-.6 1.3-1.2 1.8 0 0-.5.2-.4.5s1.4.6 2.7.2c0 0 .8-.2.9-.5-.8-1-1.5-2-.8-3.9zM7.4 10c-1.2 0-2.5.2-3.4 1-.8.7-1 1.9-1 3.1v2.8s3.4 1.2 7 1.1c3.6.1 7-1.1 7-1.1v-2.8c0-1.1-.2-2.3-1-3.1-.9-.8-2.2-.9-3.4-1l1 2.1-3.6 3.7 2.3-5.8-2.2 1-2.4-1 2.3 5.8-3.6-3.6 1-2.2z"/></g></svg>