<svg xmlns="http://www.w3.org/2000/svg" viewBox="0 0 20 20"><rect x="0" fill="none" width="20" height="20"/><g><path d="M15 2H5c-.6 0-1 .4-1 1v14c0 .6.4 1 1 1h10c.6 0 1-.4 1-1V3c0-.6-.4-1-1-1zM6.5 16.8c-.7 0-1.2-.6-1.2-1.2s.6-1.2 1.2-1.2 1.2.6 1.2 1.2-.5 1.2-1.2 1.2zm0-3.6c-.7 0-1.2-.6-1.2-1.2s.6-1.2 1.2-1.2 1.2.6 1.2 1.2-.5 1.2-1.2 1.2zm0-3.4c-.7 0-1.2-.6-1.2-1.2s.6-1.2 1.2-1.2 1.2.6 1.2 1.2-.5 1.2-1.2 1.2zm3.5 7c-.7 0-1.2-.6-1.2-1.2s.6-1.2 1.2-1.2 1.2.6 1.2 1.2-.5 1.2-1.2 1.2zm0-3.6c-.7 0-1.2-.6-1.2-1.2s.6-1.2 1.2-1.2 1.2.6 1.2 1.2-.5 1.2-1.2 1.2zm0-3.4c-.7 0-1.2-.6-1.2-1.2s.5-1.4 1.2-1.4 1.2.6 1.2 1.2-.5 1.4-1.2 1.4zm4.8 5.7c0 .7-.6 1.2-1.2 1.2s-1.2-.6-1.2-1.2V12c0-.7.6-1.2 1.2-1.2s1.2.6 1.2 1.2v3.5zm-1.3-5.7c-.7 0-1.2-.6-1.2-1.2s.6-1.2 1.2-1.2 1.2.6 1.2 1.2-.5 1.2-1.2 1.2zM15 6.4H5V3h10v3.4z"/></g></svg>