<svg xmlns="http://www.w3.org/2000/svg" viewBox="0 0 20 20"><rect x="0" fill="none" width="20" height="20"/><g><style>.st0{fill:#00000A;}</style><circle cx="14" cy="13.5" r="1.5"/><path d="M16.1 9h-1.6c-.6-2.7-3.2-4.5-5.9-3.9C6.6 5.5 5 7 4.6 9h-.7c-1 0-1.9.9-1.9 1.9v1.3c0 .7.6 1.3 1.3 1.3h.3c0-1.3 1.1-2.4 2.4-2.4 1.3 0 2.4 1.1 2.4 2.4h3.2c0-1.3 1.1-2.4 2.4-2.4 1.3 0 2.4 1.1 2.4 2.4h.3c.7 0 1.3-.6 1.3-1.3V11c0-1.1-.9-2-1.9-2zM6.2 9c.5-1.9 2.5-2.9 4.3-2.4 1.1.3 2 1.2 2.4 2.4H6.2zM6 12c-.8 0-1.5.7-1.5 1.5S5.2 15 6 15s1.5-.7 1.5-1.5S6.8 12 6 12z"/></g></svg>