<svg xmlns="http://www.w3.org/2000/svg" viewBox="0 0 20 20"><rect x="0" fill="none" width="20" height="20"/><g><path d="M6.1 9.5V8.4c0-.5-.2-.7-.7-.8.6-.1.8-.3.8-.9V5.6c0-.4.1-.5.7-.5h.3v-.5h-.6c-.9 0-1.3.2-1.3 1 0 .5.1.8.1 1.2 0 .2-.2.5-.9.5v.6c.7 0 .9.3.9.5 0 .4-.1.7-.1 1.2 0 .8.4 1 1.3 1h.5V10h-.3c-.5 0-.7-.1-.7-.5zm10.4 4.4c-.8-.8-1.7-1.4-2.6-2-.1-.1-1.1-1.1-1.5-1.4 2.4-4-1.1-9.2-5.7-8.5-4.4.7-6.3 6.2-3.2 9.4 1.7 1.9 4.6 2.3 6.9 1.1.6.6 1.1 1.1 1.6 1.7.7.9 1.2 1.8 2.1 2.5.6.5 1.4 1.2 2.3 1.3 1.1.1 1.7-.6 1.7-1.6-.1-.9-1-1.9-1.6-2.5zm-8.9-2.3c-2.2 0-4-1.8-4-4s1.8-4 4-4 4 1.8 4 4-1.8 4-4 4zm2.1-4.8c0-.4.1-.7.1-1.2 0-.8-.4-1-1.3-1H8v.5h.3c.5 0 .7.1.7.5v1.1c0 .5.2.7.7.8-.6.2-.8.4-.8.9v1.1c.1.4-.1.5-.6.5H8v.6h.5c.9 0 1.3-.2 1.3-1 0-.5-.1-.8-.1-1.2 0-.2.2-.5.9-.5v-.6c-.7 0-.9-.3-.9-.5z"/></g></svg>