<svg xmlns="http://www.w3.org/2000/svg" viewBox="0 0 20 20"><rect x="0" fill="none" width="20" height="20"/><g><path d="M9 6c0-1.6.8-3 2-4h-1c-3.9 0-7 .9-7 2 0 1 2.6 1.8 6 2zm3.8 4.8c-.9.1-1.9.2-2.8.2-3.9 0-7-.9-7-2v3c0 1.1 3.1 2 7 2s7-.9 7-2v-2c-.9.7-1.9 1-3 1-.4 0-.8-.1-1.2-.2zM10 15c-3.9 0-7-.9-7-2v3c0 1.1 3.1 2 7 2s7-.9 7-2v-3c0 1.1-3.1 2-7 2zm0-5h1c-1-.7-1.7-1.8-1.9-3C5.7 6.9 3 6 3 5v3c0 1.1 3.1 2 7 2zm4 0c2.2 0 4-1.8 4-4s-1.8-4-4-4-4 1.8-4 4 1.8 4 4 4zm-1-4V3h2v3h2l-3 3-3-3h2z"/></g></svg>