<svg xmlns="http://www.w3.org/2000/svg" viewBox="0 0 20 20"><rect x="0" fill="none" width="20" height="20"/><g><path d="M17.29 3.307a1.1 1.1 0 0 0-1.555 0L13.34 5.7A10.027 10.027 0 0 0 10 5.12a10.49 10.49 0 0 0-9.036 5.444 10.48 10.48 0 0 0 .76 1.187 10.347 10.347 0 0 0 2.887 2.68L2.9 16.145A1.1 1.1 0 1 0 4.454 17.7L17.29 4.862a1.1 1.1 0 0 0 0-1.555zM10.08 8.96a1.27 1.27 0 0 1 1.793-1.79zm-7.74 1.726A9.175 9.175 0 0 1 7.014 7.2a4.113 4.113 0 0 0-.292 5.124l-1.3 1.3a9.286 9.286 0 0 1-3.082-2.938zM18.332 9.452a10.52 10.52 0 0 0-1.79-1.925l-.993.993a9.08 9.08 0 0 1 2.11 2.166A9.14 9.14 0 0 1 10 14.874c-.256 0-.505-.028-.756-.05l-1.01 1.01A10.09 10.09 0 0 0 10 16.01a10.226 10.226 0 0 0 8.277-4.257 10.48 10.48 0 0 0 .76-1.186 10.227 10.227 0 0 0-.705-1.112z"/><path d="M14.023 10.046l-4 4a4.063 4.063 0 0 0 4-4z"/></g></svg>