<svg xmlns="http://www.w3.org/2000/svg" viewBox="0 0 20 20"><rect x="0" fill="none" width="20" height="20"/><g><path d="M10.6 9c-.4-.1-.8-.3-1.1-.6-.3-.1-.4-.4-.4-.6 0-.2.1-.5.3-.6.3-.2.6-.4.9-.3.6 0 1.1.3 1.4.7l.9-1.2c-.3-.3-.6-.5-.9-.7-.3-.2-.7-.3-1.1-.3V4H9.4v1.4c-.5.1-1 .4-1.4.8-.4.5-.7 1.1-.6 1.7 0 .6.2 1.2.6 1.6.5.5 1.2.8 1.8 1.1.3.1.7.3 1 .5.2.2.3.5.3.8 0 .3-.1.6-.3.9-.3.3-.7.4-1 .4-.4 0-.9-.1-1.2-.4-.3-.2-.6-.5-.8-.8l-1 1.1c.3.4.6.7 1 1 .5.3 1.1.6 1.7.6V16h1.1v-1.5c.6-.1 1.1-.4 1.5-.8.5-.5.8-1.3.8-2 0-.6-.2-1.3-.7-1.7-.5-.5-1-.8-1.6-1zM10 2c-4.4 0-8 3.6-8 8s3.6 8 8 8 8-3.6 8-8-3.6-8-8-8zm0 14.9c-3.8 0-6.9-3.1-6.9-6.9S6.2 3.1 10 3.1s6.9 3.1 6.9 6.9-3.1 6.9-6.9 6.9z"/></g></svg>