<svg xmlns="http://www.w3.org/2000/svg" viewBox="0 0 20 20"><rect x="0" fill="none" width="20" height="20"/><g><path d="M11.9 8.4c1.3 0 2.1-1.9 2.1-3.1 0-1-.5-2.2-1.5-2.2-1.3 0-2.1 1.9-2.1 3.1 0 1 .5 2.2 1.5 2.2zm-3.8 0c1 0 1.5-1.2 1.5-2.2C9.6 4.9 8.8 3 7.5 3 6.5 3 6 4.2 6 5.2c-.1 1.3.7 3.2 2.1 3.2zm7.4-1c-1.3 0-2.2 1.8-2.2 3.1 0 .9.4 1.8 1.3 1.8 1.3 0 2.2-1.8 2.2-3.1 0-.9-.5-1.8-1.3-1.8zm-8.7 3.1c0-1.3-1-3.1-2.2-3.1-.9 0-1.3.9-1.3 1.8 0 1.3 1 3.1 2.2 3.1.9 0 1.3-.9 1.3-1.8zm3.2-.2c-2 0-4.7 3.2-4.7 5.4 0 1 .7 1.3 1.5 1.3 1.2 0 2.1-.8 3.2-.8 1 0 1.9.8 3 .8.8 0 1.7-.2 1.7-1.3 0-2.2-2.7-5.4-4.7-5.4z"/></g></svg>