<svg xmlns="http://<g><rect x="0" fill="none" width="20" height="20"/>www.w3.org/2000/svg" viewBox="0 0 16 16"><path d="M8 0C3.588 0 0 3.587 0 8s3.587 8 8 8 8-3.588 8-8-3.588-8-8-8zm0 14.93c-.716 0-1.403-.108-2.053-.308.28-.46.706-1.216.862-1.816.083-.325.43-1.647.43-1.647.225.43.888.796 1.587.796 2.09 0 3.597-1.922 3.597-4.313 0-2.29-1.87-4.003-4.272-4.003-2.99 0-4.578 2.01-4.578 4.194 0 1.016.54 2.28 1.406 2.684.13.063.2.034.23-.094.023-.097.142-.566.195-.787.016-.07.01-.13-.047-.2-.287-.347-.516-.988-.516-1.58 0-1.53 1.156-3.01 3.128-3.01 1.703 0 2.894 1.16 2.894 2.82 0 1.874-.947 3.174-2.178 3.174-.68 0-1.19-.562-1.025-1.252.198-.825.576-1.713.576-2.306 0-.53-.284-.975-.878-.975-.697 0-1.253.72-1.253 1.684 0 .613.206 1.03.206 1.03s-.687 2.902-.812 3.443c-.14.6-.084 1.44-.025 1.988C2.895 13.446 1.067 10.94 1.067 8c0-3.827 3.103-6.93 6.93-6.93S14.93 4.173 14.93 8c0 3.83-3.104 6.932-6.932 6.932z"/></g></svg>