<svg xmlns="http://<g><rect x="0" fill="none" width="20" height="20"/>www.w3.org/2000/svg" viewBox="0 0 16 16"><path d="M8 1.07C4.172 1.07 1.07 4.17 1.07 8c0 2.938 1.827 5.444 4.405 6.453-.06-.547-.116-1.39.025-1.988.125-.54.813-3.444.813-3.444s-.206-.415-.206-1.027c0-.963.56-1.684 1.253-1.684.59 0 .878.443.878.974 0 .594-.378 1.484-.575 2.306-.166.69.344 1.253 1.025 1.253 1.23 0 2.178-1.3 2.178-3.175 0-1.66-1.194-2.82-2.894-2.82C6 4.85 4.844 6.33 4.844 7.86c0 .597.228 1.234.516 1.58.056.07.066.13.047.2-.053.22-.17.692-.194.788-.03.128-.1.153-.23.094-.867-.403-1.407-1.67-1.407-2.684 0-2.188 1.587-4.194 4.578-4.194 2.403 0 4.272 1.712 4.272 4.003 0 2.388-1.506 4.313-3.597 4.313-.704 0-1.363-.366-1.59-.797l-.43 1.648c-.156.603-.578 1.356-.862 1.816.65.2 1.337.31 2.053.31 3.83 0 6.932-3.104 6.932-6.932 0-3.83-3.103-6.934-6.93-6.934z"/></g></svg>