<svg xmlns="http://www.w3.org/2000/svg" viewBox="0 0 20 20"><rect x="0" fill="none" width="20" height="20"/><g><path d="M10 2c-4.4 0-8 3.6-8 8s3.6 8 8 8 8-3.6 8-8-3.6-8-8-8zm3.7 11.5c-.1.2-.5.3-.7.2-2.1-1.2-4.7-1.5-7-.8-.3 0-.5-.1-.6-.4 0-.2.1-.5.4-.6 2.6-.8 5.4-.4 7.8.9.1.2.2.5.1.7zm1-2.1c-.1 0-.1 0 0 0-.2.3-.6.4-.9.2-2.4-1.4-5.3-1.7-8-.9-.3.1-.7-.1-.8-.4-.1-.4.1-.7.4-.9 3-.9 6.3-.5 9 1.1.3.2.4.6.3.9zm0-2.3c-2.6-1.5-6.8-1.7-9.3-.9-.4.1-.8-.1-.9-.5-.1-.4.1-.8.5-1 2.8-.8 7.5-.7 10.5 1.1.4.2.5.7.3 1-.3.4-.7.5-1.1.3z"/></g></svg>