<svg xmlns="http://www.w3.org/2000/svg" viewBox="0 0 20 20"><rect x="0" fill="none" width="20" height="20"/><g><path d="M18.332 9.452A10.3 10.3 0 0 0 .964 10.564a10.48 10.48 0 0 0 .76 1.187 10.175 10.175 0 0 0 16.553 0 10.48 10.48 0 0 0 .76-1.186 10.227 10.227 0 0 0-.705-1.112zm-6.364-.4a1.29 1.29 0 1 1 0-1.824 1.29 1.29 0 0 1 0 1.828zM10 14.874a9.14 9.14 0 0 1-7.66-4.188A9.175 9.175 0 0 1 7.014 7.2a4.116 4.116 0 0 0-1.05 2.742 4.035 4.035 0 1 0 8.07 0 4.12 4.12 0 0 0-1.05-2.742 9.174 9.174 0 0 1 4.676 3.49A9.14 9.14 0 0 1 10 14.875z"/></g></svg>