<svg xmlns="http://www.w3.org/2000/svg" width="20" height="20" viewBox="0 0 20 20"><title></title><rect x="0" fill="none" width="20" height="20"/><g><path d="M10 5.09c3.98 0 7.4 2.25 9 5.5-1.6 3.25-5.02 5.5-9 5.5s-7.4-2.25-9-5.5c1.6-3.25 5.02-5.5 9-5.5zm2.35 3.1c0-.59-.39-1.08-.92-1.24-.16-.02-.32-.03-.49-.04-.65.05-1.17.6-1.17 1.28 0 .71.58 1.29 1.29 1.29.72 0 1.29-.58 1.29-1.29zM10 14.89c3.36 0 6.25-1.88 7.6-4.3-.93-1.67-2.6-2.81-4.65-3.35.67.72 1.09 1.69 1.09 2.76 0 2.23-1.81 4.04-4.04 4.04S5.96 12.23 5.96 10c0-1.07.42-2.04 1.09-2.76C5 7.78 3.33 8.92 2.4 10.59c1.35 2.42 4.24 4.3 7.6 4.3z"/></g></svg>