<svg xmlns="http://<g><rect x="0" fill="none" width="20" height="20"/>www.w3.org/2000/svg" viewBox="0 0 16 16"><path d="M13.64 2.325C12.145.825 10.154 0 8.033 0 3.662 0 .107 3.556.107 7.928c0 1.397.366 2.763 1.06 3.963L.04 16l4.204-1.103c1.16.63 2.463.966 3.787.966h.004c4.37 0 7.928-3.556 7.928-7.928 0-2.12-.825-4.11-2.322-5.61zm-5.606 12.2c-1.184 0-2.344-.32-3.356-.92l-.24-.143-2.495.653.666-2.43-.157-.25c-.663-1.048-1.01-2.26-1.01-3.507 0-3.634 2.957-6.59 6.595-6.59 1.76 0 3.416.687 4.66 1.93 1.243 1.247 1.927 2.9 1.927 4.662-.003 3.637-2.96 6.594-6.59 6.594zm3.613-4.937c-.197-.1-1.172-.578-1.353-.644s-.313-.1-.447.1c-.13.197-.512.644-.628.778-.117.13-.232.15-.43.05s-.837-.31-1.593-.984c-.588-.525-.987-1.175-1.103-1.372s-.013-.306.088-.403c.09-.088.197-.23.297-.347s.13-.197.196-.33c.066-.132.034-.248-.016-.348s-.447-1.075-.61-1.472c-.158-.388-.324-.334-.446-.34-.116-.007-.247-.007-.378-.007s-.347.05-.528.246c-.18.197-.694.678-.694 1.653s.71 1.915.81 2.05c.1.13 1.396 2.133 3.383 2.99.472.203.84.325 1.128.42.475.15.906.127 1.247.077.38-.056 1.172-.478 1.338-.94s.166-.86.116-.942c-.047-.088-.178-.137-.378-.238z"/></g></svg>