<svg xmlns="http://www.w3.org/2000/svg" viewBox="0 0 20 20"><rect x="0" fill="none" width="20" height="20"/><g><path d="M16.8 5.7C14.4 2 9.5.9 5.7 3.2 2 5.5.8 10.5 3.2 14.2l.2.3-.8 3 3-.8.3.2c1.3.7 2.7 1.1 4.1 1.1 1.5 0 3-.4 4.3-1.2 3.7-2.4 4.8-7.3 2.5-11.1zm-2.1 7.7c-.4.6-.9 1-1.6 1.1-.4 0-.9.2-2.9-.6-1.7-.8-3.1-2.1-4.1-3.6-.6-.7-.9-1.6-1-2.5 0-.8.3-1.5.8-2 .2-.2.4-.3.6-.3H7c.2 0 .4 0 .5.4.2.5.7 1.7.7 1.8.1.1.1.3 0 .4.1.2 0 .4-.1.5-.1.1-.2.3-.3.4-.2.1-.3.3-.2.5.4.6.9 1.2 1.4 1.7.6.5 1.2.9 1.9 1.2.2.1.4.1.5-.1s.6-.7.8-.9c.2-.2.3-.2.5-.1l1.6.8c.2.1.4.2.5.3.1.3.1.7-.1 1z"/></g></svg>