<svg xmlns="http://<g><rect x="0" fill="none" width="20" height="20"/>www.w3.org/2000/svg" viewBox="0 0 16 16"><path d="M15.84 4.8s-.155-1.103-.636-1.587c-.61-.637-1.29-.64-1.603-.678-2.236-.163-5.596-.163-5.596-.163h-.006s-3.36 0-5.597.163c-.312.038-.993.04-1.602.678C.318 3.697.164 4.8.164 4.8s-.16 1.294-.16 2.59v1.214c0 1.294.16 2.59.16 2.59s.156 1.104.634 1.59c.61.636 1.41.615 1.766.683 1.28.122 5.44.16 5.44.16s3.364-.007 5.6-.167c.314-.037.995-.04 1.604-.678.48-.484.637-1.588.637-1.588s.16-1.294.16-2.59V7.39C16 6.096 15.84 4.8 15.84 4.8zm-9.493 5.275V5.578l4.322 2.256-4.323 2.24z"/></g></svg>