<!-- Generated by IcoMoon.io -->
<svg version="1.1" xmlns="http://www.w3.org/2000/svg" width="18" height="18" viewBox="0 0 18 18">
<title>admin-plugins</title>
<path d="M11.799 3.924l-2.916 2.916-1.683-1.683 2.916-2.916c0.315-0.306 0.945-0.18 1.404 0.288 0.468 0.459 0.594 1.089 0.279 1.395zM4.599 5.517l0.819-1.008 8.109 8.109-1.071 0.756c-0.639 0.639-2.367 1.044-3.438 1.044h-3.492l-1.116 1.116c-0.531 0.531-1.386 0.531-1.908 0-0.531-0.522-0.531-1.377 0-1.908l1.116-1.116v-3.492c0-1.017 0.36-2.871 0.981-3.501zM11.133 9.090l2.916-2.916c0.306-0.315 0.936-0.189 1.395 0.279 0.468 0.459 0.594 1.089 0.279 1.395l-2.916 2.925z"></path>
</svg>
