<!-- Generated by IcoMoon.io -->
<svg version="1.1" xmlns="http://www.w3.org/2000/svg" width="18" height="18" viewBox="0 0 18 18">
<title>admin-media</title>
<path d="M11.7 9.9v-6.3c0-0.495-0.405-0.9-0.9-0.9h-1.503l-1.197-1.8h-3.6l-1.197 1.8h-1.503c-0.495 0-0.9 0.405-0.9 0.9v6.3c0 0.495 0.405 0.9 0.9 0.9h9c0.495 0 0.9-0.405 0.9-0.9zM6.3 4.050c1.242 0 2.25 1.008 2.25 2.25s-1.008 2.25-2.25 2.25-2.25-1.008-2.25-2.25 1.008-2.25 2.25-2.25zM12.6 5.4h4.5v9.45c0 1.242-1.008 2.25-2.25 2.25s-2.25-1.008-2.25-2.25 1.008-2.25 2.25-2.25c0.153 0 0.306 0.018 0.45 0.045v-4.545h-2.7v-2.7zM9 12.645v-0.945h1.8v3.15c0 1.242-1.008 2.25-2.25 2.25s-2.25-1.008-2.25-2.25 1.008-2.25 2.25-2.25c0.153 0 0.306 0.018 0.45 0.045z"/>
</svg>
