<!-- Generated by IcoMoon.io -->
<svg version="1.1" xmlns="http://www.w3.org/2000/svg" width="18" height="18" viewBox="0 0 18 18">
<title>admin-tools</title>
<path d="M15.012 8.793c-1.206 1.206-2.97 1.503-4.455 0.891l-4.869 5.868c-0.891 0.891-2.331 0.891-3.222 0s-0.891-2.331 0-3.213l5.868-4.878c-0.612-1.485-0.315-3.249 0.891-4.455 1.152-1.152 2.808-1.458 4.248-0.954l-2.601 2.601 2.538 2.538 2.574-2.583c0.477 1.422 0.162 3.051-0.972 4.185zM3.429 14.589c0.36 0.351 0.936 0.351 1.287 0 0.36-0.36 0.36-0.936 0-1.287-0.351-0.36-0.927-0.36-1.287 0-0.351 0.351-0.351 0.927 0 1.287z"/>
</svg>
