<!-- Generated by IcoMoon.io -->
<svg version="1.1" xmlns="http://www.w3.org/2000/svg" width="18" height="18" viewBox="0 0 18 18">
<title>admin-site</title>
<path d="M8.1 0c-4.474 0-8.1 3.626-8.1 8.1s3.626 8.1 8.1 8.1c4.474 0 8.1-3.626 8.1-8.1s-3.626-8.1-8.1-8.1zM11.214 10.755c0 1.323-0.72 2.97-3.654 4.23 0.27-3.753-2.268-3.321-2.88-4.5 0.113-0.991 0.724-1.856 1.62-2.295-1.397-0.24-2.699-0.863-3.762-1.8 0.045 0.424 0.251 0.814 0.576 1.089-0.704-0.265-1.312-0.736-1.746-1.35 0.879-2.903 3.495-4.934 6.525-5.067-0.756 1.242-1.35 3.717 0 5.013-1.386 0.225-2.259-1.575-3.024-0.864-1.017 0.954 0.297 2.259 3.078 2.772 2.961 0.531 3.294 1.422 3.267 2.772zM12.42 7.155c-0.288-0.999 0.558-2.007 1.521-2.826 1.221 1.76 1.503 4.005 0.756 6.012-0.693-1.701-1.953-2.088-2.277-3.213v0.027z"></path>
</svg>
