<!-- Generated by IcoMoon.io -->
<svg version="1.1" xmlns="http://www.w3.org/2000/svg" width="18" height="18" viewBox="0 0 18 18">
<title>admin-multisite</title>
<path d="M12.843 6.183l-3.843-3.357-3.843 3.357-0.657-0.657 4.5-3.942 4.5 3.942zM12.6 7.578l-3.645 3.087-3.555-3.123v-0.666l3.6-3.15 3.6 3.15v0.702zM9.9 8.73v-1.53h-1.8v1.53h1.8zM8.343 12.357l-3.843-3.357-3.843 3.357-0.657-0.657 4.5-3.942 4.5 3.942zM17.343 12.357l-3.843-3.357-3.843 3.357-0.657-0.657 4.5-3.942 4.5 3.942zM4.5 9.9l3.6 3.15v3.15h-7.2v-3.15zM13.5 9.9l3.6 3.15v3.15h-7.2v-3.15zM5.4 15.3v-1.8h-1.8v1.8h1.8zM14.4 15.3v-1.8h-1.8v1.8h1.8z"/>
</svg>
