<!-- Generated by IcoMoon.io -->
<svg version="1.1" xmlns="http://www.w3.org/2000/svg" width="18" height="18" viewBox="0 0 18 18">
<title>admin-links</title>
<path d="M15.966 2.484c1.512 1.521 1.512 3.969 0 5.49l-1.377 1.368c-1.008 1.008-2.43 1.323-3.726 0.981l2.358-2.349 0.684-0.693 0.684-0.684c0.756-0.756 0.756-1.98 0-2.736-0.756-0.765-1.98-0.765-2.736 0l-0.693 0.684-3.042 3.042c-0.333-1.296-0.018-2.718 0.99-3.726l1.368-1.377c1.521-1.512 3.978-1.512 5.49 0zM7.731 12.087l4.806-4.806c0.378-0.378 0.378-0.99 0-1.368-0.396-0.387-1.017-0.351-1.377 0l-4.797 4.806c-0.378 0.378-0.378 0.99 0 1.368 0.396 0.387 1.017 0.351 1.368 0zM7.047 14.148l3.726-3.735c0.342 1.296 0.027 2.718-0.981 3.726l-1.368 1.377c-1.521 1.512-3.969 1.512-5.49 0-1.512-1.512-1.512-3.978 0-5.49l1.377-1.368c1.008-1.008 2.43-1.323 3.726-0.99l-3.726 3.735c-0.765 0.756-0.765 1.98 0 2.745 0.756 0.756 1.98 0.756 2.736 0z"></path>
</svg>
