<!-- Generated by IcoMoon.io -->
<svg version="1.1" xmlns="http://www.w3.org/2000/svg" width="18" height="18" viewBox="0 0 18 18">
<title>admin-network</title>
<path d="M15.255 2.322c1.764 1.755 1.764 4.608 0 6.363-1.359 1.359-3.375 1.656-5.031 0.909l-1.683 2.979-2.691 0.279-1.35 3.348h-2.7l-0.9-1.8 7.155-6.921c-0.828-1.683-0.558-3.762 0.837-5.157 1.755-1.764 4.608-1.764 6.363 0zM12.996 5.733c0.666 0 1.197-0.54 1.197-1.206 0-0.657-0.531-1.197-1.197-1.197-0.657 0-1.197 0.54-1.197 1.197 0 0.666 0.54 1.206 1.197 1.206z"/>
</svg>
