<!-- Generated by IcoMoon.io -->
<svg version="1.1" xmlns="http://www.w3.org/2000/svg" width="18" height="18" viewBox="0 0 18 18">
<title>admin-site-alt</title>
<path d="M8.1 0c-4.474 0-8.1 3.626-8.1 8.1s3.626 8.1 8.1 8.1c4.474 0 8.1-3.626 8.1-8.1s-3.626-8.1-8.1-8.1zM14.85 5.832c-0.246 0.807-0.817 1.475-1.575 1.845-0.405-1.52-1.492-2.767-2.943-3.375 0.117-0.399 0.368-0.746 0.711-0.981-0.387-0.252-0.9-0.378-1.206 0.063-0.477 0.621 0 1.449 0.189 1.8v0.126c-0.5-0.303-0.89-0.757-1.116-1.296-0.87-0.028-1.73 0.187-2.484 0.621-0.078-0.508-0.029-1.028 0.144-1.512 0.66 0.063 1.308-0.207 1.728-0.72 0.414-0.468-0.117-1.062-0.531-1.422h0.324c1.225-0.008 2.432 0.302 3.501 0.9 1.224 0.905 1.975 2.313 2.043 3.834 0.216 0 0.63-0.495 0.819-0.828 0.155 0.305 0.287 0.621 0.396 0.945v0zM8.1 15.156c-1.845-1.872 0.225-3.375-0.9-4.716-0.828-0.765-2.061-0.234-2.799-1.107-0.254-1.326 0.24-2.684 1.287-3.537 0.468-0.396 3.6-0.9 4.878 0.198 0.747 0.644 1.273 1.507 1.503 2.466 0.413 0.031 0.826-0.060 1.188-0.261 0.369 2.682-2.835 6.066-5.157 6.957zM4.635 1.881c0.708-0.27 1.508-0.025 1.944 0.594-0.378 0.342-0.847 0.567-1.35 0.648 0.019-0.265 0.076-0.526 0.171-0.774l-0.765-0.468z"/>
</svg>
