<!-- Generated by IcoMoon.io -->
<svg version="1.1" xmlns="http://www.w3.org/2000/svg" width="18" height="18" viewBox="0 0 18 18">
<title>admin-customizer</title>
<path d="M16.497 3.213c0 0 0.243-0.72-0.279-1.224-0.477-0.468-1.098-0.216-1.098-0.216-0.549 0.27-5.184 3.123-6.903 5.013-0.774 0.864-1.854 3.411-0.981 4.338 0.828 0.882 3.564-0.153 4.311-0.9 1.854-1.854 4.689-6.453 4.95-7.011zM1.26 15.885c2.133-1.404 1.314-3.069 2.907-4.176 0.837-0.585 1.998-0.558 2.772 0.261 0.567 0.603 0.72 2.313-0.144 3.114-1.413 1.305-3.6 1.395-5.535 0.801z"/>
</svg>
