<!-- Generated by IcoMoon.io -->
<svg version="1.1" xmlns="http://www.w3.org/2000/svg" width="18" height="18" viewBox="0 0 18 18">
<title>admin-settings</title>
<path d="M16.2 14.4v-10.8c0-0.495-0.405-0.9-0.9-0.9h-11.7c-0.495 0-0.9 0.405-0.9 0.9v10.8c0 0.495 0.405 0.9 0.9 0.9h11.7c0.495 0 0.9-0.405 0.9-0.9zM7.2 9.9h0.9c0.495 0 0.9 0.405 0.9 0.9s-0.405 0.9-0.9 0.9h-0.9v1.35c0 0.252-0.198 0.45-0.45 0.45s-0.45-0.198-0.45-0.45v-1.35h-0.9c-0.495 0-0.9-0.405-0.9-0.9s0.405-0.9 0.9-0.9h0.9v-4.95c0-0.252 0.198-0.45 0.45-0.45s0.45 0.198 0.45 0.45v4.95zM11.7 8.1h-0.9c-0.495 0-0.9-0.405-0.9-0.9s0.405-0.9 0.9-0.9h0.9v-1.35c0-0.252 0.198-0.45 0.45-0.45s0.45 0.198 0.45 0.45v1.35h0.9c0.495 0 0.9 0.405 0.9 0.9s-0.405 0.9-0.9 0.9h-0.9v4.95c0 0.252-0.198 0.45-0.45 0.45s-0.45-0.198-0.45-0.45v-4.95z"/>
</svg>
