<!-- Generated by IcoMoon.io -->
<svg version="1.1" xmlns="http://www.w3.org/2000/svg" width="18" height="18" viewBox="0 0 18 18">
<title>admin-site-alt3</title>
<path d="M8.1 0c-4.474 0-8.1 3.626-8.1 8.1s3.626 8.1 8.1 8.1c4.474 0 8.1-3.626 8.1-8.1s-3.626-8.1-8.1-8.1zM0.999 8.712h2.259c0.035 0.819 0.15 1.633 0.342 2.43h-1.944c-0.363-0.764-0.585-1.587-0.657-2.43v0zM8.712 3.852v-2.781c0.867 0.33 1.58 0.972 1.998 1.8 0.185 0.312 0.347 0.637 0.486 0.972l-2.484 0.009zM11.61 5.067c0.209 0.795 0.332 1.609 0.369 2.43h-3.267v-2.43h2.898zM7.488 1.071v2.781h-2.484c0.139-0.335 0.301-0.66 0.486-0.972 0.416-0.832 1.129-1.477 1.998-1.809v0zM7.488 5.067v2.43h-3.258c0.037-0.821 0.16-1.635 0.369-2.43h2.889zM3.258 7.488h-2.259c0.072-0.843 0.294-1.666 0.657-2.43h1.944c-0.192 0.797-0.307 1.611-0.342 2.43v0zM4.23 8.712h3.258v2.43h-2.889c-0.209-0.795-0.332-1.609-0.369-2.43v0zM7.497 12.312v2.781c-0.867-0.33-1.58-0.972-1.998-1.8-0.185-0.312-0.347-0.637-0.486-0.972l2.484-0.009zM8.712 15.093v-2.736h2.484c-0.139 0.335-0.301 0.66-0.486 0.972-0.418 0.828-1.131 1.47-1.998 1.8v-0.036zM8.712 11.097v-2.43h3.258c-0.037 0.821-0.16 1.635-0.369 2.43h-2.889zM12.951 8.667h2.259c-0.072 0.843-0.294 1.666-0.657 2.43h-1.953c0.189-0.782 0.304-1.581 0.342-2.385l0.009-0.045zM12.951 7.452c-0.041-0.804-0.159-1.603-0.351-2.385h1.944c0.363 0.764 0.585 1.587 0.657 2.43l-2.25-0.045zM13.851 3.852h-1.611c-0.291-0.819-0.714-1.585-1.251-2.268 1.12 0.503 2.093 1.283 2.826 2.268h0.036zM5.211 1.584c-0.537 0.683-0.96 1.449-1.251 2.268h-1.575c0.733-0.985 1.706-1.765 2.826-2.268v0zM2.376 12.384h1.584c0.291 0.819 0.714 1.585 1.251 2.268-1.123-0.51-2.096-1.301-2.826-2.295l-0.009 0.027zM10.98 14.652c0.537-0.683 0.96-1.449 1.251-2.268h1.584c-0.738 0.971-1.71 1.739-2.826 2.232l-0.009 0.036z"></path>
</svg>
