<!-- Generated by IcoMoon.io -->
<svg version="1.1" xmlns="http://www.w3.org/2000/svg" width="18" height="18" viewBox="0 0 18 18">
<title>admin-appearance</title>
<path d="M13.032 9.954l-6.363-6.363 1.35-1.35c0.45-0.504 2.070-0.423 3.159 0.288 1.089 0.72 1.287 1.152 2.619 1.89 1.062 0.576 2.205 1.134 4.005 0.765zM12.393 10.593l-6.363-6.363-1.593 1.593c-0.351 0.351-0.351 0.918 0 1.269l0.954 0.954c0.351 0.351 0.351 0.927 0 1.278-0.54 0.54-1.287 0.999-1.989 1.521-0.315 0.234-0.63 0.477-0.909 0.756-1.206 1.206-2.133 2.871-1.233 3.762 0.891 0.9 2.556-0.027 3.762-1.224 0.279-0.279 0.522-0.594 0.765-0.918 0.513-0.702 0.972-1.449 1.521-1.989 0.351-0.351 0.918-0.351 1.269 0l0.954 0.954c0.351 0.351 0.918 0.351 1.269 0z"></path>
</svg>
