<!-- Generated by IcoMoon.io -->
<svg version="1.1" xmlns="http://www.w3.org/2000/svg" width="18" height="18" viewBox="0 0 18 18">
<title>admin-post</title>
<path d="M9.396 2.718l1.638-1.638 5.724 5.715-1.647 1.638c-0.945-0.612-2.232-0.513-3.069 0.324l-0.675 0.675c-0.828 0.837-0.936 2.115-0.315 3.069l-1.647 1.638-2.169-2.169-2.52 2.511c-0.378 0.378-3.042 2.439-3.42 2.061s1.674-3.051 2.052-3.429l2.511-2.511-2.169-2.178 1.647-1.638c0.945 0.621 2.232 0.513 3.060-0.324l0.675-0.675c0.837-0.828 0.945-2.115 0.324-3.069z"></path>
</svg>
