<!-- Generated by IcoMoon.io -->
<svg version="1.1" xmlns="http://www.w3.org/2000/svg" width="18" height="18" viewBox="0 0 18 18">
<title>admin-generic</title>
<path d="M16.2 10.8h-1.962c-0.153 0.63-0.396 1.215-0.729 1.737l1.386 1.386-1.89 1.89-1.386-1.386c-0.522 0.324-1.107 0.567-1.719 0.711v1.962h-2.7v-1.962c-0.612-0.144-1.197-0.387-1.719-0.711l-1.386 1.386-1.908-1.908 1.386-1.386c-0.324-0.522-0.567-1.107-0.711-1.719h-1.962v-2.673h1.953c0.144-0.63 0.396-1.215 0.72-1.746l-1.386-1.386 1.89-1.89 1.386 1.386c0.522-0.333 1.116-0.576 1.737-0.729v-1.962h2.7v1.962c0.612 0.144 1.197 0.387 1.719 0.711l1.386-1.386 1.908 1.908-1.386 1.386c0.324 0.531 0.576 1.116 0.72 1.746h1.953v2.673zM8.55 12.15c1.494 0 2.7-1.206 2.7-2.7s-1.206-2.7-2.7-2.7-2.7 1.206-2.7 2.7 1.206 2.7 2.7 2.7z"/>
</svg>
