<!-- Generated by IcoMoon.io -->
<svg version="1.1" xmlns="http://www.w3.org/2000/svg" width="18" height="18" viewBox="0 0 18 18">
<title>admin-site-alt2</title>
<path d="M8.1 0c-4.474 0-8.1 3.626-8.1 8.1s3.626 8.1 8.1 8.1c4.474 0 8.1-3.626 8.1-8.1s-3.626-8.1-8.1-8.1zM10.728 11.106c0 0.315 0.126 0.567 0.324 0.594s0.423-0.198 0.522-0.54l0.18 0.072c0.646 0.345 0.962 1.097 0.756 1.8-0.136 0.622-0.669 1.078-1.305 1.116-0.441-1.089-1.899 0.054-3.204-0.198-0.551-0.139-0.998-0.539-1.197-1.071 1.071-0.099 2.565-1.557 3.924-1.773zM7.2 10.143c0.827-0.001 1.526-0.612 1.638-1.431 0.395 0.487 0.368 1.191-0.063 1.647-0.229 0.201-0.535 0.292-0.837 0.251s-0.571-0.212-0.738-0.467zM9.9 9.459c0.369 0.351 2.7-0.054 3.168 0.981-0.855-0.18-2.655 0.549-3.123-0.972l-0.045-0.009zM8.757 4.905c0 0.081 0 0.162 0 0.243-0.585-0.693-1.197-0.963-1.449-0.513s0.9 0.999 0.684 1.692c-0.216 0.693-1.143 0.504-1.692 1.449s-0.441 2.178 1.116 3.303c-1.073-0.119-1.972-0.866-2.286-1.899-0.36-1.080-0.081-2.034-0.702-2.214-0.828-0.252-1.728 0.873-1.728 1.854-1.134-1.134 0.045-2.574-1.080-3.762 1.531-3.26 5.26-4.857 8.676-3.717-0.991 0.919-1.55 2.212-1.539 3.564v0z"/>
</svg>
