<!-- Generated by IcoMoon.io -->
<svg version="1.1" xmlns="http://www.w3.org/2000/svg" width="18" height="18" viewBox="0 0 18 18">
<title>album</title>
<path d="M0 16.2h9v-0.234c1.368 0.36 2.853 0.315 4.284-0.216 3.726-1.368 5.643-5.508 4.275-9.234-1.287-3.501-5.022-5.4-8.559-4.482v-0.234h-9v14.4zM8.1 2.7v12.6h-7.2v-12.6h7.2zM13.005 10.098c-0.612 1.215-2.088 1.71-3.303 1.107-0.279-0.135-0.513-0.315-0.702-0.531v-3.357c0.72-0.774 1.899-1.017 2.898-0.522 1.215 0.612 1.71 2.088 1.107 3.303zM10.53 9.36c0.198 0.144 0.477 0.108 0.63-0.090 0.144-0.198 0.108-0.477-0.090-0.63s-0.477-0.108-0.63 0.090c-0.144 0.189-0.108 0.477 0.090 0.63zM13.239 12.663c-1.053 0.702-2.304 0.891-3.447 0.621-0.243-0.054-0.396-0.306-0.333-0.549s0.306-0.387 0.558-0.324l0.153 0.036c0.864 0.153 1.782-0.009 2.574-0.531 0.423-0.288 0.774-0.648 1.026-1.062 0.135-0.207 0.405-0.27 0.621-0.144 0.207 0.135 0.27 0.414 0.144 0.621-0.324 0.513-0.756 0.972-1.296 1.332zM14.184 14.076c-1.332 0.891-2.889 1.188-4.356 0.954-0.252-0.045-0.423-0.288-0.369-0.54 0.045-0.243 0.288-0.405 0.549-0.351l0.198 0.036c1.179 0.135 2.412-0.126 3.483-0.846 0.639-0.423 1.143-0.963 1.53-1.566 0.126-0.216 0.405-0.279 0.612-0.144 0.216 0.126 0.279 0.405 0.144 0.621-0.441 0.711-1.044 1.341-1.791 1.836z"/>
</svg>
