<!-- Generated by IcoMoon.io -->
<svg version="1.1" xmlns="http://www.w3.org/2000/svg" width="18" height="18" viewBox="0 0 18 18">
<title>awards</title>
<path d="M4.014 4.644l0.486 2.070-0.486 2.061 1.809 1.116 1.107 1.809 2.070-0.486 2.070 0.486 1.107-1.809 1.809-1.116-0.486-2.061 0.486-2.070-1.8-1.116-1.116-1.809-2.070 0.495-2.061-0.486-1.125 1.8zM9.009 10.35c-1.998 0-3.609-1.611-3.609-3.609 0-1.98 1.611-3.591 3.609-3.591 1.98 0 3.591 1.611 3.591 3.591 0 1.998-1.611 3.609-3.591 3.609zM8.991 9.45c-1.494 0-2.691-1.206-2.691-2.7 0-1.485 1.197-2.7 2.691-2.7s2.709 1.215 2.709 2.7c0 1.494-1.215 2.7-2.709 2.7zM12.447 10.44l-1.152 2.016-1.872-0.423 2.277 5.247 1.26-1.98h2.25zM5.517 10.503l1.125 2.025 1.917-0.459-2.259 5.211-1.26-1.98h-2.25z"/>
</svg>
