<!-- Generated by IcoMoon.io -->
<svg version="1.1" xmlns="http://www.w3.org/2000/svg" width="18" height="18" viewBox="0 0 18 18">
<title>backup</title>
<path d="M12.285 2.592c3.537 1.809 4.932 6.156 3.123 9.693s-6.147 4.932-9.693 3.123c-1.683-0.864-2.88-2.304-3.474-3.96l1.476-0.927c0.405 1.413 1.368 2.655 2.772 3.384 2.709 1.386 6.021 0.315 7.407-2.394 1.395-2.709 0.324-6.021-2.385-7.416-2.709-1.386-6.021-0.315-7.407 2.394l1.692 0.873-4.455 2.772-0.351-5.238 1.602 0.819c1.818-3.555 6.183-4.914 9.693-3.123zM8.361 9.639c-0.162-0.162-0.261-0.387-0.261-0.639 0-0.063 0.027-0.108 0.036-0.171h-0.009l0.873-4.329 0.873 4.329 2.727 2.871-4.050-1.908 0.018-0.018c-0.072-0.036-0.144-0.081-0.207-0.135z"/>
</svg>
