<!-- Generated by IcoMoon.io -->
<svg version="1.1" xmlns="http://www.w3.org/2000/svg" width="18" height="18" viewBox="0 0 18 18">
<title>buddicons-topics</title>
<path d="M9.396 1.494c-0.531-0.522-1.386-0.522-1.908 0l-5.094 5.094c-0.522 0.522-0.522 1.377 0 1.908 0.54 0.54 1.404 0.504 1.908 0l5.094-5.094c0.522-0.522 0.531-1.377 0-1.908zM11.943 4.041c-0.531-0.531-1.386-0.531-1.908 0l-5.094 5.094c-0.531 0.522-0.531 1.377 0 1.908 0.54 0.54 1.404 0.495 1.908 0l5.094-5.094c0.522-0.522 0.522-1.377 0-1.908zM12.897 10.089l3.762 3.762c0.531 0.522 0.531 1.377 0 1.908s-1.386 0.531-1.908 0l-3.762-3.762-1.593 1.593c-0.531 0.522-1.386 0.522-1.908 0-0.531-0.531-0.531-1.386 0-1.917l5.094-5.085c0.522-0.531 1.377-0.531 1.908 0 0.522 0.522 0.522 1.377 0 1.908zM4.5 13.5c0-1.431-1.494-3.6-1.494-3.6s-1.206 2.502-1.206 3.6 0.54 1.8 1.206 1.8h0.288c0.666 0 1.206-0.369 1.206-1.8z"></path>
</svg>
