<!-- Generated by IcoMoon.io -->
<svg version="1.1" xmlns="http://www.w3.org/2000/svg" width="18" height="18" viewBox="0 0 18 18">
<title>buddicons-friends</title>
<path d="M7.875 5.193c0-1.242-1.575-3.393-1.575-3.393s-1.575 2.151-1.575 3.393 0.585 1.557 1.575 1.557 1.575-0.315 1.575-1.557zM13.275 5.193c0-1.242-1.575-3.393-1.575-3.393s-1.575 2.151-1.575 3.393 0.585 1.557 1.575 1.557 1.575-0.315 1.575-1.557zM8.1 15.3v-7.2c0-0.495-0.405-0.9-0.9-0.9h-1.8c-0.495 0-0.9 0.405-0.9 0.9v7.2c0 0.495 0.405 0.9 0.9 0.9h1.8c0.495 0 0.9-0.405 0.9-0.9zM13.5 15.3v-7.2c0-0.495-0.405-0.9-0.9-0.9h-1.8c-0.495 0-0.9 0.405-0.9 0.9v7.2c0 0.495 0.405 0.9 0.9 0.9h1.8c0.495 0 0.9-0.405 0.9-0.9zM5.4 9.9l1.8-0.9v1.8l-1.8 0.9v-1.8zM10.8 9.9l1.8-0.9v1.8l-1.8 0.9v-1.8zM5.4 12.6l1.8-0.9v1.8l-1.8 0.9v-1.8zM10.8 12.6l1.8-0.9v1.8l-1.8 0.9v-1.8z"></path>
</svg>
