<!-- Generated by IcoMoon.io -->
<svg version="1.1" xmlns="http://www.w3.org/2000/svg" width="18" height="18" viewBox="0 0 18 18">
<title>buddicons-buddypress-logo</title>
<path d="M9 0c4.968 0 9 4.032 9 9s-4.032 9-9 9-9-4.032-9-9 4.032-9 9-9zM9 0.45c-4.725 0-8.55 3.825-8.55 8.55s3.825 8.55 8.55 8.55 8.55-3.825 8.55-8.55-3.825-8.55-8.55-8.55zM9 1.35c4.23 0 7.65 3.42 7.65 7.65s-3.42 7.65-7.65 7.65-7.65-3.42-7.65-7.65 3.42-7.65 7.65-7.65zM10.62 2.889c-0.513 0-0.99 0.153-1.395 0.405 1.404 0.333 2.457 1.593 2.457 3.105 0 0.621-0.189 1.197-0.495 1.683 1.179-0.261 2.061-1.305 2.061-2.565 0-1.449-1.179-2.628-2.628-2.628zM8.478 3.789c-1.449 0-2.628 1.179-2.628 2.637 0 1.449 1.179 2.628 2.628 2.628 1.458 0 2.637-1.179 2.637-2.628 0-1.458-1.179-2.637-2.637-2.637zM12.303 8.298l-0.459 0.531c2.106 0.621 2.205 3.249 2.205 3.249h1.152c0-4.239-2.898-3.78-2.898-3.78zM10.413 9.018l-1.908 1.881-1.908-1.881c-3.789 0.198-3.096 4.482-3.096 4.482h9.972c0.423-4.482-3.060-4.482-3.060-4.482z"/>
</svg>
