<!-- Generated by IcoMoon.io -->
<svg version="1.1" xmlns="http://www.w3.org/2000/svg" width="18" height="18" viewBox="0 0 18 18">
<title>buddicons-community</title>
<path d="M8.1 2.7c0-0.603-0.423-1.287-0.9-1.8-0.45 0.45-0.9 1.242-0.9 1.8 0 0.432 0.405 0.9 0.9 0.9s0.9-0.423 0.9-0.9zM11.7 2.7c0-0.603-0.423-1.287-0.9-1.8-0.45 0.45-0.9 1.242-0.9 1.8 0 0.432 0.405 0.9 0.9 0.9s0.9-0.423 0.9-0.9zM8.1 8.1v-3.15c0-0.495-0.405-0.9-0.9-0.9-0.513 0-0.9 0.441-0.9 0.9v3.15c0 0.495 0.405 0.9 0.9 0.9 0.513 0 0.9-0.441 0.9-0.9zM11.7 8.1v-3.15c0-0.495-0.405-0.9-0.9-0.9-0.513 0-0.9 0.441-0.9 0.9v3.15c0 0.495 0.405 0.9 0.9 0.9 0.513 0 0.9-0.441 0.9-0.9zM15.3 9c0-1.332-1.269-2.493-3.15-3.114v2.214c0 0.747-0.603 1.35-1.35 1.35s-1.35-0.603-1.35-1.35v-2.691c-0.153 0-0.297-0.009-0.45-0.009s-0.297 0.009-0.45 0.009v2.691c0 0.747-0.603 1.35-1.35 1.35s-1.35-0.603-1.35-1.35v-2.214c-1.881 0.621-3.15 1.782-3.15 3.114 0 1.269 0.855 2.385 2.889 3.033 0.999 0.315 2.151 1.008 3.411 1.008s2.421-0.702 3.411-1.017c2.025-0.639 2.889-1.755 2.889-3.024zM9 13.887c1.287 0 2.466-0.711 3.492-0.999 1.71-0.477 2.241-1.206 2.808-2.088v2.7c0 1.989-2.817 3.6-6.3 3.6s-6.3-1.611-6.3-3.6v-2.7c0.576 0.891 1.188 1.62 2.835 2.097 1.017 0.297 2.196 0.99 3.465 0.99z"/>
</svg>
