<!-- Generated by IcoMoon.io -->
<svg version="1.1" xmlns="http://www.w3.org/2000/svg" width="18" height="18" viewBox="0 0 18 18">
<title>buddicons-groups</title>
<path d="M13.905 5.625c1.647 0.846 1.782 2.862 0.63 4.482-0.72 1.008-2.097 1.692-3.114 1.602l-2.376 4.491h-0.945l-2.385-4.491c-1.017 0.144-2.457-0.567-3.195-1.611-1.152-1.62-1.017-3.636 0.639-4.473 0.432-0.216 0.864-0.297 1.287-0.279-0.009 0.36 0.009 0.72 0.063 1.089 0.234 1.521 1.269 3.177 2.574 3.933-0.171 0.495-0.441 0.891-0.792 1.125l1.809 3.429v-5.094c-1.224-0.333-2.466-1.944-2.7-3.528-0.36-2.385 0.9-4.5 3.15-4.5s3.51 2.115 3.15 4.5c-0.234 1.584-1.476 3.195-2.7 3.528v5.193l1.863-3.456c-0.396-0.207-0.693-0.639-0.891-1.17 1.332-0.747 2.385-2.421 2.619-3.96 0.054-0.369 0.072-0.738 0.063-1.098 0.414-0.009 0.828 0.072 1.251 0.288z"/>
</svg>
