<!-- Generated by IcoMoon.io -->
<svg version="1.1" xmlns="http://www.w3.org/2000/svg" width="18" height="18" viewBox="0 0 18 18">
<title>buddicons-replies</title>
<path d="M15.786 9.261c1.053 1.053 1.053 2.772 0 3.825-1.062 1.053-2.772 1.053-3.825 0l-0.306-0.468c0 3.294-1.8 3.942-2.655 4.482-0.738-0.54-2.655-1.152-2.655-4.482l-0.306 0.468c-1.053 1.053-2.763 1.053-3.825 0-1.053-1.053-1.053-2.772 0-3.825 0 0 0.918-0.603 1.89-1.17-0.765-1.035-1.224-2.313-1.224-3.699 0-0.306 0.027-0.603 0.072-0.9 0.225 1.602 1.071 3.006 2.268 3.978 0.603-0.315 1.665-0.747 2.133-0.828h-0.153c-0.99 0-1.8-0.81-1.8-1.8s0.81-1.8 1.8-1.8v-0.45c0-0.252 0.198-0.45 0.45-0.45s0.45 0.198 0.45 0.45v0.45h1.8v-0.45c0-0.252 0.198-0.45 0.45-0.45s0.45 0.198 0.45 0.45v0.45c0.99 0 1.8 0.81 1.8 1.8s-0.81 1.8-1.8 1.8h-0.153c0.459 0.081 1.602 0.549 2.142 0.828 1.197-0.972 2.043-2.376 2.268-3.978 0.045 0.297 0.072 0.594 0.072 0.9 0 1.386-0.459 2.664-1.224 3.699 0.972 0.567 1.881 1.17 1.881 1.17zM7.65 5.742c0.45 0 0.9-0.405 0.9-0.9s-0.405-0.9-0.9-0.9-0.9 0.405-0.9 0.9 0.405 0.9 0.9 0.9zM10.35 3.942c-0.495 0-0.9 0.405-0.9 0.9s0.405 0.9 0.9 0.9 0.9-0.405 0.9-0.9-0.405-0.9-0.9-0.9zM8.28 9.099c-0.108 0.099-0.171 0.234-0.171 0.387 0.018 0.225 0.207 0.414 0.441 0.414h0.9c0.234 0 0.423-0.189 0.441-0.414 0-0.135-0.063-0.261-0.171-0.387-0.072-0.054-0.162-0.099-0.27-0.099h-0.9c-0.108 0-0.198 0.045-0.27 0.099zM10.8 11.25c0-0.108-0.054-0.252-0.171-0.342-0.081-0.063-0.171-0.108-0.279-0.108h-2.7c-0.108 0-0.198 0.045-0.279 0.108-0.099 0.090-0.171 0.225-0.171 0.342 0 0.252 0.198 0.45 0.45 0.45h2.7c0.252 0 0.45-0.198 0.45-0.45zM7.65 13.5h2.7c0.252 0 0.45-0.198 0.45-0.45s-0.198-0.45-0.45-0.45h-2.7c-0.252 0-0.45 0.198-0.45 0.45s0.198 0.45 0.45 0.45zM8.55 15.3h0.9c0.252 0 0.45-0.198 0.45-0.45s-0.198-0.45-0.45-0.45h-0.9c-0.252 0-0.45 0.198-0.45 0.45s0.198 0.45 0.45 0.45z"></path>
</svg>
