<!-- Generated by IcoMoon.io -->
<svg version="1.1" xmlns="http://www.w3.org/2000/svg" width="18" height="18" viewBox="0 0 18 18">
<title>buddicons-bbpress-logo</title>
<path d="M7.65 11.34c0.27-1.17 0-2.070-0.99-2.070-0.72 0-1.44 0.54-1.62 1.35l-0.27 1.53c-0.27 0.9 0.27 1.35 0.9 1.35 1.080 0 1.71-0.99 1.98-2.16zM4.050 5.58v0c-0.72 0.99-1.080 2.16-1.080 3.42 0 0.9 0.18 1.71 0.54 2.52l0.9-4.14c0.27-1.53 0.36-1.8-0.36-1.8zM12.42 11.34c0.27-1.17 0-2.070-0.99-2.070-0.72 0-1.44 0.54-1.62 1.35l-0.36 1.53c-0.18 0.99 0.36 1.44 0.99 1.44 0.99-0.090 1.71-1.080 1.98-2.25zM9 2.97c-1.8 0-3.51 0.81-4.59 2.070 0.54-0.090 1.26-0.18 1.62-0.27 0.18 0 0.18 0.090 0.18 0.18 0 0.18-0.9 4.32-0.9 4.32 0.45-0.27 1.080-0.63 1.62-0.63 0.81 0 1.35 0.36 1.71 0.81l0.45-2.16c0.36-1.44 0.36-1.71-0.36-1.71-0.36 0-0.36-0.45 0-0.54 0.54-0.090 1.62-0.18 2.070-0.27 0.18 0 0.18 0.090 0.18 0.18l-0.9 4.32c0.45-0.36 1.080-0.63 1.71-0.63 1.53 0 2.25 1.17 1.89 2.7-0.27 1.53-1.8 2.7-3.42 2.7-1.17 0-1.89-0.63-2.070-1.26-0.63 0.72-1.53 1.17-2.52 1.26 0.99 0.63 2.16 0.99 3.33 0.99 3.33 0 6.030-2.7 6.030-6.030s-2.7-6.030-6.030-6.030zM9 1.8c-3.96 0-7.2 3.24-7.2 7.2s3.24 7.2 7.2 7.2 7.2-3.24 7.2-7.2-3.24-7.2-7.2-7.2zM9 15.75c-1.89 0-3.6-0.72-4.77-1.98-0.27-0.36-0.63-0.72-0.9-1.080-0.63-1.080-1.080-2.34-1.080-3.69 0-3.69 3.060-6.75 6.75-6.75s6.75 3.060 6.75 6.75-3.060 6.75-6.75 6.75z"/>
</svg>
