<!-- Generated by IcoMoon.io -->
<svg version="1.1" xmlns="http://www.w3.org/2000/svg" width="18" height="18" viewBox="0 0 18 18">
<title>buddicons-tracking</title>
<path d="M9.882 6.102l4.068 7.398c-0.9 1.8-3.15 2.7-4.95 2.7s-4.050-0.9-4.95-2.7l4.050-7.362c-0.675-1.107-2.052-1.782-3.861-1.827l2.214-2.628c1.512 1.071 2.214 2.088 2.673 2.979 0.504-0.783 1.080-1.512 2.43-1.908l1.647 2.574c-1.278-0.306-2.376 0.072-3.321 0.774zM7.353 9.36l-0.837 1.521c0.441 0.099 0.9 0.144 1.386 0.144 1.215 0 2.322-0.324 3.195-0.855l-0.909-1.638c-0.783 0.477-1.764 0.774-2.835 0.828zM8.127 14.202c1.791 0 3.357-0.666 4.266-1.674l-0.882-1.584c-0.9 1.008-2.466 1.683-4.266 1.683-0.558 0-1.089-0.072-1.584-0.189l-0.567 1.035c0.846 0.45 1.89 0.729 3.033 0.729z"/>
</svg>
