<!-- Generated by IcoMoon.io -->
<svg version="1.1" xmlns="http://www.w3.org/2000/svg" width="18" height="18" viewBox="0 0 18 18">
<title>buddicons-forums</title>
<path d="M12.15 6.3h-6.3c-0.747 0-1.35-0.603-1.35-1.35s0.603-1.35 1.35-1.35h1.431c-0.045-0.144-0.081-0.288-0.081-0.45 0-0.747 0.603-1.35 1.35-1.35h0.9c0.747 0 1.35 0.603 1.35 1.35 0 0.162-0.036 0.306-0.081 0.45h1.431c0.747 0 1.35 0.603 1.35 1.35s-0.603 1.35-1.35 1.35zM3.6 7.2h10.8c0.495 0 0.9 0.405 0.9 0.9s-0.405 0.9-0.9 0.9h-10.8c-0.495 0-0.9-0.405-0.9-0.9s0.405-0.9 0.9-0.9zM4.5 9.9h9c0.495 0 0.9 0.405 0.9 0.9s-0.405 0.9-0.9 0.9h-9c-0.495 0-0.9-0.405-0.9-0.9s0.405-0.9 0.9-0.9zM6.3 12.6h5.4c0.495 0 0.9 0.405 0.9 0.9s-0.405 0.9-0.9 0.9h-0.981c0.045 0.144 0.081 0.288 0.081 0.45 0 0.747-0.603 1.35-1.35 1.35h-0.9c-0.747 0-1.35-0.603-1.35-1.35 0-0.162 0.036-0.306 0.081-0.45h-0.981c-0.495 0-0.9-0.405-0.9-0.9s0.405-0.9 0.9-0.9z"></path>
</svg>
