<!-- Generated by IcoMoon.io -->
<svg version="1.1" xmlns="http://www.w3.org/2000/svg" width="18" height="18" viewBox="0 0 18 18">
<title>buddicons-activity</title>
<path d="M7.2 0.9v6.3h1.8v-1.8c0-1.368 1.305-2.7 2.7-2.7v0.774c0.495-0.468 1.134-0.774 1.8-0.774v2.7h0.9c0.99 0 1.8 0.81 1.8 1.8s-0.81 1.8-1.8 1.8h-0.9v5.4c0 0.495-0.405 0.9-0.9 0.9s-0.9-0.405-0.9-0.9v-1.962c-0.279 0.099-0.585 0.162-0.9 0.162v1.8c0 0.495-0.405 0.9-0.9 0.9s-0.9-0.405-0.9-0.9v-1.8h-1.8v1.8c0 0.495-0.405 0.9-0.9 0.9s-0.9-0.405-0.9-0.9v-1.8c-0.315 0-0.621-0.063-0.9-0.162v1.962c0 0.495-0.405 0.9-0.9 0.9s-0.9-0.405-0.9-0.9v-3.6h-0.9v-0.9c0-1.494 1.206-2.7 2.7-2.7h1.8v-6.3h0.9zM11.7 7.2c0.495 0 0.9-0.405 0.9-0.9s-0.405-0.9-0.9-0.9-0.9 0.405-0.9 0.9 0.405 0.9 0.9 0.9z"/>
</svg>
