<!-- Generated by IcoMoon.io -->
<svg version="1.1" xmlns="http://www.w3.org/2000/svg" width="18" height="18" viewBox="0 0 18 18">
<title>building</title>
<path d="M2.7 18h12.6v-18h-12.6v18zM6.3 2.7h-1.8v-1.8h1.8v1.8zM9.9 2.7h-1.8v-1.8h1.8v1.8zM13.5 2.7h-1.8v-1.8h1.8v1.8zM6.3 5.4h-1.8v-1.8h1.8v1.8zM9.9 5.4h-1.8v-1.8h1.8v1.8zM13.5 5.4h-1.8v-1.8h1.8v1.8zM6.3 8.1h-1.8v-1.8h1.8v1.8zM9.9 8.1h-1.8v-1.8h1.8v1.8zM13.5 8.1h-1.8v-1.8h1.8v1.8zM6.3 10.8h-1.8v-1.8h1.8v1.8zM9.9 10.8h-1.8v-1.8h1.8v1.8zM13.5 10.8h-1.8v-1.8h1.8v1.8zM9.9 17.1h-5.4v-5.4h5.4v5.4zM13.5 13.5h-1.8v-1.8h1.8v1.8zM13.5 16.2h-1.8v-1.8h1.8v1.8z"></path>
</svg>
