<!-- Generated by IcoMoon.io -->
<svg version="1.1" xmlns="http://www.w3.org/2000/svg" width="18" height="18" viewBox="0 0 18 18">
<title>businessman</title>
<path d="M6.57 5.4l-0.027-0.171c-0.036-0.333-0.045-0.657-0.027-0.972 0.018-0.324 0.090-0.639 0.225-0.936 0.126-0.288 0.279-0.549 0.468-0.774s0.441-0.414 0.747-0.54c0.306-0.135 0.648-0.207 1.017-0.207 0.621 0 1.134 0.18 1.539 0.531s0.684 0.783 0.819 1.296 0.162 1.044 0.081 1.602l-0.027 0.171c-0.009 0.081-0.045 0.225-0.099 0.432-0.045 0.216-0.108 0.423-0.18 0.621-0.072 0.189-0.171 0.405-0.306 0.648-0.126 0.243-0.27 0.441-0.423 0.621-0.162 0.171-0.36 0.306-0.603 0.432-0.243 0.117-0.495 0.171-0.774 0.171s-0.531-0.054-0.783-0.171c-0.234-0.117-0.441-0.261-0.603-0.45-0.162-0.18-0.306-0.378-0.441-0.594-0.135-0.225-0.234-0.441-0.306-0.657-0.081-0.225-0.144-0.423-0.189-0.603-0.054-0.189-0.090-0.333-0.108-0.45zM14.85 11.016c0.369 0.63 0.45 1.269 0.45 1.926v2.241c0 0.027-0.108 0.072-0.261 0.117-0.162 0.036-0.378 0.117-0.873 0.243-0.495 0.108-0.99 0.216-1.485 0.306s-1.071 0.171-1.755 0.243c-0.675 0.072-1.314 0.108-1.917 0.108-0.612 0-1.251-0.036-1.926-0.108-0.675-0.063-1.26-0.153-1.782-0.243-0.522-0.099-0.972-0.207-1.404-0.306-0.441-0.099-0.72-0.189-0.954-0.261l-0.243-0.099v-2.241c0-0.675 0.063-1.314 0.414-1.935s0.729-1.125 1.35-1.512c0.63-0.387 2.007-0.495 2.736-0.495l1.503 1.503-0.603 1.197v2.7l0.918 0.972 0.882-0.972v-2.7l-0.612-1.197 1.485-1.503c0.693 0 1.98 0.063 2.61 0.468 0.639 0.405 1.089 0.918 1.467 1.548z"></path>
</svg>
