<!-- Generated by IcoMoon.io -->
<svg version="1.1" xmlns="http://www.w3.org/2000/svg" width="18" height="18" viewBox="0 0 18 18">
<title>calendar</title>
<path d="M13.5 3.6h2.7v12.6h-14.4v-12.6h2.7v-0.9c0-0.747 0.603-1.35 1.35-1.35s1.35 0.603 1.35 1.35v0.9h3.6v-0.9c0-0.747 0.603-1.35 1.35-1.35s1.35 0.603 1.35 1.35v0.9zM5.4 2.7v2.25c0 0.252 0.198 0.45 0.45 0.45s0.45-0.198 0.45-0.45v-2.25c0-0.252-0.198-0.45-0.45-0.45s-0.45 0.198-0.45 0.45zM11.7 2.7v2.25c0 0.252 0.198 0.45 0.45 0.45s0.45-0.198 0.45-0.45v-2.25c0-0.252-0.198-0.45-0.45-0.45s-0.45 0.198-0.45 0.45zM15.3 15.3v-8.1h-12.6v8.1h12.6zM6.3 14.4v-6.3h-1.8v6.3h1.8zM9.9 14.4v-6.3h-1.8v6.3h1.8zM13.5 14.4v-6.3h-1.8v6.3h1.8z"></path>
</svg>
