<!-- Generated by IcoMoon.io -->
<svg version="1.1" xmlns="http://www.w3.org/2000/svg" width="18" height="18" viewBox="0 0 18 18">
<title>calendar-alt</title>
<path d="M13.5 3.6h2.7v13.5h-14.4v-13.5h2.7v-0.9c0-0.369 0.135-0.684 0.396-0.954 0.261-0.261 0.585-0.396 0.954-0.396s0.693 0.135 0.954 0.396c0.261 0.27 0.396 0.585 0.396 0.954v0.9h3.6v-0.9c0-0.369 0.135-0.684 0.396-0.954 0.261-0.261 0.585-0.396 0.954-0.396s0.693 0.135 0.954 0.396c0.261 0.27 0.396 0.585 0.396 0.954v0.9zM5.4 2.7v2.25c0 0.126 0.045 0.234 0.135 0.324 0.081 0.081 0.189 0.126 0.315 0.126s0.234-0.045 0.315-0.126c0.090-0.090 0.135-0.198 0.135-0.324v-2.25c0-0.126-0.045-0.234-0.135-0.315-0.081-0.090-0.189-0.135-0.315-0.135s-0.234 0.045-0.315 0.135c-0.090 0.081-0.135 0.189-0.135 0.315zM11.7 2.7v2.25c0 0.126 0.045 0.234 0.126 0.324 0.090 0.081 0.198 0.126 0.324 0.126s0.234-0.045 0.324-0.126c0.081-0.090 0.126-0.198 0.126-0.324v-2.25c0-0.126-0.045-0.234-0.126-0.315-0.090-0.090-0.198-0.135-0.324-0.135s-0.234 0.045-0.324 0.135c-0.081 0.081-0.126 0.189-0.126 0.315zM15.3 16.2v-9h-12.6v9h12.6zM6.3 8.1v1.8h-1.8v-1.8h1.8zM8.1 8.1h1.8v1.8h-1.8v-1.8zM11.7 9.9v-1.8h1.8v1.8h-1.8zM6.3 10.8v1.8h-1.8v-1.8h1.8zM8.1 10.8h1.8v1.8h-1.8v-1.8zM11.7 12.6v-1.8h1.8v1.8h-1.8zM6.3 13.5v1.8h-1.8v-1.8h1.8zM9.9 15.3h-1.8v-1.8h1.8v1.8zM13.5 15.3h-1.8v-1.8h1.8v1.8z"/>
</svg>
