<!-- Generated by IcoMoon.io -->
<svg version="1.1" xmlns="http://www.w3.org/2000/svg" width="18" height="18" viewBox="0 0 18 18">
<title>carrot</title>
<path d="M1.8 16.587c1.359 1.224 10.476-4.203 11.826-6.489 0.648-1.098-0.117-2.709-1.368-3.996 1.422-0.945 2.673 1.998 3.861 1.377 0.54-0.288 0.891-1.179 0.63-1.728-0.468-0.972-2.025-0.972-3.078-1.089 0.747-0.18 2.538-0.945 2.574-2.025 0.036-0.828-1.017-1.773-1.845-1.674-1.089 0.126-1.485 1.692-1.854 2.7-0.045-0.639-0.18-2.043-0.882-2.655-0.936-0.819-2.061-0.045-2.088 0.945-0.036 1.197 2.538 1.863 1.728 3.303-1.368-1.053-2.979-1.629-4.014-1.026-0.441 0.279-0.945 0.819-1.467 1.521 0.801 0.846 1.908 1.863 2.781 2.448 0.18 0.126 0.234 0.378 0.099 0.558-0.126 0.189-0.378 0.234-0.558 0.108-0.891-0.603-1.98-1.602-2.79-2.439-0.405 0.603-0.819 1.287-1.206 2.007 0.765 0.774 1.737 1.647 2.511 2.169 0.18 0.126 0.225 0.378 0.099 0.558-0.126 0.189-0.378 0.234-0.567 0.108-0.765-0.522-1.674-1.332-2.439-2.088-1.593 3.141-2.763 6.687-1.953 7.407z"></path>
</svg>
