<!-- Generated by IcoMoon.io -->
<svg version="1.1" xmlns="http://www.w3.org/2000/svg" width="18" height="18" viewBox="0 0 18 18">
<title>cart</title>
<path d="M5.4 11.7h8.1c0.495 0 0.9 0.405 0.9 0.9s-0.405 0.9-0.9 0.9h-9c-0.495 0-0.9-0.405-0.9-0.9v-9h-1.8c-0.495 0-0.9-0.405-0.9-0.9s0.405-0.9 0.9-0.9h2.7c0.495 0 0.9 0.405 0.9 0.9v1.8h11.7l-3.6 6.3h-8.1v0.9zM4.95 14.4c0.747 0 1.35 0.603 1.35 1.35s-0.603 1.35-1.35 1.35-1.35-0.603-1.35-1.35 0.603-1.35 1.35-1.35zM13.050 14.4c0.747 0 1.35 0.603 1.35 1.35s-0.603 1.35-1.35 1.35-1.35-0.603-1.35-1.35 0.603-1.35 1.35-1.35z"/>
</svg>
