<!-- Generated by IcoMoon.io -->
<svg version="1.1" xmlns="http://www.w3.org/2000/svg" width="18" height="18" viewBox="0 0 18 18">
<title>chart-area</title>
<path d="M16.2 16.2l0.009-11.052c0.531-0.315 0.891-0.891 0.891-1.548 0-0.99-0.81-1.8-1.8-1.8s-1.8 0.81-1.8 1.8c0 0.72 0.423 1.332 1.026 1.62l-3.717 5.922c-0.297-0.216-0.657-0.342-1.044-0.342-0.756 0-1.395 0.459-1.665 1.116l-1.926-1.377c0.081-0.198 0.126-0.414 0.126-0.639 0-0.999-0.801-1.8-1.8-1.8-0.99 0-1.8 0.801-1.8 1.8 0 0.657 0.36 1.224 0.882 1.539l-2.682 4.761h15.3zM15.3 2.7c0.495 0 0.9 0.405 0.9 0.9s-0.405 0.9-0.9 0.9-0.9-0.405-0.9-0.9 0.405-0.9 0.9-0.9zM4.5 9c0.495 0 0.9 0.405 0.9 0.9s-0.405 0.9-0.9 0.9-0.9-0.405-0.9-0.9 0.405-0.9 0.9-0.9zM9.765 11.7c0.495 0 0.9 0.405 0.9 0.9s-0.405 0.9-0.9 0.9-0.9-0.405-0.9-0.9 0.405-0.9 0.9-0.9z"></path>
</svg>
