<!-- Generated by IcoMoon.io -->
<svg version="1.1" xmlns="http://www.w3.org/2000/svg" width="18" height="18" viewBox="0 0 18 18">
<title>chart-line</title>
<path d="M16.2 3.15c0 0.558-0.342 1.044-0.828 1.242v11.799h-13.581l3.798-6.057c-0.117-0.207-0.189-0.432-0.189-0.684 0-0.747 0.603-1.35 1.35-1.35s1.35 0.603 1.35 1.35c0 0.117-0.018 0.225-0.045 0.333l1.296 0.567c0.243-0.27 0.603-0.45 0.999-0.45 0.162 0 0.315 0.036 0.459 0.081l3.222-5.769c-0.324-0.243-0.531-0.63-0.531-1.062 0-0.747 0.603-1.35 1.35-1.35 0.171 0 0.324 0.036 0.477 0.090l0.045-0.081v0.099c0.486 0.198 0.828 0.684 0.828 1.242zM14.472 15.291v-10.026l-2.961 5.301c0.117 0.207 0.189 0.432 0.189 0.684 0 0.747-0.603 1.35-1.35 1.35s-1.35-0.603-1.35-1.35l0.009-0.063-1.467-0.648c-0.225 0.162-0.495 0.261-0.792 0.261-0.162 0-0.315-0.036-0.459-0.090l-2.88 4.581h11.061z"/>
</svg>
