<!-- Generated by IcoMoon.io -->
<svg version="1.1" xmlns="http://www.w3.org/2000/svg" width="18" height="18" viewBox="0 0 18 18">
<title>clipboard</title>
<path d="M10.71 0.351l1.26 1.26c1.449 0.171 3.15-0.666 4.149 0.333s0.162 2.7 0.333 4.149l1.26 1.26c0.351 0.351 0.351 0.918 0 1.269l-8.271 8.28c-0.36 0.351-0.927 0.351-1.278 0l-7.002-7.002c-0.351-0.351-0.351-0.918 0-1.278l8.28-8.271c0.351-0.351 0.918-0.351 1.269 0zM11.232 2.376l-0.522 0.522 4.455 4.455 0.522-0.522c-0.171-0.54-0.18-1.098-0.135-1.638 0.018-0.279 0.045-0.558 0.081-0.828 0.108-0.9 0.162-1.467-0.153-1.782s-0.882-0.261-1.782-0.153c-0.27 0.036-0.549 0.063-0.828 0.081-0.54 0.045-1.098 0.036-1.638-0.135zM14.85 3.213c0.351 0.351 0.351 0.927 0 1.278s-0.927 0.351-1.278 0-0.351-0.927 0-1.278 0.927-0.351 1.278 0zM8.802 3.537l-0.639 0.63 5.733 5.733 0.63-0.639zM7.524 4.806l-0.63 0.639 5.724 5.724 0.639-0.63zM6.255 6.084l-0.639 0.63 5.733 5.733 0.63-0.639zM4.986 7.353l-0.639 0.639 5.724 5.724 0.639-0.639zM3.708 8.622l-0.639 0.639 5.733 5.733 0.639-0.639z"/>
</svg>
