<!-- Generated by IcoMoon.io -->
<svg version="1.1" xmlns="http://www.w3.org/2000/svg" width="18" height="18" viewBox="0 0 18 18">
<title>clock</title>
<path d="M9 1.8c3.978 0 7.2 3.222 7.2 7.2s-3.222 7.2-7.2 7.2-7.2-3.222-7.2-7.2 3.222-7.2 7.2-7.2zM9 14.4c2.979 0 5.4-2.421 5.4-5.4s-2.421-5.4-5.4-5.4-5.4 2.421-5.4 5.4 2.421 5.4 5.4 5.4zM8.361 9.639c0.063 0.045 0.126 0.090 0.207 0.135l-0.018 0.018 4.050 1.908-2.727-2.871-0.873-4.329-0.873 4.329h0.009c0 0.018-0.009 0.045-0.018 0.081s-0.018 0.063-0.018 0.090c0 0.252 0.090 0.468 0.261 0.639z"></path>
</svg>
