<!-- Generated by IcoMoon.io -->
<svg version="1.1" xmlns="http://www.w3.org/2000/svg" width="18" height="18" viewBox="0 0 18 18">
<title>cloud</title>
<path d="M13.365 9.027c1.584 0.162 2.835 1.494 2.835 3.123 0 1.737-1.413 3.15-3.15 3.15h-9c-1.737 0-3.15-1.413-3.15-3.15 0-1.611 1.206-2.916 2.754-3.114-0.036-0.153-0.054-0.315-0.054-0.486 0-1.242 1.008-2.25 2.25-2.25 0.306 0 0.594 0.063 0.855 0.171 0.594-1.17 1.8-1.971 3.195-1.971 1.989 0 3.6 1.611 3.6 3.6 0 0.324-0.054 0.63-0.135 0.927z"/>
</svg>
