<!-- Generated by IcoMoon.io -->
<svg version="1.1" xmlns="http://www.w3.org/2000/svg" width="18" height="18" viewBox="0 0 18 18">
<title>controls-volumeon</title>
<path d="M1.8 6.3h3.6l4.5-3.6v12.6l-4.5-3.6h-3.6v-5.4zM13.221 4.086c0.117 0.045 2.979 1.242 2.979 4.914s-2.862 4.869-2.979 4.914c-0.054 0.027-0.117 0.036-0.171 0.036-0.18 0-0.351-0.108-0.414-0.279-0.099-0.234 0.018-0.495 0.243-0.585 0.099-0.045 2.421-1.035 2.421-4.086 0-3.069-2.394-4.077-2.421-4.086-0.225-0.090-0.342-0.351-0.243-0.585 0.090-0.225 0.351-0.342 0.585-0.243zM14.4 9c0 2.313-2.007 3.087-2.088 3.123-0.054 0.018-0.108 0.027-0.162 0.027-0.18 0-0.351-0.108-0.423-0.288-0.090-0.234 0.036-0.495 0.261-0.585 0.063-0.018 1.512-0.603 1.512-2.277s-1.449-2.259-1.512-2.277c-0.225-0.090-0.342-0.351-0.261-0.585 0.090-0.225 0.351-0.351 0.585-0.261 0.081 0.036 2.088 0.81 2.088 3.123z"></path>
</svg>
