<!-- Generated by IcoMoon.io -->
<svg version="1.1" xmlns="http://www.w3.org/2000/svg" width="18" height="18" viewBox="0 0 18 18">
<title>dashboard</title>
<path d="M3.384 14.4h11.232c0.99-1.233 1.584-2.799 1.584-4.5 0-3.978-3.222-7.2-7.2-7.2s-7.2 3.222-7.2 7.2c0 1.701 0.594 3.267 1.584 4.5zM9 3.6c0.495 0 0.9 0.405 0.9 0.9s-0.405 0.9-0.9 0.9-0.9-0.405-0.9-0.9 0.405-0.9 0.9-0.9zM5.4 5.4c0.495 0 0.9 0.405 0.9 0.9s-0.405 0.9-0.9 0.9-0.9-0.405-0.9-0.9 0.405-0.9 0.9-0.9zM12.6 5.4c0.495 0 0.9 0.405 0.9 0.9s-0.405 0.9-0.9 0.9-0.9-0.405-0.9-0.9 0.405-0.9 0.9-0.9zM7.767 10.395l3.033-4.095v5.4c0 0.99-0.81 1.8-1.8 1.8s-1.8-0.81-1.8-1.8c0-0.513 0.216-0.972 0.567-1.305zM3.6 9c0.495 0 0.9 0.405 0.9 0.9s-0.405 0.9-0.9 0.9-0.9-0.405-0.9-0.9 0.405-0.9 0.9-0.9zM14.4 9c0.495 0 0.9 0.405 0.9 0.9s-0.405 0.9-0.9 0.9-0.9-0.405-0.9-0.9 0.405-0.9 0.9-0.9zM9.9 11.7c0-0.495-0.405-0.9-0.9-0.9s-0.9 0.405-0.9 0.9 0.405 0.9 0.9 0.9 0.9-0.405 0.9-0.9z"/>
</svg>
