<!-- Generated by IcoMoon.io -->
<svg version="1.1" xmlns="http://www.w3.org/2000/svg" width="18" height="18" viewBox="0 0 18 18">
<title>editor-customchar</title>
<path d="M9 4.86c1.143 0 2.016 0.324 2.619 0.972 0.594 0.639 0.9 1.584 0.9 2.817 0 1.152-0.207 2.133-0.621 2.943-0.423 0.801-1.143 1.368-1.998 1.908v1.8h5.4v-1.8h-3.321c0.828-0.576 1.458-1.206 1.908-2.106 0.441-0.909 0.666-1.917 0.666-3.015 0-1.602-0.495-2.871-1.485-3.798s-2.34-1.395-4.068-1.395-3.087 0.477-4.068 1.413c-0.99 0.936-1.485 2.196-1.485 3.78 0 1.089 0.216 2.079 0.657 2.997 0.432 0.909 1.071 1.539 1.89 2.124h-3.294v1.8h5.4v-1.8c-0.882-0.576-1.62-1.152-2.016-1.953-0.405-0.801-0.603-1.764-0.603-2.898 0-1.233 0.297-2.169 0.9-2.817 0.594-0.648 1.467-0.972 2.619-0.972z"/>
</svg>
