<!-- Generated by IcoMoon.io -->
<svg version="1.1" xmlns="http://www.w3.org/2000/svg" width="18" height="18" viewBox="0 0 18 18">
<title>editor-quote</title>
<path d="M8.541 11.898c0-0.666-0.18-1.242-0.549-1.71-0.558-0.702-1.647-0.792-2.277-0.648-0.261-1.485 0.999-3.375 2.628-4.185l-1.251-1.755c-2.457 1.17-4.878 3.852-4.464 7.245 0.261 2.142 1.503 3.555 3.258 3.555 0.765 0 1.404-0.225 1.908-0.675s0.747-1.062 0.747-1.827zM15.786 11.898c0-0.666-0.18-1.242-0.549-1.71-0.567-0.702-1.647-0.792-2.277-0.648-0.261-1.485 0.999-3.375 2.628-4.185l-1.251-1.755c-2.457 1.17-4.869 3.852-4.455 7.245 0.261 2.142 1.494 3.555 3.249 3.555 0.765 0 1.404-0.225 1.908-0.675s0.747-1.062 0.747-1.827z"></path>
</svg>
