<!-- Generated by IcoMoon.io -->
<svg version="1.1" xmlns="http://www.w3.org/2000/svg" width="18" height="18" viewBox="0 0 18 18">
<title>editor-unlink</title>
<path d="M15.966 2.034c1.512 1.521 1.512 3.969 0 5.49l-1.377 1.368c-0.288 0.297-0.621 0.522-0.972 0.693l-1.917-0.585 1.521-1.476 0.684-0.693 0.684-0.684c0.756-0.756 0.756-1.98 0-2.736-0.756-0.765-1.98-0.765-2.736 0l-0.693 0.684-0.684 0.684-1.476 1.521-0.585-1.926c0.171-0.342 0.396-0.675 0.693-0.963l1.368-1.377c1.521-1.512 3.978-1.512 5.49 0zM1.8 3.6l7.2 5.4-5.4-7.2zM5.4 1.8l3.6 7.2-1.8-7.2h-1.8zM1.8 5.4l7.2 3.6-7.2-1.8v-1.8zM8.424 12.321l0.576-0.621 0.666 2.115-1.242 1.251c-1.521 1.512-3.969 1.512-5.49 0-1.512-1.512-1.512-3.978 0-5.49l1.251-1.242 2.115 0.666-0.621 0.576-1.368 1.377c-0.765 0.756-0.765 1.98 0 2.736 0.756 0.765 1.98 0.765 2.736 0zM16.2 14.4l-7.2-5.4 5.4 7.2zM12.6 16.2l-3.6-7.2 1.8 7.2h1.8zM16.2 12.6l-7.2-3.6 7.2 1.8v1.8z"></path>
</svg>
