<!-- Generated by IcoMoon.io -->
<svg version="1.1" xmlns="http://www.w3.org/2000/svg" width="18" height="18" viewBox="0 0 18 18">
<title>editor-paste-word</title>
<path d="M11.142 1.8l2.358 2.7v0.9h-9v-0.9l2.376-2.7h4.266zM9 4.5c0.495 0 0.9-0.405 0.9-0.9s-0.405-0.9-0.9-0.9-0.9 0.405-0.9 0.9 0.405 0.9 0.9 0.9zM16.2 15.3v-10.8c0-0.495-0.405-0.9-0.9-0.9h-1.386l0.486 0.567v2.133h-10.8v-2.142l0.495-0.558h-1.395c-0.495 0-0.9 0.405-0.9 0.9v10.8c0 0.495 0.405 0.9 0.9 0.9h12.6c0.495 0 0.9-0.405 0.9-0.9zM13.5 8.1l-1.8 6.3h-1.8l-0.9-4.5-0.9 4.5h-1.872l-1.728-6.3h1.8l0.9 4.5 0.9-4.5h1.8l0.9 4.5 0.9-4.5h1.8z"/>
</svg>
