<!-- Generated by IcoMoon.io -->
<svg version="1.1" xmlns="http://www.w3.org/2000/svg" width="18" height="18" viewBox="0 0 18 18">
<title>editor-help</title>
<path d="M15.3 9c0-3.483-2.826-6.3-6.3-6.3-3.483 0-6.3 2.817-6.3 6.3s2.817 6.3 6.3 6.3c3.474 0 6.3-2.817 6.3-6.3zM9.63 10.332h-1.404v-0.387c0-0.342 0.072-0.63 0.216-0.882s0.414-0.513 0.792-0.801c0.369-0.261 0.612-0.477 0.729-0.639 0.126-0.162 0.18-0.351 0.18-0.558 0-0.225-0.081-0.396-0.252-0.522-0.171-0.117-0.405-0.171-0.711-0.171-0.522 0-1.125 0.171-1.8 0.513l-0.576-1.152c0.783-0.441 1.62-0.666 2.493-0.666 0.729 0 1.305 0.18 1.728 0.522 0.432 0.351 0.639 0.819 0.639 1.395 0 0.387-0.081 0.72-0.261 0.999-0.171 0.288-0.513 0.603-0.999 0.954-0.342 0.252-0.549 0.441-0.639 0.567-0.090 0.135-0.135 0.306-0.135 0.513v0.315zM8.307 12.798c-0.162-0.153-0.243-0.378-0.243-0.657 0-0.297 0.072-0.522 0.234-0.675s0.387-0.225 0.693-0.225c0.288 0 0.513 0.081 0.675 0.234s0.243 0.378 0.243 0.666c0 0.27-0.081 0.495-0.243 0.648-0.162 0.162-0.387 0.243-0.675 0.243-0.297 0-0.522-0.081-0.684-0.234z"></path>
</svg>
