<!-- Generated by IcoMoon.io -->
<svg version="1.1" xmlns="http://www.w3.org/2000/svg" width="18" height="18" viewBox="0 0 18 18">
<title>editor-spellcheck</title>
<path d="M14.256 2.484c0.225 0 0.441 0.036 0.639 0.099 0.207 0.063 0.396 0.144 0.576 0.225l0.315-0.729c-0.468-0.234-0.972-0.351-1.521-0.351-0.522 0-0.981 0.117-1.368 0.333-0.387 0.225-0.684 0.549-0.891 0.972-0.207 0.414-0.306 0.909-0.306 1.467 0 0.891 0.207 1.575 0.63 2.052s1.035 0.711 1.818 0.711c0.54 0 1.017-0.081 1.44-0.234v-0.756c-0.234 0.072-0.459 0.126-0.666 0.171-0.216 0.045-0.441 0.072-0.666 0.072-0.531 0-0.936-0.171-1.206-0.513-0.288-0.333-0.423-0.837-0.423-1.494 0-0.63 0.144-1.125 0.432-1.485 0.297-0.36 0.693-0.54 1.197-0.54zM5.85 7.2h0.936l-2.016-5.4h-0.954l-2.016 5.4h0.927l0.522-1.494h2.061zM7.2 1.8v5.4h1.953c0.603 0 1.071-0.135 1.413-0.414 0.342-0.27 0.504-0.648 0.504-1.134 0-0.36-0.090-0.648-0.27-0.855-0.171-0.216-0.45-0.351-0.837-0.423v-0.036c0.315-0.054 0.54-0.189 0.702-0.396 0.162-0.216 0.252-0.477 0.252-0.792 0-0.468-0.171-0.81-0.504-1.026-0.324-0.216-0.864-0.324-1.611-0.324h-1.602zM8.082 4.032v-1.494h0.765c0.396 0 0.693 0.054 0.873 0.171 0.189 0.108 0.279 0.297 0.279 0.549 0 0.279-0.090 0.477-0.261 0.594-0.162 0.117-0.432 0.18-0.801 0.18h-0.855zM5.076 4.95h-1.566l0.486-1.404c0.126-0.36 0.225-0.684 0.288-0.99l0.135 0.468c0.063 0.207 0.117 0.36 0.153 0.459zM8.082 4.743h0.891c0.396 0 0.684 0.072 0.882 0.207 0.189 0.135 0.288 0.342 0.288 0.621 0 0.306-0.099 0.531-0.288 0.675s-0.468 0.216-0.837 0.216h-0.936v-1.719zM3.6 11.7l4.5 4.5 8.1-7.2-0.9-0.9-7.2 5.4-3.6-2.7z"></path>
</svg>
