<!-- Generated by IcoMoon.io -->
<svg version="1.1" xmlns="http://www.w3.org/2000/svg" width="18" height="18" viewBox="0 0 18 18">
<title>editor-ul</title>
<path d="M4.95 6.3c-0.747 0-1.35-0.603-1.35-1.35 0-0.738 0.603-1.35 1.35-1.35 0.738 0 1.35 0.612 1.35 1.35 0 0.747-0.612 1.35-1.35 1.35zM7.2 4.5h8.1v0.9h-8.1v-0.9zM4.95 10.8c-0.747 0-1.35-0.603-1.35-1.35 0-0.738 0.603-1.35 1.35-1.35 0.738 0 1.35 0.612 1.35 1.35 0 0.747-0.612 1.35-1.35 1.35zM7.2 9h8.1v0.9h-8.1v-0.9zM4.95 15.3c-0.747 0-1.35-0.603-1.35-1.35 0-0.738 0.603-1.35 1.35-1.35 0.738 0 1.35 0.612 1.35 1.35 0 0.747-0.612 1.35-1.35 1.35zM7.2 13.5h8.1v0.9h-8.1v-0.9z"></path>
</svg>
