<!-- Generated by IcoMoon.io -->
<svg version="1.1" xmlns="http://www.w3.org/2000/svg" width="18" height="18" viewBox="0 0 18 18">
<title>editor-bold</title>
<path d="M5.4 3.6v11.7h4.086c1.233 0 2.214-0.297 2.934-0.9 0.72-0.594 1.080-1.422 1.080-2.493 0-0.756-0.153-1.359-0.459-1.809s-0.81-0.765-1.503-0.927v-0.081c0.513-0.090 0.918-0.36 1.224-0.81s0.459-1.017 0.459-1.719c0-1.026-0.351-1.782-1.053-2.25-0.693-0.477-1.818-0.711-3.366-0.711h-3.402zM7.713 8.235v-2.601h1.224c0.657 0 1.143 0.099 1.449 0.288 0.306 0.198 0.459 0.522 0.459 0.963 0 0.486-0.144 0.828-0.423 1.035s-0.738 0.315-1.359 0.315h-1.35zM7.713 10.206h1.44c1.296 0 1.944 0.477 1.944 1.449 0 0.54-0.153 0.945-0.459 1.206s-0.774 0.387-1.413 0.387h-1.512v-3.042z"/>
</svg>
