<!-- Generated by IcoMoon.io -->
<svg version="1.1" xmlns="http://www.w3.org/2000/svg" width="18" height="18" viewBox="0 0 18 18">
<title>editor-paste-text</title>
<path d="M11.142 1.8l2.358 2.7v0.9h-9v-0.9l2.376-2.7h4.266zM9 4.5c0.495 0 0.9-0.396 0.9-0.9 0-0.495-0.405-0.9-0.9-0.9s-0.9 0.405-0.9 0.9c0 0.504 0.405 0.9 0.9 0.9zM13.905 3.6h1.395c0.495 0 0.9 0.405 0.9 0.9v10.8c0 0.504-0.405 0.9-0.9 0.9h-12.6c-0.495 0-0.9-0.396-0.9-0.9v-10.8c0-0.495 0.405-0.9 0.9-0.9h1.395l-0.495 0.567v2.133h10.8v-2.133zM12.6 9.9v-1.8h-7.2v1.8h2.7v4.5h1.8v-4.5h2.7z"/>
</svg>
