<!-- Generated by IcoMoon.io -->
<svg version="1.1" xmlns="http://www.w3.org/2000/svg" width="18" height="18" viewBox="0 0 18 18">
<title>editor-video</title>
<path d="M14.4 1.8h-2.7v0.9h-5.4v-0.9h-2.7v13.5h2.7v-0.9h5.4v0.9h2.7v-13.5zM5.4 2.7v0.9h-0.9v-0.9h0.9zM13.5 2.7v0.9h-0.9v-0.9h0.9zM11.7 3.6v4.5h-5.4v-4.5h5.4zM5.4 4.5v0.9h-0.9v-0.9h0.9zM13.5 4.5v0.9h-0.9v-0.9h0.9zM5.4 6.3v0.9h-0.9v-0.9h0.9zM13.5 6.3v0.9h-0.9v-0.9h0.9zM5.4 8.1v0.9h-0.9v-0.9h0.9zM13.5 8.1v0.9h-0.9v-0.9h0.9zM11.7 9v4.5h-5.4v-4.5h5.4zM5.4 9.9v0.9h-0.9v-0.9h0.9zM13.5 9.9v0.9h-0.9v-0.9h0.9zM5.4 11.7v0.9h-0.9v-0.9h0.9zM13.5 11.7v0.9h-0.9v-0.9h0.9zM5.4 13.5v0.9h-0.9v-0.9h0.9zM13.5 13.5v0.9h-0.9v-0.9h0.9z"/>
</svg>
