<!-- Generated by IcoMoon.io -->
<svg version="1.1" xmlns="http://www.w3.org/2000/svg" width="18" height="18" viewBox="0 0 18 18">
<title>editor-removeformatting</title>
<path d="M12.861 4.131l0.99 0.999c0.369 0.36 0.549 0.846 0.549 1.323v1.908c0 0.477-0.18 0.963-0.549 1.323l-5.967 5.967c-0.36 0.369-0.846 0.549-1.323 0.549s-0.963-0.18-1.323-0.549l-0.999-0.99-0.99-0.999c-0.369-0.36-0.549-0.846-0.549-1.323v-1.908c0-0.486 0.18-0.963 0.549-1.332l5.967-5.958c0.36-0.369 0.846-0.549 1.323-0.549s0.954 0.18 1.323 0.549zM7.272 12.861l5.778-5.778c0.351-0.351 0.351-0.927 0-1.287l-1.926-1.926c-0.171-0.171-0.405-0.261-0.648-0.261s-0.468 0.090-0.639 0.261l-5.778 5.778c-0.351 0.36-0.351 0.936 0 1.287l1.926 1.926c0.342 0.342 0.936 0.342 1.287 0z"/>
</svg>
