<!-- Generated by IcoMoon.io -->
<svg version="1.1" xmlns="http://www.w3.org/2000/svg" width="18" height="18" viewBox="0 0 18 18">
<title>editor-kitchensink</title>
<path d="M17.1 1.8v5.4h-16.2v-5.4h16.2zM16.2 6.3v-3.6h-14.4v3.6h14.4zM4.5 3.6v1.8h-1.8v-1.8h1.8zM7.2 3.6v1.8h-1.8v-1.8h1.8zM9.9 3.6v1.8h-1.8v-1.8h1.8zM12.6 3.6v1.8h-1.8v-1.8h1.8zM15.3 3.6v1.8h-1.8v-1.8h1.8zM17.1 8.1v8.1h-16.2v-8.1h16.2zM16.2 15.3v-6.3h-14.4v6.3h14.4zM4.5 9.9v1.8h-1.8v-1.8h1.8zM7.2 9.9v1.8h-1.8v-1.8h1.8zM9.9 9.9v1.8h-1.8v-1.8h1.8zM15.3 9.9v1.8h-4.5v-1.8h4.5zM9.9 12.6v1.8h-7.2v-1.8h7.2zM12.6 12.6v1.8h-1.8v-1.8h1.8zM15.3 12.6v1.8h-1.8v-1.8h1.8z"/>
</svg>
