<!-- Generated by IcoMoon.io -->
<svg version="1.1" xmlns="http://www.w3.org/2000/svg" width="18" height="18" viewBox="0 0 18 18">
<title>editor-ol</title>
<path d="M5.4 6.3v-3.6h-0.621l-1.161 0.927 0.36 0.459 0.414-0.333c0.054-0.045 0.144-0.126 0.27-0.252l-0.018 0.378v2.421h0.756zM7.2 4.5h8.1v0.9h-8.1v-0.9zM6.093 10.755v-0.63h-1.548v-0.036l0.459-0.432c0.297-0.279 0.513-0.486 0.63-0.639 0.126-0.153 0.216-0.297 0.27-0.441 0.063-0.144 0.090-0.297 0.090-0.459 0-0.189-0.045-0.36-0.144-0.504-0.090-0.144-0.225-0.252-0.396-0.333s-0.369-0.126-0.585-0.126c-0.171 0-0.324 0.018-0.459 0.054-0.135 0.027-0.261 0.081-0.378 0.135-0.108 0.063-0.261 0.171-0.432 0.315l0.405 0.486c0.144-0.117 0.279-0.207 0.405-0.27 0.135-0.063 0.27-0.090 0.405-0.090 0.126 0 0.234 0.027 0.315 0.099s0.117 0.18 0.117 0.324c0 0.090-0.018 0.18-0.054 0.27s-0.090 0.189-0.171 0.297c-0.081 0.099-0.261 0.288-0.522 0.558l-0.891 0.9v0.522h2.484zM7.2 9h8.1v0.9h-8.1v-0.9zM6.039 12.555c0-0.27-0.108-0.486-0.333-0.639-0.216-0.153-0.522-0.234-0.9-0.234-0.468 0-0.864 0.117-1.197 0.36l0.36 0.54c0.153-0.099 0.288-0.171 0.414-0.207 0.126-0.045 0.243-0.063 0.369-0.063 0.342 0 0.522 0.135 0.522 0.414 0 0.18-0.063 0.315-0.198 0.387s-0.342 0.108-0.63 0.108h-0.279v0.594h0.279c0.306 0 0.531 0.036 0.675 0.108 0.135 0.072 0.207 0.198 0.207 0.369 0 0.198-0.063 0.333-0.18 0.423-0.126 0.090-0.315 0.135-0.567 0.135-0.171 0-0.342-0.027-0.513-0.072s-0.324-0.108-0.468-0.18v0.666c0.306 0.135 0.666 0.198 1.062 0.198 0.477 0 0.846-0.099 1.098-0.297 0.261-0.198 0.387-0.468 0.387-0.828 0-0.243-0.081-0.432-0.234-0.576s-0.378-0.234-0.666-0.27v-0.018c0.243-0.054 0.441-0.171 0.585-0.333 0.135-0.162 0.207-0.351 0.207-0.585zM7.2 13.5h8.1v0.9h-8.1v-0.9z"/>
</svg>
