<!-- Generated by IcoMoon.io -->
<svg version="1.1" xmlns="http://www.w3.org/2000/svg" width="18" height="18" viewBox="0 0 18 18">
<title>editor-ltr</title>
<path d="M4.968 1.8h6.687c0.495 0 0.9 0.405 0.9 0.9s-0.405 0.9-0.9 0.9h-0.9v11.7c0 0.495-0.405 0.9-0.9 0.9s-0.9-0.405-0.9-0.9v-10.8c0-0.495-0.405-0.9-0.9-0.9s-0.9 0.405-0.9 0.9v10.8c0 0.495-0.405 0.9-0.9 0.9s-0.9-0.405-0.9-0.9v-5.364h-0.387c-2.25 0-4.068-1.818-4.068-4.068s1.818-4.068 4.068-4.068zM12.6 12.6l4.5-3.6-4.5-3.6v7.2z"></path>
</svg>
