<!-- Generated by IcoMoon.io -->
<svg version="1.1" xmlns="http://www.w3.org/2000/svg" width="18" height="18" viewBox="0 0 18 18">
<title>editor-paragraph</title>
<path d="M13.5 1.8h-6.714c-0.747 0-1.431 0.18-2.052 0.54-0.63 0.369-1.125 0.864-1.485 1.485-0.369 0.621-0.549 1.305-0.549 2.043s0.18 1.422 0.549 2.043c0.36 0.621 0.855 1.116 1.485 1.476 0.621 0.369 1.305 0.549 2.052 0.549h0.387v5.364c0 0.243 0.090 0.459 0.261 0.639 0.18 0.171 0.396 0.261 0.639 0.261 0.252 0 0.459-0.090 0.639-0.261 0.18-0.18 0.27-0.396 0.27-0.639v-10.8c0-0.243 0.081-0.459 0.261-0.639 0.18-0.171 0.396-0.261 0.639-0.261s0.459 0.090 0.639 0.261c0.171 0.18 0.261 0.396 0.261 0.639v10.8c0 0.243 0.090 0.459 0.27 0.639 0.18 0.171 0.387 0.261 0.639 0.261 0.243 0 0.459-0.090 0.639-0.261 0.171-0.18 0.261-0.396 0.261-0.639v-11.7h0.909c0.243 0 0.45-0.090 0.63-0.27 0.18-0.171 0.27-0.387 0.27-0.63s-0.090-0.459-0.27-0.639c-0.18-0.171-0.387-0.261-0.63-0.261z"/>
</svg>
