<!-- Generated by IcoMoon.io -->
<svg version="1.1" xmlns="http://www.w3.org/2000/svg" width="18" height="18" viewBox="0 0 18 18">
<title>editor-strikethrough</title>
<path d="M14.238 11.025c0.234 0 0.45-0.018 0.666-0.063 0.207-0.045 0.432-0.108 0.657-0.18v0.756c-0.414 0.153-0.891 0.234-1.422 0.234-0.792 0-1.386-0.234-1.809-0.711-0.351-0.396-0.558-0.936-0.612-1.611h-0.846c0.108 0.189 0.162 0.432 0.162 0.711 0 0.486-0.162 0.855-0.495 1.134-0.342 0.27-0.81 0.405-1.404 0.405h-1.935v-2.25h-1.269l0.837 2.25h-0.927l-0.531-1.503h-2.052l-0.522 1.503h-0.936l0.837-2.25h-0.837v-0.9h1.179l0.837-2.241h0.954l0.828 2.241h1.602v-2.25h1.593c0.9 0 1.269 0.153 1.593 0.369 0.333 0.216 0.495 0.558 0.495 1.017 0 0.315-0.081 0.576-0.243 0.783l-0.072 0.081h1.161c0.045-0.36 0.135-0.693 0.279-0.99 0.207-0.414 0.495-0.738 0.882-0.954 0.387-0.225 0.837-0.333 1.359-0.333 0.549 0 1.053 0.108 1.521 0.342l-0.315 0.729c-0.18-0.090-0.378-0.162-0.576-0.225s-0.414-0.099-0.639-0.099c-0.495 0-0.891 0.18-1.179 0.531-0.207 0.261-0.342 0.594-0.396 0.999h2.637v0.9h-2.655c0.054 0.45 0.18 0.81 0.396 1.071 0.27 0.333 0.675 0.504 1.197 0.504zM3.996 8.064l-0.162 0.486h0.936l-0.198-0.549c-0.036-0.099-0.081-0.252-0.153-0.459-0.063-0.216-0.108-0.369-0.126-0.459-0.072 0.297-0.162 0.621-0.297 0.981zM8.073 7.083v1.467h1.071c0.252-0.018 0.441-0.081 0.576-0.162 0.171-0.117 0.252-0.315 0.252-0.594 0-0.252-0.090-0.432-0.27-0.549-0.18-0.108-0.477-0.162-0.873-0.162h-0.756zM5.076 9.459v-0.009h-1.557v0.009h1.557zM9.828 9.468l-0.027-0.018h-1.728v1.512h0.936c0.36 0 0.639-0.072 0.828-0.207 0.189-0.144 0.279-0.36 0.279-0.666 0-0.279-0.099-0.486-0.288-0.621z"></path>
</svg>
