<!-- Generated by IcoMoon.io -->
<svg version="1.1" xmlns="http://www.w3.org/2000/svg" width="18" height="18" viewBox="0 0 18 18">
<title>email</title>
<path d="M3.483 3.6h11.925c1.125 0 1.692 0.531 1.692 1.611v7.578c0 1.071-0.567 1.611-1.692 1.611h-11.925c-1.125 0-1.692-0.54-1.692-1.611v-7.578c0-1.080 0.567-1.611 1.692-1.611zM9.441 11.34l6.066-4.977c0.216-0.18 0.387-0.594 0.117-0.963-0.261-0.369-0.738-0.378-1.053-0.153l-5.13 3.474-5.121-3.474c-0.315-0.225-0.792-0.216-1.053 0.153-0.27 0.369-0.099 0.783 0.117 0.963z"/>
</svg>
