<!-- Generated by IcoMoon.io -->
<svg version="1.1" xmlns="http://www.w3.org/2000/svg" width="18" height="18" viewBox="0 0 18 18">
<title>email-alt</title>
<path d="M17.1 13.050v-8.1c0-0.747-0.603-1.35-1.35-1.35h-12.609c-0.747 0-1.35 0.603-1.35 1.35v8.1c0 0.747 0.603 1.35 1.35 1.35h12.609c0.747 0 1.35-0.603 1.35-1.35zM15.921 4.851c0.297 0.297 0.135 0.603-0.027 0.756l-3.654 3.348 3.51 3.654c0.108 0.126 0.18 0.324 0.054 0.459-0.117 0.144-0.387 0.135-0.504 0.045l-3.933-3.357-1.926 1.755-1.917-1.755-3.933 3.357c-0.117 0.090-0.387 0.099-0.504-0.045-0.126-0.135-0.054-0.333 0.054-0.459l3.51-3.654-3.654-3.348c-0.162-0.153-0.324-0.459-0.027-0.756s0.603-0.153 0.855 0.063l5.616 4.536 5.625-4.536c0.252-0.216 0.558-0.36 0.855-0.063z"></path>
</svg>
