<!-- Generated by IcoMoon.io -->
<svg version="1.1" xmlns="http://www.w3.org/2000/svg" width="18" height="18" viewBox="0 0 18 18">
<title>email-alt2</title>
<path d="M16.209 10.062v-7.803c0-1.071-0.81-1.629-1.8-1.233l-10.809 4.293c-0.99 0.396-1.8 1.593-1.8 2.673v7.794c0 1.080 0.81 1.629 1.8 1.233l10.809-4.293c0.99-0.396 1.8-1.584 1.8-2.664zM14.922 3.348l-5.436 8.397-5.985-4.14c-0.090-0.063-0.324-0.288-0.153-0.576 0.189-0.324 0.585-0.189 0.585-0.189l5.67 2.088s4.347-5.706 4.599-6.030c0.117-0.153 0.387-0.306 0.657-0.117 0.261 0.18 0.144 0.441 0.063 0.567z"/>
</svg>
