<!-- Generated by IcoMoon.io -->
<svg version="1.1" xmlns="http://www.w3.org/2000/svg" width="18" height="18" viewBox="0 0 18 18">
<title>excerpt-view</title>
<path d="M17.1 16.2v-14.4c0-0.495-0.405-0.9-0.9-0.9h-14.4c-0.495 0-0.9 0.405-0.9 0.9v14.4c0 0.495 0.405 0.9 0.9 0.9h14.4c0.495 0 0.9-0.405 0.9-0.9zM3.6 2.7c0.495 0 0.9 0.405 0.9 0.9s-0.405 0.9-0.9 0.9-0.9-0.405-0.9-0.9 0.405-0.9 0.9-0.9zM15.3 2.7v5.4h-9.9v-5.4h9.9zM3.6 9.9c0.495 0 0.9 0.405 0.9 0.9s-0.405 0.9-0.9 0.9-0.9-0.405-0.9-0.9 0.405-0.9 0.9-0.9zM15.3 9.9v5.4h-9.9v-5.4h9.9z"/>
</svg>
