<!-- Generated by IcoMoon.io -->
<svg version="1.1" xmlns="http://www.w3.org/2000/svg" width="18" height="18" viewBox="0 0 18 18">
<title>facebook</title>
<path d="M2.601 1.8h12.807c0.441 0 0.792 0.351 0.792 0.792v12.816c0 0.432-0.351 0.792-0.792 0.792h-3.672v-5.58h1.872l0.279-2.169h-2.151v-1.386c0-0.63 0.18-1.062 1.080-1.062h1.152v-1.944c-0.198-0.027-0.882-0.081-1.674-0.081-1.665 0-2.799 1.008-2.799 2.871v1.602h-1.881v2.169h1.881v5.58h-6.894c-0.441 0-0.801-0.36-0.801-0.792v-12.816c0-0.441 0.36-0.792 0.801-0.792z"/>
</svg>
