<!-- Generated by IcoMoon.io -->
<svg version="1.1" xmlns="http://www.w3.org/2000/svg" width="18" height="18" viewBox="0 0 18 18">
<title>forms</title>
<path d="M1.8 1.8h6.3v6.3h-6.3v-6.3zM9.9 1.8v6.3h6.3v-6.3h-6.3zM4.95 4.050l1.35-1.35h-2.7zM10.8 7.2v-4.5h4.5v4.5h-4.5zM4.050 4.95l-1.35-1.35v2.7zM7.2 3.6l-1.35 1.35 1.35 1.35v-2.7zM4.95 5.85l-1.35 1.35h2.7zM8.1 16.2v-6.3h-6.3v6.3h6.3zM16.2 16.2h-6.3v-6.3h6.3v6.3zM7.2 10.8v4.5h-4.5v-4.5h4.5zM13.050 12.15l1.35-1.35h-2.7zM10.8 14.4l1.35-1.35-1.35-1.35v2.7zM13.95 13.050l1.35 1.35v-2.7zM13.050 13.95l-1.35 1.35h2.7z"></path>
</svg>
