<!-- Generated by IcoMoon.io -->
<svg version="1.1" xmlns="http://www.w3.org/2000/svg" width="18" height="18" viewBox="0 0 18 18">
<title>format-status</title>
<path d="M9 0.9c6.3 0 8.1 2.619 8.1 5.85s-1.8 5.85-8.1 5.85-8.1-2.619-8.1-5.85 1.8-5.85 8.1-5.85zM4.95 8.1c0.747 0 1.35-0.603 1.35-1.35s-0.603-1.35-1.35-1.35-1.35 0.603-1.35 1.35 0.603 1.35 1.35 1.35zM9 8.1c0.747 0 1.35-0.603 1.35-1.35s-0.603-1.35-1.35-1.35-1.35 0.603-1.35 1.35 0.603 1.35 1.35 1.35zM13.050 8.1c0.747 0 1.35-0.603 1.35-1.35s-0.603-1.35-1.35-1.35-1.35 0.603-1.35 1.35 0.603 1.35 1.35 1.35zM5.4 13.050c0.747 0 1.35 0.603 1.35 1.35s-0.603 1.35-1.35 1.35-1.35-0.603-1.35-1.35 0.603-1.35 1.35-1.35zM2.7 14.85c0.495 0 0.9 0.405 0.9 0.9s-0.405 0.9-0.9 0.9-0.9-0.405-0.9-0.9 0.405-0.9 0.9-0.9z"></path>
</svg>
