<!-- Generated by IcoMoon.io -->
<svg version="1.1" xmlns="http://www.w3.org/2000/svg" width="18" height="18" viewBox="0 0 18 18">
<title>format-quote</title>
<path d="M7.686 11.466c0-0.783-0.216-1.449-0.648-1.998-0.657-0.828-1.926-0.927-2.664-0.765-0.306-1.737 1.17-3.951 3.078-4.905l-1.467-2.052c-2.88 1.368-5.706 4.518-5.22 8.487 0.306 2.511 1.755 4.167 3.807 4.167 0.9 0 1.647-0.261 2.232-0.792 0.594-0.531 0.882-1.242 0.882-2.142zM16.173 11.466c0-0.783-0.216-1.449-0.648-1.998-0.657-0.828-1.926-0.927-2.664-0.765-0.306-1.737 1.17-3.951 3.078-4.905l-1.467-2.052c-2.88 1.368-5.706 4.518-5.22 8.487 0.306 2.511 1.755 4.167 3.807 4.167 0.9 0 1.647-0.261 2.232-0.792 0.594-0.531 0.882-1.242 0.882-2.142z"></path>
</svg>
