<!-- Generated by IcoMoon.io -->
<svg version="1.1" xmlns="http://www.w3.org/2000/svg" width="18" height="18" viewBox="0 0 18 18">
<title>format-image</title>
<path d="M2.025 0.9h13.95c0.621 0 1.125 0.504 1.125 1.125v13.95c0 0.621-0.504 1.125-1.125 1.125h-13.95c-0.621 0-1.125-0.504-1.125-1.125v-13.95c0-0.621 0.504-1.125 1.125-1.125zM15.3 15.3v-12.6h-12.6v12.6h12.6zM9 5.4c0-0.99-0.81-1.8-1.8-1.8s-1.8 0.81-1.8 1.8 0.81 1.8 1.8 1.8 1.8-0.81 1.8-1.8zM11.7 9.9c0 0 0-5.4 2.7-5.4v9c0 0.495-0.405 0.9-0.9 0.9h-9c-0.495 0-0.9-0.405-0.9-0.9v-6.3c1.8 0 2.7 3.6 2.7 3.6s0.9-2.7 2.7-2.7 2.7 1.8 2.7 1.8z"></path>
</svg>
