<!-- Generated by IcoMoon.io -->
<svg version="1.1" xmlns="http://www.w3.org/2000/svg" width="18" height="18" viewBox="0 0 18 18">
<title>format-audio</title>
<path d="M6.291 2.772l9.918-1.8c0.495-0.072 0.891 0.405 0.891 0.9v11.178c0 1.746-1.413 3.15-3.15 3.15s-3.15-1.404-3.15-3.15c0-1.737 1.413-3.15 3.15-3.15 0.486 0 0.936 0.126 1.35 0.315v-5.643l-8.1 1.8v8.028c-0.216 1.53-1.566 2.7-3.15 2.7-1.737 0-3.15-1.404-3.15-3.15 0-1.737 1.413-3.15 3.15-3.15 0.486 0 0.936 0.126 1.35 0.315v-7.443c0-0.495 0.396-0.819 0.891-0.9z"/>
</svg>
