<!-- Generated by IcoMoon.io -->
<svg version="1.1" xmlns="http://www.w3.org/2000/svg" width="18" height="18" viewBox="0 0 18 18">
<title>format-gallery</title>
<path d="M14.4 3.6h1.764c0.513 0 0.936 0.423 0.936 0.936v11.628c0 0.513-0.423 0.936-0.936 0.936h-11.628c-0.513 0-0.936-0.423-0.936-0.936v-1.764h-1.764c-0.513 0-0.936-0.423-0.936-0.936v-11.628c0-0.513 0.423-0.936 0.936-0.936h11.628c0.513 0 0.936 0.423 0.936 0.936v1.764zM2.7 12.6h9.9v-9.9h-9.9v9.9zM7.2 4.95c0-0.747-0.603-1.35-1.35-1.35s-1.35 0.603-1.35 1.35 0.603 1.35 1.35 1.35 1.35-0.603 1.35-1.35zM9 9c0 0 0.9-4.5 2.7-4.5v7.2h-8.1v-5.4c1.8 0 1.8 2.7 1.8 2.7s0.297-1.8 1.8-1.8 1.8 1.8 1.8 1.8zM15.3 15.3v-9.9h-0.9v8.064c0 0.513-0.423 0.936-0.936 0.936h-8.064v0.9h9.9z"/>
</svg>
