<!-- Generated by IcoMoon.io -->
<svg version="1.1" xmlns="http://www.w3.org/2000/svg" width="18" height="18" viewBox="0 0 18 18">
<title>googleplus</title>
<path d="M6.057 9h4.86c0.045 0.261 0.081 0.513 0.081 0.855 0 2.943-1.971 5.040-4.941 5.040-2.853 0-5.157-2.313-5.157-5.157 0-2.853 2.304-5.157 5.157-5.157 1.386 0 2.556 0.513 3.447 1.35l-1.395 1.35c-0.387-0.369-1.053-0.801-2.052-0.801-1.764 0-3.195 1.458-3.195 3.258 0 1.791 1.431 3.249 3.195 3.249 2.034 0 2.799-1.458 2.916-2.223h-2.916v-1.764zM17.1 9v1.476h-1.476v1.467h-1.467v-1.467h-1.476v-1.476h1.476v-1.476h1.467v1.476h1.476z"/>
</svg>
