<!-- Generated by IcoMoon.io -->
<svg version="1.1" xmlns="http://www.w3.org/2000/svg" width="18" height="18" viewBox="0 0 18 18">
<title>groups</title>
<path d="M7.227 4.014c-0.261 1.152 0.495 3.114 1.773 3.114 1.269 0 2.025-1.962 1.764-3.114-0.198-0.882-0.972-1.467-1.764-1.467-0.801 0-1.566 0.585-1.773 1.467zM3.51 4.824c-0.225 0.972 0.423 2.637 1.503 2.637s1.728-1.665 1.503-2.637c-0.171-0.747-0.828-1.251-1.503-1.251s-1.332 0.504-1.503 1.251zM11.484 4.824c-0.225 0.972 0.423 2.637 1.494 2.637 1.080 0 1.728-1.665 1.503-2.637-0.171-0.747-0.828-1.251-1.503-1.251-0.666 0-1.323 0.504-1.494 1.251zM10.953 15.111l1.125-3.87c0.702-2.241-0.639-3.618-3.078-3.618-2.448 0-3.789 1.377-3.096 3.618l1.134 3.87c0.207 0.648 1.062 1.089 1.962 1.089 0.882 0 1.746-0.441 1.953-1.089zM5.463 8.244c-0.441 0.603-0.864 1.647-0.378 3.231l1.008 3.411c-0.306 0.18-0.693 0.279-1.080 0.279-0.765 0-1.485-0.369-1.665-0.927l-0.963-3.285c-0.585-1.899 0.549-3.060 2.628-3.060 0.243 0 0.486 0.018 0.711 0.054-0.090 0.090-0.18 0.198-0.261 0.297zM12.978 7.893c2.079 0 3.222 1.161 2.628 3.060l-0.963 3.285c-0.18 0.558-0.9 0.927-1.665 0.927-0.387 0-0.774-0.099-1.080-0.279l0.999-3.393c0.495-1.602 0.072-2.646-0.378-3.249-0.072-0.099-0.162-0.207-0.252-0.297 0.225-0.036 0.459-0.054 0.711-0.054z"></path>
</svg>
