<!-- Generated by IcoMoon.io -->
<svg version="1.1" xmlns="http://www.w3.org/2000/svg" width="18" height="18" viewBox="0 0 18 18">
<title>hidden</title>
<path d="M15.48 2.97l0.144 0.153c0.351 0.351 0.351 0.918 0 1.269l-11.529 11.538c-0.351 0.351-0.927 0.351-1.269 0l-0.153-0.153c-0.351-0.351-0.351-0.918 0-1.269l1.431-1.44c-1.413-0.9-2.484-2.070-3.204-3.537 0.729-1.485 1.827-2.682 3.276-3.591s3.060-1.359 4.824-1.359c1.080 0 2.097 0.189 3.060 0.54l2.142-2.151c0.351-0.351 0.927-0.351 1.278 0zM9.099 6.579c-0.207 0.225-0.306 0.486-0.306 0.792 0 0.279 0.108 0.522 0.279 0.729l1.62-1.611c-0.117-0.108-0.252-0.189-0.405-0.234-0.099-0.009-0.252-0.027-0.441-0.036-0.297 0.027-0.54 0.144-0.747 0.36zM2.16 9.531c0.621 1.107 1.539 2.025 2.745 2.745l1.152-1.152c-0.459-0.621-0.693-1.323-0.693-2.124 0-0.954 0.324-1.782 0.981-2.484-0.936 0.243-1.764 0.63-2.484 1.134-0.72 0.522-1.287 1.143-1.701 1.881zM14.058 7.614l0.864-0.864c0.918 0.774 1.647 1.701 2.178 2.781-0.729 1.485-1.827 2.682-3.276 3.591s-3.060 1.359-4.824 1.359c-0.567 0-1.116-0.063-1.647-0.162l0.963-0.963c0.225 0.018 0.45 0.045 0.684 0.045 1.467 0 2.817-0.36 4.050-1.089s2.16-1.656 2.79-2.781c-0.414-0.738-0.981-1.359-1.701-1.881-0.027-0.009-0.054-0.027-0.081-0.036zM9.036 12.636l3.6-3.6c-0.009 0.99-0.369 1.836-1.062 2.529-0.702 0.702-1.548 1.062-2.538 1.071z"/>
</svg>
