<!-- Generated by IcoMoon.io -->
<svg version="1.1" xmlns="http://www.w3.org/2000/svg" width="18" height="18" viewBox="0 0 18 18">
<title>id-alt</title>
<path d="M16.2 16.2h-14.4v-14.4h14.4v14.4zM7.245 6.777c0.117-0.063 0.216-0.135 0.297-0.216 0.081-0.090 0.153-0.189 0.216-0.306 0.063-0.126 0.117-0.234 0.153-0.333s0.063-0.198 0.090-0.306l0.054-0.216c0-0.036 0.009-0.063 0.009-0.081 0.045-0.288 0.027-0.549-0.036-0.81-0.072-0.252-0.207-0.468-0.414-0.648-0.207-0.171-0.459-0.261-0.774-0.261-0.18 0-0.351 0.036-0.504 0.099-0.153 0.072-0.279 0.162-0.369 0.27-0.099 0.117-0.18 0.243-0.243 0.396-0.063 0.144-0.099 0.297-0.108 0.459s0 0.324 0.009 0.495l0.018 0.081c0.009 0.054 0.027 0.135 0.054 0.225s0.054 0.189 0.090 0.297 0.090 0.225 0.153 0.333c0.072 0.108 0.144 0.207 0.225 0.297s0.18 0.171 0.306 0.225c0.117 0.054 0.252 0.081 0.387 0.081s0.27-0.027 0.387-0.081zM14.4 4.5v-0.9h-4.5v0.9h4.5zM14.4 6.3v-0.9h-4.5v0.9h4.5zM6.858 7.947l-1.242-0.792c-0.369 0-0.711 0.099-1.026 0.288-0.315 0.198-0.558 0.45-0.729 0.765-0.171 0.306-0.261 0.63-0.261 0.963v1.125l0.18 0.045c0.117 0.036 0.279 0.081 0.495 0.126 0.216 0.054 0.459 0.108 0.72 0.153 0.261 0.054 0.558 0.090 0.9 0.126 0.333 0.036 0.657 0.054 0.963 0.054s0.621-0.018 0.963-0.054 0.63-0.081 0.882-0.126c0.243-0.045 0.486-0.090 0.738-0.153 0.243-0.054 0.405-0.099 0.486-0.117 0.081-0.027 0.144-0.045 0.189-0.054v-1.125c0-0.324-0.090-0.648-0.279-0.963s-0.441-0.576-0.756-0.774-0.648-0.297-0.999-0.297zM14.4 8.1v-0.9h-2.7v0.9h2.7zM14.4 9.9v-0.9h-2.7v0.9h2.7zM14.4 12.6v-0.9h-10.8v0.9h10.8zM14.4 14.4v-0.9h-10.8v0.9h10.8z"/>
</svg>
