<!-- Generated by IcoMoon.io -->
<svg version="1.1" xmlns="http://www.w3.org/2000/svg" width="18" height="18" viewBox="0 0 18 18">
<title>image-filter</title>
<path d="M12.6 5.283c0-1.98-1.611-3.6-3.6-3.6s-3.6 1.62-3.6 3.6c0 1.989 1.611 3.6 3.6 3.6s3.6-1.611 3.6-3.6zM2.916 9.594c-1.728 0.99-2.313 3.195-1.323 4.914 0.999 1.728 3.195 2.313 4.923 1.323 1.719-0.999 2.313-3.195 1.314-4.923-0.99-1.719-3.195-2.304-4.914-1.314zM11.484 15.831c1.728 0.99 3.924 0.405 4.923-1.314 0.99-1.728 0.405-3.924-1.323-4.923-1.719-0.99-3.924-0.405-4.914 1.314-0.999 1.728-0.405 3.924 1.314 4.923z"></path>
</svg>
