<!-- Generated by IcoMoon.io -->
<svg version="1.1" xmlns="http://www.w3.org/2000/svg" width="18" height="18" viewBox="0 0 18 18">
<title>images-alt</title>
<path d="M3.6 13.5v-2.7h-1.8v-9h10.8v2.7h1.8v2.7h1.8v9h-10.8v-2.7h-1.8zM9.9 2.7c-0.99 0-1.8 0.81-1.8 1.8h3.6c0-0.99-0.801-1.8-1.8-1.8zM3.6 9.9v-4.5h-0.9v4.5h0.9zM9.9 7.2h3.6c0-0.99-0.801-1.8-1.8-1.8-0.99 0-1.8 0.81-1.8 1.8zM5.4 12.6v-4.5h-0.9v4.5h0.9zM13.5 11.7c0.99 0 1.8-0.801 1.8-1.8 0-0.99-0.81-1.8-1.8-1.8s-1.8 0.81-1.8 1.8c0 0.999 0.81 1.8 1.8 1.8zM15.3 15.3v-1.8c-4.5 0-4.5-2.7-9-2.7v4.5h9z"></path>
</svg>
