<!-- Generated by IcoMoon.io -->
<svg version="1.1" xmlns="http://www.w3.org/2000/svg" width="18" height="18" viewBox="0 0 18 18">
<title>lightbulb</title>
<path d="M9 0.9c2.799 0 5.067 2.268 5.067 5.058 0 1.656-1.827 4.122-1.827 4.122-0.297 0.396-0.54 1.125-0.54 1.62v0.9c0 0.495-0.405 0.9-0.9 0.9h-3.6c-0.495 0-0.9-0.405-0.9-0.9v-0.9c0-0.495-0.243-1.224-0.54-1.62 0 0-1.818-2.466-1.818-4.122 0-2.79 2.259-5.058 5.058-5.058zM6.3 15.183v-0.783h5.4v0.783c0 0.558-0.117 1.017-0.675 1.017h-0.225c0 0.558-0.36 0.9-0.918 0.9h-1.8c-0.549 0-0.882-0.342-0.882-0.9h-0.225c-0.558 0-0.675-0.459-0.675-1.017z"/>
</svg>
