<!-- Generated by IcoMoon.io -->
<svg version="1.1" xmlns="http://www.w3.org/2000/svg" width="18" height="18" viewBox="0 0 18 18">
<title>location-alt</title>
<path d="M11.7 11.826l1.053-5.346c0.711-0.387 1.197-1.125 1.197-1.98 0-1.242-1.008-2.25-2.25-2.25s-2.25 1.008-2.25 2.25c0 0.855 0.486 1.593 1.197 1.98zM11.7 3.15c0.747 0 1.35 0.603 1.35 1.35s-0.603 1.35-1.35 1.35-1.35-0.603-1.35-1.35 0.603-1.35 1.35-1.35zM13.248 7.47l2.952-1.197v8.1l-4.392 1.827-5.508-1.827-4.5 1.8v-8.1l4.5-1.8 3.843 1.269 1.557 6.57z"></path>
</svg>
