<!-- Generated by IcoMoon.io -->
<svg version="1.1" xmlns="http://www.w3.org/2000/svg" width="18" height="18" viewBox="0 0 18 18">
<title>location</title>
<path d="M9 1.8c-2.979 0-5.4 2.421-5.4 5.4 0 1.818 1.053 3.339 2.277 4.401 0.387 0.333 1.062 0.864 1.665 1.647 0.666 0.873 1.269 1.809 1.458 2.439 0.189-0.63 0.792-1.566 1.458-2.439 0.603-0.783 1.278-1.314 1.665-1.647 1.224-1.062 2.277-2.583 2.277-4.401 0-2.979-2.421-5.4-5.4-5.4zM9 4.104c1.71 0 3.096 1.386 3.096 3.096s-1.386 3.096-3.096 3.096-3.096-1.386-3.096-3.096 1.386-3.096 3.096-3.096z"></path>
</svg>
