<!-- Generated by IcoMoon.io -->
<svg version="1.1" xmlns="http://www.w3.org/2000/svg" width="18" height="18" viewBox="0 0 18 18">
<title>lock</title>
<path d="M12.6 8.1h0.9c0.495 0 0.9 0.405 0.9 0.9v6.3c0 0.495-0.405 0.9-0.9 0.9h-9c-0.495 0-0.9-0.405-0.9-0.9v-6.3c0-0.495 0.405-0.9 0.9-0.9h0.9v-2.7c0-1.989 1.611-3.6 3.6-3.6s3.6 1.611 3.6 3.6v2.7zM10.8 8.1v-2.7c0-0.99-0.81-1.8-1.8-1.8s-1.8 0.81-1.8 1.8v2.7h3.6zM9.9 14.4l-0.324-1.935c0.459-0.216 0.774-0.675 0.774-1.215 0-0.747-0.603-1.35-1.35-1.35s-1.35 0.603-1.35 1.35c0 0.54 0.315 0.999 0.774 1.215l-0.324 1.935h1.8z"/>
</svg>
