<!-- Generated by IcoMoon.io -->
<svg version="1.1" xmlns="http://www.w3.org/2000/svg" width="18" height="18" viewBox="0 0 18 18">
<title>media-video</title>
<path d="M10.8 1.8l3.6 3.6v10.8h-10.8v-14.4h7.2zM10.8 5.4h2.7l-2.7-2.7v2.7zM9.9 12.6v-2.7c0-0.243-0.090-0.459-0.261-0.639-0.18-0.171-0.396-0.261-0.639-0.261h-2.7c-0.243 0-0.459 0.090-0.639 0.261-0.171 0.18-0.261 0.396-0.261 0.639v2.7c0 0.243 0.090 0.459 0.261 0.639 0.18 0.171 0.396 0.261 0.639 0.261h2.7c0.243 0 0.459-0.090 0.639-0.261 0.171-0.18 0.261-0.396 0.261-0.639zM12.6 13.5v-4.5l-1.8 1.8v0.9z"/>
</svg>
