<!-- Generated by IcoMoon.io -->
<svg version="1.1" xmlns="http://www.w3.org/2000/svg" width="18" height="18" viewBox="0 0 18 18">
<title>media-archive</title>
<path d="M10.8 1.8l3.6 3.6v10.8h-10.8v-14.4h7.2zM10.8 5.4h2.7l-2.7-2.7v2.7zM7.2 3.15v1.8l1.62-0.9zM9.9 4.5l-1.62 0.9 1.62 0.9v-1.8zM7.2 5.85v1.8l1.62-0.9zM9.9 7.2l-1.62 0.9 1.62 0.9v-1.8zM7.2 8.55v1.8l1.62-0.9zM9.9 9.9l-1.62 0.9 1.62 0.9v-1.8zM8.55 15.3c0.747 0 1.458-0.648 1.35-1.467-0.045-0.342-0.441-1.449-0.441-1.449l-1.791-0.99s-0.405 1.755-0.468 2.439c-0.063 0.693 0.603 1.467 1.35 1.467zM8.55 13.149c0.378 0 0.684 0.306 0.684 0.684 0 0.387-0.306 0.693-0.684 0.693s-0.684-0.306-0.684-0.693c0-0.378 0.306-0.684 0.684-0.684z"></path>
</svg>
