<!-- Generated by IcoMoon.io -->
<svg version="1.1" xmlns="http://www.w3.org/2000/svg" width="18" height="18" viewBox="0 0 18 18">
<title>media-spreadsheet</title>
<path d="M10.8 1.8l3.6 3.6v10.8h-10.8v-14.4h7.2zM9.9 5.4v-2.7h-5.4v2.7h5.4zM7.2 7.2v-0.9h-2.7v0.9h2.7zM9.9 7.2v-0.9h-1.8v0.9h1.8zM13.5 7.2v-0.9h-2.7v0.9h2.7zM7.2 9v-0.9h-2.7v0.9h2.7zM9.9 9v-0.9h-1.8v0.9h1.8zM13.5 9v-0.9h-2.7v0.9h2.7zM7.2 10.8v-0.9h-2.7v0.9h2.7zM9.9 10.8v-0.9h-1.8v0.9h1.8zM13.5 10.8v-0.9h-2.7v0.9h2.7zM7.2 12.6v-0.9h-2.7v0.9h2.7zM9.9 12.6v-0.9h-1.8v0.9h1.8zM13.5 12.6v-0.9h-2.7v0.9h2.7zM7.2 14.4v-0.9h-2.7v0.9h2.7zM9.9 14.4v-0.9h-1.8v0.9h1.8z"></path>
</svg>
