<!-- Generated by IcoMoon.io -->
<svg version="1.1" xmlns="http://www.w3.org/2000/svg" width="18" height="18" viewBox="0 0 18 18">
<title>media-audio</title>
<path d="M10.8 1.8l3.6 3.6v10.8h-10.8v-14.4h7.2zM10.8 5.4h2.7l-2.7-2.7v2.7zM11.7 11.934v-4.653c0-0.099-0.036-0.189-0.108-0.261-0.063-0.072-0.144-0.099-0.243-0.090 0 0-3.573 0.639-3.825 0.702-0.261 0.054-0.324 0.288-0.324 0.468v3.033c-0.18-0.081-0.378-0.063-0.54-0.063-0.342 0-0.63 0.117-0.864 0.351-0.234 0.243-0.36 0.522-0.36 0.864 0 0.333 0.126 0.621 0.36 0.855 0.234 0.243 0.522 0.36 0.864 0.36 0.306 0 0.63-0.036 0.864-0.234 0.234-0.207 0.576-0.585 0.576-1.008v-2.988l2.7-0.54v2.070c-0.603-0.18-1.053 0.036-1.296 0.279-0.234 0.234-0.351 0.522-0.351 0.855 0 0.342 0.117 0.621 0.351 0.864 0.243 0.234 0.639 0.351 0.972 0.351 0.342 0 0.63-0.117 0.864-0.351 0.234-0.243 0.36-0.522 0.36-0.864z"/>
</svg>
