<!-- Generated by IcoMoon.io -->
<svg version="1.1" xmlns="http://www.w3.org/2000/svg" width="18" height="18" viewBox="0 0 18 18">
<title>megaphone</title>
<path d="M16.335 5.346c0.414 1.458 0.342 2.898-0.018 4.032-0.378 1.152-1.134 1.962-2.070 2.232-0.144 0.054-0.234 0.054-0.36 0.054-0.054 0.018-0.108 0.018-0.162 0.018-0.054 0.018-0.126 0.018-0.198 0.018h-6.12l1.998 4.95c0.018 0.126-0.054 0.234-0.126 0.306-0.072 0.090-0.216 0.144-0.306 0.144h-2.718c-0.090 0-0.234-0.054-0.306-0.144-0.072-0.072-0.144-0.18-0.126-0.306l-0.9-4.95h-1.098l-0.018-0.018c-0.45 0.054-0.972-0.162-1.386-0.558s-0.792-0.972-0.954-1.692c-0.216-0.72-0.18-1.404-0.018-1.98 0.162-0.558 0.522-0.972 0.954-1.17l0.018-0.018 8.1-4.86c0.090-0.054 0.162-0.090 0.216-0.144 0.054-0.036 0.126-0.072 0.216-0.108 0.144-0.072 0.252-0.108 0.45-0.162 0.936-0.27 2.016 0.090 2.898 0.882s1.656 2.016 2.034 3.474zM14.013 10.728h-0.018c0.36-0.090 0.666-0.306 0.936-0.63 0.522-0.63 0.774-1.584 0.774-2.736 0-0.576-0.090-1.17-0.252-1.782-0.306-1.224-0.918-2.25-1.602-2.916s-1.512-0.99-2.214-0.792c-0.738 0.198-1.26 0.864-1.53 1.8-0.288 0.936-0.252 2.124 0.054 3.348 0.342 1.224 0.9 2.25 1.62 2.916 0.702 0.666 1.458 0.99 2.232 0.792zM11.727 4.356c0.198-0.036 0.378-0.018 0.558 0.036 0.342 0.144 0.684 0.432 0.918 0.9s0.378 1.080 0.378 1.602c0 0.27-0.036 0.504-0.108 0.72-0.162 0.432-0.396 0.756-0.774 0.846-0.306 0.090-0.72-0.054-1.026-0.36s-0.576-0.774-0.702-1.35c-0.162-0.558-0.108-1.116 0.018-1.548s0.432-0.756 0.738-0.846z"/>
</svg>
