<!-- Generated by IcoMoon.io -->
<svg version="1.1" xmlns="http://www.w3.org/2000/svg" width="18" height="18" viewBox="0 0 18 18">
<title>microphone</title>
<path d="M10.8 8.1v-5.4c0-0.99-0.801-1.8-1.8-1.8-1.008 0-1.8 0.846-1.8 1.8v5.4c0 0.99 0.81 1.8 1.8 1.8 1.017 0 1.8-0.846 1.8-1.8zM14.4 8.1c0 2.673-1.944 4.887-4.5 5.319v1.881h1.8c0.504 0 0.9 0.405 0.9 0.9s-0.396 0.9-0.9 0.9h-5.4c-0.495 0-0.9-0.405-0.9-0.9s0.405-0.9 0.9-0.9h1.8v-1.881c-2.547-0.432-4.5-2.646-4.5-5.319 0-0.495 0.405-0.9 0.9-0.9 0.504 0 0.9 0.405 0.9 0.9 0 1.989 1.62 3.6 3.6 3.6 1.989 0 3.6-1.611 3.6-3.6 0-0.495 0.405-0.9 0.9-0.9 0.504 0 0.9 0.405 0.9 0.9z"/>
</svg>
