<!-- Generated by IcoMoon.io -->
<svg version="1.1" xmlns="http://www.w3.org/2000/svg" width="18" height="18" viewBox="0 0 18 18">
<title>money</title>
<path d="M0 2.7h18v10.8h-0.675c0-1.611-1.314-2.925-2.925-2.925-1.179 0-2.178 0.711-2.646 1.719-0.225-0.090-0.468-0.144-0.729-0.144-0.882 0-1.62 0.567-1.899 1.35h-9.126v-10.8zM7.533 5.499c-0.054 0.135-0.090 0.279-0.099 0.423s-0.009 0.297 0.009 0.45l0.018 0.072c0.009 0.054 0.018 0.126 0.045 0.207 0.018 0.090 0.054 0.18 0.090 0.279 0.027 0.099 0.081 0.198 0.135 0.297 0.063 0.108 0.135 0.198 0.207 0.279s0.162 0.153 0.279 0.207c0.108 0.054 0.225 0.081 0.36 0.081 0.126 0 0.243-0.027 0.351-0.081s0.198-0.126 0.27-0.198c0.081-0.081 0.144-0.18 0.198-0.288 0.063-0.108 0.108-0.207 0.144-0.297s0.063-0.18 0.081-0.279c0.027-0.099 0.036-0.162 0.045-0.198s0.009-0.063 0.009-0.081c0.045-0.261 0.027-0.504-0.036-0.738s-0.189-0.432-0.369-0.594c-0.189-0.162-0.423-0.243-0.711-0.243-0.171 0-0.324 0.027-0.468 0.090-0.135 0.063-0.252 0.144-0.342 0.252-0.081 0.099-0.153 0.225-0.216 0.36zM11.565 10.935v-1.026c0-0.297-0.090-0.594-0.261-0.882s-0.405-0.531-0.693-0.711c-0.288-0.189-0.594-0.279-0.918-0.279l-1.116 0.756-1.152-0.738c-0.333 0-0.648 0.090-0.936 0.27-0.279 0.18-0.504 0.414-0.666 0.693-0.162 0.288-0.243 0.585-0.243 0.891v1.026l0.162 0.045c0.108 0.036 0.261 0.072 0.459 0.126 0.207 0.045 0.423 0.090 0.666 0.135 0.234 0.045 0.513 0.081 0.819 0.117 0.306 0.027 0.603 0.045 0.891 0.045 0.27 0 0.567-0.018 0.882-0.045 0.306-0.036 0.576-0.072 0.801-0.117 0.225-0.036 0.45-0.090 0.684-0.144l0.45-0.108c0.072-0.018 0.126-0.036 0.171-0.054zM14.4 11.025c1.368 0 2.475 1.107 2.475 2.475s-1.107 2.475-2.475 2.475c-0.657 0-1.242-0.27-1.683-0.693 0.207-0.315 0.333-0.702 0.333-1.107 0-0.693-0.351-1.314-0.891-1.674 0.387-0.864 1.233-1.476 2.241-1.476zM9.45 14.175c0-0.864 0.711-1.575 1.575-1.575s1.575 0.711 1.575 1.575-0.711 1.575-1.575 1.575-1.575-0.711-1.575-1.575z"></path>
</svg>
