<!-- Generated by IcoMoon.io -->
<svg version="1.1" xmlns="http://www.w3.org/2000/svg" width="18" height="18" viewBox="0 0 18 18">
<title>nametag</title>
<path d="M10.8 4.5v-2.7c0-0.495-0.405-0.9-0.9-0.9h-1.8c-0.495 0-0.9 0.405-0.9 0.9v2.7c0 0.495 0.405 0.9 0.9 0.9h1.8c0.495 0 0.9-0.405 0.9-0.9zM9 1.8c0.495 0 0.9 0.405 0.9 0.9s-0.405 0.9-0.9 0.9-0.9-0.405-0.9-0.9 0.405-0.9 0.9-0.9zM16.2 13.5v-7.2c0-0.99-0.81-1.8-1.8-1.8h-2.7v0.297c0 0.828-0.675 1.503-1.503 1.503h-2.394c-0.828 0-1.503-0.675-1.503-1.503v-0.297h-2.7c-0.99 0-1.8 0.81-1.8 1.8v7.2c0 0.99 0.81 1.8 1.8 1.8h10.8c0.99 0 1.8-0.81 1.8-1.8zM15.3 8.1v5.4h-12.6v-5.4h12.6zM8.1 9.9c0-0.495-0.198-0.9-0.45-0.9s-0.45 0.405-0.45 0.9 0.198 0.9 0.45 0.9 0.45-0.405 0.45-0.9zM10.8 9.9c0-0.495-0.198-0.9-0.45-0.9s-0.45 0.405-0.45 0.9 0.198 0.9 0.45 0.9 0.45-0.405 0.45-0.9zM5.436 10.989c0.828 0.432 2.106 0.711 3.564 0.711s2.736-0.279 3.564-0.711c-0.189 0.9-1.701 1.611-3.564 1.611s-3.375-0.711-3.564-1.611z"></path>
</svg>
