<!-- Generated by IcoMoon.io -->
<svg version="1.1" xmlns="http://www.w3.org/2000/svg" width="18" height="18" viewBox="0 0 18 18">
<title>networking</title>
<path d="M16.2 11.7h0.9c0.495 0 0.9 0.405 0.9 0.909v2.682c0 0.504-0.405 0.909-0.9 0.909h-3.6c-0.495 0-0.9-0.405-0.9-0.909v-2.682c0-0.504 0.405-0.909 0.9-0.909h0.9v-1.8h-4.5v1.8h0.9c0.495 0 0.9 0.405 0.9 0.909v2.682c0 0.504-0.405 0.909-0.9 0.909h-3.6c-0.495 0-0.9-0.405-0.9-0.909v-2.682c0-0.504 0.405-0.909 0.9-0.909h0.9v-1.8h-4.5v1.8h0.9c0.495 0 0.9 0.405 0.9 0.909v2.682c0 0.504-0.405 0.909-0.9 0.909h-3.6c-0.495 0-0.9-0.405-0.9-0.909v-2.682c0-0.504 0.405-0.909 0.9-0.909h0.9v-1.8c0-0.99 0.81-1.8 1.8-1.8h4.5v-1.8h-0.9c-0.495 0-0.9-0.405-0.9-0.909v-2.682c0-0.504 0.405-0.909 0.9-0.909h3.6c0.495 0 0.9 0.405 0.9 0.909v2.682c0 0.504-0.405 0.909-0.9 0.909h-0.9v1.8h4.5c0.99 0 1.8 0.81 1.8 1.8v1.8z"></path>
</svg>
