<!-- Generated by IcoMoon.io -->
<svg version="1.1" xmlns="http://www.w3.org/2000/svg" width="18" height="18" viewBox="0 0 18 18">
<title>palmtree</title>
<path d="M7.722 2.151c0.288 0 0.531 0.045 0.729 0.126 1.125 0.495 1.521 2.016 1.53 3.573 0.531-0.738 1.935-2.061 3.069-2.061s2.646 0.657 3.177 3.195c-1.017-0.585-2.178-0.846-3.285-0.846-1.134 0-2.205 0.288-2.961 0.801 0.36-0.099 0.774-0.144 1.197-0.144 1.251 0 2.61 0.405 3.060 1.179 0.612 1.044 0.423 3.042-0.684 3.726-0.126-1.89-1.521-3.708-3.123-3.708-0.396 0-0.792 0.108-1.197 0.342-2.034 1.224-2.934 4.77-2.934 8.766h-4.5c0-4.977 3.789-8.685 6.912-9.711-0.504-0.081-1.053-0.135-1.638-0.135-1.584 0-3.429 0.396-5.274 1.746 0.684-2.664 2.502-3.69 4.221-3.69 1.125 0 2.205 0.45 2.88 1.161-0.594-2.016-2.241-2.574-3.672-2.574-0.72 0-1.395 0.144-1.845 0.315 0.819-1.161 2.979-2.061 4.338-2.061zM11.7 10.35c0-0.747-0.603-1.35-1.35-1.35s-1.35 0.603-1.35 1.35 0.603 1.35 1.35 1.35 1.35-0.603 1.35-1.35z"></path>
</svg>
