<!-- Generated by IcoMoon.io -->
<svg version="1.1" xmlns="http://www.w3.org/2000/svg" width="18" height="18" viewBox="0 0 18 18">
<title>paperclip</title>
<path d="M15.345 2.43c1.737 1.746 1.737 4.617 0 6.363l-6.345 6.363c-1.692 1.701-4.419 1.737-6.174 0.135-0.054-0.045-0.117-0.081-0.171-0.135-1.737-1.746-1.737-4.608 0-6.363l4.446-4.455c0.819-0.828 2.052-0.99 3.051-0.522 0.27 0.135 0.531 0.297 0.747 0.522 1.053 1.053 1.053 2.763 0 3.816l-4.437 4.455c-0.351 0.351-0.918 0.351-1.269 0s-0.351-0.918 0-1.269l4.437-4.455c0.351-0.351 0.351-0.918 0-1.269-0.342-0.351-0.918-0.351-1.26 0l-4.446 4.455c-0.819 0.828-0.99 2.061-0.513 3.060 0.126 0.27 0.288 0.531 0.513 0.756s0.486 0.387 0.756 0.513c0.999 0.477 2.223 0.315 3.051-0.513l6.345-6.363c1.044-1.053 1.044-2.772 0-3.825-0.504-0.495-1.152-0.747-1.8-0.774-0.072 0.009-0.144 0.009-0.216 0-0.198-0.027-0.387-0.099-0.54-0.243-0.351-0.36-0.342-0.945 0.018-1.305 0.144-0.144 0.324-0.216 0.504-0.252 0.126-0.018 0.243-0.009 0.36 0.018 1.071 0.054 2.124 0.468 2.943 1.287z"></path>
</svg>
