<!-- Generated by IcoMoon.io -->
<svg version="1.1" xmlns="http://www.w3.org/2000/svg" width="18" height="18" viewBox="0 0 18 18">
<title>performance</title>
<path d="M3.384 15.309h11.232c0.99-1.242 1.584-2.799 1.584-4.509 0-3.969-3.222-7.2-7.2-7.2s-7.2 3.231-7.2 7.2c0 1.71 0.594 3.267 1.584 4.509zM8.1 5.4c0-0.495 0.405-0.9 0.9-0.9s0.9 0.405 0.9 0.9c0 0.504-0.405 0.9-0.9 0.9s-0.9-0.396-0.9-0.9zM3.6 7.2c0-0.495 0.405-0.9 0.9-0.9s0.9 0.405 0.9 0.9c0 0.504-0.405 0.9-0.9 0.9s-0.9-0.396-0.9-0.9zM7.668 10.26c0.756-0.747 5.859-3.15 5.859-3.15s-2.394 5.112-3.141 5.859c-0.756 0.756-1.962 0.756-2.718 0-0.747-0.747-0.747-1.962 0-2.709zM2.7 11.7c0-0.495 0.405-0.9 0.9-0.9s0.9 0.405 0.9 0.9c0 0.504-0.405 0.9-0.9 0.9s-0.9-0.396-0.9-0.9zM8.1 11.7c0-0.495 0.405-0.9 0.9-0.9s0.9 0.405 0.9 0.9c0 0.504-0.405 0.9-0.9 0.9s-0.9-0.396-0.9-0.9zM13.5 11.7c0-0.495 0.405-0.9 0.9-0.9s0.9 0.405 0.9 0.9c0 0.504-0.405 0.9-0.9 0.9s-0.9-0.396-0.9-0.9z"/>
</svg>
