<!-- Generated by IcoMoon.io -->
<svg version="1.1" xmlns="http://www.w3.org/2000/svg" width="18" height="18" viewBox="0 0 18 18">
<title>phone</title>
<path d="M10.854 5.4l-0.189-0.18c-0.468-0.486-0.387-0.711 0.072-1.17l2.448-2.475c0.729-0.738 0.864-1.089 1.557-0.432l0.189 0.18zM11.331 5.805l3.96-3.96c0.63 0.846 2.106 3.123 1.377 4.806-0.657 1.503-0.981 1.575-1.8 2.7-1.665 1.899-3.762 3.933-5.4 5.463-1.134 0.819-1.179 1.197-2.7 1.8-1.62 0.639-3.96-0.801-4.842-1.404l3.96-3.96 1.062 1.458c0.306 0.414 1.080-0.054 1.62-0.594 0.936-0.945 2.862-2.862 3.6-3.663 0.531-0.531 1.008-1.305 0.594-1.62zM1.413 14.85l-0.189-0.189c-0.612-0.666-0.261-0.81 0.468-1.53l2.466-2.448c0.459-0.441 0.675-0.54 1.143-0.099l0.18 0.189z"></path>
</svg>
