<!-- Generated by IcoMoon.io -->
<svg version="1.1" xmlns="http://www.w3.org/2000/svg" width="18" height="18" viewBox="0 0 18 18">
<title>playlist-audio</title>
<path d="M15.3 2.7v-1.8h-13.5v1.8h13.5zM15.3 6.3v-1.8h-13.5v1.8h13.5zM9 9.9v-1.8h-7.2v1.8h7.2zM15.705 8.136l-5.4 1.008c-0.144 0.018-0.171 0.027-0.261 0.117-0.099 0.081-0.144 0.198-0.144 0.333v4.131c-0.261-0.117-0.594-0.126-0.837-0.126-0.486 0-0.9 0.171-1.242 0.513s-0.504 0.756-0.504 1.242c0 0.477 0.162 0.891 0.504 1.233s0.756 0.513 1.242 0.513c0.441 0 0.828-0.144 1.161-0.432s0.531-0.639 0.585-1.071v-4.455l4.491-0.999v3.132c-0.261-0.117-0.504-0.171-0.747-0.171-0.486 0-0.999 0.171-1.341 0.513-0.342 0.333-0.513 0.747-0.513 1.233s0.171 0.891 0.513 1.233 0.756 0.513 1.242 0.513c0.477 0 0.891-0.171 1.233-0.513s0.513-0.747 0.513-1.233v-6.21c0-0.144-0.045-0.27-0.144-0.369-0.099-0.108-0.216-0.153-0.351-0.135zM7.2 13.5v-1.8h-5.4v1.8h5.4zM5.4 17.1v-1.8h-3.6v1.8h3.6z"/>
</svg>
