<!-- Generated by IcoMoon.io -->
<svg version="1.1" xmlns="http://www.w3.org/2000/svg" width="18" height="18" viewBox="0 0 18 18">
<title>portfolio</title>
<path d="M3.6 4.5h-2.898c-0.333 0-0.666 0.288-0.621 0.756l1.404 8.991s1.665-6.624 1.989-8.217c0.099-0.477 0.549-0.63 0.882-0.63h4.644s-0.63-1.872-0.693-2.079c-0.108-0.396-0.306-0.621-0.702-0.621h-2.979c-0.324 0-0.63 0.207-0.72 0.576-0.081 0.36-0.306 1.224-0.306 1.224zM7.992 4.5h-3.6s0.378-0.9 0.783-0.9h1.917c0.432 0 0.9 0.9 0.9 0.9zM2.403 14.625c-0.279 0.423-0.684 0.675-1.134 0.675h14.157c0.486 0 0.828-0.279 0.927-0.747 0.396-1.971 1.512-7.596 1.512-7.596 0.063-0.45-0.27-0.657-0.558-0.657h-2.907v-1.323c0-0.144-0.234-0.477-0.594-0.477h-3.384c-0.468 0-0.783 0.522-0.783 0.522l-0.639 1.278h-3.969c-0.288 0-0.567 0.171-0.621 0.45 0 0-1.431 6.030-1.548 6.597-0.063 0.333-0.198 0.891-0.459 1.278zM13.842 6.3h-3.942s0.522-0.9 1.017-0.9h2.061c0.639 0 0.864 0.9 0.864 0.9z"/>
</svg>
