<!-- Generated by IcoMoon.io -->
<svg version="1.1" xmlns="http://www.w3.org/2000/svg" width="18" height="18" viewBox="0 0 18 18">
<title>pressthis</title>
<path d="M13.284 0.9c1.611 0 2.916 1.314 2.916 2.925 0 1.602-1.305 2.916-2.916 2.916-0.207 0-0.423-0.027-0.63-0.072l-0.954 0.954v9.477h-9.9v-13.5h8.586c0.117-1.8 1.368-2.7 2.898-2.7zM13.284 5.841c1.116 0 2.016-0.909 2.016-2.016 0-1.116-0.9-2.025-2.016-2.025s-2.016 0.909-2.016 2.025c0 0.333 0.090 0.648 0.243 0.927l-2.898 2.898c-0.252 0.252-1.593 1.998-1.35 2.241 0.018 0.027 0.054 0.036 0.090 0.036 0.441 0 1.926-1.152 2.151-1.377l2.916-2.916c0.261 0.126 0.549 0.207 0.864 0.207z"/>
</svg>
