<!-- Generated by IcoMoon.io -->
<svg version="1.1" xmlns="http://www.w3.org/2000/svg" width="18" height="18" viewBox="0 0 18 18">
<title>products</title>
<path d="M15.3 7.2h0.9v9.9h-14.4v-9.9h0.9v-1.8c0-2.484 2.016-4.5 4.5-4.5 0.639 0 1.251 0.135 1.8 0.378 0.549-0.243 1.161-0.378 1.8-0.378 2.484 0 4.5 2.016 4.5 4.5v1.8zM4.5 5.4v1.8h1.8v-1.8c0-1.017 0.351-1.944 0.918-2.7h-0.018c-1.485 0-2.7 1.215-2.7 2.7zM13.5 7.2v-1.8c0-1.485-1.215-2.7-2.7-2.7h-0.018c0.567 0.756 0.918 1.683 0.918 2.7v1.8h1.8zM9 3.402c-0.549 0.495-0.9 1.206-0.9 1.998v1.8h1.8v-1.8c0-0.792-0.351-1.503-0.9-1.998z"></path>
</svg>
