<!-- Generated by IcoMoon.io -->
<svg version="1.1" xmlns="http://www.w3.org/2000/svg" width="18" height="18" viewBox="0 0 18 18">
<title>rest-api</title>
<path fill="#999" d="M8.1 13.5c0 1.988-1.612 3.6-3.6 3.6s-3.6-1.612-3.6-3.6c0-1.988 1.612-3.6 3.6-3.6s3.6 1.612 3.6 3.6z"/>
<path fill="#999" d="M17.1 3.131c0 1.253-1.007 2.269-2.25 2.269s-2.25-1.016-2.25-2.269c0-1.253 1.007-2.269 2.25-2.269s2.25 1.016 2.25 2.269z"/>
<path fill="#999" d="M17.075 14.387c0 1.484-1.203 2.687-2.687 2.687s-2.687-1.203-2.687-2.687c0-1.484 1.203-2.687 2.687-2.687s2.687 1.203 2.687 2.687z"/>
<path fill="#999" d="M6.3 3.6c0 1.491-1.209 2.7-2.7 2.7s-2.7-1.209-2.7-2.7c0-1.491 1.209-2.7 2.7-2.7s2.7 1.209 2.7 2.7z"/>
<path fill="#999" d="M3.6 13.5h10.8v1.8h-10.8v-1.8z"/>
<path fill="#999" d="M3.973 15.673l-1.273-1.273 11.964-12.336 1.273 1.273z"/>
<path fill="#999" d="M2.7 3.6h1.8v10.8h-1.8v-10.8z"/>
</svg>
