<!-- Generated by IcoMoon.io -->
<svg version="1.1" xmlns="http://www.w3.org/2000/svg" width="18" height="18" viewBox="0 0 18 18">
<title>rss</title>
<path d="M13.428 16.2h2.772c0-7.812-6.462-14.175-14.4-14.175v2.718c6.408 0 11.628 5.139 11.628 11.457zM8.532 16.2h2.772c0-5.157-4.266-9.36-9.504-9.36v2.718c1.8 0 3.483 0.693 4.761 1.944 1.269 1.251 1.971 2.925 1.971 4.698zM3.717 16.182c1.053 0 1.917-0.837 1.917-1.881 0-1.035-0.864-1.881-1.917-1.881-1.062 0-1.917 0.846-1.917 1.881 0 1.044 0.855 1.881 1.917 1.881z"></path>
</svg>
