<!-- Generated by IcoMoon.io -->
<svg version="1.1" xmlns="http://www.w3.org/2000/svg" width="18" height="18" viewBox="0 0 18 18">
<title>search</title>
<path d="M10.926 3.762c1.683 1.683 1.899 4.275 0.648 6.201 0.108 0.090 0.198 0.189 0.324 0.279 0.18 0.144 0.423 0.324 0.729 0.531 0.306 0.216 0.504 0.351 0.594 0.423 0.378 0.279 0.657 0.513 0.846 0.702 0.288 0.288 0.54 0.585 0.756 0.9 0.225 0.315 0.396 0.621 0.531 0.936 0.126 0.315 0.189 0.612 0.162 0.9-0.018 0.288-0.126 0.531-0.324 0.729s-0.441 0.306-0.729 0.324c-0.279 0.018-0.585-0.036-0.891-0.171-0.315-0.126-0.63-0.306-0.936-0.531-0.315-0.216-0.612-0.468-0.9-0.756-0.189-0.189-0.423-0.468-0.693-0.837-0.090-0.117-0.225-0.315-0.423-0.594-0.198-0.288-0.36-0.513-0.504-0.702-0.144-0.18-0.261-0.315-0.396-0.45-1.863 0.981-4.221 0.684-5.796-0.882-1.926-1.935-1.926-5.076 0-7.002 1.935-1.935 5.067-1.935 7.002 0zM9.657 9.486c1.224-1.233 1.224-3.222 0-4.455-1.233-1.233-3.231-1.233-4.455 0-1.233 1.233-1.233 3.222 0 4.455 1.224 1.233 3.222 1.233 4.455 0z"></path>
</svg>
