<!-- Generated by IcoMoon.io -->
<svg version="1.1" xmlns="http://www.w3.org/2000/svg" width="18" height="18" viewBox="0 0 18 18">
<title>share-alt</title>
<path d="M14.598 5.22c0.423 0.621 0.261 1.458-0.36 1.872-0.621 0.423-1.458 0.261-1.872-0.36-0.144-0.216-0.315-0.414-0.495-0.603-0.189-0.18-0.387-0.351-0.603-0.495s-0.45-0.27-0.693-0.369c-0.243-0.108-0.495-0.189-0.756-0.234-0.531-0.117-1.107-0.117-1.638-0.009-0.261 0.054-0.513 0.135-0.756 0.243-0.243 0.099-0.477 0.225-0.693 0.369s-0.414 0.315-0.594 0.495c-0.189 0.189-0.36 0.387-0.504 0.603s-0.27 0.45-0.369 0.684c-0.009 0.018-0.009 0.027-0.009 0.036-0.090 0.216-0.153 0.432-0.207 0.648h-4.149v-2.7h2.394c0.036-0.063 0.063-0.117 0.108-0.18 0.243-0.36 0.513-0.693 0.819-0.999s0.648-0.585 0.999-0.819c0.36-0.243 0.747-0.459 1.152-0.63s0.837-0.306 1.269-0.387c0.891-0.189 1.827-0.189 2.718 0 0.432 0.081 0.864 0.216 1.269 0.387s0.792 0.387 1.152 0.63c0.351 0.234 0.693 0.513 0.999 0.819s0.576 0.639 0.819 0.999zM11.25 9c0-1.242-1.008-2.25-2.25-2.25s-2.25 1.008-2.25 2.25 1.008 2.25 2.25 2.25 2.25-1.008 2.25-2.25zM3.402 12.78c-0.423-0.621-0.261-1.458 0.36-1.881 0.621-0.414 1.458-0.252 1.872 0.369 0.144 0.216 0.315 0.414 0.495 0.603 0.189 0.18 0.387 0.351 0.603 0.495s0.45 0.27 0.693 0.369c0.243 0.108 0.495 0.18 0.756 0.234 0.531 0.117 1.107 0.108 1.638 0 0.261-0.054 0.513-0.126 0.756-0.234 0.243-0.099 0.477-0.225 0.693-0.369s0.414-0.315 0.594-0.495c0.189-0.189 0.36-0.396 0.504-0.603 0.144-0.225 0.27-0.45 0.369-0.684 0.009-0.018 0.009-0.027 0.009-0.036 0.090-0.216 0.153-0.432 0.207-0.648h4.149v2.7h-2.394c-0.036 0.054-0.063 0.117-0.108 0.18-0.243 0.36-0.513 0.693-0.819 0.999s-0.648 0.585-0.999 0.819c-0.36 0.243-0.747 0.459-1.152 0.63s-0.837 0.297-1.269 0.387c-0.891 0.189-1.827 0.189-2.718 0-0.432-0.090-0.864-0.216-1.269-0.387s-0.792-0.387-1.152-0.63c-0.351-0.234-0.693-0.513-0.999-0.819s-0.576-0.639-0.819-0.999z"></path>
</svg>
