<!-- Generated by IcoMoon.io -->
<svg version="1.1" xmlns="http://www.w3.org/2000/svg" width="18" height="18" viewBox="0 0 18 18">
<title>share</title>
<path d="M13.050 10.8c1.494 0 2.7 1.206 2.7 2.7s-1.206 2.7-2.7 2.7-2.7-1.206-2.7-2.7c0-0.216 0.027-0.414 0.081-0.621l-3.942-2.070c-0.495 0.549-1.197 0.891-1.989 0.891-1.494 0-2.7-1.206-2.7-2.7s1.206-2.7 2.7-2.7c0.792 0 1.494 0.351 1.989 0.891l3.942-2.070c-0.054-0.207-0.081-0.405-0.081-0.621 0-1.494 1.206-2.7 2.7-2.7s2.7 1.206 2.7 2.7-1.206 2.7-2.7 2.7c-0.792 0-1.494-0.351-1.989-0.891l-3.942 2.070c0.054 0.207 0.081 0.405 0.081 0.621s-0.027 0.414-0.081 0.621l3.942 2.070c0.495-0.549 1.197-0.891 1.989-0.891z"/>
</svg>
