<!-- Generated by IcoMoon.io -->
<svg version="1.1" xmlns="http://www.w3.org/2000/svg" width="18" height="18" viewBox="0 0 18 18">
<title>smiley</title>
<path d="M6.3 4.68c0.99 0 1.8 0.801 1.8 1.8 0 0.333-0.099 0.639-0.252 0.9 0 0-0.648-0.18-1.548-0.18s-1.548 0.18-1.548 0.18c-0.153-0.261-0.252-0.567-0.252-0.9 0-0.999 0.81-1.8 1.8-1.8zM11.7 4.68c0.999 0 1.8 0.801 1.8 1.8 0 0.333-0.099 0.639-0.252 0.9 0 0-0.648-0.18-1.548-0.18s-1.548 0.18-1.548 0.18c-0.153-0.261-0.252-0.567-0.252-0.9 0-0.999 0.801-1.8 1.8-1.8zM9 17.010c3.348 0 6.327-2.124 7.407-5.292l-1.188-0.414c-0.909 2.664-3.411 4.446-6.219 4.446s-5.31-1.782-6.219-4.446l-1.188 0.414c1.080 3.168 4.059 5.292 7.407 5.292z"></path>
</svg>
