<!-- Generated by IcoMoon.io -->
<svg version="1.1" xmlns="http://www.w3.org/2000/svg" width="18" height="18" viewBox="0 0 18 18">
<title>sos</title>
<path d="M16.2 9c0-3.978-3.222-7.2-7.2-7.2s-7.2 3.222-7.2 7.2 3.222 7.2 7.2 7.2 7.2-3.222 7.2-7.2zM6.507 3.213l1.341 3.357c-0.558 0.261-1.017 0.72-1.278 1.278l-3.357-1.341c0.639-1.476 1.818-2.655 3.294-3.294zM14.787 6.507l-3.357 1.341c-0.261-0.558-0.72-1.017-1.278-1.278l1.341-3.357c1.476 0.639 2.655 1.818 3.294 3.294zM9 10.8c-0.99 0-1.8-0.81-1.8-1.8s0.81-1.8 1.8-1.8 1.8 0.81 1.8 1.8-0.81 1.8-1.8 1.8zM3.213 11.493l3.357-1.341c0.261 0.558 0.72 1.017 1.278 1.278l-1.341 3.357c-1.476-0.639-2.655-1.818-3.294-3.294zM11.493 14.787l-1.341-3.357c0.558-0.261 1.017-0.72 1.278-1.278l3.357 1.341c-0.639 1.476-1.818 2.655-3.294 3.294z"/>
</svg>
