<!-- Generated by IcoMoon.io -->
<svg version="1.1" xmlns="http://www.w3.org/2000/svg" width="18" height="18" viewBox="0 0 18 18">
<title>store</title>
<path d="M0.9 9c0.369 0.261 0.864 0.387 1.35 0.387 0.495 0 0.981-0.126 1.35-0.387 0.558-0.414 0.9-1.053 0.9-1.8 0 0.747 0.333 1.386 0.9 1.8 0.369 0.261 0.864 0.387 1.35 0.387 0.495 0 0.981-0.126 1.35-0.387 0.558-0.414 0.9-1.053 0.9-1.8 0 0.747 0.333 1.386 0.9 1.8 0.369 0.261 0.864 0.387 1.359 0.387 0.486 0 0.972-0.126 1.341-0.387 0.558-0.414 0.9-1.053 0.9-1.8 0 0.747 0.333 1.386 0.9 1.8 0.369 0.261 0.864 0.387 1.35 0.387 0.495 0 0.981-0.126 1.35-0.387 0.567-0.414 0.9-1.053 0.9-1.8v-0.9l-2.7-6.3h-11.7l-3.6 6.3v0.9c0 0.747 0.333 1.386 0.9 1.8zM2.7 17.091h4.5v-4.5h3.6v4.5h4.5v-6.3c-0.333-0.045-0.648-0.198-0.9-0.387-0.567-0.405-0.9-0.657-0.9-1.404 0 0.747-0.342 0.999-0.9 1.404-0.369 0.27-0.855 0.387-1.341 0.396-0.495 0-0.99-0.126-1.359-0.396-0.567-0.405-0.9-0.657-0.9-1.404 0 0.747-0.342 0.999-0.9 1.404-0.369 0.27-0.855 0.387-1.35 0.396-0.486 0-0.981-0.126-1.35-0.396-0.567-0.405-0.9-0.657-0.9-1.413 0 0.756-0.342 1.008-0.9 1.413-0.261 0.189-0.567 0.342-0.9 0.396v6.291z"/>
</svg>
