<!-- Generated by IcoMoon.io -->
<svg version="1.1" xmlns="http://www.w3.org/2000/svg" width="18" height="18" viewBox="0 0 18 18">
<title>testimonial</title>
<path d="M3.6 2.7h10.8c0.495 0 0.918 0.18 1.269 0.531s0.531 0.774 0.531 1.269v6.3c0 0.495-0.18 0.918-0.531 1.269s-0.774 0.531-1.269 0.531h-0.9l-4.5 4.5v-4.5h-5.4c-0.495 0-0.918-0.18-1.269-0.531s-0.531-0.774-0.531-1.269v-6.3c0-0.495 0.18-0.918 0.531-1.269s0.774-0.531 1.269-0.531zM13.5 4.5h-9.9v0.9h9.9v-0.9zM14.4 7.2h-10.8v0.9h10.8v-0.9zM11.7 9.9h-8.1v0.9h8.1v-0.9z"></path>
</svg>
