<!-- Generated by IcoMoon.io -->
<svg version="1.1" xmlns="http://www.w3.org/2000/svg" width="18" height="18" viewBox="0 0 18 18">
<title>thumbs-down</title>
<path d="M6.552 16.2c-0.135 0.018-0.234-0.018-0.369-0.063-0.504-0.171-0.747-0.711-0.594-1.215 0.153-0.495 0.9-2.736 0.9-3.222 0-0.477-0.675-0.9-1.215-0.9h-2.7c-0.54 0-0.9-0.36-0.9-0.9s1.8-6.3 1.8-6.3c0.153-0.351 0.495-0.9 0.9-0.9h8.226v8.1h-1.926c-0.369 0.369-2.97 4.239-3.222 4.743-0.189 0.369-0.54 0.612-0.9 0.657zM16.2 10.8h-1.8v-8.1h1.8v8.1z"/>
</svg>
