<!-- Generated by IcoMoon.io -->
<svg version="1.1" xmlns="http://www.w3.org/2000/svg" width="18" height="18" viewBox="0 0 18 18">
<title>tickets-alt</title>
<path d="M18 5.742l-0.909 2.538v-0.009c-0.468-0.171-0.927-0.144-1.377 0.072s-0.765 0.558-0.936 1.026-0.144 0.927 0.063 1.377c0.216 0.45 0.558 0.756 1.035 0.927v0.009l-0.909 2.538-13.554-4.842 0.891-2.511c0.468 0.171 0.927 0.144 1.377-0.072 0.45-0.207 0.756-0.549 0.927-1.017s0.144-0.927-0.072-1.377c-0.207-0.441-0.549-0.747-1.017-0.918l0.918-2.583zM13.527 10.863l1.233-3.384c0.108-0.279 0.090-0.585-0.036-0.855s-0.351-0.477-0.63-0.585l-6.768-2.457c-0.576-0.207-1.233 0.108-1.44 0.666l-1.233 3.384c-0.216 0.585 0.090 1.233 0.666 1.44l6.768 2.466c0.126 0.045 0.252 0.072 0.387 0.072 0.468 0 0.9-0.297 1.053-0.747zM7.173 4.005l6.759 2.457c0.171 0.063 0.306 0.189 0.387 0.351 0.072 0.162 0.081 0.342 0.018 0.513l-1.233 3.384c-0.117 0.342-0.522 0.531-0.864 0.405l-6.759-2.466c-0.351-0.126-0.531-0.513-0.405-0.864l1.233-3.384c0.090-0.261 0.351-0.441 0.63-0.441 0.081 0 0.153 0.018 0.234 0.045zM13.311 14.931c0.315 0.243 0.675 0.369 1.080 0.369h0.009v2.7h-14.4v-2.664c0.495 0 0.927-0.18 1.269-0.531 0.351-0.342 0.531-0.774 0.531-1.269s-0.18-0.918-0.531-1.269-0.774-0.531-1.269-0.531v-2.736h0.945l-0.252 0.72 2.583 0.918c-0.459 0.144-0.801 0.558-0.801 1.062v3.6c0 0.621 0.504 1.125 1.125 1.125h7.2c0.621 0 1.125-0.504 1.125-1.125v-1.575l0.747 0.27c0.108 0.387 0.324 0.702 0.639 0.936zM2.925 15.3v-3.6c0-0.369 0.306-0.675 0.675-0.675h0.747l7.128 2.547v1.728c0 0.369-0.306 0.675-0.675 0.675h-7.2c-0.369 0-0.675-0.306-0.675-0.675z"></path>
</svg>
