<!-- Generated by IcoMoon.io -->
<svg version="1.1" xmlns="http://www.w3.org/2000/svg" width="18" height="18" viewBox="0 0 18 18">
<title>tickets</title>
<path d="M18 4.842l-0.909 2.538v-0.009c-0.936-0.333-1.971 0.162-2.313 1.098-0.333 0.936 0.153 1.971 1.098 2.304v0.009l-0.909 2.538-13.554-4.842 0.891-2.511c0.936 0.342 1.971-0.153 2.304-1.089s-0.153-1.962-1.089-2.295l0.918-2.583zM13.095 7.875c0.666-1.872-0.306-3.933-2.178-4.608-1.872-0.666-3.933 0.315-4.599 2.178-0.666 1.872 0.306 3.942 2.178 4.608 1.863 0.666 3.933-0.315 4.599-2.178zM10.791 3.609c0.801 0.288 1.413 0.846 1.773 1.539-0.009-0.009-0.018-0.009-0.036-0.018-0.297-0.108-0.603 0.081-0.702 0.36-0.090 0.252-0.027 0.513 0.045 0.819 0.036 0.243 0.081 0.558-0.054 0.936-0.090 0.261-0.297 0.522-0.585 0.9l-0.666 0.909 0.072-3.672 0.36 0.099c0.171 0.036 0.234-0.216 0.072-0.261 0 0-0.513-0.135-0.828-0.252-0.306-0.108-0.792-0.324-0.792-0.324-0.162-0.072-0.27 0.171-0.108 0.243 0 0 0.144 0.072 0.306 0.144l0.009 1.467-1.377 1.764 0.072-3.699c0.18 0.054 0.36 0.099 0.36 0.099 0.171 0.036 0.234-0.207 0.063-0.261 0 0-0.504-0.135-0.819-0.252-0.063-0.018-0.126-0.045-0.198-0.072 0.837-0.63 1.971-0.846 3.033-0.468zM6.66 5.571c0.153-0.441 0.396-0.828 0.702-1.143l0.036 4.5c-0.846-0.855-1.17-2.151-0.738-3.357zM10.296 9.846l1.89-2.367c0.333-0.369 0.513-0.693 0.621-1.008 0.045-0.108 0.072-0.216 0.099-0.315 0.081 0.513 0.036 1.062-0.153 1.593-0.405 1.125-1.359 1.89-2.457 2.097zM9.666 6.948l0.018 2.898c0 0.018 0 0.036 0.009 0.054-0.36 0-0.72-0.063-1.080-0.189-0.297-0.108-0.567-0.252-0.81-0.432zM10.782 12.42l1.89 0.675c0.216 0.756 0.9 1.305 1.719 1.305h0.009v2.7h-14.4v-2.664c0.99 0 1.8-0.801 1.8-1.8 0-0.99-0.81-1.8-1.8-1.8v-2.736h0.945l-0.252 0.72 3.852 1.368c-0.585 0.639-0.945 1.485-0.945 2.412 0 1.989 1.611 3.6 3.6 3.6s3.6-1.611 3.6-3.6c0-0.063-0.018-0.117-0.018-0.18zM4.905 10.323l1.332 0.477c-0.126 0.036-0.135 0.243 0.027 0.252 0 0 0.162 0.018 0.333 0.027l0.504 1.386-0.702 2.124-1.179-3.51c0.189-0.009 0.369-0.027 0.369-0.027 0.171-0.018 0.153-0.279-0.018-0.27 0 0-0.531 0.045-0.864 0.045-0.063 0-0.135 0-0.207-0.009 0.117-0.18 0.252-0.342 0.405-0.495zM3.96 12.6c0-0.468 0.108-0.918 0.288-1.314l1.539 4.23c-1.080-0.531-1.827-1.638-1.827-2.916zM7.731 11.331l1.548 0.558c0.063 0.153 0.108 0.333 0.108 0.549 0 0.279-0.108 0.594-0.252 1.044l-0.315 1.080zM10.44 12.6c0 1.197-0.648 2.241-1.611 2.799l0.99-2.862c0.054-0.153 0.090-0.279 0.126-0.414l0.468 0.171c0.018 0.099 0.027 0.198 0.027 0.306zM6.282 15.705l0.972-2.826 0.999 2.727c0.009 0.018 0.009 0.036 0.018 0.045-0.333 0.117-0.693 0.189-1.071 0.189-0.315 0-0.621-0.054-0.918-0.135z"/>
</svg>
