<!-- Generated by IcoMoon.io -->
<svg version="1.1" xmlns="http://www.w3.org/2000/svg" width="18" height="18" viewBox="0 0 18 18">
<title>translation</title>
<path d="M9.9 6.3h-1.359c-0.567 0-1.125 0.27-1.431 0.63l-0.81-2.43h-2.583l-2.151 6.3h1.521l0.666-1.8h2.547v3.6h-4.5c-0.99 0-1.8-0.81-1.8-1.8v-6.3c0-0.99 0.81-1.8 1.8-1.8h6.3c0.99 0 1.8 0.81 1.8 1.8v1.8zM5.859 8.1h-1.818l0.9-2.637zM9 7.2h6.3c0.99 0 1.8 0.81 1.8 1.8v6.3c0 0.99-0.81 1.8-1.8 1.8h-6.3c-0.99 0-1.8-0.81-1.8-1.8v-6.3c0-0.99 0.81-1.8 1.8-1.8zM15.525 11.7v-0.972h-2.853v-1.953h-1.044v1.953h-2.853v0.972h1.152c0.099 0.765 0.504 1.665 1.152 2.358-0.783 0.324-1.701 0.558-2.079 0.558-0.009 0.018 0.198 0.873 0.18 1.314 0.756 0 1.989-0.45 2.952-1.035 0.981 0.585 2.232 1.035 3.006 1.035-0.018-0.441 0.18-1.296 0.18-1.314-0.387 0-1.341-0.243-2.142-0.567 0.63-0.693 1.026-1.593 1.125-2.349h1.224zM12.096 13.437c-0.45-0.414-0.765-1.017-0.909-1.737h1.881c-0.153 0.72-0.459 1.323-0.9 1.737l-0.036 0.027s-0.027-0.018-0.036-0.027z"></path>
</svg>
