<!-- Generated by IcoMoon.io -->
<svg version="1.1" xmlns="http://www.w3.org/2000/svg" width="18" height="18" viewBox="0 0 18 18">
<title>twitter</title>
<path d="M17.046 4.014c-0.441 0.657-0.999 1.242-1.647 1.71 0.009 0.135 0.009 0.279 0.009 0.423 0 4.365-3.321 9.396-9.387 9.396-1.863 0-3.6-0.549-5.067-1.485 0.261 0.027 0.522 0.045 0.792 0.045 1.548 0 2.97-0.531 4.095-1.413-1.44-0.027-2.655-0.981-3.078-2.295 0.198 0.036 0.405 0.063 0.621 0.063 0.297 0 0.594-0.045 0.864-0.117-1.503-0.306-2.646-1.638-2.646-3.24v-0.036c0.45 0.243 0.954 0.396 1.494 0.414-0.882-0.594-1.467-1.602-1.467-2.754 0-0.603 0.162-1.17 0.45-1.656 1.629 1.998 4.059 3.312 6.804 3.447-0.054-0.243-0.090-0.495-0.090-0.756 0-1.818 1.485-3.294 3.303-3.294 0.954 0 1.809 0.396 2.412 1.044 0.747-0.153 1.458-0.423 2.097-0.801-0.252 0.765-0.774 1.413-1.458 1.818 0.675-0.072 1.305-0.252 1.899-0.513z"></path>
</svg>
