<!-- Generated by IcoMoon.io -->
<svg version="1.1" xmlns="http://www.w3.org/2000/svg" width="18" height="18" viewBox="0 0 18 18">
<title>universal-access</title>
<path d="M9 2.34c0.747 0 1.35 0.603 1.35 1.35s-0.603 1.359-1.35 1.359c-0.738 0-1.35-0.612-1.35-1.359s0.612-1.35 1.35-1.35zM3.060 6.624c0-0.585 5.94-0.684 5.94-0.684s5.94 0.099 5.94 0.684-4.023 1.26-4.023 1.26 1.521 7.326 0.954 7.542c-0.558 0.216-2.871-4.671-2.871-4.671s-2.304 4.887-2.862 4.671c-0.567-0.216 0.954-7.542 0.954-7.542s-4.032-0.675-4.032-1.26z"/>
</svg>
