<!-- Generated by IcoMoon.io -->
<svg version="1.1" xmlns="http://www.w3.org/2000/svg" width="18" height="18" viewBox="0 0 18 18">
<title>update</title>
<path d="M9.18 2.952c3.177 0 5.787 2.349 6.228 5.4h1.872l-3.15 3.6-3.15-3.6h2.088c-0.405-1.773-1.989-3.105-3.888-3.105-1.305 0-2.457 0.639-3.186 1.602l-1.539-1.755c1.152-1.314 2.844-2.142 4.725-2.142zM8.82 15.048c-3.168 0-5.787-2.349-6.228-5.4h-1.872l3.15-3.6c1.053 1.197 2.097 2.403 3.15 3.6h-2.088c0.405 1.773 1.989 3.105 3.888 3.105 1.305 0 2.457-0.639 3.186-1.602l1.539 1.755c-1.152 1.314-2.835 2.142-4.725 2.142z"></path>
</svg>
