<!-- Generated by IcoMoon.io -->
<svg version="1.1" xmlns="http://www.w3.org/2000/svg" width="18" height="18" viewBox="0 0 18 18">
<title>vault</title>
<path d="M16.2 15.3v-12.6c0-0.495-0.405-0.9-0.9-0.9h-12.6c-0.495 0-0.9 0.405-0.9 0.9v12.6c0 0.495 0.405 0.9 0.9 0.9h12.6c0.495 0 0.9-0.405 0.9-0.9zM15.3 15.3h-12.6v-12.6h12.6v12.6zM4.275 3.6h9.45c0.369 0 0.675 0.306 0.675 0.675v1.125h-0.9v2.7h0.9v1.8h-0.9v2.7h0.9v1.125c0 0.369-0.306 0.675-0.675 0.675h-9.45c-0.369 0-0.675-0.306-0.675-0.675v-9.45c0-0.369 0.306-0.675 0.675-0.675zM11.7 9c0-1.989-1.611-3.6-3.6-3.6s-3.6 1.611-3.6 3.6 1.611 3.6 3.6 3.6 3.6-1.611 3.6-3.6zM8.1 6.3l0.693 1.035c0.648 0.279 1.107 0.918 1.107 1.665 0 0.99-0.81 1.8-1.8 1.8s-1.8-0.81-1.8-1.8c0-0.747 0.459-1.386 1.107-1.665z"/>
</svg>
