<!-- Generated by IcoMoon.io -->
<svg version="1.1" xmlns="http://www.w3.org/2000/svg" width="18" height="18" viewBox="0 0 18 18">
<title>visibility</title>
<path d="M17.73 8.46c-1.8-3.060-5.13-4.95-8.73-4.95s-6.93 1.89-8.73 4.95l-0.27 0.54 0.27 0.54c1.8 3.060 5.13 4.95 8.73 4.95s6.93-1.89 8.73-4.95l0.27-0.54-0.27-0.54zM9 12.69c-2.79 0-5.4-1.44-6.93-3.69 1.17-1.8 3.060-3.060 5.13-3.51-0.81 0.54-1.35 1.53-1.35 2.61 0 1.71 1.44 3.15 3.15 3.15s3.15-1.44 3.15-3.15c0-1.080-0.54-2.070-1.35-2.61 2.070 0.45 3.96 1.71 5.13 3.51-1.53 2.25-4.14 3.69-6.93 3.69z"></path>
</svg>
