<!-- Generated by IcoMoon.io -->
<svg version="1.1" xmlns="http://www.w3.org/2000/svg" width="18" height="18" viewBox="0 0 18 18">
<title>warning</title>
<path d="M9 1.8c3.978 0 7.2 3.222 7.2 7.2s-3.222 7.2-7.2 7.2-7.2-3.222-7.2-7.2 3.222-7.2 7.2-7.2zM10.017 10.242l0.315-5.814h-2.664l0.315 5.814h2.034zM9.936 13.266c0.216-0.207 0.333-0.495 0.333-0.864 0-0.378-0.108-0.666-0.324-0.873s-0.531-0.315-0.954-0.315-0.738 0.108-0.963 0.315-0.333 0.495-0.333 0.873c0 0.369 0.117 0.657 0.342 0.864 0.234 0.207 0.549 0.306 0.954 0.306s0.72-0.099 0.945-0.306z"/>
</svg>
