<!-- Generated by IcoMoon.io -->
<svg version="1.1" xmlns="http://www.w3.org/2000/svg" width="18" height="18" viewBox="0 0 18 18">
<title>welcome-learn-more</title>
<path d="M9 9l-6.714-2.682 0.414 9.882h-1.8l0.432-10.269-1.332-0.531 9-3.6 9 3.6zM9 4.5c-0.495 0-0.9 0.198-0.9 0.45s0.405 0.45 0.9 0.45 0.9-0.198 0.9-0.45-0.405-0.45-0.9-0.45zM9 9.9l5.013-2.007c0.639 0.846 1.080 1.863 1.224 2.97-0.27-0.036-0.549-0.063-0.837-0.063-2.295 0-4.302 1.233-5.4 3.069-1.098-1.836-3.105-3.069-5.4-3.069-0.288 0-0.567 0.027-0.837 0.063 0.144-1.107 0.585-2.124 1.224-2.97z"></path>
</svg>
