<!-- Generated by IcoMoon.io -->
<svg version="1.1" xmlns="http://www.w3.org/2000/svg" width="18" height="18" viewBox="0 0 18 18">
<title>welcome-widgets-menus</title>
<path d="M17.1 14.4v-11.7c0-0.495-0.405-0.9-0.9-0.9h-13.5c-0.495 0-0.9 0.405-0.9 0.9v11.7c0 0.495 0.405 0.9 0.9 0.9h13.5c0.495 0 0.9-0.405 0.9-0.9zM3.6 3.6h11.7v3.6h-11.7v-3.6zM4.5 4.5v1.8h2.7v-1.8h-2.7zM8.1 4.5v1.8h2.7v-1.8h-2.7zM11.7 4.5v1.8h2.7v-1.8h-2.7zM4.050 9c0.252 0 0.45 0.198 0.45 0.45s-0.198 0.45-0.45 0.45-0.45-0.198-0.45-0.45 0.198-0.45 0.45-0.45zM5.4 9h3.6v0.9h-3.6v-0.9zM10.8 9h4.5v4.5h-4.5v-4.5zM4.050 10.8c0.252 0 0.45 0.198 0.45 0.45s-0.198 0.45-0.45 0.45-0.45-0.198-0.45-0.45 0.198-0.45 0.45-0.45zM5.4 10.8h3.6v0.9h-3.6v-0.9zM11.7 10.8v1.8h2.7v-1.8h-2.7zM4.050 12.6c0.252 0 0.45 0.198 0.45 0.45s-0.198 0.45-0.45 0.45-0.45-0.198-0.45-0.45 0.198-0.45 0.45-0.45zM5.4 12.6h3.6v0.9h-3.6v-0.9z"/>
</svg>
