<!-- Generated by IcoMoon.io -->
<svg version="1.1" xmlns="http://www.w3.org/2000/svg" width="18" height="18" viewBox="0 0 18 18">
<title>welcome-view-site</title>
<path d="M16.2 12.6v-9c0-0.495-0.405-0.9-0.9-0.9h-12.6c-0.495 0-0.9 0.405-0.9 0.9v9c0 0.495 0.405 0.9 0.9 0.9h12.6c0.495 0 0.9-0.405 0.9-0.9zM9 5.4c2.070 0 3.96 1.026 5.4 2.7-1.44 1.674-3.33 2.7-5.4 2.7s-3.96-1.026-5.4-2.7c1.44-1.674 3.33-2.7 5.4-2.7zM10.8 8.1c0-0.99-0.81-1.8-1.8-1.8s-1.8 0.81-1.8 1.8 0.81 1.8 1.8 1.8 1.8-0.81 1.8-1.8zM12.6 15.3h2.7v0.9h-12.6v-0.9h2.7v-0.9h7.2v0.9z"/>
</svg>
