<!-- Generated by IcoMoon.io -->
<svg version="1.1" xmlns="http://www.w3.org/2000/svg" width="18" height="18" viewBox="0 0 18 18">
<title>wordpress</title>
<path d="M18 9c0-4.968-4.032-9-9-9s-9 4.032-9 9 4.032 9 9 9 9-4.032 9-9zM9 0.909c4.473 0 8.091 3.618 8.091 8.091s-3.618 8.091-8.091 8.091-8.091-3.618-8.091-8.091 3.618-8.091 8.091-8.091zM7.209 13.338l-2.745-7.389c0.441-0.027 0.945-0.072 0.945-0.072 0.387-0.045 0.342-0.909-0.054-0.891 0 0-1.161 0.090-1.917 0.090-0.135 0-0.297 0-0.468-0.009 1.296-1.953 3.51-3.24 6.030-3.24 1.881 0 3.591 0.711 4.869 1.881-0.54-0.072-1.305 0.315-1.305 1.278 0 0.594 0.342 1.098 0.711 1.692 0.279 0.486 0.45 1.098 0.45 1.989 0 1.206-1.143 4.032-1.143 4.032l-2.439-6.75c0.432-0.027 0.675-0.144 0.675-0.144 0.387-0.045 0.342-0.99-0.045-0.972 0 0-1.17 0.099-1.926 0.099-0.702 0-1.899-0.099-1.899-0.099-0.387-0.018-0.432 0.954-0.045 0.972l0.756 0.072 1.008 2.736zM12.627 15.273l2.349-6.273s0.603-1.521 0.351-3.429c0.567 1.026 0.846 2.178 0.846 3.429 0 2.664-1.404 5.022-3.546 6.273zM2.412 6.093l3.438 9.432c-2.403-1.17-4.023-3.672-4.023-6.525 0-1.044 0.18-2.007 0.585-2.907zM9.117 10.17l2.061 5.625c-0.675 0.243-1.413 0.378-2.178 0.378-0.648 0-1.269-0.099-1.854-0.27z"/>
</svg>
