<!-- Generated by IcoMoon.io -->
<svg version="1.1" xmlns="http://www.w3.org/2000/svg" width="18" height="18" viewBox="0 0 18 18">
<title>wordpress-alt</title>
<path d="M18 9c0-4.959-4.041-9-9-9-4.968 0-9 4.041-9 9 0 4.968 4.032 9 9 9 4.959 0 9-4.032 9-9zM7.002 13.833l-3.069-8.235c0.495-0.018 1.053-0.072 1.053-0.072 0.45-0.054 0.396-1.017-0.054-0.999 0 0-1.305 0.099-2.133 0.099-0.162 0-0.333 0-0.522-0.009 1.431-2.196 3.906-3.618 6.723-3.618 2.097 0 4.005 0.783 5.445 2.106-0.612-0.099-1.485 0.351-1.485 1.422 0 0.666 0.405 1.224 0.81 1.89 0.315 0.549 0.495 1.224 0.495 2.214 0 1.341-1.26 4.5-1.26 4.5l-2.727-7.533c0.486-0.018 0.738-0.153 0.738-0.153 0.45-0.045 0.396-1.125-0.054-1.098 0 0-1.296 0.108-2.142 0.108-0.783 0-2.097-0.108-2.097-0.108-0.45-0.027-0.504 1.080-0.054 1.098l0.828 0.072 1.134 3.069zM15.669 9c0.216-0.576 0.666-1.683 0.387-3.825 0.63 1.161 0.945 2.439 0.945 3.825 0 2.961-1.557 5.616-3.96 7.002 0.873-2.331 1.746-4.68 2.628-7.002zM5.49 16.281c-2.682-1.296-4.491-4.104-4.491-7.281 0-1.17 0.207-2.232 0.648-3.231 1.278 3.501 2.556 7.011 3.843 10.512zM9.117 10.314l2.322 6.282c-0.774 0.261-1.584 0.405-2.439 0.405-0.711 0-1.413-0.099-2.061-0.297 0.729-2.142 1.458-4.266 2.178-6.39z"></path>
</svg>
