<?xml version="1.0" encoding="utf-8"?>
<!-- Generated by IcoMoon.io -->
<!DOCTYPE svg PUBLIC "-//W3C//DTD SVG 1.1//EN" "http://www.w3.org/Graphics/SVG/1.1/DTD/svg11.dtd">
<svg version="1.1" xmlns="http://www.w3.org/2000/svg" xmlns:xlink="http://www.w3.org/1999/xlink" width="20" height="20" viewBox="0 0 20 20">
<path d="M18.010 11.18v-8.67c0-1.19-0.9-1.81-2-1.37l-12.010 4.77c-1.1 0.44-2 1.77-2 2.97v8.66c0 1.2 0.9 1.81 2 1.37l12.010-4.77c1.1-0.44 2-1.76 2-2.96zM16.58 3.72l-6.040 9.33-6.65-4.6c-0.1-0.070-0.36-0.32-0.17-0.64 0.21-0.36 0.65-0.21 0.65-0.21l6.3 2.32s4.83-6.34 5.11-6.7c0.13-0.17 0.43-0.34 0.73-0.13 0.29 0.2 0.16 0.49 0.070 0.63z"></path>
</svg>
