<?xml version="1.0" encoding="utf-8"?>
<!-- Generated by IcoMoon.io -->
<!DOCTYPE svg PUBLIC "-//W3C//DTD SVG 1.1//EN" "http://www.w3.org/Graphics/SVG/1.1/DTD/svg11.dtd">
<svg version="1.1" xmlns="http://www.w3.org/2000/svg" xmlns:xlink="http://www.w3.org/1999/xlink" width="20" height="20" viewBox="0 0 20 20">
<path d="M12 4h3c0.55 0 1 0.45 1 1v1h-13v-1c0-0.55 0.45-1 1-1h3c0.23-1.14 1.29-2 2.5-2s2.27 0.86 2.5 2zM8 4h3c-0.21-0.58-0.85-1-1.5-1s-1.29 0.42-1.5 1zM4 7h11v10c0 0.55-0.45 1-1 1h-9c-0.55 0-1-0.45-1-1v-10zM7 16v-7h-1v7h1zM10 16v-7h-1v7h1zM13 16v-7h-1v7h1z"></path>
</svg>
