<?xml version="1.0" encoding="utf-8"?>
<!-- Generated by IcoMoon.io -->
<!DOCTYPE svg PUBLIC "-//W3C//DTD SVG 1.1//EN" "http://www.w3.org/Graphics/SVG/1.1/DTD/svg11.dtd">
<svg version="1.1" xmlns="http://www.w3.org/2000/svg" xmlns:xlink="http://www.w3.org/1999/xlink" width="20" height="20" viewBox="0 0 20 20">
<path d="M10 5.090c3.98 0 7.4 2.25 9 5.5-1.6 3.25-5.020 5.5-9 5.5s-7.4-2.25-9-5.5c1.6-3.25 5.020-5.5 9-5.5zM12.35 8.19c0-0.59-0.39-1.080-0.92-1.24-0.16-0.020-0.32-0.030-0.49-0.040-0.65 0.050-1.17 0.6-1.17 1.28 0 0.71 0.58 1.29 1.29 1.29 0.72 0 1.29-0.58 1.29-1.29zM10 14.89c3.36 0 6.25-1.88 7.6-4.3-0.93-1.67-2.6-2.81-4.65-3.35 0.67 0.72 1.090 1.69 1.090 2.76 0 2.23-1.81 4.040-4.040 4.040s-4.040-1.81-4.040-4.040c0-1.070 0.42-2.040 1.090-2.76-2.050 0.54-3.72 1.68-4.65 3.35 1.35 2.42 4.24 4.3 7.6 4.3z"></path>
</svg>
