<?xml version="1.0" encoding="utf-8"?>
<!-- Generated by IcoMoon.io -->
<!DOCTYPE svg PUBLIC "-//W3C//DTD SVG 1.1//EN" "http://www.w3.org/Graphics/SVG/1.1/DTD/svg11.dtd">
<svg version="1.1" xmlns="http://www.w3.org/2000/svg" xmlns:xlink="http://www.w3.org/1999/xlink" width="20" height="20" viewBox="0 0 20 20">
<path d="M2.77 10.1c0.51-1.2 1.24-2.28 2.15-3.18 0.9-0.91 1.98-1.64 3.18-2.15s2.52-0.79 3.9-0.79v-2.98l6 4.5-6 4.5v-3c-0.97 0-1.89 0.2-2.73 0.55-0.83 0.35-1.59 0.87-2.22 1.5s-1.15 1.39-1.5 2.23c-0.35 0.83-0.55 1.75-0.55 2.72s0.2 1.89 0.55 2.73l-2.78 1.17c-0.51-1.2-0.79-2.52-0.79-3.9s0.28-2.7 0.79-3.9z"></path>
</svg>
