<?xml version="1.0" encoding="utf-8"?>
<!-- Generated by IcoMoon.io -->
<!DOCTYPE svg PUBLIC "-//W3C//DTD SVG 1.1//EN" "http://www.w3.org/Graphics/SVG/1.1/DTD/svg11.dtd">
<svg version="1.1" xmlns="http://www.w3.org/2000/svg" xmlns:xlink="http://www.w3.org/1999/xlink" width="20" height="20" viewBox="0 0 20 20">
<path d="M17.2 3.3l0.16 0.17c0.39 0.39 0.39 1.020 0 1.41l-12.81 12.82c-0.39 0.39-1.030 0.39-1.41 0l-0.17-0.17c-0.39-0.39-0.39-1.020 0-1.41l1.59-1.6c-1.57-1-2.76-2.3-3.56-3.93 0.81-1.65 2.030-2.98 3.64-3.99s3.4-1.51 5.36-1.51c1.2 0 2.33 0.21 3.4 0.6l2.38-2.39c0.39-0.39 1.030-0.39 1.42 0zM10.11 7.31c-0.23 0.25-0.34 0.54-0.34 0.88 0 0.31 0.12 0.58 0.31 0.81l1.8-1.79c-0.13-0.12-0.28-0.21-0.45-0.26-0.11-0.010-0.28-0.030-0.49-0.040-0.33 0.030-0.6 0.16-0.83 0.4zM2.4 10.59c0.69 1.23 1.71 2.25 3.050 3.050l1.28-1.28c-0.51-0.69-0.77-1.47-0.77-2.36 0-1.060 0.36-1.98 1.090-2.76-1.040 0.27-1.96 0.7-2.76 1.26-0.8 0.58-1.43 1.27-1.89 2.090zM15.62 8.46l0.96-0.96c1.020 0.86 1.83 1.89 2.42 3.090-0.81 1.65-2.030 2.98-3.64 3.99s-3.4 1.51-5.36 1.51c-0.63 0-1.24-0.070-1.83-0.18l1.070-1.070c0.25 0.020 0.5 0.050 0.76 0.050 1.63 0 3.13-0.4 4.5-1.21s2.4-1.84 3.1-3.090c-0.46-0.82-1.090-1.51-1.89-2.090-0.030-0.010-0.060-0.030-0.090-0.040zM10.040 14.040l4-4c-0.010 1.1-0.41 2.040-1.18 2.81-0.78 0.78-1.72 1.18-2.82 1.19z"></path>
</svg>
