<?xml version="1.0" encoding="utf-8"?>
<!-- Generated by IcoMoon.io -->
<!DOCTYPE svg PUBLIC "-//W3C//DTD SVG 1.1//EN" "http://www.w3.org/Graphics/SVG/1.1/DTD/svg11.dtd">
<svg version="1.1" xmlns="http://www.w3.org/2000/svg" xmlns:xlink="http://www.w3.org/1999/xlink" width="20" height="20" viewBox="0 0 20 20">
<path d="M19 10c0-4.97-4.030-9-9-9s-9 4.030-9 9 4.030 9 9 9 9-4.030 9-9zM8 10.1c-2.84-0.29-4.48-1.17-5.48-2.29 0.97-3.16 3.8-5.48 7.25-5.63-0.84 1.38-1.5 4.13-0.030 5.57-1.51 0.21-2.21-1.86-3.11-1.15-1.43 1.12-0.080 2.67 3.2 3.27 3.29 0.59 3.66 1.58 3.63 3.080-0.030 1.47-0.8 3.3-4.060 4.7 0.090-4.18-2.64-3.84-3.2-5.040 0.2-0.87 0.44-1.78 1.8-2.51zM16.49 5.78c2.15 3.3 1.020 6.080 0.84 6.68-0.77-1.86-2.17-2.29-2.53-3.54-0.32-1.11 0.62-2.23 1.69-3.14z"></path>
</svg>
