<?xml version="1.0" encoding="utf-8"?>
<!-- Generated by IcoMoon.io -->
<!DOCTYPE svg PUBLIC "-//W3C//DTD SVG 1.1//EN" "http://www.w3.org/Graphics/SVG/1.1/DTD/svg11.dtd">
<svg version="1.1" xmlns="http://www.w3.org/2000/svg" xmlns:xlink="http://www.w3.org/1999/xlink" width="20" height="20" viewBox="0 0 20 20">
<path d="M17.23 10.1c0.51 1.2 0.79 2.52 0.79 3.9s-0.28 2.7-0.79 3.9l-2.78-1.17c0.35-0.84 0.55-1.76 0.55-2.73s-0.2-1.89-0.55-2.72c-0.35-0.84-0.87-1.6-1.5-2.23s-1.39-1.15-2.22-1.5c-0.84-0.35-1.76-0.55-2.73-0.55v3l-6-4.5 6-4.5v2.98c1.38 0 2.7 0.28 3.9 0.79s2.28 1.24 3.18 2.15c0.91 0.9 1.64 1.98 2.15 3.18z"></path>
</svg>
