<?xml version="1.0" encoding="utf-8"?>
<!-- Generated by IcoMoon.io -->
<!DOCTYPE svg PUBLIC "-//W3C//DTD SVG 1.1//EN" "http://www.w3.org/Graphics/SVG/1.1/DTD/svg11.dtd">
<svg version="1.1" xmlns="http://www.w3.org/2000/svg" xmlns:xlink="http://www.w3.org/1999/xlink" width="20" height="20" viewBox="0 0 20 20">
<path d="M10 3c2.090 0 3.97 0.92 5.25 2.38l-1.71 1.95c-0.81-1.070-2.090-1.78-3.54-1.78-2.11 0-3.87 1.48-4.32 3.45h2.32l-3.5 4-3.5-4h2.080c0.49-3.39 3.39-6 6.92-6zM10 17.040c-2.1 0-3.97-0.92-5.25-2.38l1.71-1.95c0.81 1.070 2.090 1.78 3.54 1.78 2.11 0 3.87-1.48 4.32-3.45h-2.32l3.5-4 3.5 4h-2.080c-0.49 3.39-3.4 6-6.92 6z"></path>
</svg>
