<?xml version="1.0" encoding="utf-8"?>
<!-- Generated by IcoMoon.io -->
<!DOCTYPE svg PUBLIC "-//W3C//DTD SVG 1.1//EN" "http://www.w3.org/Graphics/SVG/1.1/DTD/svg11.dtd">
<svg version="1.1" xmlns="http://www.w3.org/2000/svg" xmlns:xlink="http://www.w3.org/1999/xlink" width="20" height="20" viewBox="0 0 20 20">
<path d="M0.19 5.92c-0.49 0.4 4.030 4.97 4.030 4.97s10.37-10.26 9.7-10.63c-0.67-0.38-9.77 7.33-9.77 7.33s-3.46-2.070-3.96-1.67zM15.42 6.9l-3.15 3.15-1.81-1.82 3.15-3.15c0.34-0.33 1.020-0.2 1.51 0.31 0.51 0.5 0.64 1.18 0.3 1.51zM7.65 8.62l0.88-1.090 8.76 8.75-1.16 0.81c-0.69 0.69-2.55 1.13-3.71 1.13h-3.77l-1.21 1.21c-0.57 0.57-1.49 0.57-2.060 0s-0.57-1.49 0-2.070l1.21-1.2v-3.76c0-1.1 0.39-3.1 1.060-3.78zM14.7 12.48l3.15-3.15c0.33-0.34 1.010-0.21 1.51 0.3 0.51 0.49 0.64 1.17 0.3 1.5l-3.15 3.16z"></path>
</svg>
