<?xml version="1.0" encoding="utf-8"?>
<!-- Generated by IcoMoon.io -->
<!DOCTYPE svg PUBLIC "-//W3C//DTD SVG 1.1//EN" "http://www.w3.org/Graphics/SVG/1.1/DTD/svg11.dtd">
<svg version="1.1" xmlns="http://www.w3.org/2000/svg" xmlns:xlink="http://www.w3.org/1999/xlink" width="20" height="20" viewBox="0 0 20 20">
<path d="M15 6v2c1.1 0 2 0.9 2 2v7c0 1.1-0.9 2-2 2h-10c-1.1 0-2-0.9-2-2v-7c0-1.1 0.9-2 2-2v-2c0-2.76 2.24-5 5-5s5 2.24 5 5zM8 6v2h4v-2c0-1.1-0.9-2-2-2s-2 0.9-2 2zM10.8 16.25v-2.17c0.7-0.31 1.2-1.010 1.2-1.83 0-1.1-0.9-2-2-2s-2 0.9-2 2c0 0.82 0.5 1.52 1.2 1.83v2.17h1.6z"></path>
</svg>
