<?xml version="1.0" encoding="utf-8"?>
<!-- Generated by IcoMoon.io -->
<!DOCTYPE svg PUBLIC "-//W3C//DTD SVG 1.1//EN" "http://www.w3.org/Graphics/SVG/1.1/DTD/svg11.dtd">
<svg version="1.1" xmlns="http://www.w3.org/2000/svg" xmlns:xlink="http://www.w3.org/1999/xlink" width="20" height="20" viewBox="0 0 20 20">
<path d="M10 2c4.41 0 8 3.59 8 8s-3.59 8-8 8-8-3.59-8-8 3.59-8 8-8zM10 17.5c4.14 0 7.5-3.36 7.5-7.5s-3.36-7.5-7.5-7.5-7.5 3.36-7.5 7.5c0 1.51 0.45 2.92 1.22 4.1 0.28 0.42 0.6 0.81 0.95 1.17 1.36 1.38 3.25 2.23 5.33 2.23zM10 3.26c3.72 0 6.74 3.020 6.74 6.74s-3.020 6.74-6.74 6.74c-1.38 0-2.67-0.41-3.74-1.13 1.060-0.060 2.080-0.61 2.77-1.41 0.24 0.69 1 1.42 2.31 1.42 1.73 0 3.42-1.35 3.77-3 0.38-1.65-0.39-2.99-2.1-2.99-0.63 0-1.37 0.34-1.86 0.73l1.040-4.79c0.030-0.17-0.040-0.3-0.22-0.25-0.46 0.12-1.68 0.26-2.27 0.32-0.38 0.040-0.34 0.61 0.040 0.59 0.83-0.030 0.76 0.26 0.4 1.9l-0.54 2.43c-0.35-0.57-0.98-0.93-1.86-0.93-0.64 0-1.37 0.34-1.86 0.73 0 0 1-4.61 1.030-4.79 0.040-0.17-0.030-0.3-0.21-0.25-0.36 0.090-1.17 0.19-1.79 0.26 1.23-1.42 3.050-2.32 5.090-2.32zM4.41 6.23h0.060c0.83-0.030 0.76 0.26 0.39 1.9l-1.010 4.63c-0.38-0.84-0.59-1.78-0.59-2.76 0-1.4 0.42-2.69 1.15-3.77zM8.53 12.62c-0.29 1.3-1.080 2.4-2.26 2.4-0.65 0-1.31-0.49-1.060-1.57l0.34-1.67c0.21-0.88 1.060-1.5 1.84-1.5 1.14 0 1.43 1.030 1.14 2.34zM13.8 12.62c-0.28 1.3-1.080 2.4-2.26 2.4-0.65 0-1.3-0.49-1.060-1.57l0.35-1.67c0.2-0.88 1.060-1.5 1.83-1.5 1.14 0 1.43 1.030 1.14 2.34z"></path>
</svg>
